999
********************************
999
*   DXF File - Entities Only   *
999
*        3D Data Format        *
999
*     Output from ENVISAGE     *
999
*     21-Dec-2025 09:39:37     *
999
********************************
  0
SECTION 
  2
HEADER
  9
$ACADVER
  1
AC1009
  9
$EXTMIN
 10
473000.000
 20
6768000.000
 30
0.000
  9
$EXTMAX
 10
483000.000
 20
6776000.000
 30
600.000
  0
ENDSEC
  0
SECTION
  2
TABLES
  0
TABLE
  2
APPID
  2
ACAD
 70
     0
  0
APPID
  2
MAPTEK_VULCAN
 70
     0
  0
ENDTAB
  0
ENDSEC
  0
SECTION
  2
ENTITIES
  0
POLYLINE
  8
CLUP_S4_226_406-405
 62
4
 66
     1
 70
     9
1001
MAPTEK_VULCAN
1000
VulcanName=S4_266_406
1000
VulcanGroup=
1000
VulcanValue=0
1000
VulcanDescription=138504.7 BCM, 597HOLES - 8057 METERS, BxS = 4.5m x 5.2m @ stem = 3.7m
1000
VulcanPrimitive=
1000
VulcanLine=30
1000
VulcanPattern=0
1000
VulcanFeature=
  0
VERTEX
  8
CLUP_S4_226_406-405
 62
4
 10
478059.504
 20
6771843.915
 30
226.000
 70
    32
  0
VERTEX
  8
CLUP_S4_226_406-405
 62
4
 10
478006.002
 20
6771713.618
 30
226.000
 70
    32
  0
VERTEX
  8
CLUP_S4_226_406-405
 62
4
 10
478007.689
 20
6771713.863
 30
226.000
 70
    32
  0
VERTEX
  8
CLUP_S4_226_406-405
 62
4
 10
478008.745
 20
6771713.790
 30
226.000
 70
    32
  0
VERTEX
  8
CLUP_S4_226_406-405
 62
4
 10
478010.996
 20
6771713.693
 30
226.000
 70
    32
  0
VERTEX
  8
CLUP_S4_226_406-405
 62
4
 10
478012.843
 20
6771713.479
 30
226.000
 70
    32
  0
VERTEX
  8
CLUP_S4_226_406-405
 62
4
 10
478013.644
 20
6771713.483
 30
226.000
 70
    32
  0
VERTEX
  8
CLUP_S4_226_406-405
 62
4
 10
478015.472
 20
6771713.395
 30
226.000
 70
    32
  0
VERTEX
  8
CLUP_S4_226_406-405
 62
4
 10
478017.294
 20
6771713.385
 30
226.000
 70
    32
  0
VERTEX
  8
CLUP_S4_226_406-405
 62
4
 10
478018.166
 20
6771713.421
 30
226.000
 70
    32
  0
VERTEX
  8
CLUP_S4_226_406-405
 62
4
 10
478020.070
 20
6771713.466
 30
226.000
 70
    32
  0
VERTEX
  8
CLUP_S4_226_406-405
 62
4
 10
478022.000
 20
6771713.519
 30
226.000
 70
    32
  0
VERTEX
  8
CLUP_S4_226_406-405
 62
4
 10
478022.564
 20
6771713.531
 30
226.000
 70
    32
  0
VERTEX
  8
CLUP_S4_226_406-405
 62
4
 10
478024.330
 20
6771713.637
 30
226.000
 70
    32
  0
VERTEX
  8
CLUP_S4_226_406-405
 62
4
 10
478026.000
 20
6771713.489
 30
226.000
 70
    32
  0
VERTEX
  8
CLUP_S4_226_406-405
 62
4
 10
478026.596
 20
6771713.461
 30
226.000
 70
    32
  0
VERTEX
  8
CLUP_S4_226_406-405
 62
4
 10
478028.299
 20
6771713.381
 30
226.000
 70
    32
  0
VERTEX
  8
CLUP_S4_226_406-405
 62
4
 10
478029.870
 20
6771713.250
 30
226.000
 70
    32
  0
VERTEX
  8
CLUP_S4_226_406-405
 62
4
 10
478031.348
 20
6771713.075
 30
226.000
 70
    32
  0
VERTEX
  8
CLUP_S4_226_406-405
 62
4
 10
478032.835
 20
6771712.979
 30
226.000
 70
    32
  0
VERTEX
  8
CLUP_S4_226_406-405
 62
4
 10
478034.223
 20
6771712.952
 30
226.000
 70
    32
  0
VERTEX
  8
CLUP_S4_226_406-405
 62
4
 10
478035.791
 20
6771712.913
 30
226.000
 70
    32
  0
VERTEX
  8
CLUP_S4_226_406-405
 62
4
 10
478037.197
 20
6771712.898
 30
226.000
 70
    32
  0
VERTEX
  8
CLUP_S4_226_406-405
 62
4
 10
478038.833
 20
6771712.909
 30
226.000
 70
    32
  0
VERTEX
  8
CLUP_S4_226_406-405
 62
4
 10
478040.119
 20
6771712.866
 30
226.000
 70
    32
  0
VERTEX
  8
CLUP_S4_226_406-405
 62
4
 10
478041.809
 20
6771712.924
 30
226.000
 70
    32
  0
VERTEX
  8
CLUP_S4_226_406-405
 62
4
 10
478043.380
 20
6771712.747
 30
226.000
 70
    32
  0
VERTEX
  8
CLUP_S4_226_406-405
 62
4
 10
478044.317
 20
6771712.635
 30
226.000
 70
    32
  0
VERTEX
  8
CLUP_S4_226_406-405
 62
4
 10
478045.838
 20
6771712.533
 30
226.000
 70
    32
  0
VERTEX
  8
CLUP_S4_226_406-405
 62
4
 10
478047.040
 20
6771712.372
 30
226.000
 70
    32
  0
VERTEX
  8
CLUP_S4_226_406-405
 62
4
 10
478049.928
 20
6771711.983
 30
226.000
 70
    32
  0
VERTEX
  8
CLUP_S4_226_406-405
 62
4
 10
478049.949
 20
6771711.981
 30
226.000
 70
    32
  0
VERTEX
  8
CLUP_S4_226_406-405
 62
4
 10
478049.965
 20
6771711.980
 30
226.000
 70
    32
  0
VERTEX
  8
CLUP_S4_226_406-405
 62
4
 10
478053.465
 20
6771711.856
 30
226.000
 70
    32
  0
VERTEX
  8
CLUP_S4_226_406-405
 62
4
 10
478053.943
 20
6771711.821
 30
226.000
 70
    32
  0
VERTEX
  8
CLUP_S4_226_406-405
 62
4
 10
478054.515
 20
6771711.799
 30
226.000
 70
    32
  0
VERTEX
  8
CLUP_S4_226_406-405
 62
4
 10
478057.915
 20
6771711.751
 30
226.000
 70
    32
  0
VERTEX
  8
CLUP_S4_226_406-405
 62
4
 10
478058.845
 20
6771711.718
 30
226.000
 70
    32
  0
VERTEX
  8
CLUP_S4_226_406-405
 62
4
 10
478059.606
 20
6771711.709
 30
226.000
 70
    32
  0
VERTEX
  8
CLUP_S4_226_406-405
 62
4
 10
478062.770
 20
6771711.655
 30
226.000
 70
    32
  0
VERTEX
  8
CLUP_S4_226_406-405
 62
4
 10
478063.077
 20
6771711.648
 30
226.000
 70
    32
  0
VERTEX
  8
CLUP_S4_226_406-405
 62
4
 10
478063.363
 20
6771711.654
 30
226.000
 70
    32
  0
VERTEX
  8
CLUP_S4_226_406-405
 62
4
 10
478066.539
 20
6771711.711
 30
226.000
 70
    32
  0
VERTEX
  8
CLUP_S4_226_406-405
 62
4
 10
478067.424
 20
6771711.716
 30
226.000
 70
    32
  0
VERTEX
  8
CLUP_S4_226_406-405
 62
4
 10
478068.336
 20
6771711.670
 30
226.000
 70
    32
  0
VERTEX
  8
CLUP_S4_226_406-405
 62
4
 10
478071.172
 20
6771711.606
 30
226.000
 70
    32
  0
VERTEX
  8
CLUP_S4_226_406-405
 62
4
 10
478071.831
 20
6771711.602
 30
226.000
 70
    32
  0
VERTEX
  8
CLUP_S4_226_406-405
 62
4
 10
478072.441
 20
6771711.677
 30
226.000
 70
    32
  0
VERTEX
  8
CLUP_S4_226_406-405
 62
4
 10
478075.459
 20
6771711.763
 30
226.000
 70
    32
  0
VERTEX
  8
CLUP_S4_226_406-405
 62
4
 10
478076.059
 20
6771711.826
 30
226.000
 70
    32
  0
VERTEX
  8
CLUP_S4_226_406-405
 62
4
 10
478079.640
 20
6771711.807
 30
226.000
 70
    32
  0
VERTEX
  8
CLUP_S4_226_406-405
 62
4
 10
478079.806
 20
6771711.798
 30
226.000
 70
    32
  0
VERTEX
  8
CLUP_S4_226_406-405
 62
4
 10
478080.106
 20
6771711.784
 30
226.000
 70
    32
  0
VERTEX
  8
CLUP_S4_226_406-405
 62
4
 10
478082.533
 20
6771711.644
 30
226.000
 70
    32
  0
VERTEX
  8
CLUP_S4_226_406-405
 62
4
 10
478084.447
 20
6771711.642
 30
226.000
 70
    32
  0
VERTEX
  8
CLUP_S4_226_406-405
 62
4
 10
478084.912
 20
6771711.646
 30
226.000
 70
    32
  0
VERTEX
  8
CLUP_S4_226_406-405
 62
4
 10
478085.228
 20
6771711.641
 30
226.000
 70
    32
  0
VERTEX
  8
CLUP_S4_226_406-405
 62
4
 10
478087.884
 20
6771711.655
 30
226.000
 70
    32
  0
VERTEX
  8
CLUP_S4_226_406-405
 62
4
 10
478088.213
 20
6771711.658
 30
226.000
 70
    32
  0
VERTEX
  8
CLUP_S4_226_406-405
 62
4
 10
478088.827
 20
6771711.648
 30
226.000
 70
    32
  0
VERTEX
  8
CLUP_S4_226_406-405
 62
4
 10
478090.736
 20
6771711.688
 30
226.000
 70
    32
  0
VERTEX
  8
CLUP_S4_226_406-405
 62
4
 10
478091.913
 20
6771711.768
 30
226.000
 70
    32
  0
VERTEX
  8
CLUP_S4_226_406-405
 62
4
 10
478093.396
 20
6771711.842
 30
226.000
 70
    32
  0
VERTEX
  8
CLUP_S4_226_406-405
 62
4
 10
478095.347
 20
6771711.906
 30
226.000
 70
    32
  0
VERTEX
  8
CLUP_S4_226_406-405
 62
4
 10
478096.021
 20
6771711.914
 30
226.000
 70
    32
  0
VERTEX
  8
CLUP_S4_226_406-405
 62
4
 10
478096.413
 20
6771711.923
 30
226.000
 70
    32
  0
VERTEX
  8
CLUP_S4_226_406-405
 62
4
 10
478096.857
 20
6771712.096
 30
226.000
 70
    32
  0
VERTEX
  8
CLUP_S4_226_406-405
 62
4
 10
478097.819
 20
6771712.333
 30
226.000
 70
    32
  0
VERTEX
  8
CLUP_S4_226_406-405
 62
4
 10
478098.376
 20
6771712.238
 30
226.000
 70
    32
  0
VERTEX
  8
CLUP_S4_226_406-405
 62
4
 10
478099.370
 20
6771712.074
 30
226.000
 70
    32
  0
VERTEX
  8
CLUP_S4_226_406-405
 62
4
 10
478100.730
 20
6771712.071
 30
226.000
 70
    32
  0
VERTEX
  8
CLUP_S4_226_406-405
 62
4
 10
478100.856
 20
6771711.974
 30
226.000
 70
    32
  0
VERTEX
  8
CLUP_S4_226_406-405
 62
4
 10
478101.881
 20
6771711.079
 30
226.000
 70
    32
  0
VERTEX
  8
CLUP_S4_226_406-405
 62
4
 10
478102.558
 20
6771710.577
 30
226.000
 70
    32
  0
VERTEX
  8
CLUP_S4_226_406-405
 62
4
 10
478103.365
 20
6771709.792
 30
226.000
 70
    32
  0
VERTEX
  8
CLUP_S4_226_406-405
 62
4
 10
478103.448
 20
6771709.686
 30
226.000
 70
    32
  0
VERTEX
  8
CLUP_S4_226_406-405
 62
4
 10
478103.954
 20
6771708.634
 30
226.000
 70
    32
  0
VERTEX
  8
CLUP_S4_226_406-405
 62
4
 10
478104.399
 20
6771708.227
 30
226.000
 70
    32
  0
VERTEX
  8
CLUP_S4_226_406-405
 62
4
 10
478104.732
 20
6771707.557
 30
226.000
 70
    32
  0
VERTEX
  8
CLUP_S4_226_406-405
 62
4
 10
478105.536
 20
6771706.547
 30
226.000
 70
    32
  0
VERTEX
  8
CLUP_S4_226_406-405
 62
4
 10
478105.964
 20
6771705.913
 30
226.000
 70
    32
  0
VERTEX
  8
CLUP_S4_226_406-405
 62
4
 10
478106.572
 20
6771705.156
 30
226.000
 70
    32
  0
VERTEX
  8
CLUP_S4_226_406-405
 62
4
 10
478107.401
 20
6771704.032
 30
226.000
 70
    32
  0
VERTEX
  8
CLUP_S4_226_406-405
 62
4
 10
478107.476
 20
6771703.975
 30
226.000
 70
    32
  0
VERTEX
  8
CLUP_S4_226_406-405
 62
4
 10
478107.859
 20
6771703.333
 30
226.000
 70
    32
  0
VERTEX
  8
CLUP_S4_226_406-405
 62
4
 10
478117.277
 20
6771713.499
 30
226.000
 70
    32
  0
VERTEX
  8
CLUP_S4_226_406-405
 62
4
 10
478117.008
 20
6771716.435
 30
226.000
 70
    32
  0
VERTEX
  8
CLUP_S4_226_406-405
 62
4
 10
478115.592
 20
6771731.864
 30
226.000
 70
    32
  0
VERTEX
  8
CLUP_S4_226_406-405
 62
4
 10
478117.567
 20
6771744.981
 30
226.000
 70
    32
  0
VERTEX
  8
CLUP_S4_226_406-405
 62
4
 10
478123.431
 20
6771758.848
 30
226.000
 70
    32
  0
VERTEX
  8
CLUP_S4_226_406-405
 62
4
 10
478129.295
 20
6771772.716
 30
226.000
 70
    32
  0
VERTEX
  8
CLUP_S4_226_406-405
 62
4
 10
478135.160
 20
6771786.584
 30
226.000
 70
    32
  0
VERTEX
  8
CLUP_S4_226_406-405
 62
4
 10
478141.024
 20
6771800.452
 30
226.000
 70
    32
  0
VERTEX
  8
CLUP_S4_226_406-405
 62
4
 10
478144.623
 20
6771808.963
 30
226.000
 70
    32
  0
SEQEND
  8
CLUP_S4_226_406-405
  0
POLYLINE
  8
CLUP_S4_226_406-405
 62
2
 66
     1
 70
     9
1001
MAPTEK_VULCAN
1000
VulcanName=BRU226.0
1000
VulcanGroup=
1000
VulcanValue=0
1000
VulcanDescription= Berm up to level 226.0
1000
VulcanPrimitive=
1000
VulcanLine=30
1000
VulcanPattern=0
1000
VulcanFeature=
  0
VERTEX
  8
CLUP_S4_226_406-405
 62
2
 10
478057.850
 20
6771866.214
 30
226.000
 70
    32
  0
VERTEX
  8
CLUP_S4_226_406-405
 62
2
 10
477990.097
 20
6771701.212
 30
226.000
 70
    32
  0
VERTEX
  8
CLUP_S4_226_406-405
 62
2
 10
478008.186
 20
6771703.805
 30
226.000
 70
    32
  0
VERTEX
  8
CLUP_S4_226_406-405
 62
2
 10
478010.204
 20
6771703.718
 30
226.000
 70
    32
  0
VERTEX
  8
CLUP_S4_226_406-405
 62
2
 10
478012.292
 20
6771703.476
 30
226.000
 70
    32
  0
VERTEX
  8
CLUP_S4_226_406-405
 62
2
 10
478013.430
 20
6771703.482
 30
226.000
 70
    32
  0
VERTEX
  8
CLUP_S4_226_406-405
 62
2
 10
478015.206
 20
6771703.397
 30
226.000
 70
    32
  0
VERTEX
  8
CLUP_S4_226_406-405
 62
2
 10
478017.468
 20
6771703.384
 30
226.000
 70
    32
  0
VERTEX
  8
CLUP_S4_226_406-405
 62
2
 10
478018.487
 20
6771703.425
 30
226.000
 70
    32
  0
VERTEX
  8
CLUP_S4_226_406-405
 62
2
 10
478020.326
 20
6771703.470
 30
226.000
 70
    32
  0
VERTEX
  8
CLUP_S4_226_406-405
 62
2
 10
478022.973
 20
6771703.538
 30
226.000
 70
    32
  0
VERTEX
  8
CLUP_S4_226_406-405
 62
2
 10
478024.188
 20
6771703.611
 30
226.000
 70
    32
  0
VERTEX
  8
CLUP_S4_226_406-405
 62
2
 10
478026.120
 20
6771703.472
 30
226.000
 70
    32
  0
VERTEX
  8
CLUP_S4_226_406-405
 62
2
 10
478027.650
 20
6771703.400
 30
226.000
 70
    32
  0
VERTEX
  8
CLUP_S4_226_406-405
 62
2
 10
478028.868
 20
6771703.299
 30
226.000
 70
    32
  0
VERTEX
  8
CLUP_S4_226_406-405
 62
2
 10
478030.437
 20
6771703.113
 30
226.000
 70
    32
  0
VERTEX
  8
CLUP_S4_226_406-405
 62
2
 10
478032.413
 20
6771702.986
 30
226.000
 70
    32
  0
VERTEX
  8
CLUP_S4_226_406-405
 62
2
 10
478034.002
 20
6771702.954
 30
226.000
 70
    32
  0
VERTEX
  8
CLUP_S4_226_406-405
 62
2
 10
478035.616
 20
6771702.915
 30
226.000
 70
    32
  0
VERTEX
  8
CLUP_S4_226_406-405
 62
2
 10
478037.176
 20
6771702.898
 30
226.000
 70
    32
  0
VERTEX
  8
CLUP_S4_226_406-405
 62
2
 10
478038.699
 20
6771702.908
 30
226.000
 70
    32
  0
VERTEX
  8
CLUP_S4_226_406-405
 62
2
 10
478040.124
 20
6771702.860
 30
226.000
 70
    32
  0
VERTEX
  8
CLUP_S4_226_406-405
 62
2
 10
478042.226
 20
6771702.813
 30
226.000
 70
    32
  0
VERTEX
  8
CLUP_S4_226_406-405
 62
2
 10
478043.390
 20
6771702.674
 30
226.000
 70
    32
  0
VERTEX
  8
CLUP_S4_226_406-405
 62
2
 10
478045.710
 20
6771702.461
 30
226.000
 70
    32
  0
VERTEX
  8
CLUP_S4_226_406-405
 62
2
 10
478049.457
 20
6771701.992
 30
226.000
 70
    32
  0
VERTEX
  8
CLUP_S4_226_406-405
 62
2
 10
478054.252
 20
6771701.802
 30
226.000
 70
    32
  0
VERTEX
  8
CLUP_S4_226_406-405
 62
2
 10
478059.457
 20
6771701.710
 30
226.000
 70
    32
  0
VERTEX
  8
CLUP_S4_226_406-405
 62
2
 10
478063.551
 20
6771701.655
 30
226.000
 70
    32
  0
VERTEX
  8
CLUP_S4_226_406-405
 62
2
 10
478067.975
 20
6771701.676
 30
226.000
 70
    32
  0
VERTEX
  8
CLUP_S4_226_406-405
 62
2
 10
478071.031
 20
6771701.607
 30
226.000
 70
    32
  0
VERTEX
  8
CLUP_S4_226_406-405
 62
2
 10
478073.194
 20
6771701.694
 30
226.000
 70
    32
  0
VERTEX
  8
CLUP_S4_226_406-405
 62
2
 10
478076.555
 20
6771701.823
 30
226.000
 70
    32
  0
VERTEX
  8
CLUP_S4_226_406-405
 62
2
 10
478079.578
 20
6771701.797
 30
226.000
 70
    32
  0
VERTEX
  8
CLUP_S4_226_406-405
 62
2
 10
478082.241
 20
6771701.644
 30
226.000
 70
    32
  0
VERTEX
  8
CLUP_S4_226_406-405
 62
2
 10
478085.176
 20
6771701.641
 30
226.000
 70
    32
  0
VERTEX
  8
CLUP_S4_226_406-405
 62
2
 10
478097.908
 20
6771699.975
 30
226.000
 70
    32
  0
VERTEX
  8
CLUP_S4_226_406-405
 62
2
 10
478098.644
 20
6771699.057
 30
226.000
 70
    32
  0
VERTEX
  8
CLUP_S4_226_406-405
 62
2
 10
478099.277
 20
6771698.199
 30
226.000
 70
    32
  0
VERTEX
  8
CLUP_S4_226_406-405
 62
2
 10
478106.107
 20
6771686.727
 30
226.000
 70
    32
  0
VERTEX
  8
CLUP_S4_226_406-405
 62
2
 10
478127.643
 20
6771709.974
 30
226.000
 70
    32
  0
VERTEX
  8
CLUP_S4_226_406-405
 62
2
 10
478126.966
 20
6771717.349
 30
226.000
 70
    32
  0
VERTEX
  8
CLUP_S4_226_406-405
 62
2
 10
478125.661
 20
6771731.572
 30
226.000
 70
    32
  0
VERTEX
  8
CLUP_S4_226_406-405
 62
2
 10
478127.268
 20
6771742.246
 30
226.000
 70
    32
  0
VERTEX
  8
CLUP_S4_226_406-405
 62
2
 10
478132.641
 20
6771754.953
 30
226.000
 70
    32
  0
VERTEX
  8
CLUP_S4_226_406-405
 62
2
 10
478138.505
 20
6771768.821
 30
226.000
 70
    32
  0
VERTEX
  8
CLUP_S4_226_406-405
 62
2
 10
478144.370
 20
6771782.689
 30
226.000
 70
    32
  0
VERTEX
  8
CLUP_S4_226_406-405
 62
2
 10
478150.234
 20
6771796.557
 30
226.000
 70
    32
  0
VERTEX
  8
CLUP_S4_226_406-405
 62
2
 10
478161.664
 20
6771823.586
 30
226.000
 70
    32
  0
SEQEND
  8
CLUP_S4_226_406-405
  0
POLYLINE
  8
CLUP_S4_226_406-405
 62
4
 66
     1
 70
     8
1001
MAPTEK_VULCAN
1000
VulcanName=Lava Obj
1000
VulcanGroup=
1000
VulcanValue=0
1000
VulcanDescription=Object created by Lava
1000
VulcanPrimitive=
1000
VulcanLine=0
1000
VulcanPattern=0
1000
VulcanFeature=
  0
VERTEX
  8
CLUP_S4_226_406-405
 62
4
 10
478060.929
 20
6771735.737
 30
226.000
 70
    32
  0
VERTEX
  8
CLUP_S4_226_406-405
 62
4
 10
478059.698
 20
6771735.216
 30
226.000
 70
    32
  0
VERTEX
  8
CLUP_S4_226_406-405
 62
4
 10
478058.727
 20
6771734.080
 30
226.000
 70
    32
  0
VERTEX
  8
CLUP_S4_226_406-405
 62
4
 10
478058.016
 20
6771732.327
 30
226.000
 70
    32
  0
VERTEX
  8
CLUP_S4_226_406-405
 62
4
 10
478057.922
 20
6771730.835
 30
226.000
 70
    32
  0
VERTEX
  8
CLUP_S4_226_406-405
 62
4
 10
478058.443
 20
6771729.605
 30
226.000
 70
    32
  0
VERTEX
  8
CLUP_S4_226_406-405
 62
4
 10
478059.318
 20
6771729.250
 30
226.000
 70
    32
  0
VERTEX
  8
CLUP_S4_226_406-405
 62
4
 10
478060.373
 20
6771729.332
 30
226.000
 70
    32
  0
VERTEX
  8
CLUP_S4_226_406-405
 62
4
 10
478060.987
 20
6771729.592
 30
226.000
 70
    32
  0
VERTEX
  8
CLUP_S4_226_406-405
 62
4
 10
478061.781
 20
6771730.291
 30
226.000
 70
    32
  0
VERTEX
  8
CLUP_S4_226_406-405
 62
4
 10
478063.723
 20
6771732.565
 30
226.000
 70
    32
  0
VERTEX
  8
CLUP_S4_226_406-405
 62
4
 10
478064.516
 20
6771733.263
 30
226.000
 70
    32
  0
VERTEX
  8
CLUP_S4_226_406-405
 62
4
 10
478065.132
 20
6771733.523
 30
226.000
 70
    32
  0
VERTEX
  8
CLUP_S4_226_406-405
 62
4
 10
478066.185
 20
6771733.605
 30
226.000
 70
    32
  0
VERTEX
  8
CLUP_S4_226_406-405
 62
4
 10
478067.499
 20
6771733.073
 30
226.000
 70
    32
  0
VERTEX
  8
CLUP_S4_226_406-405
 62
4
 10
478068.020
 20
6771731.842
 30
226.000
 70
    32
  0
VERTEX
  8
CLUP_S4_226_406-405
 62
4
 10
478067.926
 20
6771730.350
 30
226.000
 70
    32
  0
VERTEX
  8
CLUP_S4_226_406-405
 62
4
 10
478067.215
 20
6771728.598
 30
226.000
 70
    32
  0
VERTEX
  8
CLUP_S4_226_406-405
 62
4
 10
478066.244
 20
6771727.461
 30
226.000
 70
    32
  0
VERTEX
  8
CLUP_S4_226_406-405
 62
4
 10
478065.013
 20
6771726.941
 30
226.000
 70
    32
  0
SEQEND
  8
CLUP_S4_226_406-405
  0
POLYLINE
  8
CLUP_S4_226_406-405
 62
4
 66
     1
 70
     8
1001
MAPTEK_VULCAN
1000
VulcanName=Lava Obj
1000
VulcanGroup=
1000
VulcanValue=0
1000
VulcanDescription=Object created by Lava
1000
VulcanPrimitive=
1000
VulcanLine=0
1000
VulcanPattern=0
1000
VulcanFeature=
  0
VERTEX
  8
CLUP_S4_226_406-405
 62
4
 10
478063.405
 20
6771742.974
 30
226.000
 70
    32
  0
VERTEX
  8
CLUP_S4_226_406-405
 62
4
 10
478067.325
 20
6771736.794
 30
226.000
 70
    32
  0
VERTEX
  8
CLUP_S4_226_406-405
 62
4
 10
478069.723
 20
6771742.707
 30
226.000
 70
    32
  0
SEQEND
  8
CLUP_S4_226_406-405
  0
LINE
  8
CLUP_S4_226_406-405
 62
4
 10
478063.405
 20
6771742.974
 30
226.000
 11
478071.683
 21
6771739.617
 31
226.000
1001
MAPTEK_VULCAN
1000
VulcanName=Lava Obj
1000
VulcanGroup=
1000
VulcanValue=0
1000
VulcanDescription=Object created by Lava
1000
VulcanPrimitive=
1000
VulcanLine=0
1000
VulcanPattern=0
1000
VulcanFeature=
  0
POLYLINE
  8
CLUP_S4_226_406-405
 62
4
 66
     1
 70
     8
1001
MAPTEK_VULCAN
1000
VulcanName=Lava Obj
1000
VulcanGroup=
1000
VulcanValue=0
1000
VulcanDescription=Object created by Lava
1000
VulcanPrimitive=
1000
VulcanLine=0
1000
VulcanPattern=0
1000
VulcanFeature=
  0
VERTEX
  8
CLUP_S4_226_406-405
 62
4
 10
478071.452
 20
6771757.161
 30
226.000
 70
    32
  0
VERTEX
  8
CLUP_S4_226_406-405
 62
4
 10
478071.057
 20
6771757.321
 30
226.000
 70
    32
  0
VERTEX
  8
CLUP_S4_226_406-405
 62
4
 10
478070.430
 20
6771758.035
 30
226.000
 70
    32
  0
VERTEX
  8
CLUP_S4_226_406-405
 62
4
 10
478070.195
 20
6771758.589
 30
226.000
 70
    32
  0
VERTEX
  8
CLUP_S4_226_406-405
 62
4
 10
478070.121
 20
6771759.537
 30
226.000
 70
    32
  0
VERTEX
  8
CLUP_S4_226_406-405
 62
4
 10
478070.760
 20
6771761.114
 30
226.000
 70
    32
  0
VERTEX
  8
CLUP_S4_226_406-405
 62
4
 10
478071.473
 20
6771761.742
 30
226.000
 70
    32
  0
VERTEX
  8
CLUP_S4_226_406-405
 62
4
 10
478072.028
 20
6771761.977
 30
226.000
 70
    32
  0
VERTEX
  8
CLUP_S4_226_406-405
 62
4
 10
478072.976
 20
6771762.052
 30
226.000
 70
    32
  0
VERTEX
  8
CLUP_S4_226_406-405
 62
4
 10
478073.764
 20
6771761.732
 30
226.000
 70
    32
  0
VERTEX
  8
CLUP_S4_226_406-405
 62
4
 10
478074.393
 20
6771761.018
 30
226.000
 70
    32
  0
VERTEX
  8
CLUP_S4_226_406-405
 62
4
 10
478075.256
 20
6771759.750
 30
226.000
 70
    32
  0
VERTEX
  8
CLUP_S4_226_406-405
 62
4
 10
478077.600
 20
6771754.209
 30
226.000
 70
    32
  0
VERTEX
  8
CLUP_S4_226_406-405
 62
4
 10
478079.837
 20
6771759.728
 30
226.000
 70
    32
  0
SEQEND
  8
CLUP_S4_226_406-405
  0
POLYLINE
  8
CLUP_S4_226_406-405
 62
4
 66
     1
 70
     8
1001
MAPTEK_VULCAN
1000
VulcanName=Lava Obj
1000
VulcanGroup=
1000
VulcanValue=0
1000
VulcanDescription=Object created by Lava
1000
VulcanPrimitive=
1000
VulcanLine=0
1000
VulcanPattern=0
1000
VulcanFeature=
  0
VERTEX
  8
CLUP_S4_226_406-405
 62
4
 10
478075.210
 20
6771766.428
 30
226.000
 70
    32
  0
VERTEX
  8
CLUP_S4_226_406-405
 62
4
 10
478074.815
 20
6771766.588
 30
226.000
 70
    32
  0
VERTEX
  8
CLUP_S4_226_406-405
 62
4
 10
478074.187
 20
6771767.302
 30
226.000
 70
    32
  0
VERTEX
  8
CLUP_S4_226_406-405
 62
4
 10
478073.952
 20
6771767.856
 30
226.000
 70
    32
  0
VERTEX
  8
CLUP_S4_226_406-405
 62
4
 10
478073.878
 20
6771768.804
 30
226.000
 70
    32
  0
VERTEX
  8
CLUP_S4_226_406-405
 62
4
 10
478074.518
 20
6771770.382
 30
226.000
 70
    32
  0
VERTEX
  8
CLUP_S4_226_406-405
 62
4
 10
478075.231
 20
6771771.010
 30
226.000
 70
    32
  0
VERTEX
  8
CLUP_S4_226_406-405
 62
4
 10
478075.786
 20
6771771.244
 30
226.000
 70
    32
  0
VERTEX
  8
CLUP_S4_226_406-405
 62
4
 10
478076.733
 20
6771771.319
 30
226.000
 70
    32
  0
VERTEX
  8
CLUP_S4_226_406-405
 62
4
 10
478077.522
 20
6771770.999
 30
226.000
 70
    32
  0
VERTEX
  8
CLUP_S4_226_406-405
 62
4
 10
478078.151
 20
6771770.285
 30
226.000
 70
    32
  0
VERTEX
  8
CLUP_S4_226_406-405
 62
4
 10
478079.014
 20
6771769.017
 30
226.000
 70
    32
  0
VERTEX
  8
CLUP_S4_226_406-405
 62
4
 10
478081.357
 20
6771763.476
 30
226.000
 70
    32
  0
VERTEX
  8
CLUP_S4_226_406-405
 62
4
 10
478083.595
 20
6771768.995
 30
226.000
 70
    32
  0
SEQEND
  8
CLUP_S4_226_406-405
  0
POLYLINE
  8
CLUP_S4_226_406-405
 62
4
 66
     1
 70
     8
1001
MAPTEK_VULCAN
1000
VulcanName=Lava Obj
1000
VulcanGroup=
1000
VulcanValue=0
1000
VulcanDescription=Object created by Lava
1000
VulcanPrimitive=
1000
VulcanLine=0
1000
VulcanPattern=0
1000
VulcanFeature=
  0
VERTEX
  8
CLUP_S4_226_406-405
 62
4
 10
478079.937
 20
6771780.352
 30
226.000
 70
    32
  0
VERTEX
  8
CLUP_S4_226_406-405
 62
4
 10
478078.988
 20
6771780.277
 30
226.000
 70
    32
  0
VERTEX
  8
CLUP_S4_226_406-405
 62
4
 10
478078.115
 20
6771779.254
 30
226.000
 70
    32
  0
VERTEX
  8
CLUP_S4_226_406-405
 62
4
 10
478077.795
 20
6771778.465
 30
226.000
 70
    32
  0
VERTEX
  8
CLUP_S4_226_406-405
 62
4
 10
478077.710
 20
6771777.123
 30
226.000
 70
    32
  0
VERTEX
  8
CLUP_S4_226_406-405
 62
4
 10
478078.573
 20
6771775.855
 30
226.000
 70
    32
  0
VERTEX
  8
CLUP_S4_226_406-405
 62
4
 10
478080.384
 20
6771774.662
 30
226.000
 70
    32
  0
VERTEX
  8
CLUP_S4_226_406-405
 62
4
 10
478082.355
 20
6771773.863
 30
226.000
 70
    32
  0
VERTEX
  8
CLUP_S4_226_406-405
 62
4
 10
478084.092
 20
6771773.617
 30
226.000
 70
    32
  0
VERTEX
  8
CLUP_S4_226_406-405
 62
4
 10
478085.200
 20
6771774.086
 30
226.000
 70
    32
  0
VERTEX
  8
CLUP_S4_226_406-405
 62
4
 10
478086.074
 20
6771775.109
 30
226.000
 70
    32
  0
VERTEX
  8
CLUP_S4_226_406-405
 62
4
 10
478086.234
 20
6771775.503
 30
226.000
 70
    32
  0
VERTEX
  8
CLUP_S4_226_406-405
 62
4
 10
478086.319
 20
6771776.846
 30
226.000
 70
    32
  0
VERTEX
  8
CLUP_S4_226_406-405
 62
4
 10
478085.851
 20
6771777.954
 30
226.000
 70
    32
  0
VERTEX
  8
CLUP_S4_226_406-405
 62
4
 10
478084.828
 20
6771778.827
 30
226.000
 70
    32
  0
VERTEX
  8
CLUP_S4_226_406-405
 62
4
 10
478084.433
 20
6771778.987
 30
226.000
 70
    32
  0
VERTEX
  8
CLUP_S4_226_406-405
 62
4
 10
478083.091
 20
6771779.073
 30
226.000
 70
    32
  0
VERTEX
  8
CLUP_S4_226_406-405
 62
4
 10
478081.982
 20
6771778.604
 30
226.000
 70
    32
  0
VERTEX
  8
CLUP_S4_226_406-405
 62
4
 10
478081.109
 20
6771777.581
 30
226.000
 70
    32
  0
VERTEX
  8
CLUP_S4_226_406-405
 62
4
 10
478080.949
 20
6771777.187
 30
226.000
 70
    32
  0
VERTEX
  8
CLUP_S4_226_406-405
 62
4
 10
478080.863
 20
6771775.844
 30
226.000
 70
    32
  0
VERTEX
  8
CLUP_S4_226_406-405
 62
4
 10
478081.332
 20
6771774.736
 30
226.000
 70
    32
  0
VERTEX
  8
CLUP_S4_226_406-405
 62
4
 10
478082.355
 20
6771773.863
 30
226.000
 70
    32
  0
SEQEND
  8
CLUP_S4_226_406-405
  0
POLYLINE
  8
CLUP_S4_226_406-405
 62
4
 66
     1
 70
     8
1001
MAPTEK_VULCAN
1000
VulcanName=Lava Obj
1000
VulcanGroup=
1000
VulcanValue=0
1000
VulcanDescription=Object created by Lava
1000
VulcanPrimitive=
1000
VulcanLine=0
1000
VulcanPattern=0
1000
VulcanFeature=
  0
VERTEX
  8
CLUP_S4_226_406-405
 62
4
 10
478085.950
 20
6771798.577
 30
226.000
 70
    32
  0
VERTEX
  8
CLUP_S4_226_406-405
 62
4
 10
478089.870
 20
6771792.397
 30
226.000
 70
    32
  0
VERTEX
  8
CLUP_S4_226_406-405
 62
4
 10
478092.268
 20
6771798.310
 30
226.000
 70
    32
  0
SEQEND
  8
CLUP_S4_226_406-405
  0
LINE
  8
CLUP_S4_226_406-405
 62
4
 10
478085.950
 20
6771798.577
 30
226.000
 11
478094.228
 21
6771795.220
 31
226.000
1001
MAPTEK_VULCAN
1000
VulcanName=Lava Obj
1000
VulcanGroup=
1000
VulcanValue=0
1000
VulcanDescription=Object created by Lava
1000
VulcanPrimitive=
1000
VulcanLine=0
1000
VulcanPattern=0
1000
VulcanFeature=
  0
POLYLINE
  8
CLUP_S4_226_406-405
 62
4
 66
     1
 70
     9
1001
MAPTEK_VULCAN
1000
VulcanName=Lava Obj
1000
VulcanGroup=
1000
VulcanValue=0
1000
VulcanDescription=Object created by Lava
1000
VulcanPrimitive=
1000
VulcanLine=0
1000
VulcanPattern=0
1000
VulcanFeature=
  0
VERTEX
  8
CLUP_S4_226_406-405
 62
4
 10
478089.068
 20
6771806.267
 30
226.000
 70
    32
  0
VERTEX
  8
CLUP_S4_226_406-405
 62
4
 10
478088.982
 20
6771804.925
 30
226.000
 70
    32
  0
VERTEX
  8
CLUP_S4_226_406-405
 62
4
 10
478089.845
 20
6771803.657
 30
226.000
 70
    32
  0
VERTEX
  8
CLUP_S4_226_406-405
 62
4
 10
478091.657
 20
6771802.463
 30
226.000
 70
    32
  0
VERTEX
  8
CLUP_S4_226_406-405
 62
4
 10
478092.839
 20
6771801.984
 30
226.000
 70
    32
  0
VERTEX
  8
CLUP_S4_226_406-405
 62
4
 10
478094.970
 20
6771801.579
 30
226.000
 70
    32
  0
VERTEX
  8
CLUP_S4_226_406-405
 62
4
 10
478096.473
 20
6771801.887
 30
226.000
 70
    32
  0
VERTEX
  8
CLUP_S4_226_406-405
 62
4
 10
478097.346
 20
6771802.910
 30
226.000
 70
    32
  0
VERTEX
  8
CLUP_S4_226_406-405
 62
4
 10
478097.666
 20
6771803.699
 30
226.000
 70
    32
  0
VERTEX
  8
CLUP_S4_226_406-405
 62
4
 10
478097.752
 20
6771805.041
 30
226.000
 70
    32
  0
VERTEX
  8
CLUP_S4_226_406-405
 62
4
 10
478096.888
 20
6771806.310
 30
226.000
 70
    32
  0
VERTEX
  8
CLUP_S4_226_406-405
 62
4
 10
478095.077
 20
6771807.503
 30
226.000
 70
    32
  0
VERTEX
  8
CLUP_S4_226_406-405
 62
4
 10
478093.894
 20
6771807.982
 30
226.000
 70
    32
  0
VERTEX
  8
CLUP_S4_226_406-405
 62
4
 10
478091.763
 20
6771808.387
 30
226.000
 70
    32
  0
VERTEX
  8
CLUP_S4_226_406-405
 62
4
 10
478090.261
 20
6771808.078
 30
226.000
 70
    32
  0
VERTEX
  8
CLUP_S4_226_406-405
 62
4
 10
478089.388
 20
6771807.055
 30
226.000
 70
    32
  0
SEQEND
  8
CLUP_S4_226_406-405
  0
POLYLINE
  8
CLUP_S4_226_406-405
 62
4
 66
     1
 70
     8
1001
MAPTEK_VULCAN
1000
VulcanName=Lava Obj
1000
VulcanGroup=
1000
VulcanValue=0
1000
VulcanDescription=Object created by Lava
1000
VulcanPrimitive=
1000
VulcanLine=0
1000
VulcanPattern=0
1000
VulcanFeature=
  0
VERTEX
  8
CLUP_S4_226_406-405
 62
4
 10
478094.967
 20
6771817.420
 30
226.000
 70
    32
  0
VERTEX
  8
CLUP_S4_226_406-405
 62
4
 10
478094.019
 20
6771817.345
 30
226.000
 70
    32
  0
VERTEX
  8
CLUP_S4_226_406-405
 62
4
 10
478093.145
 20
6771816.323
 30
226.000
 70
    32
  0
VERTEX
  8
CLUP_S4_226_406-405
 62
4
 10
478092.826
 20
6771815.534
 30
226.000
 70
    32
  0
VERTEX
  8
CLUP_S4_226_406-405
 62
4
 10
478092.740
 20
6771814.192
 30
226.000
 70
    32
  0
VERTEX
  8
CLUP_S4_226_406-405
 62
4
 10
478093.603
 20
6771812.924
 30
226.000
 70
    32
  0
VERTEX
  8
CLUP_S4_226_406-405
 62
4
 10
478095.414
 20
6771811.731
 30
226.000
 70
    32
  0
VERTEX
  8
CLUP_S4_226_406-405
 62
4
 10
478097.385
 20
6771810.931
 30
226.000
 70
    32
  0
VERTEX
  8
CLUP_S4_226_406-405
 62
4
 10
478099.122
 20
6771810.686
 30
226.000
 70
    32
  0
VERTEX
  8
CLUP_S4_226_406-405
 62
4
 10
478100.231
 20
6771811.155
 30
226.000
 70
    32
  0
VERTEX
  8
CLUP_S4_226_406-405
 62
4
 10
478101.104
 20
6771812.177
 30
226.000
 70
    32
  0
VERTEX
  8
CLUP_S4_226_406-405
 62
4
 10
478101.264
 20
6771812.572
 30
226.000
 70
    32
  0
VERTEX
  8
CLUP_S4_226_406-405
 62
4
 10
478101.350
 20
6771813.914
 30
226.000
 70
    32
  0
VERTEX
  8
CLUP_S4_226_406-405
 62
4
 10
478100.881
 20
6771815.023
 30
226.000
 70
    32
  0
VERTEX
  8
CLUP_S4_226_406-405
 62
4
 10
478099.858
 20
6771815.896
 30
226.000
 70
    32
  0
VERTEX
  8
CLUP_S4_226_406-405
 62
4
 10
478099.463
 20
6771816.056
 30
226.000
 70
    32
  0
VERTEX
  8
CLUP_S4_226_406-405
 62
4
 10
478098.121
 20
6771816.142
 30
226.000
 70
    32
  0
VERTEX
  8
CLUP_S4_226_406-405
 62
4
 10
478097.013
 20
6771815.673
 30
226.000
 70
    32
  0
VERTEX
  8
CLUP_S4_226_406-405
 62
4
 10
478096.139
 20
6771814.650
 30
226.000
 70
    32
  0
VERTEX
  8
CLUP_S4_226_406-405
 62
4
 10
478095.979
 20
6771814.255
 30
226.000
 70
    32
  0
VERTEX
  8
CLUP_S4_226_406-405
 62
4
 10
478095.894
 20
6771812.913
 30
226.000
 70
    32
  0
VERTEX
  8
CLUP_S4_226_406-405
 62
4
 10
478096.363
 20
6771811.805
 30
226.000
 70
    32
  0
VERTEX
  8
CLUP_S4_226_406-405
 62
4
 10
478097.385
 20
6771810.931
 30
226.000
 70
    32
  0
SEQEND
  8
CLUP_S4_226_406-405
  0
POLYLINE
  8
CLUP_S4_226_406-405
 62
30
 66
     1
 70
     9
1001
MAPTEK_VULCAN
1000
VulcanName=CONT$1
1000
VulcanGroup=CONTOUR001
1000
VulcanValue=238
1000
VulcanDescription=Major contour at level 238.000
1000
VulcanPrimitive=
1000
VulcanLine=11
1000
VulcanPattern=19
1000
VulcanFeature=CONTMAJ
  0
VERTEX
  8
CLUP_S4_226_406-405
 62
30
 10
478117.277
 20
6771713.499
 30
238.000
 70
    32
  0
VERTEX
  8
CLUP_S4_226_406-405
 62
30
 10
478116.481
 20
6771714.848
 30
238.000
 70
    32
  0
VERTEX
  8
CLUP_S4_226_406-405
 62
30
 10
478116.110
 20
6771715.679
 30
238.000
 70
    32
  0
VERTEX
  8
CLUP_S4_226_406-405
 62
30
 10
478116.002
 20
6771715.825
 30
238.000
 70
    32
  0
VERTEX
  8
CLUP_S4_226_406-405
 62
30
 10
478115.730
 20
6771716.041
 30
238.000
 70
    32
  0
VERTEX
  8
CLUP_S4_226_406-405
 62
30
 10
478114.246
 20
6771717.344
 30
238.000
 70
    32
  0
VERTEX
  8
CLUP_S4_226_406-405
 62
30
 10
478113.917
 20
6771717.670
 30
238.000
 70
    32
  0
VERTEX
  8
CLUP_S4_226_406-405
 62
30
 10
478113.653
 20
6771717.818
 30
238.000
 70
    32
  0
VERTEX
  8
CLUP_S4_226_406-405
 62
30
 10
478111.500
 20
6771718.363
 30
238.000
 70
    32
  0
VERTEX
  8
CLUP_S4_226_406-405
 62
30
 10
478111.085
 20
6771718.418
 30
238.000
 70
    32
  0
VERTEX
  8
CLUP_S4_226_406-405
 62
30
 10
478109.234
 20
6771718.875
 30
238.000
 70
    32
  0
VERTEX
  8
CLUP_S4_226_406-405
 62
30
 10
478108.945
 20
6771718.946
 30
238.000
 70
    32
  0
VERTEX
  8
CLUP_S4_226_406-405
 62
30
 10
478107.889
 20
6771719.254
 30
238.000
 70
    32
  0
VERTEX
  8
CLUP_S4_226_406-405
 62
30
 10
478107.269
 20
6771719.569
 30
238.000
 70
    32
  0
VERTEX
  8
CLUP_S4_226_406-405
 62
30
 10
478106.926
 20
6771719.532
 30
238.000
 70
    32
  0
VERTEX
  8
CLUP_S4_226_406-405
 62
30
 10
478105.956
 20
6771719.661
 30
238.000
 70
    32
  0
VERTEX
  8
CLUP_S4_226_406-405
 62
30
 10
478105.152
 20
6771719.669
 30
238.000
 70
    32
  0
VERTEX
  8
CLUP_S4_226_406-405
 62
30
 10
478104.582
 20
6771719.717
 30
238.000
 70
    32
  0
VERTEX
  8
CLUP_S4_226_406-405
 62
30
 10
478103.064
 20
6771719.630
 30
238.000
 70
    32
  0
VERTEX
  8
CLUP_S4_226_406-405
 62
30
 10
478102.546
 20
6771719.613
 30
238.000
 70
    32
  0
VERTEX
  8
CLUP_S4_226_406-405
 62
30
 10
478100.465
 20
6771719.207
 30
238.000
 70
    32
  0
VERTEX
  8
CLUP_S4_226_406-405
 62
30
 10
478100.173
 20
6771719.182
 30
238.000
 70
    32
  0
VERTEX
  8
CLUP_S4_226_406-405
 62
30
 10
478099.466
 20
6771719.053
 30
238.000
 70
    32
  0
VERTEX
  8
CLUP_S4_226_406-405
 62
30
 10
478097.911
 20
6771718.949
 30
238.000
 70
    32
  0
VERTEX
  8
CLUP_S4_226_406-405
 62
30
 10
478097.356
 20
6771718.955
 30
238.000
 70
    32
  0
VERTEX
  8
CLUP_S4_226_406-405
 62
30
 10
478095.801
 20
6771719.043
 30
238.000
 70
    32
  0
VERTEX
  8
CLUP_S4_226_406-405
 62
30
 10
478093.948
 20
6771719.009
 30
238.000
 70
    32
  0
VERTEX
  8
CLUP_S4_226_406-405
 62
30
 10
478093.172
 20
6771719.016
 30
238.000
 70
    32
  0
VERTEX
  8
CLUP_S4_226_406-405
 62
30
 10
478092.610
 20
6771719.073
 30
238.000
 70
    32
  0
VERTEX
  8
CLUP_S4_226_406-405
 62
30
 10
478090.461
 20
6771719.208
 30
238.000
 70
    32
  0
VERTEX
  8
CLUP_S4_226_406-405
 62
30
 10
478090.011
 20
6771719.260
 30
238.000
 70
    32
  0
VERTEX
  8
CLUP_S4_226_406-405
 62
30
 10
478087.857
 20
6771719.357
 30
238.000
 70
    32
  0
VERTEX
  8
CLUP_S4_226_406-405
 62
30
 10
478087.802
 20
6771719.362
 30
238.000
 70
    32
  0
VERTEX
  8
CLUP_S4_226_406-405
 62
30
 10
478087.518
 20
6771719.365
 30
238.000
 70
    32
  0
VERTEX
  8
CLUP_S4_226_406-405
 62
30
 10
478085.720
 20
6771719.503
 30
238.000
 70
    32
  0
VERTEX
  8
CLUP_S4_226_406-405
 62
30
 10
478085.294
 20
6771719.489
 30
238.000
 70
    32
  0
VERTEX
  8
CLUP_S4_226_406-405
 62
30
 10
478083.672
 20
6771719.432
 30
238.000
 70
    32
  0
VERTEX
  8
CLUP_S4_226_406-405
 62
30
 10
478083.187
 20
6771719.432
 30
238.000
 70
    32
  0
VERTEX
  8
CLUP_S4_226_406-405
 62
30
 10
478081.817
 20
6771719.078
 30
238.000
 70
    32
  0
VERTEX
  8
CLUP_S4_226_406-405
 62
30
 10
478081.019
 20
6771718.985
 30
238.000
 70
    32
  0
VERTEX
  8
CLUP_S4_226_406-405
 62
30
 10
478080.787
 20
6771718.915
 30
238.000
 70
    32
  0
VERTEX
  8
CLUP_S4_226_406-405
 62
30
 10
478078.426
 20
6771718.679
 30
238.000
 70
    32
  0
VERTEX
  8
CLUP_S4_226_406-405
 62
30
 10
478077.753
 20
6771718.609
 30
238.000
 70
    32
  0
VERTEX
  8
CLUP_S4_226_406-405
 62
30
 10
478076.810
 20
6771718.707
 30
238.000
 70
    32
  0
VERTEX
  8
CLUP_S4_226_406-405
 62
30
 10
478075.648
 20
6771718.872
 30
238.000
 70
    32
  0
VERTEX
  8
CLUP_S4_226_406-405
 62
30
 10
478074.697
 20
6771718.894
 30
238.000
 70
    32
  0
VERTEX
  8
CLUP_S4_226_406-405
 62
30
 10
478073.526
 20
6771718.816
 30
238.000
 70
    32
  0
VERTEX
  8
CLUP_S4_226_406-405
 62
30
 10
478072.412
 20
6771718.762
 30
238.000
 70
    32
  0
VERTEX
  8
CLUP_S4_226_406-405
 62
30
 10
478071.451
 20
6771718.726
 30
238.000
 70
    32
  0
VERTEX
  8
CLUP_S4_226_406-405
 62
30
 10
478069.855
 20
6771718.744
 30
238.000
 70
    32
  0
VERTEX
  8
CLUP_S4_226_406-405
 62
30
 10
478069.233
 20
6771718.755
 30
238.000
 70
    32
  0
VERTEX
  8
CLUP_S4_226_406-405
 62
30
 10
478067.147
 20
6771718.570
 30
238.000
 70
    32
  0
VERTEX
  8
CLUP_S4_226_406-405
 62
30
 10
478066.907
 20
6771718.553
 30
238.000
 70
    32
  0
VERTEX
  8
CLUP_S4_226_406-405
 62
30
 10
478066.658
 20
6771718.541
 30
238.000
 70
    32
  0
VERTEX
  8
CLUP_S4_226_406-405
 62
30
 10
478064.520
 20
6771718.621
 30
238.000
 70
    32
  0
VERTEX
  8
CLUP_S4_226_406-405
 62
30
 10
478064.191
 20
6771718.662
 30
238.000
 70
    32
  0
VERTEX
  8
CLUP_S4_226_406-405
 62
30
 10
478062.398
 20
6771718.637
 30
238.000
 70
    32
  0
VERTEX
  8
CLUP_S4_226_406-405
 62
30
 10
478060.455
 20
6771718.783
 30
238.000
 70
    32
  0
VERTEX
  8
CLUP_S4_226_406-405
 62
30
 10
478059.998
 20
6771718.877
 30
238.000
 70
    32
  0
VERTEX
  8
CLUP_S4_226_406-405
 62
30
 10
478058.330
 20
6771718.985
 30
238.000
 70
    32
  0
VERTEX
  8
CLUP_S4_226_406-405
 62
30
 10
478057.828
 20
6771719.195
 30
238.000
 70
    32
  0
VERTEX
  8
CLUP_S4_226_406-405
 62
30
 10
478057.404
 20
6771719.227
 30
238.000
 70
    32
  0
VERTEX
  8
CLUP_S4_226_406-405
 62
30
 10
478056.232
 20
6771719.581
 30
238.000
 70
    32
  0
VERTEX
  8
CLUP_S4_226_406-405
 62
30
 10
478055.049
 20
6771719.365
 30
238.000
 70
    32
  0
VERTEX
  8
CLUP_S4_226_406-405
 62
30
 10
478054.960
 20
6771719.359
 30
238.000
 70
    32
  0
VERTEX
  8
CLUP_S4_226_406-405
 62
30
 10
478054.697
 20
6771719.280
 30
238.000
 70
    32
  0
VERTEX
  8
CLUP_S4_226_406-405
 62
30
 10
478053.291
 20
6771718.996
 30
238.000
 70
    32
  0
VERTEX
  8
CLUP_S4_226_406-405
 62
30
 10
478053.126
 20
6771718.970
 30
238.000
 70
    32
  0
VERTEX
  8
CLUP_S4_226_406-405
 62
30
 10
478050.512
 20
6771718.751
 30
238.000
 70
    32
  0
VERTEX
  8
CLUP_S4_226_406-405
 62
30
 10
478050.320
 20
6771718.735
 30
238.000
 70
    32
  0
VERTEX
  8
CLUP_S4_226_406-405
 62
30
 10
478050.164
 20
6771718.759
 30
238.000
 70
    32
  0
VERTEX
  8
CLUP_S4_226_406-405
 62
30
 10
478049.163
 20
6771718.774
 30
238.000
 70
    32
  0
VERTEX
  8
CLUP_S4_226_406-405
 62
30
 10
478047.963
 20
6771719.033
 30
238.000
 70
    32
  0
VERTEX
  8
CLUP_S4_226_406-405
 62
30
 10
478046.915
 20
6771718.885
 30
238.000
 70
    32
  0
VERTEX
  8
CLUP_S4_226_406-405
 62
30
 10
478046.134
 20
6771718.978
 30
238.000
 70
    32
  0
VERTEX
  8
CLUP_S4_226_406-405
 62
30
 10
478045.913
 20
6771718.975
 30
238.000
 70
    32
  0
VERTEX
  8
CLUP_S4_226_406-405
 62
30
 10
478044.204
 20
6771719.087
 30
238.000
 70
    32
  0
VERTEX
  8
CLUP_S4_226_406-405
 62
30
 10
478042.554
 20
6771718.955
 30
238.000
 70
    32
  0
VERTEX
  8
CLUP_S4_226_406-405
 62
30
 10
478041.490
 20
6771718.870
 30
238.000
 70
    32
  0
VERTEX
  8
CLUP_S4_226_406-405
 62
30
 10
478039.362
 20
6771718.823
 30
238.000
 70
    32
  0
VERTEX
  8
CLUP_S4_226_406-405
 62
30
 10
478038.896
 20
6771718.825
 30
238.000
 70
    32
  0
VERTEX
  8
CLUP_S4_226_406-405
 62
30
 10
478036.883
 20
6771718.990
 30
238.000
 70
    32
  0
VERTEX
  8
CLUP_S4_226_406-405
 62
30
 10
478036.822
 20
6771718.992
 30
238.000
 70
    32
  0
VERTEX
  8
CLUP_S4_226_406-405
 62
30
 10
478036.438
 20
6771719.032
 30
238.000
 70
    32
  0
VERTEX
  8
CLUP_S4_226_406-405
 62
30
 10
478034.950
 20
6771719.336
 30
238.000
 70
    32
  0
VERTEX
  8
CLUP_S4_226_406-405
 62
30
 10
478034.417
 20
6771719.404
 30
238.000
 70
    32
  0
VERTEX
  8
CLUP_S4_226_406-405
 62
30
 10
478033.036
 20
6771719.536
 30
238.000
 70
    32
  0
VERTEX
  8
CLUP_S4_226_406-405
 62
30
 10
478031.189
 20
6771718.997
 30
238.000
 70
    32
  0
VERTEX
  8
CLUP_S4_226_406-405
 62
30
 10
478030.829
 20
6771718.956
 30
238.000
 70
    32
  0
VERTEX
  8
CLUP_S4_226_406-405
 62
30
 10
478030.734
 20
6771718.942
 30
238.000
 70
    32
  0
VERTEX
  8
CLUP_S4_226_406-405
 62
30
 10
478030.608
 20
6771718.941
 30
238.000
 70
    32
  0
VERTEX
  8
CLUP_S4_226_406-405
 62
30
 10
478028.485
 20
6771719.111
 30
238.000
 70
    32
  0
VERTEX
  8
CLUP_S4_226_406-405
 62
30
 10
478027.874
 20
6771719.201
 30
238.000
 70
    32
  0
VERTEX
  8
CLUP_S4_226_406-405
 62
30
 10
478027.779
 20
6771719.209
 30
238.000
 70
    32
  0
VERTEX
  8
CLUP_S4_226_406-405
 62
30
 10
478026.126
 20
6771719.822
 30
238.000
 70
    32
  0
VERTEX
  8
CLUP_S4_226_406-405
 62
30
 10
478025.260
 20
6771719.844
 30
238.000
 70
    32
  0
VERTEX
  8
CLUP_S4_226_406-405
 62
30
 10
478024.220
 20
6771719.958
 30
238.000
 70
    32
  0
VERTEX
  8
CLUP_S4_226_406-405
 62
30
 10
478022.595
 20
6771719.680
 30
238.000
 70
    32
  0
VERTEX
  8
CLUP_S4_226_406-405
 62
30
 10
478022.389
 20
6771719.684
 30
238.000
 70
    32
  0
VERTEX
  8
CLUP_S4_226_406-405
 62
30
 10
478022.251
 20
6771719.671
 30
238.000
 70
    32
  0
VERTEX
  8
CLUP_S4_226_406-405
 62
30
 10
478020.422
 20
6771719.872
 30
238.000
 70
    32
  0
VERTEX
  8
CLUP_S4_226_406-405
 62
30
 10
478019.908
 20
6771720.006
 30
238.000
 70
    32
  0
VERTEX
  8
CLUP_S4_226_406-405
 62
30
 10
478018.255
 20
6771719.868
 30
238.000
 70
    32
  0
VERTEX
  8
CLUP_S4_226_406-405
 62
30
 10
478017.901
 20
6771720.003
 30
238.000
 70
    32
  0
VERTEX
  8
CLUP_S4_226_406-405
 62
30
 10
478017.522
 20
6771719.890
 30
238.000
 70
    32
  0
VERTEX
  8
CLUP_S4_226_406-405
 62
30
 10
478015.915
 20
6771720.035
 30
238.000
 70
    32
  0
VERTEX
  8
CLUP_S4_226_406-405
 62
30
 10
478015.499
 20
6771719.895
 30
238.000
 70
    32
  0
VERTEX
  8
CLUP_S4_226_406-405
 62
30
 10
478014.179
 20
6771719.754
 30
238.000
 70
    32
  0
VERTEX
  8
CLUP_S4_226_406-405
 62
30
 10
478013.647
 20
6771719.793
 30
238.000
 70
    32
  0
VERTEX
  8
CLUP_S4_226_406-405
 62
30
 10
478012.823
 20
6771719.923
 30
238.000
 70
    32
  0
VERTEX
  8
CLUP_S4_226_406-405
 62
30
 10
478011.399
 20
6771720.224
 30
238.000
 70
    32
  0
VERTEX
  8
CLUP_S4_226_406-405
 62
30
 10
478010.986
 20
6771720.360
 30
238.000
 70
    32
  0
VERTEX
  8
CLUP_S4_226_406-405
 62
30
 10
478010.417
 20
6771720.654
 30
238.000
 70
    32
  0
VERTEX
  8
CLUP_S4_226_406-405
 62
30
 10
478009.029
 20
6771721.548
 30
238.000
 70
    32
  0
VERTEX
  8
CLUP_S4_226_406-405
 62
30
 10
478007.735
 20
6771722.016
 30
238.000
 70
    32
  0
VERTEX
  8
CLUP_S4_226_406-405
 62
30
 10
478007.536
 20
6771722.138
 30
238.000
 70
    32
  0
VERTEX
  8
CLUP_S4_226_406-405
 62
30
 10
478005.844
 20
6771722.361
 30
238.000
 70
    32
  0
VERTEX
  8
CLUP_S4_226_406-405
 62
30
 10
478005.627
 20
6771722.381
 30
238.000
 70
    32
  0
VERTEX
  8
CLUP_S4_226_406-405
 62
30
 10
478005.307
 20
6771722.261
 30
238.000
 70
    32
  0
VERTEX
  8
CLUP_S4_226_406-405
 62
30
 10
478003.611
 20
6771722.151
 30
238.000
 70
    32
  0
VERTEX
  8
CLUP_S4_226_406-405
 62
30
 10
478003.184
 20
6771721.855
 30
238.000
 70
    32
  0
VERTEX
  8
CLUP_S4_226_406-405
 62
30
 10
478002.332
 20
6771721.753
 30
238.000
 70
    32
  0
VERTEX
  8
CLUP_S4_226_406-405
 62
30
 10
478001.671
 20
6771721.698
 30
238.000
 70
    32
  0
VERTEX
  8
CLUP_S4_226_406-405
 62
30
 10
478000.096
 20
6771721.660
 30
238.000
 70
    32
  0
VERTEX
  8
CLUP_S4_226_406-405
 62
30
 10
477999.671
 20
6771721.671
 30
238.000
 70
    32
  0
VERTEX
  8
CLUP_S4_226_406-405
 62
30
 10
477998.307
 20
6771721.186
 30
238.000
 70
    32
  0
VERTEX
  8
CLUP_S4_226_406-405
 62
30
 10
477997.703
 20
6771721.065
 30
238.000
 70
    32
  0
VERTEX
  8
CLUP_S4_226_406-405
 62
30
 10
477997.606
 20
6771721.040
 30
238.000
 70
    32
  0
VERTEX
  8
CLUP_S4_226_406-405
 62
30
 10
477995.383
 20
6771720.501
 30
238.000
 70
    32
  0
VERTEX
  8
CLUP_S4_226_406-405
 62
30
 10
477995.228
 20
6771720.451
 30
238.000
 70
    32
  0
VERTEX
  8
CLUP_S4_226_406-405
 62
30
 10
477995.065
 20
6771720.422
 30
238.000
 70
    32
  0
VERTEX
  8
CLUP_S4_226_406-405
 62
30
 10
477992.814
 20
6771720.269
 30
238.000
 70
    32
  0
VERTEX
  8
CLUP_S4_226_406-405
 62
30
 10
477992.296
 20
6771719.857
 30
238.000
 70
    32
  0
VERTEX
  8
CLUP_S4_226_406-405
 62
30
 10
477990.159
 20
6771713.938
 30
226.000
 70
    32
  0
VERTEX
  8
CLUP_S4_226_406-405
 62
30
 10
477991.200
 20
6771713.873
 30
226.000
 70
    32
  0
VERTEX
  8
CLUP_S4_226_406-405
 62
30
 10
477993.635
 20
6771713.791
 30
226.000
 70
    32
  0
VERTEX
  8
CLUP_S4_226_406-405
 62
30
 10
477995.392
 20
6771713.694
 30
226.000
 70
    32
  0
VERTEX
  8
CLUP_S4_226_406-405
 62
30
 10
477995.615
 20
6771713.687
 30
226.000
 70
    32
  0
VERTEX
  8
CLUP_S4_226_406-405
 62
30
 10
477996.119
 20
6771713.618
 30
226.000
 70
    32
  0
VERTEX
  8
CLUP_S4_226_406-405
 62
30
 10
477997.628
 20
6771713.434
 30
226.000
 70
    32
  0
VERTEX
  8
CLUP_S4_226_406-405
 62
30
 10
477998.025
 20
6771713.424
 30
226.000
 70
    32
  0
VERTEX
  8
CLUP_S4_226_406-405
 62
30
 10
478000.130
 20
6771712.985
 30
226.000
 70
    32
  0
VERTEX
  8
CLUP_S4_226_406-405
 62
30
 10
478000.618
 20
6771712.900
 30
226.000
 70
    32
  0
VERTEX
  8
CLUP_S4_226_406-405
 62
30
 10
478000.692
 20
6771712.891
 30
226.000
 70
    32
  0
VERTEX
  8
CLUP_S4_226_406-405
 62
30
 10
478001.005
 20
6771712.922
 30
226.000
 70
    32
  0
VERTEX
  8
CLUP_S4_226_406-405
 62
30
 10
478002.691
 20
6771713.143
 30
226.000
 70
    32
  0
VERTEX
  8
CLUP_S4_226_406-405
 62
30
 10
478004.653
 20
6771713.436
 30
226.000
 70
    32
  0
VERTEX
  8
CLUP_S4_226_406-405
 62
30
 10
478004.916
 20
6771713.461
 30
226.000
 70
    32
  0
VERTEX
  8
CLUP_S4_226_406-405
 62
30
 10
478007.689
 20
6771713.863
 30
226.000
 70
    32
  0
VERTEX
  8
CLUP_S4_226_406-405
 62
30
 10
478008.745
 20
6771713.790
 30
226.000
 70
    32
  0
VERTEX
  8
CLUP_S4_226_406-405
 62
30
 10
478010.996
 20
6771713.693
 30
226.000
 70
    32
  0
VERTEX
  8
CLUP_S4_226_406-405
 62
30
 10
478012.843
 20
6771713.479
 30
226.000
 70
    32
  0
VERTEX
  8
CLUP_S4_226_406-405
 62
30
 10
478013.644
 20
6771713.483
 30
226.000
 70
    32
  0
VERTEX
  8
CLUP_S4_226_406-405
 62
30
 10
478015.472
 20
6771713.395
 30
226.000
 70
    32
  0
VERTEX
  8
CLUP_S4_226_406-405
 62
30
 10
478017.294
 20
6771713.385
 30
226.000
 70
    32
  0
VERTEX
  8
CLUP_S4_226_406-405
 62
30
 10
478018.166
 20
6771713.421
 30
226.000
 70
    32
  0
VERTEX
  8
CLUP_S4_226_406-405
 62
30
 10
478020.070
 20
6771713.466
 30
226.000
 70
    32
  0
VERTEX
  8
CLUP_S4_226_406-405
 62
30
 10
478022.000
 20
6771713.519
 30
226.000
 70
    32
  0
VERTEX
  8
CLUP_S4_226_406-405
 62
30
 10
478022.564
 20
6771713.531
 30
226.000
 70
    32
  0
VERTEX
  8
CLUP_S4_226_406-405
 62
30
 10
478024.330
 20
6771713.637
 30
226.000
 70
    32
  0
VERTEX
  8
CLUP_S4_226_406-405
 62
30
 10
478026.000
 20
6771713.489
 30
226.000
 70
    32
  0
VERTEX
  8
CLUP_S4_226_406-405
 62
30
 10
478026.596
 20
6771713.461
 30
226.000
 70
    32
  0
VERTEX
  8
CLUP_S4_226_406-405
 62
30
 10
478028.299
 20
6771713.381
 30
226.000
 70
    32
  0
VERTEX
  8
CLUP_S4_226_406-405
 62
30
 10
478029.870
 20
6771713.250
 30
226.000
 70
    32
  0
VERTEX
  8
CLUP_S4_226_406-405
 62
30
 10
478031.348
 20
6771713.075
 30
226.000
 70
    32
  0
VERTEX
  8
CLUP_S4_226_406-405
 62
30
 10
478032.835
 20
6771712.979
 30
226.000
 70
    32
  0
VERTEX
  8
CLUP_S4_226_406-405
 62
30
 10
478034.223
 20
6771712.952
 30
226.000
 70
    32
  0
VERTEX
  8
CLUP_S4_226_406-405
 62
30
 10
478035.791
 20
6771712.913
 30
226.000
 70
    32
  0
VERTEX
  8
CLUP_S4_226_406-405
 62
30
 10
478037.197
 20
6771712.898
 30
226.000
 70
    32
  0
VERTEX
  8
CLUP_S4_226_406-405
 62
30
 10
478038.833
 20
6771712.909
 30
226.000
 70
    32
  0
VERTEX
  8
CLUP_S4_226_406-405
 62
30
 10
478040.119
 20
6771712.866
 30
226.000
 70
    32
  0
VERTEX
  8
CLUP_S4_226_406-405
 62
30
 10
478041.809
 20
6771712.924
 30
226.000
 70
    32
  0
VERTEX
  8
CLUP_S4_226_406-405
 62
30
 10
478043.380
 20
6771712.747
 30
226.000
 70
    32
  0
VERTEX
  8
CLUP_S4_226_406-405
 62
30
 10
478044.317
 20
6771712.635
 30
226.000
 70
    32
  0
VERTEX
  8
CLUP_S4_226_406-405
 62
30
 10
478045.838
 20
6771712.533
 30
226.000
 70
    32
  0
VERTEX
  8
CLUP_S4_226_406-405
 62
30
 10
478047.040
 20
6771712.372
 30
226.000
 70
    32
  0
VERTEX
  8
CLUP_S4_226_406-405
 62
30
 10
478049.928
 20
6771711.983
 30
226.000
 70
    32
  0
VERTEX
  8
CLUP_S4_226_406-405
 62
30
 10
478049.949
 20
6771711.981
 30
226.000
 70
    32
  0
VERTEX
  8
CLUP_S4_226_406-405
 62
30
 10
478049.965
 20
6771711.980
 30
226.000
 70
    32
  0
VERTEX
  8
CLUP_S4_226_406-405
 62
30
 10
478053.465
 20
6771711.856
 30
226.000
 70
    32
  0
VERTEX
  8
CLUP_S4_226_406-405
 62
30
 10
478053.943
 20
6771711.821
 30
226.000
 70
    32
  0
VERTEX
  8
CLUP_S4_226_406-405
 62
30
 10
478054.515
 20
6771711.799
 30
226.000
 70
    32
  0
VERTEX
  8
CLUP_S4_226_406-405
 62
30
 10
478057.915
 20
6771711.751
 30
226.000
 70
    32
  0
VERTEX
  8
CLUP_S4_226_406-405
 62
30
 10
478058.845
 20
6771711.718
 30
226.000
 70
    32
  0
VERTEX
  8
CLUP_S4_226_406-405
 62
30
 10
478059.606
 20
6771711.709
 30
226.000
 70
    32
  0
VERTEX
  8
CLUP_S4_226_406-405
 62
30
 10
478062.770
 20
6771711.655
 30
226.000
 70
    32
  0
VERTEX
  8
CLUP_S4_226_406-405
 62
30
 10
478063.077
 20
6771711.648
 30
226.000
 70
    32
  0
VERTEX
  8
CLUP_S4_226_406-405
 62
30
 10
478063.363
 20
6771711.654
 30
226.000
 70
    32
  0
VERTEX
  8
CLUP_S4_226_406-405
 62
30
 10
478066.539
 20
6771711.711
 30
226.000
 70
    32
  0
VERTEX
  8
CLUP_S4_226_406-405
 62
30
 10
478067.424
 20
6771711.716
 30
226.000
 70
    32
  0
VERTEX
  8
CLUP_S4_226_406-405
 62
30
 10
478068.336
 20
6771711.670
 30
226.000
 70
    32
  0
VERTEX
  8
CLUP_S4_226_406-405
 62
30
 10
478071.172
 20
6771711.606
 30
226.000
 70
    32
  0
VERTEX
  8
CLUP_S4_226_406-405
 62
30
 10
478071.831
 20
6771711.602
 30
226.000
 70
    32
  0
VERTEX
  8
CLUP_S4_226_406-405
 62
30
 10
478072.441
 20
6771711.677
 30
226.000
 70
    32
  0
VERTEX
  8
CLUP_S4_226_406-405
 62
30
 10
478075.459
 20
6771711.763
 30
226.000
 70
    32
  0
VERTEX
  8
CLUP_S4_226_406-405
 62
30
 10
478076.059
 20
6771711.826
 30
226.000
 70
    32
  0
VERTEX
  8
CLUP_S4_226_406-405
 62
30
 10
478079.640
 20
6771711.807
 30
226.000
 70
    32
  0
VERTEX
  8
CLUP_S4_226_406-405
 62
30
 10
478079.806
 20
6771711.798
 30
226.000
 70
    32
  0
VERTEX
  8
CLUP_S4_226_406-405
 62
30
 10
478080.106
 20
6771711.784
 30
226.000
 70
    32
  0
VERTEX
  8
CLUP_S4_226_406-405
 62
30
 10
478082.533
 20
6771711.644
 30
226.000
 70
    32
  0
VERTEX
  8
CLUP_S4_226_406-405
 62
30
 10
478084.447
 20
6771711.642
 30
226.000
 70
    32
  0
VERTEX
  8
CLUP_S4_226_406-405
 62
30
 10
478084.912
 20
6771711.646
 30
226.000
 70
    32
  0
VERTEX
  8
CLUP_S4_226_406-405
 62
30
 10
478085.228
 20
6771711.641
 30
226.000
 70
    32
  0
VERTEX
  8
CLUP_S4_226_406-405
 62
30
 10
478087.884
 20
6771711.655
 30
226.000
 70
    32
  0
VERTEX
  8
CLUP_S4_226_406-405
 62
30
 10
478088.213
 20
6771711.658
 30
226.000
 70
    32
  0
VERTEX
  8
CLUP_S4_226_406-405
 62
30
 10
478088.827
 20
6771711.648
 30
226.000
 70
    32
  0
VERTEX
  8
CLUP_S4_226_406-405
 62
30
 10
478090.736
 20
6771711.688
 30
226.000
 70
    32
  0
VERTEX
  8
CLUP_S4_226_406-405
 62
30
 10
478091.913
 20
6771711.768
 30
226.000
 70
    32
  0
VERTEX
  8
CLUP_S4_226_406-405
 62
30
 10
478093.396
 20
6771711.842
 30
226.000
 70
    32
  0
VERTEX
  8
CLUP_S4_226_406-405
 62
30
 10
478095.347
 20
6771711.906
 30
226.000
 70
    32
  0
VERTEX
  8
CLUP_S4_226_406-405
 62
30
 10
478096.021
 20
6771711.914
 30
226.000
 70
    32
  0
VERTEX
  8
CLUP_S4_226_406-405
 62
30
 10
478096.413
 20
6771711.923
 30
226.000
 70
    32
  0
VERTEX
  8
CLUP_S4_226_406-405
 62
30
 10
478096.857
 20
6771712.096
 30
226.000
 70
    32
  0
VERTEX
  8
CLUP_S4_226_406-405
 62
30
 10
478097.819
 20
6771712.333
 30
226.000
 70
    32
  0
VERTEX
  8
CLUP_S4_226_406-405
 62
30
 10
478098.376
 20
6771712.238
 30
226.000
 70
    32
  0
VERTEX
  8
CLUP_S4_226_406-405
 62
30
 10
478099.370
 20
6771712.074
 30
226.000
 70
    32
  0
VERTEX
  8
CLUP_S4_226_406-405
 62
30
 10
478100.730
 20
6771712.071
 30
226.000
 70
    32
  0
VERTEX
  8
CLUP_S4_226_406-405
 62
30
 10
478100.856
 20
6771711.974
 30
226.000
 70
    32
  0
VERTEX
  8
CLUP_S4_226_406-405
 62
30
 10
478101.881
 20
6771711.079
 30
226.000
 70
    32
  0
VERTEX
  8
CLUP_S4_226_406-405
 62
30
 10
478102.558
 20
6771710.577
 30
226.000
 70
    32
  0
VERTEX
  8
CLUP_S4_226_406-405
 62
30
 10
478103.365
 20
6771709.792
 30
226.000
 70
    32
  0
VERTEX
  8
CLUP_S4_226_406-405
 62
30
 10
478103.448
 20
6771709.686
 30
226.000
 70
    32
  0
VERTEX
  8
CLUP_S4_226_406-405
 62
30
 10
478103.954
 20
6771708.634
 30
226.000
 70
    32
  0
VERTEX
  8
CLUP_S4_226_406-405
 62
30
 10
478104.399
 20
6771708.227
 30
226.000
 70
    32
  0
VERTEX
  8
CLUP_S4_226_406-405
 62
30
 10
478104.732
 20
6771707.557
 30
226.000
 70
    32
  0
VERTEX
  8
CLUP_S4_226_406-405
 62
30
 10
478105.536
 20
6771706.547
 30
226.000
 70
    32
  0
VERTEX
  8
CLUP_S4_226_406-405
 62
30
 10
478105.964
 20
6771705.913
 30
226.000
 70
    32
  0
VERTEX
  8
CLUP_S4_226_406-405
 62
30
 10
478106.572
 20
6771705.156
 30
226.000
 70
    32
  0
VERTEX
  8
CLUP_S4_226_406-405
 62
30
 10
478107.401
 20
6771704.032
 30
226.000
 70
    32
  0
VERTEX
  8
CLUP_S4_226_406-405
 62
30
 10
478107.476
 20
6771703.975
 30
226.000
 70
    32
  0
VERTEX
  8
CLUP_S4_226_406-405
 62
30
 10
478107.859
 20
6771703.333
 30
226.000
 70
    32
  0
SEQEND
  8
CLUP_S4_226_406-405
  0
ENDSEC
  0
EOF
