999
********************************
999
*   DXF File - Entities Only   *
999
*        3D Data Format        *
999
* from Action Drill and Blast  *
999
*     22-Dec-2025 12:22:39     *
999
********************************
0
SECTION
2
HEADER
9
$ACADVER
1
AC1009
9
$EXTMIN
10
478742.646
20
6772505.607
30
357.540
9
$EXTMAX
10
478835.541
20
6772638.596
30
358.657
0
ENDSEC
0
SECTION
2
TABLES
0
TABLE
2
LAYER
0
LAYER
5
2
2
S5_346_516_LOCAL
70
0
62
7
0
ENDTAB
0
TABLE
2
APPID
0
APPID
2
ACAD
70
0
0
APPID
2
MAPTEK_VULCAN
70
0
0
ENDTAB
0
ENDSEC
0
SECTION
2
BLOCKS
0
ENDSEC
0
SECTION
2
ENTITIES
0
POLYLINE
5
1
8
S5_346_516_LOCAL
62
140
66
140
70
8
1001
MAPTEK_VULCAN
1000
VulcanName=1
1000
VulcanGroup=
1000
VulcanValue=0
1000
VulcanDescription=Imported from Excel - ADB
1000
VulcanPrimitive=
1000
VulcanLine=0
1000
VulcanPattern=0
1000
VulcanFeature=
0
VERTEX
5
2
8
S5_346_516_LOCAL
62
140
10
478770.582
20
6772638.596
30
358.074
70
32
0
VERTEX
5
3
8
S5_346_516_LOCAL
62
140
10
478770.582
20
6772638.596
30
350.974
70
32
0
VERTEX
5
4
8
S5_346_516_LOCAL
62
140
10
478770.582
20
6772638.596
30
352.574
70
32
0
SEQEND
8
S5_346_516_LOCAL
0
POLYLINE
5
2
8
S5_346_516_LOCAL
62
140
66
140
70
8
1001
MAPTEK_VULCAN
1000
VulcanName=2
1000
VulcanGroup=
1000
VulcanValue=0
1000
VulcanDescription=Imported from Excel - ADB
1000
VulcanPrimitive=
1000
VulcanLine=0
1000
VulcanPattern=0
1000
VulcanFeature=
0
VERTEX
5
3
8
S5_346_516_LOCAL
62
140
10
478773.194
20
6772636.172
30
358.150
70
32
0
VERTEX
5
4
8
S5_346_516_LOCAL
62
140
10
478773.194
20
6772636.172
30
351.250
70
32
0
VERTEX
5
5
8
S5_346_516_LOCAL
62
140
10
478773.194
20
6772636.172
30
352.850
70
32
0
SEQEND
8
S5_346_516_LOCAL
0
POLYLINE
5
3
8
S5_346_516_LOCAL
62
140
66
140
70
8
1001
MAPTEK_VULCAN
1000
VulcanName=3
1000
VulcanGroup=
1000
VulcanValue=0
1000
VulcanDescription=Imported from Excel - ADB
1000
VulcanPrimitive=
1000
VulcanLine=0
1000
VulcanPattern=0
1000
VulcanFeature=
0
VERTEX
5
4
8
S5_346_516_LOCAL
62
140
10
478777.357
20
6772631.851
30
358.364
70
32
0
VERTEX
5
5
8
S5_346_516_LOCAL
62
140
10
478777.357
20
6772631.851
30
351.264
70
32
0
VERTEX
5
6
8
S5_346_516_LOCAL
62
140
10
478777.357
20
6772631.851
30
352.864
70
32
0
SEQEND
8
S5_346_516_LOCAL
0
POLYLINE
5
4
8
S5_346_516_LOCAL
62
140
66
140
70
8
1001
MAPTEK_VULCAN
1000
VulcanName=4
1000
VulcanGroup=
1000
VulcanValue=0
1000
VulcanDescription=Imported from Excel - ADB
1000
VulcanPrimitive=
1000
VulcanLine=0
1000
VulcanPattern=0
1000
VulcanFeature=
0
VERTEX
5
5
8
S5_346_516_LOCAL
62
140
10
478781.520
20
6772627.530
30
358.396
70
32
0
VERTEX
5
6
8
S5_346_516_LOCAL
62
140
10
478781.520
20
6772627.530
30
351.196
70
32
0
VERTEX
5
7
8
S5_346_516_LOCAL
62
140
10
478781.520
20
6772627.530
30
352.796
70
32
0
SEQEND
8
S5_346_516_LOCAL
0
POLYLINE
5
5
8
S5_346_516_LOCAL
62
140
66
140
70
8
1001
MAPTEK_VULCAN
1000
VulcanName=5
1000
VulcanGroup=
1000
VulcanValue=0
1000
VulcanDescription=Imported from Excel - ADB
1000
VulcanPrimitive=
1000
VulcanLine=0
1000
VulcanPattern=0
1000
VulcanFeature=
0
VERTEX
5
6
8
S5_346_516_LOCAL
62
140
10
478785.683
20
6772623.209
30
358.415
70
32
0
VERTEX
5
7
8
S5_346_516_LOCAL
62
140
10
478785.683
20
6772623.209
30
351.215
70
32
0
VERTEX
5
8
8
S5_346_516_LOCAL
62
140
10
478785.683
20
6772623.209
30
352.815
70
32
0
SEQEND
8
S5_346_516_LOCAL
0
POLYLINE
5
6
8
S5_346_516_LOCAL
62
140
66
140
70
8
1001
MAPTEK_VULCAN
1000
VulcanName=6
1000
VulcanGroup=
1000
VulcanValue=0
1000
VulcanDescription=Imported from Excel - ADB
1000
VulcanPrimitive=
1000
VulcanLine=0
1000
VulcanPattern=0
1000
VulcanFeature=
0
VERTEX
5
7
8
S5_346_516_LOCAL
62
140
10
478789.846
20
6772618.888
30
358.368
70
32
0
VERTEX
5
8
8
S5_346_516_LOCAL
62
140
10
478789.846
20
6772618.888
30
351.268
70
32
0
VERTEX
5
9
8
S5_346_516_LOCAL
62
140
10
478789.846
20
6772618.888
30
352.868
70
32
0
SEQEND
8
S5_346_516_LOCAL
0
POLYLINE
5
7
8
S5_346_516_LOCAL
62
140
66
140
70
8
1001
MAPTEK_VULCAN
1000
VulcanName=7
1000
VulcanGroup=
1000
VulcanValue=0
1000
VulcanDescription=Imported from Excel - ADB
1000
VulcanPrimitive=
1000
VulcanLine=0
1000
VulcanPattern=0
1000
VulcanFeature=
0
VERTEX
5
8
8
S5_346_516_LOCAL
62
140
10
478794.009
20
6772614.568
30
358.254
70
32
0
VERTEX
5
9
8
S5_346_516_LOCAL
62
140
10
478794.009
20
6772614.568
30
351.254
70
32
0
VERTEX
5
A
8
S5_346_516_LOCAL
62
140
10
478794.009
20
6772614.568
30
352.854
70
32
0
SEQEND
8
S5_346_516_LOCAL
0
POLYLINE
5
8
8
S5_346_516_LOCAL
62
140
66
140
70
8
1001
MAPTEK_VULCAN
1000
VulcanName=8
1000
VulcanGroup=
1000
VulcanValue=0
1000
VulcanDescription=Imported from Excel - ADB
1000
VulcanPrimitive=
1000
VulcanLine=0
1000
VulcanPattern=0
1000
VulcanFeature=
0
VERTEX
5
9
8
S5_346_516_LOCAL
62
140
10
478798.171
20
6772610.247
30
358.130
70
32
0
VERTEX
5
A
8
S5_346_516_LOCAL
62
140
10
478798.171
20
6772610.247
30
351.230
70
32
0
VERTEX
5
B
8
S5_346_516_LOCAL
62
140
10
478798.171
20
6772610.247
30
352.830
70
32
0
SEQEND
8
S5_346_516_LOCAL
0
POLYLINE
5
9
8
S5_346_516_LOCAL
62
140
66
140
70
8
1001
MAPTEK_VULCAN
1000
VulcanName=9
1000
VulcanGroup=
1000
VulcanValue=0
1000
VulcanDescription=Imported from Excel - ADB
1000
VulcanPrimitive=
1000
VulcanLine=0
1000
VulcanPattern=0
1000
VulcanFeature=
0
VERTEX
5
A
8
S5_346_516_LOCAL
62
140
10
478802.334
20
6772605.926
30
358.210
70
32
0
VERTEX
5
B
8
S5_346_516_LOCAL
62
140
10
478802.334
20
6772605.926
30
351.210
70
32
0
VERTEX
5
C
8
S5_346_516_LOCAL
62
140
10
478802.334
20
6772605.926
30
352.810
70
32
0
SEQEND
8
S5_346_516_LOCAL
0
POLYLINE
5
A
8
S5_346_516_LOCAL
62
140
66
140
70
8
1001
MAPTEK_VULCAN
1000
VulcanName=10
1000
VulcanGroup=
1000
VulcanValue=0
1000
VulcanDescription=Imported from Excel - ADB
1000
VulcanPrimitive=
1000
VulcanLine=0
1000
VulcanPattern=0
1000
VulcanFeature=
0
VERTEX
5
B
8
S5_346_516_LOCAL
62
140
10
478806.524
20
6772601.631
30
358.371
70
32
0
VERTEX
5
C
8
S5_346_516_LOCAL
62
140
10
478806.524
20
6772601.631
30
351.271
70
32
0
VERTEX
5
D
8
S5_346_516_LOCAL
62
140
10
478806.524
20
6772601.631
30
352.871
70
32
0
SEQEND
8
S5_346_516_LOCAL
0
POLYLINE
5
B
8
S5_346_516_LOCAL
62
140
66
140
70
8
1001
MAPTEK_VULCAN
1000
VulcanName=11
1000
VulcanGroup=
1000
VulcanValue=0
1000
VulcanDescription=Imported from Excel - ADB
1000
VulcanPrimitive=
1000
VulcanLine=0
1000
VulcanPattern=0
1000
VulcanFeature=
0
VERTEX
5
C
8
S5_346_516_LOCAL
62
140
10
478810.726
20
6772597.348
30
358.333
70
32
0
VERTEX
5
D
8
S5_346_516_LOCAL
62
140
10
478810.726
20
6772597.348
30
351.233
70
32
0
VERTEX
5
E
8
S5_346_516_LOCAL
62
140
10
478810.726
20
6772597.348
30
352.833
70
32
0
SEQEND
8
S5_346_516_LOCAL
0
POLYLINE
5
C
8
S5_346_516_LOCAL
62
140
66
140
70
8
1001
MAPTEK_VULCAN
1000
VulcanName=12
1000
VulcanGroup=
1000
VulcanValue=0
1000
VulcanDescription=Imported from Excel - ADB
1000
VulcanPrimitive=
1000
VulcanLine=0
1000
VulcanPattern=0
1000
VulcanFeature=
0
VERTEX
5
D
8
S5_346_516_LOCAL
62
140
10
478814.605
20
6772592.771
30
357.985
70
32
0
VERTEX
5
E
8
S5_346_516_LOCAL
62
140
10
478814.605
20
6772592.771
30
351.285
70
32
0
VERTEX
5
F
8
S5_346_516_LOCAL
62
140
10
478814.605
20
6772592.771
30
352.885
70
32
0
SEQEND
8
S5_346_516_LOCAL
0
POLYLINE
5
D
8
S5_346_516_LOCAL
62
140
66
140
70
8
1001
MAPTEK_VULCAN
1000
VulcanName=13
1000
VulcanGroup=
1000
VulcanValue=0
1000
VulcanDescription=Imported from Excel - ADB
1000
VulcanPrimitive=
1000
VulcanLine=0
1000
VulcanPattern=0
1000
VulcanFeature=
0
VERTEX
5
E
8
S5_346_516_LOCAL
62
140
10
478818.310
20
6772588.051
30
357.942
70
32
0
VERTEX
5
F
8
S5_346_516_LOCAL
62
140
10
478818.310
20
6772588.051
30
351.242
70
32
0
VERTEX
5
10
8
S5_346_516_LOCAL
62
140
10
478818.310
20
6772588.051
30
352.842
70
32
0
SEQEND
8
S5_346_516_LOCAL
0
POLYLINE
5
E
8
S5_346_516_LOCAL
62
140
66
140
70
8
1001
MAPTEK_VULCAN
1000
VulcanName=14
1000
VulcanGroup=
1000
VulcanValue=0
1000
VulcanDescription=Imported from Excel - ADB
1000
VulcanPrimitive=
1000
VulcanLine=0
1000
VulcanPattern=0
1000
VulcanFeature=
0
VERTEX
5
F
8
S5_346_516_LOCAL
62
140
10
478822.015
20
6772583.331
30
357.905
70
32
0
VERTEX
5
10
8
S5_346_516_LOCAL
62
140
10
478822.015
20
6772583.331
30
351.205
70
32
0
VERTEX
5
11
8
S5_346_516_LOCAL
62
140
10
478822.015
20
6772583.331
30
352.805
70
32
0
SEQEND
8
S5_346_516_LOCAL
0
POLYLINE
5
F
8
S5_346_516_LOCAL
62
140
66
140
70
8
1001
MAPTEK_VULCAN
1000
VulcanName=15
1000
VulcanGroup=
1000
VulcanValue=0
1000
VulcanDescription=Imported from Excel - ADB
1000
VulcanPrimitive=
1000
VulcanLine=0
1000
VulcanPattern=0
1000
VulcanFeature=
0
VERTEX
5
10
8
S5_346_516_LOCAL
62
140
10
478825.720
20
6772578.612
30
357.954
70
32
0
VERTEX
5
11
8
S5_346_516_LOCAL
62
140
10
478825.720
20
6772578.612
30
351.254
70
32
0
VERTEX
5
12
8
S5_346_516_LOCAL
62
140
10
478825.720
20
6772578.612
30
352.854
70
32
0
SEQEND
8
S5_346_516_LOCAL
0
POLYLINE
5
10
8
S5_346_516_LOCAL
62
140
66
140
70
8
1001
MAPTEK_VULCAN
1000
VulcanName=16
1000
VulcanGroup=
1000
VulcanValue=0
1000
VulcanDescription=Imported from Excel - ADB
1000
VulcanPrimitive=
1000
VulcanLine=0
1000
VulcanPattern=0
1000
VulcanFeature=
0
VERTEX
5
11
8
S5_346_516_LOCAL
62
140
10
478829.022
20
6772574.419
30
357.896
70
32
0
VERTEX
5
12
8
S5_346_516_LOCAL
62
140
10
478829.022
20
6772574.419
30
351.296
70
32
0
VERTEX
5
13
8
S5_346_516_LOCAL
62
140
10
478829.022
20
6772574.419
30
352.896
70
32
0
SEQEND
8
S5_346_516_LOCAL
0
POLYLINE
5
11
8
S5_346_516_LOCAL
62
140
66
140
70
8
1001
MAPTEK_VULCAN
1000
VulcanName=17
1000
VulcanGroup=
1000
VulcanValue=0
1000
VulcanDescription=Imported from Excel - ADB
1000
VulcanPrimitive=
1000
VulcanLine=0
1000
VulcanPattern=0
1000
VulcanFeature=
0
VERTEX
5
12
8
S5_346_516_LOCAL
62
140
10
478832.282
20
6772570.239
30
357.769
70
32
0
VERTEX
5
13
8
S5_346_516_LOCAL
62
140
10
478832.282
20
6772570.239
30
351.269
70
32
0
VERTEX
5
14
8
S5_346_516_LOCAL
62
140
10
478832.282
20
6772570.239
30
352.869
70
32
0
SEQEND
8
S5_346_516_LOCAL
0
POLYLINE
5
12
8
S5_346_516_LOCAL
62
140
66
140
70
8
1001
MAPTEK_VULCAN
1000
VulcanName=18
1000
VulcanGroup=
1000
VulcanValue=0
1000
VulcanDescription=Imported from Excel - ADB
1000
VulcanPrimitive=
1000
VulcanLine=0
1000
VulcanPattern=0
1000
VulcanFeature=
0
VERTEX
5
13
8
S5_346_516_LOCAL
62
140
10
478835.541
20
6772566.105
30
357.774
70
32
0
VERTEX
5
14
8
S5_346_516_LOCAL
62
140
10
478835.541
20
6772566.105
30
351.274
70
32
0
VERTEX
5
15
8
S5_346_516_LOCAL
62
140
10
478835.541
20
6772566.105
30
352.874
70
32
0
SEQEND
8
S5_346_516_LOCAL
0
POLYLINE
5
13
8
S5_346_516_LOCAL
62
140
66
140
70
8
1001
MAPTEK_VULCAN
1000
VulcanName=19
1000
VulcanGroup=
1000
VulcanValue=0
1000
VulcanDescription=Imported from Excel - ADB
1000
VulcanPrimitive=
1000
VulcanLine=0
1000
VulcanPattern=0
1000
VulcanFeature=
0
VERTEX
5
14
8
S5_346_516_LOCAL
62
140
10
478830.527
20
6772564.390
30
357.852
70
32
0
VERTEX
5
15
8
S5_346_516_LOCAL
62
140
10
478830.527
20
6772564.390
30
345.952
70
32
0
VERTEX
5
16
8
S5_346_516_LOCAL
62
140
10
478830.527
20
6772564.390
30
345.652
70
32
0
SEQEND
8
S5_346_516_LOCAL
0
POLYLINE
5
14
8
S5_346_516_LOCAL
62
140
66
140
70
8
1001
MAPTEK_VULCAN
1000
VulcanName=20
1000
VulcanGroup=
1000
VulcanValue=0
1000
VulcanDescription=Imported from Excel - ADB
1000
VulcanPrimitive=
1000
VulcanLine=0
1000
VulcanPattern=0
1000
VulcanFeature=
0
VERTEX
5
15
8
S5_346_516_LOCAL
62
140
10
478828.305
20
6772567.221
30
357.813
70
32
0
VERTEX
5
16
8
S5_346_516_LOCAL
62
140
10
478828.305
20
6772567.221
30
346.013
70
32
0
VERTEX
5
17
8
S5_346_516_LOCAL
62
140
10
478828.305
20
6772567.221
30
345.713
70
32
0
SEQEND
8
S5_346_516_LOCAL
0
POLYLINE
5
15
8
S5_346_516_LOCAL
62
140
66
140
70
8
1001
MAPTEK_VULCAN
1000
VulcanName=21
1000
VulcanGroup=
1000
VulcanValue=0
1000
VulcanDescription=Imported from Excel - ADB
1000
VulcanPrimitive=
1000
VulcanLine=0
1000
VulcanPattern=0
1000
VulcanFeature=
0
VERTEX
5
16
8
S5_346_516_LOCAL
62
140
10
478826.082
20
6772570.053
30
357.838
70
32
0
VERTEX
5
17
8
S5_346_516_LOCAL
62
140
10
478826.082
20
6772570.053
30
346.038
70
32
0
VERTEX
5
18
8
S5_346_516_LOCAL
62
140
10
478826.082
20
6772570.053
30
345.738
70
32
0
SEQEND
8
S5_346_516_LOCAL
0
POLYLINE
5
16
8
S5_346_516_LOCAL
62
140
66
140
70
8
1001
MAPTEK_VULCAN
1000
VulcanName=22
1000
VulcanGroup=
1000
VulcanValue=0
1000
VulcanDescription=Imported from Excel - ADB
1000
VulcanPrimitive=
1000
VulcanLine=0
1000
VulcanPattern=0
1000
VulcanFeature=
0
VERTEX
5
17
8
S5_346_516_LOCAL
62
140
10
478823.859
20
6772572.885
30
357.922
70
32
0
VERTEX
5
18
8
S5_346_516_LOCAL
62
140
10
478823.859
20
6772572.885
30
346.022
70
32
0
VERTEX
5
19
8
S5_346_516_LOCAL
62
140
10
478823.859
20
6772572.885
30
345.722
70
32
0
SEQEND
8
S5_346_516_LOCAL
0
POLYLINE
5
17
8
S5_346_516_LOCAL
62
140
66
140
70
8
1001
MAPTEK_VULCAN
1000
VulcanName=23
1000
VulcanGroup=
1000
VulcanValue=0
1000
VulcanDescription=Imported from Excel - ADB
1000
VulcanPrimitive=
1000
VulcanLine=0
1000
VulcanPattern=0
1000
VulcanFeature=
0
VERTEX
5
18
8
S5_346_516_LOCAL
62
140
10
478821.636
20
6772575.717
30
357.974
70
32
0
VERTEX
5
19
8
S5_346_516_LOCAL
62
140
10
478821.636
20
6772575.717
30
345.974
70
32
0
VERTEX
5
1A
8
S5_346_516_LOCAL
62
140
10
478821.636
20
6772575.717
30
345.674
70
32
0
SEQEND
8
S5_346_516_LOCAL
0
POLYLINE
5
18
8
S5_346_516_LOCAL
62
140
66
140
70
8
1001
MAPTEK_VULCAN
1000
VulcanName=24
1000
VulcanGroup=
1000
VulcanValue=0
1000
VulcanDescription=Imported from Excel - ADB
1000
VulcanPrimitive=
1000
VulcanLine=0
1000
VulcanPattern=0
1000
VulcanFeature=
0
VERTEX
5
19
8
S5_346_516_LOCAL
62
140
10
478819.413
20
6772578.548
30
357.957
70
32
0
VERTEX
5
1A
8
S5_346_516_LOCAL
62
140
10
478819.413
20
6772578.548
30
345.957
70
32
0
VERTEX
5
1B
8
S5_346_516_LOCAL
62
140
10
478819.413
20
6772578.548
30
345.657
70
32
0
SEQEND
8
S5_346_516_LOCAL
0
POLYLINE
5
19
8
S5_346_516_LOCAL
62
140
66
140
70
8
1001
MAPTEK_VULCAN
1000
VulcanName=25
1000
VulcanGroup=
1000
VulcanValue=0
1000
VulcanDescription=Imported from Excel - ADB
1000
VulcanPrimitive=
1000
VulcanLine=0
1000
VulcanPattern=0
1000
VulcanFeature=
0
VERTEX
5
1A
8
S5_346_516_LOCAL
62
140
10
478817.190
20
6772581.380
30
357.969
70
32
0
VERTEX
5
1B
8
S5_346_516_LOCAL
62
140
10
478817.190
20
6772581.380
30
345.969
70
32
0
VERTEX
5
1C
8
S5_346_516_LOCAL
62
140
10
478817.190
20
6772581.380
30
345.669
70
32
0
SEQEND
8
S5_346_516_LOCAL
0
POLYLINE
5
1A
8
S5_346_516_LOCAL
62
140
66
140
70
8
1001
MAPTEK_VULCAN
1000
VulcanName=26
1000
VulcanGroup=
1000
VulcanValue=0
1000
VulcanDescription=Imported from Excel - ADB
1000
VulcanPrimitive=
1000
VulcanLine=0
1000
VulcanPattern=0
1000
VulcanFeature=
0
VERTEX
5
1B
8
S5_346_516_LOCAL
62
140
10
478814.967
20
6772584.212
30
357.977
70
32
0
VERTEX
5
1C
8
S5_346_516_LOCAL
62
140
10
478814.967
20
6772584.212
30
345.977
70
32
0
VERTEX
5
1D
8
S5_346_516_LOCAL
62
140
10
478814.967
20
6772584.212
30
345.677
70
32
0
SEQEND
8
S5_346_516_LOCAL
0
POLYLINE
5
1B
8
S5_346_516_LOCAL
62
140
66
140
70
8
1001
MAPTEK_VULCAN
1000
VulcanName=27
1000
VulcanGroup=
1000
VulcanValue=0
1000
VulcanDescription=Imported from Excel - ADB
1000
VulcanPrimitive=
1000
VulcanLine=0
1000
VulcanPattern=0
1000
VulcanFeature=
0
VERTEX
5
1C
8
S5_346_516_LOCAL
62
140
10
478812.744
20
6772587.044
30
357.904
70
32
0
VERTEX
5
1D
8
S5_346_516_LOCAL
62
140
10
478812.744
20
6772587.044
30
346.004
70
32
0
VERTEX
5
1E
8
S5_346_516_LOCAL
62
140
10
478812.744
20
6772587.044
30
345.704
70
32
0
SEQEND
8
S5_346_516_LOCAL
0
POLYLINE
5
1C
8
S5_346_516_LOCAL
62
140
66
140
70
8
1001
MAPTEK_VULCAN
1000
VulcanName=28
1000
VulcanGroup=
1000
VulcanValue=0
1000
VulcanDescription=Imported from Excel - ADB
1000
VulcanPrimitive=
1000
VulcanLine=0
1000
VulcanPattern=0
1000
VulcanFeature=
0
VERTEX
5
1D
8
S5_346_516_LOCAL
62
140
10
478810.522
20
6772589.875
30
357.899
70
32
0
VERTEX
5
1E
8
S5_346_516_LOCAL
62
140
10
478810.522
20
6772589.875
30
345.999
70
32
0
VERTEX
5
1F
8
S5_346_516_LOCAL
62
140
10
478810.522
20
6772589.875
30
345.699
70
32
0
SEQEND
8
S5_346_516_LOCAL
0
POLYLINE
5
1D
8
S5_346_516_LOCAL
62
140
66
140
70
8
1001
MAPTEK_VULCAN
1000
VulcanName=29
1000
VulcanGroup=
1000
VulcanValue=0
1000
VulcanDescription=Imported from Excel - ADB
1000
VulcanPrimitive=
1000
VulcanLine=0
1000
VulcanPattern=0
1000
VulcanFeature=
0
VERTEX
5
1E
8
S5_346_516_LOCAL
62
140
10
478807.954
20
6772592.526
30
358.066
70
32
0
VERTEX
5
1F
8
S5_346_516_LOCAL
62
140
10
478807.954
20
6772592.526
30
345.966
70
32
0
VERTEX
5
20
8
S5_346_516_LOCAL
62
140
10
478807.954
20
6772592.526
30
345.666
70
32
0
SEQEND
8
S5_346_516_LOCAL
0
POLYLINE
5
1E
8
S5_346_516_LOCAL
62
140
66
140
70
8
1001
MAPTEK_VULCAN
1000
VulcanName=30
1000
VulcanGroup=
1000
VulcanValue=0
1000
VulcanDescription=Imported from Excel - ADB
1000
VulcanPrimitive=
1000
VulcanLine=0
1000
VulcanPattern=0
1000
VulcanFeature=
0
VERTEX
5
1F
8
S5_346_516_LOCAL
62
140
10
478805.764
20
6772595.266
30
358.105
70
32
0
VERTEX
5
20
8
S5_346_516_LOCAL
62
140
10
478805.764
20
6772595.266
30
346.005
70
32
0
VERTEX
5
21
8
S5_346_516_LOCAL
62
140
10
478805.764
20
6772595.266
30
345.705
70
32
0
SEQEND
8
S5_346_516_LOCAL
0
POLYLINE
5
1F
8
S5_346_516_LOCAL
62
140
66
140
70
8
1001
MAPTEK_VULCAN
1000
VulcanName=31
1000
VulcanGroup=
1000
VulcanValue=0
1000
VulcanDescription=Imported from Excel - ADB
1000
VulcanPrimitive=
1000
VulcanLine=0
1000
VulcanPattern=0
1000
VulcanFeature=
0
VERTEX
5
20
8
S5_346_516_LOCAL
62
140
10
478803.243
20
6772597.836
30
358.247
70
32
0
VERTEX
5
21
8
S5_346_516_LOCAL
62
140
10
478803.243
20
6772597.836
30
346.047
70
32
0
VERTEX
5
22
8
S5_346_516_LOCAL
62
140
10
478803.243
20
6772597.836
30
345.747
70
32
0
SEQEND
8
S5_346_516_LOCAL
0
POLYLINE
5
20
8
S5_346_516_LOCAL
62
140
66
140
70
8
1001
MAPTEK_VULCAN
1000
VulcanName=32
1000
VulcanGroup=
1000
VulcanValue=0
1000
VulcanDescription=Imported from Excel - ADB
1000
VulcanPrimitive=
1000
VulcanLine=0
1000
VulcanPattern=0
1000
VulcanFeature=
0
VERTEX
5
21
8
S5_346_516_LOCAL
62
140
10
478800.722
20
6772600.406
30
358.119
70
32
0
VERTEX
5
22
8
S5_346_516_LOCAL
62
140
10
478800.722
20
6772600.406
30
346.019
70
32
0
VERTEX
5
23
8
S5_346_516_LOCAL
62
140
10
478800.722
20
6772600.406
30
345.719
70
32
0
SEQEND
8
S5_346_516_LOCAL
0
POLYLINE
5
21
8
S5_346_516_LOCAL
62
140
66
140
70
8
1001
MAPTEK_VULCAN
1000
VulcanName=33
1000
VulcanGroup=
1000
VulcanValue=0
1000
VulcanDescription=Imported from Excel - ADB
1000
VulcanPrimitive=
1000
VulcanLine=0
1000
VulcanPattern=0
1000
VulcanFeature=
0
VERTEX
5
22
8
S5_346_516_LOCAL
62
140
10
478798.218
20
6772602.992
30
358.221
70
32
0
VERTEX
5
23
8
S5_346_516_LOCAL
62
140
10
478798.218
20
6772602.992
30
346.021
70
32
0
VERTEX
5
24
8
S5_346_516_LOCAL
62
140
10
478798.218
20
6772602.992
30
345.721
70
32
0
SEQEND
8
S5_346_516_LOCAL
0
POLYLINE
5
22
8
S5_346_516_LOCAL
62
140
66
140
70
8
1001
MAPTEK_VULCAN
1000
VulcanName=34
1000
VulcanGroup=
1000
VulcanValue=0
1000
VulcanDescription=Imported from Excel - ADB
1000
VulcanPrimitive=
1000
VulcanLine=0
1000
VulcanPattern=0
1000
VulcanFeature=
0
VERTEX
5
23
8
S5_346_516_LOCAL
62
140
10
478795.720
20
6772605.585
30
358.181
70
32
0
VERTEX
5
24
8
S5_346_516_LOCAL
62
140
10
478795.720
20
6772605.585
30
345.981
70
32
0
VERTEX
5
25
8
S5_346_516_LOCAL
62
140
10
478795.720
20
6772605.585
30
345.681
70
32
0
SEQEND
8
S5_346_516_LOCAL
0
POLYLINE
5
23
8
S5_346_516_LOCAL
62
140
66
140
70
8
1001
MAPTEK_VULCAN
1000
VulcanName=35
1000
VulcanGroup=
1000
VulcanValue=0
1000
VulcanDescription=Imported from Excel - ADB
1000
VulcanPrimitive=
1000
VulcanLine=0
1000
VulcanPattern=0
1000
VulcanFeature=
0
VERTEX
5
24
8
S5_346_516_LOCAL
62
140
10
478793.534
20
6772608.472
30
358.168
70
32
0
VERTEX
5
25
8
S5_346_516_LOCAL
62
140
10
478793.534
20
6772608.472
30
345.968
70
32
0
VERTEX
5
26
8
S5_346_516_LOCAL
62
140
10
478793.534
20
6772608.472
30
345.668
70
32
0
SEQEND
8
S5_346_516_LOCAL
0
POLYLINE
5
24
8
S5_346_516_LOCAL
62
140
66
140
70
8
1001
MAPTEK_VULCAN
1000
VulcanName=36
1000
VulcanGroup=
1000
VulcanValue=0
1000
VulcanDescription=Imported from Excel - ADB
1000
VulcanPrimitive=
1000
VulcanLine=0
1000
VulcanPattern=0
1000
VulcanFeature=
0
VERTEX
5
25
8
S5_346_516_LOCAL
62
140
10
478790.724
20
6772610.770
30
358.147
70
32
0
VERTEX
5
26
8
S5_346_516_LOCAL
62
140
10
478790.724
20
6772610.770
30
346.047
70
32
0
VERTEX
5
27
8
S5_346_516_LOCAL
62
140
10
478790.724
20
6772610.770
30
345.747
70
32
0
SEQEND
8
S5_346_516_LOCAL
0
POLYLINE
5
25
8
S5_346_516_LOCAL
62
140
66
140
70
8
1001
MAPTEK_VULCAN
1000
VulcanName=37
1000
VulcanGroup=
1000
VulcanValue=0
1000
VulcanDescription=Imported from Excel - ADB
1000
VulcanPrimitive=
1000
VulcanLine=0
1000
VulcanPattern=0
1000
VulcanFeature=
0
VERTEX
5
26
8
S5_346_516_LOCAL
62
140
10
478788.227
20
6772613.362
30
358.329
70
32
0
VERTEX
5
27
8
S5_346_516_LOCAL
62
140
10
478788.227
20
6772613.362
30
346.029
70
32
0
VERTEX
5
28
8
S5_346_516_LOCAL
62
140
10
478788.227
20
6772613.362
30
345.729
70
32
0
SEQEND
8
S5_346_516_LOCAL
0
POLYLINE
5
26
8
S5_346_516_LOCAL
62
140
66
140
70
8
1001
MAPTEK_VULCAN
1000
VulcanName=38
1000
VulcanGroup=
1000
VulcanValue=0
1000
VulcanDescription=Imported from Excel - ADB
1000
VulcanPrimitive=
1000
VulcanLine=0
1000
VulcanPattern=0
1000
VulcanFeature=
0
VERTEX
5
27
8
S5_346_516_LOCAL
62
140
10
478785.209
20
6772615.852
30
358.565
70
32
0
VERTEX
5
28
8
S5_346_516_LOCAL
62
140
10
478785.209
20
6772615.852
30
345.965
70
32
0
VERTEX
5
29
8
S5_346_516_LOCAL
62
140
10
478785.209
20
6772615.852
30
345.665
70
32
0
SEQEND
8
S5_346_516_LOCAL
0
POLYLINE
5
27
8
S5_346_516_LOCAL
62
140
66
140
70
8
1001
MAPTEK_VULCAN
1000
VulcanName=39
1000
VulcanGroup=
1000
VulcanValue=0
1000
VulcanDescription=Imported from Excel - ADB
1000
VulcanPrimitive=
1000
VulcanLine=0
1000
VulcanPattern=0
1000
VulcanFeature=
0
VERTEX
5
28
8
S5_346_516_LOCAL
62
140
10
478783.231
20
6772618.547
30
358.645
70
32
0
VERTEX
5
29
8
S5_346_516_LOCAL
62
140
10
478783.231
20
6772618.547
30
346.045
70
32
0
VERTEX
5
2A
8
S5_346_516_LOCAL
62
140
10
478783.231
20
6772618.547
30
345.745
70
32
0
SEQEND
8
S5_346_516_LOCAL
0
POLYLINE
5
28
8
S5_346_516_LOCAL
62
140
66
140
70
8
1001
MAPTEK_VULCAN
1000
VulcanName=40
1000
VulcanGroup=
1000
VulcanValue=0
1000
VulcanDescription=Imported from Excel - ADB
1000
VulcanPrimitive=
1000
VulcanLine=0
1000
VulcanPattern=0
1000
VulcanFeature=
0
VERTEX
5
29
8
S5_346_516_LOCAL
62
140
10
478780.733
20
6772621.140
30
358.646
70
32
0
VERTEX
5
2A
8
S5_346_516_LOCAL
62
140
10
478780.733
20
6772621.140
30
346.046
70
32
0
VERTEX
5
2B
8
S5_346_516_LOCAL
62
140
10
478780.733
20
6772621.140
30
345.746
70
32
0
SEQEND
8
S5_346_516_LOCAL
0
POLYLINE
5
29
8
S5_346_516_LOCAL
62
140
66
140
70
8
1001
MAPTEK_VULCAN
1000
VulcanName=41
1000
VulcanGroup=
1000
VulcanValue=0
1000
VulcanDescription=Imported from Excel - ADB
1000
VulcanPrimitive=
1000
VulcanLine=0
1000
VulcanPattern=0
1000
VulcanFeature=
0
VERTEX
5
2A
8
S5_346_516_LOCAL
62
140
10
478778.236
20
6772623.732
30
358.555
70
32
0
VERTEX
5
2B
8
S5_346_516_LOCAL
62
140
10
478778.236
20
6772623.732
30
345.955
70
32
0
VERTEX
5
2C
8
S5_346_516_LOCAL
62
140
10
478778.236
20
6772623.732
30
345.655
70
32
0
SEQEND
8
S5_346_516_LOCAL
0
POLYLINE
5
2A
8
S5_346_516_LOCAL
62
140
66
140
70
8
1001
MAPTEK_VULCAN
1000
VulcanName=42
1000
VulcanGroup=
1000
VulcanValue=0
1000
VulcanDescription=Imported from Excel - ADB
1000
VulcanPrimitive=
1000
VulcanLine=0
1000
VulcanPattern=0
1000
VulcanFeature=
0
VERTEX
5
2B
8
S5_346_516_LOCAL
62
140
10
478775.738
20
6772626.325
30
358.421
70
32
0
VERTEX
5
2C
8
S5_346_516_LOCAL
62
140
10
478775.738
20
6772626.325
30
346.021
70
32
0
VERTEX
5
2D
8
S5_346_516_LOCAL
62
140
10
478775.738
20
6772626.325
30
345.721
70
32
0
SEQEND
8
S5_346_516_LOCAL
0
POLYLINE
5
2B
8
S5_346_516_LOCAL
62
140
66
140
70
8
1001
MAPTEK_VULCAN
1000
VulcanName=43
1000
VulcanGroup=
1000
VulcanValue=0
1000
VulcanDescription=Imported from Excel - ADB
1000
VulcanPrimitive=
1000
VulcanLine=0
1000
VulcanPattern=0
1000
VulcanFeature=
0
VERTEX
5
2C
8
S5_346_516_LOCAL
62
140
10
478773.240
20
6772628.917
30
358.215
70
32
0
VERTEX
5
2D
8
S5_346_516_LOCAL
62
140
10
478773.240
20
6772628.917
30
346.015
70
32
0
VERTEX
5
2E
8
S5_346_516_LOCAL
62
140
10
478773.240
20
6772628.917
30
345.715
70
32
0
SEQEND
8
S5_346_516_LOCAL
0
POLYLINE
5
2C
8
S5_346_516_LOCAL
62
140
66
140
70
8
1001
MAPTEK_VULCAN
1000
VulcanName=44
1000
VulcanGroup=
1000
VulcanValue=0
1000
VulcanDescription=Imported from Excel - ADB
1000
VulcanPrimitive=
1000
VulcanLine=0
1000
VulcanPattern=0
1000
VulcanFeature=
0
VERTEX
5
2D
8
S5_346_516_LOCAL
62
140
10
478770.742
20
6772631.510
30
358.211
70
32
0
VERTEX
5
2E
8
S5_346_516_LOCAL
62
140
10
478770.742
20
6772631.510
30
346.011
70
32
0
VERTEX
5
2F
8
S5_346_516_LOCAL
62
140
10
478770.742
20
6772631.510
30
345.711
70
32
0
SEQEND
8
S5_346_516_LOCAL
0
POLYLINE
5
2D
8
S5_346_516_LOCAL
62
140
66
140
70
8
1001
MAPTEK_VULCAN
1000
VulcanName=45
1000
VulcanGroup=
1000
VulcanValue=0
1000
VulcanDescription=Imported from Excel - ADB
1000
VulcanPrimitive=
1000
VulcanLine=0
1000
VulcanPattern=0
1000
VulcanFeature=
0
VERTEX
5
2E
8
S5_346_516_LOCAL
62
140
10
478769.362
20
6772633.144
30
358.183
70
32
0
VERTEX
5
2F
8
S5_346_516_LOCAL
62
140
10
478769.362
20
6772633.144
30
345.983
70
32
0
VERTEX
5
30
8
S5_346_516_LOCAL
62
140
10
478769.362
20
6772633.144
30
345.683
70
32
0
SEQEND
8
S5_346_516_LOCAL
0
POLYLINE
5
2E
8
S5_346_516_LOCAL
62
140
66
140
70
8
1001
MAPTEK_VULCAN
1000
VulcanName=46
1000
VulcanGroup=
1000
VulcanValue=0
1000
VulcanDescription=Imported from Excel - ADB
1000
VulcanPrimitive=
1000
VulcanLine=0
1000
VulcanPattern=0
1000
VulcanFeature=
0
VERTEX
5
2F
8
S5_346_516_LOCAL
62
140
10
478768.160
20
6772634.382
30
358.175
70
32
0
VERTEX
5
30
8
S5_346_516_LOCAL
62
140
10
478765.814
20
6772636.647
30
346.004
70
32
0
VERTEX
5
31
8
S5_346_516_LOCAL
62
140
10
478765.758
20
6772636.701
30
345.715
70
32
0
SEQEND
8
S5_346_516_LOCAL
0
POLYLINE
5
2F
8
S5_346_516_LOCAL
62
140
66
140
70
8
1001
MAPTEK_VULCAN
1000
VulcanName=47
1000
VulcanGroup=
1000
VulcanValue=0
1000
VulcanDescription=Imported from Excel - ADB
1000
VulcanPrimitive=
1000
VulcanLine=0
1000
VulcanPattern=0
1000
VulcanFeature=
0
VERTEX
5
30
8
S5_346_516_LOCAL
62
140
10
478831.535
20
6772560.929
30
357.571
70
32
0
VERTEX
5
31
8
S5_346_516_LOCAL
62
140
10
478831.535
20
6772560.929
30
345.971
70
32
0
VERTEX
5
32
8
S5_346_516_LOCAL
62
140
10
478831.535
20
6772560.929
30
344.471
70
32
0
SEQEND
8
S5_346_516_LOCAL
0
POLYLINE
5
30
8
S5_346_516_LOCAL
62
140
66
140
70
8
1001
MAPTEK_VULCAN
1000
VulcanName=48
1000
VulcanGroup=
1000
VulcanValue=0
1000
VulcanDescription=Imported from Excel - ADB
1000
VulcanPrimitive=
1000
VulcanLine=0
1000
VulcanPattern=0
1000
VulcanFeature=
0
VERTEX
5
31
8
S5_346_516_LOCAL
62
140
10
478827.509
20
6772562.097
30
357.874
70
32
0
VERTEX
5
32
8
S5_346_516_LOCAL
62
140
10
478827.509
20
6772562.097
30
345.974
70
32
0
VERTEX
5
33
8
S5_346_516_LOCAL
62
140
10
478827.509
20
6772562.097
30
344.474
70
32
0
SEQEND
8
S5_346_516_LOCAL
0
POLYLINE
5
31
8
S5_346_516_LOCAL
62
140
66
140
70
8
1001
MAPTEK_VULCAN
1000
VulcanName=49
1000
VulcanGroup=
1000
VulcanValue=0
1000
VulcanDescription=Imported from Excel - ADB
1000
VulcanPrimitive=
1000
VulcanLine=0
1000
VulcanPattern=0
1000
VulcanFeature=
0
VERTEX
5
32
8
S5_346_516_LOCAL
62
140
10
478824.573
20
6772566.120
30
357.818
70
32
0
VERTEX
5
33
8
S5_346_516_LOCAL
62
140
10
478824.573
20
6772566.120
30
346.018
70
32
0
VERTEX
5
34
8
S5_346_516_LOCAL
62
140
10
478824.573
20
6772566.120
30
344.518
70
32
0
SEQEND
8
S5_346_516_LOCAL
0
POLYLINE
5
32
8
S5_346_516_LOCAL
62
140
66
140
70
8
1001
MAPTEK_VULCAN
1000
VulcanName=50
1000
VulcanGroup=
1000
VulcanValue=0
1000
VulcanDescription=Imported from Excel - ADB
1000
VulcanPrimitive=
1000
VulcanLine=0
1000
VulcanPattern=0
1000
VulcanFeature=
0
VERTEX
5
33
8
S5_346_516_LOCAL
62
140
10
478821.530
20
6772570.024
30
357.904
70
32
0
VERTEX
5
34
8
S5_346_516_LOCAL
62
140
10
478821.530
20
6772570.024
30
346.004
70
32
0
VERTEX
5
35
8
S5_346_516_LOCAL
62
140
10
478821.530
20
6772570.024
30
344.504
70
32
0
SEQEND
8
S5_346_516_LOCAL
0
POLYLINE
5
33
8
S5_346_516_LOCAL
62
140
66
140
70
8
1001
MAPTEK_VULCAN
1000
VulcanName=51
1000
VulcanGroup=
1000
VulcanValue=0
1000
VulcanDescription=Imported from Excel - ADB
1000
VulcanPrimitive=
1000
VulcanLine=0
1000
VulcanPattern=0
1000
VulcanFeature=
0
VERTEX
5
34
8
S5_346_516_LOCAL
62
140
10
478818.457
20
6772573.937
30
357.967
70
32
0
VERTEX
5
35
8
S5_346_516_LOCAL
62
140
10
478818.457
20
6772573.937
30
345.967
70
32
0
VERTEX
5
36
8
S5_346_516_LOCAL
62
140
10
478818.457
20
6772573.937
30
344.467
70
32
0
SEQEND
8
S5_346_516_LOCAL
0
POLYLINE
5
34
8
S5_346_516_LOCAL
62
140
66
140
70
8
1001
MAPTEK_VULCAN
1000
VulcanName=52
1000
VulcanGroup=
1000
VulcanValue=0
1000
VulcanDescription=Imported from Excel - ADB
1000
VulcanPrimitive=
1000
VulcanLine=0
1000
VulcanPattern=0
1000
VulcanFeature=
0
VERTEX
5
35
8
S5_346_516_LOCAL
62
140
10
478815.122
20
6772578.184
30
357.969
70
32
0
VERTEX
5
36
8
S5_346_516_LOCAL
62
140
10
478815.122
20
6772578.184
30
345.969
70
32
0
VERTEX
5
37
8
S5_346_516_LOCAL
62
140
10
478815.122
20
6772578.184
30
344.469
70
32
0
SEQEND
8
S5_346_516_LOCAL
0
POLYLINE
5
35
8
S5_346_516_LOCAL
62
140
66
140
70
8
1001
MAPTEK_VULCAN
1000
VulcanName=53
1000
VulcanGroup=
1000
VulcanValue=0
1000
VulcanDescription=Imported from Excel - ADB
1000
VulcanPrimitive=
1000
VulcanLine=0
1000
VulcanPattern=0
1000
VulcanFeature=
0
VERTEX
5
36
8
S5_346_516_LOCAL
62
140
10
478811.788
20
6772582.432
30
357.963
70
32
0
VERTEX
5
37
8
S5_346_516_LOCAL
62
140
10
478811.788
20
6772582.432
30
345.963
70
32
0
VERTEX
5
38
8
S5_346_516_LOCAL
62
140
10
478811.788
20
6772582.432
30
344.463
70
32
0
SEQEND
8
S5_346_516_LOCAL
0
POLYLINE
5
36
8
S5_346_516_LOCAL
62
140
66
140
70
8
1001
MAPTEK_VULCAN
1000
VulcanName=54
1000
VulcanGroup=
1000
VulcanValue=0
1000
VulcanDescription=Imported from Excel - ADB
1000
VulcanPrimitive=
1000
VulcanLine=0
1000
VulcanPattern=0
1000
VulcanFeature=
0
VERTEX
5
37
8
S5_346_516_LOCAL
62
140
10
478808.454
20
6772586.679
30
357.888
70
32
0
VERTEX
5
38
8
S5_346_516_LOCAL
62
140
10
478808.454
20
6772586.679
30
345.988
70
32
0
VERTEX
5
39
8
S5_346_516_LOCAL
62
140
10
478808.454
20
6772586.679
30
344.488
70
32
0
SEQEND
8
S5_346_516_LOCAL
0
POLYLINE
5
37
8
S5_346_516_LOCAL
62
140
66
140
70
8
1001
MAPTEK_VULCAN
1000
VulcanName=55
1000
VulcanGroup=
1000
VulcanValue=0
1000
VulcanDescription=Imported from Excel - ADB
1000
VulcanPrimitive=
1000
VulcanLine=0
1000
VulcanPattern=0
1000
VulcanFeature=
0
VERTEX
5
38
8
S5_346_516_LOCAL
62
140
10
478805.019
20
6772590.825
30
358.004
70
32
0
VERTEX
5
39
8
S5_346_516_LOCAL
62
140
10
478805.019
20
6772590.825
30
346.004
70
32
0
VERTEX
5
3A
8
S5_346_516_LOCAL
62
140
10
478805.019
20
6772590.825
30
344.504
70
32
0
SEQEND
8
S5_346_516_LOCAL
0
POLYLINE
5
38
8
S5_346_516_LOCAL
62
140
66
140
70
8
1001
MAPTEK_VULCAN
1000
VulcanName=56
1000
VulcanGroup=
1000
VulcanValue=0
1000
VulcanDescription=Imported from Excel - ADB
1000
VulcanPrimitive=
1000
VulcanLine=0
1000
VulcanPattern=0
1000
VulcanFeature=
0
VERTEX
5
39
8
S5_346_516_LOCAL
62
140
10
478801.314
20
6772594.771
30
358.118
70
32
0
VERTEX
5
3A
8
S5_346_516_LOCAL
62
140
10
478801.314
20
6772594.771
30
346.018
70
32
0
VERTEX
5
3B
8
S5_346_516_LOCAL
62
140
10
478801.314
20
6772594.771
30
344.518
70
32
0
SEQEND
8
S5_346_516_LOCAL
0
POLYLINE
5
39
8
S5_346_516_LOCAL
62
140
66
140
70
8
1001
MAPTEK_VULCAN
1000
VulcanName=57
1000
VulcanGroup=
1000
VulcanValue=0
1000
VulcanDescription=Imported from Excel - ADB
1000
VulcanPrimitive=
1000
VulcanLine=0
1000
VulcanPattern=0
1000
VulcanFeature=
0
VERTEX
5
3A
8
S5_346_516_LOCAL
62
140
10
478797.579
20
6772598.671
30
358.057
70
32
0
VERTEX
5
3B
8
S5_346_516_LOCAL
62
140
10
478797.579
20
6772598.671
30
345.957
70
32
0
VERTEX
5
3C
8
S5_346_516_LOCAL
62
140
10
478797.579
20
6772598.671
30
344.457
70
32
0
SEQEND
8
S5_346_516_LOCAL
0
POLYLINE
5
3A
8
S5_346_516_LOCAL
62
140
66
140
70
8
1001
MAPTEK_VULCAN
1000
VulcanName=58
1000
VulcanGroup=
1000
VulcanValue=0
1000
VulcanDescription=Imported from Excel - ADB
1000
VulcanPrimitive=
1000
VulcanLine=0
1000
VulcanPattern=0
1000
VulcanFeature=
0
VERTEX
5
3B
8
S5_346_516_LOCAL
62
140
10
478793.845
20
6772602.572
30
358.114
70
32
0
VERTEX
5
3C
8
S5_346_516_LOCAL
62
140
10
478793.845
20
6772602.572
30
346.014
70
32
0
VERTEX
5
3D
8
S5_346_516_LOCAL
62
140
10
478793.845
20
6772602.572
30
344.514
70
32
0
SEQEND
8
S5_346_516_LOCAL
0
POLYLINE
5
3B
8
S5_346_516_LOCAL
62
140
66
140
70
8
1001
MAPTEK_VULCAN
1000
VulcanName=59
1000
VulcanGroup=
1000
VulcanValue=0
1000
VulcanDescription=Imported from Excel - ADB
1000
VulcanPrimitive=
1000
VulcanLine=0
1000
VulcanPattern=0
1000
VulcanFeature=
0
VERTEX
5
3C
8
S5_346_516_LOCAL
62
140
10
478790.110
20
6772606.472
30
358.129
70
32
0
VERTEX
5
3D
8
S5_346_516_LOCAL
62
140
10
478790.110
20
6772606.472
30
346.029
70
32
0
VERTEX
5
3E
8
S5_346_516_LOCAL
62
140
10
478790.110
20
6772606.472
30
344.529
70
32
0
SEQEND
8
S5_346_516_LOCAL
0
POLYLINE
5
3C
8
S5_346_516_LOCAL
62
140
66
140
70
8
1001
MAPTEK_VULCAN
1000
VulcanName=60
1000
VulcanGroup=
1000
VulcanValue=0
1000
VulcanDescription=Imported from Excel - ADB
1000
VulcanPrimitive=
1000
VulcanLine=0
1000
VulcanPattern=0
1000
VulcanFeature=
0
VERTEX
5
3D
8
S5_346_516_LOCAL
62
140
10
478786.375
20
6772610.372
30
358.253
70
32
0
VERTEX
5
3E
8
S5_346_516_LOCAL
62
140
10
478786.375
20
6772610.372
30
345.953
70
32
0
VERTEX
5
3F
8
S5_346_516_LOCAL
62
140
10
478786.375
20
6772610.372
30
344.453
70
32
0
SEQEND
8
S5_346_516_LOCAL
0
POLYLINE
5
3D
8
S5_346_516_LOCAL
62
140
66
140
70
8
1001
MAPTEK_VULCAN
1000
VulcanName=61
1000
VulcanGroup=
1000
VulcanValue=0
1000
VulcanDescription=Imported from Excel - ADB
1000
VulcanPrimitive=
1000
VulcanLine=0
1000
VulcanPattern=0
1000
VulcanFeature=
0
VERTEX
5
3E
8
S5_346_516_LOCAL
62
140
10
478782.640
20
6772614.272
30
358.657
70
32
0
VERTEX
5
3F
8
S5_346_516_LOCAL
62
140
10
478782.640
20
6772614.272
30
345.957
70
32
0
VERTEX
5
40
8
S5_346_516_LOCAL
62
140
10
478782.640
20
6772614.272
30
344.457
70
32
0
SEQEND
8
S5_346_516_LOCAL
0
POLYLINE
5
3E
8
S5_346_516_LOCAL
62
140
66
140
70
8
1001
MAPTEK_VULCAN
1000
VulcanName=62
1000
VulcanGroup=
1000
VulcanValue=0
1000
VulcanDescription=Imported from Excel - ADB
1000
VulcanPrimitive=
1000
VulcanLine=0
1000
VulcanPattern=0
1000
VulcanFeature=
0
VERTEX
5
3F
8
S5_346_516_LOCAL
62
140
10
478778.906
20
6772618.172
30
358.589
70
32
0
VERTEX
5
40
8
S5_346_516_LOCAL
62
140
10
478778.906
20
6772618.172
30
345.989
70
32
0
VERTEX
5
41
8
S5_346_516_LOCAL
62
140
10
478778.906
20
6772618.172
30
344.489
70
32
0
SEQEND
8
S5_346_516_LOCAL
0
POLYLINE
5
3F
8
S5_346_516_LOCAL
62
140
66
140
70
8
1001
MAPTEK_VULCAN
1000
VulcanName=63
1000
VulcanGroup=
1000
VulcanValue=0
1000
VulcanDescription=Imported from Excel - ADB
1000
VulcanPrimitive=
1000
VulcanLine=0
1000
VulcanPattern=0
1000
VulcanFeature=
0
VERTEX
5
40
8
S5_346_516_LOCAL
62
140
10
478775.171
20
6772622.073
30
358.453
70
32
0
VERTEX
5
41
8
S5_346_516_LOCAL
62
140
10
478775.171
20
6772622.073
30
345.953
70
32
0
VERTEX
5
42
8
S5_346_516_LOCAL
62
140
10
478775.171
20
6772622.073
30
344.453
70
32
0
SEQEND
8
S5_346_516_LOCAL
0
POLYLINE
5
40
8
S5_346_516_LOCAL
62
140
66
140
70
8
1001
MAPTEK_VULCAN
1000
VulcanName=64
1000
VulcanGroup=
1000
VulcanValue=0
1000
VulcanDescription=Imported from Excel - ADB
1000
VulcanPrimitive=
1000
VulcanLine=0
1000
VulcanPattern=0
1000
VulcanFeature=
0
VERTEX
5
41
8
S5_346_516_LOCAL
62
140
10
478771.436
20
6772625.973
30
358.243
70
32
0
VERTEX
5
42
8
S5_346_516_LOCAL
62
140
10
478771.436
20
6772625.973
30
346.043
70
32
0
VERTEX
5
43
8
S5_346_516_LOCAL
62
140
10
478771.436
20
6772625.973
30
344.543
70
32
0
SEQEND
8
S5_346_516_LOCAL
0
POLYLINE
5
41
8
S5_346_516_LOCAL
62
140
66
140
70
8
1001
MAPTEK_VULCAN
1000
VulcanName=65
1000
VulcanGroup=
1000
VulcanValue=0
1000
VulcanDescription=Imported from Excel - ADB
1000
VulcanPrimitive=
1000
VulcanLine=0
1000
VulcanPattern=0
1000
VulcanFeature=
0
VERTEX
5
42
8
S5_346_516_LOCAL
62
140
10
478767.701
20
6772629.873
30
358.215
70
32
0
VERTEX
5
43
8
S5_346_516_LOCAL
62
140
10
478767.701
20
6772629.873
30
346.015
70
32
0
VERTEX
5
44
8
S5_346_516_LOCAL
62
140
10
478767.701
20
6772629.873
30
344.515
70
32
0
SEQEND
8
S5_346_516_LOCAL
0
POLYLINE
5
42
8
S5_346_516_LOCAL
62
140
66
140
70
8
1001
MAPTEK_VULCAN
1000
VulcanName=66
1000
VulcanGroup=
1000
VulcanValue=0
1000
VulcanDescription=Imported from Excel - ADB
1000
VulcanPrimitive=
1000
VulcanLine=0
1000
VulcanPattern=0
1000
VulcanFeature=
0
VERTEX
5
43
8
S5_346_516_LOCAL
62
140
10
478767.522
20
6772632.820
30
358.238
70
32
0
VERTEX
5
44
8
S5_346_516_LOCAL
62
140
10
478764.347
20
6772633.671
30
345.971
70
32
0
VERTEX
5
45
8
S5_346_516_LOCAL
62
140
10
478763.972
20
6772633.771
30
344.522
70
32
0
SEQEND
8
S5_346_516_LOCAL
0
POLYLINE
5
43
8
S5_346_516_LOCAL
62
140
66
140
70
8
1001
MAPTEK_VULCAN
1000
VulcanName=67
1000
VulcanGroup=
1000
VulcanValue=0
1000
VulcanDescription=Imported from Excel - ADB
1000
VulcanPrimitive=
1000
VulcanLine=0
1000
VulcanPattern=0
1000
VulcanFeature=
0
VERTEX
5
44
8
S5_346_516_LOCAL
62
140
10
478766.008
20
6772627.616
30
358.288
70
32
0
VERTEX
5
45
8
S5_346_516_LOCAL
62
140
10
478762.808
20
6772628.473
30
345.924
70
32
0
VERTEX
5
46
8
S5_346_516_LOCAL
62
140
10
478762.433
20
6772628.574
30
344.475
70
32
0
SEQEND
8
S5_346_516_LOCAL
0
POLYLINE
5
44
8
S5_346_516_LOCAL
62
140
66
140
70
8
1001
MAPTEK_VULCAN
1000
VulcanName=68
1000
VulcanGroup=
1000
VulcanValue=0
1000
VulcanDescription=Imported from Excel - ADB
1000
VulcanPrimitive=
1000
VulcanLine=0
1000
VulcanPattern=0
1000
VulcanFeature=
0
VERTEX
5
45
8
S5_346_516_LOCAL
62
140
10
478766.174
20
6772624.672
30
358.305
70
32
0
VERTEX
5
46
8
S5_346_516_LOCAL
62
140
10
478766.174
20
6772624.672
30
346.005
70
32
0
VERTEX
5
47
8
S5_346_516_LOCAL
62
140
10
478766.174
20
6772624.672
30
344.505
70
32
0
SEQEND
8
S5_346_516_LOCAL
0
POLYLINE
5
45
8
S5_346_516_LOCAL
62
140
66
140
70
8
1001
MAPTEK_VULCAN
1000
VulcanName=69
1000
VulcanGroup=
1000
VulcanValue=0
1000
VulcanDescription=Imported from Excel - ADB
1000
VulcanPrimitive=
1000
VulcanLine=0
1000
VulcanPattern=0
1000
VulcanFeature=
0
VERTEX
5
46
8
S5_346_516_LOCAL
62
140
10
478769.909
20
6772620.772
30
358.206
70
32
0
VERTEX
5
47
8
S5_346_516_LOCAL
62
140
10
478769.909
20
6772620.772
30
346.006
70
32
0
VERTEX
5
48
8
S5_346_516_LOCAL
62
140
10
478769.909
20
6772620.772
30
344.506
70
32
0
SEQEND
8
S5_346_516_LOCAL
0
POLYLINE
5
46
8
S5_346_516_LOCAL
62
140
66
140
70
8
1001
MAPTEK_VULCAN
1000
VulcanName=70
1000
VulcanGroup=
1000
VulcanValue=0
1000
VulcanDescription=Imported from Excel - ADB
1000
VulcanPrimitive=
1000
VulcanLine=0
1000
VulcanPattern=0
1000
VulcanFeature=
0
VERTEX
5
47
8
S5_346_516_LOCAL
62
140
10
478773.644
20
6772616.872
30
358.273
70
32
0
VERTEX
5
48
8
S5_346_516_LOCAL
62
140
10
478773.644
20
6772616.872
30
345.973
70
32
0
VERTEX
5
49
8
S5_346_516_LOCAL
62
140
10
478773.644
20
6772616.872
30
344.473
70
32
0
SEQEND
8
S5_346_516_LOCAL
0
POLYLINE
5
47
8
S5_346_516_LOCAL
62
140
66
140
70
8
1001
MAPTEK_VULCAN
1000
VulcanName=71
1000
VulcanGroup=
1000
VulcanValue=0
1000
VulcanDescription=Imported from Excel - ADB
1000
VulcanPrimitive=
1000
VulcanLine=0
1000
VulcanPattern=0
1000
VulcanFeature=
0
VERTEX
5
48
8
S5_346_516_LOCAL
62
140
10
478777.378
20
6772612.972
30
358.256
70
32
0
VERTEX
5
49
8
S5_346_516_LOCAL
62
140
10
478777.378
20
6772612.972
30
345.956
70
32
0
VERTEX
5
4A
8
S5_346_516_LOCAL
62
140
10
478777.378
20
6772612.972
30
344.456
70
32
0
SEQEND
8
S5_346_516_LOCAL
0
POLYLINE
5
48
8
S5_346_516_LOCAL
62
140
66
140
70
8
1001
MAPTEK_VULCAN
1000
VulcanName=72
1000
VulcanGroup=
1000
VulcanValue=0
1000
VulcanDescription=Imported from Excel - ADB
1000
VulcanPrimitive=
1000
VulcanLine=0
1000
VulcanPattern=0
1000
VulcanFeature=
0
VERTEX
5
49
8
S5_346_516_LOCAL
62
140
10
478781.113
20
6772609.071
30
358.181
70
32
0
VERTEX
5
4A
8
S5_346_516_LOCAL
62
140
10
478781.113
20
6772609.071
30
345.981
70
32
0
VERTEX
5
4B
8
S5_346_516_LOCAL
62
140
10
478781.113
20
6772609.071
30
344.481
70
32
0
SEQEND
8
S5_346_516_LOCAL
0
POLYLINE
5
49
8
S5_346_516_LOCAL
62
140
66
140
70
8
1001
MAPTEK_VULCAN
1000
VulcanName=73
1000
VulcanGroup=
1000
VulcanValue=0
1000
VulcanDescription=Imported from Excel - ADB
1000
VulcanPrimitive=
1000
VulcanLine=0
1000
VulcanPattern=0
1000
VulcanFeature=
0
VERTEX
5
4A
8
S5_346_516_LOCAL
62
140
10
478784.848
20
6772605.171
30
358.124
70
32
0
VERTEX
5
4B
8
S5_346_516_LOCAL
62
140
10
478784.848
20
6772605.171
30
346.024
70
32
0
VERTEX
5
4C
8
S5_346_516_LOCAL
62
140
10
478784.848
20
6772605.171
30
344.524
70
32
0
SEQEND
8
S5_346_516_LOCAL
0
POLYLINE
5
4A
8
S5_346_516_LOCAL
62
140
66
140
70
8
1001
MAPTEK_VULCAN
1000
VulcanName=74
1000
VulcanGroup=
1000
VulcanValue=0
1000
VulcanDescription=Imported from Excel - ADB
1000
VulcanPrimitive=
1000
VulcanLine=0
1000
VulcanPattern=0
1000
VulcanFeature=
0
VERTEX
5
4B
8
S5_346_516_LOCAL
62
140
10
478788.583
20
6772601.271
30
358.015
70
32
0
VERTEX
5
4C
8
S5_346_516_LOCAL
62
140
10
478788.583
20
6772601.271
30
346.015
70
32
0
VERTEX
5
4D
8
S5_346_516_LOCAL
62
140
10
478788.583
20
6772601.271
30
344.515
70
32
0
SEQEND
8
S5_346_516_LOCAL
0
POLYLINE
5
4B
8
S5_346_516_LOCAL
62
140
66
140
70
8
1001
MAPTEK_VULCAN
1000
VulcanName=75
1000
VulcanGroup=
1000
VulcanValue=0
1000
VulcanDescription=Imported from Excel - ADB
1000
VulcanPrimitive=
1000
VulcanLine=0
1000
VulcanPattern=0
1000
VulcanFeature=
0
VERTEX
5
4C
8
S5_346_516_LOCAL
62
140
10
478792.317
20
6772597.371
30
357.971
70
32
0
VERTEX
5
4D
8
S5_346_516_LOCAL
62
140
10
478792.317
20
6772597.371
30
345.971
70
32
0
VERTEX
5
4E
8
S5_346_516_LOCAL
62
140
10
478792.317
20
6772597.371
30
344.471
70
32
0
SEQEND
8
S5_346_516_LOCAL
0
POLYLINE
5
4C
8
S5_346_516_LOCAL
62
140
66
140
70
8
1001
MAPTEK_VULCAN
1000
VulcanName=76
1000
VulcanGroup=
1000
VulcanValue=0
1000
VulcanDescription=Imported from Excel - ADB
1000
VulcanPrimitive=
1000
VulcanLine=0
1000
VulcanPattern=0
1000
VulcanFeature=
0
VERTEX
5
4D
8
S5_346_516_LOCAL
62
140
10
478796.052
20
6772593.471
30
357.841
70
32
0
VERTEX
5
4E
8
S5_346_516_LOCAL
62
140
10
478796.052
20
6772593.471
30
346.041
70
32
0
VERTEX
5
4F
8
S5_346_516_LOCAL
62
140
10
478796.052
20
6772593.471
30
344.541
70
32
0
SEQEND
8
S5_346_516_LOCAL
0
POLYLINE
5
4D
8
S5_346_516_LOCAL
62
140
66
140
70
8
1001
MAPTEK_VULCAN
1000
VulcanName=77
1000
VulcanGroup=
1000
VulcanValue=0
1000
VulcanDescription=Imported from Excel - ADB
1000
VulcanPrimitive=
1000
VulcanLine=0
1000
VulcanPattern=0
1000
VulcanFeature=
0
VERTEX
5
4E
8
S5_346_516_LOCAL
62
140
10
478799.571
20
6772589.686
30
357.939
70
32
0
VERTEX
5
4F
8
S5_346_516_LOCAL
62
140
10
478799.571
20
6772589.686
30
346.039
70
32
0
VERTEX
5
50
8
S5_346_516_LOCAL
62
140
10
478799.571
20
6772589.686
30
344.539
70
32
0
SEQEND
8
S5_346_516_LOCAL
0
POLYLINE
5
4E
8
S5_346_516_LOCAL
62
140
66
140
70
8
1001
MAPTEK_VULCAN
1000
VulcanName=78
1000
VulcanGroup=
1000
VulcanValue=0
1000
VulcanDescription=Imported from Excel - ADB
1000
VulcanPrimitive=
1000
VulcanLine=0
1000
VulcanPattern=0
1000
VulcanFeature=
0
VERTEX
5
4F
8
S5_346_516_LOCAL
62
140
10
478802.984
20
6772585.661
30
357.850
70
32
0
VERTEX
5
50
8
S5_346_516_LOCAL
62
140
10
478802.984
20
6772585.661
30
345.950
70
32
0
VERTEX
5
51
8
S5_346_516_LOCAL
62
140
10
478802.984
20
6772585.661
30
344.450
70
32
0
SEQEND
8
S5_346_516_LOCAL
0
POLYLINE
5
4F
8
S5_346_516_LOCAL
62
140
66
140
70
8
1001
MAPTEK_VULCAN
1000
VulcanName=79
1000
VulcanGroup=
1000
VulcanValue=0
1000
VulcanDescription=Imported from Excel - ADB
1000
VulcanPrimitive=
1000
VulcanLine=0
1000
VulcanPattern=0
1000
VulcanFeature=
0
VERTEX
5
50
8
S5_346_516_LOCAL
62
140
10
478806.424
20
6772581.653
30
357.868
70
32
0
VERTEX
5
51
8
S5_346_516_LOCAL
62
140
10
478806.424
20
6772581.653
30
345.968
70
32
0
VERTEX
5
52
8
S5_346_516_LOCAL
62
140
10
478806.424
20
6772581.653
30
344.468
70
32
0
SEQEND
8
S5_346_516_LOCAL
0
POLYLINE
5
50
8
S5_346_516_LOCAL
62
140
66
140
70
8
1001
MAPTEK_VULCAN
1000
VulcanName=80
1000
VulcanGroup=
1000
VulcanValue=0
1000
VulcanDescription=Imported from Excel - ADB
1000
VulcanPrimitive=
1000
VulcanLine=0
1000
VulcanPattern=0
1000
VulcanFeature=
0
VERTEX
5
51
8
S5_346_516_LOCAL
62
140
10
478809.758
20
6772577.406
30
357.958
70
32
0
VERTEX
5
52
8
S5_346_516_LOCAL
62
140
10
478809.758
20
6772577.406
30
345.958
70
32
0
VERTEX
5
53
8
S5_346_516_LOCAL
62
140
10
478809.758
20
6772577.406
30
344.458
70
32
0
SEQEND
8
S5_346_516_LOCAL
0
POLYLINE
5
51
8
S5_346_516_LOCAL
62
140
66
140
70
8
1001
MAPTEK_VULCAN
1000
VulcanName=81
1000
VulcanGroup=
1000
VulcanValue=0
1000
VulcanDescription=Imported from Excel - ADB
1000
VulcanPrimitive=
1000
VulcanLine=0
1000
VulcanPattern=0
1000
VulcanFeature=
0
VERTEX
5
52
8
S5_346_516_LOCAL
62
140
10
478813.092
20
6772573.158
30
357.984
70
32
0
VERTEX
5
53
8
S5_346_516_LOCAL
62
140
10
478813.092
20
6772573.158
30
345.984
70
32
0
VERTEX
5
54
8
S5_346_516_LOCAL
62
140
10
478813.092
20
6772573.158
30
344.484
70
32
0
SEQEND
8
S5_346_516_LOCAL
0
POLYLINE
5
52
8
S5_346_516_LOCAL
62
140
66
140
70
8
1001
MAPTEK_VULCAN
1000
VulcanName=82
1000
VulcanGroup=
1000
VulcanValue=0
1000
VulcanDescription=Imported from Excel - ADB
1000
VulcanPrimitive=
1000
VulcanLine=0
1000
VulcanPattern=0
1000
VulcanFeature=
0
VERTEX
5
53
8
S5_346_516_LOCAL
62
140
10
478816.042
20
6772569.394
30
357.978
70
32
0
VERTEX
5
54
8
S5_346_516_LOCAL
62
140
10
478816.042
20
6772569.394
30
345.978
70
32
0
VERTEX
5
55
8
S5_346_516_LOCAL
62
140
10
478816.042
20
6772569.394
30
344.478
70
32
0
SEQEND
8
S5_346_516_LOCAL
0
POLYLINE
5
53
8
S5_346_516_LOCAL
62
140
66
140
70
8
1001
MAPTEK_VULCAN
1000
VulcanName=83
1000
VulcanGroup=
1000
VulcanValue=0
1000
VulcanDescription=Imported from Excel - ADB
1000
VulcanPrimitive=
1000
VulcanLine=0
1000
VulcanPattern=0
1000
VulcanFeature=
0
VERTEX
5
54
8
S5_346_516_LOCAL
62
140
10
478818.977
20
6772565.680
30
357.870
70
32
0
VERTEX
5
55
8
S5_346_516_LOCAL
62
140
10
478818.977
20
6772565.680
30
345.970
70
32
0
VERTEX
5
56
8
S5_346_516_LOCAL
62
140
10
478818.977
20
6772565.680
30
344.470
70
32
0
SEQEND
8
S5_346_516_LOCAL
0
POLYLINE
5
54
8
S5_346_516_LOCAL
62
140
66
140
70
8
1001
MAPTEK_VULCAN
1000
VulcanName=84
1000
VulcanGroup=
1000
VulcanValue=0
1000
VulcanDescription=Imported from Excel - ADB
1000
VulcanPrimitive=
1000
VulcanLine=0
1000
VulcanPattern=0
1000
VulcanFeature=
0
VERTEX
5
55
8
S5_346_516_LOCAL
62
140
10
478821.903
20
6772561.943
30
357.923
70
32
0
VERTEX
5
56
8
S5_346_516_LOCAL
62
140
10
478821.903
20
6772561.943
30
346.023
70
32
0
VERTEX
5
57
8
S5_346_516_LOCAL
62
140
10
478821.903
20
6772561.943
30
344.523
70
32
0
SEQEND
8
S5_346_516_LOCAL
0
POLYLINE
5
55
8
S5_346_516_LOCAL
62
140
66
140
70
8
1001
MAPTEK_VULCAN
1000
VulcanName=85
1000
VulcanGroup=
1000
VulcanValue=0
1000
VulcanDescription=Imported from Excel - ADB
1000
VulcanPrimitive=
1000
VulcanLine=0
1000
VulcanPattern=0
1000
VulcanFeature=
0
VERTEX
5
56
8
S5_346_516_LOCAL
62
140
10
478826.216
20
6772557.479
30
357.540
70
32
0
VERTEX
5
57
8
S5_346_516_LOCAL
62
140
10
478826.216
20
6772557.479
30
346.040
70
32
0
VERTEX
5
58
8
S5_346_516_LOCAL
62
140
10
478826.216
20
6772557.479
30
344.540
70
32
0
SEQEND
8
S5_346_516_LOCAL
0
POLYLINE
5
56
8
S5_346_516_LOCAL
62
140
66
140
70
8
1001
MAPTEK_VULCAN
1000
VulcanName=86
1000
VulcanGroup=
1000
VulcanValue=0
1000
VulcanDescription=Imported from Excel - ADB
1000
VulcanPrimitive=
1000
VulcanLine=0
1000
VulcanPattern=0
1000
VulcanFeature=
0
VERTEX
5
57
8
S5_346_516_LOCAL
62
140
10
478821.457
20
6772557.989
30
357.759
70
32
0
VERTEX
5
58
8
S5_346_516_LOCAL
62
140
10
478821.457
20
6772557.989
30
345.959
70
32
0
VERTEX
5
59
8
S5_346_516_LOCAL
62
140
10
478821.457
20
6772557.989
30
344.459
70
32
0
SEQEND
8
S5_346_516_LOCAL
0
POLYLINE
5
57
8
S5_346_516_LOCAL
62
140
66
140
70
8
1001
MAPTEK_VULCAN
1000
VulcanName=87
1000
VulcanGroup=
1000
VulcanValue=0
1000
VulcanDescription=Imported from Excel - ADB
1000
VulcanPrimitive=
1000
VulcanLine=0
1000
VulcanPattern=0
1000
VulcanFeature=
0
VERTEX
5
58
8
S5_346_516_LOCAL
62
140
10
478816.445
20
6772561.162
30
357.946
70
32
0
VERTEX
5
59
8
S5_346_516_LOCAL
62
140
10
478816.445
20
6772561.162
30
346.046
70
32
0
VERTEX
5
5A
8
S5_346_516_LOCAL
62
140
10
478816.445
20
6772561.162
30
344.546
70
32
0
SEQEND
8
S5_346_516_LOCAL
0
POLYLINE
5
58
8
S5_346_516_LOCAL
62
140
66
140
70
8
1001
MAPTEK_VULCAN
1000
VulcanName=88
1000
VulcanGroup=
1000
VulcanValue=0
1000
VulcanDescription=Imported from Excel - ADB
1000
VulcanPrimitive=
1000
VulcanLine=0
1000
VulcanPattern=0
1000
VulcanFeature=
0
VERTEX
5
59
8
S5_346_516_LOCAL
62
140
10
478813.588
20
6772564.916
30
357.956
70
32
0
VERTEX
5
5A
8
S5_346_516_LOCAL
62
140
10
478813.588
20
6772564.916
30
345.956
70
32
0
VERTEX
5
5B
8
S5_346_516_LOCAL
62
140
10
478813.588
20
6772564.916
30
344.456
70
32
0
SEQEND
8
S5_346_516_LOCAL
0
POLYLINE
5
59
8
S5_346_516_LOCAL
62
140
66
140
70
8
1001
MAPTEK_VULCAN
1000
VulcanName=89
1000
VulcanGroup=
1000
VulcanValue=0
1000
VulcanDescription=Imported from Excel - ADB
1000
VulcanPrimitive=
1000
VulcanLine=0
1000
VulcanPattern=0
1000
VulcanFeature=
0
VERTEX
5
5A
8
S5_346_516_LOCAL
62
140
10
478810.679
20
6772568.636
30
357.974
70
32
0
VERTEX
5
5B
8
S5_346_516_LOCAL
62
140
10
478810.679
20
6772568.636
30
345.974
70
32
0
VERTEX
5
5C
8
S5_346_516_LOCAL
62
140
10
478810.679
20
6772568.636
30
344.474
70
32
0
SEQEND
8
S5_346_516_LOCAL
0
POLYLINE
5
5A
8
S5_346_516_LOCAL
62
140
66
140
70
8
1001
MAPTEK_VULCAN
1000
VulcanName=90
1000
VulcanGroup=
1000
VulcanValue=0
1000
VulcanDescription=Imported from Excel - ADB
1000
VulcanPrimitive=
1000
VulcanLine=0
1000
VulcanPattern=0
1000
VulcanFeature=
0
VERTEX
5
5B
8
S5_346_516_LOCAL
62
140
10
478807.728
20
6772572.380
30
357.957
70
32
0
VERTEX
5
5C
8
S5_346_516_LOCAL
62
140
10
478807.728
20
6772572.380
30
345.957
70
32
0
VERTEX
5
5D
8
S5_346_516_LOCAL
62
140
10
478807.728
20
6772572.380
30
344.457
70
32
0
SEQEND
8
S5_346_516_LOCAL
0
POLYLINE
5
5B
8
S5_346_516_LOCAL
62
140
66
140
70
8
1001
MAPTEK_VULCAN
1000
VulcanName=91
1000
VulcanGroup=
1000
VulcanValue=0
1000
VulcanDescription=Imported from Excel - ADB
1000
VulcanPrimitive=
1000
VulcanLine=0
1000
VulcanPattern=0
1000
VulcanFeature=
0
VERTEX
5
5C
8
S5_346_516_LOCAL
62
140
10
478804.394
20
6772576.628
30
357.883
70
32
0
VERTEX
5
5D
8
S5_346_516_LOCAL
62
140
10
478804.394
20
6772576.628
30
345.983
70
32
0
VERTEX
5
5E
8
S5_346_516_LOCAL
62
140
10
478804.394
20
6772576.628
30
344.483
70
32
0
SEQEND
8
S5_346_516_LOCAL
0
POLYLINE
5
5C
8
S5_346_516_LOCAL
62
140
66
140
70
8
1001
MAPTEK_VULCAN
1000
VulcanName=92
1000
VulcanGroup=
1000
VulcanValue=0
1000
VulcanDescription=Imported from Excel - ADB
1000
VulcanPrimitive=
1000
VulcanLine=0
1000
VulcanPattern=0
1000
VulcanFeature=
0
VERTEX
5
5D
8
S5_346_516_LOCAL
62
140
10
478801.095
20
6772580.613
30
357.751
70
32
0
VERTEX
5
5E
8
S5_346_516_LOCAL
62
140
10
478801.095
20
6772580.613
30
345.951
70
32
0
VERTEX
5
5F
8
S5_346_516_LOCAL
62
140
10
478801.095
20
6772580.613
30
344.451
70
32
0
SEQEND
8
S5_346_516_LOCAL
0
POLYLINE
5
5D
8
S5_346_516_LOCAL
62
140
66
140
70
8
1001
MAPTEK_VULCAN
1000
VulcanName=93
1000
VulcanGroup=
1000
VulcanValue=0
1000
VulcanDescription=Imported from Excel - ADB
1000
VulcanPrimitive=
1000
VulcanLine=0
1000
VulcanPattern=0
1000
VulcanFeature=
0
VERTEX
5
5E
8
S5_346_516_LOCAL
62
140
10
478797.792
20
6772584.573
30
357.759
70
32
0
VERTEX
5
5F
8
S5_346_516_LOCAL
62
140
10
478797.792
20
6772584.573
30
345.959
70
32
0
VERTEX
5
60
8
S5_346_516_LOCAL
62
140
10
478797.792
20
6772584.573
30
344.459
70
32
0
SEQEND
8
S5_346_516_LOCAL
0
POLYLINE
5
5E
8
S5_346_516_LOCAL
62
140
66
140
70
8
1001
MAPTEK_VULCAN
1000
VulcanName=94
1000
VulcanGroup=
1000
VulcanValue=0
1000
VulcanDescription=Imported from Excel - ADB
1000
VulcanPrimitive=
1000
VulcanLine=0
1000
VulcanPattern=0
1000
VulcanFeature=
0
VERTEX
5
5F
8
S5_346_516_LOCAL
62
140
10
478794.324
20
6772588.421
30
357.838
70
32
0
VERTEX
5
60
8
S5_346_516_LOCAL
62
140
10
478794.324
20
6772588.421
30
346.038
70
32
0
VERTEX
5
61
8
S5_346_516_LOCAL
62
140
10
478794.324
20
6772588.421
30
344.538
70
32
0
SEQEND
8
S5_346_516_LOCAL
0
POLYLINE
5
5F
8
S5_346_516_LOCAL
62
140
66
140
70
8
1001
MAPTEK_VULCAN
1000
VulcanName=95
1000
VulcanGroup=
1000
VulcanValue=0
1000
VulcanDescription=Imported from Excel - ADB
1000
VulcanPrimitive=
1000
VulcanLine=0
1000
VulcanPattern=0
1000
VulcanFeature=
0
VERTEX
5
60
8
S5_346_516_LOCAL
62
140
10
478790.790
20
6772592.170
30
357.799
70
32
0
VERTEX
5
61
8
S5_346_516_LOCAL
62
140
10
478790.790
20
6772592.170
30
345.999
70
32
0
VERTEX
5
62
8
S5_346_516_LOCAL
62
140
10
478790.790
20
6772592.170
30
344.499
70
32
0
SEQEND
8
S5_346_516_LOCAL
0
POLYLINE
5
60
8
S5_346_516_LOCAL
62
140
66
140
70
8
1001
MAPTEK_VULCAN
1000
VulcanName=96
1000
VulcanGroup=
1000
VulcanValue=0
1000
VulcanDescription=Imported from Excel - ADB
1000
VulcanPrimitive=
1000
VulcanLine=0
1000
VulcanPattern=0
1000
VulcanFeature=
0
VERTEX
5
61
8
S5_346_516_LOCAL
62
140
10
478787.055
20
6772596.070
30
357.848
70
32
0
VERTEX
5
62
8
S5_346_516_LOCAL
62
140
10
478787.055
20
6772596.070
30
346.048
70
32
0
VERTEX
5
63
8
S5_346_516_LOCAL
62
140
10
478787.055
20
6772596.070
30
344.548
70
32
0
SEQEND
8
S5_346_516_LOCAL
0
POLYLINE
5
61
8
S5_346_516_LOCAL
62
140
66
140
70
8
1001
MAPTEK_VULCAN
1000
VulcanName=97
1000
VulcanGroup=
1000
VulcanValue=0
1000
VulcanDescription=Imported from Excel - ADB
1000
VulcanPrimitive=
1000
VulcanLine=0
1000
VulcanPattern=0
1000
VulcanFeature=
0
VERTEX
5
62
8
S5_346_516_LOCAL
62
140
10
478783.321
20
6772599.970
30
357.910
70
32
0
VERTEX
5
63
8
S5_346_516_LOCAL
62
140
10
478783.321
20
6772599.970
30
346.010
70
32
0
VERTEX
5
64
8
S5_346_516_LOCAL
62
140
10
478783.321
20
6772599.970
30
344.510
70
32
0
SEQEND
8
S5_346_516_LOCAL
0
POLYLINE
5
62
8
S5_346_516_LOCAL
62
140
66
140
70
8
1001
MAPTEK_VULCAN
1000
VulcanName=98
1000
VulcanGroup=
1000
VulcanValue=0
1000
VulcanDescription=Imported from Excel - ADB
1000
VulcanPrimitive=
1000
VulcanLine=0
1000
VulcanPattern=0
1000
VulcanFeature=
0
VERTEX
5
63
8
S5_346_516_LOCAL
62
140
10
478779.586
20
6772603.871
30
357.994
70
32
0
VERTEX
5
64
8
S5_346_516_LOCAL
62
140
10
478779.586
20
6772603.871
30
345.994
70
32
0
VERTEX
5
65
8
S5_346_516_LOCAL
62
140
10
478779.586
20
6772603.871
30
344.494
70
32
0
SEQEND
8
S5_346_516_LOCAL
0
POLYLINE
5
63
8
S5_346_516_LOCAL
62
140
66
140
70
8
1001
MAPTEK_VULCAN
1000
VulcanName=99
1000
VulcanGroup=
1000
VulcanValue=0
1000
VulcanDescription=Imported from Excel - ADB
1000
VulcanPrimitive=
1000
VulcanLine=0
1000
VulcanPattern=0
1000
VulcanFeature=
0
VERTEX
5
64
8
S5_346_516_LOCAL
62
140
10
478775.851
20
6772607.771
30
358.037
70
32
0
VERTEX
5
65
8
S5_346_516_LOCAL
62
140
10
478775.851
20
6772607.771
30
346.037
70
32
0
VERTEX
5
66
8
S5_346_516_LOCAL
62
140
10
478775.851
20
6772607.771
30
344.537
70
32
0
SEQEND
8
S5_346_516_LOCAL
0
POLYLINE
5
64
8
S5_346_516_LOCAL
62
140
66
140
70
8
1001
MAPTEK_VULCAN
1000
VulcanName=100
1000
VulcanGroup=
1000
VulcanValue=0
1000
VulcanDescription=Imported from Excel - ADB
1000
VulcanPrimitive=
1000
VulcanLine=0
1000
VulcanPattern=0
1000
VulcanFeature=
0
VERTEX
5
65
8
S5_346_516_LOCAL
62
140
10
478772.116
20
6772611.671
30
358.098
70
32
0
VERTEX
5
66
8
S5_346_516_LOCAL
62
140
10
478772.116
20
6772611.671
30
345.998
70
32
0
VERTEX
5
67
8
S5_346_516_LOCAL
62
140
10
478772.116
20
6772611.671
30
344.498
70
32
0
SEQEND
8
S5_346_516_LOCAL
0
POLYLINE
5
65
8
S5_346_516_LOCAL
62
140
66
140
70
8
1001
MAPTEK_VULCAN
1000
VulcanName=101
1000
VulcanGroup=
1000
VulcanValue=0
1000
VulcanDescription=Imported from Excel - ADB
1000
VulcanPrimitive=
1000
VulcanLine=0
1000
VulcanPattern=0
1000
VulcanFeature=
0
VERTEX
5
66
8
S5_346_516_LOCAL
62
140
10
478768.382
20
6772615.571
30
358.166
70
32
0
VERTEX
5
67
8
S5_346_516_LOCAL
62
140
10
478768.382
20
6772615.571
30
345.966
70
32
0
VERTEX
5
68
8
S5_346_516_LOCAL
62
140
10
478768.382
20
6772615.571
30
344.466
70
32
0
SEQEND
8
S5_346_516_LOCAL
0
POLYLINE
5
66
8
S5_346_516_LOCAL
62
140
66
140
70
8
1001
MAPTEK_VULCAN
1000
VulcanName=102
1000
VulcanGroup=
1000
VulcanValue=0
1000
VulcanDescription=Imported from Excel - ADB
1000
VulcanPrimitive=
1000
VulcanLine=0
1000
VulcanPattern=0
1000
VulcanFeature=
0
VERTEX
5
67
8
S5_346_516_LOCAL
62
140
10
478764.647
20
6772619.472
30
358.223
70
32
0
VERTEX
5
68
8
S5_346_516_LOCAL
62
140
10
478764.647
20
6772619.472
30
346.023
70
32
0
VERTEX
5
69
8
S5_346_516_LOCAL
62
140
10
478764.647
20
6772619.472
30
344.523
70
32
0
SEQEND
8
S5_346_516_LOCAL
0
POLYLINE
5
67
8
S5_346_516_LOCAL
62
140
66
140
70
8
1001
MAPTEK_VULCAN
1000
VulcanName=103
1000
VulcanGroup=
1000
VulcanValue=0
1000
VulcanDescription=Imported from Excel - ADB
1000
VulcanPrimitive=
1000
VulcanLine=0
1000
VulcanPattern=0
1000
VulcanFeature=
0
VERTEX
5
68
8
S5_346_516_LOCAL
62
140
10
478764.482
20
6772622.415
30
358.291
70
32
0
VERTEX
5
69
8
S5_346_516_LOCAL
62
140
10
478761.282
20
6772623.272
30
345.927
70
32
0
VERTEX
5
6A
8
S5_346_516_LOCAL
62
140
10
478760.907
20
6772623.373
30
344.478
70
32
0
SEQEND
8
S5_346_516_LOCAL
0
POLYLINE
5
68
8
S5_346_516_LOCAL
62
140
66
140
70
8
1001
MAPTEK_VULCAN
1000
VulcanName=104
1000
VulcanGroup=
1000
VulcanValue=0
1000
VulcanDescription=Imported from Excel - ADB
1000
VulcanPrimitive=
1000
VulcanLine=0
1000
VulcanPattern=0
1000
VulcanFeature=
0
VERTEX
5
69
8
S5_346_516_LOCAL
62
140
10
478762.933
20
6772617.220
30
358.208
70
32
0
VERTEX
5
6A
8
S5_346_516_LOCAL
62
140
10
478759.758
20
6772618.071
30
345.941
70
32
0
VERTEX
5
6B
8
S5_346_516_LOCAL
62
140
10
478759.383
20
6772618.171
30
344.492
70
32
0
SEQEND
8
S5_346_516_LOCAL
0
POLYLINE
5
69
8
S5_346_516_LOCAL
62
140
66
140
70
8
1001
MAPTEK_VULCAN
1000
VulcanName=105
1000
VulcanGroup=
1000
VulcanValue=0
1000
VulcanDescription=Imported from Excel - ADB
1000
VulcanPrimitive=
1000
VulcanLine=0
1000
VulcanPattern=0
1000
VulcanFeature=
0
VERTEX
5
6A
8
S5_346_516_LOCAL
62
140
10
478763.120
20
6772614.271
30
358.213
70
32
0
VERTEX
5
6B
8
S5_346_516_LOCAL
62
140
10
478763.120
20
6772614.271
30
346.013
70
32
0
VERTEX
5
6C
8
S5_346_516_LOCAL
62
140
10
478763.120
20
6772614.271
30
344.513
70
32
0
SEQEND
8
S5_346_516_LOCAL
0
POLYLINE
5
6A
8
S5_346_516_LOCAL
62
140
66
140
70
8
1001
MAPTEK_VULCAN
1000
VulcanName=106
1000
VulcanGroup=
1000
VulcanValue=0
1000
VulcanDescription=Imported from Excel - ADB
1000
VulcanPrimitive=
1000
VulcanLine=0
1000
VulcanPattern=0
1000
VulcanFeature=
0
VERTEX
5
6B
8
S5_346_516_LOCAL
62
140
10
478766.854
20
6772610.371
30
358.198
70
32
0
VERTEX
5
6C
8
S5_346_516_LOCAL
62
140
10
478766.854
20
6772610.371
30
345.998
70
32
0
VERTEX
5
6D
8
S5_346_516_LOCAL
62
140
10
478766.854
20
6772610.371
30
344.498
70
32
0
SEQEND
8
S5_346_516_LOCAL
0
POLYLINE
5
6B
8
S5_346_516_LOCAL
62
140
66
140
70
8
1001
MAPTEK_VULCAN
1000
VulcanName=107
1000
VulcanGroup=
1000
VulcanValue=0
1000
VulcanDescription=Imported from Excel - ADB
1000
VulcanPrimitive=
1000
VulcanLine=0
1000
VulcanPattern=0
1000
VulcanFeature=
0
VERTEX
5
6C
8
S5_346_516_LOCAL
62
140
10
478770.589
20
6772606.470
30
358.027
70
32
0
VERTEX
5
6D
8
S5_346_516_LOCAL
62
140
10
478770.589
20
6772606.470
30
346.027
70
32
0
VERTEX
5
6E
8
S5_346_516_LOCAL
62
140
10
478770.589
20
6772606.470
30
344.527
70
32
0
SEQEND
8
S5_346_516_LOCAL
0
POLYLINE
5
6C
8
S5_346_516_LOCAL
62
140
66
140
70
8
1001
MAPTEK_VULCAN
1000
VulcanName=108
1000
VulcanGroup=
1000
VulcanValue=0
1000
VulcanDescription=Imported from Excel - ADB
1000
VulcanPrimitive=
1000
VulcanLine=0
1000
VulcanPattern=0
1000
VulcanFeature=
0
VERTEX
5
6D
8
S5_346_516_LOCAL
62
140
10
478774.324
20
6772602.570
30
357.908
70
32
0
VERTEX
5
6E
8
S5_346_516_LOCAL
62
140
10
478774.324
20
6772602.570
30
346.008
70
32
0
VERTEX
5
6F
8
S5_346_516_LOCAL
62
140
10
478774.324
20
6772602.570
30
344.508
70
32
0
SEQEND
8
S5_346_516_LOCAL
0
POLYLINE
5
6D
8
S5_346_516_LOCAL
62
140
66
140
70
8
1001
MAPTEK_VULCAN
1000
VulcanName=109
1000
VulcanGroup=
1000
VulcanValue=0
1000
VulcanDescription=Imported from Excel - ADB
1000
VulcanPrimitive=
1000
VulcanLine=0
1000
VulcanPattern=0
1000
VulcanFeature=
0
VERTEX
5
6E
8
S5_346_516_LOCAL
62
140
10
478778.059
20
6772598.670
30
357.820
70
32
0
VERTEX
5
6F
8
S5_346_516_LOCAL
62
140
10
478778.059
20
6772598.670
30
346.020
70
32
0
VERTEX
5
70
8
S5_346_516_LOCAL
62
140
10
478778.059
20
6772598.670
30
344.520
70
32
0
SEQEND
8
S5_346_516_LOCAL
0
POLYLINE
5
6E
8
S5_346_516_LOCAL
62
140
66
140
70
8
1001
MAPTEK_VULCAN
1000
VulcanName=110
1000
VulcanGroup=
1000
VulcanValue=0
1000
VulcanDescription=Imported from Excel - ADB
1000
VulcanPrimitive=
1000
VulcanLine=0
1000
VulcanPattern=0
1000
VulcanFeature=
0
VERTEX
5
6F
8
S5_346_516_LOCAL
62
140
10
478781.793
20
6772594.770
30
357.718
70
32
0
VERTEX
5
70
8
S5_346_516_LOCAL
62
140
10
478781.793
20
6772594.770
30
346.018
70
32
0
VERTEX
5
71
8
S5_346_516_LOCAL
62
140
10
478781.793
20
6772594.770
30
344.518
70
32
0
SEQEND
8
S5_346_516_LOCAL
0
POLYLINE
5
6F
8
S5_346_516_LOCAL
62
140
66
140
70
8
1001
MAPTEK_VULCAN
1000
VulcanName=111
1000
VulcanGroup=
1000
VulcanValue=0
1000
VulcanDescription=Imported from Excel - ADB
1000
VulcanPrimitive=
1000
VulcanLine=0
1000
VulcanPattern=0
1000
VulcanFeature=
0
VERTEX
5
70
8
S5_346_516_LOCAL
62
140
10
478785.528
20
6772590.870
30
357.788
70
32
0
VERTEX
5
71
8
S5_346_516_LOCAL
62
140
10
478785.528
20
6772590.870
30
345.988
70
32
0
VERTEX
5
72
8
S5_346_516_LOCAL
62
140
10
478785.528
20
6772590.870
30
344.488
70
32
0
SEQEND
8
S5_346_516_LOCAL
0
POLYLINE
5
70
8
S5_346_516_LOCAL
62
140
66
140
70
8
1001
MAPTEK_VULCAN
1000
VulcanName=112
1000
VulcanGroup=
1000
VulcanValue=0
1000
VulcanDescription=Imported from Excel - ADB
1000
VulcanPrimitive=
1000
VulcanLine=0
1000
VulcanPattern=0
1000
VulcanFeature=
0
VERTEX
5
71
8
S5_346_516_LOCAL
62
140
10
478789.023
20
6772587.203
30
357.713
70
32
0
VERTEX
5
72
8
S5_346_516_LOCAL
62
140
10
478789.023
20
6772587.203
30
346.013
70
32
0
VERTEX
5
73
8
S5_346_516_LOCAL
62
140
10
478789.023
20
6772587.203
30
344.513
70
32
0
SEQEND
8
S5_346_516_LOCAL
0
POLYLINE
5
71
8
S5_346_516_LOCAL
62
140
66
140
70
8
1001
MAPTEK_VULCAN
1000
VulcanName=113
1000
VulcanGroup=
1000
VulcanValue=0
1000
VulcanDescription=Imported from Excel - ADB
1000
VulcanPrimitive=
1000
VulcanLine=0
1000
VulcanPattern=0
1000
VulcanFeature=
0
VERTEX
5
72
8
S5_346_516_LOCAL
62
140
10
478792.479
20
6772583.533
30
357.780
70
32
0
VERTEX
5
73
8
S5_346_516_LOCAL
62
140
10
478792.479
20
6772583.533
30
345.980
70
32
0
VERTEX
5
74
8
S5_346_516_LOCAL
62
140
10
478792.479
20
6772583.533
30
344.480
70
32
0
SEQEND
8
S5_346_516_LOCAL
0
POLYLINE
5
72
8
S5_346_516_LOCAL
62
140
66
140
70
8
1001
MAPTEK_VULCAN
1000
VulcanName=114
1000
VulcanGroup=
1000
VulcanValue=0
1000
VulcanDescription=Imported from Excel - ADB
1000
VulcanPrimitive=
1000
VulcanLine=0
1000
VulcanPattern=0
1000
VulcanFeature=
0
VERTEX
5
73
8
S5_346_516_LOCAL
62
140
10
478795.777
20
6772579.666
30
357.700
70
32
0
VERTEX
5
74
8
S5_346_516_LOCAL
62
140
10
478795.777
20
6772579.666
30
346.000
70
32
0
VERTEX
5
75
8
S5_346_516_LOCAL
62
140
10
478795.777
20
6772579.666
30
344.500
70
32
0
SEQEND
8
S5_346_516_LOCAL
0
POLYLINE
5
73
8
S5_346_516_LOCAL
62
140
66
140
70
8
1001
MAPTEK_VULCAN
1000
VulcanName=115
1000
VulcanGroup=
1000
VulcanValue=0
1000
VulcanDescription=Imported from Excel - ADB
1000
VulcanPrimitive=
1000
VulcanLine=0
1000
VulcanPattern=0
1000
VulcanFeature=
0
VERTEX
5
74
8
S5_346_516_LOCAL
62
140
10
478799.030
20
6772575.849
30
357.795
70
32
0
VERTEX
5
75
8
S5_346_516_LOCAL
62
140
10
478799.030
20
6772575.849
30
345.995
70
32
0
VERTEX
5
76
8
S5_346_516_LOCAL
62
140
10
478799.030
20
6772575.849
30
344.495
70
32
0
SEQEND
8
S5_346_516_LOCAL
0
POLYLINE
5
74
8
S5_346_516_LOCAL
62
140
66
140
70
8
1001
MAPTEK_VULCAN
1000
VulcanName=116
1000
VulcanGroup=
1000
VulcanValue=0
1000
VulcanDescription=Imported from Excel - ADB
1000
VulcanPrimitive=
1000
VulcanLine=0
1000
VulcanPattern=0
1000
VulcanFeature=
0
VERTEX
5
75
8
S5_346_516_LOCAL
62
140
10
478802.364
20
6772571.602
30
357.925
70
32
0
VERTEX
5
76
8
S5_346_516_LOCAL
62
140
10
478802.364
20
6772571.602
30
346.025
70
32
0
VERTEX
5
77
8
S5_346_516_LOCAL
62
140
10
478802.364
20
6772571.602
30
344.525
70
32
0
SEQEND
8
S5_346_516_LOCAL
0
POLYLINE
5
75
8
S5_346_516_LOCAL
62
140
66
140
70
8
1001
MAPTEK_VULCAN
1000
VulcanName=117
1000
VulcanGroup=
1000
VulcanValue=0
1000
VulcanDescription=Imported from Excel - ADB
1000
VulcanPrimitive=
1000
VulcanLine=0
1000
VulcanPattern=0
1000
VulcanFeature=
0
VERTEX
5
76
8
S5_346_516_LOCAL
62
140
10
478805.698
20
6772567.354
30
357.949
70
32
0
VERTEX
5
77
8
S5_346_516_LOCAL
62
140
10
478805.698
20
6772567.354
30
346.049
70
32
0
VERTEX
5
78
8
S5_346_516_LOCAL
62
140
10
478805.698
20
6772567.354
30
344.549
70
32
0
SEQEND
8
S5_346_516_LOCAL
0
POLYLINE
5
76
8
S5_346_516_LOCAL
62
140
66
140
70
8
1001
MAPTEK_VULCAN
1000
VulcanName=118
1000
VulcanGroup=
1000
VulcanValue=0
1000
VulcanDescription=Imported from Excel - ADB
1000
VulcanPrimitive=
1000
VulcanLine=0
1000
VulcanPattern=0
1000
VulcanFeature=
0
VERTEX
5
77
8
S5_346_516_LOCAL
62
140
10
478809.033
20
6772563.106
30
357.930
70
32
0
VERTEX
5
78
8
S5_346_516_LOCAL
62
140
10
478809.033
20
6772563.106
30
346.030
70
32
0
VERTEX
5
79
8
S5_346_516_LOCAL
62
140
10
478809.033
20
6772563.106
30
344.530
70
32
0
SEQEND
8
S5_346_516_LOCAL
0
POLYLINE
5
77
8
S5_346_516_LOCAL
62
140
66
140
70
8
1001
MAPTEK_VULCAN
1000
VulcanName=119
1000
VulcanGroup=
1000
VulcanValue=0
1000
VulcanDescription=Imported from Excel - ADB
1000
VulcanPrimitive=
1000
VulcanLine=0
1000
VulcanPattern=0
1000
VulcanFeature=
0
VERTEX
5
78
8
S5_346_516_LOCAL
62
140
10
478812.367
20
6772558.859
30
357.921
70
32
0
VERTEX
5
79
8
S5_346_516_LOCAL
62
140
10
478812.367
20
6772558.859
30
346.021
70
32
0
VERTEX
5
7A
8
S5_346_516_LOCAL
62
140
10
478812.367
20
6772558.859
30
344.521
70
32
0
SEQEND
8
S5_346_516_LOCAL
0
POLYLINE
5
78
8
S5_346_516_LOCAL
62
140
66
140
70
8
1001
MAPTEK_VULCAN
1000
VulcanName=120
1000
VulcanGroup=
1000
VulcanValue=0
1000
VulcanDescription=Imported from Excel - ADB
1000
VulcanPrimitive=
1000
VulcanLine=0
1000
VulcanPattern=0
1000
VulcanFeature=
0
VERTEX
5
79
8
S5_346_516_LOCAL
62
140
10
478816.776
20
6772556.770
30
357.816
70
32
0
VERTEX
5
7A
8
S5_346_516_LOCAL
62
140
10
478816.776
20
6772556.770
30
346.016
70
32
0
VERTEX
5
7B
8
S5_346_516_LOCAL
62
140
10
478816.776
20
6772556.770
30
344.516
70
32
0
SEQEND
8
S5_346_516_LOCAL
0
POLYLINE
5
79
8
S5_346_516_LOCAL
62
140
66
140
70
8
1001
MAPTEK_VULCAN
1000
VulcanName=121
1000
VulcanGroup=
1000
VulcanValue=0
1000
VulcanDescription=Imported from Excel - ADB
1000
VulcanPrimitive=
1000
VulcanLine=0
1000
VulcanPattern=0
1000
VulcanFeature=
0
VERTEX
5
7A
8
S5_346_516_LOCAL
62
140
10
478813.028
20
6772553.993
30
357.762
70
32
0
VERTEX
5
7B
8
S5_346_516_LOCAL
62
140
10
478813.028
20
6772553.993
30
345.962
70
32
0
VERTEX
5
7C
8
S5_346_516_LOCAL
62
140
10
478813.028
20
6772553.993
30
344.462
70
32
0
SEQEND
8
S5_346_516_LOCAL
0
POLYLINE
5
7A
8
S5_346_516_LOCAL
62
140
66
140
70
8
1001
MAPTEK_VULCAN
1000
VulcanName=122
1000
VulcanGroup=
1000
VulcanValue=0
1000
VulcanDescription=Imported from Excel - ADB
1000
VulcanPrimitive=
1000
VulcanLine=0
1000
VulcanPattern=0
1000
VulcanFeature=
0
VERTEX
5
7B
8
S5_346_516_LOCAL
62
140
10
478809.014
20
6772555.485
30
357.846
70
32
0
VERTEX
5
7C
8
S5_346_516_LOCAL
62
140
10
478809.014
20
6772555.485
30
346.046
70
32
0
VERTEX
5
7D
8
S5_346_516_LOCAL
62
140
10
478809.014
20
6772555.485
30
344.546
70
32
0
SEQEND
8
S5_346_516_LOCAL
0
POLYLINE
5
7B
8
S5_346_516_LOCAL
62
140
66
140
70
8
1001
MAPTEK_VULCAN
1000
VulcanName=123
1000
VulcanGroup=
1000
VulcanValue=0
1000
VulcanDescription=Imported from Excel - ADB
1000
VulcanPrimitive=
1000
VulcanLine=0
1000
VulcanPattern=0
1000
VulcanFeature=
0
VERTEX
5
7C
8
S5_346_516_LOCAL
62
140
10
478806.160
20
6772559.164
30
357.959
70
32
0
VERTEX
5
7D
8
S5_346_516_LOCAL
62
140
10
478806.160
20
6772559.164
30
345.959
70
32
0
VERTEX
5
7E
8
S5_346_516_LOCAL
62
140
10
478806.160
20
6772559.164
30
344.459
70
32
0
SEQEND
8
S5_346_516_LOCAL
0
POLYLINE
5
7C
8
S5_346_516_LOCAL
62
140
66
140
70
8
1001
MAPTEK_VULCAN
1000
VulcanName=124
1000
VulcanGroup=
1000
VulcanValue=0
1000
VulcanDescription=Imported from Excel - ADB
1000
VulcanPrimitive=
1000
VulcanLine=0
1000
VulcanPattern=0
1000
VulcanFeature=
0
VERTEX
5
7D
8
S5_346_516_LOCAL
62
140
10
478803.232
20
6772562.899
30
357.982
70
32
0
VERTEX
5
7E
8
S5_346_516_LOCAL
62
140
10
478803.232
20
6772562.899
30
345.982
70
32
0
VERTEX
5
7F
8
S5_346_516_LOCAL
62
140
10
478803.232
20
6772562.899
30
344.482
70
32
0
SEQEND
8
S5_346_516_LOCAL
0
POLYLINE
5
7D
8
S5_346_516_LOCAL
62
140
66
140
70
8
1001
MAPTEK_VULCAN
1000
VulcanName=125
1000
VulcanGroup=
1000
VulcanValue=0
1000
VulcanDescription=Imported from Excel - ADB
1000
VulcanPrimitive=
1000
VulcanLine=0
1000
VulcanPattern=0
1000
VulcanFeature=
0
VERTEX
5
7E
8
S5_346_516_LOCAL
62
140
10
478800.334
20
6772566.576
30
357.953
70
32
0
VERTEX
5
7F
8
S5_346_516_LOCAL
62
140
10
478800.334
20
6772566.576
30
345.953
70
32
0
VERTEX
5
80
8
S5_346_516_LOCAL
62
140
10
478800.334
20
6772566.576
30
344.453
70
32
0
SEQEND
8
S5_346_516_LOCAL
0
POLYLINE
5
7E
8
S5_346_516_LOCAL
62
140
66
140
70
8
1001
MAPTEK_VULCAN
1000
VulcanName=126
1000
VulcanGroup=
1000
VulcanValue=0
1000
VulcanDescription=Imported from Excel - ADB
1000
VulcanPrimitive=
1000
VulcanLine=0
1000
VulcanPattern=0
1000
VulcanFeature=
0
VERTEX
5
7F
8
S5_346_516_LOCAL
62
140
10
478797.000
20
6772570.823
30
357.925
70
32
0
VERTEX
5
80
8
S5_346_516_LOCAL
62
140
10
478797.000
20
6772570.823
30
346.025
70
32
0
VERTEX
5
81
8
S5_346_516_LOCAL
62
140
10
478797.000
20
6772570.823
30
344.525
70
32
0
SEQEND
8
S5_346_516_LOCAL
0
POLYLINE
5
7F
8
S5_346_516_LOCAL
62
140
66
140
70
8
1001
MAPTEK_VULCAN
1000
VulcanName=127
1000
VulcanGroup=
1000
VulcanValue=0
1000
VulcanDescription=Imported from Excel - ADB
1000
VulcanPrimitive=
1000
VulcanLine=0
1000
VulcanPattern=0
1000
VulcanFeature=
0
VERTEX
5
80
8
S5_346_516_LOCAL
62
140
10
478793.863
20
6772574.647
30
357.808
70
32
0
VERTEX
5
81
8
S5_346_516_LOCAL
62
140
10
478793.863
20
6772574.647
30
346.008
70
32
0
VERTEX
5
82
8
S5_346_516_LOCAL
62
140
10
478793.863
20
6772574.647
30
344.508
70
32
0
SEQEND
8
S5_346_516_LOCAL
0
POLYLINE
5
80
8
S5_346_516_LOCAL
62
140
66
140
70
8
1001
MAPTEK_VULCAN
1000
VulcanName=128
1000
VulcanGroup=
1000
VulcanValue=0
1000
VulcanDescription=Imported from Excel - ADB
1000
VulcanPrimitive=
1000
VulcanLine=0
1000
VulcanPattern=0
1000
VulcanFeature=
0
VERTEX
5
81
8
S5_346_516_LOCAL
62
140
10
478790.701
20
6772578.420
30
357.727
70
32
0
VERTEX
5
82
8
S5_346_516_LOCAL
62
140
10
478790.701
20
6772578.420
30
346.027
70
32
0
VERTEX
5
83
8
S5_346_516_LOCAL
62
140
10
478790.701
20
6772578.420
30
344.527
70
32
0
SEQEND
8
S5_346_516_LOCAL
0
POLYLINE
5
81
8
S5_346_516_LOCAL
62
140
66
140
70
8
1001
MAPTEK_VULCAN
1000
VulcanName=129
1000
VulcanGroup=
1000
VulcanValue=0
1000
VulcanDescription=Imported from Excel - ADB
1000
VulcanPrimitive=
1000
VulcanLine=0
1000
VulcanPattern=0
1000
VulcanFeature=
0
VERTEX
5
82
8
S5_346_516_LOCAL
62
140
10
478787.356
20
6772582.068
30
357.746
70
32
0
VERTEX
5
83
8
S5_346_516_LOCAL
62
140
10
478787.356
20
6772582.068
30
346.046
70
32
0
VERTEX
5
84
8
S5_346_516_LOCAL
62
140
10
478787.356
20
6772582.068
30
344.546
70
32
0
SEQEND
8
S5_346_516_LOCAL
0
POLYLINE
5
82
8
S5_346_516_LOCAL
62
140
66
140
70
8
1001
MAPTEK_VULCAN
1000
VulcanName=130
1000
VulcanGroup=
1000
VulcanValue=0
1000
VulcanDescription=Imported from Excel - ADB
1000
VulcanPrimitive=
1000
VulcanLine=0
1000
VulcanPattern=0
1000
VulcanFeature=
0
VERTEX
5
83
8
S5_346_516_LOCAL
62
140
10
478784.001
20
6772585.669
30
357.673
70
32
0
VERTEX
5
84
8
S5_346_516_LOCAL
62
140
10
478784.001
20
6772585.669
30
345.973
70
32
0
VERTEX
5
85
8
S5_346_516_LOCAL
62
140
10
478784.001
20
6772585.669
30
344.473
70
32
0
SEQEND
8
S5_346_516_LOCAL
0
POLYLINE
5
83
8
S5_346_516_LOCAL
62
140
66
140
70
8
1001
MAPTEK_VULCAN
1000
VulcanName=131
1000
VulcanGroup=
1000
VulcanValue=0
1000
VulcanDescription=Imported from Excel - ADB
1000
VulcanPrimitive=
1000
VulcanLine=0
1000
VulcanPattern=0
1000
VulcanFeature=
0
VERTEX
5
84
8
S5_346_516_LOCAL
62
140
10
478780.266
20
6772589.569
30
357.669
70
32
0
VERTEX
5
85
8
S5_346_516_LOCAL
62
140
10
478780.266
20
6772589.569
30
345.969
70
32
0
VERTEX
5
86
8
S5_346_516_LOCAL
62
140
10
478780.266
20
6772589.569
30
344.469
70
32
0
SEQEND
8
S5_346_516_LOCAL
0
POLYLINE
5
84
8
S5_346_516_LOCAL
62
140
66
140
70
8
1001
MAPTEK_VULCAN
1000
VulcanName=132
1000
VulcanGroup=
1000
VulcanValue=0
1000
VulcanDescription=Imported from Excel - ADB
1000
VulcanPrimitive=
1000
VulcanLine=0
1000
VulcanPattern=0
1000
VulcanFeature=
0
VERTEX
5
85
8
S5_346_516_LOCAL
62
140
10
478776.531
20
6772593.469
30
357.683
70
32
0
VERTEX
5
86
8
S5_346_516_LOCAL
62
140
10
478776.531
20
6772593.469
30
345.983
70
32
0
VERTEX
5
87
8
S5_346_516_LOCAL
62
140
10
478776.531
20
6772593.469
30
344.483
70
32
0
SEQEND
8
S5_346_516_LOCAL
0
POLYLINE
5
85
8
S5_346_516_LOCAL
62
140
66
140
70
8
1001
MAPTEK_VULCAN
1000
VulcanName=133
1000
VulcanGroup=
1000
VulcanValue=0
1000
VulcanDescription=Imported from Excel - ADB
1000
VulcanPrimitive=
1000
VulcanLine=0
1000
VulcanPattern=0
1000
VulcanFeature=
0
VERTEX
5
86
8
S5_346_516_LOCAL
62
140
10
478772.797
20
6772597.369
30
357.772
70
32
0
VERTEX
5
87
8
S5_346_516_LOCAL
62
140
10
478772.797
20
6772597.369
30
345.972
70
32
0
VERTEX
5
88
8
S5_346_516_LOCAL
62
140
10
478772.797
20
6772597.369
30
344.472
70
32
0
SEQEND
8
S5_346_516_LOCAL
0
POLYLINE
5
86
8
S5_346_516_LOCAL
62
140
66
140
70
8
1001
MAPTEK_VULCAN
1000
VulcanName=134
1000
VulcanGroup=
1000
VulcanValue=0
1000
VulcanDescription=Imported from Excel - ADB
1000
VulcanPrimitive=
1000
VulcanLine=0
1000
VulcanPattern=0
1000
VulcanFeature=
0
VERTEX
5
87
8
S5_346_516_LOCAL
62
140
10
478769.062
20
6772601.270
30
357.861
70
32
0
VERTEX
5
88
8
S5_346_516_LOCAL
62
140
10
478769.062
20
6772601.270
30
345.961
70
32
0
VERTEX
5
89
8
S5_346_516_LOCAL
62
140
10
478769.062
20
6772601.270
30
344.461
70
32
0
SEQEND
8
S5_346_516_LOCAL
0
POLYLINE
5
87
8
S5_346_516_LOCAL
62
140
66
140
70
8
1001
MAPTEK_VULCAN
1000
VulcanName=135
1000
VulcanGroup=
1000
VulcanValue=0
1000
VulcanDescription=Imported from Excel - ADB
1000
VulcanPrimitive=
1000
VulcanLine=0
1000
VulcanPattern=0
1000
VulcanFeature=
0
VERTEX
5
88
8
S5_346_516_LOCAL
62
140
10
478765.327
20
6772605.170
30
358.000
70
32
0
VERTEX
5
89
8
S5_346_516_LOCAL
62
140
10
478765.327
20
6772605.170
30
346.000
70
32
0
VERTEX
5
8A
8
S5_346_516_LOCAL
62
140
10
478765.327
20
6772605.170
30
344.500
70
32
0
SEQEND
8
S5_346_516_LOCAL
0
POLYLINE
5
88
8
S5_346_516_LOCAL
62
140
66
140
70
8
1001
MAPTEK_VULCAN
1000
VulcanName=136
1000
VulcanGroup=
1000
VulcanValue=0
1000
VulcanDescription=Imported from Excel - ADB
1000
VulcanPrimitive=
1000
VulcanLine=0
1000
VulcanPattern=0
1000
VulcanFeature=
0
VERTEX
5
89
8
S5_346_516_LOCAL
62
140
10
478761.592
20
6772609.070
30
358.162
70
32
0
VERTEX
5
8A
8
S5_346_516_LOCAL
62
140
10
478761.592
20
6772609.070
30
345.962
70
32
0
VERTEX
5
8B
8
S5_346_516_LOCAL
62
140
10
478761.592
20
6772609.070
30
344.462
70
32
0
SEQEND
8
S5_346_516_LOCAL
0
POLYLINE
5
89
8
S5_346_516_LOCAL
62
140
66
140
70
8
1001
MAPTEK_VULCAN
1000
VulcanName=137
1000
VulcanGroup=
1000
VulcanValue=0
1000
VulcanDescription=Imported from Excel - ADB
1000
VulcanPrimitive=
1000
VulcanLine=0
1000
VulcanPattern=0
1000
VulcanFeature=
0
VERTEX
5
8A
8
S5_346_516_LOCAL
62
140
10
478761.414
20
6772612.017
30
358.242
70
32
0
VERTEX
5
8B
8
S5_346_516_LOCAL
62
140
10
478758.239
20
6772612.868
30
345.975
70
32
0
VERTEX
5
8C
8
S5_346_516_LOCAL
62
140
10
478757.864
20
6772612.968
30
344.526
70
32
0
SEQEND
8
S5_346_516_LOCAL
0
POLYLINE
5
8A
8
S5_346_516_LOCAL
62
140
66
140
70
8
1001
MAPTEK_VULCAN
1000
VulcanName=138
1000
VulcanGroup=
1000
VulcanValue=0
1000
VulcanDescription=Imported from Excel - ADB
1000
VulcanPrimitive=
1000
VulcanLine=0
1000
VulcanPattern=0
1000
VulcanFeature=
0
VERTEX
5
8B
8
S5_346_516_LOCAL
62
140
10
478759.853
20
6772606.826
30
358.109
70
32
0
VERTEX
5
8C
8
S5_346_516_LOCAL
62
140
10
478756.703
20
6772607.670
30
345.938
70
32
0
VERTEX
5
8D
8
S5_346_516_LOCAL
62
140
10
478756.328
20
6772607.771
30
344.489
70
32
0
SEQEND
8
S5_346_516_LOCAL
0
POLYLINE
5
8B
8
S5_346_516_LOCAL
62
140
66
140
70
8
1001
MAPTEK_VULCAN
1000
VulcanName=139
1000
VulcanGroup=
1000
VulcanValue=0
1000
VulcanDescription=Imported from Excel - ADB
1000
VulcanPrimitive=
1000
VulcanLine=0
1000
VulcanPattern=0
1000
VulcanFeature=
0
VERTEX
5
8C
8
S5_346_516_LOCAL
62
140
10
478760.065
20
6772603.869
30
358.045
70
32
0
VERTEX
5
8D
8
S5_346_516_LOCAL
62
140
10
478760.065
20
6772603.869
30
346.045
70
32
0
VERTEX
5
8E
8
S5_346_516_LOCAL
62
140
10
478760.065
20
6772603.869
30
344.545
70
32
0
SEQEND
8
S5_346_516_LOCAL
0
POLYLINE
5
8C
8
S5_346_516_LOCAL
62
140
66
140
70
8
1001
MAPTEK_VULCAN
1000
VulcanName=140
1000
VulcanGroup=
1000
VulcanValue=0
1000
VulcanDescription=Imported from Excel - ADB
1000
VulcanPrimitive=
1000
VulcanLine=0
1000
VulcanPattern=0
1000
VulcanFeature=
0
VERTEX
5
8D
8
S5_346_516_LOCAL
62
140
10
478763.800
20
6772599.969
30
357.904
70
32
0
VERTEX
5
8E
8
S5_346_516_LOCAL
62
140
10
478763.800
20
6772599.969
30
346.004
70
32
0
VERTEX
5
8F
8
S5_346_516_LOCAL
62
140
10
478763.800
20
6772599.969
30
344.504
70
32
0
SEQEND
8
S5_346_516_LOCAL
0
POLYLINE
5
8D
8
S5_346_516_LOCAL
62
140
66
140
70
8
1001
MAPTEK_VULCAN
1000
VulcanName=141
1000
VulcanGroup=
1000
VulcanValue=0
1000
VulcanDescription=Imported from Excel - ADB
1000
VulcanPrimitive=
1000
VulcanLine=0
1000
VulcanPattern=0
1000
VulcanFeature=
0
VERTEX
5
8E
8
S5_346_516_LOCAL
62
140
10
478767.535
20
6772596.069
30
357.773
70
32
0
VERTEX
5
8F
8
S5_346_516_LOCAL
62
140
10
478767.535
20
6772596.069
30
345.973
70
32
0
VERTEX
5
90
8
S5_346_516_LOCAL
62
140
10
478767.535
20
6772596.069
30
344.473
70
32
0
SEQEND
8
S5_346_516_LOCAL
0
POLYLINE
5
8E
8
S5_346_516_LOCAL
62
140
66
140
70
8
1001
MAPTEK_VULCAN
1000
VulcanName=142
1000
VulcanGroup=
1000
VulcanValue=0
1000
VulcanDescription=Imported from Excel - ADB
1000
VulcanPrimitive=
1000
VulcanLine=0
1000
VulcanPattern=0
1000
VulcanFeature=
0
VERTEX
5
8F
8
S5_346_516_LOCAL
62
140
10
478771.259
20
6772592.198
30
357.736
70
32
0
VERTEX
5
90
8
S5_346_516_LOCAL
62
140
10
478771.259
20
6772592.198
30
346.036
70
32
0
VERTEX
5
91
8
S5_346_516_LOCAL
62
140
10
478771.259
20
6772592.198
30
344.536
70
32
0
SEQEND
8
S5_346_516_LOCAL
0
POLYLINE
5
8F
8
S5_346_516_LOCAL
62
140
66
140
70
8
1001
MAPTEK_VULCAN
1000
VulcanName=143
1000
VulcanGroup=
1000
VulcanValue=0
1000
VulcanDescription=Imported from Excel - ADB
1000
VulcanPrimitive=
1000
VulcanLine=0
1000
VulcanPattern=0
1000
VulcanFeature=
0
VERTEX
5
90
8
S5_346_516_LOCAL
62
140
10
478775.004
20
6772588.269
30
357.675
70
32
0
VERTEX
5
91
8
S5_346_516_LOCAL
62
140
10
478775.004
20
6772588.269
30
345.975
70
32
0
VERTEX
5
92
8
S5_346_516_LOCAL
62
140
10
478775.004
20
6772588.269
30
344.475
70
32
0
SEQEND
8
S5_346_516_LOCAL
0
POLYLINE
5
90
8
S5_346_516_LOCAL
62
140
66
140
70
8
1001
MAPTEK_VULCAN
1000
VulcanName=144
1000
VulcanGroup=
1000
VulcanValue=0
1000
VulcanDescription=Imported from Excel - ADB
1000
VulcanPrimitive=
1000
VulcanLine=0
1000
VulcanPattern=0
1000
VulcanFeature=
0
VERTEX
5
91
8
S5_346_516_LOCAL
62
140
10
478778.739
20
6772584.368
30
357.621
70
32
0
VERTEX
5
92
8
S5_346_516_LOCAL
62
140
10
478778.739
20
6772584.368
30
346.021
70
32
0
VERTEX
5
93
8
S5_346_516_LOCAL
62
140
10
478778.739
20
6772584.368
30
344.521
70
32
0
SEQEND
8
S5_346_516_LOCAL
0
POLYLINE
5
91
8
S5_346_516_LOCAL
62
140
66
140
70
8
1001
MAPTEK_VULCAN
1000
VulcanName=145
1000
VulcanGroup=
1000
VulcanValue=0
1000
VulcanDescription=Imported from Excel - ADB
1000
VulcanPrimitive=
1000
VulcanLine=0
1000
VulcanPattern=0
1000
VulcanFeature=
0
VERTEX
5
92
8
S5_346_516_LOCAL
62
140
10
478782.136
20
6772580.856
30
357.778
70
32
0
VERTEX
5
93
8
S5_346_516_LOCAL
62
140
10
478782.136
20
6772580.856
30
345.978
70
32
0
VERTEX
5
94
8
S5_346_516_LOCAL
62
140
10
478782.136
20
6772580.856
30
344.478
70
32
0
SEQEND
8
S5_346_516_LOCAL
0
POLYLINE
5
92
8
S5_346_516_LOCAL
62
140
66
140
70
8
1001
MAPTEK_VULCAN
1000
VulcanName=146
1000
VulcanGroup=
1000
VulcanValue=0
1000
VulcanDescription=Imported from Excel - ADB
1000
VulcanPrimitive=
1000
VulcanLine=0
1000
VulcanPattern=0
1000
VulcanFeature=
0
VERTEX
5
93
8
S5_346_516_LOCAL
62
140
10
478785.388
20
6772577.380
30
357.826
70
32
0
VERTEX
5
94
8
S5_346_516_LOCAL
62
140
10
478785.388
20
6772577.380
30
346.026
70
32
0
VERTEX
5
95
8
S5_346_516_LOCAL
62
140
10
478785.388
20
6772577.380
30
344.526
70
32
0
SEQEND
8
S5_346_516_LOCAL
0
POLYLINE
5
93
8
S5_346_516_LOCAL
62
140
66
140
70
8
1001
MAPTEK_VULCAN
1000
VulcanName=147
1000
VulcanGroup=
1000
VulcanValue=0
1000
VulcanDescription=Imported from Excel - ADB
1000
VulcanPrimitive=
1000
VulcanLine=0
1000
VulcanPattern=0
1000
VulcanFeature=
0
VERTEX
5
94
8
S5_346_516_LOCAL
62
140
10
478788.503
20
6772573.698
30
357.852
70
32
0
VERTEX
5
95
8
S5_346_516_LOCAL
62
140
10
478788.503
20
6772573.698
30
345.952
70
32
0
VERTEX
5
96
8
S5_346_516_LOCAL
62
140
10
478788.503
20
6772573.698
30
344.452
70
32
0
SEQEND
8
S5_346_516_LOCAL
0
POLYLINE
5
94
8
S5_346_516_LOCAL
62
140
66
140
70
8
1001
MAPTEK_VULCAN
1000
VulcanName=148
1000
VulcanGroup=
1000
VulcanValue=0
1000
VulcanDescription=Imported from Excel - ADB
1000
VulcanPrimitive=
1000
VulcanLine=0
1000
VulcanPattern=0
1000
VulcanFeature=
0
VERTEX
5
95
8
S5_346_516_LOCAL
62
140
10
478791.636
20
6772570.045
30
357.933
70
32
0
VERTEX
5
96
8
S5_346_516_LOCAL
62
140
10
478791.636
20
6772570.045
30
346.033
70
32
0
VERTEX
5
97
8
S5_346_516_LOCAL
62
140
10
478791.636
20
6772570.045
30
344.533
70
32
0
SEQEND
8
S5_346_516_LOCAL
0
POLYLINE
5
95
8
S5_346_516_LOCAL
62
140
66
140
70
8
1001
MAPTEK_VULCAN
1000
VulcanName=149
1000
VulcanGroup=
1000
VulcanValue=0
1000
VulcanDescription=Imported from Excel - ADB
1000
VulcanPrimitive=
1000
VulcanLine=0
1000
VulcanPattern=0
1000
VulcanFeature=
0
VERTEX
5
96
8
S5_346_516_LOCAL
62
140
10
478794.970
20
6772565.797
30
357.957
70
32
0
VERTEX
5
97
8
S5_346_516_LOCAL
62
140
10
478794.970
20
6772565.797
30
345.957
70
32
0
VERTEX
5
98
8
S5_346_516_LOCAL
62
140
10
478794.970
20
6772565.797
30
344.457
70
32
0
SEQEND
8
S5_346_516_LOCAL
0
POLYLINE
5
96
8
S5_346_516_LOCAL
62
140
66
140
70
8
1001
MAPTEK_VULCAN
1000
VulcanName=150
1000
VulcanGroup=
1000
VulcanValue=0
1000
VulcanDescription=Imported from Excel - ADB
1000
VulcanPrimitive=
1000
VulcanLine=0
1000
VulcanPattern=0
1000
VulcanFeature=
0
VERTEX
5
97
8
S5_346_516_LOCAL
62
140
10
478798.304
20
6772561.550
30
357.999
70
32
0
VERTEX
5
98
8
S5_346_516_LOCAL
62
140
10
478798.304
20
6772561.550
30
345.999
70
32
0
VERTEX
5
99
8
S5_346_516_LOCAL
62
140
10
478798.304
20
6772561.550
30
344.499
70
32
0
SEQEND
8
S5_346_516_LOCAL
0
POLYLINE
5
97
8
S5_346_516_LOCAL
62
140
66
140
70
8
1001
MAPTEK_VULCAN
1000
VulcanName=151
1000
VulcanGroup=
1000
VulcanValue=0
1000
VulcanDescription=Imported from Excel - ADB
1000
VulcanPrimitive=
1000
VulcanLine=0
1000
VulcanPattern=0
1000
VulcanFeature=
0
VERTEX
5
98
8
S5_346_516_LOCAL
62
140
10
478801.639
20
6772557.302
30
357.993
70
32
0
VERTEX
5
99
8
S5_346_516_LOCAL
62
140
10
478801.639
20
6772557.302
30
345.993
70
32
0
VERTEX
5
9A
8
S5_346_516_LOCAL
62
140
10
478801.639
20
6772557.302
30
344.493
70
32
0
SEQEND
8
S5_346_516_LOCAL
0
POLYLINE
5
98
8
S5_346_516_LOCAL
62
140
66
140
70
8
1001
MAPTEK_VULCAN
1000
VulcanName=152
1000
VulcanGroup=
1000
VulcanValue=0
1000
VulcanDescription=Imported from Excel - ADB
1000
VulcanPrimitive=
1000
VulcanLine=0
1000
VulcanPattern=0
1000
VulcanFeature=
0
VERTEX
5
99
8
S5_346_516_LOCAL
62
140
10
478804.973
20
6772553.055
30
357.905
70
32
0
VERTEX
5
9A
8
S5_346_516_LOCAL
62
140
10
478804.973
20
6772553.055
30
346.005
70
32
0
VERTEX
5
9B
8
S5_346_516_LOCAL
62
140
10
478804.973
20
6772553.055
30
344.505
70
32
0
SEQEND
8
S5_346_516_LOCAL
0
POLYLINE
5
99
8
S5_346_516_LOCAL
62
140
66
140
70
8
1001
MAPTEK_VULCAN
1000
VulcanName=153
1000
VulcanGroup=
1000
VulcanValue=0
1000
VulcanDescription=Imported from Excel - ADB
1000
VulcanPrimitive=
1000
VulcanLine=0
1000
VulcanPattern=0
1000
VulcanFeature=
0
VERTEX
5
9A
8
S5_346_516_LOCAL
62
140
10
478809.354
20
6772551.240
30
357.839
70
32
0
VERTEX
5
9B
8
S5_346_516_LOCAL
62
140
10
478809.354
20
6772551.240
30
346.039
70
32
0
VERTEX
5
9C
8
S5_346_516_LOCAL
62
140
10
478809.354
20
6772551.240
30
344.539
70
32
0
SEQEND
8
S5_346_516_LOCAL
0
POLYLINE
5
9A
8
S5_346_516_LOCAL
62
140
66
140
70
8
1001
MAPTEK_VULCAN
1000
VulcanName=154
1000
VulcanGroup=
1000
VulcanValue=0
1000
VulcanDescription=Imported from Excel - ADB
1000
VulcanPrimitive=
1000
VulcanLine=0
1000
VulcanPattern=0
1000
VulcanFeature=
0
VERTEX
5
9B
8
S5_346_516_LOCAL
62
140
10
478806.695
20
6772548.954
30
357.862
70
32
0
VERTEX
5
9C
8
S5_346_516_LOCAL
62
140
10
478806.695
20
6772548.954
30
345.962
70
32
0
VERTEX
5
9D
8
S5_346_516_LOCAL
62
140
10
478806.695
20
6772548.954
30
344.462
70
32
0
SEQEND
8
S5_346_516_LOCAL
0
POLYLINE
5
9B
8
S5_346_516_LOCAL
62
140
66
140
70
8
1001
MAPTEK_VULCAN
1000
VulcanName=155
1000
VulcanGroup=
1000
VulcanValue=0
1000
VulcanDescription=Imported from Excel - ADB
1000
VulcanPrimitive=
1000
VulcanLine=0
1000
VulcanPattern=0
1000
VulcanFeature=
0
VERTEX
5
9C
8
S5_346_516_LOCAL
62
140
10
478802.943
20
6772548.029
30
357.975
70
32
0
VERTEX
5
9D
8
S5_346_516_LOCAL
62
140
10
478802.943
20
6772548.029
30
345.975
70
32
0
VERTEX
5
9E
8
S5_346_516_LOCAL
62
140
10
478802.943
20
6772548.029
30
344.475
70
32
0
SEQEND
8
S5_346_516_LOCAL
0
POLYLINE
5
9C
8
S5_346_516_LOCAL
62
140
66
140
70
8
1001
MAPTEK_VULCAN
1000
VulcanName=156
1000
VulcanGroup=
1000
VulcanValue=0
1000
VulcanDescription=Imported from Excel - ADB
1000
VulcanPrimitive=
1000
VulcanLine=0
1000
VulcanPattern=0
1000
VulcanFeature=
0
VERTEX
5
9D
8
S5_346_516_LOCAL
62
140
10
478799.609
20
6772552.276
30
358.007
70
32
0
VERTEX
5
9E
8
S5_346_516_LOCAL
62
140
10
478799.609
20
6772552.276
30
346.007
70
32
0
VERTEX
5
9F
8
S5_346_516_LOCAL
62
140
10
478799.609
20
6772552.276
30
344.507
70
32
0
SEQEND
8
S5_346_516_LOCAL
0
POLYLINE
5
9D
8
S5_346_516_LOCAL
62
140
66
140
70
8
1001
MAPTEK_VULCAN
1000
VulcanName=157
1000
VulcanGroup=
1000
VulcanValue=0
1000
VulcanDescription=Imported from Excel - ADB
1000
VulcanPrimitive=
1000
VulcanLine=0
1000
VulcanPattern=0
1000
VulcanFeature=
0
VERTEX
5
9E
8
S5_346_516_LOCAL
62
140
10
478796.275
20
6772556.524
30
357.982
70
32
0
VERTEX
5
9F
8
S5_346_516_LOCAL
62
140
10
478796.275
20
6772556.524
30
345.982
70
32
0
VERTEX
5
A0
8
S5_346_516_LOCAL
62
140
10
478796.275
20
6772556.524
30
344.482
70
32
0
SEQEND
8
S5_346_516_LOCAL
0
POLYLINE
5
9E
8
S5_346_516_LOCAL
62
140
66
140
70
8
1001
MAPTEK_VULCAN
1000
VulcanName=158
1000
VulcanGroup=
1000
VulcanValue=0
1000
VulcanDescription=Imported from Excel - ADB
1000
VulcanPrimitive=
1000
VulcanLine=0
1000
VulcanPattern=0
1000
VulcanFeature=
0
VERTEX
5
9F
8
S5_346_516_LOCAL
62
140
10
478792.940
20
6772560.772
30
357.952
70
32
0
VERTEX
5
A0
8
S5_346_516_LOCAL
62
140
10
478792.940
20
6772560.772
30
345.952
70
32
0
VERTEX
5
A1
8
S5_346_516_LOCAL
62
140
10
478792.940
20
6772560.772
30
344.452
70
32
0
SEQEND
8
S5_346_516_LOCAL
0
POLYLINE
5
9F
8
S5_346_516_LOCAL
62
140
66
140
70
8
1001
MAPTEK_VULCAN
1000
VulcanName=159
1000
VulcanGroup=
1000
VulcanValue=0
1000
VulcanDescription=Imported from Excel - ADB
1000
VulcanPrimitive=
1000
VulcanLine=0
1000
VulcanPattern=0
1000
VulcanFeature=
0
VERTEX
5
A0
8
S5_346_516_LOCAL
62
140
10
478789.606
20
6772565.019
30
357.933
70
32
0
VERTEX
5
A1
8
S5_346_516_LOCAL
62
140
10
478789.606
20
6772565.019
30
346.033
70
32
0
VERTEX
5
A2
8
S5_346_516_LOCAL
62
140
10
478789.606
20
6772565.019
30
344.533
70
32
0
SEQEND
8
S5_346_516_LOCAL
0
POLYLINE
5
A0
8
S5_346_516_LOCAL
62
140
66
140
70
8
1001
MAPTEK_VULCAN
1000
VulcanName=160
1000
VulcanGroup=
1000
VulcanValue=0
1000
VulcanDescription=Imported from Excel - ADB
1000
VulcanPrimitive=
1000
VulcanLine=0
1000
VulcanPattern=0
1000
VulcanFeature=
0
VERTEX
5
A1
8
S5_346_516_LOCAL
62
140
10
478786.611
20
6772568.674
30
357.880
70
32
0
VERTEX
5
A2
8
S5_346_516_LOCAL
62
140
10
478786.611
20
6772568.674
30
345.980
70
32
0
VERTEX
5
A3
8
S5_346_516_LOCAL
62
140
10
478786.611
20
6772568.674
30
344.480
70
32
0
SEQEND
8
S5_346_516_LOCAL
0
POLYLINE
5
A1
8
S5_346_516_LOCAL
62
140
66
140
70
8
1001
MAPTEK_VULCAN
1000
VulcanName=161
1000
VulcanGroup=
1000
VulcanValue=0
1000
VulcanDescription=Imported from Excel - ADB
1000
VulcanPrimitive=
1000
VulcanLine=0
1000
VulcanPattern=0
1000
VulcanFeature=
0
VERTEX
5
A2
8
S5_346_516_LOCAL
62
140
10
478783.609
20
6772572.267
30
357.859
70
32
0
VERTEX
5
A3
8
S5_346_516_LOCAL
62
140
10
478783.609
20
6772572.267
30
345.959
70
32
0
VERTEX
5
A4
8
S5_346_516_LOCAL
62
140
10
478783.609
20
6772572.267
30
344.459
70
32
0
SEQEND
8
S5_346_516_LOCAL
0
POLYLINE
5
A2
8
S5_346_516_LOCAL
62
140
66
140
70
8
1001
MAPTEK_VULCAN
1000
VulcanName=162
1000
VulcanGroup=
1000
VulcanValue=0
1000
VulcanDescription=Imported from Excel - ADB
1000
VulcanPrimitive=
1000
VulcanLine=0
1000
VulcanPattern=0
1000
VulcanFeature=
0
VERTEX
5
A3
8
S5_346_516_LOCAL
62
140
10
478780.412
20
6772575.757
30
357.787
70
32
0
VERTEX
5
A4
8
S5_346_516_LOCAL
62
140
10
478780.412
20
6772575.757
30
345.987
70
32
0
VERTEX
5
A5
8
S5_346_516_LOCAL
62
140
10
478780.412
20
6772575.757
30
344.487
70
32
0
SEQEND
8
S5_346_516_LOCAL
0
POLYLINE
5
A3
8
S5_346_516_LOCAL
62
140
66
140
70
8
1001
MAPTEK_VULCAN
1000
VulcanName=163
1000
VulcanGroup=
1000
VulcanValue=0
1000
VulcanDescription=Imported from Excel - ADB
1000
VulcanPrimitive=
1000
VulcanLine=0
1000
VulcanPattern=0
1000
VulcanFeature=
0
VERTEX
5
A4
8
S5_346_516_LOCAL
62
140
10
478777.212
20
6772579.168
30
357.724
70
32
0
VERTEX
5
A5
8
S5_346_516_LOCAL
62
140
10
478777.212
20
6772579.168
30
346.024
70
32
0
VERTEX
5
A6
8
S5_346_516_LOCAL
62
140
10
478777.212
20
6772579.168
30
344.524
70
32
0
SEQEND
8
S5_346_516_LOCAL
0
POLYLINE
5
A4
8
S5_346_516_LOCAL
62
140
66
140
70
8
1001
MAPTEK_VULCAN
1000
VulcanName=164
1000
VulcanGroup=
1000
VulcanValue=0
1000
VulcanDescription=Imported from Excel - ADB
1000
VulcanPrimitive=
1000
VulcanLine=0
1000
VulcanPattern=0
1000
VulcanFeature=
0
VERTEX
5
A5
8
S5_346_516_LOCAL
62
140
10
478773.477
20
6772583.068
30
357.703
70
32
0
VERTEX
5
A6
8
S5_346_516_LOCAL
62
140
10
478773.477
20
6772583.068
30
346.003
70
32
0
VERTEX
5
A7
8
S5_346_516_LOCAL
62
140
10
478773.477
20
6772583.068
30
344.503
70
32
0
SEQEND
8
S5_346_516_LOCAL
0
POLYLINE
5
A5
8
S5_346_516_LOCAL
62
140
66
140
70
8
1001
MAPTEK_VULCAN
1000
VulcanName=165
1000
VulcanGroup=
1000
VulcanValue=0
1000
VulcanDescription=Imported from Excel - ADB
1000
VulcanPrimitive=
1000
VulcanLine=0
1000
VulcanPattern=0
1000
VulcanFeature=
0
VERTEX
5
A6
8
S5_346_516_LOCAL
62
140
10
478769.743
20
6772587.133
30
357.755
70
32
0
VERTEX
5
A7
8
S5_346_516_LOCAL
62
140
10
478769.743
20
6772587.133
30
345.955
70
32
0
VERTEX
5
A8
8
S5_346_516_LOCAL
62
140
10
478769.743
20
6772587.133
30
344.455
70
32
0
SEQEND
8
S5_346_516_LOCAL
0
POLYLINE
5
A6
8
S5_346_516_LOCAL
62
140
66
140
70
8
1001
MAPTEK_VULCAN
1000
VulcanName=166
1000
VulcanGroup=
1000
VulcanValue=0
1000
VulcanDescription=Imported from Excel - ADB
1000
VulcanPrimitive=
1000
VulcanLine=0
1000
VulcanPattern=0
1000
VulcanFeature=
0
VERTEX
5
A7
8
S5_346_516_LOCAL
62
140
10
478765.986
20
6772590.887
30
357.828
70
32
0
VERTEX
5
A8
8
S5_346_516_LOCAL
62
140
10
478765.986
20
6772590.887
30
346.028
70
32
0
VERTEX
5
A9
8
S5_346_516_LOCAL
62
140
10
478765.986
20
6772590.887
30
344.528
70
32
0
SEQEND
8
S5_346_516_LOCAL
0
POLYLINE
5
A7
8
S5_346_516_LOCAL
62
140
66
140
70
8
1001
MAPTEK_VULCAN
1000
VulcanName=167
1000
VulcanGroup=
1000
VulcanValue=0
1000
VulcanDescription=Imported from Excel - ADB
1000
VulcanPrimitive=
1000
VulcanLine=0
1000
VulcanPattern=0
1000
VulcanFeature=
0
VERTEX
5
A8
8
S5_346_516_LOCAL
62
140
10
478762.273
20
6772594.768
30
357.869
70
32
0
VERTEX
5
A9
8
S5_346_516_LOCAL
62
140
10
478762.273
20
6772594.768
30
345.969
70
32
0
VERTEX
5
AA
8
S5_346_516_LOCAL
62
140
10
478762.273
20
6772594.768
30
344.469
70
32
0
SEQEND
8
S5_346_516_LOCAL
0
POLYLINE
5
A8
8
S5_346_516_LOCAL
62
140
66
140
70
8
1001
MAPTEK_VULCAN
1000
VulcanName=168
1000
VulcanGroup=
1000
VulcanValue=0
1000
VulcanDescription=Imported from Excel - ADB
1000
VulcanPrimitive=
1000
VulcanLine=0
1000
VulcanPattern=0
1000
VulcanFeature=
0
VERTEX
5
A9
8
S5_346_516_LOCAL
62
140
10
478758.538
20
6772598.669
30
357.962
70
32
0
VERTEX
5
AA
8
S5_346_516_LOCAL
62
140
10
478758.538
20
6772598.669
30
345.962
70
32
0
VERTEX
5
AB
8
S5_346_516_LOCAL
62
140
10
478758.538
20
6772598.669
30
344.462
70
32
0
SEQEND
8
S5_346_516_LOCAL
0
POLYLINE
5
A9
8
S5_346_516_LOCAL
62
140
66
140
70
8
1001
MAPTEK_VULCAN
1000
VulcanName=169
1000
VulcanGroup=
1000
VulcanValue=0
1000
VulcanDescription=Imported from Excel - ADB
1000
VulcanPrimitive=
1000
VulcanLine=0
1000
VulcanPattern=0
1000
VulcanFeature=
0
VERTEX
5
AA
8
S5_346_516_LOCAL
62
140
10
478758.300
20
6772601.632
30
358.011
70
32
0
VERTEX
5
AB
8
S5_346_516_LOCAL
62
140
10
478755.175
20
6772602.469
30
345.937
70
32
0
VERTEX
5
AC
8
S5_346_516_LOCAL
62
140
10
478754.800
20
6772602.570
30
344.488
70
32
0
SEQEND
8
S5_346_516_LOCAL
0
POLYLINE
5
AA
8
S5_346_516_LOCAL
62
140
66
140
70
8
1001
MAPTEK_VULCAN
1000
VulcanName=170
1000
VulcanGroup=
1000
VulcanValue=0
1000
VulcanDescription=Imported from Excel - ADB
1000
VulcanPrimitive=
1000
VulcanLine=0
1000
VulcanPattern=0
1000
VulcanFeature=
0
VERTEX
5
AB
8
S5_346_516_LOCAL
62
140
10
478756.758
20
6772596.435
30
357.952
70
32
0
VERTEX
5
AC
8
S5_346_516_LOCAL
62
140
10
478753.658
20
6772597.266
30
345.975
70
32
0
VERTEX
5
AD
8
S5_346_516_LOCAL
62
140
10
478753.283
20
6772597.366
30
344.526
70
32
0
SEQEND
8
S5_346_516_LOCAL
0
POLYLINE
5
AB
8
S5_346_516_LOCAL
62
140
66
140
70
8
1001
MAPTEK_VULCAN
1000
VulcanName=171
1000
VulcanGroup=
1000
VulcanValue=0
1000
VulcanDescription=Imported from Excel - ADB
1000
VulcanPrimitive=
1000
VulcanLine=0
1000
VulcanPattern=0
1000
VulcanFeature=
0
VERTEX
5
AC
8
S5_346_516_LOCAL
62
140
10
478756.945
20
6772593.449
30
357.921
70
32
0
VERTEX
5
AD
8
S5_346_516_LOCAL
62
140
10
478756.945
20
6772593.449
30
346.021
70
32
0
VERTEX
5
AE
8
S5_346_516_LOCAL
62
140
10
478756.945
20
6772593.449
30
344.521
70
32
0
SEQEND
8
S5_346_516_LOCAL
0
POLYLINE
5
AC
8
S5_346_516_LOCAL
62
140
66
140
70
8
1001
MAPTEK_VULCAN
1000
VulcanName=172
1000
VulcanGroup=
1000
VulcanValue=0
1000
VulcanDescription=Imported from Excel - ADB
1000
VulcanPrimitive=
1000
VulcanLine=0
1000
VulcanPattern=0
1000
VulcanFeature=
0
VERTEX
5
AD
8
S5_346_516_LOCAL
62
140
10
478760.456
20
6772589.410
30
357.868
70
32
0
VERTEX
5
AE
8
S5_346_516_LOCAL
62
140
10
478760.456
20
6772589.410
30
345.968
70
32
0
VERTEX
5
AF
8
S5_346_516_LOCAL
62
140
10
478760.456
20
6772589.410
30
344.468
70
32
0
SEQEND
8
S5_346_516_LOCAL
0
POLYLINE
5
AD
8
S5_346_516_LOCAL
62
140
66
140
70
8
1001
MAPTEK_VULCAN
1000
VulcanName=173
1000
VulcanGroup=
1000
VulcanValue=0
1000
VulcanDescription=Imported from Excel - ADB
1000
VulcanPrimitive=
1000
VulcanLine=0
1000
VulcanPattern=0
1000
VulcanFeature=
0
VERTEX
5
AE
8
S5_346_516_LOCAL
62
140
10
478763.851
20
6772586.155
30
357.840
70
32
0
VERTEX
5
AF
8
S5_346_516_LOCAL
62
140
10
478763.851
20
6772586.155
30
346.040
70
32
0
VERTEX
5
B0
8
S5_346_516_LOCAL
62
140
10
478763.851
20
6772586.155
30
344.540
70
32
0
SEQEND
8
S5_346_516_LOCAL
0
POLYLINE
5
AE
8
S5_346_516_LOCAL
62
140
66
140
70
8
1001
MAPTEK_VULCAN
1000
VulcanName=174
1000
VulcanGroup=
1000
VulcanValue=0
1000
VulcanDescription=Imported from Excel - ADB
1000
VulcanPrimitive=
1000
VulcanLine=0
1000
VulcanPattern=0
1000
VulcanFeature=
0
VERTEX
5
AF
8
S5_346_516_LOCAL
62
140
10
478768.676
20
6772581.834
30
357.741
70
32
0
VERTEX
5
B0
8
S5_346_516_LOCAL
62
140
10
478768.676
20
6772581.834
30
346.041
70
32
0
VERTEX
5
B1
8
S5_346_516_LOCAL
62
140
10
478768.676
20
6772581.834
30
344.541
70
32
0
SEQEND
8
S5_346_516_LOCAL
0
POLYLINE
5
AF
8
S5_346_516_LOCAL
62
140
66
140
70
8
1001
MAPTEK_VULCAN
1000
VulcanName=175
1000
VulcanGroup=
1000
VulcanValue=0
1000
VulcanDescription=Imported from Excel - ADB
1000
VulcanPrimitive=
1000
VulcanLine=0
1000
VulcanPattern=0
1000
VulcanFeature=
0
VERTEX
5
B0
8
S5_346_516_LOCAL
62
140
10
478772.124
20
6772577.913
30
357.664
70
32
0
VERTEX
5
B1
8
S5_346_516_LOCAL
62
140
10
478772.124
20
6772577.913
30
345.964
70
32
0
VERTEX
5
B2
8
S5_346_516_LOCAL
62
140
10
478772.124
20
6772577.913
30
344.464
70
32
0
SEQEND
8
S5_346_516_LOCAL
0
POLYLINE
5
B0
8
S5_346_516_LOCAL
62
140
66
140
70
8
1001
MAPTEK_VULCAN
1000
VulcanName=176
1000
VulcanGroup=
1000
VulcanValue=0
1000
VulcanDescription=Imported from Excel - ADB
1000
VulcanPrimitive=
1000
VulcanLine=0
1000
VulcanPattern=0
1000
VulcanFeature=
0
VERTEX
5
B1
8
S5_346_516_LOCAL
62
140
10
478775.192
20
6772574.528
30
357.694
70
32
0
VERTEX
5
B2
8
S5_346_516_LOCAL
62
140
10
478775.192
20
6772574.528
30
345.994
70
32
0
VERTEX
5
B3
8
S5_346_516_LOCAL
62
140
10
478775.192
20
6772574.528
30
344.494
70
32
0
SEQEND
8
S5_346_516_LOCAL
0
POLYLINE
5
B1
8
S5_346_516_LOCAL
62
140
66
140
70
8
1001
MAPTEK_VULCAN
1000
VulcanName=177
1000
VulcanGroup=
1000
VulcanValue=0
1000
VulcanDescription=Imported from Excel - ADB
1000
VulcanPrimitive=
1000
VulcanLine=0
1000
VulcanPattern=0
1000
VulcanFeature=
0
VERTEX
5
B2
8
S5_346_516_LOCAL
62
140
10
478778.296
20
6772571.228
30
357.711
70
32
0
VERTEX
5
B3
8
S5_346_516_LOCAL
62
140
10
478778.296
20
6772571.228
30
346.011
70
32
0
VERTEX
5
B4
8
S5_346_516_LOCAL
62
140
10
478778.296
20
6772571.228
30
344.511
70
32
0
SEQEND
8
S5_346_516_LOCAL
0
POLYLINE
5
B2
8
S5_346_516_LOCAL
62
140
66
140
70
8
1001
MAPTEK_VULCAN
1000
VulcanName=178
1000
VulcanGroup=
1000
VulcanValue=0
1000
VulcanDescription=Imported from Excel - ADB
1000
VulcanPrimitive=
1000
VulcanLine=0
1000
VulcanPattern=0
1000
VulcanFeature=
0
VERTEX
5
B3
8
S5_346_516_LOCAL
62
140
10
478781.292
20
6772567.740
30
357.726
70
32
0
VERTEX
5
B4
8
S5_346_516_LOCAL
62
140
10
478781.292
20
6772567.740
30
346.026
70
32
0
VERTEX
5
B5
8
S5_346_516_LOCAL
62
140
10
478781.292
20
6772567.740
30
344.526
70
32
0
SEQEND
8
S5_346_516_LOCAL
0
POLYLINE
5
B3
8
S5_346_516_LOCAL
62
140
66
140
70
8
1001
MAPTEK_VULCAN
1000
VulcanName=179
1000
VulcanGroup=
1000
VulcanValue=0
1000
VulcanDescription=Imported from Excel - ADB
1000
VulcanPrimitive=
1000
VulcanLine=0
1000
VulcanPattern=0
1000
VulcanFeature=
0
VERTEX
5
B4
8
S5_346_516_LOCAL
62
140
10
478784.242
20
6772564.241
30
357.838
70
32
0
VERTEX
5
B5
8
S5_346_516_LOCAL
62
140
10
478784.242
20
6772564.241
30
346.038
70
32
0
VERTEX
5
B6
8
S5_346_516_LOCAL
62
140
10
478784.242
20
6772564.241
30
344.538
70
32
0
SEQEND
8
S5_346_516_LOCAL
0
POLYLINE
5
B4
8
S5_346_516_LOCAL
62
140
66
140
70
8
1001
MAPTEK_VULCAN
1000
VulcanName=180
1000
VulcanGroup=
1000
VulcanValue=0
1000
VulcanDescription=Imported from Excel - ADB
1000
VulcanPrimitive=
1000
VulcanLine=0
1000
VulcanPattern=0
1000
VulcanFeature=
0
VERTEX
5
B5
8
S5_346_516_LOCAL
62
140
10
478787.576
20
6772559.993
30
357.924
70
32
0
VERTEX
5
B6
8
S5_346_516_LOCAL
62
140
10
478787.576
20
6772559.993
30
346.024
70
32
0
VERTEX
5
B7
8
S5_346_516_LOCAL
62
140
10
478787.576
20
6772559.993
30
344.524
70
32
0
SEQEND
8
S5_346_516_LOCAL
0
POLYLINE
5
B5
8
S5_346_516_LOCAL
62
140
66
140
70
8
1001
MAPTEK_VULCAN
1000
VulcanName=181
1000
VulcanGroup=
1000
VulcanValue=0
1000
VulcanDescription=Imported from Excel - ADB
1000
VulcanPrimitive=
1000
VulcanLine=0
1000
VulcanPattern=0
1000
VulcanFeature=
0
VERTEX
5
B6
8
S5_346_516_LOCAL
62
140
10
478790.910
20
6772555.746
30
357.973
70
32
0
VERTEX
5
B7
8
S5_346_516_LOCAL
62
140
10
478790.910
20
6772555.746
30
345.973
70
32
0
VERTEX
5
B8
8
S5_346_516_LOCAL
62
140
10
478790.910
20
6772555.746
30
344.473
70
32
0
SEQEND
8
S5_346_516_LOCAL
0
POLYLINE
5
B6
8
S5_346_516_LOCAL
62
140
66
140
70
8
1001
MAPTEK_VULCAN
1000
VulcanName=182
1000
VulcanGroup=
1000
VulcanValue=0
1000
VulcanDescription=Imported from Excel - ADB
1000
VulcanPrimitive=
1000
VulcanLine=0
1000
VulcanPattern=0
1000
VulcanFeature=
0
VERTEX
5
B7
8
S5_346_516_LOCAL
62
140
10
478794.245
20
6772551.498
30
358.033
70
32
0
VERTEX
5
B8
8
S5_346_516_LOCAL
62
140
10
478794.245
20
6772551.498
30
346.033
70
32
0
VERTEX
5
B9
8
S5_346_516_LOCAL
62
140
10
478794.245
20
6772551.498
30
344.533
70
32
0
SEQEND
8
S5_346_516_LOCAL
0
POLYLINE
5
B7
8
S5_346_516_LOCAL
62
140
66
140
70
8
1001
MAPTEK_VULCAN
1000
VulcanName=183
1000
VulcanGroup=
1000
VulcanValue=0
1000
VulcanDescription=Imported from Excel - ADB
1000
VulcanPrimitive=
1000
VulcanLine=0
1000
VulcanPattern=0
1000
VulcanFeature=
0
VERTEX
5
B8
8
S5_346_516_LOCAL
62
140
10
478797.579
20
6772547.250
30
357.969
70
32
0
VERTEX
5
B9
8
S5_346_516_LOCAL
62
140
10
478797.579
20
6772547.250
30
345.969
70
32
0
VERTEX
5
BA
8
S5_346_516_LOCAL
62
140
10
478797.579
20
6772547.250
30
344.469
70
32
0
SEQEND
8
S5_346_516_LOCAL
0
POLYLINE
5
B8
8
S5_346_516_LOCAL
62
140
66
140
70
8
1001
MAPTEK_VULCAN
1000
VulcanName=184
1000
VulcanGroup=
1000
VulcanValue=0
1000
VulcanDescription=Imported from Excel - ADB
1000
VulcanPrimitive=
1000
VulcanLine=0
1000
VulcanPattern=0
1000
VulcanFeature=
0
VERTEX
5
B9
8
S5_346_516_LOCAL
62
140
10
478800.913
20
6772543.003
30
357.914
70
32
0
VERTEX
5
BA
8
S5_346_516_LOCAL
62
140
10
478800.913
20
6772543.003
30
346.014
70
32
0
VERTEX
5
BB
8
S5_346_516_LOCAL
62
140
10
478800.913
20
6772543.003
30
344.514
70
32
0
SEQEND
8
S5_346_516_LOCAL
0
POLYLINE
5
B9
8
S5_346_516_LOCAL
62
140
66
140
70
8
1001
MAPTEK_VULCAN
1000
VulcanName=185
1000
VulcanGroup=
1000
VulcanValue=0
1000
VulcanDescription=Imported from Excel - ADB
1000
VulcanPrimitive=
1000
VulcanLine=0
1000
VulcanPattern=0
1000
VulcanFeature=
0
VERTEX
5
BA
8
S5_346_516_LOCAL
62
140
10
478804.391
20
6772544.092
30
357.869
70
32
0
VERTEX
5
BB
8
S5_346_516_LOCAL
62
140
10
478804.391
20
6772544.092
30
345.969
70
32
0
VERTEX
5
BC
8
S5_346_516_LOCAL
62
140
10
478804.391
20
6772544.092
30
344.469
70
32
0
SEQEND
8
S5_346_516_LOCAL
0
POLYLINE
5
BA
8
S5_346_516_LOCAL
62
140
66
140
70
8
1001
MAPTEK_VULCAN
1000
VulcanName=186
1000
VulcanGroup=
1000
VulcanValue=0
1000
VulcanDescription=Imported from Excel - ADB
1000
VulcanPrimitive=
1000
VulcanLine=0
1000
VulcanPattern=0
1000
VulcanFeature=
0
VERTEX
5
BB
8
S5_346_516_LOCAL
62
140
10
478802.386
20
6772539.515
30
357.818
70
32
0
VERTEX
5
BC
8
S5_346_516_LOCAL
62
140
10
478802.386
20
6772539.515
30
346.018
70
32
0
VERTEX
5
BD
8
S5_346_516_LOCAL
62
140
10
478802.386
20
6772539.515
30
344.518
70
32
0
SEQEND
8
S5_346_516_LOCAL
0
POLYLINE
5
BB
8
S5_346_516_LOCAL
62
140
66
140
70
8
1001
MAPTEK_VULCAN
1000
VulcanName=187
1000
VulcanGroup=
1000
VulcanValue=0
1000
VulcanDescription=Imported from Excel - ADB
1000
VulcanPrimitive=
1000
VulcanLine=0
1000
VulcanPattern=0
1000
VulcanFeature=
0
VERTEX
5
BC
8
S5_346_516_LOCAL
62
140
10
478798.674
20
6772538.082
30
358.000
70
32
0
VERTEX
5
BD
8
S5_346_516_LOCAL
62
140
10
478798.674
20
6772538.082
30
346.000
70
32
0
VERTEX
5
BE
8
S5_346_516_LOCAL
62
140
10
478798.674
20
6772538.082
30
344.500
70
32
0
SEQEND
8
S5_346_516_LOCAL
0
POLYLINE
5
BC
8
S5_346_516_LOCAL
62
140
66
140
70
8
1001
MAPTEK_VULCAN
1000
VulcanName=188
1000
VulcanGroup=
1000
VulcanValue=0
1000
VulcanDescription=Imported from Excel - ADB
1000
VulcanPrimitive=
1000
VulcanLine=0
1000
VulcanPattern=0
1000
VulcanFeature=
0
VERTEX
5
BD
8
S5_346_516_LOCAL
62
140
10
478795.549
20
6772542.225
30
357.945
70
32
0
VERTEX
5
BE
8
S5_346_516_LOCAL
62
140
10
478795.549
20
6772542.225
30
346.045
70
32
0
VERTEX
5
BF
8
S5_346_516_LOCAL
62
140
10
478795.549
20
6772542.225
30
344.545
70
32
0
SEQEND
8
S5_346_516_LOCAL
0
POLYLINE
5
BD
8
S5_346_516_LOCAL
62
140
66
140
70
8
1001
MAPTEK_VULCAN
1000
VulcanName=189
1000
VulcanGroup=
1000
VulcanValue=0
1000
VulcanDescription=Imported from Excel - ADB
1000
VulcanPrimitive=
1000
VulcanLine=0
1000
VulcanPattern=0
1000
VulcanFeature=
0
VERTEX
5
BE
8
S5_346_516_LOCAL
62
140
10
478792.215
20
6772546.472
30
358.010
70
32
0
VERTEX
5
BF
8
S5_346_516_LOCAL
62
140
10
478792.215
20
6772546.472
30
346.010
70
32
0
VERTEX
5
C0
8
S5_346_516_LOCAL
62
140
10
478792.215
20
6772546.472
30
344.510
70
32
0
SEQEND
8
S5_346_516_LOCAL
0
POLYLINE
5
BE
8
S5_346_516_LOCAL
62
140
66
140
70
8
1001
MAPTEK_VULCAN
1000
VulcanName=190
1000
VulcanGroup=
1000
VulcanValue=0
1000
VulcanDescription=Imported from Excel - ADB
1000
VulcanPrimitive=
1000
VulcanLine=0
1000
VulcanPattern=0
1000
VulcanFeature=
0
VERTEX
5
BF
8
S5_346_516_LOCAL
62
140
10
478788.881
20
6772550.720
30
358.001
70
32
0
VERTEX
5
C0
8
S5_346_516_LOCAL
62
140
10
478788.881
20
6772550.720
30
346.001
70
32
0
VERTEX
5
C1
8
S5_346_516_LOCAL
62
140
10
478788.881
20
6772550.720
30
344.501
70
32
0
SEQEND
8
S5_346_516_LOCAL
0
POLYLINE
5
BF
8
S5_346_516_LOCAL
62
140
66
140
70
8
1001
MAPTEK_VULCAN
1000
VulcanName=191
1000
VulcanGroup=
1000
VulcanValue=0
1000
VulcanDescription=Imported from Excel - ADB
1000
VulcanPrimitive=
1000
VulcanLine=0
1000
VulcanPattern=0
1000
VulcanFeature=
0
VERTEX
5
C0
8
S5_346_516_LOCAL
62
140
10
478785.546
20
6772554.967
30
357.980
70
32
0
VERTEX
5
C1
8
S5_346_516_LOCAL
62
140
10
478785.546
20
6772554.967
30
345.980
70
32
0
VERTEX
5
C2
8
S5_346_516_LOCAL
62
140
10
478785.546
20
6772554.967
30
344.480
70
32
0
SEQEND
8
S5_346_516_LOCAL
0
POLYLINE
5
C0
8
S5_346_516_LOCAL
62
140
66
140
70
8
1001
MAPTEK_VULCAN
1000
VulcanName=192
1000
VulcanGroup=
1000
VulcanValue=0
1000
VulcanDescription=Imported from Excel - ADB
1000
VulcanPrimitive=
1000
VulcanLine=0
1000
VulcanPattern=0
1000
VulcanFeature=
0
VERTEX
5
C1
8
S5_346_516_LOCAL
62
140
10
478782.548
20
6772558.684
30
357.872
70
32
0
VERTEX
5
C2
8
S5_346_516_LOCAL
62
140
10
478782.548
20
6772558.684
30
345.972
70
32
0
VERTEX
5
C3
8
S5_346_516_LOCAL
62
140
10
478782.548
20
6772558.684
30
344.472
70
32
0
SEQEND
8
S5_346_516_LOCAL
0
POLYLINE
5
C1
8
S5_346_516_LOCAL
62
140
66
140
70
8
1001
MAPTEK_VULCAN
1000
VulcanName=193
1000
VulcanGroup=
1000
VulcanValue=0
1000
VulcanDescription=Imported from Excel - ADB
1000
VulcanPrimitive=
1000
VulcanLine=0
1000
VulcanPattern=0
1000
VulcanFeature=
0
VERTEX
5
C2
8
S5_346_516_LOCAL
62
140
10
478779.541
20
6772562.362
30
357.752
70
32
0
VERTEX
5
C3
8
S5_346_516_LOCAL
62
140
10
478779.541
20
6772562.362
30
345.952
70
32
0
VERTEX
5
C4
8
S5_346_516_LOCAL
62
140
10
478779.541
20
6772562.362
30
344.452
70
32
0
SEQEND
8
S5_346_516_LOCAL
0
POLYLINE
5
C2
8
S5_346_516_LOCAL
62
140
66
140
70
8
1001
MAPTEK_VULCAN
1000
VulcanName=194
1000
VulcanGroup=
1000
VulcanValue=0
1000
VulcanDescription=Imported from Excel - ADB
1000
VulcanPrimitive=
1000
VulcanLine=0
1000
VulcanPattern=0
1000
VulcanFeature=
0
VERTEX
5
C3
8
S5_346_516_LOCAL
62
140
10
478776.517
20
6772566.114
30
357.710
70
32
0
VERTEX
5
C4
8
S5_346_516_LOCAL
62
140
10
478776.517
20
6772566.114
30
346.010
70
32
0
VERTEX
5
C5
8
S5_346_516_LOCAL
62
140
10
478776.517
20
6772566.114
30
344.510
70
32
0
SEQEND
8
S5_346_516_LOCAL
0
POLYLINE
5
C3
8
S5_346_516_LOCAL
62
140
66
140
70
8
1001
MAPTEK_VULCAN
1000
VulcanName=195
1000
VulcanGroup=
1000
VulcanValue=0
1000
VulcanDescription=Imported from Excel - ADB
1000
VulcanPrimitive=
1000
VulcanLine=0
1000
VulcanPattern=0
1000
VulcanFeature=
0
VERTEX
5
C4
8
S5_346_516_LOCAL
62
140
10
478773.264
20
6772569.585
30
357.647
70
32
0
VERTEX
5
C5
8
S5_346_516_LOCAL
62
140
10
478773.264
20
6772569.585
30
346.047
70
32
0
VERTEX
5
C6
8
S5_346_516_LOCAL
62
140
10
478773.264
20
6772569.585
30
344.547
70
32
0
SEQEND
8
S5_346_516_LOCAL
0
POLYLINE
5
C4
8
S5_346_516_LOCAL
62
140
66
140
70
8
1001
MAPTEK_VULCAN
1000
VulcanName=196
1000
VulcanGroup=
1000
VulcanValue=0
1000
VulcanDescription=Imported from Excel - ADB
1000
VulcanPrimitive=
1000
VulcanLine=0
1000
VulcanPattern=0
1000
VulcanFeature=
0
VERTEX
5
C5
8
S5_346_516_LOCAL
62
140
10
478770.170
20
6772573.171
30
357.666
70
32
0
VERTEX
5
C6
8
S5_346_516_LOCAL
62
140
10
478770.170
20
6772573.171
30
345.966
70
32
0
VERTEX
5
C7
8
S5_346_516_LOCAL
62
140
10
478770.170
20
6772573.171
30
344.466
70
32
0
SEQEND
8
S5_346_516_LOCAL
0
POLYLINE
5
C5
8
S5_346_516_LOCAL
62
140
66
140
70
8
1001
MAPTEK_VULCAN
1000
VulcanName=197
1000
VulcanGroup=
1000
VulcanValue=0
1000
VulcanDescription=Imported from Excel - ADB
1000
VulcanPrimitive=
1000
VulcanLine=0
1000
VulcanPattern=0
1000
VulcanFeature=
0
VERTEX
5
C6
8
S5_346_516_LOCAL
62
140
10
478767.125
20
6772576.496
30
357.672
70
32
0
VERTEX
5
C7
8
S5_346_516_LOCAL
62
140
10
478767.125
20
6772576.496
30
345.972
70
32
0
VERTEX
5
C8
8
S5_346_516_LOCAL
62
140
10
478767.125
20
6772576.496
30
344.472
70
32
0
SEQEND
8
S5_346_516_LOCAL
0
POLYLINE
5
C6
8
S5_346_516_LOCAL
62
140
66
140
70
8
1001
MAPTEK_VULCAN
1000
VulcanName=198
1000
VulcanGroup=
1000
VulcanValue=0
1000
VulcanDescription=Imported from Excel - ADB
1000
VulcanPrimitive=
1000
VulcanLine=0
1000
VulcanPattern=0
1000
VulcanFeature=
0
VERTEX
5
C7
8
S5_346_516_LOCAL
62
140
10
478762.831
20
6772579.732
30
357.756
70
32
0
VERTEX
5
C8
8
S5_346_516_LOCAL
62
140
10
478762.831
20
6772579.732
30
345.956
70
32
0
VERTEX
5
C9
8
S5_346_516_LOCAL
62
140
10
478762.831
20
6772579.732
30
344.456
70
32
0
SEQEND
8
S5_346_516_LOCAL
0
POLYLINE
5
C7
8
S5_346_516_LOCAL
62
140
66
140
70
8
1001
MAPTEK_VULCAN
1000
VulcanName=199
1000
VulcanGroup=
1000
VulcanValue=0
1000
VulcanDescription=Imported from Excel - ADB
1000
VulcanPrimitive=
1000
VulcanLine=0
1000
VulcanPattern=0
1000
VulcanFeature=
0
VERTEX
5
C8
8
S5_346_516_LOCAL
62
140
10
478759.216
20
6772584.364
30
357.890
70
32
0
VERTEX
5
C9
8
S5_346_516_LOCAL
62
140
10
478759.216
20
6772584.364
30
345.990
70
32
0
VERTEX
5
CA
8
S5_346_516_LOCAL
62
140
10
478759.216
20
6772584.364
30
344.490
70
32
0
SEQEND
8
S5_346_516_LOCAL
0
POLYLINE
5
C8
8
S5_346_516_LOCAL
62
140
66
140
70
8
1001
MAPTEK_VULCAN
1000
VulcanName=200
1000
VulcanGroup=
1000
VulcanValue=0
1000
VulcanDescription=Imported from Excel - ADB
1000
VulcanPrimitive=
1000
VulcanLine=0
1000
VulcanPattern=0
1000
VulcanFeature=
0
VERTEX
5
C9
8
S5_346_516_LOCAL
62
140
10
478755.483
20
6772588.267
30
357.935
70
32
0
VERTEX
5
CA
8
S5_346_516_LOCAL
62
140
10
478755.483
20
6772588.267
30
346.035
70
32
0
VERTEX
5
CB
8
S5_346_516_LOCAL
62
140
10
478755.483
20
6772588.267
30
344.535
70
32
0
SEQEND
8
S5_346_516_LOCAL
0
POLYLINE
5
C9
8
S5_346_516_LOCAL
62
140
66
140
70
8
1001
MAPTEK_VULCAN
1000
VulcanName=201
1000
VulcanGroup=
1000
VulcanValue=0
1000
VulcanDescription=Imported from Excel - ADB
1000
VulcanPrimitive=
1000
VulcanLine=0
1000
VulcanPattern=0
1000
VulcanFeature=
0
VERTEX
5
CA
8
S5_346_516_LOCAL
62
140
10
478755.226
20
6772591.236
30
357.934
70
32
0
VERTEX
5
CB
8
S5_346_516_LOCAL
62
140
10
478752.126
20
6772592.067
30
345.957
70
32
0
VERTEX
5
CC
8
S5_346_516_LOCAL
62
140
10
478751.751
20
6772592.167
30
344.508
70
32
0
SEQEND
8
S5_346_516_LOCAL
0
POLYLINE
5
CA
8
S5_346_516_LOCAL
62
140
66
140
70
8
1001
MAPTEK_VULCAN
1000
VulcanName=202
1000
VulcanGroup=
1000
VulcanValue=0
1000
VulcanDescription=Imported from Excel - ADB
1000
VulcanPrimitive=
1000
VulcanLine=0
1000
VulcanPattern=0
1000
VulcanFeature=
0
VERTEX
5
CB
8
S5_346_516_LOCAL
62
140
10
478753.705
20
6772586.033
30
357.960
70
32
0
VERTEX
5
CC
8
S5_346_516_LOCAL
62
140
10
478750.605
20
6772586.864
30
345.983
70
32
0
VERTEX
5
CD
8
S5_346_516_LOCAL
62
140
10
478750.230
20
6772586.964
30
344.534
70
32
0
SEQEND
8
S5_346_516_LOCAL
0
POLYLINE
5
CB
8
S5_346_516_LOCAL
62
140
66
140
70
8
1001
MAPTEK_VULCAN
1000
VulcanName=203
1000
VulcanGroup=
1000
VulcanValue=0
1000
VulcanDescription=Imported from Excel - ADB
1000
VulcanPrimitive=
1000
VulcanLine=0
1000
VulcanPattern=0
1000
VulcanFeature=
0
VERTEX
5
CC
8
S5_346_516_LOCAL
62
140
10
478753.924
20
6772582.963
30
357.918
70
32
0
VERTEX
5
CD
8
S5_346_516_LOCAL
62
140
10
478753.924
20
6772582.963
30
346.018
70
32
0
VERTEX
5
CE
8
S5_346_516_LOCAL
62
140
10
478753.924
20
6772582.963
30
344.518
70
32
0
SEQEND
8
S5_346_516_LOCAL
0
POLYLINE
5
CC
8
S5_346_516_LOCAL
62
140
66
140
70
8
1001
MAPTEK_VULCAN
1000
VulcanName=204
1000
VulcanGroup=
1000
VulcanValue=0
1000
VulcanDescription=Imported from Excel - ADB
1000
VulcanPrimitive=
1000
VulcanLine=0
1000
VulcanPattern=0
1000
VulcanFeature=
0
VERTEX
5
CD
8
S5_346_516_LOCAL
62
140
10
478757.736
20
6772578.934
30
357.799
70
32
0
VERTEX
5
CE
8
S5_346_516_LOCAL
62
140
10
478757.736
20
6772578.934
30
345.999
70
32
0
VERTEX
5
CF
8
S5_346_516_LOCAL
62
140
10
478757.736
20
6772578.934
30
344.499
70
32
0
SEQEND
8
S5_346_516_LOCAL
0
POLYLINE
5
CD
8
S5_346_516_LOCAL
62
140
66
140
70
8
1001
MAPTEK_VULCAN
1000
VulcanName=205
1000
VulcanGroup=
1000
VulcanValue=0
1000
VulcanDescription=Imported from Excel - ADB
1000
VulcanPrimitive=
1000
VulcanLine=0
1000
VulcanPattern=0
1000
VulcanFeature=
0
VERTEX
5
CE
8
S5_346_516_LOCAL
62
140
10
478761.519
20
6772575.159
30
357.676
70
32
0
VERTEX
5
CF
8
S5_346_516_LOCAL
62
140
10
478761.519
20
6772575.159
30
345.976
70
32
0
VERTEX
5
D0
8
S5_346_516_LOCAL
62
140
10
478761.519
20
6772575.159
30
344.476
70
32
0
SEQEND
8
S5_346_516_LOCAL
0
POLYLINE
5
CE
8
S5_346_516_LOCAL
62
140
66
140
70
8
1001
MAPTEK_VULCAN
1000
VulcanName=206
1000
VulcanGroup=
1000
VulcanValue=0
1000
VulcanDescription=Imported from Excel - ADB
1000
VulcanPrimitive=
1000
VulcanLine=0
1000
VulcanPattern=0
1000
VulcanFeature=
0
VERTEX
5
CF
8
S5_346_516_LOCAL
62
140
10
478765.161
20
6772571.366
30
357.671
70
32
0
VERTEX
5
D0
8
S5_346_516_LOCAL
62
140
10
478765.161
20
6772571.366
30
345.971
70
32
0
VERTEX
5
D1
8
S5_346_516_LOCAL
62
140
10
478765.161
20
6772571.366
30
344.471
70
32
0
SEQEND
8
S5_346_516_LOCAL
0
POLYLINE
5
CF
8
S5_346_516_LOCAL
62
140
66
140
70
8
1001
MAPTEK_VULCAN
1000
VulcanName=207
1000
VulcanGroup=
1000
VulcanValue=0
1000
VulcanDescription=Imported from Excel - ADB
1000
VulcanPrimitive=
1000
VulcanLine=0
1000
VulcanPattern=0
1000
VulcanFeature=
0
VERTEX
5
D0
8
S5_346_516_LOCAL
62
140
10
478768.895
20
6772567.466
30
357.736
70
32
0
VERTEX
5
D1
8
S5_346_516_LOCAL
62
140
10
478768.895
20
6772567.466
30
346.036
70
32
0
VERTEX
5
D2
8
S5_346_516_LOCAL
62
140
10
478768.895
20
6772567.466
30
344.536
70
32
0
SEQEND
8
S5_346_516_LOCAL
0
POLYLINE
5
D0
8
S5_346_516_LOCAL
62
140
66
140
70
8
1001
MAPTEK_VULCAN
1000
VulcanName=208
1000
VulcanGroup=
1000
VulcanValue=0
1000
VulcanDescription=Imported from Excel - ADB
1000
VulcanPrimitive=
1000
VulcanLine=0
1000
VulcanPattern=0
1000
VulcanFeature=
0
VERTEX
5
D1
8
S5_346_516_LOCAL
62
140
10
478772.630
20
6772563.565
30
357.758
70
32
0
VERTEX
5
D2
8
S5_346_516_LOCAL
62
140
10
478772.630
20
6772563.565
30
345.958
70
32
0
VERTEX
5
D3
8
S5_346_516_LOCAL
62
140
10
478772.630
20
6772563.565
30
344.458
70
32
0
SEQEND
8
S5_346_516_LOCAL
0
POLYLINE
5
D1
8
S5_346_516_LOCAL
62
140
66
140
70
8
1001
MAPTEK_VULCAN
1000
VulcanName=209
1000
VulcanGroup=
1000
VulcanValue=0
1000
VulcanDescription=Imported from Excel - ADB
1000
VulcanPrimitive=
1000
VulcanLine=0
1000
VulcanPattern=0
1000
VulcanFeature=
0
VERTEX
5
D2
8
S5_346_516_LOCAL
62
140
10
478776.848
20
6772558.437
30
357.826
70
32
0
VERTEX
5
D3
8
S5_346_516_LOCAL
62
140
10
478776.848
20
6772558.437
30
346.026
70
32
0
VERTEX
5
D4
8
S5_346_516_LOCAL
62
140
10
478776.848
20
6772558.437
30
344.526
70
32
0
SEQEND
8
S5_346_516_LOCAL
0
POLYLINE
5
D2
8
S5_346_516_LOCAL
62
140
66
140
70
8
1001
MAPTEK_VULCAN
1000
VulcanName=210
1000
VulcanGroup=
1000
VulcanValue=0
1000
VulcanDescription=Imported from Excel - ADB
1000
VulcanPrimitive=
1000
VulcanLine=0
1000
VulcanPattern=0
1000
VulcanFeature=
0
VERTEX
5
D3
8
S5_346_516_LOCAL
62
140
10
478780.182
20
6772554.189
30
358.000
70
32
0
VERTEX
5
D4
8
S5_346_516_LOCAL
62
140
10
478780.182
20
6772554.189
30
346.000
70
32
0
VERTEX
5
D5
8
S5_346_516_LOCAL
62
140
10
478780.182
20
6772554.189
30
344.500
70
32
0
SEQEND
8
S5_346_516_LOCAL
0
POLYLINE
5
D3
8
S5_346_516_LOCAL
62
140
66
140
70
8
1001
MAPTEK_VULCAN
1000
VulcanName=211
1000
VulcanGroup=
1000
VulcanValue=0
1000
VulcanDescription=Imported from Excel - ADB
1000
VulcanPrimitive=
1000
VulcanLine=0
1000
VulcanPattern=0
1000
VulcanFeature=
0
VERTEX
5
D4
8
S5_346_516_LOCAL
62
140
10
478783.516
20
6772549.941
30
358.000
70
32
0
VERTEX
5
D5
8
S5_346_516_LOCAL
62
140
10
478783.516
20
6772549.941
30
346.000
70
32
0
VERTEX
5
D6
8
S5_346_516_LOCAL
62
140
10
478783.516
20
6772549.941
30
344.500
70
32
0
SEQEND
8
S5_346_516_LOCAL
0
POLYLINE
5
D4
8
S5_346_516_LOCAL
62
140
66
140
70
8
1001
MAPTEK_VULCAN
1000
VulcanName=212
1000
VulcanGroup=
1000
VulcanValue=0
1000
VulcanDescription=Imported from Excel - ADB
1000
VulcanPrimitive=
1000
VulcanLine=0
1000
VulcanPattern=0
1000
VulcanFeature=
0
VERTEX
5
D5
8
S5_346_516_LOCAL
62
140
10
478786.851
20
6772545.694
30
358.000
70
32
0
VERTEX
5
D6
8
S5_346_516_LOCAL
62
140
10
478786.851
20
6772545.694
30
346.000
70
32
0
VERTEX
5
D7
8
S5_346_516_LOCAL
62
140
10
478786.851
20
6772545.694
30
344.500
70
32
0
SEQEND
8
S5_346_516_LOCAL
0
POLYLINE
5
D5
8
S5_346_516_LOCAL
62
140
66
140
70
8
1001
MAPTEK_VULCAN
1000
VulcanName=213
1000
VulcanGroup=
1000
VulcanValue=0
1000
VulcanDescription=Imported from Excel - ADB
1000
VulcanPrimitive=
1000
VulcanLine=0
1000
VulcanPattern=0
1000
VulcanFeature=
0
VERTEX
5
D6
8
S5_346_516_LOCAL
62
140
10
478790.185
20
6772541.446
30
358.000
70
32
0
VERTEX
5
D7
8
S5_346_516_LOCAL
62
140
10
478790.185
20
6772541.446
30
346.000
70
32
0
VERTEX
5
D8
8
S5_346_516_LOCAL
62
140
10
478790.185
20
6772541.446
30
344.500
70
32
0
SEQEND
8
S5_346_516_LOCAL
0
POLYLINE
5
D6
8
S5_346_516_LOCAL
62
140
66
140
70
8
1001
MAPTEK_VULCAN
1000
VulcanName=214
1000
VulcanGroup=
1000
VulcanValue=0
1000
VulcanDescription=Imported from Excel - ADB
1000
VulcanPrimitive=
1000
VulcanLine=0
1000
VulcanPattern=0
1000
VulcanFeature=
0
VERTEX
5
D7
8
S5_346_516_LOCAL
62
140
10
478793.519
20
6772537.199
30
358.000
70
32
0
VERTEX
5
D8
8
S5_346_516_LOCAL
62
140
10
478793.519
20
6772537.199
30
346.000
70
32
0
VERTEX
5
D9
8
S5_346_516_LOCAL
62
140
10
478793.519
20
6772537.199
30
344.500
70
32
0
SEQEND
8
S5_346_516_LOCAL
0
POLYLINE
5
D7
8
S5_346_516_LOCAL
62
140
66
140
70
8
1001
MAPTEK_VULCAN
1000
VulcanName=215
1000
VulcanGroup=
1000
VulcanValue=0
1000
VulcanDescription=Imported from Excel - ADB
1000
VulcanPrimitive=
1000
VulcanLine=0
1000
VulcanPattern=0
1000
VulcanFeature=
0
VERTEX
5
D8
8
S5_346_516_LOCAL
62
140
10
478796.632
20
6772533.108
30
358.000
70
32
0
VERTEX
5
D9
8
S5_346_516_LOCAL
62
140
10
478796.632
20
6772533.108
30
346.000
70
32
0
VERTEX
5
DA
8
S5_346_516_LOCAL
62
140
10
478796.632
20
6772533.108
30
344.500
70
32
0
SEQEND
8
S5_346_516_LOCAL
0
POLYLINE
5
D8
8
S5_346_516_LOCAL
62
140
66
140
70
8
1001
MAPTEK_VULCAN
1000
VulcanName=216
1000
VulcanGroup=
1000
VulcanValue=0
1000
VulcanDescription=Imported from Excel - ADB
1000
VulcanPrimitive=
1000
VulcanLine=0
1000
VulcanPattern=0
1000
VulcanFeature=
0
VERTEX
5
D9
8
S5_346_516_LOCAL
62
140
10
478801.067
20
6772534.136
30
357.859
70
32
0
VERTEX
5
DA
8
S5_346_516_LOCAL
62
140
10
478801.067
20
6772534.136
30
345.959
70
32
0
VERTEX
5
DB
8
S5_346_516_LOCAL
62
140
10
478801.067
20
6772534.136
30
344.459
70
32
0
SEQEND
8
S5_346_516_LOCAL
0
POLYLINE
5
D9
8
S5_346_516_LOCAL
62
140
66
140
70
8
1001
MAPTEK_VULCAN
1000
VulcanName=217
1000
VulcanGroup=
1000
VulcanValue=0
1000
VulcanDescription=Imported from Excel - ADB
1000
VulcanPrimitive=
1000
VulcanLine=0
1000
VulcanPattern=0
1000
VulcanFeature=
0
VERTEX
5
DA
8
S5_346_516_LOCAL
62
140
10
478798.720
20
6772529.208
30
357.872
70
32
0
VERTEX
5
DB
8
S5_346_516_LOCAL
62
140
10
478798.720
20
6772529.208
30
345.972
70
32
0
VERTEX
5
DC
8
S5_346_516_LOCAL
62
140
10
478798.720
20
6772529.208
30
344.472
70
32
0
SEQEND
8
S5_346_516_LOCAL
0
POLYLINE
5
DA
8
S5_346_516_LOCAL
62
140
66
140
70
8
1001
MAPTEK_VULCAN
1000
VulcanName=218
1000
VulcanGroup=
1000
VulcanValue=0
1000
VulcanDescription=Imported from Excel - ADB
1000
VulcanPrimitive=
1000
VulcanLine=0
1000
VulcanPattern=0
1000
VulcanFeature=
0
VERTEX
5
DB
8
S5_346_516_LOCAL
62
140
10
478794.544
20
6772528.088
30
357.983
70
32
0
VERTEX
5
DC
8
S5_346_516_LOCAL
62
140
10
478794.544
20
6772528.088
30
345.983
70
32
0
VERTEX
5
DD
8
S5_346_516_LOCAL
62
140
10
478794.544
20
6772528.088
30
344.483
70
32
0
SEQEND
8
S5_346_516_LOCAL
0
POLYLINE
5
DB
8
S5_346_516_LOCAL
62
140
66
140
70
8
1001
MAPTEK_VULCAN
1000
VulcanName=219
1000
VulcanGroup=
1000
VulcanValue=0
1000
VulcanDescription=Imported from Excel - ADB
1000
VulcanPrimitive=
1000
VulcanLine=0
1000
VulcanPattern=0
1000
VulcanFeature=
0
VERTEX
5
DC
8
S5_346_516_LOCAL
62
140
10
478791.489
20
6772532.173
30
358.000
70
32
0
VERTEX
5
DD
8
S5_346_516_LOCAL
62
140
10
478791.489
20
6772532.173
30
346.000
70
32
0
VERTEX
5
DE
8
S5_346_516_LOCAL
62
140
10
478791.489
20
6772532.173
30
344.500
70
32
0
SEQEND
8
S5_346_516_LOCAL
0
POLYLINE
5
DC
8
S5_346_516_LOCAL
62
140
66
140
70
8
1001
MAPTEK_VULCAN
1000
VulcanName=220
1000
VulcanGroup=
1000
VulcanValue=0
1000
VulcanDescription=Imported from Excel - ADB
1000
VulcanPrimitive=
1000
VulcanLine=0
1000
VulcanPattern=0
1000
VulcanFeature=
0
VERTEX
5
DD
8
S5_346_516_LOCAL
62
140
10
478788.155
20
6772536.420
30
358.000
70
32
0
VERTEX
5
DE
8
S5_346_516_LOCAL
62
140
10
478788.155
20
6772536.420
30
346.000
70
32
0
VERTEX
5
DF
8
S5_346_516_LOCAL
62
140
10
478788.155
20
6772536.420
30
344.500
70
32
0
SEQEND
8
S5_346_516_LOCAL
0
POLYLINE
5
DD
8
S5_346_516_LOCAL
62
140
66
140
70
8
1001
MAPTEK_VULCAN
1000
VulcanName=221
1000
VulcanGroup=
1000
VulcanValue=0
1000
VulcanDescription=Imported from Excel - ADB
1000
VulcanPrimitive=
1000
VulcanLine=0
1000
VulcanPattern=0
1000
VulcanFeature=
0
VERTEX
5
DE
8
S5_346_516_LOCAL
62
140
10
478784.821
20
6772540.668
30
358.000
70
32
0
VERTEX
5
DF
8
S5_346_516_LOCAL
62
140
10
478784.821
20
6772540.668
30
346.000
70
32
0
VERTEX
5
E0
8
S5_346_516_LOCAL
62
140
10
478784.821
20
6772540.668
30
344.500
70
32
0
SEQEND
8
S5_346_516_LOCAL
0
POLYLINE
5
DE
8
S5_346_516_LOCAL
62
140
66
140
70
8
1001
MAPTEK_VULCAN
1000
VulcanName=222
1000
VulcanGroup=
1000
VulcanValue=0
1000
VulcanDescription=Imported from Excel - ADB
1000
VulcanPrimitive=
1000
VulcanLine=0
1000
VulcanPattern=0
1000
VulcanFeature=
0
VERTEX
5
DF
8
S5_346_516_LOCAL
62
140
10
478781.487
20
6772544.916
30
358.000
70
32
0
VERTEX
5
E0
8
S5_346_516_LOCAL
62
140
10
478781.487
20
6772544.916
30
346.000
70
32
0
VERTEX
5
E1
8
S5_346_516_LOCAL
62
140
10
478781.487
20
6772544.916
30
344.500
70
32
0
SEQEND
8
S5_346_516_LOCAL
0
POLYLINE
5
DF
8
S5_346_516_LOCAL
62
140
66
140
70
8
1001
MAPTEK_VULCAN
1000
VulcanName=223
1000
VulcanGroup=
1000
VulcanValue=0
1000
VulcanDescription=Imported from Excel - ADB
1000
VulcanPrimitive=
1000
VulcanLine=0
1000
VulcanPattern=0
1000
VulcanFeature=
0
VERTEX
5
E0
8
S5_346_516_LOCAL
62
140
10
478778.152
20
6772549.163
30
358.000
70
32
0
VERTEX
5
E1
8
S5_346_516_LOCAL
62
140
10
478778.152
20
6772549.163
30
346.000
70
32
0
VERTEX
5
E2
8
S5_346_516_LOCAL
62
140
10
478778.152
20
6772549.163
30
344.500
70
32
0
SEQEND
8
S5_346_516_LOCAL
0
POLYLINE
5
E0
8
S5_346_516_LOCAL
62
140
66
140
70
8
1001
MAPTEK_VULCAN
1000
VulcanName=224
1000
VulcanGroup=
1000
VulcanValue=0
1000
VulcanDescription=Imported from Excel - ADB
1000
VulcanPrimitive=
1000
VulcanLine=0
1000
VulcanPattern=0
1000
VulcanFeature=
0
VERTEX
5
E1
8
S5_346_516_LOCAL
62
140
10
478774.818
20
6772553.411
30
358.000
70
32
0
VERTEX
5
E2
8
S5_346_516_LOCAL
62
140
10
478774.818
20
6772553.411
30
346.000
70
32
0
VERTEX
5
E3
8
S5_346_516_LOCAL
62
140
10
478774.818
20
6772553.411
30
344.500
70
32
0
SEQEND
8
S5_346_516_LOCAL
0
POLYLINE
5
E1
8
S5_346_516_LOCAL
62
140
66
140
70
8
1001
MAPTEK_VULCAN
1000
VulcanName=225
1000
VulcanGroup=
1000
VulcanValue=0
1000
VulcanDescription=Imported from Excel - ADB
1000
VulcanPrimitive=
1000
VulcanLine=0
1000
VulcanPattern=0
1000
VulcanFeature=
0
VERTEX
5
E2
8
S5_346_516_LOCAL
62
140
10
478771.484
20
6772557.658
30
358.000
70
32
0
VERTEX
5
E3
8
S5_346_516_LOCAL
62
140
10
478771.484
20
6772557.658
30
346.000
70
32
0
VERTEX
5
E4
8
S5_346_516_LOCAL
62
140
10
478771.484
20
6772557.658
30
344.500
70
32
0
SEQEND
8
S5_346_516_LOCAL
0
POLYLINE
5
E2
8
S5_346_516_LOCAL
62
140
66
140
70
8
1001
MAPTEK_VULCAN
1000
VulcanName=226
1000
VulcanGroup=
1000
VulcanValue=0
1000
VulcanDescription=Imported from Excel - ADB
1000
VulcanPrimitive=
1000
VulcanLine=0
1000
VulcanPattern=0
1000
VulcanFeature=
0
VERTEX
5
E3
8
S5_346_516_LOCAL
62
140
10
478767.368
20
6772562.265
30
358.000
70
32
0
VERTEX
5
E4
8
S5_346_516_LOCAL
62
140
10
478767.368
20
6772562.265
30
346.000
70
32
0
VERTEX
5
E5
8
S5_346_516_LOCAL
62
140
10
478767.368
20
6772562.265
30
344.500
70
32
0
SEQEND
8
S5_346_516_LOCAL
0
POLYLINE
5
E3
8
S5_346_516_LOCAL
62
140
66
140
70
8
1001
MAPTEK_VULCAN
1000
VulcanName=227
1000
VulcanGroup=
1000
VulcanValue=0
1000
VulcanDescription=Imported from Excel - ADB
1000
VulcanPrimitive=
1000
VulcanLine=0
1000
VulcanPattern=0
1000
VulcanFeature=
0
VERTEX
5
E4
8
S5_346_516_LOCAL
62
140
10
478763.633
20
6772566.165
30
358.000
70
32
0
VERTEX
5
E5
8
S5_346_516_LOCAL
62
140
10
478763.633
20
6772566.165
30
346.000
70
32
0
VERTEX
5
E6
8
S5_346_516_LOCAL
62
140
10
478763.633
20
6772566.165
30
344.500
70
32
0
SEQEND
8
S5_346_516_LOCAL
0
POLYLINE
5
E4
8
S5_346_516_LOCAL
62
140
66
140
70
8
1001
MAPTEK_VULCAN
1000
VulcanName=228
1000
VulcanGroup=
1000
VulcanValue=0
1000
VulcanDescription=Imported from Excel - ADB
1000
VulcanPrimitive=
1000
VulcanLine=0
1000
VulcanPattern=0
1000
VulcanFeature=
0
VERTEX
5
E5
8
S5_346_516_LOCAL
62
140
10
478759.899
20
6772570.065
30
358.000
70
32
0
VERTEX
5
E6
8
S5_346_516_LOCAL
62
140
10
478759.899
20
6772570.065
30
346.000
70
32
0
VERTEX
5
E7
8
S5_346_516_LOCAL
62
140
10
478759.899
20
6772570.065
30
344.500
70
32
0
SEQEND
8
S5_346_516_LOCAL
0
POLYLINE
5
E5
8
S5_346_516_LOCAL
62
140
66
140
70
8
1001
MAPTEK_VULCAN
1000
VulcanName=229
1000
VulcanGroup=
1000
VulcanValue=0
1000
VulcanDescription=Imported from Excel - ADB
1000
VulcanPrimitive=
1000
VulcanLine=0
1000
VulcanPattern=0
1000
VulcanFeature=
0
VERTEX
5
E6
8
S5_346_516_LOCAL
62
140
10
478756.164
20
6772573.966
30
358.000
70
32
0
VERTEX
5
E7
8
S5_346_516_LOCAL
62
140
10
478756.164
20
6772573.966
30
346.000
70
32
0
VERTEX
5
E8
8
S5_346_516_LOCAL
62
140
10
478756.164
20
6772573.966
30
344.500
70
32
0
SEQEND
8
S5_346_516_LOCAL
0
POLYLINE
5
E6
8
S5_346_516_LOCAL
62
140
66
140
70
8
1001
MAPTEK_VULCAN
1000
VulcanName=230
1000
VulcanGroup=
1000
VulcanValue=0
1000
VulcanDescription=Imported from Excel - ADB
1000
VulcanPrimitive=
1000
VulcanLine=0
1000
VulcanPattern=0
1000
VulcanFeature=
0
VERTEX
5
E7
8
S5_346_516_LOCAL
62
140
10
478752.429
20
6772577.866
30
358.000
70
32
0
VERTEX
5
E8
8
S5_346_516_LOCAL
62
140
10
478752.429
20
6772577.866
30
346.000
70
32
0
VERTEX
5
E9
8
S5_346_516_LOCAL
62
140
10
478752.429
20
6772577.866
30
344.500
70
32
0
SEQEND
8
S5_346_516_LOCAL
0
POLYLINE
5
E7
8
S5_346_516_LOCAL
62
140
66
140
70
8
1001
MAPTEK_VULCAN
1000
VulcanName=231
1000
VulcanGroup=
1000
VulcanValue=0
1000
VulcanDescription=Imported from Excel - ADB
1000
VulcanPrimitive=
1000
VulcanLine=0
1000
VulcanPattern=0
1000
VulcanFeature=
0
VERTEX
5
E8
8
S5_346_516_LOCAL
62
140
10
478752.188
20
6772580.830
30
358.000
70
32
0
VERTEX
5
E9
8
S5_346_516_LOCAL
62
140
10
478749.063
20
6772581.667
30
345.926
70
32
0
VERTEX
5
EA
8
S5_346_516_LOCAL
62
140
10
478748.688
20
6772581.768
30
344.477
70
32
0
SEQEND
8
S5_346_516_LOCAL
0
POLYLINE
5
E8
8
S5_346_516_LOCAL
62
140
66
140
70
8
1001
MAPTEK_VULCAN
1000
VulcanName=232
1000
VulcanGroup=
1000
VulcanValue=0
1000
VulcanDescription=Imported from Excel - ADB
1000
VulcanPrimitive=
1000
VulcanLine=0
1000
VulcanPattern=0
1000
VulcanFeature=
0
VERTEX
5
E9
8
S5_346_516_LOCAL
62
140
10
478750.661
20
6772575.629
30
358.000
70
32
0
VERTEX
5
EA
8
S5_346_516_LOCAL
62
140
10
478747.536
20
6772576.466
30
345.926
70
32
0
VERTEX
5
EB
8
S5_346_516_LOCAL
62
140
10
478747.161
20
6772576.567
30
344.477
70
32
0
SEQEND
8
S5_346_516_LOCAL
0
POLYLINE
5
E9
8
S5_346_516_LOCAL
62
140
66
140
70
8
1001
MAPTEK_VULCAN
1000
VulcanName=233
1000
VulcanGroup=
1000
VulcanValue=0
1000
VulcanDescription=Imported from Excel - ADB
1000
VulcanPrimitive=
1000
VulcanLine=0
1000
VulcanPattern=0
1000
VulcanFeature=
0
VERTEX
5
EA
8
S5_346_516_LOCAL
62
140
10
478750.902
20
6772572.665
30
358.000
70
32
0
VERTEX
5
EB
8
S5_346_516_LOCAL
62
140
10
478750.902
20
6772572.665
30
346.000
70
32
0
VERTEX
5
EC
8
S5_346_516_LOCAL
62
140
10
478750.902
20
6772572.665
30
344.500
70
32
0
SEQEND
8
S5_346_516_LOCAL
0
POLYLINE
5
EA
8
S5_346_516_LOCAL
62
140
66
140
70
8
1001
MAPTEK_VULCAN
1000
VulcanName=234
1000
VulcanGroup=
1000
VulcanValue=0
1000
VulcanDescription=Imported from Excel - ADB
1000
VulcanPrimitive=
1000
VulcanLine=0
1000
VulcanPattern=0
1000
VulcanFeature=
0
VERTEX
5
EB
8
S5_346_516_LOCAL
62
140
10
478754.637
20
6772568.765
30
358.000
70
32
0
VERTEX
5
EC
8
S5_346_516_LOCAL
62
140
10
478754.637
20
6772568.765
30
346.000
70
32
0
VERTEX
5
ED
8
S5_346_516_LOCAL
62
140
10
478754.637
20
6772568.765
30
344.500
70
32
0
SEQEND
8
S5_346_516_LOCAL
0
POLYLINE
5
EB
8
S5_346_516_LOCAL
62
140
66
140
70
8
1001
MAPTEK_VULCAN
1000
VulcanName=235
1000
VulcanGroup=
1000
VulcanValue=0
1000
VulcanDescription=Imported from Excel - ADB
1000
VulcanPrimitive=
1000
VulcanLine=0
1000
VulcanPattern=0
1000
VulcanFeature=
0
VERTEX
5
EC
8
S5_346_516_LOCAL
62
140
10
478758.371
20
6772564.865
30
358.000
70
32
0
VERTEX
5
ED
8
S5_346_516_LOCAL
62
140
10
478758.371
20
6772564.865
30
346.000
70
32
0
VERTEX
5
EE
8
S5_346_516_LOCAL
62
140
10
478758.371
20
6772564.865
30
344.500
70
32
0
SEQEND
8
S5_346_516_LOCAL
0
POLYLINE
5
EC
8
S5_346_516_LOCAL
62
140
66
140
70
8
1001
MAPTEK_VULCAN
1000
VulcanName=236
1000
VulcanGroup=
1000
VulcanValue=0
1000
VulcanDescription=Imported from Excel - ADB
1000
VulcanPrimitive=
1000
VulcanLine=0
1000
VulcanPattern=0
1000
VulcanFeature=
0
VERTEX
5
ED
8
S5_346_516_LOCAL
62
140
10
478762.106
20
6772560.964
30
358.000
70
32
0
VERTEX
5
EE
8
S5_346_516_LOCAL
62
140
10
478762.106
20
6772560.964
30
346.000
70
32
0
VERTEX
5
EF
8
S5_346_516_LOCAL
62
140
10
478762.106
20
6772560.964
30
344.500
70
32
0
SEQEND
8
S5_346_516_LOCAL
0
POLYLINE
5
ED
8
S5_346_516_LOCAL
62
140
66
140
70
8
1001
MAPTEK_VULCAN
1000
VulcanName=237
1000
VulcanGroup=
1000
VulcanValue=0
1000
VulcanDescription=Imported from Excel - ADB
1000
VulcanPrimitive=
1000
VulcanLine=0
1000
VulcanPattern=0
1000
VulcanFeature=
0
VERTEX
5
EE
8
S5_346_516_LOCAL
62
140
10
478765.841
20
6772557.064
30
357.995
70
32
0
VERTEX
5
EF
8
S5_346_516_LOCAL
62
140
10
478765.841
20
6772557.064
30
345.995
70
32
0
VERTEX
5
F0
8
S5_346_516_LOCAL
62
140
10
478765.841
20
6772557.064
30
344.495
70
32
0
SEQEND
8
S5_346_516_LOCAL
0
POLYLINE
5
EE
8
S5_346_516_LOCAL
62
140
66
140
70
8
1001
MAPTEK_VULCAN
1000
VulcanName=238
1000
VulcanGroup=
1000
VulcanValue=0
1000
VulcanDescription=Imported from Excel - ADB
1000
VulcanPrimitive=
1000
VulcanLine=0
1000
VulcanPattern=0
1000
VulcanFeature=
0
VERTEX
5
EF
8
S5_346_516_LOCAL
62
140
10
478769.454
20
6772552.633
30
358.036
70
32
0
VERTEX
5
F0
8
S5_346_516_LOCAL
62
140
10
478769.454
20
6772552.633
30
346.036
70
32
0
VERTEX
5
F1
8
S5_346_516_LOCAL
62
140
10
478769.454
20
6772552.633
30
344.536
70
32
0
SEQEND
8
S5_346_516_LOCAL
0
POLYLINE
5
EF
8
S5_346_516_LOCAL
62
140
66
140
70
8
1001
MAPTEK_VULCAN
1000
VulcanName=239
1000
VulcanGroup=
1000
VulcanValue=0
1000
VulcanDescription=Imported from Excel - ADB
1000
VulcanPrimitive=
1000
VulcanLine=0
1000
VulcanPattern=0
1000
VulcanFeature=
0
VERTEX
5
F0
8
S5_346_516_LOCAL
62
140
10
478772.788
20
6772548.385
30
358.108
70
32
0
VERTEX
5
F1
8
S5_346_516_LOCAL
62
140
10
478772.788
20
6772548.385
30
346.008
70
32
0
VERTEX
5
F2
8
S5_346_516_LOCAL
62
140
10
478772.788
20
6772548.385
30
344.508
70
32
0
SEQEND
8
S5_346_516_LOCAL
0
POLYLINE
5
F0
8
S5_346_516_LOCAL
62
140
66
140
70
8
1001
MAPTEK_VULCAN
1000
VulcanName=240
1000
VulcanGroup=
1000
VulcanValue=0
1000
VulcanDescription=Imported from Excel - ADB
1000
VulcanPrimitive=
1000
VulcanLine=0
1000
VulcanPattern=0
1000
VulcanFeature=
0
VERTEX
5
F1
8
S5_346_516_LOCAL
62
140
10
478776.122
20
6772544.137
30
358.008
70
32
0
VERTEX
5
F2
8
S5_346_516_LOCAL
62
140
10
478776.122
20
6772544.137
30
346.008
70
32
0
VERTEX
5
F3
8
S5_346_516_LOCAL
62
140
10
478776.122
20
6772544.137
30
344.508
70
32
0
SEQEND
8
S5_346_516_LOCAL
0
POLYLINE
5
F1
8
S5_346_516_LOCAL
62
140
66
140
70
8
1001
MAPTEK_VULCAN
1000
VulcanName=241
1000
VulcanGroup=
1000
VulcanValue=0
1000
VulcanDescription=Imported from Excel - ADB
1000
VulcanPrimitive=
1000
VulcanLine=0
1000
VulcanPattern=0
1000
VulcanFeature=
0
VERTEX
5
F2
8
S5_346_516_LOCAL
62
140
10
478779.457
20
6772539.890
30
357.934
70
32
0
VERTEX
5
F3
8
S5_346_516_LOCAL
62
140
10
478779.457
20
6772539.890
30
346.034
70
32
0
VERTEX
5
F4
8
S5_346_516_LOCAL
62
140
10
478779.457
20
6772539.890
30
344.534
70
32
0
SEQEND
8
S5_346_516_LOCAL
0
POLYLINE
5
F2
8
S5_346_516_LOCAL
62
140
66
140
70
8
1001
MAPTEK_VULCAN
1000
VulcanName=242
1000
VulcanGroup=
1000
VulcanValue=0
1000
VulcanDescription=Imported from Excel - ADB
1000
VulcanPrimitive=
1000
VulcanLine=0
1000
VulcanPattern=0
1000
VulcanFeature=
0
VERTEX
5
F3
8
S5_346_516_LOCAL
62
140
10
478782.791
20
6772535.642
30
357.884
70
32
0
VERTEX
5
F4
8
S5_346_516_LOCAL
62
140
10
478782.791
20
6772535.642
30
345.984
70
32
0
VERTEX
5
F5
8
S5_346_516_LOCAL
62
140
10
478782.791
20
6772535.642
30
344.484
70
32
0
SEQEND
8
S5_346_516_LOCAL
0
POLYLINE
5
F3
8
S5_346_516_LOCAL
62
140
66
140
70
8
1001
MAPTEK_VULCAN
1000
VulcanName=243
1000
VulcanGroup=
1000
VulcanValue=0
1000
VulcanDescription=Imported from Excel - ADB
1000
VulcanPrimitive=
1000
VulcanLine=0
1000
VulcanPattern=0
1000
VulcanFeature=
0
VERTEX
5
F4
8
S5_346_516_LOCAL
62
140
10
478786.125
20
6772531.394
30
357.843
70
32
0
VERTEX
5
F5
8
S5_346_516_LOCAL
62
140
10
478786.125
20
6772531.394
30
346.043
70
32
0
VERTEX
5
F6
8
S5_346_516_LOCAL
62
140
10
478786.125
20
6772531.394
30
344.543
70
32
0
SEQEND
8
S5_346_516_LOCAL
0
POLYLINE
5
F4
8
S5_346_516_LOCAL
62
140
66
140
70
8
1001
MAPTEK_VULCAN
1000
VulcanName=244
1000
VulcanGroup=
1000
VulcanValue=0
1000
VulcanDescription=Imported from Excel - ADB
1000
VulcanPrimitive=
1000
VulcanLine=0
1000
VulcanPattern=0
1000
VulcanFeature=
0
VERTEX
5
F5
8
S5_346_516_LOCAL
62
140
10
478789.460
20
6772527.147
30
357.923
70
32
0
VERTEX
5
F6
8
S5_346_516_LOCAL
62
140
10
478789.460
20
6772527.147
30
346.023
70
32
0
VERTEX
5
F7
8
S5_346_516_LOCAL
62
140
10
478789.460
20
6772527.147
30
344.523
70
32
0
SEQEND
8
S5_346_516_LOCAL
0
POLYLINE
5
F5
8
S5_346_516_LOCAL
62
140
66
140
70
8
1001
MAPTEK_VULCAN
1000
VulcanName=245
1000
VulcanGroup=
1000
VulcanValue=0
1000
VulcanDescription=Imported from Excel - ADB
1000
VulcanPrimitive=
1000
VulcanLine=0
1000
VulcanPattern=0
1000
VulcanFeature=
0
VERTEX
5
F6
8
S5_346_516_LOCAL
62
140
10
478792.480
20
6772523.225
30
357.939
70
32
0
VERTEX
5
F7
8
S5_346_516_LOCAL
62
140
10
478792.480
20
6772523.225
30
346.039
70
32
0
VERTEX
5
F8
8
S5_346_516_LOCAL
62
140
10
478792.480
20
6772523.225
30
344.539
70
32
0
SEQEND
8
S5_346_516_LOCAL
0
POLYLINE
5
F6
8
S5_346_516_LOCAL
62
140
66
140
70
8
1001
MAPTEK_VULCAN
1000
VulcanName=246
1000
VulcanGroup=
1000
VulcanValue=0
1000
VulcanDescription=Imported from Excel - ADB
1000
VulcanPrimitive=
1000
VulcanLine=0
1000
VulcanPattern=0
1000
VulcanFeature=
0
VERTEX
5
F7
8
S5_346_516_LOCAL
62
140
10
478796.776
20
6772524.477
30
357.828
70
32
0
VERTEX
5
F8
8
S5_346_516_LOCAL
62
140
10
478796.776
20
6772524.477
30
346.028
70
32
0
VERTEX
5
F9
8
S5_346_516_LOCAL
62
140
10
478796.776
20
6772524.477
30
344.528
70
32
0
SEQEND
8
S5_346_516_LOCAL
0
POLYLINE
5
F7
8
S5_346_516_LOCAL
62
140
66
140
70
8
1001
MAPTEK_VULCAN
1000
VulcanName=247
1000
VulcanGroup=
1000
VulcanValue=0
1000
VulcanDescription=Imported from Excel - ADB
1000
VulcanPrimitive=
1000
VulcanLine=0
1000
VulcanPattern=0
1000
VulcanFeature=
0
VERTEX
5
F8
8
S5_346_516_LOCAL
62
140
10
478794.768
20
6772519.469
30
357.869
70
32
0
VERTEX
5
F9
8
S5_346_516_LOCAL
62
140
10
478794.768
20
6772519.469
30
345.969
70
32
0
VERTEX
5
FA
8
S5_346_516_LOCAL
62
140
10
478794.768
20
6772519.469
30
344.469
70
32
0
SEQEND
8
S5_346_516_LOCAL
0
POLYLINE
5
F8
8
S5_346_516_LOCAL
62
140
66
140
70
8
1001
MAPTEK_VULCAN
1000
VulcanName=248
1000
VulcanGroup=
1000
VulcanValue=0
1000
VulcanDescription=Imported from Excel - ADB
1000
VulcanPrimitive=
1000
VulcanLine=0
1000
VulcanPattern=0
1000
VulcanFeature=
0
VERTEX
5
F9
8
S5_346_516_LOCAL
62
140
10
478790.333
20
6772518.218
30
357.834
70
32
0
VERTEX
5
FA
8
S5_346_516_LOCAL
62
140
10
478790.333
20
6772518.218
30
346.034
70
32
0
VERTEX
5
FB
8
S5_346_516_LOCAL
62
140
10
478790.333
20
6772518.218
30
344.534
70
32
0
SEQEND
8
S5_346_516_LOCAL
0
POLYLINE
5
F9
8
S5_346_516_LOCAL
62
140
66
140
70
8
1001
MAPTEK_VULCAN
1000
VulcanName=249
1000
VulcanGroup=
1000
VulcanValue=0
1000
VulcanDescription=Imported from Excel - ADB
1000
VulcanPrimitive=
1000
VulcanLine=0
1000
VulcanPattern=0
1000
VulcanFeature=
0
VERTEX
5
FA
8
S5_346_516_LOCAL
62
140
10
478787.430
20
6772522.121
30
357.825
70
32
0
VERTEX
5
FB
8
S5_346_516_LOCAL
62
140
10
478787.430
20
6772522.121
30
346.025
70
32
0
VERTEX
5
FC
8
S5_346_516_LOCAL
62
140
10
478787.430
20
6772522.121
30
344.525
70
32
0
SEQEND
8
S5_346_516_LOCAL
0
POLYLINE
5
FA
8
S5_346_516_LOCAL
62
140
66
140
70
8
1001
MAPTEK_VULCAN
1000
VulcanName=250
1000
VulcanGroup=
1000
VulcanValue=0
1000
VulcanDescription=Imported from Excel - ADB
1000
VulcanPrimitive=
1000
VulcanLine=0
1000
VulcanPattern=0
1000
VulcanFeature=
0
VERTEX
5
FB
8
S5_346_516_LOCAL
62
140
10
478784.095
20
6772526.369
30
357.873
70
32
0
VERTEX
5
FC
8
S5_346_516_LOCAL
62
140
10
478784.095
20
6772526.369
30
345.973
70
32
0
VERTEX
5
FD
8
S5_346_516_LOCAL
62
140
10
478784.095
20
6772526.369
30
344.473
70
32
0
SEQEND
8
S5_346_516_LOCAL
0
POLYLINE
5
FB
8
S5_346_516_LOCAL
62
140
66
140
70
8
1001
MAPTEK_VULCAN
1000
VulcanName=251
1000
VulcanGroup=
1000
VulcanValue=0
1000
VulcanDescription=Imported from Excel - ADB
1000
VulcanPrimitive=
1000
VulcanLine=0
1000
VulcanPattern=0
1000
VulcanFeature=
0
VERTEX
5
FC
8
S5_346_516_LOCAL
62
140
10
478780.761
20
6772530.616
30
357.912
70
32
0
VERTEX
5
FD
8
S5_346_516_LOCAL
62
140
10
478780.761
20
6772530.616
30
346.012
70
32
0
VERTEX
5
FE
8
S5_346_516_LOCAL
62
140
10
478780.761
20
6772530.616
30
344.512
70
32
0
SEQEND
8
S5_346_516_LOCAL
0
POLYLINE
5
FC
8
S5_346_516_LOCAL
62
140
66
140
70
8
1001
MAPTEK_VULCAN
1000
VulcanName=252
1000
VulcanGroup=
1000
VulcanValue=0
1000
VulcanDescription=Imported from Excel - ADB
1000
VulcanPrimitive=
1000
VulcanLine=0
1000
VulcanPattern=0
1000
VulcanFeature=
0
VERTEX
5
FD
8
S5_346_516_LOCAL
62
140
10
478777.427
20
6772534.864
30
357.887
70
32
0
VERTEX
5
FE
8
S5_346_516_LOCAL
62
140
10
478777.427
20
6772534.864
30
345.987
70
32
0
VERTEX
5
FF
8
S5_346_516_LOCAL
62
140
10
478777.427
20
6772534.864
30
344.487
70
32
0
SEQEND
8
S5_346_516_LOCAL
0
POLYLINE
5
FD
8
S5_346_516_LOCAL
62
140
66
140
70
8
1001
MAPTEK_VULCAN
1000
VulcanName=253
1000
VulcanGroup=
1000
VulcanValue=0
1000
VulcanDescription=Imported from Excel - ADB
1000
VulcanPrimitive=
1000
VulcanLine=0
1000
VulcanPattern=0
1000
VulcanFeature=
0
VERTEX
5
FE
8
S5_346_516_LOCAL
62
140
10
478774.093
20
6772539.111
30
357.903
70
32
0
VERTEX
5
FF
8
S5_346_516_LOCAL
62
140
10
478774.093
20
6772539.111
30
346.003
70
32
0
VERTEX
5
100
8
S5_346_516_LOCAL
62
140
10
478774.093
20
6772539.111
30
344.503
70
32
0
SEQEND
8
S5_346_516_LOCAL
0
POLYLINE
5
FE
8
S5_346_516_LOCAL
62
140
66
140
70
8
1001
MAPTEK_VULCAN
1000
VulcanName=254
1000
VulcanGroup=
1000
VulcanValue=0
1000
VulcanDescription=Imported from Excel - ADB
1000
VulcanPrimitive=
1000
VulcanLine=0
1000
VulcanPattern=0
1000
VulcanFeature=
0
VERTEX
5
FF
8
S5_346_516_LOCAL
62
140
10
478770.758
20
6772543.359
30
358.063
70
32
0
VERTEX
5
100
8
S5_346_516_LOCAL
62
140
10
478770.758
20
6772543.359
30
345.963
70
32
0
VERTEX
5
101
8
S5_346_516_LOCAL
62
140
10
478770.758
20
6772543.359
30
344.463
70
32
0
SEQEND
8
S5_346_516_LOCAL
0
POLYLINE
5
FF
8
S5_346_516_LOCAL
62
140
66
140
70
8
1001
MAPTEK_VULCAN
1000
VulcanName=255
1000
VulcanGroup=
1000
VulcanValue=0
1000
VulcanDescription=Imported from Excel - ADB
1000
VulcanPrimitive=
1000
VulcanLine=0
1000
VulcanPattern=0
1000
VulcanFeature=
0
VERTEX
5
100
8
S5_346_516_LOCAL
62
140
10
478767.424
20
6772547.607
30
358.106
70
32
0
VERTEX
5
101
8
S5_346_516_LOCAL
62
140
10
478767.424
20
6772547.607
30
346.006
70
32
0
VERTEX
5
102
8
S5_346_516_LOCAL
62
140
10
478767.424
20
6772547.607
30
344.506
70
32
0
SEQEND
8
S5_346_516_LOCAL
0
POLYLINE
5
100
8
S5_346_516_LOCAL
62
140
66
140
70
8
1001
MAPTEK_VULCAN
1000
VulcanName=256
1000
VulcanGroup=
1000
VulcanValue=0
1000
VulcanDescription=Imported from Excel - ADB
1000
VulcanPrimitive=
1000
VulcanLine=0
1000
VulcanPattern=0
1000
VulcanFeature=
0
VERTEX
5
101
8
S5_346_516_LOCAL
62
140
10
478763.921
20
6772551.703
30
358.020
70
32
0
VERTEX
5
102
8
S5_346_516_LOCAL
62
140
10
478763.921
20
6772551.703
30
346.020
70
32
0
VERTEX
5
103
8
S5_346_516_LOCAL
62
140
10
478763.921
20
6772551.703
30
344.520
70
32
0
SEQEND
8
S5_346_516_LOCAL
0
POLYLINE
5
101
8
S5_346_516_LOCAL
62
140
66
140
70
8
1001
MAPTEK_VULCAN
1000
VulcanName=257
1000
VulcanGroup=
1000
VulcanValue=0
1000
VulcanDescription=Imported from Excel - ADB
1000
VulcanPrimitive=
1000
VulcanLine=0
1000
VulcanPattern=0
1000
VulcanFeature=
0
VERTEX
5
102
8
S5_346_516_LOCAL
62
140
10
478760.467
20
6772555.759
30
358.133
70
32
0
VERTEX
5
103
8
S5_346_516_LOCAL
62
140
10
478760.467
20
6772555.759
30
346.033
70
32
0
VERTEX
5
104
8
S5_346_516_LOCAL
62
140
10
478760.467
20
6772555.759
30
344.533
70
32
0
SEQEND
8
S5_346_516_LOCAL
0
POLYLINE
5
102
8
S5_346_516_LOCAL
62
140
66
140
70
8
1001
MAPTEK_VULCAN
1000
VulcanName=258
1000
VulcanGroup=
1000
VulcanValue=0
1000
VulcanDescription=Imported from Excel - ADB
1000
VulcanPrimitive=
1000
VulcanLine=0
1000
VulcanPattern=0
1000
VulcanFeature=
0
VERTEX
5
103
8
S5_346_516_LOCAL
62
140
10
478756.844
20
6772559.664
30
357.814
70
32
0
VERTEX
5
104
8
S5_346_516_LOCAL
62
140
10
478756.844
20
6772559.664
30
346.014
70
32
0
VERTEX
5
105
8
S5_346_516_LOCAL
62
140
10
478756.844
20
6772559.664
30
344.514
70
32
0
SEQEND
8
S5_346_516_LOCAL
0
POLYLINE
5
103
8
S5_346_516_LOCAL
62
140
66
140
70
8
1001
MAPTEK_VULCAN
1000
VulcanName=259
1000
VulcanGroup=
1000
VulcanValue=0
1000
VulcanDescription=Imported from Excel - ADB
1000
VulcanPrimitive=
1000
VulcanLine=0
1000
VulcanPattern=0
1000
VulcanFeature=
0
VERTEX
5
104
8
S5_346_516_LOCAL
62
140
10
478753.109
20
6772563.564
30
357.751
70
32
0
VERTEX
5
105
8
S5_346_516_LOCAL
62
140
10
478753.109
20
6772563.564
30
345.951
70
32
0
VERTEX
5
106
8
S5_346_516_LOCAL
62
140
10
478753.109
20
6772563.564
30
344.451
70
32
0
SEQEND
8
S5_346_516_LOCAL
0
POLYLINE
5
104
8
S5_346_516_LOCAL
62
140
66
140
70
8
1001
MAPTEK_VULCAN
1000
VulcanName=260
1000
VulcanGroup=
1000
VulcanValue=0
1000
VulcanDescription=Imported from Excel - ADB
1000
VulcanPrimitive=
1000
VulcanLine=0
1000
VulcanPattern=0
1000
VulcanFeature=
0
VERTEX
5
105
8
S5_346_516_LOCAL
62
140
10
478749.374
20
6772567.464
30
357.741
70
32
0
VERTEX
5
106
8
S5_346_516_LOCAL
62
140
10
478749.374
20
6772567.464
30
346.041
70
32
0
VERTEX
5
107
8
S5_346_516_LOCAL
62
140
10
478749.374
20
6772567.464
30
344.541
70
32
0
SEQEND
8
S5_346_516_LOCAL
0
POLYLINE
5
105
8
S5_346_516_LOCAL
62
140
66
140
70
8
1001
MAPTEK_VULCAN
1000
VulcanName=261
1000
VulcanGroup=
1000
VulcanValue=0
1000
VulcanDescription=Imported from Excel - ADB
1000
VulcanPrimitive=
1000
VulcanLine=0
1000
VulcanPattern=0
1000
VulcanFeature=
0
VERTEX
5
106
8
S5_346_516_LOCAL
62
140
10
478747.362
20
6772570.902
30
357.685
70
32
0
VERTEX
5
107
8
S5_346_516_LOCAL
62
140
10
478747.362
20
6772570.902
30
345.985
70
32
0
VERTEX
5
108
8
S5_346_516_LOCAL
62
140
10
478747.362
20
6772570.902
30
344.485
70
32
0
SEQEND
8
S5_346_516_LOCAL
0
POLYLINE
5
106
8
S5_346_516_LOCAL
62
140
66
140
70
8
1001
MAPTEK_VULCAN
1000
VulcanName=262
1000
VulcanGroup=
1000
VulcanValue=0
1000
VulcanDescription=Imported from Excel - ADB
1000
VulcanPrimitive=
1000
VulcanLine=0
1000
VulcanPattern=0
1000
VulcanFeature=
0
VERTEX
5
107
8
S5_346_516_LOCAL
62
140
10
478745.564
20
6772566.721
30
357.845
70
32
0
VERTEX
5
108
8
S5_346_516_LOCAL
62
140
10
478745.564
20
6772566.721
30
346.045
70
32
0
VERTEX
5
109
8
S5_346_516_LOCAL
62
140
10
478745.564
20
6772566.721
30
344.545
70
32
0
SEQEND
8
S5_346_516_LOCAL
0
POLYLINE
5
107
8
S5_346_516_LOCAL
62
140
66
140
70
8
1001
MAPTEK_VULCAN
1000
VulcanName=263
1000
VulcanGroup=
1000
VulcanValue=0
1000
VulcanDescription=Imported from Excel - ADB
1000
VulcanPrimitive=
1000
VulcanLine=0
1000
VulcanPattern=0
1000
VulcanFeature=
0
VERTEX
5
108
8
S5_346_516_LOCAL
62
140
10
478748.010
20
6772562.921
30
357.906
70
32
0
VERTEX
5
109
8
S5_346_516_LOCAL
62
140
10
478748.010
20
6772562.921
30
346.006
70
32
0
VERTEX
5
10A
8
S5_346_516_LOCAL
62
140
10
478748.010
20
6772562.921
30
344.506
70
32
0
SEQEND
8
S5_346_516_LOCAL
0
POLYLINE
5
108
8
S5_346_516_LOCAL
62
140
66
140
70
8
1001
MAPTEK_VULCAN
1000
VulcanName=264
1000
VulcanGroup=
1000
VulcanValue=0
1000
VulcanDescription=Imported from Excel - ADB
1000
VulcanPrimitive=
1000
VulcanLine=0
1000
VulcanPattern=0
1000
VulcanFeature=
0
VERTEX
5
109
8
S5_346_516_LOCAL
62
140
10
478751.739
20
6772558.889
30
357.949
70
32
0
VERTEX
5
10A
8
S5_346_516_LOCAL
62
140
10
478751.739
20
6772558.889
30
346.049
70
32
0
VERTEX
5
10B
8
S5_346_516_LOCAL
62
140
10
478751.739
20
6772558.889
30
344.549
70
32
0
SEQEND
8
S5_346_516_LOCAL
0
POLYLINE
5
109
8
S5_346_516_LOCAL
62
140
66
140
70
8
1001
MAPTEK_VULCAN
1000
VulcanName=265
1000
VulcanGroup=
1000
VulcanValue=0
1000
VulcanDescription=Imported from Excel - ADB
1000
VulcanPrimitive=
1000
VulcanLine=0
1000
VulcanPattern=0
1000
VulcanFeature=
0
VERTEX
5
10A
8
S5_346_516_LOCAL
62
140
10
478755.248
20
6772555.049
30
358.341
70
32
0
VERTEX
5
10B
8
S5_346_516_LOCAL
62
140
10
478755.248
20
6772555.049
30
346.041
70
32
0
VERTEX
5
10C
8
S5_346_516_LOCAL
62
140
10
478755.248
20
6772555.049
30
344.541
70
32
0
SEQEND
8
S5_346_516_LOCAL
0
POLYLINE
5
10A
8
S5_346_516_LOCAL
62
140
66
140
70
8
1001
MAPTEK_VULCAN
1000
VulcanName=266
1000
VulcanGroup=
1000
VulcanValue=0
1000
VulcanDescription=Imported from Excel - ADB
1000
VulcanPrimitive=
1000
VulcanLine=0
1000
VulcanPattern=0
1000
VulcanFeature=
0
VERTEX
5
10B
8
S5_346_516_LOCAL
62
140
10
478758.688
20
6772550.646
30
358.224
70
32
0
VERTEX
5
10C
8
S5_346_516_LOCAL
62
140
10
478758.688
20
6772550.646
30
346.024
70
32
0
VERTEX
5
10D
8
S5_346_516_LOCAL
62
140
10
478758.688
20
6772550.646
30
344.524
70
32
0
SEQEND
8
S5_346_516_LOCAL
0
POLYLINE
5
10B
8
S5_346_516_LOCAL
62
140
66
140
70
8
1001
MAPTEK_VULCAN
1000
VulcanName=267
1000
VulcanGroup=
1000
VulcanValue=0
1000
VulcanDescription=Imported from Excel - ADB
1000
VulcanPrimitive=
1000
VulcanLine=0
1000
VulcanPattern=0
1000
VulcanFeature=
0
VERTEX
5
10C
8
S5_346_516_LOCAL
62
140
10
478762.134
20
6772547.146
30
358.050
70
32
0
VERTEX
5
10D
8
S5_346_516_LOCAL
62
140
10
478762.134
20
6772547.146
30
346.050
70
32
0
VERTEX
5
10E
8
S5_346_516_LOCAL
62
140
10
478762.134
20
6772547.146
30
344.550
70
32
0
SEQEND
8
S5_346_516_LOCAL
0
POLYLINE
5
10C
8
S5_346_516_LOCAL
62
140
66
140
70
8
1001
MAPTEK_VULCAN
1000
VulcanName=268
1000
VulcanGroup=
1000
VulcanValue=0
1000
VulcanDescription=Imported from Excel - ADB
1000
VulcanPrimitive=
1000
VulcanLine=0
1000
VulcanPattern=0
1000
VulcanFeature=
0
VERTEX
5
10D
8
S5_346_516_LOCAL
62
140
10
478765.599
20
6772543.110
30
358.054
70
32
0
VERTEX
5
10E
8
S5_346_516_LOCAL
62
140
10
478765.599
20
6772543.110
30
345.954
70
32
0
VERTEX
5
10F
8
S5_346_516_LOCAL
62
140
10
478765.599
20
6772543.110
30
344.454
70
32
0
SEQEND
8
S5_346_516_LOCAL
0
POLYLINE
5
10D
8
S5_346_516_LOCAL
62
140
66
140
70
8
1001
MAPTEK_VULCAN
1000
VulcanName=269
1000
VulcanGroup=
1000
VulcanValue=0
1000
VulcanDescription=Imported from Excel - ADB
1000
VulcanPrimitive=
1000
VulcanLine=0
1000
VulcanPattern=0
1000
VulcanFeature=
0
VERTEX
5
10E
8
S5_346_516_LOCAL
62
140
10
478768.960
20
6772538.923
30
357.965
70
32
0
VERTEX
5
10F
8
S5_346_516_LOCAL
62
140
10
478768.960
20
6772538.923
30
345.965
70
32
0
VERTEX
5
110
8
S5_346_516_LOCAL
62
140
10
478768.960
20
6772538.923
30
344.465
70
32
0
SEQEND
8
S5_346_516_LOCAL
0
POLYLINE
5
10E
8
S5_346_516_LOCAL
62
140
66
140
70
8
1001
MAPTEK_VULCAN
1000
VulcanName=270
1000
VulcanGroup=
1000
VulcanValue=0
1000
VulcanDescription=Imported from Excel - ADB
1000
VulcanPrimitive=
1000
VulcanLine=0
1000
VulcanPattern=0
1000
VulcanFeature=
0
VERTEX
5
10F
8
S5_346_516_LOCAL
62
140
10
478772.317
20
6772534.684
30
357.827
70
32
0
VERTEX
5
110
8
S5_346_516_LOCAL
62
140
10
478772.317
20
6772534.684
30
346.027
70
32
0
VERTEX
5
111
8
S5_346_516_LOCAL
62
140
10
478772.317
20
6772534.684
30
344.527
70
32
0
SEQEND
8
S5_346_516_LOCAL
0
POLYLINE
5
10F
8
S5_346_516_LOCAL
62
140
66
140
70
8
1001
MAPTEK_VULCAN
1000
VulcanName=271
1000
VulcanGroup=
1000
VulcanValue=0
1000
VulcanDescription=Imported from Excel - ADB
1000
VulcanPrimitive=
1000
VulcanLine=0
1000
VulcanPattern=0
1000
VulcanFeature=
0
VERTEX
5
110
8
S5_346_516_LOCAL
62
140
10
478775.677
20
6772530.509
30
357.851
70
32
0
VERTEX
5
111
8
S5_346_516_LOCAL
62
140
10
478775.677
20
6772530.509
30
345.951
70
32
0
VERTEX
5
112
8
S5_346_516_LOCAL
62
140
10
478775.677
20
6772530.509
30
344.451
70
32
0
SEQEND
8
S5_346_516_LOCAL
0
POLYLINE
5
110
8
S5_346_516_LOCAL
62
140
66
140
70
8
1001
MAPTEK_VULCAN
1000
VulcanName=272
1000
VulcanGroup=
1000
VulcanValue=0
1000
VulcanDescription=Imported from Excel - ADB
1000
VulcanPrimitive=
1000
VulcanLine=0
1000
VulcanPattern=0
1000
VulcanFeature=
0
VERTEX
5
111
8
S5_346_516_LOCAL
62
140
10
478779.031
20
6772526.360
30
357.856
70
32
0
VERTEX
5
112
8
S5_346_516_LOCAL
62
140
10
478779.031
20
6772526.360
30
345.956
70
32
0
VERTEX
5
113
8
S5_346_516_LOCAL
62
140
10
478779.031
20
6772526.360
30
344.456
70
32
0
SEQEND
8
S5_346_516_LOCAL
0
POLYLINE
5
111
8
S5_346_516_LOCAL
62
140
66
140
70
8
1001
MAPTEK_VULCAN
1000
VulcanName=273
1000
VulcanGroup=
1000
VulcanValue=0
1000
VulcanDescription=Imported from Excel - ADB
1000
VulcanPrimitive=
1000
VulcanLine=0
1000
VulcanPattern=0
1000
VulcanFeature=
0
VERTEX
5
112
8
S5_346_516_LOCAL
62
140
10
478782.397
20
6772522.177
30
357.793
70
32
0
VERTEX
5
113
8
S5_346_516_LOCAL
62
140
10
478782.397
20
6772522.177
30
345.993
70
32
0
VERTEX
5
114
8
S5_346_516_LOCAL
62
140
10
478782.397
20
6772522.177
30
344.493
70
32
0
SEQEND
8
S5_346_516_LOCAL
0
POLYLINE
5
112
8
S5_346_516_LOCAL
62
140
66
140
70
8
1001
MAPTEK_VULCAN
1000
VulcanName=274
1000
VulcanGroup=
1000
VulcanValue=0
1000
VulcanDescription=Imported from Excel - ADB
1000
VulcanPrimitive=
1000
VulcanLine=0
1000
VulcanPattern=0
1000
VulcanFeature=
0
VERTEX
5
113
8
S5_346_516_LOCAL
62
140
10
478785.767
20
6772517.950
30
357.756
70
32
0
VERTEX
5
114
8
S5_346_516_LOCAL
62
140
10
478785.767
20
6772517.950
30
345.956
70
32
0
VERTEX
5
115
8
S5_346_516_LOCAL
62
140
10
478785.767
20
6772517.950
30
344.456
70
32
0
SEQEND
8
S5_346_516_LOCAL
0
POLYLINE
5
113
8
S5_346_516_LOCAL
62
140
66
140
70
8
1001
MAPTEK_VULCAN
1000
VulcanName=275
1000
VulcanGroup=
1000
VulcanValue=0
1000
VulcanDescription=Imported from Excel - ADB
1000
VulcanPrimitive=
1000
VulcanLine=0
1000
VulcanPattern=0
1000
VulcanFeature=
0
VERTEX
5
114
8
S5_346_516_LOCAL
62
140
10
478788.120
20
6772513.038
30
357.761
70
32
0
VERTEX
5
115
8
S5_346_516_LOCAL
62
140
10
478788.120
20
6772513.038
30
345.961
70
32
0
VERTEX
5
116
8
S5_346_516_LOCAL
62
140
10
478788.120
20
6772513.038
30
344.461
70
32
0
SEQEND
8
S5_346_516_LOCAL
0
POLYLINE
5
114
8
S5_346_516_LOCAL
62
140
66
140
70
8
1001
MAPTEK_VULCAN
1000
VulcanName=276
1000
VulcanGroup=
1000
VulcanValue=0
1000
VulcanDescription=Imported from Excel - ADB
1000
VulcanPrimitive=
1000
VulcanLine=0
1000
VulcanPattern=0
1000
VulcanFeature=
0
VERTEX
5
115
8
S5_346_516_LOCAL
62
140
10
478792.358
20
6772514.170
30
357.732
70
32
0
VERTEX
5
116
8
S5_346_516_LOCAL
62
140
10
478792.358
20
6772514.170
30
346.032
70
32
0
VERTEX
5
117
8
S5_346_516_LOCAL
62
140
10
478792.358
20
6772514.170
30
344.532
70
32
0
SEQEND
8
S5_346_516_LOCAL
0
POLYLINE
5
115
8
S5_346_516_LOCAL
62
140
66
140
70
8
1001
MAPTEK_VULCAN
1000
VulcanName=277
1000
VulcanGroup=
1000
VulcanValue=0
1000
VulcanDescription=Imported from Excel - ADB
1000
VulcanPrimitive=
1000
VulcanLine=0
1000
VulcanPattern=0
1000
VulcanFeature=
0
VERTEX
5
116
8
S5_346_516_LOCAL
62
140
10
478790.472
20
6772509.450
30
357.746
70
32
0
VERTEX
5
117
8
S5_346_516_LOCAL
62
140
10
478790.472
20
6772509.450
30
346.046
70
32
0
VERTEX
5
118
8
S5_346_516_LOCAL
62
140
10
478790.472
20
6772509.450
30
344.546
70
32
0
SEQEND
8
S5_346_516_LOCAL
0
POLYLINE
5
116
8
S5_346_516_LOCAL
62
140
66
140
70
8
1001
MAPTEK_VULCAN
1000
VulcanName=278
1000
VulcanGroup=
1000
VulcanValue=0
1000
VulcanDescription=Imported from Excel - ADB
1000
VulcanPrimitive=
1000
VulcanLine=0
1000
VulcanPattern=0
1000
VulcanFeature=
0
VERTEX
5
117
8
S5_346_516_LOCAL
62
140
10
478786.165
20
6772509.697
30
357.801
70
32
0
VERTEX
5
118
8
S5_346_516_LOCAL
62
140
10
478786.165
20
6772509.697
30
346.001
70
32
0
VERTEX
5
119
8
S5_346_516_LOCAL
62
140
10
478786.165
20
6772509.697
30
344.501
70
32
0
SEQEND
8
S5_346_516_LOCAL
0
POLYLINE
5
117
8
S5_346_516_LOCAL
62
140
66
140
70
8
1001
MAPTEK_VULCAN
1000
VulcanName=279
1000
VulcanGroup=
1000
VulcanValue=0
1000
VulcanDescription=Imported from Excel - ADB
1000
VulcanPrimitive=
1000
VulcanLine=0
1000
VulcanPattern=0
1000
VulcanFeature=
0
VERTEX
5
118
8
S5_346_516_LOCAL
62
140
10
478783.698
20
6772514.183
30
357.763
70
32
0
VERTEX
5
119
8
S5_346_516_LOCAL
62
140
10
478783.698
20
6772514.183
30
345.963
70
32
0
VERTEX
5
11A
8
S5_346_516_LOCAL
62
140
10
478783.698
20
6772514.183
30
344.463
70
32
0
SEQEND
8
S5_346_516_LOCAL
0
POLYLINE
5
118
8
S5_346_516_LOCAL
62
140
66
140
70
8
1001
MAPTEK_VULCAN
1000
VulcanName=280
1000
VulcanGroup=
1000
VulcanValue=0
1000
VulcanDescription=Imported from Excel - ADB
1000
VulcanPrimitive=
1000
VulcanLine=0
1000
VulcanPattern=0
1000
VulcanFeature=
0
VERTEX
5
119
8
S5_346_516_LOCAL
62
140
10
478780.709
20
6772517.909
30
357.787
70
32
0
VERTEX
5
11A
8
S5_346_516_LOCAL
62
140
10
478780.709
20
6772517.909
30
345.987
70
32
0
VERTEX
5
11B
8
S5_346_516_LOCAL
62
140
10
478780.709
20
6772517.909
30
344.487
70
32
0
SEQEND
8
S5_346_516_LOCAL
0
POLYLINE
5
119
8
S5_346_516_LOCAL
62
140
66
140
70
8
1001
MAPTEK_VULCAN
1000
VulcanName=281
1000
VulcanGroup=
1000
VulcanValue=0
1000
VulcanDescription=Imported from Excel - ADB
1000
VulcanPrimitive=
1000
VulcanLine=0
1000
VulcanPattern=0
1000
VulcanFeature=
0
VERTEX
5
11A
8
S5_346_516_LOCAL
62
140
10
478777.312
20
6772522.054
30
357.759
70
32
0
VERTEX
5
11B
8
S5_346_516_LOCAL
62
140
10
478777.312
20
6772522.054
30
345.959
70
32
0
VERTEX
5
11C
8
S5_346_516_LOCAL
62
140
10
478777.312
20
6772522.054
30
344.459
70
32
0
SEQEND
8
S5_346_516_LOCAL
0
POLYLINE
5
11A
8
S5_346_516_LOCAL
62
140
66
140
70
8
1001
MAPTEK_VULCAN
1000
VulcanName=282
1000
VulcanGroup=
1000
VulcanValue=0
1000
VulcanDescription=Imported from Excel - ADB
1000
VulcanPrimitive=
1000
VulcanLine=0
1000
VulcanPattern=0
1000
VulcanFeature=
0
VERTEX
5
11B
8
S5_346_516_LOCAL
62
140
10
478773.936
20
6772526.199
30
357.730
70
32
0
VERTEX
5
11C
8
S5_346_516_LOCAL
62
140
10
478773.936
20
6772526.199
30
346.030
70
32
0
VERTEX
5
11D
8
S5_346_516_LOCAL
62
140
10
478773.936
20
6772526.199
30
344.530
70
32
0
SEQEND
8
S5_346_516_LOCAL
0
POLYLINE
5
11B
8
S5_346_516_LOCAL
62
140
66
140
70
8
1001
MAPTEK_VULCAN
1000
VulcanName=283
1000
VulcanGroup=
1000
VulcanValue=0
1000
VulcanDescription=Imported from Excel - ADB
1000
VulcanPrimitive=
1000
VulcanLine=0
1000
VulcanPattern=0
1000
VulcanFeature=
0
VERTEX
5
11C
8
S5_346_516_LOCAL
62
140
10
478770.566
20
6772530.333
30
357.754
70
32
0
VERTEX
5
11D
8
S5_346_516_LOCAL
62
140
10
478770.566
20
6772530.333
30
345.954
70
32
0
VERTEX
5
11E
8
S5_346_516_LOCAL
62
140
10
478770.566
20
6772530.333
30
344.454
70
32
0
SEQEND
8
S5_346_516_LOCAL
0
POLYLINE
5
11C
8
S5_346_516_LOCAL
62
140
66
140
70
8
1001
MAPTEK_VULCAN
1000
VulcanName=284
1000
VulcanGroup=
1000
VulcanValue=0
1000
VulcanDescription=Imported from Excel - ADB
1000
VulcanPrimitive=
1000
VulcanLine=0
1000
VulcanPattern=0
1000
VulcanFeature=
0
VERTEX
5
11D
8
S5_346_516_LOCAL
62
140
10
478767.155
20
6772534.470
30
357.826
70
32
0
VERTEX
5
11E
8
S5_346_516_LOCAL
62
140
10
478767.155
20
6772534.470
30
346.026
70
32
0
VERTEX
5
11F
8
S5_346_516_LOCAL
62
140
10
478767.155
20
6772534.470
30
344.526
70
32
0
SEQEND
8
S5_346_516_LOCAL
0
POLYLINE
5
11D
8
S5_346_516_LOCAL
62
140
66
140
70
8
1001
MAPTEK_VULCAN
1000
VulcanName=285
1000
VulcanGroup=
1000
VulcanValue=0
1000
VulcanDescription=Imported from Excel - ADB
1000
VulcanPrimitive=
1000
VulcanLine=0
1000
VulcanPattern=0
1000
VulcanFeature=
0
VERTEX
5
11E
8
S5_346_516_LOCAL
62
140
10
478763.796
20
6772538.592
30
357.977
70
32
0
VERTEX
5
11F
8
S5_346_516_LOCAL
62
140
10
478763.796
20
6772538.592
30
345.977
70
32
0
VERTEX
5
120
8
S5_346_516_LOCAL
62
140
10
478763.796
20
6772538.592
30
344.477
70
32
0
SEQEND
8
S5_346_516_LOCAL
0
POLYLINE
5
11E
8
S5_346_516_LOCAL
62
140
66
140
70
8
1001
MAPTEK_VULCAN
1000
VulcanName=286
1000
VulcanGroup=
1000
VulcanValue=0
1000
VulcanDescription=Imported from Excel - ADB
1000
VulcanPrimitive=
1000
VulcanLine=0
1000
VulcanPattern=0
1000
VulcanFeature=
0
VERTEX
5
11F
8
S5_346_516_LOCAL
62
140
10
478760.355
20
6772542.583
30
358.059
70
32
0
VERTEX
5
120
8
S5_346_516_LOCAL
62
140
10
478760.355
20
6772542.583
30
345.959
70
32
0
VERTEX
5
121
8
S5_346_516_LOCAL
62
140
10
478760.355
20
6772542.583
30
344.459
70
32
0
SEQEND
8
S5_346_516_LOCAL
0
POLYLINE
5
11F
8
S5_346_516_LOCAL
62
140
66
140
70
8
1001
MAPTEK_VULCAN
1000
VulcanName=287
1000
VulcanGroup=
1000
VulcanValue=0
1000
VulcanDescription=Imported from Excel - ADB
1000
VulcanPrimitive=
1000
VulcanLine=0
1000
VulcanPattern=0
1000
VulcanFeature=
0
VERTEX
5
120
8
S5_346_516_LOCAL
62
140
10
478756.720
20
6772545.715
30
358.013
70
32
0
VERTEX
5
121
8
S5_346_516_LOCAL
62
140
10
478756.720
20
6772545.715
30
346.013
70
32
0
VERTEX
5
122
8
S5_346_516_LOCAL
62
140
10
478756.720
20
6772545.715
30
344.513
70
32
0
SEQEND
8
S5_346_516_LOCAL
0
POLYLINE
5
120
8
S5_346_516_LOCAL
62
140
66
140
70
8
1001
MAPTEK_VULCAN
1000
VulcanName=288
1000
VulcanGroup=
1000
VulcanValue=0
1000
VulcanDescription=Imported from Excel - ADB
1000
VulcanPrimitive=
1000
VulcanLine=0
1000
VulcanPattern=0
1000
VulcanFeature=
0
VERTEX
5
121
8
S5_346_516_LOCAL
62
140
10
478746.686
20
6772558.296
30
357.907
70
32
0
VERTEX
5
122
8
S5_346_516_LOCAL
62
140
10
478746.686
20
6772558.296
30
346.007
70
32
0
VERTEX
5
123
8
S5_346_516_LOCAL
62
140
10
478746.686
20
6772558.296
30
344.507
70
32
0
SEQEND
8
S5_346_516_LOCAL
0
POLYLINE
5
121
8
S5_346_516_LOCAL
62
140
66
140
70
8
1001
MAPTEK_VULCAN
1000
VulcanName=289
1000
VulcanGroup=
1000
VulcanValue=0
1000
VulcanDescription=Imported from Excel - ADB
1000
VulcanPrimitive=
1000
VulcanLine=0
1000
VulcanPattern=0
1000
VulcanFeature=
0
VERTEX
5
122
8
S5_346_516_LOCAL
62
140
10
478744.119
20
6772562.890
30
357.842
70
32
0
VERTEX
5
123
8
S5_346_516_LOCAL
62
140
10
478744.119
20
6772562.890
30
346.042
70
32
0
VERTEX
5
124
8
S5_346_516_LOCAL
62
140
10
478744.119
20
6772562.890
30
344.542
70
32
0
SEQEND
8
S5_346_516_LOCAL
0
POLYLINE
5
122
8
S5_346_516_LOCAL
62
140
66
140
70
8
1001
MAPTEK_VULCAN
1000
VulcanName=290
1000
VulcanGroup=
1000
VulcanValue=0
1000
VulcanDescription=Imported from Excel - ADB
1000
VulcanPrimitive=
1000
VulcanLine=0
1000
VulcanPattern=0
1000
VulcanFeature=
0
VERTEX
5
123
8
S5_346_516_LOCAL
62
140
10
478742.646
20
6772558.322
30
357.871
70
32
0
VERTEX
5
124
8
S5_346_516_LOCAL
62
140
10
478742.646
20
6772558.322
30
345.971
70
32
0
VERTEX
5
125
8
S5_346_516_LOCAL
62
140
10
478742.646
20
6772558.322
30
344.471
70
32
0
SEQEND
8
S5_346_516_LOCAL
0
POLYLINE
5
123
8
S5_346_516_LOCAL
62
140
66
140
70
8
1001
MAPTEK_VULCAN
1000
VulcanName=291
1000
VulcanGroup=
1000
VulcanValue=0
1000
VulcanDescription=Imported from Excel - ADB
1000
VulcanPrimitive=
1000
VulcanLine=0
1000
VulcanPattern=0
1000
VulcanFeature=
0
VERTEX
5
124
8
S5_346_516_LOCAL
62
140
10
478754.430
20
6772543.324
30
357.964
70
32
0
VERTEX
5
125
8
S5_346_516_LOCAL
62
140
10
478752.008
20
6772541.218
30
345.987
70
32
0
VERTEX
5
126
8
S5_346_516_LOCAL
62
140
10
478751.715
20
6772540.964
30
344.538
70
32
0
SEQEND
8
S5_346_516_LOCAL
0
POLYLINE
5
124
8
S5_346_516_LOCAL
62
140
66
140
70
8
1001
MAPTEK_VULCAN
1000
VulcanName=292
1000
VulcanGroup=
1000
VulcanValue=0
1000
VulcanDescription=Imported from Excel - ADB
1000
VulcanPrimitive=
1000
VulcanLine=0
1000
VulcanPattern=0
1000
VulcanFeature=
0
VERTEX
5
125
8
S5_346_516_LOCAL
62
140
10
478756.466
20
6772542.039
30
358.014
70
32
0
VERTEX
5
126
8
S5_346_516_LOCAL
62
140
10
478756.466
20
6772542.039
30
346.014
70
32
0
VERTEX
5
127
8
S5_346_516_LOCAL
62
140
10
478756.466
20
6772542.039
30
344.514
70
32
0
SEQEND
8
S5_346_516_LOCAL
0
POLYLINE
5
125
8
S5_346_516_LOCAL
62
140
66
140
70
8
1001
MAPTEK_VULCAN
1000
VulcanName=293
1000
VulcanGroup=
1000
VulcanValue=0
1000
VulcanDescription=Imported from Excel - ADB
1000
VulcanPrimitive=
1000
VulcanLine=0
1000
VulcanPattern=0
1000
VulcanFeature=
0
VERTEX
5
126
8
S5_346_516_LOCAL
62
140
10
478757.013
20
6772539.927
30
357.999
70
32
0
VERTEX
5
127
8
S5_346_516_LOCAL
62
140
10
478754.571
20
6772537.804
30
345.925
70
32
0
VERTEX
5
128
8
S5_346_516_LOCAL
62
140
10
478754.278
20
6772537.550
30
344.476
70
32
0
SEQEND
8
S5_346_516_LOCAL
0
POLYLINE
5
126
8
S5_346_516_LOCAL
62
140
66
140
70
8
1001
MAPTEK_VULCAN
1000
VulcanName=294
1000
VulcanGroup=
1000
VulcanValue=0
1000
VulcanDescription=Imported from Excel - ADB
1000
VulcanPrimitive=
1000
VulcanLine=0
1000
VulcanPattern=0
1000
VulcanFeature=
0
VERTEX
5
127
8
S5_346_516_LOCAL
62
140
10
478758.651
20
6772538.289
30
357.970
70
32
0
VERTEX
5
128
8
S5_346_516_LOCAL
62
140
10
478758.651
20
6772538.289
30
345.970
70
32
0
VERTEX
5
129
8
S5_346_516_LOCAL
62
140
10
478758.651
20
6772538.289
30
344.470
70
32
0
SEQEND
8
S5_346_516_LOCAL
0
POLYLINE
5
127
8
S5_346_516_LOCAL
62
140
66
140
70
8
1001
MAPTEK_VULCAN
1000
VulcanName=295
1000
VulcanGroup=
1000
VulcanValue=0
1000
VulcanDescription=Imported from Excel - ADB
1000
VulcanPrimitive=
1000
VulcanLine=0
1000
VulcanPattern=0
1000
VulcanFeature=
0
VERTEX
5
128
8
S5_346_516_LOCAL
62
140
10
478760.368
20
6772536.034
30
357.934
70
32
0
VERTEX
5
129
8
S5_346_516_LOCAL
62
140
10
478757.946
20
6772533.928
30
345.957
70
32
0
VERTEX
5
12A
8
S5_346_516_LOCAL
62
140
10
478757.653
20
6772533.674
30
344.508
70
32
0
SEQEND
8
S5_346_516_LOCAL
0
POLYLINE
5
128
8
S5_346_516_LOCAL
62
140
66
140
70
8
1001
MAPTEK_VULCAN
1000
VulcanName=296
1000
VulcanGroup=
1000
VulcanValue=0
1000
VulcanDescription=Imported from Excel - ADB
1000
VulcanPrimitive=
1000
VulcanLine=0
1000
VulcanPattern=0
1000
VulcanFeature=
0
VERTEX
5
129
8
S5_346_516_LOCAL
62
140
10
478762.042
20
6772534.211
30
357.905
70
32
0
VERTEX
5
12A
8
S5_346_516_LOCAL
62
140
10
478762.042
20
6772534.211
30
346.005
70
32
0
VERTEX
5
12B
8
S5_346_516_LOCAL
62
140
10
478762.042
20
6772534.211
30
344.505
70
32
0
SEQEND
8
S5_346_516_LOCAL
0
POLYLINE
5
129
8
S5_346_516_LOCAL
62
140
66
140
70
8
1001
MAPTEK_VULCAN
1000
VulcanName=297
1000
VulcanGroup=
1000
VulcanValue=0
1000
VulcanDescription=Imported from Excel - ADB
1000
VulcanPrimitive=
1000
VulcanLine=0
1000
VulcanPattern=0
1000
VulcanFeature=
0
VERTEX
5
12A
8
S5_346_516_LOCAL
62
140
10
478763.702
20
6772532.015
30
357.863
70
32
0
VERTEX
5
12B
8
S5_346_516_LOCAL
62
140
10
478761.299
20
6772529.926
30
345.982
70
32
0
VERTEX
5
12C
8
S5_346_516_LOCAL
62
140
10
478761.006
20
6772529.672
30
344.533
70
32
0
SEQEND
8
S5_346_516_LOCAL
0
POLYLINE
5
12A
8
S5_346_516_LOCAL
62
140
66
140
70
8
1001
MAPTEK_VULCAN
1000
VulcanName=298
1000
VulcanGroup=
1000
VulcanValue=0
1000
VulcanDescription=Imported from Excel - ADB
1000
VulcanPrimitive=
1000
VulcanLine=0
1000
VulcanPattern=0
1000
VulcanFeature=
0
VERTEX
5
12B
8
S5_346_516_LOCAL
62
140
10
478765.393
20
6772530.030
30
357.784
70
32
0
VERTEX
5
12C
8
S5_346_516_LOCAL
62
140
10
478765.393
20
6772530.030
30
345.984
70
32
0
VERTEX
5
12D
8
S5_346_516_LOCAL
62
140
10
478765.393
20
6772530.030
30
344.484
70
32
0
SEQEND
8
S5_346_516_LOCAL
0
POLYLINE
5
12B
8
S5_346_516_LOCAL
62
140
66
140
70
8
1001
MAPTEK_VULCAN
1000
VulcanName=299
1000
VulcanGroup=
1000
VulcanValue=0
1000
VulcanDescription=Imported from Excel - ADB
1000
VulcanPrimitive=
1000
VulcanLine=0
1000
VulcanPattern=0
1000
VulcanFeature=
0
VERTEX
5
12C
8
S5_346_516_LOCAL
62
140
10
478767.618
20
6772528.438
30
357.735
70
32
0
VERTEX
5
12D
8
S5_346_516_LOCAL
62
140
10
478765.235
20
6772526.366
30
345.951
70
32
0
VERTEX
5
12E
8
S5_346_516_LOCAL
62
140
10
478764.942
20
6772526.112
30
344.502
70
32
0
SEQEND
8
S5_346_516_LOCAL
0
POLYLINE
5
12C
8
S5_346_516_LOCAL
62
140
66
140
70
8
1001
MAPTEK_VULCAN
1000
VulcanName=300
1000
VulcanGroup=
1000
VulcanValue=0
1000
VulcanDescription=Imported from Excel - ADB
1000
VulcanPrimitive=
1000
VulcanLine=0
1000
VulcanPattern=0
1000
VulcanFeature=
0
VERTEX
5
12D
8
S5_346_516_LOCAL
62
140
10
478769.526
20
6772526.029
30
357.741
70
32
0
VERTEX
5
12E
8
S5_346_516_LOCAL
62
140
10
478769.526
20
6772526.029
30
346.041
70
32
0
VERTEX
5
12F
8
S5_346_516_LOCAL
62
140
10
478769.526
20
6772526.029
30
344.541
70
32
0
SEQEND
8
S5_346_516_LOCAL
0
POLYLINE
5
12D
8
S5_346_516_LOCAL
62
140
66
140
70
8
1001
MAPTEK_VULCAN
1000
VulcanName=301
1000
VulcanGroup=
1000
VulcanValue=0
1000
VulcanDescription=Imported from Excel - ADB
1000
VulcanPrimitive=
1000
VulcanLine=0
1000
VulcanPattern=0
1000
VulcanFeature=
0
VERTEX
5
12E
8
S5_346_516_LOCAL
62
140
10
478771.463
20
6772523.292
30
357.762
70
32
0
VERTEX
5
12F
8
S5_346_516_LOCAL
62
140
10
478769.080
20
6772521.220
30
345.978
70
32
0
VERTEX
5
130
8
S5_346_516_LOCAL
62
140
10
478768.787
20
6772520.966
30
344.529
70
32
0
SEQEND
8
S5_346_516_LOCAL
0
POLYLINE
5
12E
8
S5_346_516_LOCAL
62
140
66
140
70
8
1001
MAPTEK_VULCAN
1000
VulcanName=302
1000
VulcanGroup=
1000
VulcanValue=0
1000
VulcanDescription=Imported from Excel - ADB
1000
VulcanPrimitive=
1000
VulcanLine=0
1000
VulcanPattern=0
1000
VulcanFeature=
0
VERTEX
5
12F
8
S5_346_516_LOCAL
62
140
10
478773.227
20
6772521.153
30
357.813
70
32
0
VERTEX
5
130
8
S5_346_516_LOCAL
62
140
10
478773.227
20
6772521.153
30
346.013
70
32
0
VERTEX
5
131
8
S5_346_516_LOCAL
62
140
10
478773.227
20
6772521.153
30
344.513
70
32
0
SEQEND
8
S5_346_516_LOCAL
0
POLYLINE
5
12F
8
S5_346_516_LOCAL
62
140
66
140
70
8
1001
MAPTEK_VULCAN
1000
VulcanName=303
1000
VulcanGroup=
1000
VulcanValue=0
1000
VulcanDescription=Imported from Excel - ADB
1000
VulcanPrimitive=
1000
VulcanLine=0
1000
VulcanPattern=0
1000
VulcanFeature=
0
VERTEX
5
130
8
S5_346_516_LOCAL
62
140
10
478774.618
20
6772518.665
30
357.835
70
32
0
VERTEX
5
131
8
S5_346_516_LOCAL
62
140
10
478772.215
20
6772516.576
30
345.954
70
32
0
VERTEX
5
132
8
S5_346_516_LOCAL
62
140
10
478771.922
20
6772516.322
30
344.505
70
32
0
SEQEND
8
S5_346_516_LOCAL
0
POLYLINE
5
130
8
S5_346_516_LOCAL
62
140
66
140
70
8
1001
MAPTEK_VULCAN
1000
VulcanName=304
1000
VulcanGroup=
1000
VulcanValue=0
1000
VulcanDescription=Imported from Excel - ADB
1000
VulcanPrimitive=
1000
VulcanLine=0
1000
VulcanPattern=0
1000
VulcanFeature=
0
VERTEX
5
131
8
S5_346_516_LOCAL
62
140
10
478776.496
20
6772516.850
30
357.850
70
32
0
VERTEX
5
132
8
S5_346_516_LOCAL
62
140
10
478776.496
20
6772516.850
30
346.050
70
32
0
VERTEX
5
133
8
S5_346_516_LOCAL
62
140
10
478776.496
20
6772516.850
30
344.550
70
32
0
SEQEND
8
S5_346_516_LOCAL
0
POLYLINE
5
131
8
S5_346_516_LOCAL
62
140
66
140
70
8
1001
MAPTEK_VULCAN
1000
VulcanName=305
1000
VulcanGroup=
1000
VulcanValue=0
1000
VulcanDescription=Imported from Excel - ADB
1000
VulcanPrimitive=
1000
VulcanLine=0
1000
VulcanPattern=0
1000
VulcanFeature=
0
VERTEX
5
132
8
S5_346_516_LOCAL
62
140
10
478778.476
20
6772515.027
30
357.885
70
32
0
VERTEX
5
133
8
S5_346_516_LOCAL
62
140
10
478776.054
20
6772512.921
30
345.908
70
32
0
VERTEX
5
134
8
S5_346_516_LOCAL
62
140
10
478775.761
20
6772512.667
30
344.459
70
32
0
SEQEND
8
S5_346_516_LOCAL
0
POLYLINE
5
132
8
S5_346_516_LOCAL
62
140
66
140
70
8
1001
MAPTEK_VULCAN
1000
VulcanName=306
1000
VulcanGroup=
1000
VulcanValue=0
1000
VulcanDescription=Imported from Excel - ADB
1000
VulcanPrimitive=
1000
VulcanLine=0
1000
VulcanPattern=0
1000
VulcanFeature=
0
VERTEX
5
133
8
S5_346_516_LOCAL
62
140
10
478780.551
20
6772513.250
30
357.846
70
32
0
VERTEX
5
134
8
S5_346_516_LOCAL
62
140
10
478780.551
20
6772513.250
30
346.046
70
32
0
VERTEX
5
135
8
S5_346_516_LOCAL
62
140
10
478780.551
20
6772513.250
30
344.546
70
32
0
SEQEND
8
S5_346_516_LOCAL
0
POLYLINE
5
133
8
S5_346_516_LOCAL
62
140
66
140
70
8
1001
MAPTEK_VULCAN
1000
VulcanName=307
1000
VulcanGroup=
1000
VulcanValue=0
1000
VulcanDescription=Imported from Excel - ADB
1000
VulcanPrimitive=
1000
VulcanLine=0
1000
VulcanPattern=0
1000
VulcanFeature=
0
VERTEX
5
134
8
S5_346_516_LOCAL
62
140
10
478781.526
20
6772510.449
30
357.795
70
32
0
VERTEX
5
135
8
S5_346_516_LOCAL
62
140
10
478779.123
20
6772508.360
30
345.914
70
32
0
VERTEX
5
136
8
S5_346_516_LOCAL
62
140
10
478778.830
20
6772508.106
30
344.465
70
32
0
SEQEND
8
S5_346_516_LOCAL
0
POLYLINE
5
134
8
S5_346_516_LOCAL
62
140
66
140
70
8
1001
MAPTEK_VULCAN
1000
VulcanName=308
1000
VulcanGroup=
1000
VulcanValue=0
1000
VulcanDescription=Imported from Excel - ADB
1000
VulcanPrimitive=
1000
VulcanLine=0
1000
VulcanPattern=0
1000
VulcanFeature=
0
VERTEX
5
135
8
S5_346_516_LOCAL
62
140
10
478783.530
20
6772507.901
30
357.831
70
32
0
VERTEX
5
136
8
S5_346_516_LOCAL
62
140
10
478783.530
20
6772507.901
30
346.031
70
32
0
VERTEX
5
137
8
S5_346_516_LOCAL
62
140
10
478783.530
20
6772507.901
30
344.531
70
32
0
SEQEND
8
S5_346_516_LOCAL
0
POLYLINE
5
135
8
S5_346_516_LOCAL
62
140
66
140
70
8
1001
MAPTEK_VULCAN
1000
VulcanName=309
1000
VulcanGroup=
1000
VulcanValue=0
1000
VulcanDescription=Imported from Excel - ADB
1000
VulcanPrimitive=
1000
VulcanLine=0
1000
VulcanPattern=0
1000
VulcanFeature=
0
VERTEX
5
136
8
S5_346_516_LOCAL
62
140
10
478785.582
20
6772505.825
30
357.811
70
32
0
VERTEX
5
137
8
S5_346_516_LOCAL
62
140
10
478783.179
20
6772503.736
30
345.930
70
32
0
VERTEX
5
138
8
S5_346_516_LOCAL
62
140
10
478782.886
20
6772503.482
30
344.481
70
32
0
SEQEND
8
S5_346_516_LOCAL
0
POLYLINE
5
136
8
S5_346_516_LOCAL
62
140
66
140
70
8
1001
MAPTEK_VULCAN
1000
VulcanName=310
1000
VulcanGroup=
1000
VulcanValue=0
1000
VulcanDescription=Imported from Excel - ADB
1000
VulcanPrimitive=
1000
VulcanLine=0
1000
VulcanPattern=0
1000
VulcanFeature=
0
VERTEX
5
137
8
S5_346_516_LOCAL
62
140
10
478788.034
20
6772505.607
30
357.839
70
32
0
VERTEX
5
138
8
S5_346_516_LOCAL
62
140
10
478788.034
20
6772505.607
30
346.039
70
32
0
VERTEX
5
139
8
S5_346_516_LOCAL
62
140
10
478788.034
20
6772505.607
30
344.539
70
32
0
SEQEND
8
S5_346_516_LOCAL
0
POLYLINE
5
137
8
S5_346_516_LOCAL
62
140
66
140
70
8
1001
MAPTEK_VULCAN
1000
VulcanName=311
1000
VulcanGroup=
1000
VulcanValue=0
1000
VulcanDescription=Imported from Excel - ADB
1000
VulcanPrimitive=
1000
VulcanLine=0
1000
VulcanPattern=0
1000
VulcanFeature=
0
VERTEX
5
138
8
S5_346_516_LOCAL
62
140
10
478755.140
20
6772549.432
30
358.104
70
32
0
VERTEX
5
139
8
S5_346_516_LOCAL
62
140
10
478755.140
20
6772549.432
30
346.004
70
32
0
VERTEX
5
13A
8
S5_346_516_LOCAL
62
140
10
478755.140
20
6772549.432
30
344.504
70
32
0
SEQEND
8
S5_346_516_LOCAL
0
POLYLINE
5
138
8
S5_346_516_LOCAL
62
140
66
140
70
8
1001
MAPTEK_VULCAN
1000
VulcanName=312
1000
VulcanGroup=
1000
VulcanValue=0
1000
VulcanDescription=Imported from Excel - ADB
1000
VulcanPrimitive=
1000
VulcanLine=0
1000
VulcanPattern=0
1000
VulcanFeature=
0
VERTEX
5
139
8
S5_346_516_LOCAL
62
140
10
478752.793
20
6772552.421
30
358.431
70
32
0
VERTEX
5
13A
8
S5_346_516_LOCAL
62
140
10
478752.793
20
6772552.421
30
346.031
70
32
0
VERTEX
5
13B
8
S5_346_516_LOCAL
62
140
10
478752.793
20
6772552.421
30
344.531
70
32
0
SEQEND
8
S5_346_516_LOCAL
0
POLYLINE
5
139
8
S5_346_516_LOCAL
62
140
66
140
70
8
1001
MAPTEK_VULCAN
1000
VulcanName=313
1000
VulcanGroup=
1000
VulcanValue=0
1000
VulcanDescription=Imported from Excel - ADB
1000
VulcanPrimitive=
1000
VulcanLine=0
1000
VulcanPattern=0
1000
VulcanFeature=
0
VERTEX
5
13A
8
S5_346_516_LOCAL
62
140
10
478750.447
20
6772555.410
30
358.350
70
32
0
VERTEX
5
13B
8
S5_346_516_LOCAL
62
140
10
478750.447
20
6772555.410
30
345.950
70
32
0
VERTEX
5
13C
8
S5_346_516_LOCAL
62
140
10
478750.447
20
6772555.410
30
344.450
70
32
0
SEQEND
8
S5_346_516_LOCAL
0
POLYLINE
5
13A
8
S5_346_516_LOCAL
62
140
66
140
70
8
1001
MAPTEK_VULCAN
1000
VulcanName=314
1000
VulcanGroup=
1000
VulcanValue=0
1000
VulcanDescription=Imported from Excel - ADB
1000
VulcanPrimitive=
1000
VulcanLine=0
1000
VulcanPattern=0
1000
VulcanFeature=
0
VERTEX
5
13B
8
S5_346_516_LOCAL
62
140
10
478746.679
20
6772554.864
30
358.129
70
32
0
VERTEX
5
13C
8
S5_346_516_LOCAL
62
140
10
478746.679
20
6772554.864
30
346.029
70
32
0
VERTEX
5
13D
8
S5_346_516_LOCAL
62
140
10
478746.679
20
6772554.864
30
344.529
70
32
0
SEQEND
8
S5_346_516_LOCAL
0
POLYLINE
5
13B
8
S5_346_516_LOCAL
62
140
66
140
70
8
1001
MAPTEK_VULCAN
1000
VulcanName=315
1000
VulcanGroup=
1000
VulcanValue=0
1000
VulcanDescription=Imported from Excel - ADB
1000
VulcanPrimitive=
1000
VulcanLine=0
1000
VulcanPattern=0
1000
VulcanFeature=
0
VERTEX
5
13C
8
S5_346_516_LOCAL
62
140
10
478749.414
20
6772552.128
30
358.160
70
32
0
VERTEX
5
13D
8
S5_346_516_LOCAL
62
140
10
478749.414
20
6772552.128
30
345.960
70
32
0
VERTEX
5
13E
8
S5_346_516_LOCAL
62
140
10
478749.414
20
6772552.128
30
344.460
70
32
0
SEQEND
8
S5_346_516_LOCAL
0
POLYLINE
5
13C
8
S5_346_516_LOCAL
62
140
66
140
70
8
1001
MAPTEK_VULCAN
1000
VulcanName=316
1000
VulcanGroup=
1000
VulcanValue=0
1000
VulcanDescription=Imported from Excel - ADB
1000
VulcanPrimitive=
1000
VulcanLine=0
1000
VulcanPattern=0
1000
VulcanFeature=
0
VERTEX
5
13D
8
S5_346_516_LOCAL
62
140
10
478751.947
20
6772549.216
30
358.036
70
32
0
VERTEX
5
13E
8
S5_346_516_LOCAL
62
140
10
478751.947
20
6772549.216
30
346.036
70
32
0
VERTEX
5
13F
8
S5_346_516_LOCAL
62
140
10
478751.947
20
6772549.216
30
344.536
70
32
0
SEQEND
8
S5_346_516_LOCAL
0
POLYLINE
5
13D
8
S5_346_516_LOCAL
62
140
66
140
70
8
1001
MAPTEK_VULCAN
1000
VulcanName=317
1000
VulcanGroup=
1000
VulcanValue=0
1000
VulcanDescription=Imported from Excel - ADB
1000
VulcanPrimitive=
1000
VulcanLine=0
1000
VulcanPattern=0
1000
VulcanFeature=
0
VERTEX
5
13E
8
S5_346_516_LOCAL
62
140
10
478753.717
20
6772545.900
30
358.019
70
32
0
VERTEX
5
13F
8
S5_346_516_LOCAL
62
140
10
478753.717
20
6772545.900
30
346.019
70
32
0
VERTEX
5
140
8
S5_346_516_LOCAL
62
140
10
478753.717
20
6772545.900
30
344.519
70
32
0
SEQEND
8
S5_346_516_LOCAL
0
POLYLINE
5
13E
8
S5_346_516_LOCAL
62
140
66
140
70
8
1001
MAPTEK_VULCAN
1000
VulcanName=318
1000
VulcanGroup=
1000
VulcanValue=0
1000
VulcanDescription=Imported from Excel - ADB
1000
VulcanPrimitive=
1000
VulcanLine=0
1000
VulcanPattern=0
1000
VulcanFeature=
0
VERTEX
5
13F
8
S5_346_516_LOCAL
62
140
10
478751.901
20
6772546.983
30
358.192
70
32
0
VERTEX
5
140
8
S5_346_516_LOCAL
62
140
10
478749.383
20
6772544.870
30
345.925
70
32
0
VERTEX
5
141
8
S5_346_516_LOCAL
62
140
10
478749.086
20
6772544.621
30
344.476
70
32
0
SEQEND
8
S5_346_516_LOCAL
0
POLYLINE
5
13F
8
S5_346_516_LOCAL
62
140
66
140
70
8
1001
MAPTEK_VULCAN
1000
VulcanName=319
1000
VulcanGroup=
1000
VulcanValue=0
1000
VulcanDescription=Imported from Excel - ADB
1000
VulcanPrimitive=
1000
VulcanLine=0
1000
VulcanPattern=0
1000
VulcanFeature=
0
VERTEX
5
140
8
S5_346_516_LOCAL
62
140
10
478750.531
20
6772547.994
30
358.136
70
32
0
VERTEX
5
141
8
S5_346_516_LOCAL
62
140
10
478750.531
20
6772547.994
30
346.036
70
32
0
VERTEX
5
142
8
S5_346_516_LOCAL
62
140
10
478750.531
20
6772547.994
30
344.536
70
32
0
SEQEND
8
S5_346_516_LOCAL
0
POLYLINE
5
140
8
S5_346_516_LOCAL
62
140
66
140
70
8
1001
MAPTEK_VULCAN
1000
VulcanName=320
1000
VulcanGroup=
1000
VulcanValue=0
1000
VulcanDescription=Imported from Excel - ADB
1000
VulcanPrimitive=
1000
VulcanLine=0
1000
VulcanPattern=0
1000
VulcanFeature=
0
VERTEX
5
141
8
S5_346_516_LOCAL
62
140
10
478749.126
20
6772549.581
30
358.003
70
32
0
VERTEX
5
142
8
S5_346_516_LOCAL
62
140
10
478746.648
20
6772547.501
30
345.929
70
32
0
VERTEX
5
143
8
S5_346_516_LOCAL
62
140
10
478746.350
20
6772547.252
30
344.480
70
32
0
SEQEND
8
S5_346_516_LOCAL
0
POLYLINE
5
141
8
S5_346_516_LOCAL
62
140
66
140
70
8
1001
MAPTEK_VULCAN
1000
VulcanName=321
1000
VulcanGroup=
1000
VulcanValue=0
1000
VulcanDescription=Imported from Excel - ADB
1000
VulcanPrimitive=
1000
VulcanLine=0
1000
VulcanPattern=0
1000
VulcanFeature=
0
VERTEX
5
142
8
S5_346_516_LOCAL
62
140
10
478747.739
20
6772550.827
30
358.104
70
32
0
VERTEX
5
143
8
S5_346_516_LOCAL
62
140
10
478747.739
20
6772550.827
30
346.004
70
32
0
VERTEX
5
144
8
S5_346_516_LOCAL
62
140
10
478747.739
20
6772550.827
30
344.504
70
32
0
SEQEND
8
S5_346_516_LOCAL
0
POLYLINE
5
142
8
S5_346_516_LOCAL
62
140
66
140
70
8
1001
MAPTEK_VULCAN
1000
VulcanName=322
1000
VulcanGroup=
1000
VulcanValue=0
1000
VulcanDescription=Imported from Excel - ADB
1000
VulcanPrimitive=
1000
VulcanLine=0
1000
VulcanPattern=0
1000
VulcanFeature=
0
VERTEX
5
143
8
S5_346_516_LOCAL
62
140
10
478746.482
20
6772552.363
30
358.071
70
32
0
VERTEX
5
144
8
S5_346_516_LOCAL
62
140
10
478743.984
20
6772550.267
30
345.900
70
32
0
VERTEX
5
145
8
S5_346_516_LOCAL
62
140
10
478743.686
20
6772550.017
30
344.451
70
32
0
SEQEND
8
S5_346_516_LOCAL
0
POLYLINE
5
143
8
S5_346_516_LOCAL
62
140
66
140
70
8
1001
MAPTEK_VULCAN
1000
VulcanName=323
1000
VulcanGroup=
1000
VulcanValue=0
1000
VulcanDescription=Imported from Excel - ADB
1000
VulcanPrimitive=
1000
VulcanLine=0
1000
VulcanPattern=0
1000
VulcanFeature=
0
VERTEX
5
144
8
S5_346_516_LOCAL
62
140
10
478744.905
20
6772553.398
30
358.168
70
32
0
VERTEX
5
145
8
S5_346_516_LOCAL
62
140
10
478744.905
20
6772553.398
30
345.968
70
32
0
VERTEX
5
146
8
S5_346_516_LOCAL
62
140
10
478744.905
20
6772553.398
30
344.468
70
32
0
SEQEND
8
S5_346_516_LOCAL
0
POLYLINE
5
144
8
S5_346_516_LOCAL
62
140
66
140
70
8
1001
MAPTEK_VULCAN
1000
VulcanName=324
1000
VulcanGroup=
1000
VulcanValue=0
1000
VulcanDescription=Imported from Excel - ADB
1000
VulcanPrimitive=
1000
VulcanLine=0
1000
VulcanPattern=0
1000
VulcanFeature=
0
VERTEX
5
145
8
S5_346_516_LOCAL
62
140
10
478743.711
20
6772555.089
30
358.148
70
32
0
VERTEX
5
146
8
S5_346_516_LOCAL
62
140
10
478741.213
20
6772552.993
30
345.977
70
32
0
VERTEX
5
147
8
S5_346_516_LOCAL
62
140
10
478740.915
20
6772552.743
30
344.528
70
32
0
SEQEND
8
S5_346_516_LOCAL
0
ENDSEC
0
EOF

