0
SECTION
2
HEADER
0
ENDSEC
0
SECTION
2
TABLES
0
ENDSEC
0
SECTION
2
BLOCKS
0
ENDSEC
0
SECTION
2
ENTITIES
0
POLYLINE
8
CREST300
66
1
70
1
62
12
0
VERTEX
8
CREST300
10
475588.2189
20
6779305.02
30
300
0
VERTEX
8
CREST300
10
475489.2061
20
6779274.231
30
300
0
VERTEX
8
CREST300
10
475484.01
20
6779272.916
30
300
0
VERTEX
8
CREST300
10
475478.7029
20
6779272.165
30
300
0
VERTEX
8
CREST300
10
475473.346
20
6779271.986
30
300
0
VERTEX
8
CREST300
10
475419.0446
20
6779273.087
30
300
0
VERTEX
8
CREST300
10
475413.8831
20
6779273.873
30
300
0
VERTEX
8
CREST300
10
475409.1009
20
6779275.969
30
300
0
VERTEX
8
CREST300
10
475405.0241
20
6779279.23
30
300
0
VERTEX
8
CREST300
10
475384.6919
20
6779300.404
30
300
0
VERTEX
8
CREST300
10
475380.6661
20
6779306.54
30
300
0
VERTEX
8
CREST300
10
475379.125
20
6779313.716
30
300
0
VERTEX
8
CREST300
10
475380.2761
20
6779320.964
30
300
0
VERTEX
8
CREST300
10
475410.4611
20
6779405.751
30
300
0
VERTEX
8
CREST300
10
475412.9754
20
6779411.392
30
300
0
VERTEX
8
CREST300
10
475416.328
20
6779416.579
30
300
0
VERTEX
8
CREST300
10
475420.4391
20
6779421.188
30
300
0
VERTEX
8
CREST300
10
475442.8818
20
6779442.739
30
300
0
VERTEX
8
CREST300
10
475447.6533
20
6779446.659
30
300
0
VERTEX
8
CREST300
10
475452.9715
20
6779449.799
30
300
0
VERTEX
8
CREST300
10
475458.7096
20
6779452.083
30
300
0
VERTEX
8
CREST300
10
475532.8471
20
6779475.137
30
300
0
VERTEX
8
CREST300
10
475547.4252
20
6779476.849
30
300
0
VERTEX
8
CREST300
10
475561.6396
20
6779473.188
30
300
0
VERTEX
8
CREST300
10
475573.5763
20
6779464.646
30
300
0
VERTEX
8
CREST300
10
475582.4781
20
6779455.376
30
300
0
VERTEX
8
CREST300
10
475588.5934
20
6779450.483
30
300
0
VERTEX
8
CREST300
10
475595.7666
20
6779447.34
30
300
0
VERTEX
8
CREST300
10
475603.5089
20
6779446.161
30
300
0
VERTEX
8
CREST300
10
475649.3574
20
6779445.231
30
300
0
VERTEX
8
CREST300
10
475657.141
20
6779446.096
30
300
0
VERTEX
8
CREST300
10
475664.4357
20
6779448.946
30
300
0
VERTEX
8
CREST300
10
475670.7443
20
6779453.587
30
300
0
VERTEX
8
CREST300
10
475685.8951
20
6779468.135
30
300
0
VERTEX
8
CREST300
10
475694.3064
20
6779474.323
30
300
0
VERTEX
8
CREST300
10
475704.0327
20
6779478.123
30
300
0
VERTEX
8
CREST300
10
475714.411
20
6779479.275
30
300
0
VERTEX
8
CREST300
10
475822.673
20
6779477.081
30
300
0
VERTEX
8
CREST300
10
475832.996
20
6779475.508
30
300
0
VERTEX
8
CREST300
10
475842.5603
20
6779471.318
30
300
0
VERTEX
8
CREST300
10
475850.714
20
6779464.794
30
300
0
VERTEX
8
CREST300
10
475862.3938
20
6779452.631
30
300
0
VERTEX
8
CREST300
10
475868.5813
20
6779444.22
30
300
0
VERTEX
8
CREST300
10
475872.381
20
6779434.494
30
300
0
VERTEX
8
CREST300
10
475873.5339
20
6779424.115
30
300
0
VERTEX
8
CREST300
10
475872.7724
20
6779386.549
30
300
0
VERTEX
8
CREST300
10
475871.1999
20
6779376.226
30
300
0
VERTEX
8
CREST300
10
475867.0092
20
6779366.662
30
300
0
VERTEX
8
CREST300
10
475860.4859
20
6779358.508
30
300
0
VERTEX
8
CREST300
10
475821.7252
20
6779321.288
30
300
0
VERTEX
8
CREST300
10
475778.0818
20
6779340.633
30
300
0
VERTEX
8
CREST300
10
475767.0176
20
6779318.214
30
300
0
VERTEX
8
CREST300
10
475713.8841
20
6779341.407
30
300
0
VERTEX
8
CREST300
10
475701.8292
20
6779345.198
30
300
0
VERTEX
8
CREST300
10
475688.391
20
6779346.413
30
300
0
VERTEX
8
CREST300
10
475677.226
20
6779344.992
30
300
0
VERTEX
8
CREST300
10
475672.1004
20
6779338.382
30
300
0
VERTEX
8
CREST300
10
475666.8645
20
6779332.864
30
300
0
VERTEX
8
CREST300
10
475660.2271
20
6779328.249
30
300
0
VERTEX
8
CREST300
10
475653.2313
20
6779325.262
30
300
0
SEQEND
8
CREST300
0
POLYLINE
8
TOE300
66
1
70
1
62
8
0
VERTEX
8
TOE300
10
475590.0005
20
6779299.291
30
300
0
VERTEX
8
TOE300
10
475490.8341
20
6779268.454
30
300
0
VERTEX
8
TOE300
10
475485.1697
20
6779267.021
30
300
0
VERTEX
8
TOE300
10
475479.2249
20
6779266.179
30
300
0
VERTEX
8
TOE300
10
475473.3852
20
6779265.984
30
300
0
VERTEX
8
TOE300
10
475418.5298
20
6779267.096
30
300
0
VERTEX
8
TOE300
10
475412.1986
20
6779268.061
30
300
0
VERTEX
8
TOE300
10
475405.9695
20
6779270.79
30
300
0
VERTEX
8
TOE300
10
475400.9687
20
6779274.791
30
300
0
VERTEX
8
TOE300
10
475379.9796
20
6779296.649
30
300
0
VERTEX
8
TOE300
10
475375.035
20
6779304.186
30
300
0
VERTEX
8
TOE300
10
475373.0236
20
6779313.551
30
300
0
VERTEX
8
TOE300
10
475374.4374
20
6779322.454
30
300
0
VERTEX
8
TOE300
10
475404.8865
20
6779407.982
30
300
0
VERTEX
8
TOE300
10
475407.6843
20
6779414.259
30
300
0
VERTEX
8
TOE300
10
475411.5413
20
6779420.226
30
300
0
VERTEX
8
TOE300
10
475416.116
20
6779425.355
30
300
0
VERTEX
8
TOE300
10
475438.8933
20
6779447.227
30
300
0
VERTEX
8
TOE300
10
475444.2029
20
6779451.59
30
300
0
VERTEX
8
TOE300
10
475450.3212
20
6779455.202
30
300
0
VERTEX
8
TOE300
10
475456.7065
20
6779457.743
30
300
0
VERTEX
8
TOE300
10
475531.5956
20
6779481.031
30
300
0
VERTEX
8
TOE300
10
475547.8373
20
6779482.939
30
300
0
VERTEX
8
TOE300
10
475564.2207
20
6779478.719
30
300
0
VERTEX
8
TOE300
10
475577.5195
20
6779469.202
30
300
0
VERTEX
8
TOE300
10
475586.5335
20
6779459.815
30
300
0
VERTEX
8
TOE300
10
475591.7249
20
6779455.662
30
300
0
VERTEX
8
TOE300
10
475597.4511
20
6779453.153
30
300
0
VERTEX
8
TOE300
10
475604.0237
20
6779452.152
30
300
0
VERTEX
8
TOE300
10
475649.0858
20
6779451.238
30
300
0
VERTEX
8
TOE300
10
475655.6935
20
6779451.972
30
300
0
VERTEX
8
TOE300
10
475661.5167
20
6779454.247
30
300
0
VERTEX
8
TOE300
10
475666.8721
20
6779458.187
30
300
0
VERTEX
8
TOE300
10
475682.0229
20
6779472.735
30
300
0
VERTEX
8
TOE300
10
475691.3874
20
6779479.624
30
300
0
VERTEX
8
TOE300
10
475702.5852
20
6779483.999
30
300
0
VERTEX
8
TOE300
10
475714.1394
20
6779485.282
30
300
0
VERTEX
8
TOE300
10
475823.1878
20
6779483.072
30
300
0
VERTEX
8
TOE300
10
475834.6805
20
6779481.321
30
300
0
VERTEX
8
TOE300
10
475845.6918
20
6779476.496
30
300
0
VERTEX
8
TOE300
10
475854.7694
20
6779469.234
30
300
0
VERTEX
8
TOE300
10
475866.9939
20
6779456.503
30
300
0
VERTEX
8
TOE300
10
475873.8826
20
6779447.139
30
300
0
VERTEX
8
TOE300
10
475878.2571
20
6779435.941
30
300
0
VERTEX
8
TOE300
10
475879.5406
20
6779424.387
30
300
0
VERTEX
8
TOE300
10
475878.7632
20
6779386.035
30
300
0
VERTEX
8
TOE300
10
475871.6497
20
6779292.918
30
300
0
VERTEX
8
TOE300
10
475858.0925
20
6779277.469
30
300
0
VERTEX
8
TOE300
10
475783.5071
20
6779337.005
30
300
0
VERTEX
8
TOE300
10
475767.0176
20
6779318.214
30
300
0
VERTEX
8
TOE300
10
475747.8065
20
6779316.467
30
300
0
VERTEX
8
TOE300
10
475742.7635
20
6779316.374
30
300
0
VERTEX
8
TOE300
10
475737.7594
20
6779317.006
30
300
0
VERTEX
8
TOE300
10
475732.8981
20
6779318.351
30
300
0
VERTEX
8
TOE300
10
475708.9721
20
6779326.869
30
300
0
VERTEX
8
TOE300
10
475699.5027
20
6779329.133
30
300
0
VERTEX
8
TOE300
10
475690.0922
20
6779329.324
30
300
0
VERTEX
8
TOE300
10
475680.5388
20
6779327.445
30
300
0
SEQEND
8
TOE300
0
POLYLINE
8
CREST310
66
1
70
1
62
12
0
VERTEX
8
CREST310
10
475591.3852
20
6779294.838
30
310
0
VERTEX
8
CREST310
10
475491.9781
20
6779263.933
30
310
0
VERTEX
8
CREST310
10
475485.8232
20
6779262.404
30
310
0
VERTEX
8
CREST310
10
475479.3804
20
6779261.519
30
310
0
VERTEX
8
CREST310
10
475473.2907
20
6779261.322
30
310
0
VERTEX
8
CREST310
10
475418.1297
20
6779262.44
30
310
0
VERTEX
8
CREST310
10
475410.8895
20
6779263.543
30
310
0
VERTEX
8
CREST310
10
475403.5357
20
6779266.765
30
310
0
VERTEX
8
CREST310
10
475397.817
20
6779271.341
30
310
0
VERTEX
8
CREST310
10
475376.3173
20
6779293.73
30
310
0
VERTEX
8
CREST310
10
475370.6587
20
6779302.356
30
310
0
VERTEX
8
CREST310
10
475368.2817
20
6779313.423
30
310
0
VERTEX
8
CREST310
10
475369.8997
20
6779323.611
30
310
0
VERTEX
8
CREST310
10
475400.6273
20
6779409.881
30
310
0
VERTEX
8
CREST310
10
475403.5721
20
6779416.488
30
310
0
VERTEX
8
CREST310
10
475407.8212
20
6779423.061
30
310
0
VERTEX
8
CREST310
10
475412.8862
20
6779428.718
30
310
0
VERTEX
8
CREST310
10
475435.9328
20
6779450.83
30
310
0
VERTEX
8
CREST310
10
475441.5214
20
6779455.422
30
310
0
VERTEX
8
CREST310
10
475448.2615
20
6779459.401
30
310
0
VERTEX
8
CREST310
10
475455.3218
20
6779462.196
30
310
0
VERTEX
8
CREST310
10
475530.623
20
6779485.612
30
310
0
VERTEX
8
CREST310
10
475548.1576
20
6779487.672
30
310
0
VERTEX
8
CREST310
10
475566.2267
20
6779483.018
30
310
0
VERTEX
8
CREST310
10
475580.5841
20
6779472.743
30
310
0
VERTEX
8
CREST310
10
475589.6853
20
6779463.265
30
310
0
VERTEX
8
CREST310
10
475594.1586
20
6779459.687
30
310
0
VERTEX
8
CREST310
10
475598.7602
20
6779457.67
30
310
0
VERTEX
8
CREST310
10
475604.4238
20
6779456.808
30
310
0
VERTEX
8
CREST310
10
475648.8747
20
6779455.907
30
310
0
VERTEX
8
CREST310
10
475654.5685
20
6779456.539
30
310
0
VERTEX
8
CREST310
10
475659.2481
20
6779458.367
30
310
0
VERTEX
8
CREST310
10
475663.8628
20
6779461.762
30
310
0
VERTEX
8
CREST310
10
475679.0136
20
6779476.311
30
310
0
VERTEX
8
CREST310
10
475689.1188
20
6779483.744
30
310
0
VERTEX
8
CREST310
10
475701.4602
20
6779488.565
30
310
0
VERTEX
8
CREST310
10
475713.9283
20
6779489.95
30
310
0
VERTEX
8
CREST310
10
475823.5878
20
6779487.728
30
310
0
VERTEX
8
CREST310
10
475835.9896
20
6779485.838
30
310
0
VERTEX
8
CREST310
10
475848.1255
20
6779480.521
30
310
0
VERTEX
8
CREST310
10
475857.9211
20
6779472.684
30
310
0
VERTEX
8
CREST310
10
475870.5691
20
6779459.513
30
310
0
VERTEX
8
CREST310
10
475878.0026
20
6779449.408
30
310
0
VERTEX
8
CREST310
10
475882.8239
20
6779437.066
30
310
0
VERTEX
8
CREST310
10
475884.2089
20
6779424.598
30
310
0
VERTEX
8
CREST310
10
475883.4191
20
6779385.635
30
310
0
VERTEX
8
CREST310
10
475876.2993
20
6779292.563
30
310
0
VERTEX
8
CREST310
10
475875.1547
20
6779289.843
30
310
0
VERTEX
8
CREST310
10
475861.7408
20
6779274.557
30
310
0
VERTEX
8
CREST310
10
475858.6652
20
6779271.052
30
310
0
VERTEX
8
CREST310
10
475842.1757
20
6779252.261
30
310
0
VERTEX
8
CREST310
10
475765.5806
20
6779313.401
30
310
0
VERTEX
8
CREST310
10
475748.0613
20
6779311.808
30
310
0
VERTEX
8
CREST310
10
475742.5133
20
6779311.705
30
310
0
VERTEX
8
CREST310
10
475736.8407
20
6779312.422
30
310
0
VERTEX
8
CREST310
10
475731.7103
20
6779313.841
30
310
0
VERTEX
8
CREST310
10
475707.8874
20
6779322.333
30
310
0
VERTEX
8
CREST310
10
475698.9063
20
6779324.482
30
310
0
VERTEX
8
CREST310
10
475690.4996
20
6779324.652
30
310
0
VERTEX
8
CREST310
10
475681.9235
20
6779322.992
30
310
0
SEQEND
8
CREST310
0
POLYLINE
8
TOE290
66
1
70
1
62
8
0
VERTEX
8
TOE290
10
475586.8343
20
6779309.473
30
290
0
VERTEX
8
TOE290
10
475488.0621
20
6779278.752
30
290
0
VERTEX
8
TOE290
10
475483.3565
20
6779277.533
30
290
0
VERTEX
8
TOE290
10
475478.5474
20
6779276.826
30
290
0
VERTEX
8
TOE290
10
475473.4405
20
6779276.648
30
290
0
VERTEX
8
TOE290
10
475419.4447
20
6779277.743
30
290
0
VERTEX
8
TOE290
10
475415.1922
20
6779278.391
30
290
0
VERTEX
8
TOE290
10
475411.5347
20
6779279.993
30
290
0
VERTEX
8
TOE290
10
475408.1758
20
6779282.681
30
290
0
VERTEX
8
TOE290
10
475388.3541
20
6779303.323
30
290
0
VERTEX
8
TOE290
10
475385.0424
20
6779308.371
30
290
0
VERTEX
8
TOE290
10
475383.8669
20
6779313.844
30
290
0
VERTEX
8
TOE290
10
475384.8138
20
6779319.807
30
290
0
VERTEX
8
TOE290
10
475414.7203
20
6779403.853
30
290
0
VERTEX
8
TOE290
10
475417.0876
20
6779409.164
30
290
0
VERTEX
8
TOE290
10
475420.0482
20
6779413.744
30
290
0
VERTEX
8
TOE290
10
475423.6689
20
6779417.824
30
290
0
VERTEX
8
TOE290
10
475445.8423
20
6779439.136
30
290
0
VERTEX
8
TOE290
10
475450.3348
20
6779442.827
30
290
0
VERTEX
8
TOE290
10
475455.0312
20
6779445.6
30
290
0
VERTEX
8
TOE290
10
475460.0942
20
6779447.63
30
290
0
VERTEX
8
TOE290
10
475533.8198
20
6779470.556
30
290
0
VERTEX
8
TOE290
10
475547.105
20
6779472.117
30
290
0
VERTEX
8
TOE290
10
475559.6337
20
6779468.89
30
290
0
VERTEX
8
TOE290
10
475570.5117
20
6779461.105
30
290
0
VERTEX
8
TOE290
10
475579.3264
20
6779451.926
30
290
0
VERTEX
8
TOE290
10
475586.1597
20
6779446.459
30
290
0
VERTEX
8
TOE290
10
475594.4575
20
6779442.823
30
290
0
VERTEX
8
TOE290
10
475603.1088
20
6779441.505
30
290
0
VERTEX
8
TOE290
10
475649.5684
20
6779440.563
30
290
0
VERTEX
8
TOE290
10
475658.266
20
6779441.529
30
290
0
VERTEX
8
TOE290
10
475666.7044
20
6779444.826
30
290
0
VERTEX
8
TOE290
10
475673.7536
20
6779450.011
30
290
0
VERTEX
8
TOE290
10
475688.9044
20
6779464.56
30
290
0
VERTEX
8
TOE290
10
475696.5751
20
6779470.203
30
290
0
VERTEX
8
TOE290
10
475705.1577
20
6779473.556
30
290
0
VERTEX
8
TOE290
10
475714.622
20
6779474.607
30
290
0
VERTEX
8
TOE290
10
475822.2729
20
6779472.425
30
290
0
VERTEX
8
TOE290
10
475831.6869
20
6779470.991
30
290
0
VERTEX
8
TOE290
10
475840.1265
20
6779467.293
30
290
0
VERTEX
8
TOE290
10
475847.5623
20
6779461.344
30
290
0
VERTEX
8
TOE290
10
475858.8187
20
6779449.622
30
290
0
VERTEX
8
TOE290
10
475864.4613
20
6779441.951
30
290
0
VERTEX
8
TOE290
10
475867.8142
20
6779433.369
30
290
0
VERTEX
8
TOE290
10
475868.8656
20
6779423.904
30
290
0
VERTEX
8
TOE290
10
475868.1165
20
6779386.95
30
290
0
VERTEX
8
TOE290
10
475866.6825
20
6779377.536
30
290
0
VERTEX
8
TOE290
10
475862.9845
20
6779369.096
30
290
0
VERTEX
8
TOE290
10
475857.0356
20
6779361.66
30
290
0
VERTEX
8
TOE290
10
475820.7529
20
6779326.819
30
290
0
VERTEX
8
TOE290
10
475725.4749
20
6779369.041
30
290
0
VERTEX
8
TOE290
10
475708.8756
20
6779374.364
30
290
0
VERTEX
8
TOE290
10
475689.0313
20
6779376.271
30
290
0
VERTEX
8
TOE290
10
475672.7292
20
6779374.289
30
290
0
VERTEX
8
TOE290
10
475674.7188
20
6779349.369
30
290
0
VERTEX
8
TOE290
10
475668.7179
20
6779341.591
30
290
0
VERTEX
8
TOE290
10
475663.8105
20
6779336.42
30
290
0
VERTEX
8
TOE290
10
475657.9571
20
6779332.35
30
290
0
VERTEX
8
TOE290
10
475651.4004
20
6779329.551
30
290
0
SEQEND
8
TOE290
0
POLYLINE
8
CREST320
66
1
70
1
62
12
0
VERTEX
8
CREST320
10
475594.551
20
6779284.656
30
320
0
VERTEX
8
CREST320
10
475494.7186
20
6779253.627
30
320
0
VERTEX
8
CREST320
10
475487.5928
20
6779251.883
30
320
0
VERTEX
8
CREST320
10
475480.0371
20
6779250.871
30
320
0
VERTEX
8
CREST320
10
475473.2322
20
6779250.658
30
320
0
VERTEX
8
CREST320
10
475417.2149
20
6779251.794
30
320
0
VERTEX
8
CREST320
10
475407.8959
20
6779253.213
30
320
0
VERTEX
8
CREST320
10
475397.9705
20
6779257.562
30
320
0
VERTEX
8
CREST320
10
475390.6098
20
6779263.451
30
320
0
VERTEX
8
CREST320
10
475367.9428
20
6779287.056
30
320
0
VERTEX
8
CREST320
10
475360.6512
20
6779298.171
30
320
0
VERTEX
8
CREST320
10
475357.4385
20
6779313.13
30
320
0
VERTEX
8
CREST320
10
475359.5235
20
6779326.259
30
320
0
VERTEX
8
CREST320
10
475390.7937
20
6779414.01
30
320
0
VERTEX
8
CREST320
10
475394.1688
20
6779421.583
30
320
0
VERTEX
8
CREST320
10
475399.3196
20
6779429.551
30
320
0
VERTEX
8
CREST320
10
475405.3397
20
6779436.255
30
320
0
VERTEX
8
CREST320
10
475428.9848
20
6779458.922
30
320
0
VERTEX
8
CREST320
10
475435.3894
20
6779464.185
30
320
0
VERTEX
8
CREST320
10
475443.56
20
6779469.008
30
320
0
VERTEX
8
CREST320
10
475451.9394
20
6779472.311
30
320
0
VERTEX
8
CREST320
10
475528.3988
20
6779496.087
30
320
0
VERTEX
8
CREST320
10
475548.8899
20
6779498.494
30
320
0
VERTEX
8
CREST320
10
475570.8137
20
6779492.848
30
320
0
VERTEX
8
CREST320
10
475587.592
20
6779480.84
30
320
0
VERTEX
8
CREST320
10
475596.8924
20
6779471.155
30
320
0
VERTEX
8
CREST320
10
475599.7239
20
6779468.89
30
320
0
VERTEX
8
CREST320
10
475601.7538
20
6779468
30
320
0
VERTEX
8
CREST320
10
475605.3386
20
6779467.454
30
320
0
VERTEX
8
CREST320
10
475648.3921
20
6779466.582
30
320
0
VERTEX
8
CREST320
10
475651.996
20
6779466.982
30
320
0
VERTEX
8
CREST320
10
475654.0604
20
6779467.788
30
320
0
VERTEX
8
CREST320
10
475656.9813
20
6779469.937
30
320
0
VERTEX
8
CREST320
10
475672.1321
20
6779484.486
30
320
0
VERTEX
8
CREST320
10
475683.9311
20
6779493.165
30
320
0
VERTEX
8
CREST320
10
475698.8877
20
6779499.008
30
320
0
VERTEX
8
CREST320
10
475713.4457
20
6779500.626
30
320
0
VERTEX
8
CREST320
10
475824.5027
20
6779498.374
30
320
0
VERTEX
8
CREST320
10
475838.9832
20
6779496.169
30
320
0
VERTEX
8
CREST320
10
475853.6907
20
6779489.724
30
320
0
VERTEX
8
CREST320
10
475865.1282
20
6779480.574
30
320
0
VERTEX
8
CREST320
10
475878.7443
20
6779466.394
30
320
0
VERTEX
8
CREST320
10
475887.4238
20
6779454.595
30
320
0
VERTEX
8
CREST320
10
475893.2668
20
6779439.639
30
320
0
VERTEX
8
CREST320
10
475894.884
20
6779425.081
30
320
0
VERTEX
8
CREST320
10
475894.457
20
6779404.272
30
320
0
VERTEX
8
CREST320
10
475895.0076
20
6779391.543
30
320
0
VERTEX
8
CREST320
10
475897.1723
20
6779378.987
30
320
0
VERTEX
8
CREST320
10
475900.916
20
6779366.808
30
320
0
VERTEX
8
CREST320
10
475946.1623
20
6779247.318
30
320
0
VERTEX
8
CREST320
10
475948.4303
20
6779234.967
30
320
0
VERTEX
8
CREST320
10
475946.1927
20
6779222.61
30
320
0
VERTEX
8
CREST320
10
475939.7375
20
6779211.838
30
320
0
VERTEX
8
CREST320
10
475933.8233
20
6779205.099
30
320
0
VERTEX
8
CREST320
10
475917.3337
20
6779186.308
30
320
0
VERTEX
8
CREST320
10
475839.1
20
6779248.756
30
320
0
VERTEX
8
CREST320
10
475762.2781
20
6779302.394
30
320
0
VERTEX
8
CREST320
10
475748.4757
20
6779301.151
30
320
0
VERTEX
8
CREST320
10
475741.9411
20
6779301.03
30
320
0
VERTEX
8
CREST320
10
475734.74
20
6779301.939
30
320
0
VERTEX
8
CREST320
10
475728.3349
20
6779303.724
30
320
0
VERTEX
8
CREST320
10
475705.0925
20
6779312.038
30
320
0
VERTEX
8
CREST320
10
475697.5424
20
6779313.844
30
320
0
VERTEX
8
CREST320
10
475691.4148
20
6779313.968
30
320
0
VERTEX
8
CREST320
10
475684.7734
20
6779312.712
30
320
0
SEQEND
8
CREST320
0
POLYLINE
8
RAMP320
66
1
70
1
62
8
0
VERTEX
8
RAMP320
10
475917.3338
20
6779186.308
30
320
0
VERTEX
8
RAMP320
10
475933.8233
20
6779205.099
30
320
0
VERTEX
8
RAMP320
10
475858.6652
20
6779271.052
30
310
0
VERTEX
8
RAMP320
10
475842.1757
20
6779252.261
30
310
0
SEQEND
8
RAMP320
0
POLYLINE
8
RAMP290
66
1
70
1
62
8
0
VERTEX
8
RAMP290
10
475668.4652
20
6779373.574
30
290
0
VERTEX
8
RAMP290
10
475571.6443
20
6779348.559
30
280
0
VERTEX
8
RAMP290
10
475577.8979
20
6779324.354
30
280
0
VERTEX
8
RAMP290
10
475674.7188
20
6779349.369
30
290
0
SEQEND
8
RAMP290
0
POLYLINE
8
RAMP300
66
1
70
1
62
8
0
VERTEX
8
RAMP300
10
475767.0176
20
6779318.214
30
300
0
VERTEX
8
RAMP300
10
475714.8256
20
6779343.973
30
294.138191
0
VERTEX
8
RAMP300
10
475702.4895
20
6779348.499
30
292.814795
0
VERTEX
8
RAMP300
10
475688.3174
20
6779350.454
30
291.373936
0
VERTEX
8
RAMP300
10
475674.7188
20
6779349.369
30
290
0
VERTEX
8
RAMP300
10
475672.7293
20
6779374.289
30
290
0
VERTEX
8
RAMP300
10
475689.0398
20
6779375.591
30
291.450722
0
VERTEX
8
RAMP300
10
475708.5733
20
6779372.896
30
293.198999
0
VERTEX
8
RAMP300
10
475724.6911
20
6779366.983
30
294.721175
0
VERTEX
8
RAMP300
10
475778.0818
20
6779340.633
30
300
0
SEQEND
8
RAMP300
0
POLYLINE
8
RAMP280
66
1
70
1
62
8
0
VERTEX
8
RAMP280
10
475472.567
20
6779334.557
30
270
0
VERTEX
8
RAMP280
10
475571.6443
20
6779348.559
30
280
0
VERTEX
8
RAMP280
10
475574.6026
20
6779323.887
30
280
0
VERTEX
8
RAMP280
10
475476.0556
20
6779309.928
30
270
0
SEQEND
8
RAMP280
0
POLYLINE
8
TOE270
66
1
70
1
62
8
0
VERTEX
8
TOE270
10
475472.567
20
6779334.557
30
270
0
VERTEX
8
TOE270
10
475476.0556
20
6779309.928
30
270
0
VERTEX
8
TOE270
10
475427.2643
20
6779310.917
30
270
0
VERTEX
8
TOE270
10
475419.7925
20
6779318.698
30
270
0
VERTEX
8
TOE270
10
475446.3864
20
6779393.435
30
270
0
VERTEX
8
TOE270
10
475469.5062
20
6779415.656
30
270
0
VERTEX
8
TOE270
10
475540.7711
20
6779437.817
30
270
0
VERTEX
8
TOE270
10
475544.8161
20
6779438.292
30
270
0
VERTEX
8
TOE270
10
475545.2975
20
6779438.168
30
270
0
VERTEX
8
TOE270
10
475548.6095
20
6779435.798
30
270
0
VERTEX
8
TOE270
10
475556.8014
20
6779427.267
30
270
0
VERTEX
8
TOE270
10
475568.7663
20
6779417.695
30
270
0
VERTEX
8
TOE270
10
475581.4221
20
6779412.15
30
270
0
VERTEX
8
TOE270
10
475575.6808
20
6779354.064
30
270
0
SEQEND
8
TOE270
0
POLYLINE
8
CREST280
66
1
70
1
62
12
0
VERTEX
8
CREST280
10
475571.6443
20
6779348.559
30
280
0
VERTEX
8
CREST280
10
475574.6026
20
6779323.887
30
280
0
VERTEX
8
CREST280
10
475476.7484
20
6779305.25
30
280
0
VERTEX
8
CREST280
10
475425.2387
20
6779306.295
30
280
0
VERTEX
8
CREST280
10
475414.4333
20
6779317.547
30
280
0
VERTEX
8
CREST280
10
475442.362
20
6779396.035
30
280
0
VERTEX
8
CREST280
10
475467.0693
20
6779419.782
30
280
0
VERTEX
8
CREST280
10
475539.7985
20
6779442.398
30
280
0
VERTEX
8
CREST280
10
475545.1363
20
6779443.025
30
280
0
VERTEX
8
CREST280
10
475547.3034
20
6779442.467
30
280
0
VERTEX
8
CREST280
10
475551.6741
20
6779439.339
30
280
0
VERTEX
8
CREST280
10
475559.9532
20
6779430.718
30
280
0
VERTEX
8
CREST280
10
475571.2001
20
6779421.72
30
280
0
VERTEX
8
CREST280
10
475586.4105
20
6779415.055
30
280
0
VERTEX
8
CREST280
10
475579.794
20
6779351.075
30
280
0
SEQEND
8
CREST280
0
POLYLINE
8
CREST290
66
1
70
1
62
12
0
VERTEX
8
CREST290
10
475583.2707
20
6779320.932
30
290
0
VERTEX
8
CREST290
10
475479.1147
20
6779288.536
30
290
0
VERTEX
8
CREST290
10
475418.0004
20
6779289.775
30
290
0
VERTEX
8
CREST290
10
475395.2827
20
6779313.433
30
290
0
VERTEX
8
CREST290
10
475427.981
20
6779405.325
30
290
0
VERTEX
8
CREST290
10
475458.3615
20
6779434.524
30
290
0
VERTEX
8
CREST290
10
475536.3228
20
6779458.767
30
290
0
VERTEX
8
CREST290
10
475546.2808
20
6779459.937
30
290
0
VERTEX
8
CREST290
10
475554.4715
20
6779457.828
30
290
0
VERTEX
8
CREST290
10
475562.6252
20
6779451.993
30
290
0
VERTEX
8
CREST290
10
475571.2156
20
6779443.047
30
290
0
VERTEX
8
CREST290
10
475579.8967
20
6779436.101
30
290
0
VERTEX
8
CREST290
10
475591.0886
20
6779431.198
30
290
0
VERTEX
8
CREST290
10
475602.0793
20
6779429.523
30
290
0
VERTEX
8
CREST290
10
475650.1116
20
6779428.55
30
290
0
VERTEX
8
CREST290
10
475661.1611
20
6779429.777
30
290
0
VERTEX
8
CREST290
10
475672.5425
20
6779434.223
30
290
0
VERTEX
8
CREST290
10
475681.4979
20
6779440.811
30
290
0
VERTEX
8
CREST290
10
475696.6487
20
6779455.36
30
290
0
VERTEX
8
CREST290
10
475702.4132
20
6779459.6
30
290
0
VERTEX
8
CREST290
10
475708.0527
20
6779461.804
30
290
0
VERTEX
8
CREST290
10
475715.1652
20
6779462.594
30
290
0
VERTEX
8
CREST290
10
475821.2434
20
6779460.443
30
290
0
VERTEX
8
CREST290
10
475828.318
20
6779459.366
30
290
0
VERTEX
8
CREST290
10
475833.8636
20
6779456.936
30
290
0
VERTEX
8
CREST290
10
475839.4515
20
6779452.465
30
290
0
VERTEX
8
CREST290
10
475849.6184
20
6779441.878
30
290
0
VERTEX
8
CREST290
10
475853.8589
20
6779436.113
30
290
0
VERTEX
8
CREST290
10
475856.062
20
6779430.474
30
290
0
VERTEX
8
CREST290
10
475856.8521
20
6779423.361
30
290
0
VERTEX
8
CREST290
10
475855.9168
20
6779377.223
30
290
0
VERTEX
8
CREST290
10
475813.5746
20
6779336.563
30
290
0
VERTEX
8
CREST290
10
475727.6124
20
6779374.657
30
290
0
VERTEX
8
CREST290
10
475709.6869
20
6779378.305
30
290
0
VERTEX
8
CREST290
10
475689.006
20
6779378.283
30
290
0
VERTEX
8
CREST290
10
475672.7293
20
6779374.289
30
290
0
VERTEX
8
CREST290
10
475668.4652
20
6779373.574
30
290
0
VERTEX
8
CREST290
10
475674.7188
20
6779349.369
30
290
0
SEQEND
8
CREST290
0
POLYLINE
8
TOE280
66
1
70
1
62
8
0
VERTEX
8
TOE280
10
475577.9482
20
6779324.16
30
280
0
VERTEX
8
TOE280
10
475478.4525
20
6779293.213
30
280
0
VERTEX
8
TOE280
10
475420.026
20
6779294.398
30
280
0
VERTEX
8
TOE280
10
475400.6419
20
6779314.584
30
280
0
VERTEX
8
TOE280
10
475432.0054
20
6779402.725
30
280
0
VERTEX
8
TOE280
10
475460.7983
20
6779430.399
30
280
0
VERTEX
8
TOE280
10
475537.2955
20
6779454.186
30
280
0
VERTEX
8
TOE280
10
475545.9605
20
6779455.205
30
280
0
VERTEX
8
TOE280
10
475552.4656
20
6779453.529
30
280
0
VERTEX
8
TOE280
10
475559.5606
20
6779448.452
30
280
0
VERTEX
8
TOE280
10
475568.0639
20
6779439.596
30
280
0
VERTEX
8
TOE280
10
475577.463
20
6779432.077
30
280
0
VERTEX
8
TOE280
10
475589.7795
20
6779426.68
30
280
0
VERTEX
8
TOE280
10
475601.6792
20
6779424.867
30
280
0
VERTEX
8
TOE280
10
475650.3226
20
6779423.881
30
280
0
VERTEX
8
TOE280
10
475662.2861
20
6779425.21
30
280
0
VERTEX
8
TOE280
10
475674.8111
20
6779430.103
30
280
0
VERTEX
8
TOE280
10
475684.5072
20
6779437.236
30
280
0
VERTEX
8
TOE280
10
475699.658
20
6779451.785
30
280
0
VERTEX
8
TOE280
10
475704.6818
20
6779455.48
30
280
0
VERTEX
8
TOE280
10
475709.1777
20
6779457.237
30
280
0
VERTEX
8
TOE280
10
475715.3762
20
6779457.925
30
280
0
VERTEX
8
TOE280
10
475820.8433
20
6779455.787
30
280
0
VERTEX
8
TOE280
10
475827.0088
20
6779454.848
30
280
0
VERTEX
8
TOE280
10
475831.4299
20
6779452.911
30
280
0
VERTEX
8
TOE280
10
475836.2998
20
6779449.015
30
280
0
VERTEX
8
TOE280
10
475846.0433
20
6779438.868
30
280
0
VERTEX
8
TOE280
10
475849.7388
20
6779433.844
30
280
0
VERTEX
8
TOE280
10
475851.4952
20
6779429.349
30
280
0
VERTEX
8
TOE280
10
475852.1838
20
6779423.15
30
280
0
VERTEX
8
TOE280
10
475851.2939
20
6779379.248
30
280
0
VERTEX
8
TOE280
10
475813.6444
20
6779343.095
30
280
0
VERTEX
8
TOE280
10
475812.6031
20
6779342.095
30
280
0
VERTEX
8
TOE280
10
475729.0354
20
6779379.098
30
280
0
VERTEX
8
TOE280
10
475711.1099
20
6779382.745
30
280
0
VERTEX
8
TOE280
10
475690.4288
20
6779382.724
30
280
0
VERTEX
8
TOE280
10
475662.6782
20
6779377.331
30
280
0
VERTEX
8
TOE280
10
475571.6443
20
6779348.559
30
280
0
SEQEND
8
TOE280
0
POLYLINE
8
RAMP310
66
1
70
1
62
8
0
VERTEX
8
RAMP310
10
475842.1757
20
6779252.261
30
310
0
VERTEX
8
RAMP310
10
475858.6652
20
6779271.052
30
310
0
VERTEX
8
RAMP310
10
475783.5071
20
6779337.005
30
300
0
VERTEX
8
RAMP310
10
475767.0176
20
6779318.214
30
300
0
SEQEND
8
RAMP310
0
POLYLINE
8
TOE310
66
1
70
1
62
8
0
VERTEX
8
TOE310
10
475593.1669
20
6779289.109
30
310
0
VERTEX
8
TOE310
10
475493.6102
20
6779258.157
30
310
0
VERTEX
8
TOE310
10
475486.9737
20
6779256.505
30
310
0
VERTEX
8
TOE310
10
475479.8911
20
6779255.532
30
310
0
VERTEX
8
TOE310
10
475473.3267
20
6779255.32
30
310
0
VERTEX
8
TOE310
10
475417.615
20
6779256.45
30
310
0
VERTEX
8
TOE310
10
475409.205
20
6779257.731
30
310
0
VERTEX
8
TOE310
10
475400.4042
20
6779261.587
30
310
0
VERTEX
8
TOE310
10
475393.7616
20
6779266.901
30
310
0
VERTEX
8
TOE310
10
475371.605
20
6779289.975
30
310
0
VERTEX
8
TOE310
10
475365.0276
20
6779300.001
30
310
0
VERTEX
8
TOE310
10
475362.1804
20
6779313.258
30
310
0
VERTEX
8
TOE310
10
475364.0611
20
6779325.101
30
310
0
VERTEX
8
TOE310
10
475395.0528
20
6779412.112
30
310
0
VERTEX
8
TOE310
10
475398.281
20
6779419.355
30
310
0
VERTEX
8
TOE310
10
475403.0355
20
6779426.71
30
310
0
VERTEX
8
TOE310
10
475408.5666
20
6779432.889
30
310
0
VERTEX
8
TOE310
10
475431.9453
20
6779455.319
30
310
0
VERTEX
8
TOE310
10
475438.071
20
6779460.353
30
310
0
VERTEX
8
TOE310
10
475445.6131
20
6779464.805
30
310
0
VERTEX
8
TOE310
10
475453.324
20
6779467.858
30
310
0
VERTEX
8
TOE310
10
475529.3715
20
6779491.506
30
310
0
VERTEX
8
TOE310
10
475548.5697
20
6779493.762
30
310
0
VERTEX
8
TOE310
10
475568.8077
20
6779488.549
30
310
0
VERTEX
8
TOE310
10
475584.5274
20
6779477.299
30
310
0
VERTEX
8
TOE310
10
475593.7406
20
6779467.705
30
310
0
VERTEX
8
TOE310
10
475597.2901
20
6779464.865
30
310
0
VERTEX
8
TOE310
10
475600.4447
20
6779463.483
30
310
0
VERTEX
8
TOE310
10
475604.9385
20
6779462.798
30
310
0
VERTEX
8
TOE310
10
475648.6031
20
6779461.913
30
310
0
VERTEX
8
TOE310
10
475653.121
20
6779462.415
30
310
0
VERTEX
8
TOE310
10
475656.329
20
6779463.668
30
310
0
VERTEX
8
TOE310
10
475659.9907
20
6779466.362
30
310
0
VERTEX
8
TOE310
10
475675.1415
20
6779480.911
30
310
0
VERTEX
8
TOE310
10
475686.1997
20
6779489.045
30
310
0
VERTEX
8
TOE310
10
475700.0127
20
6779494.442
30
310
0
VERTEX
8
TOE310
10
475713.6567
20
6779495.957
30
310
0
VERTEX
8
TOE310
10
475824.1026
20
6779493.718
30
310
0
VERTEX
8
TOE310
10
475837.674
20
6779491.651
30
310
0
VERTEX
8
TOE310
10
475851.257
20
6779485.7
30
310
0
VERTEX
8
TOE310
10
475861.9765
20
6779477.123
30
310
0
VERTEX
8
TOE310
10
475875.1692
20
6779463.385
30
310
0
VERTEX
8
TOE310
10
475883.3038
20
6779452.327
30
310
0
VERTEX
8
TOE310
10
475888.7
20
6779438.514
30
310
0
VERTEX
8
TOE310
10
475890.2156
20
6779424.87
30
310
0
VERTEX
8
TOE310
10
475889.7982
20
6779404.071
30
310
0
VERTEX
8
TOE310
10
475890.3617
20
6779391.044
30
310
0
VERTEX
8
TOE310
10
475892.6276
20
6779377.901
30
310
0
VERTEX
8
TOE310
10
475896.5551
20
6779365.157
30
310
0
VERTEX
8
TOE310
10
475941.652
20
6779246.061
30
310
0
VERTEX
8
TOE310
10
475943.6903
20
6779234.961
30
310
0
VERTEX
8
TOE310
10
475941.7558
20
6779224.278
30
310
0
VERTEX
8
TOE310
10
475935.9545
20
6779214.597
30
310
0
VERTEX
8
TOE310
10
475933.2505
20
6779211.516
30
310
0
VERTEX
8
TOE310
10
475858.6652
20
6779271.052
30
310
0
VERTEX
8
TOE310
10
475842.1757
20
6779252.261
30
310
0
VERTEX
8
TOE310
10
475763.5534
20
6779307.191
30
310
0
VERTEX
8
TOE310
10
475748.3891
20
6779305.813
30
310
0
VERTEX
8
TOE310
10
475742.1913
20
6779305.698
30
310
0
VERTEX
8
TOE310
10
475735.6629
20
6779306.523
30
310
0
VERTEX
8
TOE310
10
475729.9055
20
6779308.115
30
310
0
VERTEX
8
TOE310
10
475706.1772
20
6779316.573
30
310
0
VERTEX
8
TOE310
10
475698.1389
20
6779318.496
30
310
0
VERTEX
8
TOE310
10
475691.0244
20
6779318.64
30
310
0
VERTEX
8
TOE310
10
475683.644
20
6779317.244
30
310
0
SEQEND
8
TOE310
0
ENDSEC
0
EOF
