999
********************************
999
*   DXF File - Entities Only   *
999
*        3D Data Format        *
999
*     Output from ENVISAGE     *
999
*     29-Dec-2025 09:50:20     *
999
********************************
  0
SECTION 
  2
HEADER
  9
$ACADVER
  1
AC1009
  9
$EXTMIN
 10
473000.000
 20
6768000.000
 30
0.000
  9
$EXTMAX
 10
483000.000
 20
6776000.000
 30
600.000
  0
ENDSEC
  0
SECTION
  2
TABLES
  0
TABLE
  2
APPID
  2
ACAD
 70
     0
  0
APPID
  2
MAPTEK_VULCAN
 70
     0
  0
ENDTAB
  0
ENDSEC
  0
SECTION
  2
ENTITIES
  0
POLYLINE
  8
DISP
 62
4
 66
     1
 70
     9
1001
MAPTEK_VULCAN
1000
VulcanName=S4_266_403
1000
VulcanGroup=
1000
VulcanValue=0
1000
VulcanDescription=91583.4 BCM, 395HOLES - 5328 METERS, BxS = 4.5m x 5.2m @ stem = 3.7m
1000
VulcanPrimitive=
1000
VulcanLine=70
1000
VulcanPattern=0
1000
VulcanFeature=
  0
VERTEX
  8
DISP
 62
4
 10
478276.204
 20
6772179.102
 30
900.000
 70
    32
  0
VERTEX
  8
DISP
 62
4
 10
478192.663
 20
6772095.706
 30
900.000
 70
    32
  0
VERTEX
  8
DISP
 62
4
 10
478192.663
 20
6772095.706
 30
900.000
 70
    32
  0
VERTEX
  8
DISP
 62
4
 10
478237.423
 20
6772032.308
 30
900.000
 70
    32
  0
VERTEX
  8
DISP
 62
4
 10
478238.682
 20
6772035.383
 30
900.000
 70
    32
  0
VERTEX
  8
DISP
 62
4
 10
478250.391
 20
6772051.737
 30
900.000
 70
    32
  0
VERTEX
  8
DISP
 62
4
 10
478273.818
 20
6772084.454
 30
900.000
 70
    32
  0
VERTEX
  8
DISP
 62
4
 10
478273.818
 20
6772084.454
 30
900.000
 70
    32
  0
VERTEX
  8
DISP
 62
4
 10
478273.818
 20
6772084.454
 30
900.000
 70
    32
  0
VERTEX
  8
DISP
 62
4
 10
478273.818
 20
6772084.454
 30
900.000
 70
    32
  0
VERTEX
  8
DISP
 62
4
 10
478273.818
 20
6772084.454
 30
900.000
 70
    32
  0
VERTEX
  8
DISP
 62
4
 10
478286.435
 20
6772106.877
 30
900.000
 70
    32
  0
VERTEX
  8
DISP
 62
4
 10
478300.562
 20
6772125.187
 30
900.000
 70
    32
  0
VERTEX
  8
DISP
 62
4
 10
478303.854
 20
6772129.488
 30
900.000
 70
    32
  0
VERTEX
  8
DISP
 62
4
 10
478307.802
 20
6772134.346
 30
900.000
 70
    32
  0
SEQEND
  8
DISP
  0
POLYLINE
  8
DISP
 62
4
 66
     1
 70
     9
1001
MAPTEK_VULCAN
1000
VulcanName=S4_226_405
1000
VulcanGroup=
1000
VulcanValue=0
1000
VulcanDescription=165558.3 BCM, 613HOLES - 8278 METERS, BxS = 4.5m x 5m @ stem = 3.7m
1000
VulcanPrimitive=
1000
VulcanLine=80
1000
VulcanPattern=0
1000
VulcanFeature=
  0
VERTEX
  8
DISP
 62
4
 10
478144.623
 20
6771808.963
 30
900.000
 70
    32
  0
VERTEX
  8
DISP
 62
4
 10
478146.888
 20
6771814.319
 30
900.000
 70
    32
  0
VERTEX
  8
DISP
 62
4
 10
478152.752
 20
6771828.187
 30
900.000
 70
    32
  0
VERTEX
  8
DISP
 62
4
 10
478158.617
 20
6771842.055
 30
900.000
 70
    32
  0
VERTEX
  8
DISP
 62
4
 10
478164.481
 20
6771855.923
 30
900.000
 70
    32
  0
VERTEX
  8
DISP
 62
4
 10
478169.250
 20
6771866.593
 30
900.000
 70
    32
  0
VERTEX
  8
DISP
 62
4
 10
478174.019
 20
6771877.262
 30
900.000
 70
    32
  0
VERTEX
  8
DISP
 62
4
 10
478179.169
 20
6771889.739
 30
900.000
 70
    32
  0
VERTEX
  8
DISP
 62
4
 10
478184.320
 20
6771902.215
 30
900.000
 70
    32
  0
VERTEX
  8
DISP
 62
4
 10
478189.471
 20
6771914.692
 30
900.000
 70
    32
  0
VERTEX
  8
DISP
 62
4
 10
478194.622
 20
6771927.168
 30
900.000
 70
    32
  0
VERTEX
  8
DISP
 62
4
 10
478199.773
 20
6771939.645
 30
900.000
 70
    32
  0
VERTEX
  8
DISP
 62
4
 10
478202.316
 20
6771945.805
 30
900.000
 70
    32
  0
VERTEX
  8
DISP
 62
4
 10
478115.911
 20
6771981.284
 30
900.000
 70
    32
  0
VERTEX
  8
DISP
 62
4
 10
478059.504
 20
6771843.915
 30
900.000
 70
    32
  0
VERTEX
  8
DISP
 62
4
 10
478059.504
 20
6771843.915
 30
900.000
 70
    32
  0
VERTEX
  8
DISP
 62
4
 10
478144.623
 20
6771808.963
 30
900.000
 70
    32
  0
SEQEND
  8
DISP
  0
POLYLINE
  8
DISP
 62
4
 66
     1
 70
     9
1001
MAPTEK_VULCAN
1000
VulcanName=S4_226_404
1000
VulcanGroup=
1000
VulcanValue=0
1000
VulcanDescription=131180.3 BCM, 486HOLES - 6559 METERS, BxS = 4.5m x 5m @ stem = 3.7m
1000
VulcanPrimitive=
1000
VulcanLine=80
1000
VulcanPattern=0
1000
VulcanFeature=
  0
VERTEX
  8
DISP
 62
4
 10
478202.316
 20
6771945.805
 30
900.000
 70
    32
  0
VERTEX
  8
DISP
 62
4
 10
478204.924
 20
6771952.121
 30
900.000
 70
    32
  0
VERTEX
  8
DISP
 62
4
 10
478204.924
 20
6771952.121
 30
900.000
 70
    32
  0
VERTEX
  8
DISP
 62
4
 10
478210.585
 20
6771966.363
 30
900.000
 70
    32
  0
VERTEX
  8
DISP
 62
4
 10
478216.247
 20
6771980.604
 30
900.000
 70
    32
  0
VERTEX
  8
DISP
 62
4
 10
478219.978
 20
6771990.026
 30
900.000
 70
    32
  0
VERTEX
  8
DISP
 62
4
 10
478225.408
 20
6772003.181
 30
900.000
 70
    32
  0
VERTEX
  8
DISP
 62
4
 10
478230.839
 20
6772016.336
 30
900.000
 70
    32
  0
VERTEX
  8
DISP
 62
4
 10
478236.270
 20
6772029.491
 30
900.000
 70
    32
  0
VERTEX
  8
DISP
 62
4
 10
478237.423
 20
6772032.308
 30
900.000
 70
    32
  0
VERTEX
  8
DISP
 62
4
 10
478192.663
 20
6772095.706
 30
900.000
 70
    32
  0
VERTEX
  8
DISP
 62
4
 10
478159.723
 20
6772087.980
 30
900.000
 70
    32
  0
VERTEX
  8
DISP
 62
4
 10
478115.911
 20
6771981.284
 30
900.000
 70
    32
  0
VERTEX
  8
DISP
 62
4
 10
478115.911
 20
6771981.284
 30
900.000
 70
    32
  0
VERTEX
  8
DISP
 62
4
 10
478202.316
 20
6771945.805
 30
900.000
 70
    32
  0
SEQEND
  8
DISP
  0
POLYLINE
  8
DISP
 62
2
 66
     1
 70
     9
1001
MAPTEK_VULCAN
1000
VulcanName=S4_266_403
1000
VulcanGroup=
1000
VulcanValue=0
1000
VulcanDescription=91583.4 BCM, 395HOLES - 5328 METERS, BxS = 4.5m x 5.2m @ stem = 3.7m
1000
VulcanPrimitive=
1000
VulcanLine=40
1000
VulcanPattern=0
1000
VulcanFeature=
  0
VERTEX
  8
DISP
 62
2
 10
478183.388
 20
6772103.802
 30
900.000
 70
    32
  0
VERTEX
  8
DISP
 62
2
 10
478159.723
 20
6772087.980
 30
900.000
 70
    32
  0
VERTEX
  8
DISP
 62
2
 10
478239.770
 20
6772011.646
 30
900.000
 70
    32
  0
VERTEX
  8
DISP
 62
2
 10
478247.494
 20
6772030.512
 30
900.000
 70
    32
  0
VERTEX
  8
DISP
 62
2
 10
478258.522
 20
6772045.915
 30
900.000
 70
    32
  0
VERTEX
  8
DISP
 62
2
 10
478282.266
 20
6772079.075
 30
900.000
 70
    32
  0
VERTEX
  8
DISP
 62
2
 10
478282.266
 20
6772079.075
 30
900.000
 70
    32
  0
VERTEX
  8
DISP
 62
2
 10
478282.266
 20
6772079.075
 30
900.000
 70
    32
  0
VERTEX
  8
DISP
 62
2
 10
478282.266
 20
6772079.075
 30
900.000
 70
    32
  0
VERTEX
  8
DISP
 62
2
 10
478282.266
 20
6772079.075
 30
900.000
 70
    32
  0
VERTEX
  8
DISP
 62
2
 10
478294.795
 20
6772101.342
 30
900.000
 70
    32
  0
VERTEX
  8
DISP
 62
2
 10
478308.491
 20
6772119.094
 30
900.000
 70
    32
  0
VERTEX
  8
DISP
 62
2
 10
478311.706
 20
6772123.294
 30
900.000
 70
    32
  0
VERTEX
  8
DISP
 62
2
 10
478320.344
 20
6772133.921
 30
900.000
 70
    32
  0
VERTEX
  8
DISP
 62
2
 10
478277.532
 20
6772194.559
 30
900.000
 70
    32
  0
SEQEND
  8
DISP
  0
POLYLINE
  8
DISP
 62
2
 66
     1
 70
     9
1001
MAPTEK_VULCAN
1000
VulcanName=S4_226_405
1000
VulcanGroup=
1000
VulcanValue=0
1000
VulcanDescription=165558.3 BCM, 613HOLES - 8278 METERS, BxS = 4.5m x 5m @ stem = 3.7m
1000
VulcanPrimitive=
1000
VulcanLine=40
1000
VulcanPattern=0
1000
VulcanFeature=
  0
VERTEX
  8
DISP
 62
2
 10
478156.098
 20
6771810.424
 30
900.000
 70
    32
  0
VERTEX
  8
DISP
 62
2
 10
478161.962
 20
6771824.292
 30
900.000
 70
    32
  0
VERTEX
  8
DISP
 62
2
 10
478167.827
 20
6771838.160
 30
900.000
 70
    32
  0
VERTEX
  8
DISP
 62
2
 10
478173.652
 20
6771851.935
 30
900.000
 70
    32
  0
VERTEX
  8
DISP
 62
2
 10
478178.380
 20
6771862.512
 30
900.000
 70
    32
  0
VERTEX
  8
DISP
 62
2
 10
478183.207
 20
6771873.313
 30
900.000
 70
    32
  0
VERTEX
  8
DISP
 62
2
 10
478188.412
 20
6771885.923
 30
900.000
 70
    32
  0
VERTEX
  8
DISP
 62
2
 10
478193.563
 20
6771898.399
 30
900.000
 70
    32
  0
VERTEX
  8
DISP
 62
2
 10
478198.714
 20
6771910.876
 30
900.000
 70
    32
  0
VERTEX
  8
DISP
 62
2
 10
478203.865
 20
6771923.352
 30
900.000
 70
    32
  0
VERTEX
  8
DISP
 62
2
 10
478209.016
 20
6771935.829
 30
900.000
 70
    32
  0
VERTEX
  8
DISP
 62
2
 10
478215.383
 20
6771951.249
 30
900.000
 70
    32
  0
VERTEX
  8
DISP
 62
2
 10
478110.459
 20
6771994.333
 30
900.000
 70
    32
  0
VERTEX
  8
DISP
 62
2
 10
478046.455
 20
6771838.462
 30
900.000
 70
    32
  0
VERTEX
  8
DISP
 62
2
 10
478046.455
 20
6771838.462
 30
900.000
 70
    32
  0
VERTEX
  8
DISP
 62
2
 10
478149.979
 20
6771795.953
 30
900.000
 70
    32
  0
VERTEX
  8
DISP
 62
2
 10
478149.979
 20
6771795.953
 30
900.000
 70
    32
  0
SEQEND
  8
DISP
  0
POLYLINE
  8
DISP
 62
2
 66
     1
 70
     9
1001
MAPTEK_VULCAN
1000
VulcanName=S4_226_404
1000
VulcanGroup=
1000
VulcanValue=0
1000
VulcanDescription=131180.3 BCM, 486HOLES - 6559 METERS, BxS = 4.5m x 5m @ stem = 3.7m
1000
VulcanPrimitive=
1000
VulcanLine=40
1000
VulcanPattern=0
1000
VulcanFeature=
  0
VERTEX
  8
DISP
 62
2
 10
478214.192
 20
6771948.366
 30
900.000
 70
    32
  0
VERTEX
  8
DISP
 62
2
 10
478214.192
 20
6771948.366
 30
900.000
 70
    32
  0
VERTEX
  8
DISP
 62
2
 10
478219.878
 20
6771962.669
 30
900.000
 70
    32
  0
VERTEX
  8
DISP
 62
2
 10
478225.542
 20
6771976.916
 30
900.000
 70
    32
  0
VERTEX
  8
DISP
 62
2
 10
478229.249
 20
6771986.277
 30
900.000
 70
    32
  0
VERTEX
  8
DISP
 62
2
 10
478234.651
 20
6771999.365
 30
900.000
 70
    32
  0
VERTEX
  8
DISP
 62
2
 10
478240.082
 20
6772012.520
 30
900.000
 70
    32
  0
VERTEX
  8
DISP
 62
2
 10
478245.519
 20
6772025.689
 30
900.000
 70
    32
  0
VERTEX
  8
DISP
 62
2
 10
478248.756
 20
6772033.596
 30
900.000
 70
    32
  0
VERTEX
  8
DISP
 62
2
 10
478196.944
 20
6772106.982
 30
900.000
 70
    32
  0
VERTEX
  8
DISP
 62
2
 10
478152.428
 20
6772096.541
 30
900.000
 70
    32
  0
VERTEX
  8
DISP
 62
2
 10
478102.862
 20
6771975.832
 30
900.000
 70
    32
  0
VERTEX
  8
DISP
 62
2
 10
478102.862
 20
6771975.832
 30
900.000
 70
    32
  0
VERTEX
  8
DISP
 62
2
 10
478207.750
 20
6771932.763
 30
900.000
 70
    32
  0
VERTEX
  8
DISP
 62
2
 10
478207.750
 20
6771932.763
 30
900.000
 70
    32
  0
SEQEND
  8
DISP
  0
LINE
  8
DISP
 62
30
 10
478252.097
 20
6772170.038
 30
900.000
 11
478299.391
 21
6772107.299
 31
900.000
1001
MAPTEK_VULCAN
1000
VulcanName=LINE_6
1000
VulcanGroup=
1000
VulcanValue=0
1000
VulcanDescription=LINE digitising 29-Dec-2025 09:43:09
1000
VulcanPrimitive=
1000
VulcanLine=0
1000
VulcanPattern=0
1000
VulcanFeature=
  0
LINE
  8
DISP
 62
30
 10
478096.906
 20
6771961.328
 30
900.000
 11
478201.707
 21
6771918.125
 31
900.000
1001
MAPTEK_VULCAN
1000
VulcanName=LINE_6
1000
VulcanGroup=
1000
VulcanValue=0
1000
VulcanDescription=LINE digitising 29-Dec-2025 09:43:09
1000
VulcanPrimitive=
1000
VulcanLine=0
1000
VulcanPattern=0
1000
VulcanFeature=
  0
LINE
  8
DISP
 62
30
 10
478059.453
 20
6771870.117
 30
900.000
 11
478163.500
 21
6771827.928
 31
900.000
1001
MAPTEK_VULCAN
1000
VulcanName=LINE_6
1000
VulcanGroup=
1000
VulcanValue=0
1000
VulcanDescription=LINE digitising 29-Dec-2025 09:43:09
1000
VulcanPrimitive=
1000
VulcanLine=0
1000
VulcanPattern=0
1000
VulcanFeature=
  0
LINE
  8
DISP
 62
30
 10
478152.428
 20
6772096.541
 30
900.000
 11
478239.770
 21
6772011.646
 31
900.000
1001
MAPTEK_VULCAN
1000
VulcanName=LINE_7
1000
VulcanGroup=
1000
VulcanValue=0
1000
VulcanDescription=LINE digitising 29-Dec-2025 09:43:41
1000
VulcanPrimitive=
1000
VulcanLine=0
1000
VulcanPattern=0
1000
VulcanFeature=
  0
POLYLINE
  8
DISP
 62
4
 66
     1
 70
     8
1001
MAPTEK_VULCAN
1000
VulcanName=Lava Obj
1000
VulcanGroup=
1000
VulcanValue=0
1000
VulcanDescription=Object created by Lava
1000
VulcanPrimitive=
1000
VulcanLine=0
1000
VulcanPattern=0
1000
VulcanFeature=
  0
VERTEX
  8
DISP
 62
4
 10
478218.001
 20
6772085.648
 30
900.000
 70
    32
  0
VERTEX
  8
DISP
 62
4
 10
478218.412
 20
6772087.014
 30
900.000
 70
    32
  0
VERTEX
  8
DISP
 62
4
 10
478218.332
 20
6772089.720
 30
900.000
 70
    32
  0
VERTEX
  8
DISP
 62
4
 10
478228.084
 20
6772080.531
 30
900.000
 70
    32
  0
SEQEND
  8
DISP
  0
LINE
  8
DISP
 62
4
 10
478246.459
 20
6772100.053
 30
900.000
 11
478246.470
 21
6772100.043
 31
900.000
1001
MAPTEK_VULCAN
1000
VulcanName=Lava Obj
1000
VulcanGroup=
1000
VulcanValue=0
1000
VulcanDescription=Object created by Lava
1000
VulcanPrimitive=
1000
VulcanLine=0
1000
VulcanPattern=0
1000
VulcanFeature=
  0
LINE
  8
DISP
 62
4
 10
478242.001
 20
6772105.826
 30
900.000
 11
478250.752
 21
6772115.113
 31
900.000
1001
MAPTEK_VULCAN
1000
VulcanName=Lava Obj
1000
VulcanGroup=
1000
VulcanValue=0
1000
VulcanDescription=Object created by Lava
1000
VulcanPrimitive=
1000
VulcanLine=0
1000
VulcanPattern=0
1000
VulcanFeature=
  0
POLYLINE
  8
DISP
 62
4
 66
     1
 70
     8
1001
MAPTEK_VULCAN
1000
VulcanName=Lava Obj
1000
VulcanGroup=
1000
VulcanValue=0
1000
VulcanDescription=Object created by Lava
1000
VulcanPrimitive=
1000
VulcanLine=0
1000
VulcanPattern=0
1000
VulcanFeature=
  0
VERTEX
  8
DISP
 62
4
 10
478261.667
 20
6772135.710
 30
900.000
 70
    32
  0
VERTEX
  8
DISP
 62
4
 10
478263.792
 20
6772124.940
 30
900.000
 70
    32
  0
VERTEX
  8
DISP
 62
4
 10
478270.356
 20
6772131.907
 30
900.000
 70
    32
  0
SEQEND
  8
DISP
  0
LINE
  8
DISP
 62
4
 10
478261.667
 20
6772135.710
 30
900.000
 11
478271.419
 21
6772126.521
 31
900.000
1001
MAPTEK_VULCAN
1000
VulcanName=Lava Obj
1000
VulcanGroup=
1000
VulcanValue=0
1000
VulcanDescription=Object created by Lava
1000
VulcanPrimitive=
1000
VulcanLine=0
1000
VulcanPattern=0
1000
VulcanFeature=
  0
POLYLINE
  8
DISP
 62
4
 66
     1
 70
     9
1001
MAPTEK_VULCAN
1000
VulcanName=Lava Obj
1000
VulcanGroup=
1000
VulcanValue=0
1000
VulcanDescription=Object created by Lava
1000
VulcanPrimitive=
1000
VulcanLine=0
1000
VulcanPattern=0
1000
VulcanFeature=
  0
VERTEX
  8
DISP
 62
4
 10
478270.203
 20
6772144.769
 30
900.000
 70
    32
  0
VERTEX
  8
DISP
 62
4
 10
478269.354
 20
6772142.939
 30
900.000
 70
    32
  0
VERTEX
  8
DISP
 62
4
 10
478269.872
 20
6772140.697
 30
900.000
 70
    32
  0
VERTEX
  8
DISP
 62
4
 10
478271.757
 20
6772138.046
 30
900.000
 70
    32
  0
VERTEX
  8
DISP
 62
4
 10
478273.150
 20
6772136.733
 30
900.000
 70
    32
  0
VERTEX
  8
DISP
 62
4
 10
478275.909
 20
6772135.009
 30
900.000
 70
    32
  0
VERTEX
  8
DISP
 62
4
 10
478278.179
 20
6772134.624
 30
900.000
 70
    32
  0
VERTEX
  8
DISP
 62
4
 10
478279.955
 20
6772135.580
 30
900.000
 70
    32
  0
VERTEX
  8
DISP
 62
4
 10
478280.831
 20
6772136.509
 30
900.000
 70
    32
  0
VERTEX
  8
DISP
 62
4
 10
478281.679
 20
6772138.339
 30
900.000
 70
    32
  0
VERTEX
  8
DISP
 62
4
 10
478281.160
 20
6772140.582
 30
900.000
 70
    32
  0
VERTEX
  8
DISP
 62
4
 10
478279.276
 20
6772143.234
 30
900.000
 70
    32
  0
VERTEX
  8
DISP
 62
4
 10
478277.883
 20
6772144.547
 30
900.000
 70
    32
  0
VERTEX
  8
DISP
 62
4
 10
478275.123
 20
6772146.271
 30
900.000
 70
    32
  0
VERTEX
  8
DISP
 62
4
 10
478272.855
 20
6772146.654
 30
900.000
 70
    32
  0
VERTEX
  8
DISP
 62
4
 10
478271.078
 20
6772145.698
 30
900.000
 70
    32
  0
SEQEND
  8
DISP
  0
POLYLINE
  8
DISP
 62
4
 66
     1
 70
     8
1001
MAPTEK_VULCAN
1000
VulcanName=Lava Obj
1000
VulcanGroup=
1000
VulcanValue=0
1000
VulcanDescription=Object created by Lava
1000
VulcanPrimitive=
1000
VulcanLine=0
1000
VulcanPattern=0
1000
VulcanFeature=
  0
VERTEX
  8
DISP
 62
4
 10
478278.740
 20
6772153.829
 30
900.000
 70
    32
  0
VERTEX
  8
DISP
 62
4
 10
478283.553
 20
6772158.938
 30
900.000
 70
    32
  0
VERTEX
  8
DISP
 62
4
 10
478284.643
 20
6772152.651
 30
900.000
 70
    32
  0
VERTEX
  8
DISP
 62
4
 10
478285.956
 20
6772154.044
 30
900.000
 70
    32
  0
VERTEX
  8
DISP
 62
4
 10
478287.295
 20
6772154.536
 30
900.000
 70
    32
  0
VERTEX
  8
DISP
 62
4
 10
478288.197
 20
6772154.562
 30
900.000
 70
    32
  0
VERTEX
  8
DISP
 62
4
 10
478290.027
 20
6772153.713
 30
900.000
 70
    32
  0
VERTEX
  8
DISP
 62
4
 10
478290.956
 20
6772152.837
 30
900.000
 70
    32
  0
VERTEX
  8
DISP
 62
4
 10
478291.912
 20
6772151.061
 30
900.000
 70
    32
  0
VERTEX
  8
DISP
 62
4
 10
478291.966
 20
6772149.256
 30
900.000
 70
    32
  0
VERTEX
  8
DISP
 62
4
 10
478291.117
 20
6772147.426
 30
900.000
 70
    32
  0
VERTEX
  8
DISP
 62
4
 10
478289.805
 20
6772146.033
 30
900.000
 70
    32
  0
VERTEX
  8
DISP
 62
4
 10
478288.028
 20
6772145.077
 30
900.000
 70
    32
  0
VERTEX
  8
DISP
 62
4
 10
478287.125
 20
6772145.051
 30
900.000
 70
    32
  0
VERTEX
  8
DISP
 62
4
 10
478285.759
 20
6772145.462
 30
900.000
 70
    32
  0
SEQEND
  8
DISP
  0
POLYLINE
  8
DISP
 62
4
 66
     1
 70
     8
1001
MAPTEK_VULCAN
1000
VulcanName=Lava Obj
1000
VulcanGroup=
1000
VulcanValue=0
1000
VulcanDescription=Object created by Lava
1000
VulcanPrimitive=
1000
VulcanLine=0
1000
VulcanPattern=0
1000
VulcanFeature=
  0
VERTEX
  8
DISP
 62
4
 10
478159.068
 20
6771978.403
 30
900.000
 70
    32
  0
VERTEX
  8
DISP
 62
4
 10
478158.480
 20
6771978.654
 30
900.000
 70
    32
  0
VERTEX
  8
DISP
 62
4
 10
478157.557
 20
6771979.741
 30
900.000
 70
    32
  0
VERTEX
  8
DISP
 62
4
 10
478157.219
 20
6771980.578
 30
900.000
 70
    32
  0
VERTEX
  8
DISP
 62
4
 10
478157.133
 20
6771982.002
 30
900.000
 70
    32
  0
VERTEX
  8
DISP
 62
4
 10
478158.133
 20
6771984.351
 30
900.000
 70
    32
  0
VERTEX
  8
DISP
 62
4
 10
478159.219
 20
6771985.274
 30
900.000
 70
    32
  0
VERTEX
  8
DISP
 62
4
 10
478160.057
 20
6771985.612
 30
900.000
 70
    32
  0
VERTEX
  8
DISP
 62
4
 10
478161.480
 20
6771985.699
 30
900.000
 70
    32
  0
VERTEX
  8
DISP
 62
4
 10
478162.654
 20
6771985.199
 30
900.000
 70
    32
  0
VERTEX
  8
DISP
 62
4
 10
478163.579
 20
6771984.113
 30
900.000
 70
    32
  0
VERTEX
  8
DISP
 62
4
 10
478164.840
 20
6771982.188
 30
900.000
 70
    32
  0
VERTEX
  8
DISP
 62
4
 10
478168.211
 20
6771973.818
 30
900.000
 70
    32
  0
VERTEX
  8
DISP
 62
4
 10
478171.711
 20
6771982.036
 30
900.000
 70
    32
  0
SEQEND
  8
DISP
  0
LINE
  8
DISP
 62
4
 10
478179.949
 20
6772001.426
 30
900.000
 11
478179.963
 21
6772001.420
 31
900.000
1001
MAPTEK_VULCAN
1000
VulcanName=Lava Obj
1000
VulcanGroup=
1000
VulcanValue=0
1000
VulcanDescription=Object created by Lava
1000
VulcanPrimitive=
1000
VulcanLine=0
1000
VulcanPattern=0
1000
VulcanFeature=
  0
LINE
  8
DISP
 62
4
 10
478173.770
 20
6772005.301
 30
900.000
 11
478178.769
 21
6772017.041
 31
900.000
1001
MAPTEK_VULCAN
1000
VulcanName=Lava Obj
1000
VulcanGroup=
1000
VulcanValue=0
1000
VulcanDescription=Object created by Lava
1000
VulcanPrimitive=
1000
VulcanLine=0
1000
VulcanPattern=0
1000
VulcanFeature=
  0
POLYLINE
  8
DISP
 62
4
 66
     1
 70
     8
1001
MAPTEK_VULCAN
1000
VulcanName=Lava Obj
1000
VulcanGroup=
1000
VulcanValue=0
1000
VulcanDescription=Object created by Lava
1000
VulcanPrimitive=
1000
VulcanLine=0
1000
VulcanPattern=0
1000
VulcanFeature=
  0
VERTEX
  8
DISP
 62
4
 10
478181.886
 20
6772040.143
 30
900.000
 70
    32
  0
VERTEX
  8
DISP
 62
4
 10
478187.605
 20
6772030.772
 30
900.000
 70
    32
  0
VERTEX
  8
DISP
 62
4
 10
478191.354
 20
6772039.579
 30
900.000
 70
    32
  0
SEQEND
  8
DISP
  0
LINE
  8
DISP
 62
4
 10
478181.886
 20
6772040.143
 30
900.000
 11
478194.215
 21
6772034.894
 31
900.000
1001
MAPTEK_VULCAN
1000
VulcanName=Lava Obj
1000
VulcanGroup=
1000
VulcanValue=0
1000
VulcanDescription=Object created by Lava
1000
VulcanPrimitive=
1000
VulcanLine=0
1000
VulcanPattern=0
1000
VulcanFeature=
  0
POLYLINE
  8
DISP
 62
4
 66
     1
 70
     9
1001
MAPTEK_VULCAN
1000
VulcanName=Lava Obj
1000
VulcanGroup=
1000
VulcanValue=0
1000
VulcanDescription=Object created by Lava
1000
VulcanPrimitive=
1000
VulcanLine=0
1000
VulcanPattern=0
1000
VulcanFeature=
  0
VERTEX
  8
DISP
 62
4
 10
478186.762
 20
6772051.595
 30
900.000
 70
    32
  0
VERTEX
  8
DISP
 62
4
 10
478186.599
 20
6772049.584
 30
900.000
 70
    32
  0
VERTEX
  8
DISP
 62
4
 10
478187.860
 20
6772047.660
 30
900.000
 70
    32
  0
VERTEX
  8
DISP
 62
4
 10
478190.545
 20
6772045.823
 30
900.000
 70
    32
  0
VERTEX
  8
DISP
 62
4
 10
478192.306
 20
6772045.074
 30
900.000
 70
    32
  0
VERTEX
  8
DISP
 62
4
 10
478195.492
 20
6772044.410
 30
900.000
 70
    32
  0
VERTEX
  8
DISP
 62
4
 10
478197.754
 20
6772044.835
 30
900.000
 70
    32
  0
VERTEX
  8
DISP
 62
4
 10
478199.090
 20
6772046.346
 30
900.000
 70
    32
  0
VERTEX
  8
DISP
 62
4
 10
478199.590
 20
6772047.520
 30
900.000
 70
    32
  0
VERTEX
  8
DISP
 62
4
 10
478199.754
 20
6772049.531
 30
900.000
 70
    32
  0
VERTEX
  8
DISP
 62
4
 10
478198.491
 20
6772051.456
 30
900.000
 70
    32
  0
VERTEX
  8
DISP
 62
4
 10
478195.805
 20
6772053.292
 30
900.000
 70
    32
  0
VERTEX
  8
DISP
 62
4
 10
478194.044
 20
6772054.042
 30
900.000
 70
    32
  0
VERTEX
  8
DISP
 62
4
 10
478190.859
 20
6772054.705
 30
900.000
 70
    32
  0
VERTEX
  8
DISP
 62
4
 10
478188.598
 20
6772054.281
 30
900.000
 70
    32
  0
VERTEX
  8
DISP
 62
4
 10
478187.262
 20
6772052.769
 30
900.000
 70
    32
  0
SEQEND
  8
DISP
  0
POLYLINE
  8
DISP
 62
4
 66
     1
 70
     8
1001
MAPTEK_VULCAN
1000
VulcanName=Lava Obj
1000
VulcanGroup=
1000
VulcanValue=0
1000
VulcanDescription=Object created by Lava
1000
VulcanPrimitive=
1000
VulcanLine=0
1000
VulcanPattern=0
1000
VulcanFeature=
  0
VERTEX
  8
DISP
 62
4
 10
478193.638
 20
6772067.745
 30
900.000
 70
    32
  0
VERTEX
  8
DISP
 62
4
 10
478199.357
 20
6772058.375
 30
900.000
 70
    32
  0
VERTEX
  8
DISP
 62
4
 10
478203.106
 20
6772067.181
 30
900.000
 70
    32
  0
SEQEND
  8
DISP
  0
LINE
  8
DISP
 62
4
 10
478193.638
 20
6772067.745
 30
900.000
 11
478205.966
 21
6772062.496
 31
900.000
1001
MAPTEK_VULCAN
1000
VulcanName=Lava Obj
1000
VulcanGroup=
1000
VulcanValue=0
1000
VulcanDescription=Object created by Lava
1000
VulcanPrimitive=
1000
VulcanLine=0
1000
VulcanPattern=0
1000
VulcanFeature=
  0
POLYLINE
  8
DISP
 62
4
 66
     1
 70
     8
1001
MAPTEK_VULCAN
1000
VulcanName=Lava Obj
1000
VulcanGroup=
1000
VulcanValue=0
1000
VulcanDescription=Object created by Lava
1000
VulcanPrimitive=
1000
VulcanLine=0
1000
VulcanPattern=0
1000
VulcanFeature=
  0
VERTEX
  8
DISP
 62
4
 10
478109.638
 20
6771847.501
 30
900.000
 70
    32
  0
VERTEX
  8
DISP
 62
4
 10
478112.363
 20
6771853.969
 30
900.000
 70
    32
  0
VERTEX
  8
DISP
 62
4
 10
478115.580
 20
6771848.459
 30
900.000
 70
    32
  0
VERTEX
  8
DISP
 62
4
 10
478116.324
 20
6771850.223
 30
900.000
 70
    32
  0
VERTEX
  8
DISP
 62
4
 10
478117.407
 20
6771851.152
 30
900.000
 70
    32
  0
VERTEX
  8
DISP
 62
4
 10
478118.243
 20
6771851.491
 30
900.000
 70
    32
  0
VERTEX
  8
DISP
 62
4
 10
478120.255
 20
6771851.335
 30
900.000
 70
    32
  0
VERTEX
  8
DISP
 62
4
 10
478121.431
 20
6771850.840
 30
900.000
 70
    32
  0
VERTEX
  8
DISP
 62
4
 10
478122.947
 20
6771849.509
 30
900.000
 70
    32
  0
VERTEX
  8
DISP
 62
4
 10
478123.628
 20
6771847.837
 30
900.000
 70
    32
  0
VERTEX
  8
DISP
 62
4
 10
478123.472
 20
6771845.825
 30
900.000
 70
    32
  0
VERTEX
  8
DISP
 62
4
 10
478122.729
 20
6771844.062
 30
900.000
 70
    32
  0
VERTEX
  8
DISP
 62
4
 10
478121.398
 20
6771842.545
 30
900.000
 70
    32
  0
VERTEX
  8
DISP
 62
4
 10
478120.561
 20
6771842.205
 30
900.000
 70
    32
  0
VERTEX
  8
DISP
 62
4
 10
478119.137
 20
6771842.113
 30
900.000
 70
    32
  0
SEQEND
  8
DISP
  0
LINE
  8
DISP
 62
4
 10
478133.125
 20
6771868.773
 30
900.000
 11
478133.139
 21
6771868.767
 31
900.000
1001
MAPTEK_VULCAN
1000
VulcanName=Lava Obj
1000
VulcanGroup=
1000
VulcanValue=0
1000
VulcanDescription=Object created by Lava
1000
VulcanPrimitive=
1000
VulcanLine=0
1000
VulcanPattern=0
1000
VulcanFeature=
  0
LINE
  8
DISP
 62
4
 10
478126.932
 20
6771872.625
 30
900.000
 11
478131.887
 21
6771884.384
 31
900.000
1001
MAPTEK_VULCAN
1000
VulcanName=Lava Obj
1000
VulcanGroup=
1000
VulcanValue=0
1000
VulcanDescription=Object created by Lava
1000
VulcanPrimitive=
1000
VulcanLine=0
1000
VulcanPattern=0
1000
VulcanFeature=
  0
POLYLINE
  8
DISP
 62
4
 66
     1
 70
     8
1001
MAPTEK_VULCAN
1000
VulcanName=Lava Obj
1000
VulcanGroup=
1000
VulcanValue=0
1000
VulcanDescription=Object created by Lava
1000
VulcanPrimitive=
1000
VulcanLine=0
1000
VulcanPattern=0
1000
VulcanFeature=
  0
VERTEX
  8
DISP
 62
4
 10
478134.918
 20
6771907.497
 30
900.000
 70
    32
  0
VERTEX
  8
DISP
 62
4
 10
478140.672
 20
6771898.148
 30
900.000
 70
    32
  0
VERTEX
  8
DISP
 62
4
 10
478144.388
 20
6771906.968
 30
900.000
 70
    32
  0
SEQEND
  8
DISP
  0
LINE
  8
DISP
 62
4
 10
478134.918
 20
6771907.497
 30
900.000
 11
478147.266
 21
6771902.294
 31
900.000
1001
MAPTEK_VULCAN
1000
VulcanName=Lava Obj
1000
VulcanGroup=
1000
VulcanValue=0
1000
VulcanDescription=Object created by Lava
1000
VulcanPrimitive=
1000
VulcanLine=0
1000
VulcanPattern=0
1000
VulcanFeature=
  0
POLYLINE
  8
DISP
 62
4
 66
     1
 70
     9
1001
MAPTEK_VULCAN
1000
VulcanName=Lava Obj
1000
VulcanGroup=
1000
VulcanValue=0
1000
VulcanDescription=Object created by Lava
1000
VulcanPrimitive=
1000
VulcanLine=0
1000
VulcanPattern=0
1000
VulcanFeature=
  0
VERTEX
  8
DISP
 62
4
 10
478139.751
 20
6771918.967
 30
900.000
 70
    32
  0
VERTEX
  8
DISP
 62
4
 10
478139.595
 20
6771916.956
 30
900.000
 70
    32
  0
VERTEX
  8
DISP
 62
4
 10
478140.863
 20
6771915.036
 30
900.000
 70
    32
  0
VERTEX
  8
DISP
 62
4
 10
478143.556
 20
6771913.210
 30
900.000
 70
    32
  0
VERTEX
  8
DISP
 62
4
 10
478145.320
 20
6771912.467
 30
900.000
 70
    32
  0
VERTEX
  8
DISP
 62
4
 10
478148.508
 20
6771911.815
 30
900.000
 70
    32
  0
VERTEX
  8
DISP
 62
4
 10
478150.768
 20
6771912.248
 30
900.000
 70
    32
  0
VERTEX
  8
DISP
 62
4
 10
478152.099
 20
6771913.764
 30
900.000
 70
    32
  0
VERTEX
  8
DISP
 62
4
 10
478152.595
 20
6771914.940
 30
900.000
 70
    32
  0
VERTEX
  8
DISP
 62
4
 10
478152.750
 20
6771916.952
 30
900.000
 70
    32
  0
VERTEX
  8
DISP
 62
4
 10
478151.481
 20
6771918.872
 30
900.000
 70
    32
  0
VERTEX
  8
DISP
 62
4
 10
478148.788
 20
6771920.698
 30
900.000
 70
    32
  0
VERTEX
  8
DISP
 62
4
 10
478147.025
 20
6771921.441
 30
900.000
 70
    32
  0
VERTEX
  8
DISP
 62
4
 10
478143.837
 20
6771922.093
 30
900.000
 70
    32
  0
VERTEX
  8
DISP
 62
4
 10
478141.577
 20
6771921.660
 30
900.000
 70
    32
  0
VERTEX
  8
DISP
 62
4
 10
478140.247
 20
6771920.143
 30
900.000
 70
    32
  0
SEQEND
  8
DISP
  0
POLYLINE
  8
DISP
 62
4
 66
     1
 70
     8
1001
MAPTEK_VULCAN
1000
VulcanName=Lava Obj
1000
VulcanGroup=
1000
VulcanValue=0
1000
VulcanDescription=Object created by Lava
1000
VulcanPrimitive=
1000
VulcanLine=0
1000
VulcanPattern=0
1000
VulcanFeature=
  0
VERTEX
  8
DISP
 62
4
 10
478147.063
 20
6771936.319
 30
900.000
 70
    32
  0
VERTEX
  8
DISP
 62
4
 10
478144.585
 20
6771930.439
 30
900.000
 70
    32
  0
VERTEX
  8
DISP
 62
4
 10
478149.628
 20
6771927.620
 30
900.000
 70
    32
  0
VERTEX
  8
DISP
 62
4
 10
478149.289
 20
6771928.457
 30
900.000
 70
    32
  0
VERTEX
  8
DISP
 62
4
 10
478149.444
 20
6771930.468
 30
900.000
 70
    32
  0
VERTEX
  8
DISP
 62
4
 10
478150.188
 20
6771932.232
 30
900.000
 70
    32
  0
VERTEX
  8
DISP
 62
4
 10
478151.518
 20
6771933.748
 30
900.000
 70
    32
  0
VERTEX
  8
DISP
 62
4
 10
478153.190
 20
6771934.429
 30
900.000
 70
    32
  0
VERTEX
  8
DISP
 62
4
 10
478155.202
 20
6771934.273
 30
900.000
 70
    32
  0
VERTEX
  8
DISP
 62
4
 10
478156.378
 20
6771933.777
 30
900.000
 70
    32
  0
VERTEX
  8
DISP
 62
4
 10
478157.894
 20
6771932.447
 30
900.000
 70
    32
  0
VERTEX
  8
DISP
 62
4
 10
478158.575
 20
6771930.775
 30
900.000
 70
    32
  0
VERTEX
  8
DISP
 62
4
 10
478158.419
 20
6771928.763
 30
900.000
 70
    32
  0
VERTEX
  8
DISP
 62
4
 10
478157.676
 20
6771927.000
 30
900.000
 70
    32
  0
VERTEX
  8
DISP
 62
4
 10
478156.345
 20
6771925.483
 30
900.000
 70
    32
  0
VERTEX
  8
DISP
 62
4
 10
478155.508
 20
6771925.143
 30
900.000
 70
    32
  0
VERTEX
  8
DISP
 62
4
 10
478154.085
 20
6771925.051
 30
900.000
 70
    32
  0
SEQEND
  8
DISP
  0
ENDSEC
  0
EOF
