0
SECTION
2
HEADER
9
$ACADVER
1
AC1015
9
$INSUNITS
70
1
0
ENDSEC
0
SECTION
2
TABLES
0
TABLE
2
LAYER
70
1
0
LAYER
2
SURFACE
70
0
62
7
6
CONTINUOUS
0
ENDTAB
0
ENDSEC
0
SECTION
2
ENTITIES
0
3DFACE
5
100
8
SURFACE
10
477972.615
20
6771466.251
30
226.000
11
477932.615
21
6771506.251
31
238.000
12
477944.215
22
6771510.505
32
226.002
13
477944.215
23
6771510.505
33
226.002
0
3DFACE
5
101
8
SURFACE
10
477972.615
20
6771466.251
30
226.000
11
477932.615
21
6771426.251
31
226.000
12
477932.615
22
6771506.251
32
238.000
13
477932.615
23
6771506.251
33
238.000
0
3DFACE
5
102
8
SURFACE
10
477932.615
20
6771426.251
30
226.000
11
477892.615
21
6771466.251
31
238.000
12
477932.615
22
6771506.251
32
238.000
13
477932.615
23
6771506.251
33
238.000
0
3DFACE
5
103
8
SURFACE
10
477932.615
20
6771426.251
30
226.000
11
477873.845
21
6771464.451
31
226.000
12
477892.615
22
6771466.251
32
238.000
13
477892.615
23
6771466.251
33
238.000
0
3DFACE
5
104
8
SURFACE
10
477788.122
20
6771513.734
30
238.000
11
477806.363
21
6771596.796
31
238.000
12
477932.615
22
6771506.251
32
238.000
13
477932.615
23
6771506.251
33
238.000
0
3DFACE
5
105
8
SURFACE
10
478072.680
20
6771536.961
30
226.000
11
478076.836
21
6771466.321
31
226.000
12
477972.615
22
6771466.251
32
226.000
13
477972.615
23
6771466.251
33
226.000
0
3DFACE
5
106
8
SURFACE
10
477972.615
20
6771466.251
30
226.000
11
477991.876
21
6771337.715
31
226.000
12
477932.615
22
6771426.251
32
226.000
13
477932.615
23
6771426.251
33
226.000
0
3DFACE
5
107
8
SURFACE
10
478072.680
20
6771536.961
30
226.000
11
478079.922
21
6771466.750
31
238.000
12
478076.836
22
6771466.321
32
226.000
13
478076.836
23
6771466.321
33
226.000
0
3DFACE
5
108
8
SURFACE
10
478090.192
20
6771405.823
30
226.000
11
477991.876
21
6771337.715
31
226.000
12
477972.615
22
6771466.251
32
226.000
13
477972.615
23
6771466.251
33
226.000
0
3DFACE
5
109
8
SURFACE
10
477944.215
20
6771510.505
30
226.002
11
478072.680
21
6771536.961
31
226.000
12
477972.615
22
6771466.251
32
226.000
13
477972.615
23
6771466.251
33
226.000
0
3DFACE
5
10A
8
SURFACE
10
478045.300
20
6771607.451
30
226.409
11
478075.752
21
6771537.631
31
238.000
12
478072.680
22
6771536.961
32
226.000
13
478072.680
23
6771536.961
33
226.000
0
3DFACE
5
10B
8
SURFACE
10
478105.423
20
6771544.099
30
238.000
11
478109.730
21
6771470.890
31
238.000
12
478075.752
22
6771537.631
32
238.000
13
478075.752
23
6771537.631
33
238.000
0
3DFACE
5
10C
8
SURFACE
10
478090.192
20
6771405.823
30
226.000
11
477972.615
21
6771466.251
31
226.000
12
478076.836
22
6771466.321
32
226.000
13
478076.836
23
6771466.321
33
226.000
0
3DFACE
5
10D
8
SURFACE
10
477798.958
20
6771417.501
30
226.000
11
477789.654
21
6771462.159
31
226.409
12
477873.845
22
6771464.451
32
226.000
13
477873.845
23
6771464.451
33
226.000
0
3DFACE
5
10E
8
SURFACE
10
478046.574
20
6771612.748
30
238.000
11
477932.615
21
6771506.251
31
238.000
12
478009.218
22
6771643.413
32
238.000
13
478009.218
23
6771643.413
33
238.000
0
3DFACE
5
10F
8
SURFACE
10
477944.215
20
6771510.505
30
226.002
11
478045.300
21
6771607.451
31
226.409
12
478072.680
22
6771536.961
32
226.000
13
478072.680
23
6771536.961
33
226.000
0
3DFACE
5
110
8
SURFACE
10
477944.215
20
6771510.505
30
226.002
11
477932.615
21
6771506.251
31
238.000
12
478046.574
22
6771612.748
32
238.000
13
478046.574
23
6771612.748
33
238.000
0
3DFACE
5
111
8
SURFACE
10
477798.958
20
6771417.501
30
226.000
11
477873.845
21
6771464.451
31
226.000
12
477804.258
22
6771395.646
32
226.000
13
477804.258
23
6771395.646
33
226.000
0
3DFACE
5
112
8
SURFACE
10
477788.122
20
6771513.734
30
238.000
11
477932.615
21
6771506.251
31
238.000
12
477892.615
22
6771466.251
32
238.000
13
477892.615
23
6771466.251
33
238.000
0
3DFACE
5
113
8
SURFACE
10
478093.170
20
6771406.743
30
238.000
11
478076.836
21
6771466.321
31
226.000
12
478079.922
22
6771466.750
32
238.000
13
478079.922
23
6771466.750
33
238.000
0
3DFACE
5
114
8
SURFACE
10
478093.170
20
6771406.743
30
238.000
11
478090.192
21
6771405.823
31
226.000
12
478076.836
22
6771466.321
32
226.000
13
478076.836
23
6771466.321
33
226.000
0
3DFACE
5
115
8
SURFACE
10
478079.922
20
6771466.750
30
238.000
11
478075.752
21
6771537.631
31
238.000
12
478109.730
22
6771470.890
32
238.000
13
478109.730
23
6771470.890
33
238.000
0
3DFACE
5
116
8
SURFACE
10
478111.641
20
6771493.155
30
250.000
11
478109.730
21
6771470.890
31
238.000
12
478105.423
22
6771544.099
32
238.000
13
478105.423
23
6771544.099
33
238.000
0
3DFACE
5
117
8
SURFACE
10
477804.258
20
6771395.646
30
226.000
11
477873.845
21
6771464.451
31
226.000
12
477812.884
22
6771367.226
32
226.000
13
477812.884
23
6771367.226
33
226.000
0
3DFACE
5
118
8
SURFACE
10
477766.657
20
6771410.222
30
238.000
11
477786.104
21
6771463.973
31
238.000
12
477795.927
22
6771416.818
32
238.000
13
477795.927
23
6771416.818
33
238.000
0
3DFACE
5
119
8
SURFACE
10
477786.104
20
6771463.973
30
238.000
11
477892.615
21
6771466.251
31
238.000
12
477873.845
22
6771464.451
32
226.000
13
477873.845
23
6771464.451
33
226.000
0
3DFACE
5
11A
8
SURFACE
10
477786.104
20
6771463.973
30
238.000
11
477873.845
21
6771464.451
31
226.000
12
477789.654
22
6771462.159
32
226.409
13
477789.654
23
6771462.159
33
226.409
0
3DFACE
5
11B
8
SURFACE
10
478121.931
20
6771415.625
30
238.000
11
478079.922
21
6771466.750
31
238.000
12
478109.730
22
6771470.890
32
238.000
13
478109.730
23
6771470.890
33
238.000
0
3DFACE
5
11C
8
SURFACE
10
478104.026
20
6771282.768
30
238.000
11
477985.485
21
6771300.647
31
226.000
12
477991.876
22
6771337.715
32
226.000
13
477991.876
23
6771337.715
33
226.000
0
3DFACE
5
11D
8
SURFACE
10
478009.218
20
6771643.413
30
238.000
11
477932.615
21
6771506.251
31
238.000
12
477963.307
22
6771657.187
32
238.000
13
477963.307
23
6771657.187
33
238.000
0
3DFACE
5
11E
8
SURFACE
10
478108.604
20
6771544.792
30
250.000
11
478074.290
21
6771632.828
31
249.591
12
478089.830
22
6771612.461
32
250.000
13
478089.830
23
6771612.461
33
250.000
0
3DFACE
5
11F
8
SURFACE
10
478116.340
20
6771532.484
30
250.000
11
478111.641
21
6771493.155
31
250.000
12
478108.604
22
6771544.792
32
250.000
13
478108.604
23
6771544.792
33
250.000
0
3DFACE
5
120
8
SURFACE
10
477804.258
20
6771395.646
30
226.000
11
477795.927
21
6771416.818
31
238.000
12
477798.958
22
6771417.501
32
226.000
13
477798.958
23
6771417.501
33
226.000
0
3DFACE
5
121
8
SURFACE
10
477798.958
20
6771417.501
30
226.000
11
477795.927
21
6771416.818
31
238.000
12
477789.654
22
6771462.159
32
226.409
13
477789.654
23
6771462.159
33
226.409
0
3DFACE
5
122
8
SURFACE
10
477812.884
20
6771367.226
30
226.000
11
477873.845
21
6771464.451
31
226.000
12
477932.615
22
6771426.251
32
226.000
13
477932.615
23
6771426.251
33
226.000
0
3DFACE
5
123
8
SURFACE
10
478108.604
20
6771544.792
30
250.000
11
478089.830
21
6771612.461
31
250.000
12
478115.527
22
6771546.301
32
250.000
13
478115.527
23
6771546.301
33
250.000
0
3DFACE
5
124
8
SURFACE
10
478121.931
20
6771415.625
30
238.000
11
478093.170
21
6771406.743
31
238.000
12
478079.922
22
6771466.750
32
238.000
13
478079.922
23
6771466.750
33
238.000
0
3DFACE
5
125
8
SURFACE
10
478152.979
20
6771459.464
30
246.000
11
478111.641
21
6771493.155
31
250.000
12
478148.984
22
6771499.671
32
250.000
13
478148.984
23
6771499.671
33
250.000
0
3DFACE
5
126
8
SURFACE
10
477812.884
20
6771367.226
30
226.000
11
477801.260
21
6771394.828
31
238.000
12
477804.258
22
6771395.646
32
226.000
13
477804.258
23
6771395.646
33
226.000
0
3DFACE
5
127
8
SURFACE
10
477804.258
20
6771395.646
30
226.000
11
477801.260
21
6771394.828
31
238.000
12
477795.927
22
6771416.818
32
238.000
13
477795.927
23
6771416.818
33
238.000
0
3DFACE
5
128
8
SURFACE
10
478075.752
20
6771537.631
30
238.000
11
478046.574
21
6771612.748
31
238.000
12
478105.423
22
6771544.099
32
238.000
13
478105.423
23
6771544.099
33
238.000
0
3DFACE
5
129
8
SURFACE
10
478079.922
20
6771466.750
30
238.000
11
478072.680
21
6771536.961
31
226.000
12
478075.752
22
6771537.631
32
238.000
13
478075.752
23
6771537.631
33
238.000
0
3DFACE
5
12A
8
SURFACE
10
478111.641
20
6771493.155
30
250.000
11
478115.884
21
6771452.960
31
246.000
12
478109.730
22
6771470.890
32
238.000
13
478109.730
23
6771470.890
33
238.000
0
3DFACE
5
12B
8
SURFACE
10
477963.307
20
6771657.187
30
238.000
11
477932.615
21
6771506.251
31
238.000
12
477871.293
22
6771647.668
32
238.000
13
477871.293
23
6771647.668
33
238.000
0
3DFACE
5
12C
8
SURFACE
10
478108.604
20
6771544.792
30
250.000
11
478111.641
21
6771493.155
31
250.000
12
478105.423
22
6771544.099
32
238.000
13
478105.423
23
6771544.099
33
238.000
0
3DFACE
5
12D
8
SURFACE
10
478045.300
20
6771607.451
30
226.409
11
477944.215
21
6771510.505
31
226.002
12
478046.574
22
6771612.748
32
238.000
13
478046.574
23
6771612.748
33
238.000
0
3DFACE
5
12E
8
SURFACE
10
478115.527
20
6771546.301
30
250.000
11
478117.411
21
6771532.519
31
254.000
12
478116.340
22
6771532.484
32
250.000
13
478116.340
23
6771532.484
33
250.000
0
3DFACE
5
12F
8
SURFACE
10
478116.340
20
6771532.484
30
250.000
11
478117.411
21
6771532.519
31
254.000
12
478111.641
22
6771493.155
32
250.000
13
478111.641
23
6771493.155
33
250.000
0
3DFACE
5
130
8
SURFACE
10
477823.395
20
6771340.416
30
226.000
11
477812.884
21
6771367.226
31
226.000
12
477932.615
22
6771426.251
32
226.000
13
477932.615
23
6771426.251
33
226.000
0
3DFACE
5
131
8
SURFACE
10
478094.022
20
6771610.547
30
262.000
11
478115.527
21
6771546.301
31
250.000
12
478089.830
22
6771612.461
32
250.000
13
478089.830
23
6771612.461
33
250.000
0
3DFACE
5
132
8
SURFACE
10
478108.604
20
6771544.792
30
250.000
11
478115.527
21
6771546.301
31
250.000
12
478116.340
22
6771532.484
32
250.000
13
478116.340
23
6771532.484
33
250.000
0
3DFACE
5
133
8
SURFACE
10
477820.515
20
6771339.255
30
238.000
11
477809.948
21
6771366.206
31
238.000
12
477812.884
22
6771367.226
32
226.000
13
477812.884
23
6771367.226
33
226.000
0
3DFACE
5
134
8
SURFACE
10
477812.884
20
6771367.226
30
226.000
11
477809.948
21
6771366.206
31
238.000
12
477801.260
22
6771394.828
32
238.000
13
477801.260
23
6771394.828
33
238.000
0
3DFACE
5
135
8
SURFACE
10
478094.022
20
6771610.547
30
262.000
11
478116.958
21
6771546.613
31
255.401
12
478115.527
22
6771546.301
32
250.000
13
478115.527
23
6771546.301
33
250.000
0
3DFACE
5
136
8
SURFACE
10
478115.527
20
6771546.301
30
250.000
11
478116.958
21
6771546.613
31
255.401
12
478117.411
22
6771532.519
32
254.000
13
478117.411
23
6771532.519
33
254.000
0
3DFACE
5
137
8
SURFACE
10
477788.122
20
6771513.734
30
238.000
11
477892.615
21
6771466.251
31
238.000
12
477786.104
22
6771463.973
32
238.000
13
477786.104
23
6771463.973
33
238.000
0
3DFACE
5
138
8
SURFACE
10
477828.587
20
6771624.006
30
238.000
11
477871.293
21
6771647.668
31
238.000
12
477932.615
22
6771506.251
32
238.000
13
477932.615
23
6771506.251
33
238.000
0
3DFACE
5
139
8
SURFACE
10
478114.912
20
6771344.252
30
226.000
11
477991.876
21
6771337.715
31
226.000
12
478090.192
22
6771405.823
32
226.000
13
478090.192
23
6771405.823
33
226.000
0
3DFACE
5
13A
8
SURFACE
10
477838.684
20
6771303.488
30
226.000
11
477823.395
21
6771340.416
31
226.000
12
477932.615
22
6771426.251
32
226.000
13
477932.615
23
6771426.251
33
226.000
0
3DFACE
5
13B
8
SURFACE
10
477806.363
20
6771596.796
30
238.000
11
477828.587
21
6771624.006
31
238.000
12
477932.615
22
6771506.251
32
238.000
13
477932.615
23
6771506.251
33
238.000
0
3DFACE
5
13C
8
SURFACE
10
478115.884
20
6771452.960
30
246.000
11
478121.931
21
6771415.625
31
238.000
12
478109.730
22
6771470.890
32
238.000
13
478109.730
23
6771470.890
33
238.000
0
3DFACE
5
13D
8
SURFACE
10
478093.170
20
6771406.743
30
238.000
11
478114.912
21
6771344.252
31
226.000
12
478090.192
22
6771405.823
32
226.000
13
478090.192
23
6771405.823
33
226.000
0
3DFACE
5
13E
8
SURFACE
10
478124.129
20
6771413.028
30
242.000
11
478152.979
21
6771459.464
31
246.000
12
478161.231
22
6771419.938
32
242.000
13
478161.231
23
6771419.938
33
242.000
0
3DFACE
5
13F
8
SURFACE
10
478121.931
20
6771415.625
30
238.000
11
478115.884
21
6771452.960
31
246.000
12
478124.129
22
6771413.028
32
242.000
13
478124.129
23
6771413.028
33
242.000
0
3DFACE
5
140
8
SURFACE
10
477838.684
20
6771303.488
30
226.000
11
477932.615
21
6771426.251
31
226.000
12
477991.876
22
6771337.715
32
226.000
13
477991.876
23
6771337.715
33
226.000
0
3DFACE
5
141
8
SURFACE
10
478148.984
20
6771499.671
30
250.000
11
478111.641
21
6771493.155
31
250.000
12
478117.411
22
6771532.519
32
254.000
13
478117.411
23
6771532.519
33
254.000
0
3DFACE
5
142
8
SURFACE
10
478121.931
20
6771415.625
30
238.000
11
478138.227
21
6771375.036
31
238.000
12
478093.170
22
6771406.743
32
238.000
13
478093.170
23
6771406.743
33
238.000
0
3DFACE
5
143
8
SURFACE
10
477835.811
20
6771302.309
30
238.000
11
477820.515
21
6771339.255
31
238.000
12
477823.395
22
6771340.416
32
226.000
13
477823.395
23
6771340.416
33
226.000
0
3DFACE
5
144
8
SURFACE
10
477823.395
20
6771340.416
30
226.000
11
477820.515
21
6771339.255
31
238.000
12
477812.884
22
6771367.226
32
226.000
13
477812.884
23
6771367.226
33
226.000
0
3DFACE
5
145
8
SURFACE
10
478075.752
20
6771537.631
30
238.000
11
478045.300
21
6771607.451
31
226.409
12
478046.574
22
6771612.748
32
238.000
13
478046.574
23
6771612.748
33
238.000
0
3DFACE
5
146
8
SURFACE
10
478105.423
20
6771544.099
30
238.000
11
478046.574
21
6771612.748
31
238.000
12
478071.690
22
6771630.944
32
238.000
13
478071.690
23
6771630.944
33
238.000
0
3DFACE
5
147
8
SURFACE
10
477786.104
20
6771463.973
30
238.000
11
477758.253
21
6771517.589
31
238.000
12
477788.122
22
6771513.734
32
238.000
13
477788.122
23
6771513.734
33
238.000
0
3DFACE
5
148
8
SURFACE
10
477788.122
20
6771513.734
30
238.000
11
477758.253
21
6771517.589
31
238.000
12
477806.363
22
6771596.796
32
238.000
13
477806.363
23
6771596.796
33
238.000
0
3DFACE
5
149
8
SURFACE
10
477755.978
20
6771461.484
30
238.000
11
477758.253
21
6771517.589
31
238.000
12
477786.104
22
6771463.973
32
238.000
13
477786.104
23
6771463.973
33
238.000
0
3DFACE
5
14A
8
SURFACE
10
477755.978
20
6771461.484
30
238.000
11
477786.104
21
6771463.973
31
238.000
12
477766.657
22
6771410.222
32
238.000
13
477766.657
23
6771410.222
33
238.000
0
3DFACE
5
14B
8
SURFACE
10
477789.654
20
6771462.159
30
226.409
11
477795.927
21
6771416.818
31
238.000
12
477786.104
22
6771463.973
32
238.000
13
477786.104
23
6771463.973
33
238.000
0
3DFACE
5
14C
8
SURFACE
10
477766.657
20
6771410.222
30
238.000
11
477772.306
21
6771386.930
31
238.000
12
477763.627
22
6771409.539
32
249.591
13
477763.627
23
6771409.539
33
249.591
0
3DFACE
5
14D
8
SURFACE
10
477766.657
20
6771410.222
30
238.000
11
477795.927
21
6771416.818
31
238.000
12
477801.260
22
6771394.828
32
238.000
13
477801.260
23
6771394.828
33
238.000
0
3DFACE
5
14E
8
SURFACE
10
478023.602
20
6771670.419
30
238.000
11
478071.690
21
6771630.944
31
238.000
12
478046.574
22
6771612.748
32
238.000
13
478046.574
23
6771612.748
33
238.000
0
3DFACE
5
14F
8
SURFACE
10
478074.290
20
6771632.828
30
249.591
11
478028.448
21
6771679.516
31
249.591
12
478080.151
22
6771637.074
32
249.591
13
478080.151
23
6771637.074
33
249.591
0
3DFACE
5
150
8
SURFACE
10
478092.824
20
6771613.632
30
262.000
11
478094.022
21
6771610.547
31
262.000
12
478089.830
22
6771612.461
32
250.000
13
478089.830
23
6771612.461
33
250.000
0
3DFACE
5
151
8
SURFACE
10
478108.604
20
6771544.792
30
250.000
11
478105.423
21
6771544.099
31
238.000
12
478071.690
22
6771630.944
32
238.000
13
478071.690
23
6771630.944
33
238.000
0
3DFACE
5
152
8
SURFACE
10
477766.657
20
6771410.222
30
238.000
11
477801.260
21
6771394.828
31
238.000
12
477772.306
22
6771386.930
32
238.000
13
477772.306
23
6771386.930
33
238.000
0
3DFACE
5
153
8
SURFACE
10
478092.417
20
6771616.599
30
262.000
11
478092.824
21
6771613.632
31
262.000
12
478082.837
22
6771639.028
32
261.591
13
478082.837
23
6771639.028
33
261.591
0
3DFACE
5
154
8
SURFACE
10
477755.978
20
6771461.484
30
238.000
11
477755.161
21
6771517.988
31
249.591
12
477758.253
22
6771517.589
32
238.000
13
477758.253
23
6771517.589
33
238.000
0
3DFACE
5
155
8
SURFACE
10
477758.253
20
6771517.589
30
238.000
11
477778.597
21
6771610.226
31
238.000
12
477806.363
22
6771596.796
32
238.000
13
477806.363
23
6771596.796
33
238.000
0
3DFACE
5
156
8
SURFACE
10
477763.627
20
6771409.539
30
249.591
11
477752.859
21
6771461.226
31
249.591
12
477755.978
22
6771461.484
32
238.000
13
477755.978
23
6771461.484
33
238.000
0
3DFACE
5
157
8
SURFACE
10
477755.978
20
6771461.484
30
238.000
11
477752.859
21
6771461.226
31
249.591
12
477755.161
22
6771517.988
32
249.591
13
477755.161
23
6771517.988
33
249.591
0
3DFACE
5
158
8
SURFACE
10
478023.602
20
6771670.419
30
238.000
11
478046.574
21
6771612.748
31
238.000
12
478009.218
22
6771643.413
32
238.000
13
478009.218
23
6771643.413
33
238.000
0
3DFACE
5
159
8
SURFACE
10
478080.151
20
6771637.074
30
249.591
11
478092.824
21
6771613.632
31
262.000
12
478089.830
22
6771612.461
32
250.000
13
478089.830
23
6771612.461
33
250.000
0
3DFACE
5
15A
8
SURFACE
10
478074.290
20
6771632.828
30
249.591
11
478108.604
21
6771544.792
31
250.000
12
478071.690
22
6771630.944
32
238.000
13
478071.690
23
6771630.944
33
238.000
0
3DFACE
5
15B
8
SURFACE
10
478092.824
20
6771613.632
30
262.000
11
478092.417
21
6771616.599
31
262.000
12
478094.022
22
6771610.547
32
262.000
13
478094.022
23
6771610.547
33
262.000
0
3DFACE
5
15C
8
SURFACE
10
478148.984
20
6771499.671
30
250.000
11
478153.886
21
6771539.244
31
254.039
12
478152.785
22
6771505.611
32
262.000
13
478152.785
23
6771505.611
33
262.000
0
3DFACE
5
15D
8
SURFACE
10
477772.306
20
6771386.930
30
238.000
11
477801.260
21
6771394.828
31
238.000
12
477809.948
22
6771366.206
32
238.000
13
477809.948
23
6771366.206
33
238.000
0
3DFACE
5
15E
8
SURFACE
10
477766.657
20
6771410.222
30
238.000
11
477763.627
21
6771409.539
31
249.591
12
477755.978
22
6771461.484
32
238.000
13
477755.978
23
6771461.484
33
238.000
0
3DFACE
5
15F
8
SURFACE
10
477769.309
20
6771386.112
30
249.591
11
477772.306
21
6771386.930
31
238.000
12
477781.585
22
6771356.359
32
238.000
13
477781.585
23
6771356.359
33
238.000
0
3DFACE
5
160
8
SURFACE
10
478117.411
20
6771532.519
30
254.000
11
478153.886
21
6771539.244
31
254.039
12
478148.984
22
6771499.671
32
250.000
13
478148.984
23
6771499.671
33
250.000
0
3DFACE
5
161
8
SURFACE
10
478152.246
20
6771500.000
30
261.967
11
478148.984
21
6771499.671
31
250.000
12
478152.785
22
6771505.611
32
262.000
13
478152.785
23
6771505.611
33
262.000
0
3DFACE
5
162
8
SURFACE
10
477781.585
20
6771356.359
30
238.000
11
477772.306
21
6771386.930
31
238.000
12
477809.948
22
6771366.206
32
238.000
13
477809.948
23
6771366.206
33
238.000
0
3DFACE
5
163
8
SURFACE
10
477772.306
20
6771386.930
30
238.000
11
477769.309
21
6771386.112
31
249.591
12
477763.627
22
6771409.539
32
249.591
13
477763.627
23
6771409.539
33
249.591
0
3DFACE
5
164
8
SURFACE
10
478025.091
20
6771673.215
30
249.591
11
478023.602
21
6771670.419
31
238.000
12
477966.482
22
6771690.798
32
249.591
13
477966.482
23
6771690.798
33
249.591
0
3DFACE
5
165
8
SURFACE
10
477966.184
20
6771687.645
30
238.000
11
478023.602
21
6771670.419
31
238.000
12
478009.218
22
6771643.413
32
238.000
13
478009.218
23
6771643.413
33
238.000
0
3DFACE
5
166
8
SURFACE
10
477752.859
20
6771461.226
30
249.591
11
477748.192
21
6771518.888
31
249.591
12
477755.161
22
6771517.988
32
249.591
13
477755.161
23
6771517.988
33
249.591
0
3DFACE
5
167
8
SURFACE
10
477755.161
20
6771517.988
30
249.591
11
477778.597
21
6771610.226
31
238.000
12
477758.253
22
6771517.589
32
238.000
13
477758.253
23
6771517.589
33
238.000
0
3DFACE
5
168
8
SURFACE
10
477756.797
20
6771408.000
30
249.591
11
477745.830
21
6771460.645
31
249.591
12
477752.859
22
6771461.226
32
249.591
13
477752.859
23
6771461.226
33
249.591
0
3DFACE
5
169
8
SURFACE
10
477752.859
20
6771461.226
30
249.591
11
477745.830
21
6771460.645
31
249.591
12
477748.192
22
6771518.888
32
249.591
13
477748.192
23
6771518.888
33
249.591
0
3DFACE
5
16A
8
SURFACE
10
477756.797
20
6771408.000
30
249.591
11
477752.859
21
6771461.226
31
249.591
12
477763.627
22
6771409.539
32
249.591
13
477763.627
23
6771409.539
33
249.591
0
3DFACE
5
16B
8
SURFACE
10
478074.290
20
6771632.828
30
249.591
11
478080.151
21
6771637.074
31
249.591
12
478089.830
22
6771612.461
32
250.000
13
478089.830
23
6771612.461
33
250.000
0
3DFACE
5
16C
8
SURFACE
10
478082.837
20
6771639.028
30
261.591
11
478080.151
21
6771637.074
31
249.591
12
478029.989
22
6771682.411
32
261.591
13
478029.989
23
6771682.411
33
261.591
0
3DFACE
5
16D
8
SURFACE
10
478162.857
20
6771538.704
30
274.000
11
478161.794
21
6771501.953
31
274.000
12
478159.637
22
6771538.560
32
262.000
13
478159.637
23
6771538.560
33
262.000
0
3DFACE
5
16E
8
SURFACE
10
478152.979
20
6771459.464
30
246.000
11
478115.884
21
6771452.960
31
246.000
12
478111.641
22
6771493.155
32
250.000
13
478111.641
23
6771493.155
33
250.000
0
3DFACE
5
16F
8
SURFACE
10
477769.309
20
6771386.112
30
249.591
11
477756.797
21
6771408.000
31
249.591
12
477763.627
22
6771409.539
32
249.591
13
477763.627
23
6771409.539
33
249.591
0
3DFACE
5
170
8
SURFACE
10
478117.411
20
6771532.519
30
254.000
11
478116.958
21
6771546.613
31
255.401
12
478153.886
22
6771539.244
32
254.039
13
478153.886
23
6771539.244
33
254.039
0
3DFACE
5
171
8
SURFACE
10
478154.009
20
6771459.567
30
249.864
11
478148.984
21
6771499.671
31
250.000
12
478160.908
22
6771460.809
32
249.591
13
478160.908
23
6771460.809
33
249.591
0
3DFACE
5
172
8
SURFACE
10
478154.009
20
6771459.567
30
249.864
11
478152.979
21
6771459.464
31
246.000
12
478148.984
22
6771499.671
32
250.000
13
478148.984
23
6771499.671
33
250.000
0
3DFACE
5
173
8
SURFACE
10
477966.184
20
6771687.645
30
238.000
11
478009.218
21
6771643.413
31
238.000
12
477963.307
22
6771657.187
32
238.000
13
477963.307
23
6771657.187
33
238.000
0
3DFACE
5
174
8
SURFACE
10
478025.091
20
6771673.215
30
249.591
11
478074.290
21
6771632.828
31
249.591
12
478071.690
22
6771630.944
32
238.000
13
478071.690
23
6771630.944
33
238.000
0
3DFACE
5
175
8
SURFACE
10
477745.830
20
6771460.645
30
249.591
11
477744.991
21
6771519.301
31
261.591
12
477748.192
22
6771518.888
32
249.591
13
477748.192
23
6771518.888
33
249.591
0
3DFACE
5
176
8
SURFACE
10
477775.723
20
6771611.616
30
249.591
11
477778.597
21
6771610.226
31
238.000
12
477755.161
22
6771517.988
32
249.591
13
477755.161
23
6771517.988
33
249.591
0
3DFACE
5
177
8
SURFACE
10
477871.293
20
6771647.668
30
238.000
11
477966.184
21
6771687.645
31
238.000
12
477963.307
22
6771657.187
32
238.000
13
477963.307
23
6771657.187
33
238.000
0
3DFACE
5
178
8
SURFACE
10
477753.660
20
6771407.293
30
261.591
11
477742.601
21
6771460.378
31
261.591
12
477745.830
22
6771460.645
32
249.591
13
477745.830
23
6771460.645
33
249.591
0
3DFACE
5
179
8
SURFACE
10
477745.830
20
6771460.645
30
249.591
11
477742.601
21
6771460.378
31
261.591
12
477744.991
22
6771519.301
32
261.591
13
477744.991
23
6771519.301
33
261.591
0
3DFACE
5
17A
8
SURFACE
10
478080.151
20
6771637.074
30
249.591
11
478082.837
21
6771639.028
31
261.591
12
478092.824
22
6771613.632
32
262.000
13
478092.824
23
6771613.632
33
262.000
0
3DFACE
5
17B
8
SURFACE
10
478153.886
20
6771539.244
30
254.039
11
478116.958
21
6771546.613
31
255.401
12
478151.774
22
6771559.285
32
255.401
13
478151.774
23
6771559.285
33
255.401
0
3DFACE
5
17C
8
SURFACE
10
478084.429
20
6771655.779
30
262.000
11
478082.837
21
6771639.028
31
261.591
12
478029.989
22
6771682.411
32
261.591
13
478029.989
23
6771682.411
33
261.591
0
3DFACE
5
17D
8
SURFACE
10
478160.908
20
6771460.809
30
249.591
11
478148.984
21
6771499.671
31
250.000
12
478152.246
22
6771500.000
32
261.967
13
478152.246
23
6771500.000
33
261.967
0
3DFACE
5
17E
8
SURFACE
10
478152.979
20
6771459.464
30
246.000
11
478124.129
21
6771413.028
31
242.000
12
478115.884
22
6771452.960
32
246.000
13
478115.884
23
6771452.960
33
246.000
0
3DFACE
5
17F
8
SURFACE
10
477762.553
20
6771384.269
30
249.591
11
477753.660
21
6771407.293
31
261.591
12
477756.797
22
6771408.000
32
249.591
13
477756.797
23
6771408.000
33
249.591
0
3DFACE
5
180
8
SURFACE
10
477756.797
20
6771408.000
30
249.591
11
477753.660
21
6771407.293
31
261.591
12
477745.830
22
6771460.645
32
249.591
13
477745.830
23
6771460.645
33
249.591
0
3DFACE
5
181
8
SURFACE
10
477792.688
20
6771328.040
30
238.000
11
477781.585
21
6771356.359
31
238.000
12
477809.948
22
6771366.206
32
238.000
13
477809.948
23
6771366.206
33
238.000
0
3DFACE
5
182
8
SURFACE
10
477769.309
20
6771386.112
30
249.591
11
477762.553
21
6771384.269
31
249.591
12
477756.797
22
6771408.000
32
249.591
13
477756.797
23
6771408.000
33
249.591
0
3DFACE
5
183
8
SURFACE
10
477985.485
20
6771300.647
30
226.000
11
477838.684
21
6771303.488
31
226.000
12
477991.876
22
6771337.715
32
226.000
13
477991.876
23
6771337.715
33
226.000
0
3DFACE
5
184
8
SURFACE
10
477789.807
20
6771326.879
30
249.591
11
477778.649
21
6771355.340
31
249.591
12
477781.585
22
6771356.359
32
238.000
13
477781.585
23
6771356.359
33
238.000
0
3DFACE
5
185
8
SURFACE
10
477778.649
20
6771355.340
30
249.591
11
477762.553
21
6771384.269
31
249.591
12
477769.309
22
6771386.112
32
249.591
13
477769.309
23
6771386.112
33
249.591
0
3DFACE
5
186
8
SURFACE
10
477967.153
20
6771697.905
30
249.591
11
477966.482
21
6771690.798
31
249.591
12
477861.162
22
6771679.903
32
249.591
13
477861.162
23
6771679.903
33
249.591
0
3DFACE
5
187
8
SURFACE
10
477966.184
20
6771687.645
30
238.000
11
477966.482
21
6771690.798
31
249.591
12
478023.602
22
6771670.419
32
238.000
13
478023.602
23
6771670.419
33
238.000
0
3DFACE
5
188
8
SURFACE
10
478153.886
20
6771539.244
30
254.039
11
478151.774
21
6771559.285
31
255.401
12
478156.031
22
6771539.275
32
262.000
13
478156.031
23
6771539.275
33
262.000
0
3DFACE
5
189
8
SURFACE
10
478152.785
20
6771505.611
30
262.000
11
478158.564
21
6771501.494
31
262.000
12
478152.246
22
6771500.000
32
261.967
13
478152.246
23
6771500.000
33
261.967
0
3DFACE
5
18A
8
SURFACE
10
477772.031
20
6771353.042
30
249.591
11
477778.649
21
6771355.340
31
249.591
12
477783.314
22
6771324.263
32
249.591
13
477783.314
23
6771324.263
33
249.591
0
3DFACE
5
18B
8
SURFACE
10
477781.585
20
6771356.359
30
238.000
11
477778.649
21
6771355.340
31
249.591
12
477769.309
22
6771386.112
32
249.591
13
477769.309
23
6771386.112
33
249.591
0
3DFACE
5
18C
8
SURFACE
10
477848.996
20
6771269.885
30
238.000
11
477835.811
21
6771302.309
31
238.000
12
477838.684
22
6771303.488
32
226.000
13
477838.684
23
6771303.488
33
226.000
0
3DFACE
5
18D
8
SURFACE
10
477838.684
20
6771303.488
30
226.000
11
477835.811
21
6771302.309
31
238.000
12
477823.395
22
6771340.416
32
226.000
13
477823.395
23
6771340.416
33
226.000
0
3DFACE
5
18E
8
SURFACE
10
477775.723
20
6771611.616
30
249.591
11
477755.161
21
6771517.988
31
249.591
12
477748.192
22
6771518.888
32
249.591
13
477748.192
23
6771518.888
33
249.591
0
3DFACE
5
18F
8
SURFACE
10
477806.363
20
6771596.796
30
238.000
11
477809.001
21
6771647.452
31
238.000
12
477828.587
22
6771624.006
32
238.000
13
477828.587
23
6771624.006
33
238.000
0
3DFACE
5
190
8
SURFACE
10
477809.001
20
6771647.452
30
238.000
11
477862.113
21
6771676.879
31
238.000
12
477871.293
22
6771647.668
32
238.000
13
477871.293
23
6771647.668
33
238.000
0
3DFACE
5
191
8
SURFACE
10
477871.293
20
6771647.668
30
238.000
11
477862.113
21
6771676.879
31
238.000
12
477966.184
22
6771687.645
32
238.000
13
477966.184
23
6771687.645
33
238.000
0
3DFACE
5
192
8
SURFACE
10
477772.031
20
6771353.042
30
249.591
11
477759.449
21
6771383.423
31
261.591
12
477762.553
22
6771384.269
32
249.591
13
477762.553
23
6771384.269
33
249.591
0
3DFACE
5
193
8
SURFACE
10
477762.553
20
6771384.269
30
249.591
11
477759.449
21
6771383.423
31
261.591
12
477753.660
22
6771407.293
32
261.591
13
477753.660
23
6771407.293
33
261.591
0
3DFACE
5
194
8
SURFACE
10
477809.001
20
6771647.452
30
238.000
11
477871.293
21
6771647.668
31
238.000
12
477828.587
22
6771624.006
32
238.000
13
477828.587
23
6771624.006
33
238.000
0
3DFACE
5
195
8
SURFACE
10
477967.153
20
6771697.905
30
249.591
11
478028.448
21
6771679.516
31
249.591
12
478025.091
22
6771673.215
32
249.591
13
478025.091
23
6771673.215
33
249.591
0
3DFACE
5
196
8
SURFACE
10
478025.091
20
6771673.215
30
249.591
11
478071.690
21
6771630.944
31
238.000
12
478023.602
22
6771670.419
32
238.000
13
478023.602
23
6771670.419
33
238.000
0
3DFACE
5
197
8
SURFACE
10
478116.958
20
6771546.613
30
255.401
11
478094.022
21
6771610.547
31
262.000
12
478151.774
22
6771559.285
32
255.401
13
478151.774
23
6771559.285
33
255.401
0
3DFACE
5
198
8
SURFACE
10
477742.601
20
6771460.378
30
261.591
11
477738.021
21
6771520.200
31
261.591
12
477744.991
22
6771519.301
32
261.591
13
477744.991
23
6771519.301
33
261.591
0
3DFACE
5
199
8
SURFACE
10
477769.244
20
6771614.750
30
249.591
11
477775.723
21
6771611.616
31
249.591
12
477748.192
22
6771518.888
32
249.591
13
477748.192
23
6771518.888
33
249.591
0
3DFACE
5
19A
8
SURFACE
10
477746.831
20
6771405.754
30
261.591
11
477735.572
21
6771459.798
31
261.591
12
477742.601
22
6771460.378
32
261.591
13
477742.601
23
6771460.378
33
261.591
0
3DFACE
5
19B
8
SURFACE
10
477742.601
20
6771460.378
30
261.591
11
477735.572
21
6771459.798
31
261.591
12
477738.021
22
6771520.200
32
261.591
13
477738.021
23
6771520.200
33
261.591
0
3DFACE
5
19C
8
SURFACE
10
477746.831
20
6771405.754
30
261.591
11
477742.601
21
6771460.378
31
261.591
12
477753.660
22
6771407.293
32
261.591
13
477753.660
23
6771407.293
33
261.591
0
3DFACE
5
19D
8
SURFACE
10
478164.014
20
6771461.651
30
261.591
11
478160.908
21
6771460.809
31
249.591
12
478152.246
22
6771500.000
32
261.967
13
478152.246
23
6771500.000
33
261.967
0
3DFACE
5
19E
8
SURFACE
10
478154.009
20
6771459.567
30
249.864
11
478161.231
21
6771419.938
31
242.000
12
478152.979
22
6771459.464
32
246.000
13
478152.979
23
6771459.464
33
246.000
0
3DFACE
5
19F
8
SURFACE
10
478161.794
20
6771501.953
30
274.000
11
478158.564
21
6771501.494
31
262.000
12
478159.637
22
6771538.560
32
262.000
13
478159.637
23
6771538.560
33
262.000
0
3DFACE
5
1A0
8
SURFACE
10
478158.564
20
6771501.494
30
262.000
11
478164.014
21
6771461.651
31
261.591
12
478152.246
22
6771500.000
32
261.967
13
478152.246
23
6771500.000
33
261.967
0
3DFACE
5
1A1
8
SURFACE
10
477759.449
20
6771383.423
30
261.591
11
477746.831
21
6771405.754
31
261.591
12
477753.660
22
6771407.293
32
261.591
13
477753.660
23
6771407.293
33
261.591
0
3DFACE
5
1A2
8
SURFACE
10
478131.981
20
6771624.033
30
274.000
11
478156.977
21
6771560.974
31
262.000
12
478128.904
22
6771623.032
32
262.000
13
478128.904
23
6771623.032
33
262.000
0
3DFACE
5
1A3
8
SURFACE
10
478156.031
20
6771539.275
30
262.000
11
478159.637
21
6771538.560
31
262.000
12
478152.785
22
6771505.611
32
262.000
13
478152.785
23
6771505.611
33
262.000
0
3DFACE
5
1A4
8
SURFACE
10
477769.244
20
6771614.750
30
249.591
11
477748.192
21
6771518.888
31
249.591
12
477744.991
22
6771519.301
32
261.591
13
477744.991
23
6771519.301
33
261.591
0
3DFACE
5
1A5
8
SURFACE
10
477778.597
20
6771610.226
30
238.000
11
477809.001
21
6771647.452
31
238.000
12
477806.363
22
6771596.796
32
238.000
13
477806.363
23
6771596.796
33
238.000
0
3DFACE
5
1A6
8
SURFACE
10
478138.227
20
6771375.036
30
238.000
11
478121.931
21
6771415.625
31
238.000
12
478124.129
22
6771413.028
32
242.000
13
478124.129
23
6771413.028
33
242.000
0
3DFACE
5
1A7
8
SURFACE
10
478118.202
20
6771344.392
30
238.000
11
478114.912
21
6771344.252
31
226.000
12
478093.170
22
6771406.743
32
238.000
13
478093.170
23
6771406.743
33
238.000
0
3DFACE
5
1A8
8
SURFACE
10
477806.973
20
6771649.879
30
249.591
11
477809.001
21
6771647.452
31
238.000
12
477778.597
22
6771610.226
32
238.000
13
477778.597
23
6771610.226
33
238.000
0
3DFACE
5
1A9
8
SURFACE
10
477806.973
20
6771649.879
30
249.591
11
477861.162
21
6771679.903
31
249.591
12
477862.113
22
6771676.879
32
238.000
13
477862.113
23
6771676.879
33
238.000
0
3DFACE
5
1AA
8
SURFACE
10
477862.113
20
6771676.879
30
238.000
11
477966.482
21
6771690.798
31
249.591
12
477966.184
22
6771687.645
32
238.000
13
477966.184
23
6771687.645
33
238.000
0
3DFACE
5
1AB
8
SURFACE
10
477998.418
20
6771729.235
30
261.591
11
478029.989
21
6771682.411
31
261.591
12
477967.461
22
6771701.169
32
261.591
13
477967.461
23
6771701.169
33
261.591
0
3DFACE
5
1AC
8
SURFACE
10
478028.448
20
6771679.516
30
249.591
11
478074.290
21
6771632.828
31
249.591
12
478025.091
22
6771673.215
32
249.591
13
478025.091
23
6771673.215
33
249.591
0
3DFACE
5
1AD
8
SURFACE
10
478170.773
20
6771463.483
30
261.591
11
478164.014
21
6771461.651
31
261.591
12
478158.564
22
6771501.494
32
262.000
13
478158.564
23
6771501.494
33
262.000
0
3DFACE
5
1AE
8
SURFACE
10
478163.258
20
6771420.361
30
249.727
11
478161.231
21
6771419.938
31
242.000
12
478154.009
22
6771459.567
32
249.864
13
478154.009
23
6771459.567
33
249.864
0
3DFACE
5
1AF
8
SURFACE
10
477735.572
20
6771459.798
30
261.591
11
477734.820
21
6771520.613
31
273.591
12
477738.021
22
6771520.200
32
261.591
13
477738.021
23
6771520.200
33
261.591
0
3DFACE
5
1B0
8
SURFACE
10
477766.268
20
6771616.189
30
261.591
11
477769.244
21
6771614.750
31
249.591
12
477744.991
22
6771519.301
32
261.591
13
477744.991
23
6771519.301
33
261.591
0
3DFACE
5
1B1
8
SURFACE
10
477967.461
20
6771701.169
30
261.591
11
477967.153
21
6771697.905
31
249.591
12
477859.020
22
6771686.719
32
249.591
13
477859.020
23
6771686.719
33
249.591
0
3DFACE
5
1B2
8
SURFACE
10
477966.482
20
6771690.798
30
249.591
11
477967.153
21
6771697.905
31
249.591
12
478025.091
22
6771673.215
32
249.591
13
478025.091
23
6771673.215
33
249.591
0
3DFACE
5
1B3
8
SURFACE
10
477743.694
20
6771405.047
30
273.591
11
477732.343
21
6771459.531
31
273.591
12
477735.572
22
6771459.798
32
261.591
13
477735.572
23
6771459.798
33
261.591
0
3DFACE
5
1B4
8
SURFACE
10
477735.572
20
6771459.798
30
261.591
11
477732.343
21
6771459.531
31
273.591
12
477734.820
22
6771520.613
32
273.591
13
477734.820
23
6771520.613
33
273.591
0
3DFACE
5
1B5
8
SURFACE
10
478128.904
20
6771623.032
30
262.000
11
478156.977
21
6771560.974
31
262.000
12
478153.502
22
6771559.719
32
262.000
13
478153.502
23
6771559.719
33
262.000
0
3DFACE
5
1B6
8
SURFACE
10
478161.231
20
6771419.938
30
242.000
11
478138.227
21
6771375.036
31
238.000
12
478124.129
22
6771413.028
32
242.000
13
478124.129
23
6771413.028
33
242.000
0
3DFACE
5
1B7
8
SURFACE
10
477752.693
20
6771381.580
30
261.591
11
477743.694
21
6771405.047
31
273.591
12
477746.831
22
6771405.754
32
261.591
13
477746.831
23
6771405.754
33
261.591
0
3DFACE
5
1B8
8
SURFACE
10
477778.649
20
6771355.340
30
249.591
11
477772.031
21
6771353.042
31
249.591
12
477762.553
22
6771384.269
32
249.591
13
477762.553
23
6771384.269
33
249.591
0
3DFACE
5
1B9
8
SURFACE
10
477792.688
20
6771328.040
30
238.000
11
477809.948
21
6771366.206
31
238.000
12
477820.515
22
6771339.255
32
238.000
13
477820.515
23
6771339.255
33
238.000
0
3DFACE
5
1BA
8
SURFACE
10
477752.693
20
6771381.580
30
261.591
11
477746.831
21
6771405.754
31
261.591
12
477759.449
22
6771383.423
32
261.591
13
477759.449
23
6771383.423
33
261.591
0
3DFACE
5
1BB
8
SURFACE
10
477746.831
20
6771405.754
30
261.591
11
477743.694
21
6771405.047
31
273.591
12
477735.572
22
6771459.798
32
261.591
13
477735.572
23
6771459.798
33
261.591
0
3DFACE
5
1BC
8
SURFACE
10
478138.227
20
6771375.036
30
238.000
11
478118.202
21
6771344.392
31
238.000
12
478093.170
22
6771406.743
32
238.000
13
478093.170
23
6771406.743
33
238.000
0
3DFACE
5
1BD
8
SURFACE
10
478114.912
20
6771344.252
30
226.000
11
478112.559
21
6771330.961
31
226.000
12
477991.876
22
6771337.715
32
226.000
13
477991.876
23
6771337.715
33
226.000
0
3DFACE
5
1BE
8
SURFACE
10
477808.057
20
6771290.920
30
238.000
11
477792.688
21
6771328.040
31
238.000
12
477820.515
22
6771339.255
32
238.000
13
477820.515
23
6771339.255
33
238.000
0
3DFACE
5
1BF
8
SURFACE
10
478156.977
20
6771560.974
30
262.000
11
478159.637
21
6771538.560
31
262.000
12
478156.031
22
6771539.275
32
262.000
13
478156.031
23
6771539.275
33
262.000
0
3DFACE
5
1C0
8
SURFACE
10
478156.031
20
6771539.275
30
262.000
11
478152.785
21
6771505.611
31
262.000
12
478153.886
22
6771539.244
32
254.039
13
478153.886
23
6771539.244
33
254.039
0
3DFACE
5
1C1
8
SURFACE
10
477809.001
20
6771647.452
30
238.000
11
477806.973
21
6771649.879
31
249.591
12
477862.113
22
6771676.879
32
238.000
13
477862.113
23
6771676.879
33
238.000
0
3DFACE
5
1C2
8
SURFACE
10
477775.723
20
6771611.616
30
249.591
11
477806.973
21
6771649.879
31
249.591
12
477778.597
22
6771610.226
32
238.000
13
477778.597
23
6771610.226
33
238.000
0
3DFACE
5
1C3
8
SURFACE
10
478156.977
20
6771560.974
30
262.000
11
478131.981
21
6771624.033
31
274.000
12
478160.112
22
6771561.846
32
274.000
13
478160.112
23
6771561.846
33
274.000
0
3DFACE
5
1C4
8
SURFACE
10
478151.774
20
6771559.285
30
255.401
11
478153.502
21
6771559.719
31
262.000
12
478156.031
22
6771539.275
32
262.000
13
478156.031
23
6771539.275
33
262.000
0
3DFACE
5
1C5
8
SURFACE
10
477768.991
20
6771351.987
30
261.591
11
477752.693
21
6771381.580
31
261.591
12
477759.449
22
6771383.423
32
261.591
13
477759.449
23
6771383.423
33
261.591
0
3DFACE
5
1C6
8
SURFACE
10
477905.055
20
6771736.734
30
261.591
11
477967.461
21
6771701.169
31
261.591
12
477858.036
22
6771689.849
32
261.591
13
477858.036
23
6771689.849
33
261.591
0
3DFACE
5
1C7
8
SURFACE
10
477967.461
20
6771701.169
30
261.591
11
478029.989
21
6771682.411
31
261.591
12
478028.448
22
6771679.516
32
249.591
13
478028.448
23
6771679.516
33
249.591
0
3DFACE
5
1C8
8
SURFACE
10
478029.989
20
6771682.411
30
261.591
11
478080.151
21
6771637.074
31
249.591
12
478028.448
22
6771679.516
32
249.591
13
478028.448
23
6771679.516
33
249.591
0
3DFACE
5
1C9
8
SURFACE
10
478129.420
20
6771636.592
30
274.000
11
478128.904
21
6771623.032
31
262.000
12
478121.908
22
6771662.708
32
266.000
13
478121.908
23
6771662.708
33
266.000
0
3DFACE
5
1CA
8
SURFACE
10
477780.332
20
6771323.061
30
261.591
11
477768.991
21
6771351.987
31
261.591
12
477772.031
22
6771353.042
32
249.591
13
477772.031
23
6771353.042
33
249.591
0
3DFACE
5
1CB
8
SURFACE
10
477772.031
20
6771353.042
30
249.591
11
477768.991
21
6771351.987
31
261.591
12
477759.449
22
6771383.423
32
261.591
13
477759.449
23
6771383.423
33
261.591
0
3DFACE
5
1CC
8
SURFACE
10
477805.183
20
6771289.741
30
249.591
11
477789.807
21
6771326.879
31
249.591
12
477792.688
22
6771328.040
32
238.000
13
477792.688
23
6771328.040
33
238.000
0
3DFACE
5
1CD
8
SURFACE
10
477792.688
20
6771328.040
30
238.000
11
477789.807
21
6771326.879
31
249.591
12
477781.585
22
6771356.359
32
238.000
13
477781.585
23
6771356.359
33
238.000
0
3DFACE
5
1CE
8
SURFACE
10
478163.258
20
6771420.361
30
249.727
11
478154.009
21
6771459.567
31
249.864
12
478169.965
22
6771422.416
32
249.591
13
478169.965
23
6771422.416
33
249.591
0
3DFACE
5
1CF
8
SURFACE
10
478033.628
20
6771718.000
30
274.000
11
478085.421
21
6771656.275
31
266.000
12
478084.429
22
6771655.779
32
262.000
13
478084.429
23
6771655.779
33
262.000
0
3DFACE
5
1D0
8
SURFACE
10
478084.429
20
6771655.779
30
262.000
11
478092.417
21
6771616.599
31
262.000
12
478082.837
22
6771639.028
32
261.591
13
478082.837
23
6771639.028
33
261.591
0
3DFACE
5
1D1
8
SURFACE
10
478156.977
20
6771560.974
30
262.000
11
478162.857
21
6771538.704
31
274.000
12
478159.637
22
6771538.560
32
262.000
13
478159.637
23
6771538.560
33
262.000
0
3DFACE
5
1D2
8
SURFACE
10
478159.637
20
6771538.560
30
262.000
11
478158.564
21
6771501.494
31
262.000
12
478152.785
22
6771505.611
32
262.000
13
478152.785
23
6771505.611
33
262.000
0
3DFACE
5
1D3
8
SURFACE
10
478161.794
20
6771501.953
30
274.000
11
478170.773
21
6771463.483
31
261.591
12
478158.564
22
6771501.494
32
262.000
13
478158.564
23
6771501.494
33
262.000
0
3DFACE
5
1D4
8
SURFACE
10
477762.373
20
6771349.689
30
261.591
11
477749.590
21
6771380.733
31
273.591
12
477752.693
22
6771381.580
32
261.591
13
477752.693
23
6771381.580
33
261.591
0
3DFACE
5
1D5
8
SURFACE
10
477752.693
20
6771381.580
30
261.591
11
477749.590
21
6771380.733
31
273.591
12
477743.694
22
6771405.047
32
273.591
13
477743.694
23
6771405.047
33
273.591
0
3DFACE
5
1D6
8
SURFACE
10
477766.268
20
6771616.189
30
261.591
11
477744.991
21
6771519.301
31
261.591
12
477738.021
22
6771520.200
32
261.591
13
477738.021
23
6771520.200
33
261.591
0
3DFACE
5
1D7
8
SURFACE
10
477775.723
20
6771611.616
30
249.591
11
477802.403
21
6771655.350
31
249.591
12
477806.973
22
6771649.879
32
249.591
13
477806.973
23
6771649.879
33
249.591
0
3DFACE
5
1D8
8
SURFACE
10
478110.466
20
6771319.143
30
238.000
11
478112.559
21
6771330.961
31
226.000
12
478114.126
22
6771321.369
32
238.000
13
478114.126
23
6771321.369
33
238.000
0
3DFACE
5
1D9
8
SURFACE
10
478118.202
20
6771344.392
30
238.000
11
478112.559
21
6771330.961
31
226.000
12
478114.912
22
6771344.252
32
226.000
13
478114.912
23
6771344.252
33
226.000
0
3DFACE
5
1DA
8
SURFACE
10
478151.774
20
6771559.285
30
255.401
11
478094.022
21
6771610.547
31
262.000
12
478128.904
22
6771623.032
32
262.000
13
478128.904
23
6771623.032
33
262.000
0
3DFACE
5
1DB
8
SURFACE
10
478153.502
20
6771559.719
30
262.000
11
478156.977
21
6771560.974
31
262.000
12
478156.031
22
6771539.275
32
262.000
13
478156.031
23
6771539.275
33
262.000
0
3DFACE
5
1DC
8
SURFACE
10
478173.874
20
6771464.345
30
273.591
11
478170.773
21
6771463.483
31
261.591
12
478161.794
22
6771501.953
32
274.000
13
478161.794
23
6771501.953
33
274.000
0
3DFACE
5
1DD
8
SURFACE
10
478169.965
20
6771422.416
30
249.591
11
478154.009
21
6771459.567
31
249.864
12
478160.908
22
6771460.809
32
249.591
13
478160.908
23
6771460.809
33
249.591
0
3DFACE
5
1DE
8
SURFACE
10
477802.403
20
6771655.350
30
249.591
11
477859.020
21
6771686.719
31
249.591
12
477861.162
22
6771679.903
32
249.591
13
477861.162
23
6771679.903
33
249.591
0
3DFACE
5
1DF
8
SURFACE
10
477861.162
20
6771679.903
30
249.591
11
477966.482
21
6771690.798
31
249.591
12
477862.113
22
6771676.879
32
238.000
13
477862.113
23
6771676.879
33
238.000
0
3DFACE
5
1E0
8
SURFACE
10
478169.965
20
6771422.416
30
249.591
11
478160.908
21
6771460.809
31
249.591
12
478173.046
22
6771423.361
32
261.591
13
478173.046
23
6771423.361
33
261.591
0
3DFACE
5
1E1
8
SURFACE
10
478161.231
20
6771419.938
30
242.000
11
478174.714
21
6771381.470
31
238.000
12
478138.227
22
6771375.036
32
238.000
13
478138.227
23
6771375.036
33
238.000
0
3DFACE
5
1E2
8
SURFACE
10
477759.790
20
6771619.323
30
261.591
11
477766.268
21
6771616.189
31
261.591
12
477738.021
22
6771520.200
32
261.591
13
477738.021
23
6771520.200
33
261.591
0
3DFACE
5
1E3
8
SURFACE
10
477769.244
20
6771614.750
30
249.591
11
477802.403
21
6771655.350
31
249.591
12
477775.723
22
6771611.616
32
249.591
13
477775.723
23
6771611.616
33
249.591
0
3DFACE
5
1E4
8
SURFACE
10
478173.046
20
6771423.361
30
261.591
11
478160.908
21
6771460.809
31
249.591
12
478164.014
22
6771461.651
32
261.591
13
478164.014
23
6771461.651
33
261.591
0
3DFACE
5
1E5
8
SURFACE
10
478156.977
20
6771560.974
30
262.000
11
478160.112
21
6771561.846
31
274.000
12
478162.857
22
6771538.704
32
274.000
13
478162.857
23
6771538.704
33
274.000
0
3DFACE
5
1E6
8
SURFACE
10
478128.904
20
6771623.032
30
262.000
11
478094.022
21
6771610.547
31
262.000
12
478092.417
22
6771616.599
32
262.000
13
478092.417
23
6771616.599
33
262.000
0
3DFACE
5
1E7
8
SURFACE
10
477800.304
20
6771657.863
30
261.591
11
477802.403
21
6771655.350
31
249.591
12
477769.244
22
6771614.750
32
249.591
13
477769.244
23
6771614.750
33
249.591
0
3DFACE
5
1E8
8
SURFACE
10
477806.973
20
6771649.879
30
249.591
11
477802.403
21
6771655.350
31
249.591
12
477861.162
22
6771679.903
32
249.591
13
477861.162
23
6771679.903
33
249.591
0
3DFACE
5
1E9
8
SURFACE
10
477800.304
20
6771657.863
30
261.591
11
477858.036
21
6771689.849
31
261.591
12
477859.020
22
6771686.719
32
249.591
13
477859.020
23
6771686.719
33
249.591
0
3DFACE
5
1EA
8
SURFACE
10
477859.020
20
6771686.719
30
249.591
11
477967.153
21
6771697.905
31
249.591
12
477861.162
22
6771679.903
32
249.591
13
477861.162
23
6771679.903
33
249.591
0
3DFACE
5
1EB
8
SURFACE
10
477773.839
20
6771320.444
30
261.591
11
477762.373
21
6771349.689
31
261.591
12
477768.991
22
6771351.987
32
261.591
13
477768.991
23
6771351.987
33
261.591
0
3DFACE
5
1EC
8
SURFACE
10
477768.991
20
6771351.987
30
261.591
11
477762.373
21
6771349.689
31
261.591
12
477752.693
22
6771381.580
32
261.591
13
477752.693
23
6771381.580
33
261.591
0
3DFACE
5
1ED
8
SURFACE
10
477798.707
20
6771287.083
30
249.591
11
477783.314
21
6771324.263
31
249.591
12
477789.807
22
6771326.879
32
249.591
13
477789.807
23
6771326.879
33
249.591
0
3DFACE
5
1EE
8
SURFACE
10
477789.807
20
6771326.879
30
249.591
11
477783.314
21
6771324.263
31
249.591
12
477778.649
22
6771355.340
32
249.591
13
477778.649
23
6771355.340
33
249.591
0
3DFACE
5
1EF
8
SURFACE
10
478092.417
20
6771616.599
30
262.000
11
478085.421
21
6771656.275
31
266.000
12
478121.908
22
6771662.708
32
266.000
13
478121.908
23
6771662.708
33
266.000
0
3DFACE
5
1F0
8
SURFACE
10
478173.046
20
6771423.361
30
261.591
11
478164.014
21
6771461.651
31
261.591
12
478179.753
22
6771425.416
32
261.591
13
478179.753
23
6771425.416
33
261.591
0
3DFACE
5
1F1
8
SURFACE
10
478163.258
20
6771420.361
30
249.727
11
478174.714
21
6771381.470
31
238.000
12
478161.231
22
6771419.938
32
242.000
13
478161.231
23
6771419.938
33
242.000
0
3DFACE
5
1F2
8
SURFACE
10
478114.126
20
6771321.369
30
238.000
11
478112.559
21
6771330.961
31
226.000
12
478118.202
22
6771344.392
32
238.000
13
478118.202
23
6771344.392
33
238.000
0
3DFACE
5
1F3
8
SURFACE
10
478114.126
20
6771321.369
30
238.000
11
478118.202
21
6771344.392
31
238.000
12
478177.944
22
6771337.642
32
238.000
13
478177.944
23
6771337.642
33
238.000
0
3DFACE
5
1F4
8
SURFACE
10
478112.559
20
6771330.961
30
226.000
11
478110.466
21
6771319.143
31
238.000
12
477991.876
22
6771337.715
32
226.000
13
477991.876
23
6771337.715
33
226.000
0
3DFACE
5
1F5
8
SURFACE
10
477766.268
20
6771616.189
30
261.591
11
477800.304
21
6771657.863
31
261.591
12
477769.244
22
6771614.750
32
249.591
13
477769.244
23
6771614.750
33
249.591
0
3DFACE
5
1F6
8
SURFACE
10
477802.403
20
6771655.350
30
249.591
11
477800.304
21
6771657.863
31
261.591
12
477859.020
22
6771686.719
32
249.591
13
477859.020
23
6771686.719
33
249.591
0
3DFACE
5
1F7
8
SURFACE
10
478177.944
20
6771337.642
30
238.000
11
478118.202
21
6771344.392
31
238.000
12
478138.227
22
6771375.036
32
238.000
13
478138.227
23
6771375.036
33
238.000
0
3DFACE
5
1F8
8
SURFACE
10
477795.733
20
6771285.863
30
261.591
11
477780.332
21
6771323.061
31
261.591
12
477783.314
22
6771324.263
32
249.591
13
477783.314
23
6771324.263
33
249.591
0
3DFACE
5
1F9
8
SURFACE
10
477783.314
20
6771324.263
30
249.591
11
477780.332
21
6771323.061
31
261.591
12
477772.031
22
6771353.042
32
249.591
13
477772.031
23
6771353.042
33
249.591
0
3DFACE
5
1FA
8
SURFACE
10
477770.857
20
6771319.242
30
273.591
11
477759.333
21
6771348.633
31
273.591
12
477762.373
22
6771349.689
32
261.591
13
477762.373
23
6771349.689
33
261.591
0
3DFACE
5
1FB
8
SURFACE
10
477762.373
20
6771349.689
30
261.591
11
477759.333
21
6771348.633
31
273.591
12
477749.590
22
6771380.733
32
273.591
13
477749.590
23
6771380.733
33
273.591
0
3DFACE
5
1FC
8
SURFACE
10
477835.811
20
6771302.309
30
238.000
11
477808.057
21
6771290.920
31
238.000
12
477820.515
22
6771339.255
32
238.000
13
477820.515
23
6771339.255
33
238.000
0
3DFACE
5
1FD
8
SURFACE
10
477985.485
20
6771300.647
30
226.000
11
477851.886
21
6771271.022
31
226.000
12
477838.684
22
6771303.488
32
226.000
13
477838.684
23
6771303.488
33
226.000
0
3DFACE
5
1FE
8
SURFACE
10
477848.996
20
6771269.885
30
238.000
11
477851.886
21
6771271.022
31
226.000
12
477860.656
22
6771239.180
32
238.000
13
477860.656
23
6771239.180
33
238.000
0
3DFACE
5
1FF
8
SURFACE
10
478179.753
20
6771425.416
30
261.591
11
478164.014
21
6771461.651
31
261.591
12
478170.773
22
6771463.483
32
261.591
13
478170.773
23
6771463.483
33
261.591
0
3DFACE
5
200
8
SURFACE
10
478177.645
20
6771382.497
30
249.591
11
478174.714
21
6771381.470
31
238.000
12
478163.258
22
6771420.361
32
249.727
13
478163.258
23
6771420.361
33
249.727
0
3DFACE
5
201
8
SURFACE
10
478129.420
20
6771636.592
30
274.000
11
478131.981
21
6771624.033
31
274.000
12
478128.904
22
6771623.032
32
262.000
13
478128.904
23
6771623.032
33
262.000
0
3DFACE
5
202
8
SURFACE
10
478128.904
20
6771623.032
30
262.000
11
478153.502
21
6771559.719
31
262.000
12
478151.774
22
6771559.285
32
255.401
13
478151.774
23
6771559.285
33
255.401
0
3DFACE
5
203
8
SURFACE
10
477756.696
20
6771620.228
30
273.591
11
477738.021
21
6771520.200
31
261.591
12
477734.820
22
6771520.613
32
273.591
13
477734.820
23
6771520.613
33
273.591
0
3DFACE
5
204
8
SURFACE
10
477766.268
20
6771616.189
30
261.591
11
477759.790
21
6771619.323
31
261.591
12
477800.304
22
6771657.863
32
261.591
13
477800.304
23
6771657.863
33
261.591
0
3DFACE
5
205
8
SURFACE
10
477860.656
20
6771239.180
30
238.000
11
477851.886
21
6771271.022
31
226.000
12
477868.074
22
6771226.496
32
226.000
13
477868.074
23
6771226.496
33
226.000
0
3DFACE
5
206
8
SURFACE
10
477851.886
20
6771271.022
30
226.000
11
477848.996
21
6771269.885
31
238.000
12
477838.684
22
6771303.488
32
226.000
13
477838.684
23
6771303.488
33
226.000
0
3DFACE
5
207
8
SURFACE
10
477756.696
20
6771620.228
30
273.591
11
477759.790
21
6771619.323
31
261.591
12
477738.021
22
6771520.200
32
261.591
13
477738.021
23
6771520.200
33
261.591
0
3DFACE
5
208
8
SURFACE
10
477759.790
20
6771619.323
30
261.591
11
477783.595
21
6771683.884
31
261.591
12
477800.304
22
6771657.863
32
261.591
13
477800.304
23
6771657.863
33
261.591
0
3DFACE
5
209
8
SURFACE
10
477821.074
20
6771258.908
30
238.000
11
477808.057
21
6771290.920
31
238.000
12
477835.811
22
6771302.309
32
238.000
13
477835.811
23
6771302.309
33
238.000
0
3DFACE
5
20A
8
SURFACE
10
477789.257
20
6771283.205
30
261.591
11
477773.839
21
6771320.444
31
261.591
12
477780.332
22
6771323.061
32
261.591
13
477780.332
23
6771323.061
33
261.591
0
3DFACE
5
20B
8
SURFACE
10
477780.332
20
6771323.061
30
261.591
11
477773.839
21
6771320.444
31
261.591
12
477768.991
22
6771351.987
32
261.591
13
477768.991
23
6771351.987
33
261.591
0
3DFACE
5
20C
8
SURFACE
10
478182.834
20
6771426.360
30
273.591
11
478179.753
21
6771425.416
31
261.591
12
478170.773
22
6771463.483
32
261.591
13
478170.773
23
6771463.483
33
261.591
0
3DFACE
5
20D
8
SURFACE
10
478177.645
20
6771382.497
30
249.591
11
478163.258
21
6771420.361
31
249.727
12
478169.965
22
6771422.416
32
249.591
13
478169.965
23
6771422.416
33
249.591
0
3DFACE
5
20E
8
SURFACE
10
478182.834
20
6771426.360
30
273.591
11
478170.773
21
6771463.483
31
261.591
12
478173.874
22
6771464.345
32
273.591
13
478173.874
23
6771464.345
33
273.591
0
3DFACE
5
20F
8
SURFACE
10
478092.417
20
6771616.599
30
262.000
11
478084.429
21
6771655.779
31
262.000
12
478085.421
22
6771656.275
32
266.000
13
478085.421
23
6771656.275
33
266.000
0
3DFACE
5
210
8
SURFACE
10
478128.904
20
6771623.032
30
262.000
11
478092.417
21
6771616.599
31
262.000
12
478121.908
22
6771662.708
32
266.000
13
478121.908
23
6771662.708
33
266.000
0
3DFACE
5
211
8
SURFACE
10
477818.183
20
6771257.772
30
249.591
11
477805.183
21
6771289.741
31
249.591
12
477808.057
22
6771290.920
32
238.000
13
477808.057
23
6771290.920
33
238.000
0
3DFACE
5
212
8
SURFACE
10
477808.057
20
6771290.920
30
238.000
11
477805.183
21
6771289.741
31
249.591
12
477792.688
22
6771328.040
32
238.000
13
477792.688
23
6771328.040
33
238.000
0
3DFACE
5
213
8
SURFACE
10
477786.282
20
6771281.984
30
273.591
11
477770.857
21
6771319.242
31
273.591
12
477773.839
22
6771320.444
32
261.591
13
477773.839
23
6771320.444
33
261.591
0
3DFACE
5
214
8
SURFACE
10
477773.839
20
6771320.444
30
261.591
11
477770.857
21
6771319.242
31
273.591
12
477762.373
22
6771349.689
32
261.591
13
477762.373
23
6771349.689
33
261.591
0
3DFACE
5
215
8
SURFACE
10
478194.622
20
6771386.285
30
261.591
11
478182.834
21
6771426.360
31
273.591
12
478197.793
22
6771386.992
32
273.591
13
478197.793
23
6771386.992
33
273.591
0
3DFACE
5
216
8
SURFACE
10
478177.645
20
6771382.497
30
249.591
11
478169.965
21
6771422.416
31
249.591
12
478184.548
22
6771384.037
32
249.591
13
478184.548
23
6771384.037
33
249.591
0
3DFACE
5
217
8
SURFACE
10
477811.668
20
6771255.211
30
249.591
11
477798.707
21
6771287.083
31
249.591
12
477805.183
22
6771289.741
32
249.591
13
477805.183
23
6771289.741
33
249.591
0
3DFACE
5
218
8
SURFACE
10
477805.183
20
6771289.741
30
249.591
11
477798.707
21
6771287.083
31
249.591
12
477789.807
22
6771326.879
32
249.591
13
477789.807
23
6771326.879
33
249.591
0
3DFACE
5
219
8
SURFACE
10
478169.965
20
6771422.416
30
249.591
11
478173.046
21
6771423.361
31
261.591
12
478184.548
22
6771384.037
32
249.591
13
478184.548
23
6771384.037
33
249.591
0
3DFACE
5
21A
8
SURFACE
10
477808.675
20
6771254.034
30
261.591
11
477795.733
21
6771285.863
31
261.591
12
477798.707
22
6771287.083
32
249.591
13
477798.707
23
6771287.083
33
249.591
0
3DFACE
5
21B
8
SURFACE
10
477798.707
20
6771287.083
30
249.591
11
477795.733
21
6771285.863
31
261.591
12
477783.314
22
6771324.263
32
249.591
13
477783.314
23
6771324.263
33
249.591
0
3DFACE
5
21C
8
SURFACE
10
477998.418
20
6771729.235
30
261.591
11
478030.870
21
6771716.265
31
262.000
12
478029.989
22
6771682.411
32
261.591
13
478029.989
23
6771682.411
33
261.591
0
3DFACE
5
21D
8
SURFACE
10
478030.870
20
6771716.265
30
262.000
11
478033.628
21
6771718.000
31
274.000
12
478084.429
22
6771655.779
32
262.000
13
478084.429
23
6771655.779
33
262.000
0
3DFACE
5
21E
8
SURFACE
10
478033.628
20
6771718.000
30
274.000
11
478030.870
21
6771716.265
31
262.000
12
478032.772
22
6771718.968
32
274.000
13
478032.772
23
6771718.968
33
274.000
0
3DFACE
5
21F
8
SURFACE
10
478184.548
20
6771384.037
30
249.591
11
478173.046
21
6771423.361
31
261.591
12
478187.719
22
6771384.745
32
261.591
13
478187.719
23
6771384.745
33
261.591
0
3DFACE
5
220
8
SURFACE
10
478174.714
20
6771381.470
30
238.000
11
478175.261
21
6771376.199
31
238.000
12
478138.227
22
6771375.036
32
238.000
13
478138.227
23
6771375.036
33
238.000
0
3DFACE
5
221
8
SURFACE
10
478177.645
20
6771382.497
30
249.591
11
478175.261
21
6771376.199
31
238.000
12
478174.714
22
6771381.470
32
238.000
13
478174.714
23
6771381.470
33
238.000
0
3DFACE
5
222
8
SURFACE
10
478120.237
20
6771668.947
30
266.000
11
478121.908
21
6771662.708
31
266.000
12
478085.421
22
6771656.275
32
266.000
13
478085.421
23
6771656.275
33
266.000
0
3DFACE
5
223
8
SURFACE
10
478032.772
20
6771718.968
30
274.000
11
478030.870
21
6771716.265
31
262.000
12
477999.479
22
6771732.274
32
273.591
13
477999.479
23
6771732.274
33
273.591
0
3DFACE
5
224
8
SURFACE
10
478030.870
20
6771716.265
30
262.000
11
478084.429
21
6771655.779
31
262.000
12
478029.989
22
6771682.411
32
261.591
13
478029.989
23
6771682.411
33
261.591
0
3DFACE
5
225
8
SURFACE
10
478028.448
20
6771679.516
30
249.591
11
477967.153
21
6771697.905
31
249.591
12
477967.461
22
6771701.169
32
261.591
13
477967.461
23
6771701.169
33
261.591
0
3DFACE
5
226
8
SURFACE
10
478120.237
20
6771668.947
30
266.000
11
478123.992
21
6771663.213
31
274.000
12
478121.908
22
6771662.708
32
266.000
13
478121.908
23
6771662.708
33
266.000
0
3DFACE
5
227
8
SURFACE
10
477999.479
20
6771732.274
30
273.591
11
477998.418
21
6771729.235
31
261.591
12
477960.923
22
6771740.484
32
261.591
13
477960.923
23
6771740.484
33
261.591
0
3DFACE
5
228
8
SURFACE
10
478120.237
20
6771668.947
30
266.000
11
478085.421
21
6771656.275
31
266.000
12
478113.803
22
6771680.090
32
266.000
13
478113.803
23
6771680.090
33
266.000
0
3DFACE
5
229
8
SURFACE
10
478121.908
20
6771662.708
30
266.000
11
478123.992
21
6771663.213
31
274.000
12
478129.420
22
6771636.592
32
274.000
13
478129.420
23
6771636.592
33
274.000
0
3DFACE
5
22A
8
SURFACE
10
478114.126
20
6771321.369
30
238.000
11
478104.026
21
6771282.768
31
238.000
12
478110.466
22
6771319.143
32
238.000
13
478110.466
23
6771319.143
33
238.000
0
3DFACE
5
22B
8
SURFACE
10
478110.466
20
6771319.143
30
238.000
11
478104.026
21
6771282.768
31
238.000
12
477991.876
22
6771337.715
32
226.000
13
477991.876
23
6771337.715
33
226.000
0
3DFACE
5
22C
8
SURFACE
10
478106.614
20
6771278.940
30
238.000
11
478104.026
21
6771282.768
31
238.000
12
478114.126
22
6771321.369
32
238.000
13
478114.126
23
6771321.369
33
238.000
0
3DFACE
5
22D
8
SURFACE
10
478122.234
20
6771669.774
30
274.000
11
478120.237
21
6771668.947
31
266.000
12
478115.553
22
6771681.346
32
274.000
13
478115.553
23
6771681.346
33
274.000
0
3DFACE
5
22E
8
SURFACE
10
477802.160
20
6771251.473
30
261.591
11
477789.257
21
6771283.205
31
261.591
12
477795.733
22
6771285.863
32
261.591
13
477795.733
23
6771285.863
33
261.591
0
3DFACE
5
22F
8
SURFACE
10
477795.733
20
6771285.863
30
261.591
11
477789.257
21
6771283.205
31
261.591
12
477780.332
22
6771323.061
32
261.591
13
477780.332
23
6771323.061
33
261.591
0
3DFACE
5
230
8
SURFACE
10
477960.923
20
6771740.484
30
261.591
11
477998.418
21
6771729.235
31
261.591
12
477967.461
22
6771701.169
32
261.591
13
477967.461
23
6771701.169
33
261.591
0
3DFACE
5
231
8
SURFACE
10
477998.418
20
6771729.235
30
261.591
11
477999.479
21
6771732.274
31
273.591
12
478030.870
22
6771716.265
32
262.000
13
478030.870
23
6771716.265
33
262.000
0
3DFACE
5
232
8
SURFACE
10
478177.645
20
6771382.497
30
249.591
11
478181.074
21
6771337.408
31
249.591
12
478175.261
22
6771376.199
32
238.000
13
478175.261
23
6771376.199
33
238.000
0
3DFACE
5
233
8
SURFACE
10
478168.852
20
6771296.771
30
238.000
11
478106.614
21
6771278.940
31
238.000
12
478114.126
22
6771321.369
32
238.000
13
478114.126
23
6771321.369
33
238.000
0
3DFACE
5
234
8
SURFACE
10
478187.719
20
6771384.745
30
261.591
11
478173.046
21
6771423.361
31
261.591
12
478179.753
22
6771425.416
32
261.591
13
478179.753
23
6771425.416
33
261.591
0
3DFACE
5
235
8
SURFACE
10
478113.803
20
6771680.090
30
266.000
11
478085.421
21
6771656.275
31
266.000
12
478062.010
22
6771741.815
32
274.000
13
478062.010
23
6771741.815
33
274.000
0
3DFACE
5
236
8
SURFACE
10
478120.237
20
6771668.947
30
266.000
11
478122.234
21
6771669.774
31
274.000
12
478123.992
22
6771663.213
32
274.000
13
478123.992
23
6771663.213
33
274.000
0
3DFACE
5
237
8
SURFACE
10
477832.362
20
6771229.185
30
238.000
11
477821.074
21
6771258.908
31
238.000
12
477848.996
22
6771269.885
32
238.000
13
477848.996
23
6771269.885
33
238.000
0
3DFACE
5
238
8
SURFACE
10
477848.996
20
6771269.885
30
238.000
11
477821.074
21
6771258.908
31
238.000
12
477835.811
22
6771302.309
32
238.000
13
477835.811
23
6771302.309
33
238.000
0
3DFACE
5
239
8
SURFACE
10
477799.168
20
6771250.296
30
273.591
11
477786.282
21
6771281.984
31
273.591
12
477789.257
22
6771283.205
32
261.591
13
477789.257
23
6771283.205
33
261.591
0
3DFACE
5
23A
8
SURFACE
10
477789.257
20
6771283.205
30
261.591
11
477786.282
21
6771281.984
31
273.591
12
477773.839
22
6771320.444
32
261.591
13
477773.839
23
6771320.444
33
261.591
0
3DFACE
5
23B
8
SURFACE
10
478177.944
20
6771337.642
30
238.000
11
478138.227
21
6771375.036
31
238.000
12
478175.261
22
6771376.199
32
238.000
13
478175.261
23
6771376.199
33
238.000
0
3DFACE
5
23C
8
SURFACE
10
478101.933
20
6771270.948
30
226.000
11
478065.542
21
6771234.618
31
226.000
12
477985.485
22
6771300.647
32
226.000
13
477985.485
23
6771300.647
33
226.000
0
3DFACE
5
23D
8
SURFACE
10
477868.074
20
6771226.496
30
226.000
11
477851.886
21
6771271.022
31
226.000
12
477985.485
22
6771300.647
32
226.000
13
477985.485
23
6771300.647
33
226.000
0
3DFACE
5
23E
8
SURFACE
10
478115.553
20
6771681.346
30
274.000
11
478113.803
21
6771680.090
31
266.000
12
478062.010
22
6771741.815
32
274.000
13
478062.010
23
6771741.815
33
274.000
0
3DFACE
5
23F
8
SURFACE
10
478194.622
20
6771386.285
30
261.591
11
478187.719
21
6771384.745
31
261.591
12
478179.753
22
6771425.416
32
261.591
13
478179.753
23
6771425.416
33
261.591
0
3DFACE
5
240
8
SURFACE
10
478184.548
20
6771384.037
30
249.591
11
478181.074
21
6771337.408
31
249.591
12
478177.645
22
6771382.497
32
249.591
13
478177.645
23
6771382.497
33
249.591
0
3DFACE
5
241
8
SURFACE
10
477845.781
20
6771722.010
30
261.591
11
477905.055
21
6771736.734
31
261.591
12
477858.036
22
6771689.849
32
261.591
13
477858.036
23
6771689.849
33
261.591
0
3DFACE
5
242
8
SURFACE
10
477858.036
20
6771689.849
30
261.591
11
477967.461
21
6771701.169
31
261.591
12
477859.020
22
6771686.719
32
249.591
13
477859.020
23
6771686.719
33
249.591
0
3DFACE
5
243
8
SURFACE
10
477905.055
20
6771736.734
30
261.591
11
477960.923
21
6771740.484
31
261.591
12
477967.461
22
6771701.169
32
261.591
13
477967.461
23
6771701.169
33
261.591
0
3DFACE
5
244
8
SURFACE
10
477829.432
20
6771228.150
30
249.591
11
477818.183
21
6771257.772
31
249.591
12
477821.074
22
6771258.908
32
238.000
13
477821.074
23
6771258.908
33
238.000
0
3DFACE
5
245
8
SURFACE
10
477821.074
20
6771258.908
30
238.000
11
477818.183
21
6771257.772
31
249.591
12
477808.057
22
6771290.920
32
238.000
13
477808.057
23
6771290.920
33
238.000
0
3DFACE
5
246
8
SURFACE
10
478062.010
20
6771741.815
30
274.000
11
478085.421
21
6771656.275
31
266.000
12
478033.628
22
6771718.000
32
274.000
13
478033.628
23
6771718.000
33
274.000
0
3DFACE
5
247
8
SURFACE
10
478113.803
20
6771680.090
30
266.000
11
478115.553
21
6771681.346
31
274.000
12
478120.237
22
6771668.947
32
266.000
13
478120.237
23
6771668.947
33
266.000
0
3DFACE
5
248
8
SURFACE
10
477756.696
20
6771620.228
30
273.591
11
477783.595
21
6771683.884
31
261.591
12
477759.790
22
6771619.323
32
261.591
13
477759.790
23
6771619.323
33
261.591
0
3DFACE
5
249
8
SURFACE
10
477800.304
20
6771657.863
30
261.591
11
477783.595
21
6771683.884
31
261.591
12
477858.036
22
6771689.849
32
261.591
13
477858.036
23
6771689.849
33
261.591
0
3DFACE
5
24A
8
SURFACE
10
478098.875
20
6771253.672
30
226.000
11
478101.933
21
6771270.948
31
226.000
12
478101.803
22
6771251.768
32
238.000
13
478101.803
23
6771251.768
33
238.000
0
3DFACE
5
24B
8
SURFACE
10
478106.614
20
6771278.940
30
238.000
11
478101.933
21
6771270.948
31
226.000
12
478104.026
22
6771282.768
32
238.000
13
478104.026
23
6771282.768
33
238.000
0
3DFACE
5
24C
8
SURFACE
10
477783.595
20
6771683.884
30
261.591
11
477845.781
21
6771722.010
31
261.591
12
477858.036
22
6771689.849
32
261.591
13
477858.036
23
6771689.849
33
261.591
0
3DFACE
5
24D
8
SURFACE
10
478004.070
20
6771221.620
30
226.000
11
477998.677
21
6771225.294
31
226.000
12
478057.578
22
6771227.253
32
226.000
13
478057.578
23
6771227.253
33
226.000
0
3DFACE
5
24E
8
SURFACE
10
477845.781
20
6771722.010
30
261.591
11
477904.556
21
6771739.923
31
273.591
12
477905.055
22
6771736.734
32
261.591
13
477905.055
23
6771736.734
33
261.591
0
3DFACE
5
24F
8
SURFACE
10
477905.055
20
6771736.734
30
261.591
11
477904.556
21
6771739.923
31
273.591
12
477960.923
22
6771740.484
32
261.591
13
477960.923
23
6771740.484
33
261.591
0
3DFACE
5
250
8
SURFACE
10
477904.556
20
6771739.923
30
273.591
11
477961.289
21
6771743.731
31
273.591
12
477960.923
22
6771740.484
32
261.591
13
477960.923
23
6771740.484
33
261.591
0
3DFACE
5
251
8
SURFACE
10
477960.923
20
6771740.484
30
261.591
11
477961.289
21
6771743.731
31
273.591
12
477999.479
22
6771732.274
32
273.591
13
477999.479
23
6771732.274
33
273.591
0
3DFACE
5
252
8
SURFACE
10
477783.595
20
6771683.884
30
261.591
11
477844.524
21
6771725.010
31
273.591
12
477845.781
22
6771722.010
32
261.591
13
477845.781
23
6771722.010
33
261.591
0
3DFACE
5
253
8
SURFACE
10
477756.696
20
6771620.228
30
273.591
11
477780.964
21
6771686.042
31
273.591
12
477783.595
22
6771683.884
32
261.591
13
477783.595
23
6771683.884
33
261.591
0
3DFACE
5
254
8
SURFACE
10
478004.070
20
6771221.620
30
226.000
11
477997.707
21
6771222.197
31
238.000
12
477998.677
22
6771225.294
32
226.000
13
477998.677
23
6771225.294
33
226.000
0
3DFACE
5
255
8
SURFACE
10
477998.677
20
6771225.294
30
226.000
11
477868.074
21
6771226.496
31
226.000
12
477985.485
22
6771300.647
32
226.000
13
477985.485
23
6771300.647
33
226.000
0
3DFACE
5
256
8
SURFACE
10
478182.834
20
6771426.360
30
273.591
11
478194.622
21
6771386.285
31
261.591
12
478179.753
22
6771425.416
32
261.591
13
478179.753
23
6771425.416
33
261.591
0
3DFACE
5
257
8
SURFACE
10
478181.074
20
6771337.408
30
249.591
11
478177.944
21
6771337.642
31
238.000
12
478175.261
22
6771376.199
32
238.000
13
478175.261
23
6771376.199
33
238.000
0
3DFACE
5
258
8
SURFACE
10
477780.964
20
6771686.042
30
273.591
11
477844.524
21
6771725.010
31
273.591
12
477783.595
22
6771683.884
32
261.591
13
477783.595
23
6771683.884
33
261.591
0
3DFACE
5
259
8
SURFACE
10
477845.781
20
6771722.010
30
261.591
11
477844.524
21
6771725.010
31
273.591
12
477904.556
22
6771739.923
32
273.591
13
477904.556
23
6771739.923
33
273.591
0
3DFACE
5
25A
8
SURFACE
10
477822.830
20
6771225.818
30
249.591
11
477811.668
21
6771255.211
31
249.591
12
477818.183
22
6771257.772
32
249.591
13
477818.183
23
6771257.772
33
249.591
0
3DFACE
5
25B
8
SURFACE
10
477818.183
20
6771257.772
30
249.591
11
477811.668
21
6771255.211
31
249.591
12
477805.183
22
6771289.741
32
249.591
13
477805.183
23
6771289.741
33
249.591
0
3DFACE
5
25C
8
SURFACE
10
478065.542
20
6771234.618
30
226.000
11
477998.677
21
6771225.294
31
226.000
12
477985.485
22
6771300.647
32
226.000
13
477985.485
23
6771300.647
33
226.000
0
3DFACE
5
25D
8
SURFACE
10
478181.074
20
6771337.408
30
249.591
11
478184.548
21
6771384.037
31
249.591
12
478188.132
22
6771336.902
32
249.591
13
478188.132
23
6771336.902
33
249.591
0
3DFACE
5
25E
8
SURFACE
10
477819.798
20
6771224.747
30
261.591
11
477808.675
21
6771254.034
31
261.591
12
477811.668
22
6771255.211
32
249.591
13
477811.668
23
6771255.211
33
249.591
0
3DFACE
5
25F
8
SURFACE
10
477811.668
20
6771255.211
30
249.591
11
477808.675
21
6771254.034
31
261.591
12
477798.707
22
6771287.083
32
249.591
13
477798.707
23
6771287.083
33
249.591
0
3DFACE
5
260
8
SURFACE
10
477997.707
20
6771222.197
30
238.000
11
477868.074
21
6771226.496
31
226.000
12
477998.677
22
6771225.294
32
226.000
13
477998.677
23
6771225.294
33
226.000
0
3DFACE
5
261
8
SURFACE
10
477860.656
20
6771239.180
30
238.000
11
477832.362
21
6771229.185
31
238.000
12
477848.996
22
6771269.885
32
238.000
13
477848.996
23
6771269.885
33
238.000
0
3DFACE
5
262
8
SURFACE
10
477836.653
20
6771183.571
30
249.591
11
477841.743
21
6771190.525
31
249.591
12
477985.178
22
6771182.204
32
249.591
13
477985.178
23
6771182.204
33
249.591
0
3DFACE
5
263
8
SURFACE
10
478058.929
20
6771224.272
30
238.000
11
478003.262
21
6771218.412
31
238.000
12
478004.070
22
6771221.620
32
226.000
13
478004.070
23
6771221.620
33
226.000
0
3DFACE
5
264
8
SURFACE
10
478004.070
20
6771221.620
30
226.000
11
478003.262
21
6771218.412
31
238.000
12
477997.707
22
6771222.197
32
238.000
13
477997.707
23
6771222.197
33
238.000
0
3DFACE
5
265
8
SURFACE
10
477865.816
20
6771223.410
30
238.000
11
477868.074
21
6771226.496
31
226.000
12
477997.707
22
6771222.197
32
238.000
13
477997.707
23
6771222.197
33
238.000
0
3DFACE
5
266
8
SURFACE
10
477868.074
20
6771226.496
30
226.000
11
477865.816
21
6771223.410
31
238.000
12
477860.656
22
6771239.180
32
238.000
13
477860.656
23
6771239.180
33
238.000
0
3DFACE
5
267
8
SURFACE
10
478187.719
20
6771384.745
30
261.591
11
478191.375
21
6771336.670
31
261.591
12
478188.132
22
6771336.902
32
249.591
13
478188.132
23
6771336.902
33
249.591
0
3DFACE
5
268
8
SURFACE
10
477813.196
20
6771222.415
30
261.591
11
477802.160
21
6771251.473
31
261.591
12
477808.675
22
6771254.034
32
261.591
13
477808.675
23
6771254.034
33
261.591
0
3DFACE
5
269
8
SURFACE
10
477808.675
20
6771254.034
30
261.591
11
477802.160
21
6771251.473
31
261.591
12
477795.733
22
6771285.863
32
261.591
13
477795.733
23
6771285.863
33
261.591
0
3DFACE
5
26A
8
SURFACE
10
478101.803
20
6771251.768
30
238.000
11
478106.614
21
6771278.940
31
238.000
12
478149.264
22
6771259.169
32
238.000
13
478149.264
23
6771259.169
33
238.000
0
3DFACE
5
26B
8
SURFACE
10
478101.933
20
6771270.948
30
226.000
11
477985.485
21
6771300.647
31
226.000
12
478104.026
22
6771282.768
32
238.000
13
478104.026
23
6771282.768
33
238.000
0
3DFACE
5
26C
8
SURFACE
10
478098.875
20
6771253.672
30
226.000
11
478065.542
21
6771234.618
31
226.000
12
478101.933
22
6771270.948
32
226.000
13
478101.933
23
6771270.948
33
226.000
0
3DFACE
5
26D
8
SURFACE
10
478184.548
20
6771384.037
30
249.591
11
478187.719
21
6771384.745
31
261.591
12
478188.132
22
6771336.902
32
249.591
13
478188.132
23
6771336.902
33
249.591
0
3DFACE
5
26E
8
SURFACE
10
478177.944
20
6771337.642
30
238.000
11
478168.852
21
6771296.771
31
238.000
12
478114.126
22
6771321.369
32
238.000
13
478114.126
23
6771321.369
33
238.000
0
3DFACE
5
26F
8
SURFACE
10
477810.163
20
6771221.343
30
273.591
11
477799.168
21
6771250.296
31
273.591
12
477802.160
22
6771251.473
32
261.591
13
477802.160
23
6771251.473
33
261.591
0
3DFACE
5
270
8
SURFACE
10
477802.160
20
6771251.473
30
261.591
11
477799.168
21
6771250.296
31
273.591
12
477789.257
22
6771283.205
32
261.591
13
477789.257
23
6771283.205
33
261.591
0
3DFACE
5
271
8
SURFACE
10
478101.803
20
6771251.768
30
238.000
11
478101.933
21
6771270.948
31
226.000
12
478106.614
22
6771278.940
32
238.000
13
478106.614
23
6771278.940
33
238.000
0
3DFACE
5
272
8
SURFACE
10
478098.875
20
6771253.672
30
226.000
11
478067.391
21
6771232.097
31
238.000
12
478065.542
22
6771234.618
32
226.000
13
478065.542
23
6771234.618
33
226.000
0
3DFACE
5
273
8
SURFACE
10
478101.803
20
6771251.768
30
238.000
11
478067.391
21
6771232.097
31
238.000
12
478098.875
22
6771253.672
32
226.000
13
478098.875
23
6771253.672
33
226.000
0
3DFACE
5
274
8
SURFACE
10
478065.542
20
6771234.618
30
226.000
11
478057.578
21
6771227.253
31
226.000
12
477998.677
22
6771225.294
32
226.000
13
477998.677
23
6771225.294
33
226.000
0
3DFACE
5
275
8
SURFACE
10
478067.391
20
6771232.097
30
238.000
11
478057.578
21
6771227.253
31
226.000
12
478065.542
22
6771234.618
32
226.000
13
478065.542
23
6771234.618
33
226.000
0
3DFACE
5
276
8
SURFACE
10
477865.816
20
6771223.410
30
238.000
11
477832.362
21
6771229.185
31
238.000
12
477860.656
22
6771239.180
32
238.000
13
477860.656
23
6771239.180
33
238.000
0
3DFACE
5
277
8
SURFACE
10
477844.001
20
6771193.610
30
238.000
11
477829.432
21
6771228.150
31
249.591
12
477832.362
22
6771229.185
32
238.000
13
477832.362
23
6771229.185
33
238.000
0
3DFACE
5
278
8
SURFACE
10
477832.362
20
6771229.185
30
238.000
11
477829.432
21
6771228.150
31
249.591
12
477821.074
22
6771258.908
32
238.000
13
477821.074
23
6771258.908
33
238.000
0
3DFACE
5
279
8
SURFACE
10
478191.375
20
6771336.670
30
261.591
11
478187.719
21
6771384.745
31
261.591
12
478194.622
22
6771386.285
32
261.591
13
478194.622
23
6771386.285
33
261.591
0
3DFACE
5
27A
8
SURFACE
10
478171.795
20
6771295.698
30
249.591
11
478168.852
21
6771296.771
31
238.000
12
478177.944
22
6771337.642
32
238.000
13
478177.944
23
6771337.642
33
238.000
0
3DFACE
5
27B
8
SURFACE
10
478085.248
20
6771207.749
30
238.000
11
478058.929
21
6771224.272
31
238.000
12
478067.391
22
6771232.097
32
238.000
13
478067.391
23
6771232.097
33
238.000
0
3DFACE
5
27C
8
SURFACE
10
478067.391
20
6771232.097
30
238.000
11
478058.929
21
6771224.272
31
238.000
12
478057.578
22
6771227.253
32
226.000
13
478057.578
23
6771227.253
33
226.000
0
3DFACE
5
27D
8
SURFACE
10
478057.578
20
6771227.253
30
226.000
11
478058.929
21
6771224.272
31
238.000
12
478004.070
22
6771221.620
32
226.000
13
478004.070
23
6771221.620
33
226.000
0
3DFACE
5
27E
8
SURFACE
10
478198.433
20
6771336.164
30
261.591
11
478191.375
21
6771336.670
31
261.591
12
478194.622
22
6771386.285
32
261.591
13
478194.622
23
6771386.285
33
261.591
0
3DFACE
5
27F
8
SURFACE
10
478171.795
20
6771295.698
30
249.591
11
478177.944
21
6771337.642
31
238.000
12
478181.074
22
6771337.408
32
249.591
13
478181.074
23
6771337.408
33
249.591
0
3DFACE
5
280
8
SURFACE
10
478032.772
20
6771718.968
30
274.000
11
478062.010
21
6771741.815
31
274.000
12
478033.628
22
6771718.000
32
274.000
13
478033.628
23
6771718.000
33
274.000
0
3DFACE
5
281
8
SURFACE
10
477841.743
20
6771190.525
30
249.591
11
477822.830
21
6771225.818
31
249.591
12
477829.432
22
6771228.150
32
249.591
13
477829.432
23
6771228.150
33
249.591
0
3DFACE
5
282
8
SURFACE
10
477829.432
20
6771228.150
30
249.591
11
477822.830
21
6771225.818
31
249.591
12
477818.183
22
6771257.772
32
249.591
13
477818.183
23
6771257.772
33
249.591
0
3DFACE
5
283
8
SURFACE
10
477836.653
20
6771183.571
30
249.591
11
477819.798
21
6771224.747
31
261.591
12
477822.830
22
6771225.818
32
249.591
13
477822.830
23
6771225.818
33
249.591
0
3DFACE
5
284
8
SURFACE
10
477822.830
20
6771225.818
30
249.591
11
477819.798
21
6771224.747
31
261.591
12
477811.668
22
6771255.211
32
249.591
13
477811.668
23
6771255.211
33
249.591
0
3DFACE
5
285
8
SURFACE
10
477813.196
20
6771222.415
30
261.591
11
477829.224
21
6771173.424
31
261.591
12
477810.163
22
6771221.343
32
273.591
13
477810.163
23
6771221.343
33
273.591
0
3DFACE
5
286
8
SURFACE
10
478171.795
20
6771295.698
30
249.591
11
478181.074
21
6771337.408
31
249.591
12
478178.428
22
6771293.280
32
249.591
13
478178.428
23
6771293.280
33
249.591
0
3DFACE
5
287
8
SURFACE
10
478197.793
20
6771386.992
30
273.591
11
478198.433
21
6771336.164
31
261.591
12
478194.622
22
6771386.285
32
261.591
13
478194.622
23
6771386.285
33
261.591
0
3DFACE
5
288
8
SURFACE
10
478178.428
20
6771293.280
30
249.591
11
478181.074
21
6771337.408
31
249.591
12
478188.132
22
6771336.902
32
249.591
13
478188.132
23
6771336.902
33
249.591
0
3DFACE
5
289
8
SURFACE
10
478178.428
20
6771293.280
30
249.591
11
478188.132
21
6771336.902
31
249.591
12
478181.475
22
6771292.169
32
261.591
13
478181.475
23
6771292.169
33
261.591
0
3DFACE
5
28A
8
SURFACE
10
478168.852
20
6771296.771
30
238.000
11
478149.264
21
6771259.169
31
238.000
12
478106.614
22
6771278.940
32
238.000
13
478106.614
23
6771278.940
33
238.000
0
3DFACE
5
28B
8
SURFACE
10
478101.803
20
6771251.768
30
238.000
11
478085.248
21
6771207.749
31
238.000
12
478067.391
22
6771232.097
32
238.000
13
478067.391
23
6771232.097
33
238.000
0
3DFACE
5
28C
8
SURFACE
10
477995.464
20
6771187.426
30
238.000
11
477988.335
21
6771192.282
31
238.000
12
478003.262
22
6771218.412
32
238.000
13
478003.262
23
6771218.412
33
238.000
0
3DFACE
5
28D
8
SURFACE
10
478003.262
20
6771218.412
30
238.000
11
477988.335
21
6771192.282
31
238.000
12
477997.707
22
6771222.197
32
238.000
13
477997.707
23
6771222.197
33
238.000
0
3DFACE
5
28E
8
SURFACE
10
477813.196
20
6771222.415
30
261.591
11
477819.798
21
6771224.747
31
261.591
12
477834.315
22
6771180.377
32
261.591
13
477834.315
23
6771180.377
33
261.591
0
3DFACE
5
28F
8
SURFACE
10
477819.798
20
6771224.747
30
261.591
11
477813.196
21
6771222.415
31
261.591
12
477808.675
22
6771254.034
32
261.591
13
477808.675
23
6771254.034
33
261.591
0
3DFACE
5
290
8
SURFACE
10
478197.793
20
6771386.992
30
273.591
11
478201.676
21
6771335.932
31
273.591
12
478198.433
22
6771336.164
32
261.591
13
478198.433
23
6771336.164
33
261.591
0
3DFACE
5
291
8
SURFACE
10
478181.475
20
6771292.169
30
261.591
11
478188.132
21
6771336.902
31
249.591
12
478191.375
22
6771336.670
32
261.591
13
478191.375
23
6771336.670
33
261.591
0
3DFACE
5
292
8
SURFACE
10
477844.001
20
6771193.610
30
238.000
11
477832.362
21
6771229.185
31
238.000
12
477865.816
22
6771223.410
32
238.000
13
477865.816
23
6771223.410
33
238.000
0
3DFACE
5
293
8
SURFACE
10
477813.196
20
6771222.415
30
261.591
11
477810.163
21
6771221.343
31
273.591
12
477802.160
22
6771251.473
32
261.591
13
477802.160
23
6771251.473
33
261.591
0
3DFACE
5
294
8
SURFACE
10
477995.464
20
6771187.426
30
238.000
11
477987.365
21
6771189.185
31
249.591
12
477988.335
22
6771192.282
32
238.000
13
477988.335
23
6771192.282
33
238.000
0
3DFACE
5
295
8
SURFACE
10
477988.335
20
6771192.282
30
238.000
11
477865.816
21
6771223.410
31
238.000
12
477997.707
22
6771222.197
32
238.000
13
477997.707
23
6771222.197
33
238.000
0
3DFACE
5
296
8
SURFACE
10
478181.475
20
6771292.169
30
261.591
11
478191.375
21
6771336.670
31
261.591
12
478188.108
22
6771289.751
32
261.591
13
478188.108
23
6771289.751
33
261.591
0
3DFACE
5
297
8
SURFACE
10
478151.830
20
6771257.372
30
249.591
11
478149.264
21
6771259.169
31
238.000
12
478168.852
22
6771296.771
32
238.000
13
478168.852
23
6771296.771
33
238.000
0
3DFACE
5
298
8
SURFACE
10
478071.980
20
6771195.480
30
238.000
11
477995.464
21
6771187.426
31
238.000
12
478003.262
22
6771218.412
32
238.000
13
478003.262
23
6771218.412
33
238.000
0
3DFACE
5
299
8
SURFACE
10
477987.365
20
6771189.185
30
249.591
11
477844.001
21
6771193.610
31
238.000
12
477988.335
22
6771192.282
32
238.000
13
477988.335
23
6771192.282
33
238.000
0
3DFACE
5
29A
8
SURFACE
10
477994.657
20
6771184.218
30
249.591
11
477995.464
21
6771187.426
31
238.000
12
478073.332
22
6771192.500
32
249.591
13
478073.332
23
6771192.500
33
249.591
0
3DFACE
5
29B
8
SURFACE
10
478151.830
20
6771257.372
30
249.591
11
478168.852
21
6771296.771
31
238.000
12
478171.795
22
6771295.698
32
249.591
13
478171.795
23
6771295.698
33
249.591
0
3DFACE
5
29C
8
SURFACE
10
478188.108
20
6771289.751
30
261.591
11
478191.375
21
6771336.670
31
261.591
12
478198.433
22
6771336.164
32
261.591
13
478198.433
23
6771336.164
33
261.591
0
3DFACE
5
29D
8
SURFACE
10
478157.613
20
6771253.322
30
249.591
11
478151.830
21
6771257.372
31
249.591
12
478171.795
22
6771295.698
32
249.591
13
478171.795
23
6771295.698
33
249.591
0
3DFACE
5
29E
8
SURFACE
10
478071.980
20
6771195.480
30
238.000
11
478003.262
21
6771218.412
31
238.000
12
478058.929
22
6771224.272
32
238.000
13
478058.929
23
6771224.272
33
238.000
0
3DFACE
5
29F
8
SURFACE
10
477995.464
20
6771187.426
30
238.000
11
477994.657
21
6771184.218
31
249.591
12
477987.365
22
6771189.185
32
249.591
13
477987.365
23
6771189.185
33
249.591
0
3DFACE
5
2A0
8
SURFACE
10
477994.657
20
6771184.218
30
249.591
11
477985.178
21
6771182.204
31
249.591
12
477987.365
22
6771189.185
32
249.591
13
477987.365
23
6771189.185
33
249.591
0
3DFACE
5
2A1
8
SURFACE
10
478157.613
20
6771253.322
30
249.591
11
478171.795
21
6771295.698
31
249.591
12
478178.428
22
6771293.280
32
249.591
13
478178.428
23
6771293.280
33
249.591
0
3DFACE
5
2A2
8
SURFACE
10
478149.264
20
6771259.169
30
238.000
11
478120.760
21
6771228.049
31
238.000
12
478101.803
22
6771251.768
32
238.000
13
478101.803
23
6771251.768
33
238.000
0
3DFACE
5
2A3
8
SURFACE
10
477992.837
20
6771176.988
30
249.591
11
477985.178
21
6771182.204
31
249.591
12
477994.657
22
6771184.218
32
249.591
13
477994.657
23
6771184.218
33
249.591
0
3DFACE
5
2A4
8
SURFACE
10
477992.837
20
6771176.988
30
249.591
11
477984.174
21
6771178.998
31
261.591
12
477985.178
22
6771182.204
32
249.591
13
477985.178
23
6771182.204
33
249.591
0
3DFACE
5
2A5
8
SURFACE
10
477841.743
20
6771190.525
30
249.591
11
477844.001
21
6771193.610
31
238.000
12
477987.365
22
6771189.185
32
249.591
13
477987.365
23
6771189.185
33
249.591
0
3DFACE
5
2A6
8
SURFACE
10
478120.760
20
6771228.049
30
238.000
11
478085.248
21
6771207.749
31
238.000
12
478101.803
22
6771251.768
32
238.000
13
478101.803
23
6771251.768
33
238.000
0
3DFACE
5
2A7
8
SURFACE
10
477985.178
20
6771182.204
30
249.591
11
477984.174
21
6771178.998
31
261.591
12
477836.653
22
6771183.571
32
249.591
13
477836.653
23
6771183.571
33
249.591
0
3DFACE
5
2A8
8
SURFACE
10
478151.830
20
6771257.372
30
249.591
11
478120.760
21
6771228.049
31
238.000
12
478149.264
22
6771259.169
32
238.000
13
478149.264
23
6771259.169
33
238.000
0
3DFACE
5
2A9
8
SURFACE
10
478160.270
20
6771251.462
30
261.591
11
478157.613
21
6771253.322
31
249.591
12
478178.428
22
6771293.280
32
249.591
13
478178.428
23
6771293.280
33
249.591
0
3DFACE
5
2AA
8
SURFACE
10
478151.830
20
6771257.372
30
249.591
11
478122.723
21
6771225.593
31
249.591
12
478120.760
22
6771228.049
32
238.000
13
478120.760
23
6771228.049
33
238.000
0
3DFACE
5
2AB
8
SURFACE
10
478191.155
20
6771288.641
30
273.591
11
478188.108
21
6771289.751
31
261.591
12
478198.433
22
6771336.164
32
261.591
13
478198.433
23
6771336.164
33
261.591
0
3DFACE
5
2AC
8
SURFACE
10
478076.377
20
6771185.781
30
249.591
11
477992.837
21
6771176.988
31
249.591
12
477994.657
22
6771184.218
32
249.591
13
477994.657
23
6771184.218
33
249.591
0
3DFACE
5
2AD
8
SURFACE
10
477836.653
20
6771183.571
30
249.591
11
477984.174
21
6771178.998
31
261.591
12
477834.315
22
6771180.377
32
261.591
13
477834.315
23
6771180.377
33
261.591
0
3DFACE
5
2AE
8
SURFACE
10
478120.760
20
6771228.049
30
238.000
11
478087.097
21
6771205.229
31
249.591
12
478085.248
22
6771207.749
32
238.000
13
478085.248
23
6771207.749
33
238.000
0
3DFACE
5
2AF
8
SURFACE
10
478085.248
20
6771207.749
30
238.000
11
478071.980
21
6771195.480
31
238.000
12
478058.929
22
6771224.272
32
238.000
13
478058.929
23
6771224.272
33
238.000
0
3DFACE
5
2B0
8
SURFACE
10
478160.270
20
6771251.462
30
261.591
11
478178.428
21
6771293.280
31
249.591
12
478181.475
22
6771292.169
32
261.591
13
478181.475
23
6771292.169
33
261.591
0
3DFACE
5
2B1
8
SURFACE
10
478157.613
20
6771253.322
30
249.591
11
478122.723
21
6771225.593
31
249.591
12
478151.830
22
6771257.372
32
249.591
13
478151.830
23
6771257.372
33
249.591
0
3DFACE
5
2B2
8
SURFACE
10
478122.723
20
6771225.593
30
249.591
11
478091.264
21
6771199.548
31
249.591
12
478087.097
22
6771205.229
32
249.591
13
478087.097
23
6771205.229
33
249.591
0
3DFACE
5
2B3
8
SURFACE
10
477987.365
20
6771189.185
30
249.591
11
477985.178
21
6771182.204
31
249.591
12
477841.743
22
6771190.525
32
249.591
13
477841.743
23
6771190.525
33
249.591
0
3DFACE
5
2B4
8
SURFACE
10
477844.001
20
6771193.610
30
238.000
11
477841.743
21
6771190.525
31
249.591
12
477829.432
22
6771228.150
32
249.591
13
477829.432
23
6771228.150
33
249.591
0
3DFACE
5
2B5
8
SURFACE
10
478166.053
20
6771247.412
30
261.591
11
478160.270
21
6771251.462
31
261.591
12
478181.475
22
6771292.169
32
261.591
13
478181.475
23
6771292.169
33
261.591
0
3DFACE
5
2B6
8
SURFACE
10
478201.676
20
6771335.932
30
273.591
11
478191.155
21
6771288.641
31
273.591
12
478198.433
22
6771336.164
32
261.591
13
478198.433
23
6771336.164
33
261.591
0
3DFACE
5
2B7
8
SURFACE
10
478077.776
20
6771182.695
30
261.591
11
477992.001
21
6771173.667
31
261.591
12
477992.837
22
6771176.988
32
249.591
13
477992.837
23
6771176.988
33
249.591
0
3DFACE
5
2B8
8
SURFACE
10
477992.837
20
6771176.988
30
249.591
11
477992.001
21
6771173.667
31
261.591
12
477984.174
22
6771178.998
32
261.591
13
477984.174
23
6771178.998
33
261.591
0
3DFACE
5
2B9
8
SURFACE
10
477992.001
20
6771173.667
30
261.591
11
477981.987
21
6771172.018
31
261.591
12
477984.174
22
6771178.998
32
261.591
13
477984.174
23
6771178.998
33
261.591
0
3DFACE
5
2BA
8
SURFACE
10
478073.332
20
6771192.500
30
249.591
11
478071.980
21
6771195.480
31
238.000
12
478087.097
22
6771205.229
32
249.591
13
478087.097
23
6771205.229
33
249.591
0
3DFACE
5
2BB
8
SURFACE
10
478087.097
20
6771205.229
30
249.591
11
478071.980
21
6771195.480
31
238.000
12
478085.248
22
6771207.749
32
238.000
13
478085.248
23
6771207.749
33
238.000
0
3DFACE
5
2BC
8
SURFACE
10
478166.053
20
6771247.412
30
261.591
11
478181.475
21
6771292.169
31
261.591
12
478188.108
22
6771289.751
32
261.591
13
478188.108
23
6771289.751
33
261.591
0
3DFACE
5
2BD
8
SURFACE
10
478157.613
20
6771253.322
30
249.591
11
478127.146
21
6771220.059
31
249.591
12
478122.723
22
6771225.593
32
249.591
13
478122.723
23
6771225.593
33
249.591
0
3DFACE
5
2BE
8
SURFACE
10
477990.181
20
6771166.436
30
261.591
11
477981.987
21
6771172.018
31
261.591
12
477992.001
22
6771173.667
32
261.591
13
477992.001
23
6771173.667
33
261.591
0
3DFACE
5
2BF
8
SURFACE
10
477990.181
20
6771166.436
30
261.591
11
477980.983
21
6771168.812
31
273.591
12
477981.987
22
6771172.018
32
261.591
13
477981.987
23
6771172.018
33
261.591
0
3DFACE
5
2C0
8
SURFACE
10
477844.001
20
6771193.610
30
238.000
11
477865.816
21
6771223.410
31
238.000
12
477988.335
22
6771192.282
32
238.000
13
477988.335
23
6771192.282
33
238.000
0
3DFACE
5
2C1
8
SURFACE
10
478091.264
20
6771199.548
30
249.591
11
478073.332
21
6771192.500
31
249.591
12
478087.097
22
6771205.229
32
249.591
13
478087.097
23
6771205.229
33
249.591
0
3DFACE
5
2C2
8
SURFACE
10
478071.980
20
6771195.480
30
238.000
11
478073.332
21
6771192.500
31
249.591
12
477995.464
22
6771187.426
32
238.000
13
477995.464
23
6771187.426
33
238.000
0
3DFACE
5
2C3
8
SURFACE
10
478093.177
20
6771196.938
30
261.591
11
478091.264
21
6771199.548
31
249.591
12
478127.146
22
6771220.059
32
249.591
13
478127.146
23
6771220.059
33
249.591
0
3DFACE
5
2C4
8
SURFACE
10
478122.723
20
6771225.593
30
249.591
11
478087.097
21
6771205.229
31
249.591
12
478120.760
22
6771228.049
32
238.000
13
478120.760
23
6771228.049
33
238.000
0
3DFACE
5
2C5
8
SURFACE
10
478160.270
20
6771251.462
30
261.591
11
478127.146
21
6771220.059
31
249.591
12
478157.613
22
6771253.322
32
249.591
13
478157.613
23
6771253.322
33
249.591
0
3DFACE
5
2C6
8
SURFACE
10
478080.821
20
6771175.977
30
261.591
11
477990.181
21
6771166.436
31
261.591
12
477992.001
22
6771173.667
32
261.591
13
477992.001
23
6771173.667
33
261.591
0
3DFACE
5
2C7
8
SURFACE
10
477834.315
20
6771180.377
30
261.591
11
477984.174
21
6771178.998
31
261.591
12
477981.987
22
6771172.018
32
261.591
13
477981.987
23
6771172.018
33
261.591
0
3DFACE
5
2C8
8
SURFACE
10
477834.315
20
6771180.377
30
261.591
11
477981.987
21
6771172.018
31
261.591
12
477829.224
22
6771173.424
32
261.591
13
477829.224
23
6771173.424
33
261.591
0
3DFACE
5
2C9
8
SURFACE
10
477841.743
20
6771190.525
30
249.591
11
477836.653
21
6771183.571
31
249.591
12
477822.830
22
6771225.818
32
249.591
13
477822.830
23
6771225.818
33
249.591
0
3DFACE
5
2CA
8
SURFACE
10
478091.264
20
6771199.548
30
249.591
11
478076.377
21
6771185.781
31
249.591
12
478073.332
22
6771192.500
32
249.591
13
478073.332
23
6771192.500
33
249.591
0
3DFACE
5
2CB
8
SURFACE
10
478082.220
20
6771172.891
30
273.591
11
477989.346
21
6771163.115
31
273.591
12
477990.181
22
6771166.436
32
261.591
13
477990.181
23
6771166.436
33
261.591
0
3DFACE
5
2CC
8
SURFACE
10
478127.146
20
6771220.059
30
249.591
11
478091.264
21
6771199.548
31
249.591
12
478122.723
22
6771225.593
32
249.591
13
478122.723
23
6771225.593
33
249.591
0
3DFACE
5
2CD
8
SURFACE
10
478168.709
20
6771245.552
30
273.591
11
478166.053
21
6771247.412
31
261.591
12
478188.108
22
6771289.751
32
261.591
13
478188.108
23
6771289.751
33
261.591
0
3DFACE
5
2CE
8
SURFACE
10
478160.270
20
6771251.462
30
261.591
11
478129.178
21
6771217.517
31
261.591
12
478127.146
22
6771220.059
32
249.591
13
478127.146
23
6771220.059
33
249.591
0
3DFACE
5
2CF
8
SURFACE
10
478166.053
20
6771247.412
30
261.591
11
478129.178
21
6771217.517
31
261.591
12
478160.270
22
6771251.462
32
261.591
13
478160.270
23
6771251.462
33
261.591
0
3DFACE
5
2D0
8
SURFACE
10
478129.178
20
6771217.517
30
261.591
11
478097.344
21
6771191.257
31
261.591
12
478093.177
22
6771196.938
32
261.591
13
478093.177
23
6771196.938
33
261.591
0
3DFACE
5
2D1
8
SURFACE
10
478076.377
20
6771185.781
30
249.591
11
477994.657
21
6771184.218
31
249.591
12
478073.332
22
6771192.500
32
249.591
13
478073.332
23
6771192.500
33
249.591
0
3DFACE
5
2D2
8
SURFACE
10
477990.181
20
6771166.436
30
261.591
11
477989.346
21
6771163.115
31
273.591
12
477980.983
22
6771168.812
32
273.591
13
477980.983
23
6771168.812
33
273.591
0
3DFACE
5
2D3
8
SURFACE
10
477829.224
20
6771173.424
30
261.591
11
477981.987
21
6771172.018
31
261.591
12
477980.983
22
6771168.812
32
273.591
13
477980.983
23
6771168.812
33
273.591
0
3DFACE
5
2D4
8
SURFACE
10
477836.653
20
6771183.571
30
249.591
11
477834.315
21
6771180.377
31
261.591
12
477819.798
22
6771224.747
32
261.591
13
477819.798
23
6771224.747
33
261.591
0
3DFACE
5
2D5
8
SURFACE
10
478077.776
20
6771182.695
30
261.591
11
478076.377
21
6771185.781
31
249.591
12
478093.177
22
6771196.938
32
261.591
13
478093.177
23
6771196.938
33
261.591
0
3DFACE
5
2D6
8
SURFACE
10
478093.177
20
6771196.938
30
261.591
11
478076.377
21
6771185.781
31
249.591
12
478091.264
22
6771199.548
32
249.591
13
478091.264
23
6771199.548
33
249.591
0
3DFACE
5
2D7
8
SURFACE
10
478191.155
20
6771288.641
30
273.591
11
478168.709
21
6771245.552
31
273.591
12
478188.108
22
6771289.751
32
261.591
13
478188.108
23
6771289.751
33
261.591
0
3DFACE
5
2D8
8
SURFACE
10
478166.053
20
6771247.412
30
261.591
11
478133.601
21
6771211.982
31
261.591
12
478129.178
22
6771217.517
32
261.591
13
478129.178
23
6771217.517
33
261.591
0
3DFACE
5
2D9
8
SURFACE
10
478097.344
20
6771191.257
30
261.591
11
478077.776
21
6771182.695
31
261.591
12
478093.177
22
6771196.938
32
261.591
13
478093.177
23
6771196.938
33
261.591
0
3DFACE
5
2DA
8
SURFACE
10
478076.377
20
6771185.781
30
249.591
11
478077.776
21
6771182.695
31
261.591
12
477992.837
22
6771176.988
32
249.591
13
477992.837
23
6771176.988
33
249.591
0
3DFACE
5
2DB
8
SURFACE
10
478099.258
20
6771188.647
30
273.591
11
478097.344
21
6771191.257
31
261.591
12
478133.601
22
6771211.982
32
261.591
13
478133.601
23
6771211.982
33
261.591
0
3DFACE
5
2DC
8
SURFACE
10
478129.178
20
6771217.517
30
261.591
11
478093.177
21
6771196.938
31
261.591
12
478127.146
22
6771220.059
32
249.591
13
478127.146
23
6771220.059
33
249.591
0
3DFACE
5
2DD
8
SURFACE
10
478168.709
20
6771245.552
30
273.591
11
478133.601
21
6771211.982
31
261.591
12
478166.053
22
6771247.412
32
261.591
13
478166.053
23
6771247.412
33
261.591
0
3DFACE
5
2DE
8
SURFACE
10
478133.601
20
6771211.982
30
261.591
11
478097.344
21
6771191.257
31
261.591
12
478129.178
22
6771217.517
32
261.591
13
478129.178
23
6771217.517
33
261.591
0
3DFACE
5
2DF
8
SURFACE
10
478097.344
20
6771191.257
30
261.591
11
478080.821
21
6771175.977
31
261.591
12
478077.776
22
6771182.695
32
261.591
13
478077.776
23
6771182.695
33
261.591
0
3DFACE
5
2E0
8
SURFACE
10
477826.886
20
6771170.230
30
273.591
11
477829.224
21
6771173.424
31
261.591
12
477980.983
22
6771168.812
32
273.591
13
477980.983
23
6771168.812
33
273.591
0
3DFACE
5
2E1
8
SURFACE
10
477834.315
20
6771180.377
30
261.591
11
477829.224
21
6771173.424
31
261.591
12
477813.196
22
6771222.415
32
261.591
13
477813.196
23
6771222.415
33
261.591
0
3DFACE
5
2E2
8
SURFACE
10
478168.709
20
6771245.552
30
273.591
11
478135.633
21
6771209.440
31
273.591
12
478133.601
22
6771211.982
32
261.591
13
478133.601
23
6771211.982
33
261.591
0
3DFACE
5
2E3
8
SURFACE
10
478133.601
20
6771211.982
30
261.591
11
478135.633
21
6771209.440
31
273.591
12
478099.258
22
6771188.647
32
273.591
13
478099.258
23
6771188.647
33
273.591
0
3DFACE
5
2E4
8
SURFACE
10
478082.220
20
6771172.891
30
273.591
11
478080.821
21
6771175.977
31
261.591
12
478099.258
22
6771188.647
32
273.591
13
478099.258
23
6771188.647
33
273.591
0
3DFACE
5
2E5
8
SURFACE
10
478099.258
20
6771188.647
30
273.591
11
478080.821
21
6771175.977
31
261.591
12
478097.344
22
6771191.257
32
261.591
13
478097.344
23
6771191.257
33
261.591
0
3DFACE
5
2E6
8
SURFACE
10
478077.776
20
6771182.695
30
261.591
11
478080.821
21
6771175.977
31
261.591
12
477992.001
22
6771173.667
32
261.591
13
477992.001
23
6771173.667
33
261.591
0
3DFACE
5
2E7
8
SURFACE
10
477829.224
20
6771173.424
30
261.591
11
477826.886
21
6771170.230
31
273.591
12
477810.163
22
6771221.343
32
273.591
13
477810.163
23
6771221.343
33
273.591
0
3DFACE
5
2E8
8
SURFACE
10
478080.821
20
6771175.977
30
261.591
11
478082.220
21
6771172.891
31
273.591
12
477990.181
22
6771166.436
32
261.591
13
477990.181
23
6771166.436
33
261.591
0
ENDSEC
0
EOF
