0
SECTION
2
HEADER
0
ENDSEC
0
SECTION
2
TABLES
0
ENDSEC
0
SECTION
2
BLOCKS
0
ENDSEC
0
SECTION
2
ENTITIES
0
POLYLINE
8
polyEntity_1
66
1
70
1
62
3
0
VERTEX
8
polyEntity_1
10
476922.5669539699
20
6772484.557383455
30
270
0
VERTEX
8
polyEntity_1
10
476955.592741396
20
6772489.224724654
30
273.3333333333333
0
VERTEX
8
polyEntity_1
10
476988.6185288221
20
6772493.892065854
30
276.6666666666667
0
VERTEX
8
polyEntity_1
10
477021.6443162482
20
6772498.559407053
30
280
0
VERTEX
8
polyEntity_1
10
477024.6025979266
20
6772473.887420799
30
280.0000003727748
0
VERTEX
8
polyEntity_1
10
476991.7535925065
20
6772469.234436688
30
276.6666670394414
0
VERTEX
8
polyEntity_1
10
476958.9045870863
20
6772464.581452577
30
273.3333337061081
0
VERTEX
8
polyEntity_1
10
476926.0555816661
20
6772459.928468467
30
270.0000003727748
0
VERTEX
8
polyEntity_1
10
476922.5669539699
20
6772484.557383455
30
270
0
SEQEND
8
polyEntity_1
0
POLYLINE
8
polyEntity_2
66
1
70
1
62
3
0
VERTEX
8
polyEntity_2
10
477292.1756683828
20
6772402.261104806
30
309.9999999999999
0
VERTEX
8
polyEntity_2
10
477308.665165953
20
6772421.051966146
30
309.9999999999999
0
VERTEX
8
polyEntity_2
10
477289.8756522174
20
6772437.540281157
30
307.4999999999999
0
VERTEX
8
polyEntity_2
10
477271.0861384816
20
6772454.028596168
30
304.9999999999999
0
VERTEX
8
polyEntity_2
10
477252.2966247459
20
6772470.516911179
30
302.4999999999999
0
VERTEX
8
polyEntity_2
10
477233.5071110103
20
6772487.00522619
30
299.9999999999999
0
VERTEX
8
polyEntity_2
10
477217.01761344
20
6772468.214364851
30
299.9999999999999
0
VERTEX
8
polyEntity_2
10
477235.8071271757
20
6772451.72604984
30
302.4999999999999
0
VERTEX
8
polyEntity_2
10
477254.5966409114
20
6772435.237734828
30
304.9999999999999
0
VERTEX
8
polyEntity_2
10
477273.3861546471
20
6772418.749419818
30
307.4999999999999
0
VERTEX
8
polyEntity_2
10
477292.1756683828
20
6772402.261104806
30
309.9999999999999
0
SEQEND
8
polyEntity_2
0
POLYLINE
8
polyEntity_3
66
1
70
1
62
3
0
VERTEX
8
polyEntity_3
10
477217.01761344
20
6772468.214364851
30
299.9999999999999
0
VERTEX
8
polyEntity_3
10
477199.6202711089
20
6772476.800520623
30
298.0460635502997
0
VERTEX
8
polyEntity_3
10
477182.2229287777
20
6772485.386676396
30
296.0921271005994
0
VERTEX
8
polyEntity_3
10
477164.8255864466
20
6772493.972832168
30
294.1381906508992
0
VERTEX
8
polyEntity_3
10
477152.4895041865
20
6772498.498624244
30
292.8147951224611
0
VERTEX
8
polyEntity_3
10
477138.317416383
20
6772500.45426616
30
291.3739360881479
0
VERTEX
8
polyEntity_3
10
477124.7187802331
20
6772499.368650064
30
290
0
VERTEX
8
polyEntity_3
10
477122.7292919597
20
6772524.289363064
30
290
0
VERTEX
8
polyEntity_3
10
477139.0398416283
20
6772525.591478589
30
291.4507218836199
0
VERTEX
8
polyEntity_3
10
477158.5732617294
20
6772522.896012992
30
293.1989992616595
0
VERTEX
8
polyEntity_3
10
477174.6911397328
20
6772516.982777088
30
294.7211745195673
0
VERTEX
8
polyEntity_3
10
477192.4880305609
20
6772508.199431103
30
296.4807830130449
0
VERTEX
8
polyEntity_3
10
477210.2849213891
20
6772499.416085117
30
298.2403915065224
0
VERTEX
8
polyEntity_3
10
477228.0818122172
20
6772490.632739132
30
299.9999999999999
0
VERTEX
8
polyEntity_3
10
477217.01761344
20
6772468.214364851
30
299.9999999999999
0
SEQEND
8
polyEntity_3
0
POLYLINE
8
polyEntity_4
66
1
70
1
62
3
0
VERTEX
8
polyEntity_4
10
477367.3337542577
20
6772336.307852446
30
319.9999999999999
0
VERTEX
8
polyEntity_4
10
477383.823251828
20
6772355.098713785
30
319.9999999999999
0
VERTEX
8
polyEntity_4
10
477358.7705668471
20
6772377.0831338
30
316.6666666666666
0
VERTEX
8
polyEntity_4
10
477333.7178818661
20
6772399.067553815
30
313.3333333333333
0
VERTEX
8
polyEntity_4
10
477308.6651968852
20
6772421.05197383
30
309.9999999999999
0
VERTEX
8
polyEntity_4
10
477292.1756993149
20
6772402.261112491
30
309.9999999999999
0
VERTEX
8
polyEntity_4
10
477317.2283842958
20
6772380.276692476
30
313.3333333333333
0
VERTEX
8
polyEntity_4
10
477342.2810692768
20
6772358.292272461
30
316.6666666666666
0
VERTEX
8
polyEntity_4
10
477367.3337542577
20
6772336.307852446
30
319.9999999999999
0
SEQEND
8
polyEntity_4
0
POLYLINE
8
polyEntity_5
66
1
70
1
62
1
0
VERTEX
8
polyEntity_5
10
476922.5669539699
20
6772484.557383455
30
270
0
VERTEX
8
polyEntity_5
10
476926.0555681505
20
6772459.92846425
30
270
0
VERTEX
8
polyEntity_5
10
476909.7918269823
20
6772460.258141663
30
270
0
VERTEX
8
polyEntity_5
10
476893.528085814
20
6772460.587819077
30
270
0
VERTEX
8
polyEntity_5
10
476877.2643446458
20
6772460.91749649
30
270
0
VERTEX
8
polyEntity_5
10
476869.7925370979
20
6772468.698488967
30
270
0
VERTEX
8
polyEntity_5
10
476878.6571605813
20
6772493.610746188
30
270
0
VERTEX
8
polyEntity_5
10
476887.5217840647
20
6772518.523003409
30
270
0
VERTEX
8
polyEntity_5
10
476896.3864075481
20
6772543.435260629
30
270
0
VERTEX
8
polyEntity_5
10
476919.5061971945
20
6772565.656478992
30
270
0
VERTEX
8
polyEntity_5
10
476943.2611696197
20
6772573.0433608
30
270
0
VERTEX
8
polyEntity_5
10
476967.016142045
20
6772580.430242607
30
270
0
VERTEX
8
polyEntity_5
10
476990.7711144703
20
6772587.817124415
30
270
0
VERTEX
8
polyEntity_5
10
476994.8160690566
20
6772588.292384334
30
270
0
VERTEX
8
polyEntity_5
10
476995.2974640151
20
6772588.168390879
30
270
0
VERTEX
8
polyEntity_5
10
476998.6095094943
20
6772585.798178741
30
270
0
VERTEX
8
polyEntity_5
10
477006.8014091586
20
6772577.267296588
30
270
0
VERTEX
8
polyEntity_5
10
477018.7663258773
20
6772567.694849393
30
270
0
VERTEX
8
polyEntity_5
10
477031.4221399123
20
6772562.149535726
30
270
0
VERTEX
8
polyEntity_5
10
477029.5083640952
20
6772542.787568381
30
270
0
VERTEX
8
polyEntity_5
10
477027.5945882781
20
6772523.425601036
30
270
0
VERTEX
8
polyEntity_5
10
477025.680812461
20
6772504.063633692
30
270
0
VERTEX
8
polyEntity_5
10
476991.3095262973
20
6772497.561550279
30
270
0
VERTEX
8
polyEntity_5
10
476956.9382401336
20
6772491.059466868
30
270
0
VERTEX
8
polyEntity_5
10
476922.5669539699
20
6772484.557383455
30
270
0
SEQEND
8
polyEntity_5
0
POLYLINE
8
polyEntity_6
66
1
70
1
62
5
0
VERTEX
8
polyEntity_6
10
477021.6443162482
20
6772498.559407053
30
280
0
VERTEX
8
polyEntity_6
10
477024.6025979266
20
6772473.887420799
30
280
0
VERTEX
8
polyEntity_6
10
476991.9845266905
20
6772467.675075822
30
280
0
VERTEX
8
polyEntity_6
10
476959.3664554544
20
6772461.462730845
30
280
0
VERTEX
8
polyEntity_6
10
476926.7483842183
20
6772455.250385868
30
280
0
VERTEX
8
polyEntity_6
10
476875.2387273798
20
6772456.294522654
30
280
0
VERTEX
8
polyEntity_6
10
476864.4333239282
20
6772467.547055918
30
280
0
VERTEX
8
polyEntity_6
10
476892.3619655092
20
6772546.034935769
30
280
0
VERTEX
8
polyEntity_6
10
476917.069343152
20
6772569.782039102
30
280
0
VERTEX
8
polyEntity_6
10
476941.3123850161
20
6772577.320691714
30
280
0
VERTEX
8
polyEntity_6
10
476965.5554268801
20
6772584.859344325
30
280
0
VERTEX
8
polyEntity_6
10
476989.7984687441
20
6772592.397996937
30
280
0
VERTEX
8
polyEntity_6
10
476995.1363350583
20
6772593.025166873
30
280
0
VERTEX
8
polyEntity_6
10
476997.3034210592
20
6772592.466988032
30
280
0
VERTEX
8
polyEntity_6
10
477001.6741139599
20
6772589.339171873
30
280
0
VERTEX
8
polyEntity_6
10
477009.9531592127
20
6772580.71753803
30
280
0
VERTEX
8
polyEntity_6
10
477021.2000510773
20
6772571.719541553
30
280
0
VERTEX
8
polyEntity_6
10
477036.4105447707
20
6772565.054860931
30
280
0
VERTEX
8
polyEntity_6
10
477034.2071618308
20
6772543.748965851
30
280
0
VERTEX
8
polyEntity_6
10
477032.0037788909
20
6772522.443070772
30
280
0
VERTEX
8
polyEntity_6
10
477029.800395951
20
6772501.137175692
30
280
0
VERTEX
8
polyEntity_6
10
477021.6443162482
20
6772498.559407053
30
280
0
SEQEND
8
polyEntity_6
0
POLYLINE
8
polyEntity_7
66
1
70
1
62
1
0
VERTEX
8
polyEntity_7
10
477036.8342934551
20
6772459.473161857
30
290
0
VERTEX
8
polyEntity_7
10
477003.9102257441
20
6772449.232704887
30
290
0
VERTEX
8
polyEntity_7
10
476970.9861580331
20
6772438.992247919
30
290
0
VERTEX
8
polyEntity_7
10
476938.0620903221
20
6772428.751790949
30
290
0
VERTEX
8
polyEntity_7
10
476933.3564520903
20
6772427.533318212
30
290
0
VERTEX
8
polyEntity_7
10
476928.5474147645
20
6772426.825578116
30
290
0
VERTEX
8
polyEntity_7
10
476923.4404585556
20
6772426.648475013
30
290
0
VERTEX
8
polyEntity_7
10
476905.4418572346
20
6772427.013319255
30
290
0
VERTEX
8
polyEntity_7
10
476887.4432559137
20
6772427.378163498
30
290
0
VERTEX
8
polyEntity_7
10
476869.4446545927
20
6772427.74300774
30
290
0
VERTEX
8
polyEntity_7
10
476865.1922025348
20
6772428.39077937
30
290
0
VERTEX
8
polyEntity_7
10
476861.534664367
20
6772429.993377916
30
290
0
VERTEX
8
polyEntity_7
10
476858.1758206472
20
6772432.680596772
30
290
0
VERTEX
8
polyEntity_7
10
476838.3541296117
20
6772453.322513448
30
290
0
VERTEX
8
polyEntity_7
10
476835.0424476943
20
6772458.370541748
30
290
0
VERTEX
8
polyEntity_7
10
476833.8668738963
20
6772463.844192123
30
290
0
VERTEX
8
polyEntity_7
10
476834.813797969
20
6772469.806841616
30
290
0
VERTEX
8
polyEntity_7
10
476844.7826310787
20
6772497.822259879
30
290
0
VERTEX
8
polyEntity_7
10
476854.7514641884
20
6772525.837678141
30
290
0
VERTEX
8
polyEntity_7
10
476864.7202972981
20
6772553.853096404
30
290
0
VERTEX
8
polyEntity_7
10
476867.0875597328
20
6772559.164162932
30
290
0
VERTEX
8
polyEntity_7
10
476870.0481682027
20
6772563.744292915
30
290
0
VERTEX
8
polyEntity_7
10
476873.6688816763
20
6772567.824163519
30
290
0
VERTEX
8
polyEntity_7
10
476895.8422936821
20
6772589.135786053
30
290
0
VERTEX
8
polyEntity_7
10
476900.3348187298
20
6772592.827476423
30
290
0
VERTEX
8
polyEntity_7
10
476905.0311638468
20
6772595.600044861
30
290
0
VERTEX
8
polyEntity_7
10
476910.0942020274
20
6772597.629959774
30
290
0
VERTEX
8
polyEntity_7
10
476934.6693992944
20
6772605.271899927
30
290
0
VERTEX
8
polyEntity_7
10
476959.2445965612
20
6772612.913840081
30
290
0
VERTEX
8
polyEntity_7
10
476983.8197938282
20
6772620.555780234
30
290
0
VERTEX
8
polyEntity_7
10
476997.1049514566
20
6772622.11671319
30
290
0
VERTEX
8
polyEntity_7
10
477009.6336711248
20
6772618.889676414
30
290
0
VERTEX
8
polyEntity_7
10
477020.5116755836
20
6772611.105007282
30
290
0
VERTEX
8
polyEntity_7
10
477029.3263887916
20
6772601.925539433
30
290
0
VERTEX
8
polyEntity_7
10
477036.1597135575
20
6772596.458586171
30
290
0
VERTEX
8
polyEntity_7
10
477044.4575137849
20
6772592.822794362
30
290
0
VERTEX
8
polyEntity_7
10
477053.1088292648
20
6772591.504947829
30
290
0
VERTEX
8
polyEntity_7
10
477068.595359233
20
6772591.191025031
30
290
0
VERTEX
8
polyEntity_7
10
477084.0818892013
20
6772590.877102232
30
290
0
VERTEX
8
polyEntity_7
10
477099.5684191695
20
6772590.563179433
30
290
0
VERTEX
8
polyEntity_7
10
477108.2660291729
20
6772591.529349988
30
290
0
VERTEX
8
polyEntity_7
10
477116.7043530275
20
6772594.825887755
30
290
0
VERTEX
8
polyEntity_7
10
477123.7536150887
20
6772600.011433376
30
290
0
VERTEX
8
polyEntity_7
10
477138.9043973302
20
6772614.56018528
30
290
0
VERTEX
8
polyEntity_7
10
477146.5750746229
20
6772620.20285428
30
290
0
VERTEX
8
polyEntity_7
10
477155.1576736686
20
6772623.555756268
30
290
0
VERTEX
8
polyEntity_7
10
477164.6220159017
20
6772624.607099598
30
290
0
VERTEX
8
polyEntity_7
10
477200.5056484449
20
6772623.879713259
30
290
0
VERTEX
8
polyEntity_7
10
477236.389280988
20
6772623.152326918
30
290
0
VERTEX
8
polyEntity_7
10
477272.2729135312
20
6772622.424940579
30
290
0
VERTEX
8
polyEntity_7
10
477281.6868709727
20
6772620.990922164
30
290
0
VERTEX
8
polyEntity_7
10
477290.1265446914
20
6772617.292967912
30
290
0
VERTEX
8
polyEntity_7
10
477297.5622572629
20
6772611.344079336
30
290
0
VERTEX
8
polyEntity_7
10
477308.818657162
20
6772599.6218873
30
290
0
VERTEX
8
polyEntity_7
10
477314.4613261619
20
6772591.951210007
30
290
0
VERTEX
8
polyEntity_7
10
477317.8142281509
20
6772583.368610961
30
290
0
VERTEX
8
polyEntity_7
10
477318.8655714805
20
6772573.904268729
30
290
0
VERTEX
8
polyEntity_7
10
477318.1164729914
20
6772536.949526141
30
290
0
VERTEX
8
polyEntity_7
10
477316.6824545746
20
6772527.535568698
30
290
0
VERTEX
8
polyEntity_7
10
477312.9845003225
20
6772519.095894978
30
290
0
VERTEX
8
polyEntity_7
10
477307.0356117486
20
6772511.660182409
30
290
0
VERTEX
8
polyEntity_7
10
477294.9413802513
20
6772500.046526381
30
290
0
VERTEX
8
polyEntity_7
10
477282.8471487541
20
6772488.432870352
30
290
0
VERTEX
8
polyEntity_7
10
477270.7529172568
20
6772476.819214324
30
290
0
VERTEX
8
polyEntity_7
10
477238.9935626764
20
6772490.893290506
30
290
0
VERTEX
8
polyEntity_7
10
477207.2342080961
20
6772504.967366689
30
290
0
VERTEX
8
polyEntity_7
10
477175.4748535156
20
6772519.041442871
30
290
0
VERTEX
8
polyEntity_7
10
477158.8756103516
20
6772524.364257812
30
290
0
VERTEX
8
polyEntity_7
10
477139.03125
20
6772526.27130127
30
290
0
VERTEX
8
polyEntity_7
10
477122.7292480469
20
6772524.289367676
30
290
0
VERTEX
8
polyEntity_7
10
477124.7187802331
20
6772499.368650064
30
290
0
VERTEX
8
polyEntity_7
10
477118.7178802048
20
6772491.59128606
30
290
0
VERTEX
8
polyEntity_7
10
477113.8105436692
20
6772486.419796775
30
290
0
VERTEX
8
polyEntity_7
10
477107.9570868028
20
6772482.349989738
30
290
0
VERTEX
8
polyEntity_7
10
477101.4003764492
20
6772479.550727739
30
290
0
VERTEX
8
polyEntity_7
10
477079.8783487845
20
6772472.858205779
30
290
0
VERTEX
8
polyEntity_7
10
477058.3563211198
20
6772466.165683817
30
290
0
VERTEX
8
polyEntity_7
10
477036.8342934551
20
6772459.473161857
30
290
0
SEQEND
8
polyEntity_7
0
POLYLINE
8
polyEntity_8
66
1
70
1
62
1
0
VERTEX
8
polyEntity_8
10
477040.0005478793
20
6772449.291018905
30
300
0
VERTEX
8
polyEntity_8
10
477006.9450524928
20
6772439.012032546
30
300
0
VERTEX
8
polyEntity_8
10
476973.8895571065
20
6772428.733046186
30
300
0
VERTEX
8
polyEntity_8
10
476940.8340617201
20
6772418.454059827
30
300
0
VERTEX
8
polyEntity_8
10
476935.1697166497
20
6772417.02061145
30
300
0
VERTEX
8
polyEntity_8
10
476929.2248899783
20
6772416.179172184
30
300
0
VERTEX
8
polyEntity_8
10
476923.3852242281
20
6772415.984327558
30
300
0
VERTEX
8
polyEntity_8
10
476905.1000839758
20
6772416.354980146
30
300
0
VERTEX
8
polyEntity_8
10
476886.8149437233
20
6772416.725632733
30
300
0
VERTEX
8
polyEntity_8
10
476868.5298034709
20
6772417.09628532
30
300
0
VERTEX
8
polyEntity_8
10
476862.1986153985
20
6772418.060708661
30
300
0
VERTEX
8
polyEntity_8
10
476855.9694557276
20
6772420.790097054
30
300
0
VERTEX
8
polyEntity_8
10
476850.9687009554
20
6772424.790915086
30
300
0
VERTEX
8
polyEntity_8
10
476829.9795866226
20
6772446.648563275
30
300
0
VERTEX
8
polyEntity_8
10
476825.0350146494
20
6772454.185621444
30
300
0
VERTEX
8
polyEntity_8
10
476823.0236122134
20
6772463.551017064
30
300
0
VERTEX
8
polyEntity_8
10
476824.4374358035
20
6772472.453668036
30
300
0
VERTEX
8
polyEntity_8
10
476834.5871096229
20
6772500.963222644
30
300
0
VERTEX
8
polyEntity_8
10
476844.7367834422
20
6772529.472777252
30
300
0
VERTEX
8
polyEntity_8
10
476854.8864572616
20
6772557.98233186
30
300
0
VERTEX
8
polyEntity_8
10
476857.6842713059
20
6772564.259361523
30
300
0
VERTEX
8
polyEntity_8
10
476861.54129739
20
6772570.226270352
30
300
0
VERTEX
8
polyEntity_8
10
476866.1160129451
20
6772575.354712591
30
300
0
VERTEX
8
polyEntity_8
10
476888.8932899966
20
6772597.226913483
30
300
0
VERTEX
8
polyEntity_8
10
476894.2029039575
20
6772601.590039014
30
300
0
VERTEX
8
polyEntity_8
10
476900.3212157151
20
6772605.202090014
30
300
0
VERTEX
8
polyEntity_8
10
476906.7064747892
20
6772607.743233209
30
300
0
VERTEX
8
polyEntity_8
10
476931.6695301267
20
6772615.505782288
30
300
0
VERTEX
8
polyEntity_8
10
476956.6325854643
20
6772623.268331368
30
300
0
VERTEX
8
polyEntity_8
10
476981.5956408019
20
6772631.030880448
30
300
0
VERTEX
8
polyEntity_8
10
476997.8373050607
20
6772632.939186673
30
300
0
VERTEX
8
polyEntity_8
10
477014.2207014234
20
6772628.719296376
30
300
0
VERTEX
8
polyEntity_8
10
477027.5195193371
20
6772619.202210985
30
300
0
VERTEX
8
polyEntity_8
10
477036.5335087265
20
6772609.815220865
30
300
0
VERTEX
8
polyEntity_8
10
477041.7249230773
20
6772605.661866446
30
300
0
VERTEX
8
polyEntity_8
10
477047.4511019513
20
6772603.152864822
30
300
0
VERTEX
8
polyEntity_8
10
477054.0236807382
20
6772602.151670242
30
300
0
VERTEX
8
polyEntity_8
10
477069.0443789279
20
6772601.847190179
30
300
0
VERTEX
8
polyEntity_8
10
477084.0650771175
20
6772601.542710117
30
300
0
VERTEX
8
polyEntity_8
10
477099.0857753071
20
6772601.238230054
30
300
0
VERTEX
8
polyEntity_8
10
477105.6935246713
20
6772601.97224927
30
300
0
VERTEX
8
polyEntity_8
10
477111.516676647
20
6772604.24713712
30
300
0
VERTEX
8
polyEntity_8
10
477116.8721431558
20
6772608.186700674
30
300
0
VERTEX
8
polyEntity_8
10
477132.0229251428
20
6772622.735452333
30
300
0
VERTEX
8
polyEntity_8
10
477141.3873973391
20
6772629.624103094
30
300
0
VERTEX
8
polyEntity_8
10
477152.5851681294
20
6772633.998655342
30
300
0
VERTEX
8
polyEntity_8
10
477164.1393716868
20
6772635.282150227
30
300
0
VERTEX
8
polyEntity_8
10
477200.4888360085
20
6772634.545321151
30
300
0
VERTEX
8
polyEntity_8
10
477236.8383003302
20
6772633.808492075
30
300
0
VERTEX
8
polyEntity_8
10
477273.187764652
20
6772633.071662999
30
300
0
VERTEX
8
polyEntity_8
10
477284.6804581107
20
6772631.320992873
30
300
0
VERTEX
8
polyEntity_8
10
477295.6917533307
20
6772626.496248772
30
300
0
VERTEX
8
polyEntity_8
10
477304.7693769546
20
6772619.233761022
30
300
0
VERTEX
8
polyEntity_8
10
477316.9939242148
20
6772606.503359488
30
300
0
VERTEX
8
polyEntity_8
10
477323.8825749758
20
6772597.138887291
30
300
0
VERTEX
8
polyEntity_8
10
477328.2571272248
20
6772585.941116501
30
300
0
VERTEX
8
polyEntity_8
10
477329.5406221092
20
6772574.386912943
30
300
0
VERTEX
8
polyEntity_8
10
477328.7631954113
20
6772536.034675017
30
300
0
VERTEX
8
polyEntity_8
10
477326.3920441025
20
6772504.995947664
30
299.9999999999999
0
VERTEX
8
polyEntity_8
10
477324.0208927938
20
6772473.957220311
30
299.9999999999999
0
VERTEX
8
polyEntity_8
10
477321.6497414851
20
6772442.918492958
30
299.9999999999999
0
VERTEX
8
polyEntity_8
10
477308.0924953077
20
6772427.469085851
30
299.9999999999999
0
VERTEX
8
polyEntity_8
10
477289.4461415003
20
6772442.353119015
30
299.9999999999999
0
VERTEX
8
polyEntity_8
10
477270.799787693
20
6772457.237152178
30
299.9999999999999
0
VERTEX
8
polyEntity_8
10
477252.1534338855
20
6772472.121185342
30
299.9999999999999
0
VERTEX
8
polyEntity_8
10
477233.5070800781
20
6772487.005218506
30
300
0
VERTEX
8
polyEntity_8
10
477217.01761344
20
6772468.214364851
30
300
0
VERTEX
8
polyEntity_8
10
477197.8064832343
20
6772466.467317834
30
300
0
VERTEX
8
polyEntity_8
10
477192.7634669788
20
6772466.373638079
30
300
0
VERTEX
8
polyEntity_8
10
477187.7593512867
20
6772467.005807628
30
300
0
VERTEX
8
polyEntity_8
10
477182.8980649858
20
6772468.350698155
30
300
0
VERTEX
8
polyEntity_8
10
477158.9720828516
20
6772476.868576383
30
300
0
VERTEX
8
polyEntity_8
10
477149.5027459474
20
6772479.133450798
30
300
0
VERTEX
8
polyEntity_8
10
477140.0921763204
20
6772479.324210246
30
300
0
VERTEX
8
polyEntity_8
10
477130.5388285511
20
6772477.444938281
30
300
0
VERTEX
8
polyEntity_8
10
477120.4790195875
20
6772474.316725017
30
300
0
VERTEX
8
polyEntity_8
10
477110.419210624
20
6772471.188511753
30
300
0
VERTEX
8
polyEntity_8
10
477100.3594016604
20
6772468.060298488
30
300
0
VERTEX
8
polyEntity_8
10
477070.1799747699
20
6772458.675658697
30
300
0
VERTEX
8
polyEntity_8
10
477040.0005478793
20
6772449.291018905
30
300
0
SEQEND
8
polyEntity_8
0
POLYLINE
8
polyEntity_9
66
1
70
1
62
5
0
VERTEX
8
polyEntity_9
10
477041.3851845497
20
6772444.838259705
30
310
0
VERTEX
8
polyEntity_9
10
477008.249476499
20
6772434.536669852
30
310
0
VERTEX
8
polyEntity_9
10
476975.1137684484
20
6772424.23508
30
310
0
VERTEX
8
polyEntity_9
10
476941.9780603977
20
6772413.933490147
30
310
0
VERTEX
8
polyEntity_9
10
476935.8232214872
20
6772412.403554527
30
310
0
VERTEX
8
polyEntity_9
10
476929.3803903317
20
6772411.518689072
30
310
0
VERTEX
8
polyEntity_9
10
476923.2907198168
20
6772411.322208715
30
310
0
VERTEX
8
polyEntity_9
10
476904.9037229994
20
6772411.694926006
30
310
0
VERTEX
8
polyEntity_9
10
476886.5167261821
20
6772412.067643296
30
310
0
VERTEX
8
polyEntity_9
10
476868.1297293647
20
6772412.440360587
30
310
0
VERTEX
8
polyEntity_9
10
476860.8894879654
20
6772413.543259082
30
310
0
VERTEX
8
polyEntity_9
10
476853.5357309129
20
6772416.765404638
30
310
0
VERTEX
8
polyEntity_9
10
476847.8169510075
20
6772421.340673533
30
310
0
VERTEX
8
polyEntity_9
10
476826.3173100745
20
6772443.729974018
30
310
0
VERTEX
8
polyEntity_9
10
476820.6586579457
20
6772452.355511371
30
310
0
VERTEX
8
polyEntity_9
10
476818.2817387742
20
6772463.422808497
30
310
0
VERTEX
8
polyEntity_9
10
476819.8997424797
20
6772473.611153329
30
310
0
VERTEX
8
polyEntity_9
10
476830.1422639433
20
6772502.367679382
30
310
0
VERTEX
8
polyEntity_9
10
476840.384785407
20
6772531.124205435
30
310
0
VERTEX
8
polyEntity_9
10
476850.6273068706
20
6772559.880731488
30
310
0
VERTEX
8
polyEntity_9
10
476853.5721134584
20
6772566.487545956
30
310
0
VERTEX
8
polyEntity_9
10
476857.82115248
20
6772573.060907892
30
310
0
VERTEX
8
polyEntity_9
10
476862.8862218054
20
6772578.718153151
30
310
0
VERTEX
8
polyEntity_9
10
476885.9327801996
20
6772600.82964369
30
310
0
VERTEX
8
polyEntity_9
10
476891.5213525356
20
6772605.422000653
30
310
0
VERTEX
8
polyEntity_9
10
476898.2615054003
20
6772609.401166288
30
310
0
VERTEX
8
polyEntity_9
10
476905.3218381188
20
6772612.195992408
30
310
0
VERTEX
8
polyEntity_9
10
476930.4222237704
20
6772620.001245929
30
310
0
VERTEX
8
polyEntity_9
10
476955.522609422
20
6772627.80649945
30
310
0
VERTEX
8
polyEntity_9
10
476980.6229950736
20
6772635.61175297
30
310
0
VERTEX
8
polyEntity_9
10
476998.1575710659
20
6772637.671969212
30
310
0
VERTEX
8
polyEntity_9
10
477016.2266584657
20
6772633.01789353
30
310
0
VERTEX
8
polyEntity_9
10
477030.5841238014
20
6772622.74320412
30
310
0
VERTEX
8
polyEntity_9
10
477039.6852587802
20
6772613.265462308
30
310
0
VERTEX
8
polyEntity_9
10
477044.158648277
20
6772609.686558606
30
310
0
VERTEX
8
polyEntity_9
10
477048.7602298342
20
6772607.670314291
30
310
0
VERTEX
8
polyEntity_9
10
477054.4237549996
20
6772606.807594972
30
310
0
VERTEX
8
polyEntity_9
10
477069.2407400069
20
6772606.507244318
30
310
0
VERTEX
8
polyEntity_9
10
477084.0577250143
20
6772606.206893664
30
310
0
VERTEX
8
polyEntity_9
10
477098.8747100216
20
6772605.90654301
30
310
0
VERTEX
8
polyEntity_9
10
477104.5685411443
20
6772606.539039982
30
310
0
VERTEX
8
polyEntity_9
10
477109.2480506992
20
6772608.367149479
30
310
0
VERTEX
8
polyEntity_9
10
477113.8628024284
20
6772611.761831845
30
310
0
VERTEX
8
polyEntity_9
10
477129.0135843063
20
6772626.3105834
30
310
0
VERTEX
8
polyEntity_9
10
477139.1187709939
20
6772633.744115209
30
310
0
VERTEX
8
polyEntity_9
10
477151.4601841494
20
6772638.565445961
30
310
0
VERTEX
8
polyEntity_9
10
477163.9283062479
20
6772639.950463187
30
310
0
VERTEX
8
polyEntity_9
10
477200.4814837513
20
6772639.209504702
30
310
0
VERTEX
8
polyEntity_9
10
477237.0346612547
20
6772638.468546217
30
310
0
VERTEX
8
polyEntity_9
10
477273.5878387581
20
6772637.727587732
30
310
0
VERTEX
8
polyEntity_9
10
477285.9895855439
20
6772635.838442451
30
310
0
VERTEX
8
polyEntity_9
10
477298.1254781454
20
6772630.520941189
30
310
0
VERTEX
8
polyEntity_9
10
477307.9211269019
20
6772622.684002575
30
310
0
VERTEX
8
polyEntity_9
10
477320.5690552805
20
6772609.512700325
30
310
0
VERTEX
8
polyEntity_9
10
477328.0025870923
20
6772599.407513636
30
310
0
VERTEX
8
polyEntity_9
10
477332.823917845
20
6772587.066100481
30
310
0
VERTEX
8
polyEntity_9
10
477334.2089350683
20
6772574.597978381
30
310
0
VERTEX
8
polyEntity_9
10
477333.4191201446
20
6772535.634600909
30
310
0
VERTEX
8
polyEntity_9
10
477331.0458369853
20
6772504.610834149
30
309.9999999999999
0
VERTEX
8
polyEntity_9
10
477328.6725538262
20
6772473.587067388
30
309.9999999999999
0
VERTEX
8
polyEntity_9
10
477326.299270667
20
6772442.563300627
30
309.9999999999999
0
VERTEX
8
polyEntity_9
10
477325.1546705035
20
6772439.84282136
30
309.9999999999999
0
VERTEX
8
polyEntity_9
10
477311.7408229339
20
6772424.556888674
30
310
0
VERTEX
8
polyEntity_9
10
477308.665165953
20
6772421.051966146
30
310
0
VERTEX
8
polyEntity_9
10
477292.1756683828
20
6772402.261104806
30
310
0
VERTEX
8
polyEntity_9
10
477266.6439911196
20
6772422.641192604
30
310
0
VERTEX
8
polyEntity_9
10
477241.1123138563
20
6772443.021280401
30
310
0
VERTEX
8
polyEntity_9
10
477215.5806365931
20
6772463.401368199
30
310
0
VERTEX
8
polyEntity_9
10
477198.0612750238
20
6772461.808169818
30
310
0
VERTEX
8
polyEntity_9
10
477192.5132508468
20
6772461.705108967
30
310
0
VERTEX
8
polyEntity_9
10
477186.8406982422
20
6772462.421722412
30
310
0
VERTEX
8
polyEntity_9
10
477181.7102980415
20
6772463.841053811
30
310
0
VERTEX
8
polyEntity_9
10
477157.88736424
20
6772472.333417209
30
310
0
VERTEX
8
polyEntity_9
10
477148.9062998029
20
6772474.481506696
30
310
0
VERTEX
8
polyEntity_9
10
477140.4996131863
20
6772474.651916668
30
310
0
VERTEX
8
polyEntity_9
10
477131.9234652215
20
6772472.99217908
30
310
0
VERTEX
8
polyEntity_9
10
477121.8636562579
20
6772469.863965816
30
310
0
VERTEX
8
polyEntity_9
10
477111.8038472944
20
6772466.735752553
30
310
0
VERTEX
8
polyEntity_9
10
477101.7440383309
20
6772463.607539289
30
310
0
VERTEX
8
polyEntity_9
10
477071.5646114403
20
6772454.222899497
30
310
0
VERTEX
8
polyEntity_9
10
477041.3851845497
20
6772444.838259705
30
310
0
SEQEND
8
polyEntity_9
0
POLYLINE
8
polyEntity_10
66
1
70
1
62
1
0
VERTEX
8
polyEntity_10
10
477043.1669412008
20
6772439.108919108
30
310
0
VERTEX
8
polyEntity_10
10
477009.9813732084
20
6772428.791474788
30
310
0
VERTEX
8
polyEntity_10
10
476976.7958052159
20
6772418.474030468
30
310
0
VERTEX
8
polyEntity_10
10
476943.6102372234
20
6772408.156586148
30
310
0
VERTEX
8
polyEntity_10
10
476936.973708483
20
6772406.505214361
30
310
0
VERTEX
8
polyEntity_10
10
476929.8911008709
20
6772405.532042639
30
310
0
VERTEX
8
polyEntity_10
10
476923.3266882498
20
6772405.320247033
30
310
0
VERTEX
8
polyEntity_10
10
476904.7561096168
20
6772405.696685655
30
310
0
VERTEX
8
polyEntity_10
10
476886.1855309839
20
6772406.073124278
30
310
0
VERTEX
8
polyEntity_10
10
476867.614952351
20
6772406.449562901
30
310
0
VERTEX
8
polyEntity_10
10
476859.2050282594
20
6772407.730637952
30
310
0
VERTEX
8
polyEntity_10
10
476850.4042470894
20
6772411.586816194
30
310
0
VERTEX
8
polyEntity_10
10
476843.7615812638
20
6772416.901233399
30
310
0
VERTEX
8
polyEntity_10
10
476821.605043633
20
6772439.974613103
30
310
0
VERTEX
8
polyEntity_10
10
476815.0275816034
20
6772450.000701142
30
310
0
VERTEX
8
polyEntity_10
10
476812.1803505304
20
6772463.257842002
30
310
0
VERTEX
8
polyEntity_10
10
476814.0610908706
20
6772475.100602968
30
310
0
VERTEX
8
polyEntity_10
10
476824.3916616062
20
6772504.104396739
30
310
0
VERTEX
8
polyEntity_10
10
476834.7222323418
20
6772533.108190511
30
310
0
VERTEX
8
polyEntity_10
10
476845.0528030774
20
6772562.111984283
30
310
0
VERTEX
8
polyEntity_10
10
476848.2809828802
20
6772569.354560116
30
310
0
VERTEX
8
polyEntity_10
10
476853.035532674
20
6772576.709958944
30
310
0
VERTEX
8
polyEntity_10
10
476858.5665747175
20
6772582.888694375
30
310
0
VERTEX
8
polyEntity_10
10
476881.9452976367
20
6772605.31887196
30
310
0
VERTEX
8
polyEntity_10
10
476888.0709891853
20
6772610.352601605
30
310
0
VERTEX
8
polyEntity_10
10
476895.6130554906
20
6772614.805190687
30
310
0
VERTEX
8
polyEntity_10
10
476903.3240047612
20
6772617.858141432
30
310
0
VERTEX
8
polyEntity_10
10
476928.6731657676
20
6772625.740754509
30
310
0
VERTEX
8
polyEntity_10
10
476954.0223267738
20
6772633.623367587
30
310
0
VERTEX
8
polyEntity_10
10
476979.3714877802
20
6772641.505980665
30
310
0
VERTEX
8
polyEntity_10
10
476998.5696586626
20
6772643.761660156
30
310
0
VERTEX
8
polyEntity_10
10
477018.8077317227
20
6772638.548916337
30
310
0
VERTEX
8
polyEntity_10
10
477034.5273630905
20
6772627.299414689
30
310
0
VERTEX
8
polyEntity_10
10
477043.7406286606
20
6772617.7049023
30
310
0
VERTEX
8
polyEntity_10
10
477047.2901325949
20
6772614.865146722
30
310
0
VERTEX
8
polyEntity_10
10
477050.4446901193
20
6772613.482935281
30
310
0
VERTEX
8
polyEntity_10
10
477054.9385322141
20
6772612.798392654
30
310
0
VERTEX
8
polyEntity_10
10
477069.4933986222
20
6772612.503355328
30
310
0
VERTEX
8
polyEntity_10
10
477084.0482650303
20
6772612.208318002
30
310
0
VERTEX
8
polyEntity_10
10
477098.6031314383
20
6772611.913280675
30
310
0
VERTEX
8
polyEntity_10
10
477103.1210201667
20
6772612.415148552
30
310
0
VERTEX
8
polyEntity_10
10
477106.3290002734
20
6772613.668386489
30
310
0
VERTEX
8
polyEntity_10
10
477109.9906712204
20
6772616.36196797
30
310
0
VERTEX
8
polyEntity_10
10
477125.1414529572
20
6772630.910719389
30
310
0
VERTEX
8
polyEntity_10
10
477136.1997200549
20
6772639.045351907
30
310
0
VERTEX
8
polyEntity_10
10
477150.0126625909
20
6772644.441554415
30
310
0
VERTEX
8
polyEntity_10
10
477163.6567274704
20
6772645.957200856
30
310
0
VERTEX
8
polyEntity_10
10
477200.4720235706
20
6772645.210929044
30
310
0
VERTEX
8
polyEntity_10
10
477237.2873196707
20
6772644.464657231
30
310
0
VERTEX
8
polyEntity_10
10
477274.1026157708
20
6772643.718385419
30
310
0
VERTEX
8
polyEntity_10
10
477287.6740452506
20
6772641.651063581
30
310
0
VERTEX
8
polyEntity_10
10
477301.2569619681
20
6772635.699529635
30
310
0
VERTEX
8
polyEntity_10
10
477311.976496648
20
6772627.123442706
30
310
0
VERTEX
8
polyEntity_10
10
477325.169191269
20
6772613.384831675
30
310
0
VERTEX
8
polyEntity_10
10
477333.3038237894
20
6772602.326564576
30
310
0
VERTEX
8
polyEntity_10
10
477338.7000262987
20
6772588.51362204
30
310
0
VERTEX
8
polyEntity_10
10
477340.2156078126
20
6772574.87014162
30
310
0
VERTEX
8
polyEntity_10
10
477339.7982340787
20
6772554.070598813
30
310
0
VERTEX
8
polyEntity_10
10
477340.3616969286
20
6772541.043883138
30
310
0
VERTEX
8
polyEntity_10
10
477342.6275897018
20
6772527.901200456
30
310
0
VERTEX
8
polyEntity_10
10
477346.5551351665
20
6772515.156696029
30
310
0
VERTEX
8
polyEntity_10
10
477361.5874364059
20
6772475.458160947
30
310
0
VERTEX
8
polyEntity_10
10
477376.6197376453
20
6772435.759625864
30
309.9999999999999
0
VERTEX
8
polyEntity_10
10
477391.6520388848
20
6772396.061090782
30
309.9999999999999
0
VERTEX
8
polyEntity_10
10
477393.6903275682
20
6772384.960968745
30
309.9999999999999
0
VERTEX
8
polyEntity_10
10
477391.7557628082
20
6772374.277643875
30
309.9999999999999
0
VERTEX
8
polyEntity_10
10
477385.9544597172
20
6772364.597132145
30
309.9999999999999
0
VERTEX
8
polyEntity_10
10
477383.2505416393
20
6772361.515838571
30
309.9999999999999
0
VERTEX
8
polyEntity_10
10
477358.3887497439
20
6772381.361214429
30
309.9999999999999
0
VERTEX
8
polyEntity_10
10
477333.5269578485
20
6772401.206590287
30
309.9999999999999
0
VERTEX
8
polyEntity_10
10
477308.665165953
20
6772421.051966146
30
309.9999999999999
0
VERTEX
8
polyEntity_10
10
477292.1756683828
20
6772402.261104806
30
309.9999999999999
0
VERTEX
8
polyEntity_10
10
477265.9682388962
20
6772420.570988879
30
309.9999999999999
0
VERTEX
8
polyEntity_10
10
477239.7608094096
20
6772438.880872952
30
310
0
VERTEX
8
polyEntity_10
10
477213.553379923
20
6772457.190757024
30
310
0
VERTEX
8
polyEntity_10
10
477198.3891166273
20
6772455.81322472
30
310
0
VERTEX
8
polyEntity_10
10
477192.1912965394
20
6772455.69809317
30
310
0
VERTEX
8
polyEntity_10
10
477185.6629405757
20
6772456.522820236
30
310
0
VERTEX
8
polyEntity_10
10
477179.9054712626
20
6772458.114600053
30
310
0
VERTEX
8
polyEntity_10
10
477156.1772131197
20
6772466.573216578
30
310
0
VERTEX
8
polyEntity_10
10
477148.138850073
20
6772468.495830904
30
310
0
VERTEX
8
polyEntity_10
10
477141.0244426056
20
6772468.640045389
30
310
0
VERTEX
8
polyEntity_10
10
477133.6439613096
20
6772467.243788843
30
310
0
VERTEX
8
polyEntity_10
10
477123.5909590753
20
6772464.117692206
30
310
0
VERTEX
8
polyEntity_10
10
477113.537956841
20
6772460.991595568
30
310
0
VERTEX
8
polyEntity_10
10
477103.4849546067
20
6772457.865498931
30
310
0
VERTEX
8
polyEntity_10
10
477073.3259479038
20
6772448.48720902
30
310
0
VERTEX
8
polyEntity_10
10
477043.1669412008
20
6772439.108919108
30
310
0
SEQEND
8
polyEntity_10
0
POLYLINE
8
polyEntity_11
66
1
70
1
62
5
0
VERTEX
8
polyEntity_11
10
477044.55095972
20
6772434.655967734
30
320
0
VERTEX
8
polyEntity_11
10
477011.2735139728
20
6772424.313029463
30
320
0
VERTEX
8
polyEntity_11
10
476977.9960682254
20
6772413.970091194
30
320
0
VERTEX
8
polyEntity_11
10
476944.7186224781
20
6772403.627152923
30
320
0
VERTEX
8
polyEntity_11
10
476937.5928440286
20
6772401.883423108
30
320
0
VERTEX
8
polyEntity_11
10
476930.0370727749
20
6772400.871251354
30
320
0
VERTEX
8
polyEntity_11
10
476923.2321838387
20
6772400.658128188
30
320
0
VERTEX
8
polyEntity_11
10
476904.5597486407
20
6772401.036631514
30
320
0
VERTEX
8
polyEntity_11
10
476885.8873134428
20
6772401.415134842
30
320
0
VERTEX
8
polyEntity_11
10
476867.2148782449
20
6772401.793638168
30
320
0
VERTEX
8
polyEntity_11
10
476857.8959008254
20
6772403.213188373
30
320
0
VERTEX
8
polyEntity_11
10
476847.970522275
20
6772407.562123776
30
320
0
VERTEX
8
polyEntity_11
10
476840.6098313174
20
6772413.450991846
30
320
0
VERTEX
8
polyEntity_11
10
476817.9427670851
20
6772437.056023846
30
320
0
VERTEX
8
polyEntity_11
10
476810.6512249001
20
6772448.170591068
30
320
0
VERTEX
8
polyEntity_11
10
476807.4384770913
20
6772463.129633436
30
320
0
VERTEX
8
polyEntity_11
10
476809.5235084626
20
6772476.258786678
30
320
0
VERTEX
8
polyEntity_11
10
476819.9468898704
20
6772505.509319089
30
320
0
VERTEX
8
polyEntity_11
10
476830.3702712783
20
6772534.7598515
30
320
0
VERTEX
8
polyEntity_11
10
476840.7936526861
20
6772564.010383911
30
320
0
VERTEX
8
polyEntity_11
10
476844.1688250324
20
6772571.582744548
30
320
0
VERTEX
8
polyEntity_11
10
476849.319617646
20
6772579.55114021
30
320
0
VERTEX
8
polyEntity_11
10
476855.3396629318
20
6772586.254897508
30
320
0
VERTEX
8
polyEntity_11
10
476878.9847878395
20
6772608.921602167
30
320
0
VERTEX
8
polyEntity_11
10
476885.3894377629
20
6772614.184563243
30
320
0
VERTEX
8
polyEntity_11
10
476893.560021608
20
6772619.008208509
30
320
0
VERTEX
8
polyEntity_11
10
476901.9393680904
20
6772622.310900631
30
320
0
VERTEX
8
polyEntity_11
10
476927.4258594111
20
6772630.23621815
30
320
0
VERTEX
8
polyEntity_11
10
476952.9123507318
20
6772638.161535667
30
320
0
VERTEX
8
polyEntity_11
10
476978.3988420524
20
6772646.086853186
30
320
0
VERTEX
8
polyEntity_11
10
476998.8899246677
20
6772648.494442695
30
320
0
VERTEX
8
polyEntity_11
10
477020.8136887648
20
6772642.847513491
30
320
0
VERTEX
8
polyEntity_11
10
477037.5919675555
20
6772630.840407822
30
320
0
VERTEX
8
polyEntity_11
10
477046.8923787154
20
6772621.155143741
30
320
0
VERTEX
8
polyEntity_11
10
477049.7238577965
20
6772618.889838881
30
320
0
VERTEX
8
polyEntity_11
10
477051.7538180016
20
6772618.00038475
30
320
0
VERTEX
8
polyEntity_11
10
477055.3386064715
20
6772617.454317384
30
320
0
VERTEX
8
polyEntity_11
10
477069.6897596996
20
6772617.163409467
30
320
0
VERTEX
8
polyEntity_11
10
477084.0409129278
20
6772616.872501549
30
320
0
VERTEX
8
polyEntity_11
10
477098.3920661559
20
6772616.581593632
30
320
0
VERTEX
8
polyEntity_11
10
477101.9960366419
20
6772616.981939263
30
320
0
VERTEX
8
polyEntity_11
10
477104.0603743205
20
6772617.788398844
30
320
0
VERTEX
8
polyEntity_11
10
477106.9813304951
20
6772619.937099143
30
320
0
VERTEX
8
polyEntity_11
10
477122.1321121199
20
6772634.485850454
30
320
0
VERTEX
8
polyEntity_11
10
477133.93109371
20
6772643.165364023
30
320
0
VERTEX
8
polyEntity_11
10
477148.8876786105
20
6772649.008345035
30
320
0
VERTEX
8
polyEntity_11
10
477163.445662031
20
6772650.625513815
30
320
0
VERTEX
8
polyEntity_11
10
477200.4646713133
20
6772649.875112594
30
320
0
VERTEX
8
polyEntity_11
10
477237.4836805955
20
6772649.124711373
30
320
0
VERTEX
8
polyEntity_11
10
477274.5026898778
20
6772648.374310152
30
320
0
VERTEX
8
polyEntity_11
10
477288.9831726835
20
6772646.168513159
30
320
0
VERTEX
8
polyEntity_11
10
477303.6906867828
20
6772639.724222052
30
320
0
VERTEX
8
polyEntity_11
10
477315.1282465954
20
6772630.573684258
30
320
0
VERTEX
8
polyEntity_11
10
477328.7443223351
20
6772616.394172512
30
320
0
VERTEX
8
polyEntity_11
10
477337.4238359057
20
6772604.595190921
30
320
0
VERTEX
8
polyEntity_11
10
477343.2668169187
20
6772589.63860602
30
320
0
VERTEX
8
polyEntity_11
10
477344.8839856967
20
6772575.080622597
30
320
0
VERTEX
8
polyEntity_11
10
477344.4569545951
20
6772554.272109002
30
320
0
VERTEX
8
polyEntity_11
10
477345.0075536056
20
6772541.542792841
30
320
0
VERTEX
8
polyEntity_11
10
477347.1722951607
20
6772528.986809749
30
320
0
VERTEX
8
polyEntity_11
10
477350.9160380182
20
6772516.808001429
30
320
0
VERTEX
8
polyEntity_11
10
477365.9981159123
20
6772476.978012071
30
320
0
VERTEX
8
polyEntity_11
10
477381.0801938064
20
6772437.148022713
30
319.9999999999999
0
VERTEX
8
polyEntity_11
10
477396.1622717005
20
6772397.318033355
30
319.9999999999999
0
VERTEX
8
polyEntity_11
10
477398.4302978204
20
6772384.966806112
30
319.9999999999999
0
VERTEX
8
polyEntity_11
10
477396.1926996621
20
6772372.610027705
30
319.9999999999999
0
VERTEX
8
polyEntity_11
10
477389.7375263216
20
6772361.838416524
30
319.9999999999999
0
VERTEX
8
polyEntity_11
10
477383.823251828
20
6772355.098713785
30
319.9999999999999
0
VERTEX
8
polyEntity_11
10
477367.3337419318
20
6772336.307863262
30
320
0
VERTEX
8
polyEntity_11
10
477341.255828701
20
6772357.123976792
30
320
0
VERTEX
8
polyEntity_11
10
477315.1779154703
20
6772377.940090322
30
320
0
VERTEX
8
polyEntity_11
10
477289.1000022396
20
6772398.756203852
30
320
0
VERTEX
8
polyEntity_11
10
477263.4926944689
20
6772416.635455419
30
320
0
VERTEX
8
polyEntity_11
10
477237.8853866983
20
6772434.514706986
30
320
0
VERTEX
8
polyEntity_11
10
477212.2780789277
20
6772452.393958554
30
320
0
VERTEX
8
polyEntity_11
10
477198.4757236309
20
6772451.150952481
30
320
0
VERTEX
8
polyEntity_11
10
477191.9410802818
20
6772451.029564057
30
320
0
VERTEX
8
polyEntity_11
10
477184.7399907857
20
6772451.939277534
30
320
0
VERTEX
8
polyEntity_11
10
477178.3348936891
20
6772453.723977171
30
320
0
VERTEX
8
polyEntity_11
10
477155.0924945085
20
6772462.038057403
30
320
0
VERTEX
8
polyEntity_11
10
477147.5424039286
20
6772463.843886802
30
320
0
VERTEX
8
polyEntity_11
10
477141.4147645606
20
6772463.968098742
30
320
0
VERTEX
8
polyEntity_11
10
477134.7733763173
20
6772462.711665533
30
320
0
VERTEX
8
polyEntity_11
10
477124.7486633621
20
6772459.594365777
30
320
0
VERTEX
8
polyEntity_11
10
477114.7239504068
20
6772456.477066021
30
320
0
VERTEX
8
polyEntity_11
10
477104.6992374516
20
6772453.359766266
30
320
0
VERTEX
8
polyEntity_11
10
477074.6250985858
20
6772444.007867
30
320
0
VERTEX
8
polyEntity_11
10
477044.55095972
20
6772434.655967734
30
320
0
SEQEND
8
polyEntity_11
0
POLYLINE
8
polyEntity_12
66
1
70
1
62
1
0
VERTEX
8
polyEntity_12
10
477027.9481633198
20
6772474.159762155
30
280
0
VERTEX
8
polyEntity_12
10
476994.7829477664
20
6772463.844300356
30
280
0
VERTEX
8
polyEntity_12
10
476961.6177322129
20
6772453.528838556
30
280
0
VERTEX
8
polyEntity_12
10
476928.4525166595
20
6772443.213376757
30
280
0
VERTEX
8
polyEntity_12
10
476908.9770068016
20
6772443.608158969
30
280
0
VERTEX
8
polyEntity_12
10
476889.5014969436
20
6772444.002941181
30
280
0
VERTEX
8
polyEntity_12
10
476870.0259870857
20
6772444.397723394
30
280
0
VERTEX
8
polyEntity_12
10
476850.6418802506
20
6772464.583948545
30
280
0
VERTEX
8
polyEntity_12
10
476861.0963978153
20
6772493.964286151
30
280
0
VERTEX
8
polyEntity_12
10
476871.55091538
20
6772523.344623757
30
280
0
VERTEX
8
polyEntity_12
10
476882.0054329447
20
6772552.724961363
30
280
0
VERTEX
8
polyEntity_12
10
476910.7983227225
20
6772580.398789751
30
280
0
VERTEX
8
polyEntity_12
10
476936.2973665316
20
6772588.328010609
30
280
0
VERTEX
8
polyEntity_12
10
476961.7964103407
20
6772596.257231467
30
280
0
VERTEX
8
polyEntity_12
10
476987.2954541498
20
6772604.186452325
30
280
0
VERTEX
8
polyEntity_12
10
476995.9605102552
20
6772605.204548762
30
280
0
VERTEX
8
polyEntity_12
10
477002.4655675712
20
6772603.529033646
30
280
0
VERTEX
8
polyEntity_12
10
477009.5605925396
20
6772598.451593011
30
280
0
VERTEX
8
polyEntity_12
10
477018.0638989753
20
6772589.59641801
30
280
0
VERTEX
8
polyEntity_12
10
477027.4630197175
20
6772582.076717783
30
280
0
VERTEX
8
polyEntity_12
10
477039.7794653368
20
6772576.680102912
30
280
0
VERTEX
8
polyEntity_12
10
477051.6792005785
20
6772574.867427734
30
280
0
VERTEX
8
polyEntity_12
10
477067.8936809232
20
6772574.538748872
30
280
0
VERTEX
8
polyEntity_12
10
477084.108161268
20
6772574.210070009
30
280
0
VERTEX
8
polyEntity_12
10
477100.3226416127
20
6772573.881391147
30
280
0
VERTEX
8
polyEntity_12
10
477112.2860546452
20
6772575.210342135
30
280
0
VERTEX
8
polyEntity_12
10
477124.8110798375
20
6772580.103401383
30
280
0
VERTEX
8
polyEntity_12
10
477134.5072182337
20
6772587.236029957
30
280
0
VERTEX
8
polyEntity_12
10
477149.6580008689
20
6772601.784782238
30
280
0
VERTEX
8
polyEntity_12
10
477154.6818028445
20
6772605.480368768
30
280
0
VERTEX
8
polyEntity_12
10
477159.1777007656
20
6772607.236748741
30
280
0
VERTEX
8
polyEntity_12
10
477165.3762388949
20
6772607.925311301
30
280
0
VERTEX
8
polyEntity_12
10
477200.5319210615
20
6772607.212681024
30
280
0
VERTEX
8
polyEntity_12
10
477235.6876032281
20
6772606.500050749
30
280
0
VERTEX
8
polyEntity_12
10
477270.8432853948
20
6772605.787420472
30
280
0
VERTEX
8
polyEntity_12
10
477277.0088241324
20
6772604.848230323
30
280
0
VERTEX
8
polyEntity_12
10
477281.4298522273
20
6772602.911098606
30
280
0
VERTEX
8
polyEntity_12
10
477286.2997678266
20
6772599.014957517
30
280
0
VERTEX
8
polyEntity_12
10
477296.0432541214
20
6772588.868283761
30
280
0
VERTEX
8
polyEntity_12
10
477299.7388406508
20
6772583.844481785
30
280
0
VERTEX
8
polyEntity_12
10
477301.4952206237
20
6772579.348583865
30
280
0
VERTEX
8
polyEntity_12
10
477302.1837831828
20
6772573.150045737
30
280
0
VERTEX
8
polyEntity_12
10
477301.8871434169
20
6772558.516127293
30
280
0
VERTEX
8
polyEntity_12
10
477301.590503651
20
6772543.88220885
30
280
0
VERTEX
8
polyEntity_12
10
477301.293863885
20
6772529.248290407
30
280
0
VERTEX
8
polyEntity_12
10
477288.7440383286
20
6772517.19714377
30
280
0
VERTEX
8
polyEntity_12
10
477276.1942127723
20
6772505.145997133
30
280
0
VERTEX
8
polyEntity_12
10
477263.6443872159
20
6772493.094850496
30
280
0
VERTEX
8
polyEntity_12
10
477262.6030590059
20
6772492.094900426
30
280
0
VERTEX
8
polyEntity_12
10
477234.7471728008
20
6772504.429132022
30
280
0
VERTEX
8
polyEntity_12
10
477206.8912865957
20
6772516.763363618
30
280
0
VERTEX
8
polyEntity_12
10
477179.0354003906
20
6772529.097595215
30
280
0
VERTEX
8
polyEntity_12
10
477161.1098632812
20
6772532.745422363
30
280
0
VERTEX
8
polyEntity_12
10
477140.4288330078
20
6772532.723632812
30
280
0
VERTEX
8
polyEntity_12
10
477112.6782226562
20
6772527.331115723
30
280
0
VERTEX
8
polyEntity_12
10
477082.3335871869
20
6772517.740546166
30
280
0
VERTEX
8
polyEntity_12
10
477051.9889517176
20
6772508.149976609
30
280
0
VERTEX
8
polyEntity_12
10
477021.6443162482
20
6772498.559407053
30
280
0
VERTEX
8
polyEntity_12
10
477027.9481633198
20
6772474.159762155
30
280
0
SEQEND
8
polyEntity_12
0
POLYLINE
8
polyEntity_13
66
1
70
1
62
3
0
VERTEX
8
polyEntity_13
10
477021.6443162482
20
6772498.559407053
30
280
0
VERTEX
8
polyEntity_13
10
477027.9481633198
20
6772474.159762155
30
280
0
VERTEX
8
polyEntity_13
10
477024.6025979266
20
6772473.887420799
30
280
0
VERTEX
8
polyEntity_13
10
477021.6443162482
20
6772498.559407053
30
280
0
SEQEND
8
polyEntity_13
0
POLYLINE
8
polyEntity_14
66
1
70
1
62
3
0
VERTEX
8
polyEntity_14
10
477118.465166349
20
6772523.573862589
30
290
0
VERTEX
8
polyEntity_14
10
477124.7187802331
20
6772499.368650064
30
290
0
VERTEX
8
polyEntity_14
10
477122.7292919597
20
6772524.289363064
30
290
0
VERTEX
8
polyEntity_14
10
477118.465166349
20
6772523.573862589
30
290
0
SEQEND
8
polyEntity_14
0
POLYLINE
8
polyEntity_15
66
1
70
1
62
3
0
VERTEX
8
polyEntity_15
10
477228.0817871094
20
6772490.632751465
30
299.9999999999999
0
VERTEX
8
polyEntity_15
10
477217.01761344
20
6772468.214364851
30
300
0
VERTEX
8
polyEntity_15
10
477233.5070800781
20
6772487.005218506
30
300
0
VERTEX
8
polyEntity_15
10
477228.0817871094
20
6772490.632751465
30
299.9999999999999
0
SEQEND
8
polyEntity_15
0
POLYLINE
8
polyEntity_16
66
1
70
1
62
5
0
VERTEX
8
polyEntity_16
10
477038.2189301256
20
6772455.020402657
30
300
0
VERTEX
8
polyEntity_16
10
477005.2146497502
20
6772444.757342194
30
300
0
VERTEX
8
polyEntity_16
10
476972.2103693748
20
6772434.494281732
30
300
0
VERTEX
8
polyEntity_16
10
476939.2060889995
20
6772424.231221269
30
300
0
VERTEX
8
polyEntity_16
10
476934.0099569279
20
6772422.916261288
30
300
0
VERTEX
8
polyEntity_16
10
476928.7029151178
20
6772422.165095003
30
300
0
VERTEX
8
polyEntity_16
10
476923.3459541443
20
6772421.986356168
30
300
0
VERTEX
8
polyEntity_16
10
476905.2454962584
20
6772422.353265114
30
300
0
VERTEX
8
polyEntity_16
10
476887.1450383725
20
6772422.720174061
30
300
0
VERTEX
8
polyEntity_16
10
476869.0445804867
20
6772423.087083007
30
300
0
VERTEX
8
polyEntity_16
10
476863.8830751017
20
6772423.873329792
30
300
0
VERTEX
8
polyEntity_16
10
476859.1009395523
20
6772425.968685498
30
300
0
VERTEX
8
polyEntity_16
10
476855.0240706999
20
6772429.230355219
30
300
0
VERTEX
8
polyEntity_16
10
476834.6918530637
20
6772450.403924191
30
300
0
VERTEX
8
polyEntity_16
10
476830.6660909912
20
6772456.540431674
30
300
0
VERTEX
8
polyEntity_16
10
476829.1250004573
20
6772463.715983557
30
300
0
VERTEX
8
polyEntity_16
10
476830.2761046452
20
6772470.964326907
30
300
0
VERTEX
8
polyEntity_16
10
476840.3377853991
20
6772499.226716615
30
300
0
VERTEX
8
polyEntity_16
10
476850.3994661529
20
6772527.489106325
30
300
0
VERTEX
8
polyEntity_16
10
476860.4611469067
20
6772555.751496033
30
300
0
VERTEX
8
polyEntity_16
10
476862.9754018841
20
6772561.392347362
30
300
0
VERTEX
8
polyEntity_16
10
476866.3280232941
20
6772566.578930458
30
300
0
VERTEX
8
polyEntity_16
10
476870.4390905366
20
6772571.187604078
30
300
0
VERTEX
8
polyEntity_16
10
476892.8817838852
20
6772592.73851626
30
300
0
VERTEX
8
polyEntity_16
10
476897.6532673068
20
6772596.659438062
30
300
0
VERTEX
8
polyEntity_16
10
476902.9714535315
20
6772599.799121136
30
300
0
VERTEX
8
polyEntity_16
10
476908.709565357
20
6772602.082718974
30
300
0
VERTEX
8
polyEntity_16
10
476933.422092938
20
6772609.767363568
30
300
0
VERTEX
8
polyEntity_16
10
476958.134620519
20
6772617.452008161
30
300
0
VERTEX
8
polyEntity_16
10
476982.8471481
20
6772625.136652755
30
300
0
VERTEX
8
polyEntity_16
10
476997.4252174617
20
6772626.849495729
30
300
0
VERTEX
8
polyEntity_16
10
477011.6396281673
20
6772623.188273569
30
300
0
VERTEX
8
polyEntity_16
10
477023.5762800479
20
6772614.646000416
30
300
0
VERTEX
8
polyEntity_16
10
477032.4781388452
20
6772605.375780876
30
300
0
VERTEX
8
polyEntity_16
10
477038.5934387572
20
6772600.483278331
30
300
0
VERTEX
8
polyEntity_16
10
477045.7666416687
20
6772597.340243831
30
300
0
VERTEX
8
polyEntity_16
10
477053.5089035247
20
6772596.160872558
30
300
0
VERTEX
8
polyEntity_16
10
477068.7917203112
20
6772595.851079169
30
300
0
VERTEX
8
polyEntity_16
10
477084.0745370977
20
6772595.541285778
30
300
0
VERTEX
8
polyEntity_16
10
477099.3573538841
20
6772595.231492389
30
300
0
VERTEX
8
polyEntity_16
10
477107.141045647
20
6772596.096140699
30
300
0
VERTEX
8
polyEntity_16
10
477114.4357270776
20
6772598.945900113
30
300
0
VERTEX
8
polyEntity_16
10
477120.7442743626
20
6772603.586564548
30
300
0
VERTEX
8
polyEntity_16
10
477135.8950564933
20
6772618.135316345
30
300
0
VERTEX
8
polyEntity_16
10
477144.3064482778
20
6772624.322866396
30
300
0
VERTEX
8
polyEntity_16
10
477154.0326896879
20
6772628.122546888
30
300
0
VERTEX
8
polyEntity_16
10
477164.4109504638
20
6772629.275412558
30
300
0
VERTEX
8
polyEntity_16
10
477200.4982961883
20
6772628.543896809
30
300
0
VERTEX
8
polyEntity_16
10
477236.5856419128
20
6772627.812381061
30
300
0
VERTEX
8
polyEntity_16
10
477272.6729876373
20
6772627.080865312
30
300
0
VERTEX
8
polyEntity_16
10
477282.9959984067
20
6772625.508371742
30
300
0
VERTEX
8
polyEntity_16
10
477292.560269506
20
6772621.317660328
30
300
0
VERTEX
8
polyEntity_16
10
477300.7140072101
20
6772614.794320889
30
300
0
VERTEX
8
polyEntity_16
10
477312.3937882277
20
6772602.631228137
30
300
0
VERTEX
8
polyEntity_16
10
477318.5813382783
20
6772594.219836352
30
300
0
VERTEX
8
polyEntity_16
10
477322.3810187709
20
6772584.493594943
30
300
0
VERTEX
8
polyEntity_16
10
477323.5338844398
20
6772574.115334166
30
300
0
VERTEX
8
polyEntity_16
10
477322.7723977242
20
6772536.549452034
30
300
0
VERTEX
8
polyEntity_16
10
477321.1999041535
20
6772526.226441264
30
300
0
VERTEX
8
polyEntity_16
10
477317.0091927399
20
6772516.662170165
30
300
0
VERTEX
8
polyEntity_16
10
477310.4858533005
20
6772508.508432461
30
300
0
VERTEX
8
polyEntity_16
10
477297.5656229664
20
6772496.101599423
30
300
0
VERTEX
8
polyEntity_16
10
477284.6453926325
20
6772483.694766385
30
300
0
VERTEX
8
polyEntity_16
10
477271.7251622984
20
6772471.287933348
30
300
0
VERTEX
8
polyEntity_16
10
477249.9034747039
20
6772480.960342406
30
300
0
VERTEX
8
polyEntity_16
10
477234.2796185979
20
6772487.885577985
30
299.9999999999999
0
VERTEX
8
polyEntity_16
10
477228.0817871094
20
6772490.632751465
30
299.9999999999999
0
VERTEX
8
polyEntity_16
10
477217.01761344
20
6772468.214364851
30
300
0
VERTEX
8
polyEntity_16
10
477199.3064518811
20
6772475.945134484
30
300
0
VERTEX
8
polyEntity_16
10
477181.5952903223
20
6772483.675904118
30
300
0
VERTEX
8
polyEntity_16
10
477163.8841287634
20
6772491.406673752
30
300
0
VERTEX
8
polyEntity_16
10
477151.8292103736
20
6772495.197846659
30
300
0
VERTEX
8
polyEntity_16
10
477138.3909912109
20
6772496.413238525
30
300
0
VERTEX
8
polyEntity_16
10
477127.2260484102
20
6772494.992243341
30
300
0
VERTEX
8
polyEntity_16
10
477122.1004294565
20
6772488.381512896
30
300
0
VERTEX
8
polyEntity_16
10
477116.8644782098
20
6772482.863720184
30
300
0
VERTEX
8
polyEntity_16
10
477110.2270801108
20
6772478.248852405
30
300
0
VERTEX
8
polyEntity_16
10
477103.231306573
20
6772475.262140783
30
300
0
VERTEX
8
polyEntity_16
10
477081.5605144239
20
6772468.514894741
30
300
0
VERTEX
8
polyEntity_16
10
477059.8897222747
20
6772461.767648699
30
300
0
VERTEX
8
polyEntity_16
10
477038.2189301256
20
6772455.020402657
30
300
0
SEQEND
8
polyEntity_16
0
POLYLINE
8
polyEntity_17
66
1
70
1
62
5
0
VERTEX
8
polyEntity_17
10
477033.2706841867
20
6772470.931813136
30
290
0
VERTEX
8
polyEntity_17
10
476998.5520311241
20
6772460.133181696
30
290
0
VERTEX
8
polyEntity_17
10
476963.8333780616
20
6772449.334550256
30
290
0
VERTEX
8
polyEntity_17
10
476929.1147249991
20
6772438.535918816
30
290
0
VERTEX
8
polyEntity_17
10
476908.7432732727
20
6772438.948862396
30
290
0
VERTEX
8
polyEntity_17
10
476888.3718215463
20
6772439.361805977
30
290
0
VERTEX
8
polyEntity_17
10
476868.0003698199
20
6772439.774749557
30
290
0
VERTEX
8
polyEntity_17
10
476845.282667081
20
6772463.432515495
30
290
0
VERTEX
8
polyEntity_17
10
476856.1821083559
20
6772494.063222498
30
290
0
VERTEX
8
polyEntity_17
10
476867.0815496308
20
6772524.693929501
30
290
0
VERTEX
8
polyEntity_17
10
476877.9809909057
20
6772555.324636503
30
290
0
VERTEX
8
polyEntity_17
10
476908.3614686801
20
6772584.524349862
30
290
0
VERTEX
8
polyEntity_17
10
476934.3485819273
20
6772592.605341523
30
290
0
VERTEX
8
polyEntity_17
10
476960.3356951745
20
6772600.686333185
30
290
0
VERTEX
8
polyEntity_17
10
476986.3228084217
20
6772608.767324846
30
290
0
VERTEX
8
polyEntity_17
10
476996.2807762596
20
6772609.937331301
30
290
0
VERTEX
8
polyEntity_17
10
477004.4715246136
20
6772607.8276308
30
290
0
VERTEX
8
polyEntity_17
10
477012.6251970039
20
6772601.992586145
30
290
0
VERTEX
8
polyEntity_17
10
477021.2156490289
20
6772593.046659453
30
290
0
VERTEX
8
polyEntity_17
10
477029.8967449173
20
6772586.101409943
30
290
0
VERTEX
8
polyEntity_17
10
477041.0885932198
20
6772581.197552381
30
290
0
VERTEX
8
polyEntity_17
10
477052.0792748382
20
6772579.523352463
30
290
0
VERTEX
8
polyEntity_17
10
477068.0900420013
20
6772579.198803009
30
290
0
VERTEX
8
polyEntity_17
10
477084.1008091645
20
6772578.874253556
30
290
0
VERTEX
8
polyEntity_17
10
477100.1115763276
20
6772578.549704103
30
290
0
VERTEX
8
polyEntity_17
10
477111.1610711194
20
6772579.777132846
30
290
0
VERTEX
8
polyEntity_17
10
477122.542453887
20
6772584.22341374
30
290
0
VERTEX
8
polyEntity_17
10
477131.4978775081
20
6772590.81116113
30
290
0
VERTEX
8
polyEntity_17
10
477146.6486600316
20
6772605.359913304
30
290
0
VERTEX
8
polyEntity_17
10
477152.4131764992
20
6772609.600380884
30
290
0
VERTEX
8
polyEntity_17
10
477158.0527167862
20
6772611.803539361
30
290
0
VERTEX
8
polyEntity_17
10
477165.1651734557
20
6772612.59362426
30
290
0
VERTEX
8
polyEntity_17
10
477200.524568804
20
6772611.876864575
30
290
0
VERTEX
8
polyEntity_17
10
477235.8839641524
20
6772611.16010489
30
290
0
VERTEX
8
polyEntity_17
10
477271.2433595007
20
6772610.443345205
30
290
0
VERTEX
8
polyEntity_17
10
477278.3179515656
20
6772609.365679902
30
290
0
VERTEX
8
polyEntity_17
10
477283.8635770419
20
6772606.935791023
30
290
0
VERTEX
8
polyEntity_17
10
477289.4515177738
20
6772602.465199071
30
290
0
VERTEX
8
polyEntity_17
10
477299.6183851871
20
6772591.877624598
30
290
0
VERTEX
8
polyEntity_17
10
477303.8588527666
20
6772586.11310813
30
290
0
VERTEX
8
polyEntity_17
10
477306.0620112438
20
6772580.473567844
30
290
0
VERTEX
8
polyEntity_17
10
477306.8520961423
20
6772573.361111176
30
290
0
VERTEX
8
polyEntity_17
10
477306.5403433351
20
6772557.981631831
30
290
0
VERTEX
8
polyEntity_17
10
477306.228590528
20
6772542.602152485
30
290
0
VERTEX
8
polyEntity_17
10
477305.9168377208
20
6772527.22267314
30
290
0
VERTEX
8
polyEntity_17
10
477291.8027638719
20
6772513.669435063
30
290
0
VERTEX
8
polyEntity_17
10
477277.688690023
20
6772500.116196986
30
290
0
VERTEX
8
polyEntity_17
10
477263.574616174
20
6772486.562958909
30
290
0
VERTEX
8
polyEntity_17
10
477234.9205590129
20
6772499.260947051
30
290
0
VERTEX
8
polyEntity_17
10
477206.2665018517
20
6772511.958935193
30
290
0
VERTEX
8
polyEntity_17
10
477177.6124446905
20
6772524.656923334
30
290
0
VERTEX
8
polyEntity_17
10
477159.6868896484
20
6772528.304748535
30
290
0
VERTEX
8
polyEntity_17
10
477139.0059814453
20
6772528.282958984
30
290
0
VERTEX
8
polyEntity_17
10
477122.7292919597
20
6772524.289363064
30
290
0
VERTEX
8
polyEntity_17
10
477118.465166349
20
6772523.573862589
30
290
0
VERTEX
8
polyEntity_17
10
477124.7187802331
20
6772499.368650064
30
290
0
VERTEX
8
polyEntity_17
10
477117.0981055626
20
6772496.998913653
30
290
0
VERTEX
8
polyEntity_17
10
477109.4774308921
20
6772494.629177243
30
290
0
VERTEX
8
polyEntity_17
10
477101.8567562215
20
6772492.259440832
30
290
0
VERTEX
8
polyEntity_17
10
477078.9947322099
20
6772485.1502316
30
290
0
VERTEX
8
polyEntity_17
10
477056.1327081983
20
6772478.041022368
30
290
0
VERTEX
8
polyEntity_17
10
477033.2706841867
20
6772470.931813136
30
290
0
SEQEND
8
polyEntity_17
0
POLYLINE
8
polyEntity_18
66
1
70
1
62
3
0
VERTEX
8
polyEntity_18
10
477118.465166349
20
6772523.573862589
30
290
0
VERTEX
8
polyEntity_18
10
477086.1915496488
20
6772515.235710744
30
286.6666666666667
0
VERTEX
8
polyEntity_18
10
477053.9179329485
20
6772506.897558898
30
283.3333333333333
0
VERTEX
8
polyEntity_18
10
477029.7503943082
20
6772500.653678369
30
280.8372244254724
0
VERTEX
8
polyEntity_18
10
477021.6443162482
20
6772498.559407053
30
280
0
VERTEX
8
polyEntity_18
10
477027.9481201172
20
6772474.159759521
30
280
0
VERTEX
8
polyEntity_18
10
477060.1715468326
20
6772482.692346373
30
283.3333333333333
0
VERTEX
8
polyEntity_18
10
477092.4451635329
20
6772491.030498219
30
286.6666666666667
0
VERTEX
8
polyEntity_18
10
477100.5135677079
20
6772493.11503618
30
287.5
0
VERTEX
8
polyEntity_18
10
477108.581971883
20
6772495.199574141
30
288.3333333333334
0
VERTEX
8
polyEntity_18
10
477116.6503760581
20
6772497.284112102
30
289.1666666666667
0
VERTEX
8
polyEntity_18
10
477124.7187802331
20
6772499.368650064
30
290
0
VERTEX
8
polyEntity_18
10
477118.465166349
20
6772523.573862589
30
290
0
SEQEND
8
polyEntity_18
0
POLYLINE
8
lineEntity_1
66
1
70
0
62
7
0
VERTEX
8
lineEntity_1
10
477029.800395951
20
6772501.137175692
30
280
0
VERTEX
8
lineEntity_1
10
477029.7503943082
20
6772500.653678369
30
280
0
SEQEND
8
lineEntity_1
0
ENDSEC
0
EOF
