0
SECTION
2
HEADER
0
ENDSEC
0
SECTION
2
TABLES
0
ENDSEC
0
SECTION
2
BLOCKS
0
ENDSEC
0
SECTION
2
ENTITIES
0
POLYLINE
8
polyEntity_1
66
1
70
1
62
2
0
VERTEX
8
polyEntity_1
10
477844.0011254953
20
6771193.609872991
30
238
0
VERTEX
8
polyEntity_1
10
477832.3615686126
20
6771229.185077735
30
238
0
VERTEX
8
polyEntity_1
10
477821.0738383422
20
6771258.908348469
30
238
0
VERTEX
8
polyEntity_1
10
477808.05653706496
20
6771290.920456284
30
238
0
VERTEX
8
polyEntity_1
10
477792.6881085808
20
6771328.040368851
30
238
0
VERTEX
8
polyEntity_1
10
477781.5850791425
20
6771356.359163867
30
238
0
VERTEX
8
polyEntity_1
10
477772.3061542056
20
6771386.929720936
30
238
0
VERTEX
8
polyEntity_1
10
477766.657393735
20
6771410.222005193
30
238
0
VERTEX
8
polyEntity_1
10
477755.9782429932
20
6771461.4836145
30
238
0
VERTEX
8
polyEntity_1
10
477758.2532800471
20
6771517.589059005
30
238
0
VERTEX
8
polyEntity_1
10
477778.5973398402
20
6771610.225945936
30
238
0
VERTEX
8
polyEntity_1
10
477809.000835575
20
6771647.451820169
30
238
0
VERTEX
8
polyEntity_1
10
477862.1128734455
20
6771676.87876007
30
238
0
VERTEX
8
polyEntity_1
10
477966.1837584621
20
6771687.644713691
30
238
0
VERTEX
8
polyEntity_1
10
478023.6021777816
20
6771670.419187896
30
238
0
VERTEX
8
polyEntity_1
10
478071.6901039616
20
6771630.944024614
30
238
0
VERTEX
8
polyEntity_1
10
478105.4234253118
20
6771544.098665393
30
238
0
VERTEX
8
polyEntity_1
10
478109.72980676073
20
6771470.89018076
30
238
0
VERTEX
8
polyEntity_1
10
478121.93122086616
20
6771415.624952165
30
238
0
VERTEX
8
polyEntity_1
10
478138.227
20
6771375.036
30
238
0
VERTEX
8
polyEntity_1
10
478175.261
20
6771376.199
30
238
0
VERTEX
8
polyEntity_1
10
478177.944
20
6771337.642
30
238
0
VERTEX
8
polyEntity_1
10
478168.852
20
6771296.771
30
238
0
VERTEX
8
polyEntity_1
10
478149.264
20
6771259.169
30
238
0
VERTEX
8
polyEntity_1
10
478120.76
20
6771228.049
30
238
0
VERTEX
8
polyEntity_1
10
478085.2481772664
20
6771207.74947364
30
238
0
VERTEX
8
polyEntity_1
10
478071.9803931054
20
6771195.480271994
30
238
0
VERTEX
8
polyEntity_1
10
477995.4639192832
20
6771187.425848753
30
238
0
VERTEX
8
polyEntity_1
10
477988.3352858916
20
6771192.281652979
30
238
0
VERTEX
8
polyEntity_1
10
477844.0011254953
20
6771193.609872991
30
238
0
SEQEND
8
polyEntity_1
0
POLYLINE
8
lineEntity_1
66
1
70
0
62
3
0
VERTEX
8
lineEntity_1
10
478138.227
20
6771375.036
30
238
0
VERTEX
8
lineEntity_1
10
478174.71413
20
6771381.46966
30
238
0
SEQEND
8
lineEntity_1
0
POLYLINE
8
lineEntity_2
66
1
70
0
62
1
0
VERTEX
8
lineEntity_2
10
478174.71413
20
6771381.46966
30
238
0
VERTEX
8
lineEntity_2
10
478161.2307237328
20
6771419.937623951
30
242
0
SEQEND
8
lineEntity_2
0
POLYLINE
8
lineEntity_3
66
1
70
0
62
1
0
VERTEX
8
lineEntity_3
10
478161.2307237328
20
6771419.937623951
30
242
0
VERTEX
8
lineEntity_3
10
478152.979204322
20
6771459.4644488515
30
246
0
SEQEND
8
lineEntity_3
0
POLYLINE
8
polyEntity_2
66
1
70
1
62
3
0
VERTEX
8
polyEntity_2
10
478138.227
20
6771375.036
30
238
0
VERTEX
8
polyEntity_2
10
478124.1289355153
20
6771413.027677489
30
242
0
VERTEX
8
polyEntity_2
10
478115.8835777833
20
6771452.960282431
30
246
0
VERTEX
8
polyEntity_2
10
478111.6410521071
20
6771493.155169032
30
250
0
VERTEX
8
polyEntity_2
10
478148.98370604834
20
6771499.670786459
30
250
0
VERTEX
8
polyEntity_2
10
478152.979204322
20
6771459.4644488515
30
246
0
VERTEX
8
polyEntity_2
10
478161.2307237328
20
6771419.937623951
30
242
0
VERTEX
8
polyEntity_2
10
478174.71413
20
6771381.46966
30
238
0
VERTEX
8
polyEntity_2
10
478175.261
20
6771376.199
30
238
0
VERTEX
8
polyEntity_2
10
478138.227
20
6771375.036
30
238
0
SEQEND
8
polyEntity_2
0
POLYLINE
8
polyEntity_3
66
1
70
1
62
3
0
VERTEX
8
polyEntity_3
10
478111.6410521071
20
6771493.155169032
30
250
0
VERTEX
8
polyEntity_3
10
478148.98370604834
20
6771499.670786459
30
250
0
VERTEX
8
polyEntity_3
10
478153.8858599594
20
6771539.244250752
30
254.03900246467592
0
VERTEX
8
polyEntity_3
10
478151.77391
20
6771559.28491
30
255.4011055179928
0
VERTEX
8
polyEntity_3
10
478128.9042880971
20
6771623.032273431
30
262
0
VERTEX
8
polyEntity_3
10
478094.02150673664
20
6771610.546518967
30
262
0
VERTEX
8
polyEntity_3
10
478116.9583004761
20
6771546.613061866
30
255.4011055179928
0
VERTEX
8
polyEntity_3
10
478117.41131258756
20
6771532.518604068
30
254
0
VERTEX
8
polyEntity_3
10
478111.6410521071
20
6771493.155169032
30
250
0
SEQEND
8
polyEntity_3
0
POLYLINE
8
polyEntity_4
66
1
70
1
62
5
0
VERTEX
8
polyEntity_4
10
478073.33157
20
6771192.49951
30
249.59110991546882
0
VERTEX
8
polyEntity_4
10
478087.0969
20
6771205.2288
30
249.59110991546882
0
VERTEX
8
polyEntity_4
10
478122.72258
20
6771225.59341
30
249.59110991546882
0
VERTEX
8
polyEntity_4
10
478151.82995
20
6771257.37216
30
249.59110991546882
0
VERTEX
8
polyEntity_4
10
478171.79508
20
6771295.69812
30
249.59110991546882
0
VERTEX
8
polyEntity_4
10
478181.07364
20
6771337.40775
30
249.59110991546882
0
VERTEX
8
polyEntity_4
10
478177.6451258272
20
6771382.497003364
30
249.59110991546882
0
VERTEX
8
polyEntity_4
10
478163.2575821434
20
6771420.360745756
30
249.72740661031256
0
VERTEX
8
polyEntity_4
10
478154.0094061929
20
6771459.566824995
30
249.86370330515626
0
VERTEX
8
polyEntity_4
10
478148.98370604834
20
6771499.670786459
30
250
0
VERTEX
8
polyEntity_4
10
478111.6410521071
20
6771493.155169032
30
250
0
VERTEX
8
polyEntity_4
10
478108.60359623365
20
6771544.791883613
30
250
0
VERTEX
8
polyEntity_4
10
478074.29028
20
6771632.8278
30
249.59110991546882
0
VERTEX
8
polyEntity_4
10
478025.09131
20
6771673.21503
30
249.59110991546882
0
VERTEX
8
polyEntity_4
10
477966.48164
20
6771690.79793
30
249.59110991546882
0
VERTEX
8
polyEntity_4
10
477861.16243
20
6771679.90284
30
249.59110991546882
0
VERTEX
8
polyEntity_4
10
477806.97318
20
6771649.87906
30
249.59110991546882
0
VERTEX
8
polyEntity_4
10
477775.72284
20
6771611.61633
30
249.59110991546882
0
VERTEX
8
polyEntity_4
10
477755.16108
20
6771517.98815
30
249.59110991546882
0
VERTEX
8
polyEntity_4
10
477752.85941
20
6771461.22594
30
249.59110991546882
0
VERTEX
8
polyEntity_4
10
477763.62715
20
6771409.53912
30
249.59110991546882
0
VERTEX
8
polyEntity_4
10
477769.3086
20
6771386.11203
30
249.59110991546882
0
VERTEX
8
polyEntity_4
10
477778.64877
20
6771355.3397
30
249.59110991546882
0
VERTEX
8
polyEntity_4
10
477789.80729
20
6771326.87938
30
249.59110991546882
0
VERTEX
8
polyEntity_4
10
477805.18326
20
6771289.74125
30
249.59110991546882
0
VERTEX
8
polyEntity_4
10
477818.18317
20
6771257.77191
30
249.59110991546882
0
VERTEX
8
polyEntity_4
10
477829.43231
20
6771228.15025
30
249.59110991546882
0
VERTEX
8
polyEntity_4
10
477841.7427
20
6771190.52469
30
249.59110991546882
0
VERTEX
8
polyEntity_4
10
477987.36507
20
6771189.18462
30
249.59110991546882
0
VERTEX
8
polyEntity_4
10
477994.65657
20
6771184.21788
30
249.59110991546882
0
VERTEX
8
polyEntity_4
10
478073.33157
20
6771192.49951
30
249.59110991546882
0
SEQEND
8
polyEntity_4
0
POLYLINE
8
polyEntity_5
66
1
70
1
62
1
0
VERTEX
8
polyEntity_5
10
478076.3769
20
6771185.7814
30
249.59110991546882
0
VERTEX
8
polyEntity_5
10
478091.26357
20
6771199.54764
30
249.59110991546882
0
VERTEX
8
polyEntity_5
10
478127.14588
20
6771220.05894
30
249.59110991546882
0
VERTEX
8
polyEntity_5
10
478157.61316
20
6771253.32241
30
249.59110991546882
0
VERTEX
8
polyEntity_5
10
478178.42827
20
6771293.28004
30
249.59110991546882
0
VERTEX
8
polyEntity_5
10
478188.13229
20
6771336.9022
30
249.59110991546882
0
VERTEX
8
polyEntity_5
10
478184.54823
20
6771384.03713
30
249.59110991546882
0
VERTEX
8
polyEntity_5
10
478169.96481
20
6771422.41634
30
249.59110991546882
0
VERTEX
8
polyEntity_5
10
478160.90847
20
6771460.80917
30
249.59110991546882
0
VERTEX
8
polyEntity_5
10
478148.98370604834
20
6771499.670786459
30
250
0
VERTEX
8
polyEntity_5
10
478111.6410521071
20
6771493.155169032
30
250
0
VERTEX
8
polyEntity_5
10
478116.3400690011
20
6771532.484173065
30
250
0
VERTEX
8
polyEntity_5
10
478115.52743896807
20
6771546.30110005
30
250
0
VERTEX
8
polyEntity_5
10
478089.8295387631
20
6771612.4612266105
30
250
0
VERTEX
8
polyEntity_5
10
478080.15064
20
6771637.07352
30
249.59110991546882
0
VERTEX
8
polyEntity_5
10
478028.44756
20
6771679.51637
30
249.59110991546882
0
VERTEX
8
polyEntity_5
10
477967.153
20
6771697.90474
30
249.59110991546882
0
VERTEX
8
polyEntity_5
10
477859.0203
20
6771686.7186
30
249.59110991546882
0
VERTEX
8
polyEntity_5
10
477802.40318
20
6771655.34964
30
249.59110991546882
0
VERTEX
8
polyEntity_5
10
477769.24422
20
6771614.75001
30
249.59110991546882
0
VERTEX
8
polyEntity_5
10
477748.1918
20
6771518.88762
30
249.59110991546882
0
VERTEX
8
polyEntity_5
10
477745.83011
20
6771460.64519
30
249.59110991546882
0
VERTEX
8
polyEntity_5
10
477756.7975
20
6771408
30
249.59110991546882
0
VERTEX
8
polyEntity_5
10
477762.55263
20
6771384.26911
30
249.59110991546882
0
VERTEX
8
polyEntity_5
10
477772.03083
20
6771353.04201
30
249.59110991546882
0
VERTEX
8
polyEntity_5
10
477783.31441
20
6771324.26272
30
249.59110991546882
0
VERTEX
8
polyEntity_5
10
477798.70745
20
6771287.08335
30
249.59110991546882
0
VERTEX
8
polyEntity_5
10
477811.66796
20
6771255.21091
30
249.59110991546882
0
VERTEX
8
polyEntity_5
10
477822.83025
20
6771225.81795
30
249.59110991546882
0
VERTEX
8
polyEntity_5
10
477836.6526
20
6771183.57123
30
249.59110991546882
0
VERTEX
8
polyEntity_5
10
477985.17837
20
6771182.20445
30
249.59110991546882
0
VERTEX
8
polyEntity_5
10
477992.83695
20
6771176.98766
30
249.59110991546882
0
VERTEX
8
polyEntity_5
10
478076.3769
20
6771185.7814
30
249.59110991546882
0
SEQEND
8
polyEntity_5
0
POLYLINE
8
polyEntity_6
66
1
70
1
62
5
0
VERTEX
8
polyEntity_6
10
478077.775746538
20
6771182.695492748
30
261.5911099154688
0
VERTEX
8
polyEntity_6
10
478093.1774976507
20
6771196.938046807
30
261.5911099154688
0
VERTEX
8
polyEntity_6
10
478093.1774976507
20
6771196.938046807
30
261.5911099154688
0
VERTEX
8
polyEntity_6
10
478129.1776871059
20
6771217.516729896
30
261.5911099154688
0
VERTEX
8
polyEntity_6
10
478129.1776871059
20
6771217.516729896
30
261.5911099154688
0
VERTEX
8
polyEntity_6
10
478160.26962768845
20
6771251.462189838
30
261.5911099154688
0
VERTEX
8
polyEntity_6
10
478160.26962768845
20
6771251.462189838
30
261.5911099154688
0
VERTEX
8
polyEntity_6
10
478181.47517142456
20
6771292.169314161
30
261.5911099154688
0
VERTEX
8
polyEntity_6
10
478181.47517142456
20
6771292.169314161
30
261.5911099154688
0
VERTEX
8
polyEntity_6
10
478191.37462007813
20
6771336.669978121
30
261.5911099154688
0
VERTEX
8
polyEntity_6
10
478191.37462007813
20
6771336.669978121
30
261.5911099154688
0
VERTEX
8
polyEntity_6
10
478187.71910938394
20
6771384.744575279
30
261.5911099154688
0
VERTEX
8
polyEntity_6
10
478187.71910938394
20
6771384.744575279
30
261.5911099154688
0
VERTEX
8
polyEntity_6
10
478173.04571281525
20
6771423.36057676
30
261.5911099154688
0
VERTEX
8
polyEntity_6
10
478173.04571281525
20
6771423.36057676
30
261.5911099154688
0
VERTEX
8
polyEntity_6
10
478164.0135734826
20
6771461.6508121025
30
261.5911099154688
0
VERTEX
8
polyEntity_6
10
478164.0135734826
20
6771461.6508121025
30
261.5911099154688
0
VERTEX
8
polyEntity_6
10
478152.24614181335
20
6771499.999698344
30
261.9673653304777
0
VERTEX
8
polyEntity_6
10
478152.7854751426
20
6771505.610599147
30
262
0
VERTEX
8
polyEntity_6
10
478156.03108809626
20
6771539.275194868
30
262
0
VERTEX
8
polyEntity_6
10
478153.5015693478
20
6771559.718918886
30
262
0
VERTEX
8
polyEntity_6
10
478128.9042880971
20
6771623.032273431
30
262
0
VERTEX
8
polyEntity_6
10
478094.02150673664
20
6771610.546518967
30
262
0
VERTEX
8
polyEntity_6
10
478092.8243308853
20
6771613.631696795
30
262
0
VERTEX
8
polyEntity_6
10
478092.8243308853
20
6771613.631696795
30
262
0
VERTEX
8
polyEntity_6
10
478082.8369922271
20
6771639.028316313
30
261.5911099154688
0
VERTEX
8
polyEntity_6
10
478082.8369922271
20
6771639.028316313
30
261.5911099154688
0
VERTEX
8
polyEntity_6
10
478029.98922294093
20
6771682.410837135
30
261.5911099154688
0
VERTEX
8
polyEntity_6
10
478029.98922294093
20
6771682.410837135
30
261.5911099154688
0
VERTEX
8
polyEntity_6
10
477967.4613833177
20
6771701.1691910615
30
261.5911099154688
0
VERTEX
8
polyEntity_6
10
477967.4613833177
20
6771701.1691910615
30
261.5911099154688
0
VERTEX
8
polyEntity_6
10
477858.0363291424
20
6771689.849359267
30
261.5911099154688
0
VERTEX
8
polyEntity_6
10
477858.0363291424
20
6771689.849359267
30
261.5911099154688
0
VERTEX
8
polyEntity_6
10
477800.3039874817
20
6771657.862505887
30
261.5911099154688
0
VERTEX
8
polyEntity_6
10
477800.3039874817
20
6771657.862505887
30
261.5911099154688
0
VERTEX
8
polyEntity_6
10
477766.2683197812
20
6771616.189440282
30
261.5911099154688
0
VERTEX
8
polyEntity_6
10
477766.2683197812
20
6771616.189440282
30
261.5911099154688
0
VERTEX
8
polyEntity_6
10
477744.9905209021
20
6771519.300785463
30
261.5911099154688
0
VERTEX
8
polyEntity_6
10
477744.9905209021
20
6771519.300785463
30
261.5911099154688
0
VERTEX
8
polyEntity_6
10
477742.6012603405
20
6771460.378428587
30
261.5911099154688
0
VERTEX
8
polyEntity_6
10
477742.6012603405
20
6771460.378428587
30
261.5911099154688
0
VERTEX
8
polyEntity_6
10
477753.66035998793
20
6771407.293017913
30
261.5911099154688
0
VERTEX
8
polyEntity_6
10
477753.66035998793
20
6771407.293017913
30
261.5911099154688
0
VERTEX
8
polyEntity_6
10
477759.44933288114
20
6771383.422579028
30
261.5911099154688
0
VERTEX
8
polyEntity_6
10
477759.44933288114
20
6771383.422579028
30
261.5911099154688
0
VERTEX
8
polyEntity_6
10
477768.9909374773
20
6771351.986584758
30
261.5911099154688
0
VERTEX
8
polyEntity_6
10
477768.9909374773
20
6771351.986584758
30
261.5911099154688
0
VERTEX
8
polyEntity_6
10
477780.3319626497
20
6771323.0607782025
30
261.5911099154688
0
VERTEX
8
polyEntity_6
10
477780.3319626497
20
6771323.0607782025
30
261.5911099154688
0
VERTEX
8
polyEntity_6
10
477795.732727704
20
6771285.862749598
30
261.5911099154688
0
VERTEX
8
polyEntity_6
10
477795.732727704
20
6771285.862749598
30
261.5911099154688
0
VERTEX
8
polyEntity_6
10
477808.6753133877
20
6771254.0343890125
30
261.5911099154688
0
VERTEX
8
polyEntity_6
10
477808.6753133877
20
6771254.0343890125
30
261.5911099154688
0
VERTEX
8
polyEntity_6
10
477819.79763798986
20
6771224.746667394
30
261.5911099154688
0
VERTEX
8
polyEntity_6
10
477819.79763798986
20
6771224.746667394
30
261.5911099154688
0
VERTEX
8
polyEntity_6
10
477834.3145055539
20
6771180.377219417
30
261.5911099154688
0
VERTEX
8
polyEntity_6
10
477834.3145055539
20
6771180.377219417
30
261.5911099154688
0
VERTEX
8
polyEntity_6
10
477984.1739280158
20
6771178.998166735
30
261.5911099154688
0
VERTEX
8
polyEntity_6
10
477984.1739280158
20
6771178.998166735
30
261.5911099154688
0
VERTEX
8
polyEntity_6
10
477992.0011217963
20
6771173.666522195
30
261.5911099154688
0
VERTEX
8
polyEntity_6
10
477992.0011217963
20
6771173.666522195
30
261.5911099154688
0
VERTEX
8
polyEntity_6
10
478077.775746538
20
6771182.695492748
30
261.5911099154688
0
VERTEX
8
polyEntity_6
10
478077.775746538
20
6771182.695492748
30
261.5911099154688
0
SEQEND
8
polyEntity_6
0
POLYLINE
8
polyEntity_7
66
1
70
1
62
1
0
VERTEX
8
polyEntity_7
10
478080.82108
20
6771175.97738
30
261.5911099154688
0
VERTEX
8
polyEntity_7
10
478097.34417
20
6771191.25689
30
261.5911099154688
0
VERTEX
8
polyEntity_7
10
478133.60099
20
6771211.98226
30
261.5911099154688
0
VERTEX
8
polyEntity_7
10
478166.05284
20
6771247.41244
30
261.5911099154688
0
VERTEX
8
polyEntity_7
10
478188.10836
20
6771289.75123
30
261.5911099154688
0
VERTEX
8
polyEntity_7
10
478198.43327
20
6771336.16443
30
261.5911099154688
0
VERTEX
8
polyEntity_7
10
478194.62221
20
6771386.28471
30
261.5911099154688
0
VERTEX
8
polyEntity_7
10
478179.75294
20
6771425.41617
30
261.5911099154688
0
VERTEX
8
polyEntity_7
10
478170.77347
20
6771463.48309
30
261.5911099154688
0
VERTEX
8
polyEntity_7
10
478158.5644826832
20
6771501.494450905
30
262
0
VERTEX
8
polyEntity_7
10
478159.6365013503
20
6771538.559912198
30
262
0
VERTEX
8
polyEntity_7
10
478156.9772567204
20
6771560.973545507
30
262
0
VERTEX
8
polyEntity_7
10
478128.9042880971
20
6771623.032273431
30
262
0
VERTEX
8
polyEntity_7
10
478094.02150673664
20
6771610.546518967
30
262
0
VERTEX
8
polyEntity_7
10
478092.41716
20
6771616.59861
30
262
0
VERTEX
8
polyEntity_7
10
478084.42871056736
20
6771655.779468462
30
262
0
VERTEX
8
polyEntity_7
10
478030.87033778545
20
6771716.265352183
30
262
0
VERTEX
8
polyEntity_7
10
477998.41836588096
20
6771729.235309904
30
261.5911099154688
0
VERTEX
8
polyEntity_7
10
477960.9231595218
20
6771740.483871813
30
261.5911099154688
0
VERTEX
8
polyEntity_7
10
477905.05530204653
20
6771736.734351177
30
261.5911099154688
0
VERTEX
8
polyEntity_7
10
477845.7807188586
20
6771722.009568423
30
261.5911099154688
0
VERTEX
8
polyEntity_7
10
477783.5953330587
20
6771683.88400451
30
261.5911099154688
0
VERTEX
8
polyEntity_7
10
477759.7897
20
6771619.32312
30
261.5911099154688
0
VERTEX
8
polyEntity_7
10
477738.02124
20
6771520.20026
30
261.5911099154688
0
VERTEX
8
polyEntity_7
10
477735.57196
20
6771459.79768
30
261.5911099154688
0
VERTEX
8
polyEntity_7
10
477746.83071
20
6771405.7539
30
261.5911099154688
0
VERTEX
8
polyEntity_7
10
477752.69336
20
6771381.57966
30
261.5911099154688
0
VERTEX
8
polyEntity_7
10
477762.373
20
6771349.68889
30
261.5911099154688
0
VERTEX
8
polyEntity_7
10
477773.83908
20
6771320.44412
30
261.5911099154688
0
VERTEX
8
polyEntity_7
10
477789.25692
20
6771283.20485
30
261.5911099154688
0
VERTEX
8
polyEntity_7
10
477802.16025
20
6771251.47302
30
261.5911099154688
0
VERTEX
8
polyEntity_7
10
477813.19552
20
6771222.41456
30
261.5911099154688
0
VERTEX
8
polyEntity_7
10
477829.22441
20
6771173.42376
30
261.5911099154688
0
VERTEX
8
polyEntity_7
10
477981.98721
20
6771172.018
30
261.5911099154688
0
VERTEX
8
polyEntity_7
10
477990.18149
20
6771166.4363
30
261.5911099154688
0
VERTEX
8
polyEntity_7
10
478080.82108
20
6771175.97738
30
261.5911099154688
0
SEQEND
8
polyEntity_7
0
POLYLINE
8
lineEntity_4
66
1
70
0
62
3
0
VERTEX
8
lineEntity_4
10
478128.9042880971
20
6771623.032273431
30
262
0
VERTEX
8
lineEntity_4
10
478092.41716
20
6771616.59861
30
262
0
SEQEND
8
lineEntity_4
0
POLYLINE
8
polyEntity_8
66
1
70
1
62
3
0
VERTEX
8
polyEntity_8
10
478033.62757400825
20
6771718.00001995
30
274
0
VERTEX
8
polyEntity_8
10
478085.4211771455
20
6771656.27481086
30
266
0
VERTEX
8
polyEntity_8
10
478092.41716
20
6771616.59861
30
262
0
VERTEX
8
polyEntity_8
10
478094.02150673664
20
6771610.546518967
30
262
0
VERTEX
8
polyEntity_8
10
478128.9042880971
20
6771623.032273431
30
262
0
VERTEX
8
polyEntity_8
10
478121.9083052426
20
6771662.7084742915
30
266
0
VERTEX
8
polyEntity_8
10
478120.23679
20
6771668.94666
30
266
0
VERTEX
8
polyEntity_8
10
478113.80312
20
6771680.09009
30
266
0
VERTEX
8
polyEntity_8
10
478062.00951686274
20
6771741.81529909
30
274
0
VERTEX
8
polyEntity_8
10
478033.62757400825
20
6771718.00001995
30
274
0
SEQEND
8
polyEntity_8
0
POLYLINE
8
polyEntity_9
66
1
70
1
62
5
0
VERTEX
8
polyEntity_9
10
478082.2199273797
20
6771172.891472887
30
273.5911099154688
0
VERTEX
8
polyEntity_9
10
478099.25809802214
20
6771188.647296932
30
273.5911099154688
0
VERTEX
8
polyEntity_9
10
478099.25809802214
20
6771188.647296932
30
273.5911099154688
0
VERTEX
8
polyEntity_9
10
478135.632796925
20
6771209.440049672
30
273.5911099154688
0
VERTEX
8
polyEntity_9
10
478135.632796925
20
6771209.440049672
30
273.5911099154688
0
VERTEX
8
polyEntity_9
10
478168.70930784947
20
6771245.552220036
30
273.5911099154688
0
VERTEX
8
polyEntity_9
10
478168.70930784947
20
6771245.552220036
30
273.5911099154688
0
VERTEX
8
polyEntity_9
10
478191.1552613773
20
6771288.640504182
30
273.5911099154688
0
VERTEX
8
polyEntity_9
10
478191.1552613773
20
6771288.640504182
30
273.5911099154688
0
VERTEX
8
polyEntity_9
10
478201.67560008634
20
6771335.9322078945
30
273.5911099154688
0
VERTEX
8
polyEntity_9
10
478201.67560008634
20
6771335.9322078945
30
273.5911099154688
0
VERTEX
8
polyEntity_9
10
478197.7930893716
20
6771386.992155555
30
273.5911099154688
0
VERTEX
8
polyEntity_9
10
478197.7930893716
20
6771386.992155555
30
273.5911099154688
0
VERTEX
8
polyEntity_9
10
478182.8338426371
20
6771426.360407339
30
273.5911099154688
0
VERTEX
8
polyEntity_9
10
478182.8338426371
20
6771426.360407339
30
273.5911099154688
0
VERTEX
8
polyEntity_9
10
478173.87374883174
20
6771464.345185292
30
273.5911099154688
0
VERTEX
8
polyEntity_9
10
478173.87374883174
20
6771464.345185292
30
273.5911099154688
0
VERTEX
8
polyEntity_9
10
478161.794471414
20
6771501.952708462
30
274
0
VERTEX
8
polyEntity_9
10
478161.794471414
20
6771501.952708462
30
274
0
VERTEX
8
polyEntity_9
10
478162.85739267536
20
6771538.703623423
30
274
0
VERTEX
8
polyEntity_9
10
478162.85739267536
20
6771538.703623423
30
274
0
VERTEX
8
polyEntity_9
10
478160.1116946823
20
6771561.845935078
30
274
0
VERTEX
8
polyEntity_9
10
478160.1116946823
20
6771561.845935078
30
274
0
VERTEX
8
polyEntity_9
10
478131.98060351115
20
6771624.033149999
30
274
0
VERTEX
8
polyEntity_9
10
478129.42003420513
20
6771636.591945595
30
274
0
VERTEX
8
polyEntity_9
10
478123.99245639273
20
6771663.212525703
30
274
0
VERTEX
8
polyEntity_9
10
478122.2343011648
20
6771669.7740565445
30
274
0
VERTEX
8
polyEntity_9
10
478115.55327355914
20
6771681.345921974
30
274
0
VERTEX
8
polyEntity_9
10
478062.00951686274
20
6771741.81529909
30
274
0
VERTEX
8
polyEntity_9
10
478032.77195715305
20
6771718.968022043
30
274
0
VERTEX
8
polyEntity_9
10
478032.77195715305
20
6771718.968022043
30
274
0
VERTEX
8
polyEntity_9
10
477999.47907498927
20
6771732.274063209
30
273.5911099154688
0
VERTEX
8
polyEntity_9
10
477999.47907498927
20
6771732.274063209
30
273.5911099154688
0
VERTEX
8
polyEntity_9
10
477961.2891011269
20
6771743.731055369
30
273.5911099154688
0
VERTEX
8
polyEntity_9
10
477961.2891011269
20
6771743.731055369
30
273.5911099154688
0
VERTEX
8
polyEntity_9
10
477904.5561716673
20
6771739.92347621
30
273.5911099154688
0
VERTEX
8
polyEntity_9
10
477904.5561716673
20
6771739.92347621
30
273.5911099154688
0
VERTEX
8
polyEntity_9
10
477844.5235128371
20
6771725.010374981
30
273.5911099154688
0
VERTEX
8
polyEntity_9
10
477844.5235128371
20
6771725.010374981
30
273.5911099154688
0
VERTEX
8
polyEntity_9
10
477780.9642148652
20
6771686.042472058
30
273.5911099154688
0
VERTEX
8
polyEntity_9
10
477780.9642148652
20
6771686.042472058
30
273.5911099154688
0
VERTEX
8
polyEntity_9
10
477756.696498346
20
6771620.228417054
30
273.5911099154688
0
VERTEX
8
polyEntity_9
10
477756.696498346
20
6771620.228417054
30
273.5911099154688
0
VERTEX
8
polyEntity_9
10
477734.81996089075
20
6771520.613425481
30
273.5911099154688
0
VERTEX
8
polyEntity_9
10
477734.81996089075
20
6771520.613425481
30
273.5911099154688
0
VERTEX
8
polyEntity_9
10
477732.3431103587
20
6771459.530918618
30
273.5911099154688
0
VERTEX
8
polyEntity_9
10
477732.3431103587
20
6771459.530918618
30
273.5911099154688
0
VERTEX
8
polyEntity_9
10
477743.6935699697
20
6771405.046917986
30
273.5911099154688
0
VERTEX
8
polyEntity_9
10
477743.6935699697
20
6771405.046917986
30
273.5911099154688
0
VERTEX
8
polyEntity_9
10
477749.59006288403
20
6771380.733129022
30
273.5911099154688
0
VERTEX
8
polyEntity_9
10
477749.59006288403
20
6771380.733129022
30
273.5911099154688
0
VERTEX
8
polyEntity_9
10
477759.33310744364
20
6771348.633464865
30
273.5911099154688
0
VERTEX
8
polyEntity_9
10
477759.33310744364
20
6771348.633464865
30
273.5911099154688
0
VERTEX
8
polyEntity_9
10
477770.85663261125
20
6771319.242178296
30
273.5911099154688
0
VERTEX
8
polyEntity_9
10
477770.85663261125
20
6771319.242178296
30
273.5911099154688
0
VERTEX
8
polyEntity_9
10
477786.28219765075
20
6771281.984249727
30
273.5911099154688
0
VERTEX
8
polyEntity_9
10
477786.28219765075
20
6771281.984249727
30
273.5911099154688
0
VERTEX
8
polyEntity_9
10
477799.16760352626
20
6771250.29649868
30
273.5911099154688
0
VERTEX
8
polyEntity_9
10
477799.16760352626
20
6771250.29649868
30
273.5911099154688
0
VERTEX
8
polyEntity_9
10
477810.16290815023
20
6771221.34327691
30
273.5911099154688
0
VERTEX
8
polyEntity_9
10
477810.16290815023
20
6771221.34327691
30
273.5911099154688
0
VERTEX
8
polyEntity_9
10
477826.8863156519
20
6771170.229749258
30
273.5911099154688
0
VERTEX
8
polyEntity_9
10
477826.8863156519
20
6771170.229749258
30
273.5911099154688
0
VERTEX
8
polyEntity_9
10
477980.9827670069
20
6771168.811716678
30
273.5911099154688
0
VERTEX
8
polyEntity_9
10
477980.9827670069
20
6771168.811716678
30
273.5911099154688
0
VERTEX
8
polyEntity_9
10
477989.34566072177
20
6771163.115162027
30
273.5911099154688
0
VERTEX
8
polyEntity_9
10
477989.34566072177
20
6771163.115162027
30
273.5911099154688
0
VERTEX
8
polyEntity_9
10
478082.2199273797
20
6771172.891472887
30
273.5911099154688
0
VERTEX
8
polyEntity_9
10
478082.2199273797
20
6771172.891472887
30
273.5911099154688
0
SEQEND
8
polyEntity_9
0
TEXT
8
textEntity_1
10
478156.4388882115
20
6771369.691162563
30
238
40
0.5
50
0.0
1
238RL
62
152
0
TEXT
8
textEntity_2
10
478126.0295400635
20
6771489.942111399
30
250
40
0.5
50
0.0
1
250RL
62
152
0
TEXT
8
textEntity_3
10
478111.1515355873
20
6771611.405164336
30
262
40
0.5
50
0.0
1
262RL
62
152
0
TEXT
8
textEntity_4
10
478047.620607567
20
6771722.297965414
30
274
40
0.5
50
0.0
1
274RL
62
152
0
ENDSEC
0
EOF
