0
SECTION
2
HEADER
0
ENDSEC
0
SECTION
2
TABLES
0
ENDSEC
0
SECTION
2
BLOCKS
0
ENDSEC
0
SECTION
2
ENTITIES
0
POLYLINE
8
polyEntity_12
66
1
70
1
62
1
0
VERTEX
8
polyEntity_12
10
477027.9481633198
20
6772474.159762155
30
280
0
VERTEX
8
polyEntity_12
10
476994.7829477664
20
6772463.844300356
30
280
0
VERTEX
8
polyEntity_12
10
476961.6177322129
20
6772453.528838556
30
280
0
VERTEX
8
polyEntity_12
10
476928.4525166595
20
6772443.213376757
30
280
0
VERTEX
8
polyEntity_12
10
476908.9770068016
20
6772443.608158969
30
280
0
VERTEX
8
polyEntity_12
10
476889.5014969436
20
6772444.002941181
30
280
0
VERTEX
8
polyEntity_12
10
476870.0259870857
20
6772444.397723394
30
280
0
VERTEX
8
polyEntity_12
10
476850.6418802506
20
6772464.583948545
30
280
0
VERTEX
8
polyEntity_12
10
476861.0963978153
20
6772493.964286151
30
280
0
VERTEX
8
polyEntity_12
10
476871.55091538
20
6772523.344623757
30
280
0
VERTEX
8
polyEntity_12
10
476882.0054329447
20
6772552.724961363
30
280
0
VERTEX
8
polyEntity_12
10
476910.7983227225
20
6772580.398789751
30
280
0
VERTEX
8
polyEntity_12
10
476936.2973665316
20
6772588.328010609
30
280
0
VERTEX
8
polyEntity_12
10
476961.7964103407
20
6772596.257231467
30
280
0
VERTEX
8
polyEntity_12
10
476987.2954541498
20
6772604.186452325
30
280
0
VERTEX
8
polyEntity_12
10
476995.9605102552
20
6772605.204548762
30
280
0
VERTEX
8
polyEntity_12
10
477002.4655675712
20
6772603.529033646
30
280
0
VERTEX
8
polyEntity_12
10
477009.5605925396
20
6772598.451593011
30
280
0
VERTEX
8
polyEntity_12
10
477018.0638989753
20
6772589.59641801
30
280
0
VERTEX
8
polyEntity_12
10
477027.4630197175
20
6772582.076717783
30
280
0
VERTEX
8
polyEntity_12
10
477039.7794653368
20
6772576.680102912
30
280
0
VERTEX
8
polyEntity_12
10
477051.6792005785
20
6772574.867427734
30
280
0
VERTEX
8
polyEntity_12
10
477067.8936809232
20
6772574.538748872
30
280
0
VERTEX
8
polyEntity_12
10
477084.108161268
20
6772574.210070009
30
280
0
VERTEX
8
polyEntity_12
10
477100.3226416127
20
6772573.881391147
30
280
0
VERTEX
8
polyEntity_12
10
477112.2860546452
20
6772575.210342135
30
280
0
VERTEX
8
polyEntity_12
10
477124.8110798375
20
6772580.103401383
30
280
0
VERTEX
8
polyEntity_12
10
477134.5072182337
20
6772587.236029957
30
280
0
VERTEX
8
polyEntity_12
10
477149.6580008689
20
6772601.784782238
30
280
0
VERTEX
8
polyEntity_12
10
477154.6818028445
20
6772605.480368768
30
280
0
VERTEX
8
polyEntity_12
10
477159.1777007656
20
6772607.236748741
30
280
0
VERTEX
8
polyEntity_12
10
477165.3762388949
20
6772607.925311301
30
280
0
VERTEX
8
polyEntity_12
10
477200.5319210615
20
6772607.212681024
30
280
0
VERTEX
8
polyEntity_12
10
477235.6876032281
20
6772606.500050749
30
280
0
VERTEX
8
polyEntity_12
10
477270.8432853948
20
6772605.787420472
30
280
0
VERTEX
8
polyEntity_12
10
477277.0088241324
20
6772604.848230323
30
280
0
VERTEX
8
polyEntity_12
10
477281.4298522273
20
6772602.911098606
30
280
0
VERTEX
8
polyEntity_12
10
477286.2997678266
20
6772599.014957517
30
280
0
VERTEX
8
polyEntity_12
10
477296.0432541214
20
6772588.868283761
30
280
0
VERTEX
8
polyEntity_12
10
477299.7388406508
20
6772583.844481785
30
280
0
VERTEX
8
polyEntity_12
10
477301.4952206237
20
6772579.348583865
30
280
0
VERTEX
8
polyEntity_12
10
477302.1837831828
20
6772573.150045737
30
280
0
VERTEX
8
polyEntity_12
10
477301.8871434169
20
6772558.516127293
30
280
0
VERTEX
8
polyEntity_12
10
477301.590503651
20
6772543.88220885
30
280
0
VERTEX
8
polyEntity_12
10
477301.293863885
20
6772529.248290407
30
280
0
VERTEX
8
polyEntity_12
10
477288.7440383286
20
6772517.19714377
30
280
0
VERTEX
8
polyEntity_12
10
477276.1942127723
20
6772505.145997133
30
280
0
VERTEX
8
polyEntity_12
10
477263.6443872159
20
6772493.094850496
30
280
0
VERTEX
8
polyEntity_12
10
477262.6030590059
20
6772492.094900426
30
280
0
VERTEX
8
polyEntity_12
10
477234.7471728008
20
6772504.429132022
30
280
0
VERTEX
8
polyEntity_12
10
477206.8912865957
20
6772516.763363618
30
280
0
VERTEX
8
polyEntity_12
10
477179.0354003906
20
6772529.097595215
30
280
0
VERTEX
8
polyEntity_12
10
477161.1098632812
20
6772532.745422363
30
280
0
VERTEX
8
polyEntity_12
10
477140.4288330078
20
6772532.723632812
30
280
0
VERTEX
8
polyEntity_12
10
477112.6782226562
20
6772527.331115723
30
280
0
VERTEX
8
polyEntity_12
10
477082.3335871869
20
6772517.740546166
30
280
0
VERTEX
8
polyEntity_12
10
477051.9889517176
20
6772508.149976609
30
280
0
VERTEX
8
polyEntity_12
10
477021.6443162482
20
6772498.559407053
30
280
0
VERTEX
8
polyEntity_12
10
477027.9481633198
20
6772474.159762155
30
280
0
SEQEND
8
polyEntity_12
0
POLYLINE
8
polyEntity_17
66
1
70
1
62
5
0
VERTEX
8
polyEntity_17
10
477033.2706841867
20
6772470.931813136
30
290
0
VERTEX
8
polyEntity_17
10
476998.5520311241
20
6772460.133181696
30
290
0
VERTEX
8
polyEntity_17
10
476963.8333780616
20
6772449.334550256
30
290
0
VERTEX
8
polyEntity_17
10
476929.1147249991
20
6772438.535918816
30
290
0
VERTEX
8
polyEntity_17
10
476908.7432732727
20
6772438.948862396
30
290
0
VERTEX
8
polyEntity_17
10
476888.3718215463
20
6772439.361805977
30
290
0
VERTEX
8
polyEntity_17
10
476868.0003698199
20
6772439.774749557
30
290
0
VERTEX
8
polyEntity_17
10
476845.282667081
20
6772463.432515495
30
290
0
VERTEX
8
polyEntity_17
10
476856.1821083559
20
6772494.063222498
30
290
0
VERTEX
8
polyEntity_17
10
476867.0815496308
20
6772524.693929501
30
290
0
VERTEX
8
polyEntity_17
10
476877.9809909057
20
6772555.324636503
30
290
0
VERTEX
8
polyEntity_17
10
476908.3614686801
20
6772584.524349862
30
290
0
VERTEX
8
polyEntity_17
10
476934.3485819273
20
6772592.605341523
30
290
0
VERTEX
8
polyEntity_17
10
476960.3356951745
20
6772600.686333185
30
290
0
VERTEX
8
polyEntity_17
10
476986.3228084217
20
6772608.767324846
30
290
0
VERTEX
8
polyEntity_17
10
476996.2807762596
20
6772609.937331301
30
290
0
VERTEX
8
polyEntity_17
10
477004.4715246136
20
6772607.8276308
30
290
0
VERTEX
8
polyEntity_17
10
477012.6251970039
20
6772601.992586145
30
290
0
VERTEX
8
polyEntity_17
10
477021.2156490289
20
6772593.046659453
30
290
0
VERTEX
8
polyEntity_17
10
477029.8967449173
20
6772586.101409943
30
290
0
VERTEX
8
polyEntity_17
10
477041.0885932198
20
6772581.197552381
30
290
0
VERTEX
8
polyEntity_17
10
477052.0792748382
20
6772579.523352463
30
290
0
VERTEX
8
polyEntity_17
10
477068.0900420013
20
6772579.198803009
30
290
0
VERTEX
8
polyEntity_17
10
477084.1008091645
20
6772578.874253556
30
290
0
VERTEX
8
polyEntity_17
10
477100.1115763276
20
6772578.549704103
30
290
0
VERTEX
8
polyEntity_17
10
477111.1610711194
20
6772579.777132846
30
290
0
VERTEX
8
polyEntity_17
10
477122.542453887
20
6772584.22341374
30
290
0
VERTEX
8
polyEntity_17
10
477131.4978775081
20
6772590.81116113
30
290
0
VERTEX
8
polyEntity_17
10
477146.6486600316
20
6772605.359913304
30
290
0
VERTEX
8
polyEntity_17
10
477152.4131764992
20
6772609.600380884
30
290
0
VERTEX
8
polyEntity_17
10
477158.0527167862
20
6772611.803539361
30
290
0
VERTEX
8
polyEntity_17
10
477165.1651734557
20
6772612.59362426
30
290
0
VERTEX
8
polyEntity_17
10
477200.524568804
20
6772611.876864575
30
290
0
VERTEX
8
polyEntity_17
10
477235.8839641524
20
6772611.16010489
30
290
0
VERTEX
8
polyEntity_17
10
477271.2433595007
20
6772610.443345205
30
290
0
VERTEX
8
polyEntity_17
10
477278.3179515656
20
6772609.365679902
30
290
0
VERTEX
8
polyEntity_17
10
477283.8635770419
20
6772606.935791023
30
290
0
VERTEX
8
polyEntity_17
10
477289.4515177738
20
6772602.465199071
30
290
0
VERTEX
8
polyEntity_17
10
477299.6183851871
20
6772591.877624598
30
290
0
VERTEX
8
polyEntity_17
10
477303.8588527666
20
6772586.11310813
30
290
0
VERTEX
8
polyEntity_17
10
477306.0620112438
20
6772580.473567844
30
290
0
VERTEX
8
polyEntity_17
10
477306.8520961423
20
6772573.361111176
30
290
0
VERTEX
8
polyEntity_17
10
477306.5403433351
20
6772557.981631831
30
290
0
VERTEX
8
polyEntity_17
10
477306.228590528
20
6772542.602152485
30
290
0
VERTEX
8
polyEntity_17
10
477305.9168377208
20
6772527.22267314
30
290
0
VERTEX
8
polyEntity_17
10
477291.8027638719
20
6772513.669435063
30
290
0
VERTEX
8
polyEntity_17
10
477277.688690023
20
6772500.116196986
30
290
0
VERTEX
8
polyEntity_17
10
477263.574616174
20
6772486.562958909
30
290
0
VERTEX
8
polyEntity_17
10
477234.9205590129
20
6772499.260947051
30
290
0
VERTEX
8
polyEntity_17
10
477206.2665018517
20
6772511.958935193
30
290
0
VERTEX
8
polyEntity_17
10
477177.6124446905
20
6772524.656923334
30
290
0
VERTEX
8
polyEntity_17
10
477159.6868896484
20
6772528.304748535
30
290
0
VERTEX
8
polyEntity_17
10
477139.0059814453
20
6772528.282958984
30
290
0
VERTEX
8
polyEntity_17
10
477122.7292919597
20
6772524.289363064
30
290
0
VERTEX
8
polyEntity_17
10
477118.465166349
20
6772523.573862589
30
290
0
VERTEX
8
polyEntity_17
10
477124.7187802331
20
6772499.368650064
30
290
0
VERTEX
8
polyEntity_17
10
477117.0981055626
20
6772496.998913653
30
290
0
VERTEX
8
polyEntity_17
10
477109.4774308921
20
6772494.629177243
30
290
0
VERTEX
8
polyEntity_17
10
477101.8567562215
20
6772492.259440832
30
290
0
VERTEX
8
polyEntity_17
10
477078.9947322099
20
6772485.1502316
30
290
0
VERTEX
8
polyEntity_17
10
477056.1327081983
20
6772478.041022368
30
290
0
VERTEX
8
polyEntity_17
10
477033.2706841867
20
6772470.931813136
30
290
0
SEQEND
8
polyEntity_17
0
POLYLINE
8
polyEntity_18
66
1
70
1
62
3
0
VERTEX
8
polyEntity_18
10
477118.465166349
20
6772523.573862589
30
290
0
VERTEX
8
polyEntity_18
10
477086.1915496488
20
6772515.235710744
30
286.6666666666667
0
VERTEX
8
polyEntity_18
10
477053.9179329485
20
6772506.897558898
30
283.3333333333333
0
VERTEX
8
polyEntity_18
10
477029.7503943082
20
6772500.653678369
30
280.8372244254724
0
VERTEX
8
polyEntity_18
10
477021.6443162482
20
6772498.559407053
30
280
0
VERTEX
8
polyEntity_18
10
477027.9481201172
20
6772474.159759521
30
280
0
VERTEX
8
polyEntity_18
10
477060.1715468326
20
6772482.692346373
30
283.3333333333333
0
VERTEX
8
polyEntity_18
10
477092.4451635329
20
6772491.030498219
30
286.6666666666667
0
VERTEX
8
polyEntity_18
10
477100.5135677079
20
6772493.11503618
30
287.5
0
VERTEX
8
polyEntity_18
10
477108.581971883
20
6772495.199574141
30
288.3333333333334
0
VERTEX
8
polyEntity_18
10
477116.6503760581
20
6772497.284112102
30
289.1666666666667
0
VERTEX
8
polyEntity_18
10
477124.7187802331
20
6772499.368650064
30
290
0
VERTEX
8
polyEntity_18
10
477118.465166349
20
6772523.573862589
30
290
0
SEQEND
8
polyEntity_18
0
POLYLINE
8
lineEntity_1
66
1
70
0
62
7
0
VERTEX
8
lineEntity_1
10
477029.800395951
20
6772501.137175692
30
280
0
VERTEX
8
lineEntity_1
10
477029.7503943082
20
6772500.653678369
30
280
0
SEQEND
8
lineEntity_1
0
ENDSEC
0
EOF
