  0
SECTION
  2
HEADER
  9
$ACADVER
  1
AC1024
  9
$ACADMAINTVER
 70
     6
  9
$DWGCODEPAGE
  3
ANSI_1252
  9
$INSBASE
 10
0.0
 20
0.0
 30
0.0
  9
$EXTMIN
 10
1.000000000000000E+20
 20
1.000000000000000E+20
 30
1.000000000000000E+20
  9
$EXTMAX
 10
-1.000000000000000E+20
 20
-1.000000000000000E+20
 30
-1.000000000000000E+20
  9
$LIMMIN
 10
0.0
 20
0.0
  9
$LIMMAX
 10
12.0
 20
9.0
  9
$ORTHOMODE
 70
     0
  9
$REGENMODE
 70
     1
  9
$FILLMODE
 70
     1
  9
$QTEXTMODE
 70
     0
  9
$MIRRTEXT
 70
     1
  9
$LTSCALE
 40
1.0
  9
$ATTMODE
 70
     1
  9
$TEXTSIZE
 40
0.2
  9
$TRACEWID
 40
0.05
  9
$TEXTSTYLE
  7
Standard
  9
$CLAYER
  8
0
  9
$CELTYPE
  6
ByLayer
  9
$CECOLOR
 62
   256
  9
$CELTSCALE
 40
1.0
  9
$DISPSILH
 70
     0
  9
$DIMSCALE
 40
1.0
  9
$DIMASZ
 40
0.18
  9
$DIMEXO
 40
0.0625
  9
$DIMDLI
 40
0.38
  9
$DIMRND
 40
0.0
  9
$DIMDLE
 40
0.0
  9
$DIMEXE
 40
0.18
  9
$DIMTP
 40
0.0
  9
$DIMTM
 40
0.0
  9
$DIMTXT
 40
0.18
  9
$DIMCEN
 40
0.09
  9
$DIMTSZ
 40
0.0
  9
$DIMTOL
 70
     0
  9
$DIMLIM
 70
     0
  9
$DIMTIH
 70
     1
  9
$DIMTOH
 70
     1
  9
$DIMSE1
 70
     0
  9
$DIMSE2
 70
     0
  9
$DIMTAD
 70
     0
  9
$DIMZIN
 70
     0
  9
$DIMBLK
  1

  9
$DIMASO
 70
     1
  9
$DIMSHO
 70
     1
  9
$DIMPOST
  1

  9
$DIMAPOST
  1

  9
$DIMALT
 70
     0
  9
$DIMALTD
 70
     2
  9
$DIMALTF
 40
25.4
  9
$DIMLFAC
 40
1.0
  9
$DIMTOFL
 70
     0
  9
$DIMTVP
 40
0.0
  9
$DIMTIX
 70
     0
  9
$DIMSOXD
 70
     0
  9
$DIMSAH
 70
     0
  9
$DIMBLK1
  1

  9
$DIMBLK2
  1

  9
$DIMSTYLE
  2
Standard
  9
$DIMCLRD
 70
     0
  9
$DIMCLRE
 70
     0
  9
$DIMCLRT
 70
     0
  9
$DIMTFAC
 40
1.0
  9
$DIMGAP
 40
0.09
  9
$DIMJUST
 70
     0
  9
$DIMSD1
 70
     0
  9
$DIMSD2
 70
     0
  9
$DIMTOLJ
 70
     1
  9
$DIMTZIN
 70
     0
  9
$DIMALTZ
 70
     0
  9
$DIMALTTZ
 70
     0
  9
$DIMUPT
 70
     0
  9
$DIMDEC
 70
     4
  9
$DIMTDEC
 70
     4
  9
$DIMALTU
 70
     2
  9
$DIMALTTD
 70
     2
  9
$DIMTXSTY
  7
Standard
  9
$DIMAUNIT
 70
     0
  9
$DIMADEC
 70
     0
  9
$DIMALTRND
 40
0.0
  9
$DIMAZIN
 70
     0
  9
$DIMDSEP
 70
    46
  9
$DIMATFIT
 70
     3
  9
$DIMFRAC
 70
     0
  9
$DIMLDRBLK
  1

  9
$DIMLUNIT
 70
     2
  9
$DIMLWD
 70
    -2
  9
$DIMLWE
 70
    -2
  9
$DIMTMOVE
 70
     0
  9
$DIMFXL
 40
1.0
  9
$DIMFXLON
 70
     0
  9
$DIMJOGANG
 40
0.7853981633974483
  9
$DIMTFILL
 70
     0
  9
$DIMTFILLCLR
 70
     0
  9
$DIMARCSYM
 70
     0
  9
$DIMLTYPE
  6

  9
$DIMLTEX1
  6

  9
$DIMLTEX2
  6

  9
$DIMTXTDIRECTION
 70
     0
  9
$LUNITS
 70
     2
  9
$LUPREC
 70
     4
  9
$SKETCHINC
 40
0.1
  9
$FILLETRAD
 40
0.5
  9
$AUNITS
 70
     0
  9
$AUPREC
 70
     0
  9
$MENU
  1
.
  9
$ELEVATION
 40
0.0
  9
$PELEVATION
 40
0.0
  9
$THICKNESS
 40
0.0
  9
$LIMCHECK
 70
     0
  9
$CHAMFERA
 40
0.5
  9
$CHAMFERB
 40
0.5
  9
$CHAMFERC
 40
1.0
  9
$CHAMFERD
 40
0.0
  9
$SKPOLY
 70
     0
  9
$TDCREATE
 40
2461051.750413334
  9
$TDUCREATE
 40
2461051.41708
  9
$TDUPDATE
 40
2461051.750413345
  9
$TDUUPDATE
 40
2461051.417080012
  9
$TDINDWG
 40
0.0000000116
  9
$TDUSRTIMER
 40
0.0000000116
  9
$USRTIMER
 70
     1
  9
$ANGBASE
 50
0.0
  9
$ANGDIR
 70
     0
  9
$PDMODE
 70
     2
  9
$PDSIZE
 40
-1.0
  9
$PLINEWID
 40
0.0
  9
$SPLFRAME
 70
     0
  9
$SPLINETYPE
 70
     6
  9
$SPLINESEGS
 70
     8
  9
$HANDSEED
  5
166
  9
$SURFTAB1
 70
     6
  9
$SURFTAB2
 70
     6
  9
$SURFTYPE
 70
     6
  9
$SURFU
 70
     6
  9
$SURFV
 70
     6
  9
$UCSBASE
  2

  9
$UCSNAME
  2

  9
$UCSORG
 10
0.0
 20
0.0
 30
0.0
  9
$UCSXDIR
 10
1.0
 20
0.0
 30
0.0
  9
$UCSYDIR
 10
0.0
 20
1.0
 30
0.0
  9
$UCSORTHOREF
  2

  9
$UCSORTHOVIEW
 70
     0
  9
$UCSORGTOP
 10
0.0
 20
0.0
 30
0.0
  9
$UCSORGBOTTOM
 10
0.0
 20
0.0
 30
0.0
  9
$UCSORGLEFT
 10
0.0
 20
0.0
 30
0.0
  9
$UCSORGRIGHT
 10
0.0
 20
0.0
 30
0.0
  9
$UCSORGFRONT
 10
0.0
 20
0.0
 30
0.0
  9
$UCSORGBACK
 10
0.0
 20
0.0
 30
0.0
  9
$PUCSBASE
  2

  9
$PUCSNAME
  2

  9
$PUCSORG
 10
0.0
 20
0.0
 30
0.0
  9
$PUCSXDIR
 10
1.0
 20
0.0
 30
0.0
  9
$PUCSYDIR
 10
0.0
 20
1.0
 30
0.0
  9
$PUCSORTHOREF
  2

  9
$PUCSORTHOVIEW
 70
     0
  9
$PUCSORGTOP
 10
0.0
 20
0.0
 30
0.0
  9
$PUCSORGBOTTOM
 10
0.0
 20
0.0
 30
0.0
  9
$PUCSORGLEFT
 10
0.0
 20
0.0
 30
0.0
  9
$PUCSORGRIGHT
 10
0.0
 20
0.0
 30
0.0
  9
$PUCSORGFRONT
 10
0.0
 20
0.0
 30
0.0
  9
$PUCSORGBACK
 10
0.0
 20
0.0
 30
0.0
  9
$USERI1
 70
     0
  9
$USERI2
 70
     0
  9
$USERI3
 70
     0
  9
$USERI4
 70
     0
  9
$USERI5
 70
     0
  9
$USERR1
 40
0.0
  9
$USERR2
 40
0.0
  9
$USERR3
 40
0.0
  9
$USERR4
 40
0.0
  9
$USERR5
 40
0.0
  9
$WORLDVIEW
 70
     1
  9
$SHADEDGE
 70
     3
  9
$SHADEDIF
 70
    70
  9
$TILEMODE
 70
     1
  9
$MAXACTVP
 70
    64
  9
$PINSBASE
 10
0.0
 20
0.0
 30
0.0
  9
$PLIMCHECK
 70
     0
  9
$PEXTMIN
 10
1.000000000000000E+20
 20
1.000000000000000E+20
 30
1.000000000000000E+20
  9
$PEXTMAX
 10
-1.000000000000000E+20
 20
-1.000000000000000E+20
 30
-1.000000000000000E+20
  9
$PLIMMIN
 10
0.0
 20
0.0
  9
$PLIMMAX
 10
12.0
 20
9.0
  9
$UNITMODE
 70
     0
  9
$VISRETAIN
 70
     1
  9
$PLINEGEN
 70
     0
  9
$PSLTSCALE
 70
     1
  9
$TREEDEPTH
 70
  3020
  9
$CMLSTYLE
  2
Standard
  9
$CMLJUST
 70
     0
  9
$CMLSCALE
 40
1.0
  9
$PROXYGRAPHICS
 70
     1
  9
$MEASUREMENT
 70
     0
  9
$CELWEIGHT
370
    -1
  9
$ENDCAPS
280
     0
  9
$JOINSTYLE
280
     0
  9
$LWDISPLAY
290
     0
  9
$INSUNITS
 70
     1
  9
$HYPERLINKBASE
  1

  9
$STYLESHEET
  1

  9
$XEDIT
290
     1
  9
$CEPSNTYPE
380
     0
  9
$PSTYLEMODE
290
     1
  9
$FINGERPRINTGUID
  2
{E6924950-8FD7-4E09-ACE5-16807BA1CEE6}
  9
$VERSIONGUID
  2
{FAEB1C32-E019-11D5-929B-00C0DF256EC4}
  9
$EXTNAMES
290
     1
  9
$PSVPSCALE
 40
0.0
  9
$OLESTARTUP
290
     0
  9
$SORTENTS
280
   127
  9
$INDEXCTL
280
     0
  9
$HIDETEXT
280
     1
  9
$XCLIPFRAME
280
     2
  9
$HALOGAP
280
     0
  9
$OBSCOLOR
 70
   257
  9
$OBSLTYPE
280
     0
  9
$INTERSECTIONDISPLAY
280
     0
  9
$INTERSECTIONCOLOR
 70
   257
  9
$DIMASSOC
280
     2
  9
$PROJECTNAME
  1

  9
$CAMERADISPLAY
290
     0
  9
$LENSLENGTH
 40
50.0
  9
$CAMERAHEIGHT
 40
0.0
  9
$STEPSPERSEC
 40
2.0
  9
$STEPSIZE
 40
6.0
  9
$3DDWFPREC
 40
2.0
  9
$PSOLWIDTH
 40
0.25
  9
$PSOLHEIGHT
 40
4.0
  9
$LOFTANG1
 40
1.570796326794897
  9
$LOFTANG2
 40
1.570796326794897
  9
$LOFTMAG1
 40
0.0
  9
$LOFTMAG2
 40
0.0
  9
$LOFTPARAM
 70
     7
  9
$LOFTNORMALS
280
     1
  9
$LATITUDE
 40
37.795
  9
$LONGITUDE
 40
-122.394
  9
$NORTHDIRECTION
 40
0.0
  9
$TIMEZONE
 70
 -8000
  9
$LIGHTGLYPHDISPLAY
280
     1
  9
$TILEMODELIGHTSYNCH
280
     1
  9
$SOLIDHIST
280
     1
  9
$SHOWHIST
280
     1
  9
$DWFFRAME
280
     2
  9
$DGNFRAME
280
     2
  9
$REALWORLDSCALE
290
     1
  9
$INTERFERECOLOR
 62
   256
  9
$CSHADOW
280
     0
  9
$SHADOWPLANELOCATION
 40
0.0
  0
ENDSEC
  0
SECTION
  2
CLASSES
  0
CLASS
  1
ACDBDICTIONARYWDFLT
  2
AcDbDictionaryWithDefault
  3
ObjectDBX Classes
 90
        0
 91
        4
280
     0
281
     0
  0
CLASS
  1
VISUALSTYLE
  2
AcDbVisualStyle
  3
ObjectDBX Classes
 90
     4095
 91
        4
280
     0
281
     0
  0
CLASS
  1
MATERIAL
  2
AcDbMaterial
  3
ObjectDBX Classes
 90
     1153
 91
        4
280
     0
281
     0
  0
ENDSEC
  0
SECTION
  2
TABLES
  0
TABLE
  2
VPORT
  5
8
330
0
100
AcDbSymbolTable
 70
     1
  0
VPORT
  5
29
330
8
100
AcDbSymbolTableRecord
100
AcDbViewportTableRecord
  2
*Active
 70
     0
 10
0.0
 20
0.0
 11
1.0
 21
1.0
 12
10.42990654205607
 22
4.5
 13
0.0
 23
0.0
 14
0.5
 24
0.5
 15
0.5
 25
0.5
 16
0.0
 26
0.0
 36
1.0
 17
0.0
 27
0.0
 37
0.0
 40
9.0
 41
1.972972972850329
 42
50.0
 43
0.0
 44
0.0
 50
0.0
 51
0.0
 71
     0
 72
   100
 73
     1
 74
     3
 75
     0
 76
     0
 77
     0
 78
     0
281
     0
 65
     1
110
0.0
120
0.0
130
0.0
111
1.0
121
0.0
131
0.0
112
0.0
122
1.0
132
0.0
 79
     0
146
0.0
 60
     3
 61
     5
292
     1
282
     1
141
0.0
142
0.0
 63
   250
  0
ENDTAB
  0
TABLE
  2
LTYPE
  5
5
330
0
100
AcDbSymbolTable
 70
     2
  0
LTYPE
  5
14
330
5
100
AcDbSymbolTableRecord
100
AcDbLinetypeTableRecord
  2
ByBlock
 70
     0
  3

 72
    65
 73
     0
 40
0.0
  0
LTYPE
  5
15
330
5
100
AcDbSymbolTableRecord
100
AcDbLinetypeTableRecord
  2
ByLayer
 70
     0
  3

 72
    65
 73
     0
 40
0.0
  0
LTYPE
  5
16
330
5
100
AcDbSymbolTableRecord
100
AcDbLinetypeTableRecord
  2
Continuous
 70
     0
  3
Solid line
 72
    65
 73
     0
 40
0.0
  0
LTYPE
  5
3F
330
5
100
AcDbSymbolTableRecord
100
AcDbLinetypeTableRecord
  2
CONTINUOUS-0-1-1-0-0
 70
     0
  3
Surpac line style.
 72
    65
 73
     0
 40
0.0
  0
ENDTAB
  0
TABLE
  2
LAYER
  5
2
330
0
100
AcDbSymbolTable
 70
     1
  0
LAYER
  5
10
330
2
100
AcDbSymbolTableRecord
100
AcDbLayerTableRecord
  2
0
 70
     0
 62
     7
  6
Continuous
370
    -3
390
F
347
3E
  0
ENDTAB
  0
TABLE
  2
STYLE
  5
3
330
0
100
AcDbSymbolTable
 70
     1
  0
STYLE
  5
11
330
3
100
AcDbSymbolTableRecord
100
AcDbTextStyleTableRecord
  2
Standard
 70
     0
 40
0.0
 41
1.0
 50
0.0
 71
     0
 42
0.2
  3
txt
  4

  0
ENDTAB
  0
TABLE
  2
VIEW
  5
6
330
0
100
AcDbSymbolTable
 70
     0
  0
ENDTAB
  0
TABLE
  2
UCS
  5
7
330
0
100
AcDbSymbolTable
 70
     0
  0
ENDTAB
  0
TABLE
  2
APPID
  5
9
330
0
100
AcDbSymbolTable
 70
     1
  0
APPID
  5
12
330
9
100
AcDbSymbolTableRecord
100
AcDbRegAppTableRecord
  2
ACAD
 70
     0
  0
ENDTAB
  0
TABLE
  2
DIMSTYLE
  5
A
330
0
100
AcDbSymbolTable
 70
     1
100
AcDbDimStyleTable
  0
DIMSTYLE
105
27
330
A
100
AcDbSymbolTableRecord
100
AcDbDimStyleTableRecord
  2
Standard
 70
     0
178
     0
340
11
  0
ENDTAB
  0
TABLE
  2
BLOCK_RECORD
  5
1
330
0
100
AcDbSymbolTable
 70
     1
  0
BLOCK_RECORD
  5
1F
330
1
100
AcDbSymbolTableRecord
100
AcDbBlockTableRecord
  2
*Model_Space
340
22
 70
     0
280
     1
281
     0
  0
BLOCK_RECORD
  5
1B
330
1
100
AcDbSymbolTableRecord
100
AcDbBlockTableRecord
  2
*Paper_Space
340
1E
 70
     0
280
     1
281
     0
  0
BLOCK_RECORD
  5
23
330
1
100
AcDbSymbolTableRecord
100
AcDbBlockTableRecord
  2
*Paper_Space0
340
26
 70
     0
280
     1
281
     0
  0
ENDTAB
  0
ENDSEC
  0
SECTION
  2
BLOCKS
  0
BLOCK
  5
20
330
1F
100
AcDbEntity
  8
0
100
AcDbBlockBegin
  2
*Model_Space
 70
     0
 10
0.0
 20
0.0
 30
0.0
  3
*Model_Space
  1

  0
ENDBLK
  5
21
330
1F
100
AcDbEntity
  8
0
100
AcDbBlockEnd
  0
BLOCK
  5
1C
330
1B
100
AcDbEntity
 67
     1
  8
0
100
AcDbBlockBegin
  2
*Paper_Space
 70
     0
 10
0.0
 20
0.0
 30
0.0
  3
*Paper_Space
  1

  0
ENDBLK
  5
1D
330
1B
100
AcDbEntity
 67
     1
  8
0
100
AcDbBlockEnd
  0
BLOCK
  5
24
330
23
100
AcDbEntity
  8
0
100
AcDbBlockBegin
  2
*Paper_Space0
 70
     0
 10
0.0
 20
0.0
 30
0.0
  3
*Paper_Space0
  1

  0
ENDBLK
  5
25
330
23
100
AcDbEntity
  8
0
100
AcDbBlockEnd
  0
ENDSEC
  0
SECTION
  2
ENTITIES
  0
3DFACE
  5
40
330
1F
100
AcDbEntity
  8
0
  6
CONTINUOUS-0-1-1-0-0
370
     0
100
AcDbFace
 10
477743.916
 20
6771819.412
 30
322.0
 11
477767.82
 21
6771877.7
 31
322.0
 12
477743.285
 22
6771826.348
 32
334.0
 13
477743.916
 23
6771819.412
 33
322.0
  0
3DFACE
  5
41
330
1F
100
AcDbEntity
  8
0
  6
CONTINUOUS-0-1-1-0-0
370
     0
100
AcDbFace
 10
477767.82
 20
6771877.7
 30
322.0
 11
477764.866
 21
6771878.971
 31
334.0
 12
477743.285
 22
6771826.348
 32
334.0
 13
477767.82
 23
6771877.7
 33
322.0
  0
3DFACE
  5
42
330
1F
100
AcDbEntity
  8
0
  6
CONTINUOUS-0-1-1-0-0
370
     0
100
AcDbFace
 10
477744.698
 20
6771812.573
 30
310.0
 11
477770.752
 21
6771876.38
 31
310.0
 12
477743.916
 22
6771819.412
 32
322.0
 13
477744.698
 23
6771812.573
 33
310.0
  0
3DFACE
  5
43
330
1F
100
AcDbEntity
  8
0
  6
CONTINUOUS-0-1-1-0-0
370
     0
100
AcDbFace
 10
477770.752
 20
6771876.38
 30
310.0
 11
477767.82
 21
6771877.7
 31
322.0
 12
477743.916
 22
6771819.412
 32
322.0
 13
477770.752
 23
6771876.38
 33
310.0
  0
3DFACE
  5
44
330
1F
100
AcDbEntity
  8
0
  6
CONTINUOUS-0-1-1-0-0
370
     0
100
AcDbFace
 10
477767.82
 20
6771877.7
 30
322.0
 11
477770.075
 21
6771890.537
 31
334.0
 12
477764.866
 22
6771878.971
 32
334.0
 13
477767.82
 23
6771877.7
 33
322.0
  0
3DFACE
  5
45
330
1F
100
AcDbEntity
  8
0
  6
CONTINUOUS-0-1-1-0-0
370
     0
100
AcDbFace
 10
477773.007
 20
6771889.218
 30
322.0
 11
477770.075
 21
6771890.537
 31
334.0
 12
477767.82
 22
6771877.7
 32
322.0
 13
477773.007
 23
6771889.218
 33
322.0
  0
3DFACE
  5
46
330
1F
100
AcDbEntity
  8
0
  6
CONTINUOUS-0-1-1-0-0
370
     0
100
AcDbFace
 10
477770.752
 20
6771876.38
 30
310.0
 11
477773.007
 21
6771889.218
 31
322.0
 12
477767.82
 22
6771877.7
 32
322.0
 13
477770.752
 23
6771876.38
 33
310.0
  0
3DFACE
  5
47
330
1F
100
AcDbEntity
  8
0
  6
CONTINUOUS-0-1-1-0-0
370
     0
100
AcDbFace
 10
477773.007
 20
6771889.218
 30
322.0
 11
477777.519
 21
6771899.275
 31
322.0
 12
477770.075
 22
6771890.537
 32
334.0
 13
477773.007
 23
6771889.218
 33
322.0
  0
3DFACE
  5
48
330
1F
100
AcDbEntity
  8
0
  6
CONTINUOUS-0-1-1-0-0
370
     0
100
AcDbFace
 10
477777.519
 20
6771899.275
 30
322.0
 11
477774.586
 21
6771900.592
 31
334.0
 12
477770.075
 22
6771890.537
 32
334.0
 13
477777.519
 23
6771899.275
 33
322.0
  0
3DFACE
  5
49
330
1F
100
AcDbEntity
  8
0
  6
CONTINUOUS-0-1-1-0-0
370
     0
100
AcDbFace
 10
477775.94
 20
6771887.9
 30
310.0
 11
477773.007
 21
6771889.218
 31
322.0
 12
477770.752
 22
6771876.38
 32
310.0
 13
477775.94
 23
6771887.9
 33
310.0
  0
3DFACE
  5
4A
330
1F
100
AcDbEntity
  8
0
  6
CONTINUOUS-0-1-1-0-0
370
     0
100
AcDbFace
 10
477775.94
 20
6771887.9
 30
310.0
 11
477780.453
 21
6771897.959
 31
310.0
 12
477773.007
 22
6771889.218
 32
322.0
 13
477775.94
 23
6771887.9
 33
310.0
  0
3DFACE
  5
4B
330
1F
100
AcDbEntity
  8
0
  6
CONTINUOUS-0-1-1-0-0
370
     0
100
AcDbFace
 10
477780.453
 20
6771897.959
 30
310.0
 11
477777.519
 21
6771899.275
 31
322.0
 12
477773.007
 22
6771889.218
 32
322.0
 13
477780.453
 23
6771897.959
 33
310.0
  0
3DFACE
  5
4C
330
1F
100
AcDbEntity
  8
0
  6
CONTINUOUS-0-1-1-0-0
370
     0
100
AcDbFace
 10
477777.519
 20
6771899.275
 30
322.0
 11
477779.066
 21
6771910.575
 31
334.0
 12
477774.586
 22
6771900.592
 32
334.0
 13
477777.519
 23
6771899.275
 33
322.0
  0
3DFACE
  5
4D
330
1F
100
AcDbEntity
  8
0
  6
CONTINUOUS-0-1-1-0-0
370
     0
100
AcDbFace
 10
477779.066
 20
6771910.575
 30
334.0
 11
477780.472
 21
6771913.938
 31
334.0
 12
477774.586
 22
6771900.592
 32
334.0
 13
477779.066
 23
6771910.575
 33
334.0
  0
3DFACE
  5
4E
330
1F
100
AcDbEntity
  8
0
  6
CONTINUOUS-0-1-1-0-0
370
     0
100
AcDbFace
 10
477780.472
 20
6771913.938
 30
334.0
 11
477787.79
 21
6771932.992
 31
334.0
 12
477774.586
 22
6771900.592
 32
334.0
 13
477780.472
 23
6771913.938
 33
334.0
  0
3DFACE
  5
4F
330
1F
100
AcDbEntity
  8
0
  6
CONTINUOUS-0-1-1-0-0
370
     0
100
AcDbFace
 10
477782.017
 20
6771909.297
 30
322.0
 11
477779.066
 21
6771910.575
 31
334.0
 12
477777.519
 22
6771899.275
 32
322.0
 13
477782.017
 23
6771909.297
 33
322.0
  0
3DFACE
  5
50
330
1F
100
AcDbEntity
  8
0
  6
CONTINUOUS-0-1-1-0-0
370
     0
100
AcDbFace
 10
477780.453
 20
6771897.959
 30
310.0
 11
477782.017
 21
6771909.297
 31
322.0
 12
477777.519
 22
6771899.275
 32
322.0
 13
477780.453
 23
6771897.959
 33
310.0
  0
3DFACE
  5
51
330
1F
100
AcDbEntity
  8
0
  6
CONTINUOUS-0-1-1-0-0
370
     0
100
AcDbFace
 10
477783.444
 20
6771912.711
 30
322.0
 11
477780.472
 21
6771913.938
 31
334.0
 12
477779.066
 22
6771910.575
 32
334.0
 13
477783.444
 23
6771912.711
 33
322.0
  0
3DFACE
  5
52
330
1F
100
AcDbEntity
  8
0
  6
CONTINUOUS-0-1-1-0-0
370
     0
100
AcDbFace
 10
477782.017
 20
6771909.297
 30
322.0
 11
477783.444
 21
6771912.711
 31
322.0
 12
477779.066
 22
6771910.575
 32
334.0
 13
477782.017
 23
6771909.297
 33
322.0
  0
3DFACE
  5
53
330
1F
100
AcDbEntity
  8
0
  6
CONTINUOUS-0-1-1-0-0
370
     0
100
AcDbFace
 10
477784.967
 20
6771908.018
 30
310.0
 11
477782.017
 21
6771909.297
 31
322.0
 12
477780.453
 22
6771897.959
 32
310.0
 13
477784.967
 23
6771908.018
 33
310.0
  0
3DFACE
  5
54
330
1F
100
AcDbEntity
  8
0
  6
CONTINUOUS-0-1-1-0-0
370
     0
100
AcDbFace
 10
477783.444
 20
6771912.711
 30
322.0
 11
477784.218
 21
6771923.117
 31
334.0
 12
477780.472
 22
6771913.938
 32
334.0
 13
477783.444
 23
6771912.711
 33
322.0
  0
3DFACE
  5
55
330
1F
100
AcDbEntity
  8
0
  6
CONTINUOUS-0-1-1-0-0
370
     0
100
AcDbFace
 10
477784.218
 20
6771923.117
 30
334.0
 11
477787.79
 21
6771932.992
 31
334.0
 12
477780.472
 22
6771913.938
 32
334.0
 13
477784.218
 23
6771923.117
 33
334.0
  0
3DFACE
  5
56
330
1F
100
AcDbEntity
  8
0
  6
CONTINUOUS-0-1-1-0-0
370
     0
100
AcDbFace
 10
477786.416
 20
6771911.483
 30
310.0
 11
477783.444
 21
6771912.711
 31
322.0
 12
477782.017
 22
6771909.297
 32
322.0
 13
477786.416
 23
6771911.483
 33
310.0
  0
3DFACE
  5
57
330
1F
100
AcDbEntity
  8
0
  6
CONTINUOUS-0-1-1-0-0
370
     0
100
AcDbFace
 10
477784.967
 20
6771908.018
 30
310.0
 11
477786.416
 21
6771911.483
 31
310.0
 12
477782.017
 22
6771909.297
 32
322.0
 13
477784.967
 23
6771908.018
 33
310.0
  0
3DFACE
  5
58
330
1F
100
AcDbEntity
  8
0
  6
CONTINUOUS-0-1-1-0-0
370
     0
100
AcDbFace
 10
477787.219
 20
6771921.962
 30
322.0
 11
477784.218
 21
6771923.117
 31
334.0
 12
477783.444
 22
6771912.711
 32
322.0
 13
477787.219
 23
6771921.962
 33
322.0
  0
3DFACE
  5
59
330
1F
100
AcDbEntity
  8
0
  6
CONTINUOUS-0-1-1-0-0
370
     0
100
AcDbFace
 10
477786.416
 20
6771911.483
 30
310.0
 11
477787.219
 21
6771921.962
 31
322.0
 12
477783.444
 22
6771912.711
 32
322.0
 13
477786.416
 23
6771911.483
 33
310.0
  0
3DFACE
  5
5A
330
1F
100
AcDbEntity
  8
0
  6
CONTINUOUS-0-1-1-0-0
370
     0
100
AcDbFace
 10
477787.219
 20
6771921.962
 30
322.0
 11
477790.824
 21
6771931.926
 31
322.0
 12
477784.218
 22
6771923.117
 32
334.0
 13
477787.219
 23
6771921.962
 33
322.0
  0
3DFACE
  5
5B
330
1F
100
AcDbEntity
  8
0
  6
CONTINUOUS-0-1-1-0-0
370
     0
100
AcDbFace
 10
477790.824
 20
6771931.926
 30
322.0
 11
477787.79
 21
6771932.992
 31
334.0
 12
477784.218
 22
6771923.117
 32
334.0
 13
477790.824
 23
6771931.926
 33
322.0
  0
3DFACE
  5
5C
330
1F
100
AcDbEntity
  8
0
  6
CONTINUOUS-0-1-1-0-0
370
     0
100
AcDbFace
 10
477790.221
 20
6771920.807
 30
310.0
 11
477787.219
 21
6771921.962
 31
322.0
 12
477786.416
 22
6771911.483
 32
310.0
 13
477790.221
 23
6771920.807
 33
310.0
  0
3DFACE
  5
5D
330
1F
100
AcDbEntity
  8
0
  6
CONTINUOUS-0-1-1-0-0
370
     0
100
AcDbFace
 10
477790.221
 20
6771920.807
 30
310.0
 11
477793.858
 21
6771930.861
 31
310.0
 12
477787.219
 22
6771921.962
 32
322.0
 13
477790.221
 23
6771920.807
 33
310.0
  0
3DFACE
  5
5E
330
1F
100
AcDbEntity
  8
0
  6
CONTINUOUS-0-1-1-0-0
370
     0
100
AcDbFace
 10
477793.858
 20
6771930.861
 30
310.0
 11
477790.824
 21
6771931.926
 31
322.0
 12
477787.219
 22
6771921.962
 32
322.0
 13
477793.858
 23
6771930.861
 33
310.0
  0
3DFACE
  5
5F
330
1F
100
AcDbEntity
  8
0
  6
CONTINUOUS-0-1-1-0-0
370
     0
100
AcDbFace
 10
477790.824
 20
6771931.926
 30
322.0
 11
477795.483
 21
6771945.604
 31
322.0
 12
477787.79
 22
6771932.992
 32
334.0
 13
477790.824
 23
6771931.926
 33
322.0
  0
3DFACE
  5
60
330
1F
100
AcDbEntity
  8
0
  6
CONTINUOUS-0-1-1-0-0
370
     0
100
AcDbFace
 10
477795.483
 20
6771945.604
 30
322.0
 11
477792.44
 21
6771946.641
 31
334.0
 12
477787.79
 22
6771932.992
 32
334.0
 13
477795.483
 23
6771945.604
 33
322.0
  0
3DFACE
  5
61
330
1F
100
AcDbEntity
  8
0
  6
CONTINUOUS-0-1-1-0-0
370
     0
100
AcDbFace
 10
477793.858
 20
6771930.861
 30
310.0
 11
477798.527
 21
6771944.567
 31
310.0
 12
477790.824
 22
6771931.926
 32
322.0
 13
477793.858
 23
6771930.861
 33
310.0
  0
3DFACE
  5
62
330
1F
100
AcDbEntity
  8
0
  6
CONTINUOUS-0-1-1-0-0
370
     0
100
AcDbFace
 10
477798.527
 20
6771944.567
 30
310.0
 11
477795.483
 21
6771945.604
 31
322.0
 12
477790.824
 22
6771931.926
 32
322.0
 13
477798.527
 23
6771944.567
 33
310.0
  0
3DFACE
  5
63
330
1F
100
AcDbEntity
  8
0
  6
CONTINUOUS-0-1-1-0-0
370
     0
100
AcDbFace
 10
477795.483
 20
6771945.604
 30
322.0
 11
477797.109
 21
6771960.347
 31
334.0
 12
477792.44
 22
6771946.641
 32
334.0
 13
477795.483
 23
6771945.604
 33
322.0
  0
3DFACE
  5
64
330
1F
100
AcDbEntity
  8
0
  6
CONTINUOUS-0-1-1-0-0
370
     0
100
AcDbFace
 10
477800.152
 20
6771959.31
 30
322.0
 11
477797.109
 21
6771960.347
 31
334.0
 12
477795.483
 22
6771945.604
 32
322.0
 13
477800.152
 23
6771959.31
 33
322.0
  0
3DFACE
  5
65
330
1F
100
AcDbEntity
  8
0
  6
CONTINUOUS-0-1-1-0-0
370
     0
100
AcDbFace
 10
477798.527
 20
6771944.567
 30
310.0
 11
477803.196
 21
6771958.273
 31
310.0
 12
477795.483
 22
6771945.604
 32
322.0
 13
477798.527
 23
6771944.567
 33
310.0
  0
3DFACE
  5
66
330
1F
100
AcDbEntity
  8
0
  6
CONTINUOUS-0-1-1-0-0
370
     0
100
AcDbFace
 10
477803.196
 20
6771958.273
 30
310.0
 11
477800.152
 21
6771959.31
 31
322.0
 12
477795.483
 22
6771945.604
 32
322.0
 13
477803.196
 23
6771958.273
 33
310.0
  0
3DFACE
  5
67
330
1F
100
AcDbEntity
  8
0
  6
CONTINUOUS-0-1-1-0-0
370
     0
100
AcDbFace
 10
477800.152
 20
6771959.31
 30
322.0
 11
477801.778
 21
6771974.053
 31
334.0
 12
477797.109
 22
6771960.347
 32
334.0
 13
477800.152
 23
6771959.31
 33
322.0
  0
3DFACE
  5
68
330
1F
100
AcDbEntity
  8
0
  6
CONTINUOUS-0-1-1-0-0
370
     0
100
AcDbFace
 10
477804.821
 20
6771973.016
 30
322.0
 11
477801.778
 21
6771974.053
 31
334.0
 12
477800.152
 22
6771959.31
 32
322.0
 13
477804.821
 23
6771973.016
 33
322.0
  0
3DFACE
  5
69
330
1F
100
AcDbEntity
  8
0
  6
CONTINUOUS-0-1-1-0-0
370
     0
100
AcDbFace
 10
477803.196
 20
6771958.273
 30
310.0
 11
477807.865
 21
6771971.979
 31
310.0
 12
477800.152
 22
6771959.31
 32
322.0
 13
477803.196
 23
6771958.273
 33
310.0
  0
3DFACE
  5
6A
330
1F
100
AcDbEntity
  8
0
  6
CONTINUOUS-0-1-1-0-0
370
     0
100
AcDbFace
 10
477807.865
 20
6771971.979
 30
310.0
 11
477804.821
 21
6771973.016
 31
322.0
 12
477800.152
 22
6771959.31
 32
322.0
 13
477807.865
 23
6771971.979
 33
310.0
  0
3DFACE
  5
6B
330
1F
100
AcDbEntity
  8
0
  6
CONTINUOUS-0-1-1-0-0
370
     0
100
AcDbFace
 10
477804.821
 20
6771973.016
 30
322.0
 11
477806.407
 21
6771987.641
 31
334.0
 12
477801.778
 22
6771974.053
 32
334.0
 13
477804.821
 23
6771973.016
 33
322.0
  0
3DFACE
  5
6C
330
1F
100
AcDbEntity
  8
0
  6
CONTINUOUS-0-1-1-0-0
370
     0
100
AcDbFace
 10
477806.407
 20
6771987.641
 30
334.0
 11
477810.684
 21
6772001.99
 31
334.0
 12
477801.778
 22
6771974.053
 32
334.0
 13
477806.407
 23
6771987.641
 33
334.0
  0
3DFACE
  5
6D
330
1F
100
AcDbEntity
  8
0
  6
CONTINUOUS-0-1-1-0-0
370
     0
100
AcDbFace
 10
477809.47
 20
6771986.663
 30
322.0
 11
477806.407
 21
6771987.641
 31
334.0
 12
477804.821
 22
6771973.016
 32
322.0
 13
477809.47
 23
6771986.663
 33
322.0
  0
3DFACE
  5
6E
330
1F
100
AcDbEntity
  8
0
  6
CONTINUOUS-0-1-1-0-0
370
     0
100
AcDbFace
 10
477807.865
 20
6771971.979
 30
310.0
 11
477809.47
 21
6771986.663
 31
322.0
 12
477804.821
 22
6771973.016
 32
322.0
 13
477807.865
 23
6771971.979
 33
310.0
  0
3DFACE
  5
6F
330
1F
100
AcDbEntity
  8
0
  6
CONTINUOUS-0-1-1-0-0
370
     0
100
AcDbFace
 10
477809.47
 20
6771986.663
 30
322.0
 11
477813.766
 21
6772001.072
 31
322.0
 12
477806.407
 22
6771987.641
 32
334.0
 13
477809.47
 23
6771986.663
 33
322.0
  0
3DFACE
  5
70
330
1F
100
AcDbEntity
  8
0
  6
CONTINUOUS-0-1-1-0-0
370
     0
100
AcDbFace
 10
477813.766
 20
6772001.072
 30
322.0
 11
477810.684
 21
6772001.99
 31
334.0
 12
477806.407
 22
6771987.641
 32
334.0
 13
477813.766
 23
6772001.072
 33
322.0
  0
3DFACE
  5
71
330
1F
100
AcDbEntity
  8
0
  6
CONTINUOUS-0-1-1-0-0
370
     0
100
AcDbFace
 10
477812.534
 20
6771985.685
 30
310.0
 11
477809.47
 21
6771986.663
 31
322.0
 12
477807.865
 22
6771971.979
 32
310.0
 13
477812.534
 23
6771985.685
 33
310.0
  0
3DFACE
  5
72
330
1F
100
AcDbEntity
  8
0
  6
CONTINUOUS-0-1-1-0-0
370
     0
100
AcDbFace
 10
477812.534
 20
6771985.685
 30
310.0
 11
477816.847
 21
6772000.153
 31
310.0
 12
477809.47
 22
6771986.663
 32
322.0
 13
477812.534
 23
6771985.685
 33
310.0
  0
3DFACE
  5
73
330
1F
100
AcDbEntity
  8
0
  6
CONTINUOUS-0-1-1-0-0
370
     0
100
AcDbFace
 10
477816.847
 20
6772000.153
 30
310.0
 11
477813.766
 21
6772001.072
 31
322.0
 12
477809.47
 22
6771986.663
 32
322.0
 13
477816.847
 23
6772000.153
 33
310.0
  0
3DFACE
  5
74
330
1F
100
AcDbEntity
  8
0
  6
CONTINUOUS-0-1-1-0-0
370
     0
100
AcDbFace
 10
477813.766
 20
6772001.072
 30
322.0
 11
477814.998
 21
6772016.458
 31
334.0
 12
477810.684
 22
6772001.99
 32
334.0
 13
477813.766
 23
6772001.072
 33
322.0
  0
3DFACE
  5
75
330
1F
100
AcDbEntity
  8
0
  6
CONTINUOUS-0-1-1-0-0
370
     0
100
AcDbFace
 10
477818.08
 20
6772015.54
 30
322.0
 11
477814.998
 21
6772016.458
 31
334.0
 12
477813.766
 22
6772001.072
 32
322.0
 13
477818.08
 23
6772015.54
 33
322.0
  0
3DFACE
  5
76
330
1F
100
AcDbEntity
  8
0
  6
CONTINUOUS-0-1-1-0-0
370
     0
100
AcDbFace
 10
477816.847
 20
6772000.153
 30
310.0
 11
477818.08
 21
6772015.54
 31
322.0
 12
477813.766
 22
6772001.072
 32
322.0
 13
477816.847
 23
6772000.153
 33
310.0
  0
3DFACE
  5
77
330
1F
100
AcDbEntity
  8
0
  6
CONTINUOUS-0-1-1-0-0
370
     0
100
AcDbFace
 10
477818.08
 20
6772015.54
 30
322.0
 11
477822.393
 21
6772030.008
 31
322.0
 12
477814.998
 22
6772016.458
 32
334.0
 13
477818.08
 23
6772015.54
 33
322.0
  0
3DFACE
  5
78
330
1F
100
AcDbEntity
  8
0
  6
CONTINUOUS-0-1-1-0-0
370
     0
100
AcDbFace
 10
477822.393
 20
6772030.008
 30
322.0
 11
477819.311
 21
6772030.926
 31
334.0
 12
477814.998
 22
6772016.458
 32
334.0
 13
477822.393
 23
6772030.008
 33
322.0
  0
3DFACE
  5
79
330
1F
100
AcDbEntity
  8
0
  6
CONTINUOUS-0-1-1-0-0
370
     0
100
AcDbFace
 10
477821.161
 20
6772014.621
 30
310.0
 11
477818.08
 21
6772015.54
 31
322.0
 12
477816.847
 22
6772000.153
 32
310.0
 13
477821.161
 23
6772014.621
 33
310.0
  0
3DFACE
  5
7A
330
1F
100
AcDbEntity
  8
0
  6
CONTINUOUS-0-1-1-0-0
370
     0
100
AcDbFace
 10
477821.161
 20
6772014.621
 30
310.0
 11
477825.474
 21
6772029.089
 31
310.0
 12
477818.08
 22
6772015.54
 32
322.0
 13
477821.161
 23
6772014.621
 33
310.0
  0
3DFACE
  5
7B
330
1F
100
AcDbEntity
  8
0
  6
CONTINUOUS-0-1-1-0-0
370
     0
100
AcDbFace
 10
477825.474
 20
6772029.089
 30
310.0
 11
477822.393
 21
6772030.008
 31
322.0
 12
477818.08
 22
6772015.54
 32
322.0
 13
477825.474
 23
6772029.089
 33
310.0
  0
3DFACE
  5
7C
330
1F
100
AcDbEntity
  8
0
  6
CONTINUOUS-0-1-1-0-0
370
     0
100
AcDbFace
 10
477822.393
 20
6772030.008
 30
322.0
 11
477826.744
 21
6772044.602
 31
322.0
 12
477819.311
 22
6772030.926
 32
334.0
 13
477822.393
 23
6772030.008
 33
322.0
  0
3DFACE
  5
7D
330
1F
100
AcDbEntity
  8
0
  6
CONTINUOUS-0-1-1-0-0
370
     0
100
AcDbFace
 10
477826.744
 20
6772044.602
 30
322.0
 11
477823.7
 21
6772045.647
 31
334.0
 12
477819.311
 22
6772030.926
 32
334.0
 13
477826.744
 23
6772044.602
 33
322.0
  0
3DFACE
  5
7E
330
1F
100
AcDbEntity
  8
0
  6
CONTINUOUS-0-1-1-0-0
370
     0
100
AcDbFace
 10
477825.474
 20
6772029.089
 30
310.0
 11
477829.788
 21
6772043.557
 31
310.0
 12
477822.393
 22
6772030.008
 32
322.0
 13
477825.474
 23
6772029.089
 33
310.0
  0
3DFACE
  5
7F
330
1F
100
AcDbEntity
  8
0
  6
CONTINUOUS-0-1-1-0-0
370
     0
100
AcDbFace
 10
477829.788
 20
6772043.557
 30
310.0
 11
477826.744
 21
6772044.602
 31
322.0
 12
477822.393
 22
6772030.008
 32
322.0
 13
477829.788
 23
6772043.557
 33
310.0
  0
3DFACE
  5
80
330
1F
100
AcDbEntity
  8
0
  6
CONTINUOUS-0-1-1-0-0
370
     0
100
AcDbFace
 10
477826.744
 20
6772044.602
 30
322.0
 11
477830.102
 21
6772053.22
 31
322.0
 12
477823.7
 22
6772045.647
 32
334.0
 13
477826.744
 23
6772044.602
 33
322.0
  0
3DFACE
  5
81
330
1F
100
AcDbEntity
  8
0
  6
CONTINUOUS-0-1-1-0-0
370
     0
100
AcDbFace
 10
477830.102
 20
6772053.22
 30
322.0
 11
477827.174
 21
6772054.561
 31
334.0
 12
477823.7
 22
6772045.647
 32
334.0
 13
477830.102
 23
6772053.22
 33
322.0
  0
3DFACE
  5
82
330
1F
100
AcDbEntity
  8
0
  6
CONTINUOUS-0-1-1-0-0
370
     0
100
AcDbFace
 10
477829.788
 20
6772043.557
 30
310.0
 11
477833.03
 21
6772051.878
 31
310.0
 12
477826.744
 22
6772044.602
 32
322.0
 13
477829.788
 23
6772043.557
 33
310.0
  0
3DFACE
  5
83
330
1F
100
AcDbEntity
  8
0
  6
CONTINUOUS-0-1-1-0-0
370
     0
100
AcDbFace
 10
477833.03
 20
6772051.878
 30
310.0
 11
477830.102
 21
6772053.22
 31
322.0
 12
477826.744
 22
6772044.602
 32
322.0
 13
477833.03
 23
6772051.878
 33
310.0
  0
3DFACE
  5
84
330
1F
100
AcDbEntity
  8
0
  6
CONTINUOUS-0-1-1-0-0
370
     0
100
AcDbFace
 10
477830.102
 20
6772053.22
 30
322.0
 11
477834.131
 21
6772067.674
 31
334.0
 12
477827.174
 22
6772054.561
 32
334.0
 13
477830.102
 23
6772053.22
 33
322.0
  0
3DFACE
  5
85
330
1F
100
AcDbEntity
  8
0
  6
CONTINUOUS-0-1-1-0-0
370
     0
100
AcDbFace
 10
477833.03
 20
6772051.878
 30
310.0
 11
477836.972
 21
6772066.167
 31
322.0
 12
477830.102
 22
6772053.22
 32
322.0
 13
477833.03
 23
6772051.878
 33
310.0
  0
3DFACE
  5
86
330
1F
100
AcDbEntity
  8
0
  6
CONTINUOUS-0-1-1-0-0
370
     0
100
AcDbFace
 10
477836.972
 20
6772066.167
 30
322.0
 11
477834.131
 21
6772067.674
 31
334.0
 12
477830.102
 22
6772053.22
 32
322.0
 13
477836.972
 23
6772066.167
 33
322.0
  0
3DFACE
  5
87
330
1F
100
AcDbEntity
  8
0
  6
CONTINUOUS-0-1-1-0-0
370
     0
100
AcDbFace
 10
477839.812
 20
6772064.66
 30
310.0
 11
477836.972
 21
6772066.167
 31
322.0
 12
477833.03
 22
6772051.878
 32
310.0
 13
477839.812
 23
6772064.66
 33
310.0
  0
3DFACE
  5
88
330
1F
100
AcDbEntity
  8
0
  6
CONTINUOUS-0-1-1-0-0
370
     0
100
AcDbFace
 10
477836.972
 20
6772066.167
 30
322.0
 11
477843.753
 21
6772078.95
 31
322.0
 12
477834.131
 22
6772067.674
 32
334.0
 13
477836.972
 23
6772066.167
 33
322.0
  0
3DFACE
  5
89
330
1F
100
AcDbEntity
  8
0
  6
CONTINUOUS-0-1-1-0-0
370
     0
100
AcDbFace
 10
477843.753
 20
6772078.95
 30
322.0
 11
477840.912
 21
6772080.457
 31
334.0
 12
477834.131
 22
6772067.674
 32
334.0
 13
477843.753
 23
6772078.95
 33
322.0
  0
3DFACE
  5
8A
330
1F
100
AcDbEntity
  8
0
  6
CONTINUOUS-0-1-1-0-0
370
     0
100
AcDbFace
 10
477839.812
 20
6772064.66
 30
310.0
 11
477846.593
 21
6772077.443
 31
310.0
 12
477836.972
 22
6772066.167
 32
322.0
 13
477839.812
 23
6772064.66
 33
310.0
  0
3DFACE
  5
8B
330
1F
100
AcDbEntity
  8
0
  6
CONTINUOUS-0-1-1-0-0
370
     0
100
AcDbFace
 10
477846.593
 20
6772077.443
 30
310.0
 11
477843.753
 21
6772078.95
 31
322.0
 12
477836.972
 22
6772066.167
 32
322.0
 13
477846.593
 23
6772077.443
 33
310.0
  0
3DFACE
  5
8C
330
1F
100
AcDbEntity
  8
0
  6
CONTINUOUS-0-1-1-0-0
370
     0
100
AcDbFace
 10
477843.753
 20
6772078.95
 30
322.0
 11
477847.694
 21
6772093.239
 31
334.0
 12
477840.912
 22
6772080.457
 32
334.0
 13
477843.753
 23
6772078.95
 33
322.0
  0
3DFACE
  5
8D
330
1F
100
AcDbEntity
  8
0
  6
CONTINUOUS-0-1-1-0-0
370
     0
100
AcDbFace
 10
477846.593
 20
6772077.443
 30
310.0
 11
477850.535
 21
6772091.732
 31
322.0
 12
477843.753
 22
6772078.95
 32
322.0
 13
477846.593
 23
6772077.443
 33
310.0
  0
3DFACE
  5
8E
330
1F
100
AcDbEntity
  8
0
  6
CONTINUOUS-0-1-1-0-0
370
     0
100
AcDbFace
 10
477850.535
 20
6772091.732
 30
322.0
 11
477847.694
 21
6772093.239
 31
334.0
 12
477843.753
 22
6772078.95
 32
322.0
 13
477850.535
 23
6772091.732
 33
322.0
  0
3DFACE
  5
8F
330
1F
100
AcDbEntity
  8
0
  6
CONTINUOUS-0-1-1-0-0
370
     0
100
AcDbFace
 10
477853.375
 20
6772090.225
 30
310.0
 11
477850.535
 21
6772091.732
 31
322.0
 12
477846.593
 22
6772077.443
 32
310.0
 13
477853.375
 23
6772090.225
 33
310.0
  0
3DFACE
  5
90
330
1F
100
AcDbEntity
  8
0
  6
CONTINUOUS-0-1-1-0-0
370
     0
100
AcDbFace
 10
477850.535
 20
6772091.732
 30
322.0
 11
477857.316
 21
6772104.514
 31
322.0
 12
477847.694
 22
6772093.239
 32
334.0
 13
477850.535
 23
6772091.732
 33
322.0
  0
3DFACE
  5
91
330
1F
100
AcDbEntity
  8
0
  6
CONTINUOUS-0-1-1-0-0
370
     0
100
AcDbFace
 10
477857.316
 20
6772104.514
 30
322.0
 11
477854.475
 21
6772106.021
 31
334.0
 12
477847.694
 22
6772093.239
 32
334.0
 13
477857.316
 23
6772104.514
 33
322.0
  0
3DFACE
  5
92
330
1F
100
AcDbEntity
  8
0
  6
CONTINUOUS-0-1-1-0-0
370
     0
100
AcDbFace
 10
477853.375
 20
6772090.225
 30
310.0
 11
477860.156
 21
6772103.007
 31
310.0
 12
477850.535
 22
6772091.732
 32
322.0
 13
477853.375
 23
6772090.225
 33
310.0
  0
3DFACE
  5
93
330
1F
100
AcDbEntity
  8
0
  6
CONTINUOUS-0-1-1-0-0
370
     0
100
AcDbFace
 10
477860.156
 20
6772103.007
 30
310.0
 11
477857.316
 21
6772104.514
 31
322.0
 12
477850.535
 22
6772091.732
 32
322.0
 13
477860.156
 23
6772103.007
 33
310.0
  0
3DFACE
  5
94
330
1F
100
AcDbEntity
  8
0
  6
CONTINUOUS-0-1-1-0-0
370
     0
100
AcDbFace
 10
477857.316
 20
6772104.514
 30
322.0
 11
477861.233
 21
6772118.758
 31
334.0
 12
477854.475
 22
6772106.021
 32
334.0
 13
477857.316
 23
6772104.514
 33
322.0
  0
3DFACE
  5
95
330
1F
100
AcDbEntity
  8
0
  6
CONTINUOUS-0-1-1-0-0
370
     0
100
AcDbFace
 10
477860.156
 20
6772103.007
 30
310.0
 11
477864.086
 21
6772117.274
 31
322.0
 12
477857.316
 22
6772104.514
 32
322.0
 13
477860.156
 23
6772103.007
 33
310.0
  0
3DFACE
  5
96
330
1F
100
AcDbEntity
  8
0
  6
CONTINUOUS-0-1-1-0-0
370
     0
100
AcDbFace
 10
477864.086
 20
6772117.274
 30
322.0
 11
477861.233
 21
6772118.758
 31
334.0
 12
477857.316
 22
6772104.514
 32
322.0
 13
477864.086
 23
6772117.274
 33
322.0
  0
3DFACE
  5
97
330
1F
100
AcDbEntity
  8
0
  6
CONTINUOUS-0-1-1-0-0
370
     0
100
AcDbFace
 10
477866.938
 20
6772115.789
 30
310.0
 11
477864.086
 21
6772117.274
 31
322.0
 12
477860.156
 22
6772103.007
 32
310.0
 13
477866.938
 23
6772115.789
 33
310.0
  0
3DFACE
  5
98
330
1F
100
AcDbEntity
  8
0
  6
CONTINUOUS-0-1-1-0-0
370
     0
100
AcDbFace
 10
477864.086
 20
6772117.274
 30
322.0
 11
477868.844
 21
6772126.596
 31
322.0
 12
477861.233
 22
6772118.758
 32
334.0
 13
477864.086
 23
6772117.274
 33
322.0
  0
3DFACE
  5
99
330
1F
100
AcDbEntity
  8
0
  6
CONTINUOUS-0-1-1-0-0
370
     0
100
AcDbFace
 10
477868.844
 20
6772126.596
 30
322.0
 11
477865.98
 21
6772128.058
 31
334.0
 12
477861.233
 22
6772118.758
 32
334.0
 13
477868.844
 23
6772126.596
 33
322.0
  0
3DFACE
  5
9A
330
1F
100
AcDbEntity
  8
0
  6
CONTINUOUS-0-1-1-0-0
370
     0
100
AcDbFace
 10
477866.938
 20
6772115.789
 30
310.0
 11
477871.708
 21
6772125.134
 31
310.0
 12
477864.086
 22
6772117.274
 32
322.0
 13
477866.938
 23
6772115.789
 33
310.0
  0
3DFACE
  5
9B
330
1F
100
AcDbEntity
  8
0
  6
CONTINUOUS-0-1-1-0-0
370
     0
100
AcDbFace
 10
477871.708
 20
6772125.134
 30
310.0
 11
477868.844
 21
6772126.596
 31
322.0
 12
477864.086
 22
6772117.274
 32
322.0
 13
477871.708
 23
6772125.134
 33
310.0
  0
3DFACE
  5
9C
330
1F
100
AcDbEntity
  8
0
  6
CONTINUOUS-0-1-1-0-0
370
     0
100
AcDbFace
 10
477868.844
 20
6772126.596
 30
322.0
 11
477873.717
 21
6772136.141
 31
322.0
 12
477865.98
 22
6772128.058
 32
334.0
 13
477868.844
 23
6772126.596
 33
322.0
  0
3DFACE
  5
9D
330
1F
100
AcDbEntity
  8
0
  6
CONTINUOUS-0-1-1-0-0
370
     0
100
AcDbFace
 10
477873.717
 20
6772136.141
 30
322.0
 11
477870.955
 21
6772137.804
 31
334.0
 12
477865.98
 22
6772128.058
 32
334.0
 13
477873.717
 23
6772136.141
 33
322.0
  0
3DFACE
  5
9E
330
1F
100
AcDbEntity
  8
0
  6
CONTINUOUS-0-1-1-0-0
370
     0
100
AcDbFace
 10
477871.708
 20
6772125.134
 30
310.0
 11
477876.478
 21
6772134.479
 31
310.0
 12
477868.844
 22
6772126.596
 32
322.0
 13
477871.708
 23
6772125.134
 33
310.0
  0
3DFACE
  5
9F
330
1F
100
AcDbEntity
  8
0
  6
CONTINUOUS-0-1-1-0-0
370
     0
100
AcDbFace
 10
477876.478
 20
6772134.479
 30
310.0
 11
477873.717
 21
6772136.141
 31
322.0
 12
477868.844
 22
6772126.596
 32
322.0
 13
477876.478
 23
6772134.479
 33
310.0
  0
3DFACE
  5
A0
330
1F
100
AcDbEntity
  8
0
  6
CONTINUOUS-0-1-1-0-0
370
     0
100
AcDbFace
 10
477873.717
 20
6772136.141
 30
322.0
 11
477878.671
 21
6772148.801
 31
334.0
 12
477870.955
 22
6772137.804
 32
334.0
 13
477873.717
 23
6772136.141
 33
322.0
  0
3DFACE
  5
A1
330
1F
100
AcDbEntity
  8
0
  6
CONTINUOUS-0-1-1-0-0
370
     0
100
AcDbFace
 10
477876.478
 20
6772134.479
 30
310.0
 11
477881.303
 21
6772146.954
 31
322.0
 12
477873.717
 22
6772136.141
 32
322.0
 13
477876.478
 23
6772134.479
 33
310.0
  0
3DFACE
  5
A2
330
1F
100
AcDbEntity
  8
0
  6
CONTINUOUS-0-1-1-0-0
370
     0
100
AcDbFace
 10
477881.303
 20
6772146.954
 30
322.0
 11
477878.671
 21
6772148.801
 31
334.0
 12
477873.717
 22
6772136.141
 32
322.0
 13
477881.303
 23
6772146.954
 33
322.0
  0
3DFACE
  5
A3
330
1F
100
AcDbEntity
  8
0
  6
CONTINUOUS-0-1-1-0-0
370
     0
100
AcDbFace
 10
477883.935
 20
6772145.107
 30
310.0
 11
477881.303
 21
6772146.954
 31
322.0
 12
477876.478
 22
6772134.479
 32
310.0
 13
477883.935
 23
6772145.107
 33
310.0
  0
3DFACE
  5
A4
330
1F
100
AcDbEntity
  8
0
  6
CONTINUOUS-0-1-1-0-0
370
     0
100
AcDbFace
 10
477881.303
 20
6772146.954
 30
322.0
 11
477886.129
 21
6772159.429
 31
334.0
 12
477878.671
 22
6772148.801
 32
334.0
 13
477881.303
 23
6772146.954
 33
322.0
  0
3DFACE
  5
A5
330
1F
100
AcDbEntity
  8
0
  6
CONTINUOUS-0-1-1-0-0
370
     0
100
AcDbFace
 10
477883.935
 20
6772145.107
 30
310.0
 11
477888.761
 21
6772157.582
 31
322.0
 12
477881.303
 22
6772146.954
 32
322.0
 13
477883.935
 23
6772145.107
 33
310.0
  0
3DFACE
  5
A6
330
1F
100
AcDbEntity
  8
0
  6
CONTINUOUS-0-1-1-0-0
370
     0
100
AcDbFace
 10
477888.761
 20
6772157.582
 30
322.0
 11
477886.129
 21
6772159.429
 31
334.0
 12
477881.303
 22
6772146.954
 32
322.0
 13
477888.761
 23
6772157.582
 33
322.0
  0
3DFACE
  5
A7
330
1F
100
AcDbEntity
  8
0
  6
CONTINUOUS-0-1-1-0-0
370
     0
100
AcDbFace
 10
477891.393
 20
6772155.735
 30
310.0
 11
477888.761
 21
6772157.582
 31
322.0
 12
477883.935
 22
6772145.107
 32
310.0
 13
477891.393
 23
6772155.735
 33
310.0
  0
3DFACE
  5
A8
330
1F
100
AcDbEntity
  8
0
  6
CONTINUOUS-0-1-1-0-0
370
     0
100
AcDbFace
 10
477888.761
 20
6772157.582
 30
322.0
 11
477893.587
 21
6772170.057
 31
334.0
 12
477886.129
 22
6772159.429
 32
334.0
 13
477888.761
 23
6772157.582
 33
322.0
  0
3DFACE
  5
A9
330
1F
100
AcDbEntity
  8
0
  6
CONTINUOUS-0-1-1-0-0
370
     0
100
AcDbFace
 10
477891.393
 20
6772155.735
 30
310.0
 11
477896.219
 21
6772168.21
 31
322.0
 12
477888.761
 22
6772157.582
 32
322.0
 13
477891.393
 23
6772155.735
 33
310.0
  0
3DFACE
  5
AA
330
1F
100
AcDbEntity
  8
0
  6
CONTINUOUS-0-1-1-0-0
370
     0
100
AcDbFace
 10
477896.219
 20
6772168.21
 30
322.0
 11
477893.587
 21
6772170.057
 31
334.0
 12
477888.761
 22
6772157.582
 32
322.0
 13
477896.219
 23
6772168.21
 33
322.0
  0
3DFACE
  5
AB
330
1F
100
AcDbEntity
  8
0
  6
CONTINUOUS-0-1-1-0-0
370
     0
100
AcDbFace
 10
477898.851
 20
6772166.363
 30
310.0
 11
477896.219
 21
6772168.21
 31
322.0
 12
477891.393
 22
6772155.735
 32
310.0
 13
477898.851
 23
6772166.363
 33
310.0
  0
3DFACE
  5
AC
330
1F
100
AcDbEntity
  8
0
  6
CONTINUOUS-0-1-1-0-0
370
     0
100
AcDbFace
 10
477896.219
 20
6772168.21
 30
322.0
 11
477903.676
 21
6772178.837
 31
322.0
 12
477893.587
 22
6772170.057
 32
334.0
 13
477896.219
 23
6772168.21
 33
322.0
  0
3DFACE
  5
AD
330
1F
100
AcDbEntity
  8
0
  6
CONTINUOUS-0-1-1-0-0
370
     0
100
AcDbFace
 10
477903.676
 20
6772178.837
 30
322.0
 11
477901.044
 21
6772180.684
 31
334.0
 12
477893.587
 22
6772170.057
 32
334.0
 13
477903.676
 23
6772178.837
 33
322.0
  0
3DFACE
  5
AE
330
1F
100
AcDbEntity
  8
0
  6
CONTINUOUS-0-1-1-0-0
370
     0
100
AcDbFace
 10
477898.851
 20
6772166.363
 30
310.0
 11
477906.308
 21
6772176.99
 31
310.0
 12
477896.219
 22
6772168.21
 32
322.0
 13
477898.851
 23
6772166.363
 33
310.0
  0
3DFACE
  5
AF
330
1F
100
AcDbEntity
  8
0
  6
CONTINUOUS-0-1-1-0-0
370
     0
100
AcDbFace
 10
477906.308
 20
6772176.99
 30
310.0
 11
477903.676
 21
6772178.837
 31
322.0
 12
477896.219
 22
6772168.21
 32
322.0
 13
477906.308
 23
6772176.99
 33
310.0
  0
3DFACE
  5
B0
330
1F
100
AcDbEntity
  8
0
  6
CONTINUOUS-0-1-1-0-0
370
     0
100
AcDbFace
 10
477903.676
 20
6772178.837
 30
322.0
 11
477908.502
 21
6772191.312
 31
334.0
 12
477901.044
 22
6772180.684
 32
334.0
 13
477903.676
 23
6772178.837
 33
322.0
  0
3DFACE
  5
B1
330
1F
100
AcDbEntity
  8
0
  6
CONTINUOUS-0-1-1-0-0
370
     0
100
AcDbFace
 10
477906.308
 20
6772176.99
 30
310.0
 11
477911.134
 21
6772189.465
 31
322.0
 12
477903.676
 22
6772178.837
 32
322.0
 13
477906.308
 23
6772176.99
 33
310.0
  0
3DFACE
  5
B2
330
1F
100
AcDbEntity
  8
0
  6
CONTINUOUS-0-1-1-0-0
370
     0
100
AcDbFace
 10
477911.134
 20
6772189.465
 30
322.0
 11
477908.502
 21
6772191.312
 31
334.0
 12
477903.676
 22
6772178.837
 32
322.0
 13
477911.134
 23
6772189.465
 33
322.0
  0
3DFACE
  5
B3
330
1F
100
AcDbEntity
  8
0
  6
CONTINUOUS-0-1-1-0-0
370
     0
100
AcDbFace
 10
477913.766
 20
6772187.618
 30
310.0
 11
477911.134
 21
6772189.465
 31
322.0
 12
477906.308
 22
6772176.99
 32
310.0
 13
477913.766
 23
6772187.618
 33
310.0
  0
3DFACE
  5
B4
330
1F
100
AcDbEntity
  8
0
  6
CONTINUOUS-0-1-1-0-0
370
     0
100
AcDbFace
 10
477911.134
 20
6772189.465
 30
322.0
 11
477918.745
 21
6772200.313
 31
322.0
 12
477908.502
 22
6772191.312
 32
334.0
 13
477911.134
 23
6772189.465
 33
322.0
  0
3DFACE
  5
B5
330
1F
100
AcDbEntity
  8
0
  6
CONTINUOUS-0-1-1-0-0
370
     0
100
AcDbFace
 10
477918.745
 20
6772200.313
 30
322.0
 11
477916.267
 21
6772202.379
 31
334.0
 12
477908.502
 22
6772191.312
 32
334.0
 13
477918.745
 23
6772200.313
 33
322.0
  0
3DFACE
  5
B6
330
1F
100
AcDbEntity
  8
0
  6
CONTINUOUS-0-1-1-0-0
370
     0
100
AcDbFace
 10
477913.766
 20
6772187.618
 30
310.0
 11
477921.223
 21
6772198.246
 31
310.0
 12
477911.134
 22
6772189.465
 32
322.0
 13
477913.766
 23
6772187.618
 33
310.0
  0
3DFACE
  5
B7
330
1F
100
AcDbEntity
  8
0
  6
CONTINUOUS-0-1-1-0-0
370
     0
100
AcDbFace
 10
477921.223
 20
6772198.246
 30
310.0
 11
477918.745
 21
6772200.313
 31
322.0
 12
477911.134
 22
6772189.465
 32
322.0
 13
477921.223
 23
6772198.246
 33
310.0
  0
3DFACE
  5
B8
330
1F
100
AcDbEntity
  8
0
  6
CONTINUOUS-0-1-1-0-0
370
     0
100
AcDbFace
 10
477918.745
 20
6772200.313
 30
322.0
 11
477924.181
 21
6772210.404
 31
334.0
 12
477916.267
 22
6772202.379
 32
334.0
 13
477918.745
 23
6772200.313
 33
322.0
  0
3DFACE
  5
B9
330
1F
100
AcDbEntity
  8
0
  6
CONTINUOUS-0-1-1-0-0
370
     0
100
AcDbFace
 10
477921.223
 20
6772198.246
 30
310.0
 11
477926.47
 21
6772208.147
 31
322.0
 12
477918.745
 22
6772200.313
 32
322.0
 13
477921.223
 23
6772198.246
 33
310.0
  0
3DFACE
  5
BA
330
1F
100
AcDbEntity
  8
0
  6
CONTINUOUS-0-1-1-0-0
370
     0
100
AcDbFace
 10
477926.47
 20
6772208.147
 30
322.0
 11
477924.181
 21
6772210.404
 31
334.0
 12
477918.745
 22
6772200.313
 32
322.0
 13
477926.47
 23
6772208.147
 33
322.0
  0
3DFACE
  5
BB
330
1F
100
AcDbEntity
  8
0
  6
CONTINUOUS-0-1-1-0-0
370
     0
100
AcDbFace
 10
477928.76
 20
6772205.889
 30
310.0
 11
477926.47
 21
6772208.147
 31
322.0
 12
477921.223
 22
6772198.246
 32
310.0
 13
477928.76
 23
6772205.889
 33
310.0
  0
3DFACE
  5
BC
330
1F
100
AcDbEntity
  8
0
  6
CONTINUOUS-0-1-1-0-0
370
     0
100
AcDbFace
 10
477926.47
 20
6772208.147
 30
322.0
 11
477931.685
 21
6772218.015
 31
334.0
 12
477924.181
 22
6772210.404
 32
334.0
 13
477926.47
 23
6772208.147
 33
322.0
  0
3DFACE
  5
BD
330
1F
100
AcDbEntity
  8
0
  6
CONTINUOUS-0-1-1-0-0
370
     0
100
AcDbFace
 10
477928.76
 20
6772205.889
 30
310.0
 11
477933.991
 21
6772215.774
 31
322.0
 12
477926.47
 22
6772208.147
 32
322.0
 13
477928.76
 23
6772205.889
 33
310.0
  0
3DFACE
  5
BE
330
1F
100
AcDbEntity
  8
0
  6
CONTINUOUS-0-1-1-0-0
370
     0
100
AcDbFace
 10
477933.991
 20
6772215.774
 30
322.0
 11
477931.685
 21
6772218.015
 31
334.0
 12
477926.47
 22
6772208.147
 32
322.0
 13
477933.991
 23
6772215.774
 33
322.0
  0
3DFACE
  5
BF
330
1F
100
AcDbEntity
  8
0
  6
CONTINUOUS-0-1-1-0-0
370
     0
100
AcDbFace
 10
477936.297
 20
6772213.533
 30
310.0
 11
477933.991
 21
6772215.774
 31
322.0
 12
477928.76
 22
6772205.889
 32
310.0
 13
477936.297
 23
6772213.533
 33
310.0
  0
3DFACE
  5
C0
330
1F
100
AcDbEntity
  8
0
  6
CONTINUOUS-0-1-1-0-0
370
     0
100
AcDbFace
 10
477933.991
 20
6772215.774
 30
322.0
 11
477942.797
 21
6772224.971
 31
322.0
 12
477931.685
 22
6772218.015
 32
334.0
 13
477933.991
 23
6772215.774
 33
322.0
  0
3DFACE
  5
C1
330
1F
100
AcDbEntity
  8
0
  6
CONTINUOUS-0-1-1-0-0
370
     0
100
AcDbFace
 10
477942.797
 20
6772224.971
 30
322.0
 11
477940.49
 21
6772227.211
 31
334.0
 12
477931.685
 22
6772218.015
 32
334.0
 13
477942.797
 23
6772224.971
 33
322.0
  0
3DFACE
  5
C2
330
1F
100
AcDbEntity
  8
0
  6
CONTINUOUS-0-1-1-0-0
370
     0
100
AcDbFace
 10
477936.297
 20
6772213.533
 30
310.0
 11
477945.104
 21
6772222.731
 31
310.0
 12
477933.991
 22
6772215.774
 32
322.0
 13
477936.297
 23
6772213.533
 33
310.0
  0
3DFACE
  5
C3
330
1F
100
AcDbEntity
  8
0
  6
CONTINUOUS-0-1-1-0-0
370
     0
100
AcDbFace
 10
477945.104
 20
6772222.731
 30
310.0
 11
477942.797
 21
6772224.971
 31
322.0
 12
477933.991
 22
6772215.774
 32
322.0
 13
477945.104
 23
6772222.731
 33
310.0
  0
3DFACE
  5
C4
330
1F
100
AcDbEntity
  8
0
  6
CONTINUOUS-0-1-1-0-0
370
     0
100
AcDbFace
 10
477942.797
 20
6772224.971
 30
322.0
 11
477951.312
 21
6772233.617
 31
322.0
 12
477940.49
 22
6772227.211
 32
334.0
 13
477942.797
 23
6772224.971
 33
322.0
  0
3DFACE
  5
C5
330
1F
100
AcDbEntity
  8
0
  6
CONTINUOUS-0-1-1-0-0
370
     0
100
AcDbFace
 10
477951.312
 20
6772233.617
 30
322.0
 11
477949.052
 21
6772235.904
 31
334.0
 12
477940.49
 22
6772227.211
 32
334.0
 13
477951.312
 23
6772233.617
 33
322.0
  0
3DFACE
  5
C6
330
1F
100
AcDbEntity
  8
0
  6
CONTINUOUS-0-1-1-0-0
370
     0
100
AcDbFace
 10
477945.104
 20
6772222.731
 30
310.0
 11
477953.573
 21
6772231.33
 31
310.0
 12
477942.797
 22
6772224.971
 32
322.0
 13
477945.104
 23
6772222.731
 33
310.0
  0
3DFACE
  5
C7
330
1F
100
AcDbEntity
  8
0
  6
CONTINUOUS-0-1-1-0-0
370
     0
100
AcDbFace
 10
477953.573
 20
6772231.33
 30
310.0
 11
477951.312
 21
6772233.617
 31
322.0
 12
477942.797
 22
6772224.971
 32
322.0
 13
477953.573
 23
6772231.33
 33
310.0
  0
3DFACE
  5
C8
330
1F
100
AcDbEntity
  8
0
  6
CONTINUOUS-0-1-1-0-0
370
     0
100
AcDbFace
 10
477951.312
 20
6772233.617
 30
322.0
 11
477955.781
 21
6772242.378
 31
334.0
 12
477949.052
 22
6772235.904
 32
334.0
 13
477951.312
 23
6772233.617
 33
322.0
  0
3DFACE
  5
C9
330
1F
100
AcDbEntity
  8
0
  6
CONTINUOUS-0-1-1-0-0
370
     0
100
AcDbFace
 10
477953.573
 20
6772231.33
 30
310.0
 11
477958.01
 21
6772240.061
 31
322.0
 12
477951.312
 22
6772233.617
 32
322.0
 13
477953.573
 23
6772231.33
 33
310.0
  0
3DFACE
  5
CA
330
1F
100
AcDbEntity
  8
0
  6
CONTINUOUS-0-1-1-0-0
370
     0
100
AcDbFace
 10
477958.01
 20
6772240.061
 30
322.0
 11
477955.781
 21
6772242.378
 31
334.0
 12
477951.312
 22
6772233.617
 32
322.0
 13
477958.01
 23
6772240.061
 33
322.0
  0
3DFACE
  5
CB
330
1F
100
AcDbEntity
  8
0
  6
CONTINUOUS-0-1-1-0-0
370
     0
100
AcDbFace
 10
477960.239
 20
6772237.744
 30
310.0
 11
477958.01
 21
6772240.061
 31
322.0
 12
477953.573
 22
6772231.33
 32
310.0
 13
477960.239
 23
6772237.744
 33
310.0
  0
3DFACE
  5
CC
330
1F
100
AcDbEntity
  8
0
  6
CONTINUOUS-0-1-1-0-0
370
     0
100
AcDbFace
 10
477958.01
 20
6772240.061
 30
322.0
 11
477964.86
 21
6772246.651
 31
322.0
 12
477955.781
 22
6772242.378
 32
334.0
 13
477958.01
 23
6772240.061
 33
322.0
  0
3DFACE
  5
CD
330
1F
100
AcDbEntity
  8
0
  6
CONTINUOUS-0-1-1-0-0
370
     0
100
AcDbFace
 10
477964.86
 20
6772246.651
 30
322.0
 11
477962.815
 21
6772249.145
 31
334.0
 12
477955.781
 22
6772242.378
 32
334.0
 13
477964.86
 23
6772246.651
 33
322.0
  0
3DFACE
  5
CE
330
1F
100
AcDbEntity
  8
0
  6
CONTINUOUS-0-1-1-0-0
370
     0
100
AcDbFace
 10
477960.239
 20
6772237.744
 30
310.0
 11
477966.906
 21
6772244.157
 31
310.0
 12
477958.01
 22
6772240.061
 32
322.0
 13
477960.239
 23
6772237.744
 33
310.0
  0
3DFACE
  5
CF
330
1F
100
AcDbEntity
  8
0
  6
CONTINUOUS-0-1-1-0-0
370
     0
100
AcDbFace
 10
477966.906
 20
6772244.157
 30
310.0
 11
477964.86
 21
6772246.651
 31
322.0
 12
477958.01
 22
6772240.061
 32
322.0
 13
477966.906
 23
6772244.157
 33
310.0
  0
3DFACE
  5
D0
330
1F
100
AcDbEntity
  8
0
  6
CONTINUOUS-0-1-1-0-0
370
     0
100
AcDbFace
 10
477964.86
 20
6772246.651
 30
322.0
 11
477971.043
 21
6772254.87
 31
334.0
 12
477962.815
 22
6772249.145
 32
334.0
 13
477964.86
 23
6772246.651
 33
322.0
  0
3DFACE
  5
D1
330
1F
100
AcDbEntity
  8
0
  6
CONTINUOUS-0-1-1-0-0
370
     0
100
AcDbFace
 10
477966.906
 20
6772244.157
 30
310.0
 11
477972.879
 21
6772252.231
 31
322.0
 12
477964.86
 22
6772246.651
 32
322.0
 13
477966.906
 23
6772244.157
 33
310.0
  0
3DFACE
  5
D2
330
1F
100
AcDbEntity
  8
0
  6
CONTINUOUS-0-1-1-0-0
370
     0
100
AcDbFace
 10
477972.879
 20
6772252.231
 30
322.0
 11
477971.043
 21
6772254.87
 31
334.0
 12
477964.86
 22
6772246.651
 32
322.0
 13
477972.879
 23
6772252.231
 33
322.0
  0
3DFACE
  5
D3
330
1F
100
AcDbEntity
  8
0
  6
CONTINUOUS-0-1-1-0-0
370
     0
100
AcDbFace
 10
477974.716
 20
6772249.592
 30
310.0
 11
477972.879
 21
6772252.231
 31
322.0
 12
477966.906
 22
6772244.157
 32
310.0
 13
477974.716
 23
6772249.592
 33
310.0
  0
3DFACE
  5
D4
330
1F
100
AcDbEntity
  8
0
  6
CONTINUOUS-0-1-1-0-0
370
     0
100
AcDbFace
 10
477972.879
 20
6772252.231
 30
322.0
 11
477980.692
 21
6772257.668
 31
322.0
 12
477971.043
 22
6772254.87
 32
334.0
 13
477972.879
 23
6772252.231
 33
322.0
  0
3DFACE
  5
D5
330
1F
100
AcDbEntity
  8
0
  6
CONTINUOUS-0-1-1-0-0
370
     0
100
AcDbFace
 10
477980.692
 20
6772257.668
 30
322.0
 11
477978.857
 21
6772260.309
 31
334.0
 12
477971.043
 22
6772254.87
 32
334.0
 13
477980.692
 23
6772257.668
 33
322.0
  0
3DFACE
  5
D6
330
1F
100
AcDbEntity
  8
0
  6
CONTINUOUS-0-1-1-0-0
370
     0
100
AcDbFace
 10
477974.716
 20
6772249.592
 30
310.0
 11
477982.526
 21
6772255.027
 31
310.0
 12
477972.879
 22
6772252.231
 32
322.0
 13
477974.716
 23
6772249.592
 33
310.0
  0
3DFACE
  5
D7
330
1F
100
AcDbEntity
  8
0
  6
CONTINUOUS-0-1-1-0-0
370
     0
100
AcDbFace
 10
477982.526
 20
6772255.027
 30
310.0
 11
477980.692
 21
6772257.668
 31
322.0
 12
477972.879
 22
6772252.231
 32
322.0
 13
477982.526
 23
6772255.027
 33
310.0
  0
3DFACE
  5
D8
330
1F
100
AcDbEntity
  8
0
  6
CONTINUOUS-0-1-1-0-0
370
     0
100
AcDbFace
 10
477980.692
 20
6772257.668
 30
322.0
 11
477991.024
 21
6772264.832
 31
322.0
 12
477978.857
 22
6772260.309
 32
334.0
 13
477980.692
 23
6772257.668
 33
322.0
  0
3DFACE
  5
D9
330
1F
100
AcDbEntity
  8
0
  6
CONTINUOUS-0-1-1-0-0
370
     0
100
AcDbFace
 10
477991.024
 20
6772264.832
 30
322.0
 11
477989.209
 21
6772267.486
 31
334.0
 12
477978.857
 22
6772260.309
 32
334.0
 13
477991.024
 23
6772264.832
 33
322.0
  0
3DFACE
  5
DA
330
1F
100
AcDbEntity
  8
0
  6
CONTINUOUS-0-1-1-0-0
370
     0
100
AcDbFace
 10
477982.526
 20
6772255.027
 30
310.0
 11
477992.838
 21
6772262.177
 31
310.0
 12
477980.692
 22
6772257.668
 32
322.0
 13
477982.526
 23
6772255.027
 33
310.0
  0
3DFACE
  5
DB
330
1F
100
AcDbEntity
  8
0
  6
CONTINUOUS-0-1-1-0-0
370
     0
100
AcDbFace
 10
477992.838
 20
6772262.177
 30
310.0
 11
477991.024
 21
6772264.832
 31
322.0
 12
477980.692
 22
6772257.668
 32
322.0
 13
477992.838
 23
6772262.177
 33
310.0
  0
3DFACE
  5
DC
330
1F
100
AcDbEntity
  8
0
  6
CONTINUOUS-0-1-1-0-0
370
     0
100
AcDbFace
 10
477991.024
 20
6772264.832
 30
322.0
 11
477999.602
 21
6772274.487
 31
334.0
 12
477989.209
 22
6772267.486
 32
334.0
 13
477991.024
 23
6772264.832
 33
322.0
  0
3DFACE
  5
DD
330
1F
100
AcDbEntity
  8
0
  6
CONTINUOUS-0-1-1-0-0
370
     0
100
AcDbFace
 10
477992.838
 20
6772262.177
 30
310.0
 11
478001.399
 21
6772271.821
 31
322.0
 12
477991.024
 22
6772264.832
 32
322.0
 13
477992.838
 23
6772262.177
 33
310.0
  0
3DFACE
  5
DE
330
1F
100
AcDbEntity
  8
0
  6
CONTINUOUS-0-1-1-0-0
370
     0
100
AcDbFace
 10
478001.399
 20
6772271.821
 30
322.0
 11
477999.602
 21
6772274.487
 31
334.0
 12
477991.024
 22
6772264.832
 32
322.0
 13
478001.399
 23
6772271.821
 33
322.0
  0
3DFACE
  5
DF
330
1F
100
AcDbEntity
  8
0
  6
CONTINUOUS-0-1-1-0-0
370
     0
100
AcDbFace
 10
478003.197
 20
6772269.155
 30
310.0
 11
478001.399
 21
6772271.821
 31
322.0
 12
477992.838
 22
6772262.177
 32
310.0
 13
478003.197
 23
6772269.155
 33
310.0
  0
3DFACE
  5
E0
330
1F
100
AcDbEntity
  8
0
  6
CONTINUOUS-0-1-1-0-0
370
     0
100
AcDbFace
 10
478001.399
 20
6772271.821
 30
322.0
 11
478012.094
 21
6772279.04
 31
322.0
 12
477999.602
 22
6772274.487
 32
334.0
 13
478001.399
 23
6772271.821
 33
322.0
  0
3DFACE
  5
E1
330
1F
100
AcDbEntity
  8
0
  6
CONTINUOUS-0-1-1-0-0
370
     0
100
AcDbFace
 10
478012.094
 20
6772279.04
 30
322.0
 11
478010.331
 21
6772281.73
 31
334.0
 12
477999.602
 22
6772274.487
 32
334.0
 13
478012.094
 23
6772279.04
 33
322.0
  0
3DFACE
  5
E2
330
1F
100
AcDbEntity
  8
0
  6
CONTINUOUS-0-1-1-0-0
370
     0
100
AcDbFace
 10
478003.197
 20
6772269.155
 30
310.0
 11
478013.857
 21
6772276.351
 31
310.0
 12
478001.399
 22
6772271.821
 32
322.0
 13
478003.197
 23
6772269.155
 33
310.0
  0
3DFACE
  5
E3
330
1F
100
AcDbEntity
  8
0
  6
CONTINUOUS-0-1-1-0-0
370
     0
100
AcDbFace
 10
478013.857
 20
6772276.351
 30
310.0
 11
478012.094
 21
6772279.04
 31
322.0
 12
478001.399
 22
6772271.821
 32
322.0
 13
478013.857
 23
6772276.351
 33
310.0
  0
3DFACE
  5
E4
330
1F
100
AcDbEntity
  8
0
  6
CONTINUOUS-0-1-1-0-0
370
     0
100
AcDbFace
 10
478012.094
 20
6772279.04
 30
322.0
 11
478013.963
 21
6772284.041
 31
334.0
 12
478010.331
 22
6772281.73
 32
334.0
 13
478012.094
 23
6772279.04
 33
322.0
  0
3DFACE
  5
E5
330
1F
100
AcDbEntity
  8
0
  6
CONTINUOUS-0-1-1-0-0
370
     0
100
AcDbFace
 10
478013.857
 20
6772276.351
 30
310.0
 11
478015.676
 21
6772281.32
 31
322.0
 12
478012.094
 22
6772279.04
 32
322.0
 13
478013.857
 23
6772276.351
 33
310.0
  0
3DFACE
  5
E6
330
1F
100
AcDbEntity
  8
0
  6
CONTINUOUS-0-1-1-0-0
370
     0
100
AcDbFace
 10
478015.676
 20
6772281.32
 30
322.0
 11
478013.963
 21
6772284.041
 31
334.0
 12
478012.094
 22
6772279.04
 32
322.0
 13
478015.676
 23
6772281.32
 33
322.0
  0
3DFACE
  5
E7
330
1F
100
AcDbEntity
  8
0
  6
CONTINUOUS-0-1-1-0-0
370
     0
100
AcDbFace
 10
478017.388
 20
6772278.598
 30
310.0
 11
478015.676
 21
6772281.32
 31
322.0
 12
478013.857
 22
6772276.351
 32
310.0
 13
478017.388
 23
6772278.598
 33
310.0
  0
3DFACE
  5
E8
330
1F
100
AcDbEntity
  8
0
  6
CONTINUOUS-0-1-1-0-0
370
     0
100
AcDbFace
 10
478015.676
 20
6772281.32
 30
322.0
 11
478024.71
 21
6772290.725
 31
334.0
 12
478013.963
 22
6772284.041
 32
334.0
 13
478015.676
 23
6772281.32
 33
322.0
  0
3DFACE
  5
E9
330
1F
100
AcDbEntity
  8
0
  6
CONTINUOUS-0-1-1-0-0
370
     0
100
AcDbFace
 10
478017.388
 20
6772278.598
 30
310.0
 11
478026.408
 21
6772287.994
 31
322.0
 12
478015.676
 22
6772281.32
 32
322.0
 13
478017.388
 23
6772278.598
 33
310.0
  0
3DFACE
  5
EA
330
1F
100
AcDbEntity
  8
0
  6
CONTINUOUS-0-1-1-0-0
370
     0
100
AcDbFace
 10
478026.408
 20
6772287.994
 30
322.0
 11
478024.71
 21
6772290.725
 31
334.0
 12
478015.676
 22
6772281.32
 32
322.0
 13
478026.408
 23
6772287.994
 33
322.0
  0
3DFACE
  5
EB
330
1F
100
AcDbEntity
  8
0
  6
CONTINUOUS-0-1-1-0-0
370
     0
100
AcDbFace
 10
478028.106
 20
6772285.264
 30
310.0
 11
478026.408
 21
6772287.994
 31
322.0
 12
478017.388
 22
6772278.598
 32
310.0
 13
478028.106
 23
6772285.264
 33
310.0
  0
3DFACE
  5
EC
330
1F
100
AcDbEntity
  8
0
  6
CONTINUOUS-0-1-1-0-0
370
     0
100
AcDbFace
 10
478026.408
 20
6772287.994
 30
322.0
 11
478037.455
 21
6772294.864
 31
322.0
 12
478024.71
 22
6772290.725
 32
334.0
 13
478026.408
 23
6772287.994
 33
322.0
  0
3DFACE
  5
ED
330
1F
100
AcDbEntity
  8
0
  6
CONTINUOUS-0-1-1-0-0
370
     0
100
AcDbFace
 10
478037.455
 20
6772294.864
 30
322.0
 11
478036.085
 21
6772297.799
 31
334.0
 12
478024.71
 22
6772290.725
 32
334.0
 13
478037.455
 23
6772294.864
 33
322.0
  0
3DFACE
  5
EE
330
1F
100
AcDbEntity
  8
0
  6
CONTINUOUS-0-1-1-0-0
370
     0
100
AcDbFace
 10
478028.106
 20
6772285.264
 30
310.0
 11
478038.824
 21
6772291.929
 31
310.0
 12
478026.408
 22
6772287.994
 32
322.0
 13
478028.106
 23
6772285.264
 33
310.0
  0
3DFACE
  5
EF
330
1F
100
AcDbEntity
  8
0
  6
CONTINUOUS-0-1-1-0-0
370
     0
100
AcDbFace
 10
478038.824
 20
6772291.929
 30
310.0
 11
478037.455
 21
6772294.864
 31
322.0
 12
478026.408
 22
6772287.994
 32
322.0
 13
478038.824
 23
6772291.929
 33
310.0
  0
3DFACE
  5
F0
330
1F
100
AcDbEntity
  8
0
  6
CONTINUOUS-0-1-1-0-0
370
     0
100
AcDbFace
 10
478037.455
 20
6772294.864
 30
322.0
 11
478048.397
 21
6772301.835
 31
334.0
 12
478036.085
 22
6772297.799
 32
334.0
 13
478037.455
 23
6772294.864
 33
322.0
  0
3DFACE
  5
F1
330
1F
100
AcDbEntity
  8
0
  6
CONTINUOUS-0-1-1-0-0
370
     0
100
AcDbFace
 10
478038.824
 20
6772291.929
 30
310.0
 11
478049.398
 21
6772298.779
 31
322.0
 12
478037.455
 22
6772294.864
 32
322.0
 13
478038.824
 23
6772291.929
 33
310.0
  0
3DFACE
  5
F2
330
1F
100
AcDbEntity
  8
0
  6
CONTINUOUS-0-1-1-0-0
370
     0
100
AcDbFace
 10
478049.398
 20
6772298.779
 30
322.0
 11
478048.397
 21
6772301.835
 31
334.0
 12
478037.455
 22
6772294.864
 32
322.0
 13
478049.398
 23
6772298.779
 33
322.0
  0
3DFACE
  5
F3
330
1F
100
AcDbEntity
  8
0
  6
CONTINUOUS-0-1-1-0-0
370
     0
100
AcDbFace
 10
478050.4
 20
6772295.724
 30
310.0
 11
478049.398
 21
6772298.779
 31
322.0
 12
478038.824
 22
6772291.929
 32
310.0
 13
478050.4
 23
6772295.724
 33
310.0
  0
3DFACE
  5
F4
330
1F
100
AcDbEntity
  8
0
  6
CONTINUOUS-0-1-1-0-0
370
     0
100
AcDbFace
 10
478049.398
 20
6772298.779
 30
322.0
 11
478061.019
 21
6772302.589
 31
322.0
 12
478048.397
 22
6772301.835
 32
334.0
 13
478049.398
 23
6772298.779
 33
322.0
  0
3DFACE
  5
F5
330
1F
100
AcDbEntity
  8
0
  6
CONTINUOUS-0-1-1-0-0
370
     0
100
AcDbFace
 10
478061.019
 20
6772302.589
 30
322.0
 11
478060.062
 21
6772305.659
 31
334.0
 12
478048.397
 22
6772301.835
 32
334.0
 13
478061.019
 23
6772302.589
 33
322.0
  0
3DFACE
  5
F6
330
1F
100
AcDbEntity
  8
0
  6
CONTINUOUS-0-1-1-0-0
370
     0
100
AcDbFace
 10
478050.4
 20
6772295.724
 30
310.0
 11
478061.976
 21
6772299.519
 31
310.0
 12
478049.398
 22
6772298.779
 32
322.0
 13
478050.4
 23
6772295.724
 33
310.0
  0
3DFACE
  5
F7
330
1F
100
AcDbEntity
  8
0
  6
CONTINUOUS-0-1-1-0-0
370
     0
100
AcDbFace
 10
478061.976
 20
6772299.519
 30
310.0
 11
478061.019
 21
6772302.589
 31
322.0
 12
478049.398
 22
6772298.779
 32
322.0
 13
478061.976
 23
6772299.519
 33
310.0
  0
3DFACE
  5
F8
330
1F
100
AcDbEntity
  8
0
  6
CONTINUOUS-0-1-1-0-0
370
     0
100
AcDbFace
 10
478061.019
 20
6772302.589
 30
322.0
 11
478071.775
 21
6772309.125
 31
334.0
 12
478060.062
 22
6772305.659
 32
334.0
 13
478061.019
 23
6772302.589
 33
322.0
  0
3DFACE
  5
F9
330
1F
100
AcDbEntity
  8
0
  6
CONTINUOUS-0-1-1-0-0
370
     0
100
AcDbFace
 10
478061.976
 20
6772299.519
 30
310.0
 11
478072.682
 21
6772306.04
 31
322.0
 12
478061.019
 22
6772302.589
 32
322.0
 13
478061.976
 23
6772299.519
 33
310.0
  0
3DFACE
  5
FA
330
1F
100
AcDbEntity
  8
0
  6
CONTINUOUS-0-1-1-0-0
370
     0
100
AcDbFace
 10
478072.682
 20
6772306.04
 30
322.0
 11
478071.775
 21
6772309.125
 31
334.0
 12
478061.019
 22
6772302.589
 32
322.0
 13
478072.682
 23
6772306.04
 33
322.0
  0
3DFACE
  5
FB
330
1F
100
AcDbEntity
  8
0
  6
CONTINUOUS-0-1-1-0-0
370
     0
100
AcDbFace
 10
478073.588
 20
6772302.955
 30
310.0
 11
478072.682
 21
6772306.04
 31
322.0
 12
478061.976
 22
6772299.519
 32
310.0
 13
478073.588
 23
6772302.955
 33
310.0
  0
3DFACE
  5
FC
330
1F
100
AcDbEntity
  8
0
  6
CONTINUOUS-0-1-1-0-0
370
     0
100
AcDbFace
 10
478072.682
 20
6772306.04
 30
322.0
 11
478079.605
 21
6772311.409
 31
334.0
 12
478071.775
 22
6772309.125
 32
334.0
 13
478072.682
 23
6772306.04
 33
322.0
  0
3DFACE
  5
FD
330
1F
100
AcDbEntity
  8
0
  6
CONTINUOUS-0-1-1-0-0
370
     0
100
AcDbFace
 10
478073.588
 20
6772302.955
 30
310.0
 11
478080.526
 21
6772308.329
 31
322.0
 12
478072.682
 22
6772306.04
 32
322.0
 13
478073.588
 23
6772302.955
 33
310.0
  0
3DFACE
  5
FE
330
1F
100
AcDbEntity
  8
0
  6
CONTINUOUS-0-1-1-0-0
370
     0
100
AcDbFace
 10
478080.526
 20
6772308.329
 30
322.0
 11
478079.605
 21
6772311.409
 31
334.0
 12
478072.682
 22
6772306.04
 32
322.0
 13
478080.526
 23
6772308.329
 33
322.0
  0
3DFACE
  5
FF
330
1F
100
AcDbEntity
  8
0
  6
CONTINUOUS-0-1-1-0-0
370
     0
100
AcDbFace
 10
478081.448
 20
6772305.248
 30
310.0
 11
478080.526
 21
6772308.329
 31
322.0
 12
478073.588
 22
6772302.955
 32
310.0
 13
478081.448
 23
6772305.248
 33
310.0
  0
3DFACE
  5
100
330
1F
100
AcDbEntity
  8
0
  6
CONTINUOUS-0-1-1-0-0
370
     0
100
AcDbFace
 10
478080.526
 20
6772308.329
 30
322.0
 11
478087.955
 21
6772310.606
 31
322.0
 12
478079.605
 22
6772311.409
 32
334.0
 13
478080.526
 23
6772308.329
 33
322.0
  0
3DFACE
  5
101
330
1F
100
AcDbEntity
  8
0
  6
CONTINUOUS-0-1-1-0-0
370
     0
100
AcDbFace
 10
478087.955
 20
6772310.606
 30
322.0
 11
478087.013
 21
6772313.68
 31
334.0
 12
478079.605
 22
6772311.409
 32
334.0
 13
478087.955
 23
6772310.606
 33
322.0
  0
3DFACE
  5
102
330
1F
100
AcDbEntity
  8
0
  6
CONTINUOUS-0-1-1-0-0
370
     0
100
AcDbFace
 10
478081.448
 20
6772305.248
 30
310.0
 11
478088.898
 21
6772307.532
 31
310.0
 12
478080.526
 22
6772308.329
 32
322.0
 13
478081.448
 23
6772305.248
 33
310.0
  0
3DFACE
  5
103
330
1F
100
AcDbEntity
  8
0
  6
CONTINUOUS-0-1-1-0-0
370
     0
100
AcDbFace
 10
478088.898
 20
6772307.532
 30
310.0
 11
478087.955
 21
6772310.606
 31
322.0
 12
478080.526
 22
6772308.329
 32
322.0
 13
478088.898
 23
6772307.532
 33
310.0
  0
3DFACE
  5
104
330
1F
100
AcDbEntity
  8
0
  6
CONTINUOUS-0-1-1-0-0
370
     0
100
AcDbFace
 10
478087.955
 20
6772310.606
 30
322.0
 11
478095.635
 21
6772312.961
 31
322.0
 12
478087.013
 22
6772313.68
 32
334.0
 13
478087.955
 23
6772310.606
 33
322.0
  0
3DFACE
  5
105
330
1F
100
AcDbEntity
  8
0
  6
CONTINUOUS-0-1-1-0-0
370
     0
100
AcDbFace
 10
478095.635
 20
6772312.961
 30
322.0
 11
478094.92
 21
6772316.105
 31
334.0
 12
478087.013
 22
6772313.68
 32
334.0
 13
478095.635
 23
6772312.961
 33
322.0
  0
3DFACE
  5
106
330
1F
100
AcDbEntity
  8
0
  6
CONTINUOUS-0-1-1-0-0
370
     0
100
AcDbFace
 10
478088.898
 20
6772307.532
 30
310.0
 11
478096.349
 21
6772309.817
 31
310.0
 12
478087.955
 22
6772310.606
 32
322.0
 13
478088.898
 23
6772307.532
 33
310.0
  0
3DFACE
  5
107
330
1F
100
AcDbEntity
  8
0
  6
CONTINUOUS-0-1-1-0-0
370
     0
100
AcDbFace
 10
478096.349
 20
6772309.817
 30
310.0
 11
478095.635
 21
6772312.961
 31
322.0
 12
478087.955
 22
6772310.606
 32
322.0
 13
478096.349
 23
6772309.817
 33
310.0
  0
3DFACE
  5
108
330
1F
100
AcDbEntity
  8
0
  6
CONTINUOUS-0-1-1-0-0
370
     0
100
AcDbFace
 10
478095.635
 20
6772312.961
 30
322.0
 11
478105.063
 21
6772317.63
 31
334.0
 12
478094.92
 22
6772316.105
 32
334.0
 13
478095.635
 23
6772312.961
 33
322.0
  0
3DFACE
  5
109
330
1F
100
AcDbEntity
  8
0
  6
CONTINUOUS-0-1-1-0-0
370
     0
100
AcDbFace
 10
478096.349
 20
6772309.817
 30
310.0
 11
478105.541
 21
6772314.451
 31
322.0
 12
478095.635
 22
6772312.961
 32
322.0
 13
478096.349
 23
6772309.817
 33
310.0
  0
3DFACE
  5
10A
330
1F
100
AcDbEntity
  8
0
  6
CONTINUOUS-0-1-1-0-0
370
     0
100
AcDbFace
 10
478105.541
 20
6772314.451
 30
322.0
 11
478105.063
 21
6772317.63
 31
334.0
 12
478095.635
 22
6772312.961
 32
322.0
 13
478105.541
 23
6772314.451
 33
322.0
  0
3DFACE
  5
10B
330
1F
100
AcDbEntity
  8
0
  6
CONTINUOUS-0-1-1-0-0
370
     0
100
AcDbFace
 10
478106.019
 20
6772311.271
 30
310.0
 11
478105.541
 21
6772314.451
 31
322.0
 12
478096.349
 22
6772309.817
 32
310.0
 13
478106.019
 23
6772311.271
 33
310.0
  0
3DFACE
  5
10C
330
1F
100
AcDbEntity
  8
0
  6
CONTINUOUS-0-1-1-0-0
370
     0
100
AcDbFace
 10
478105.541
 20
6772314.451
 30
322.0
 11
478115.247
 21
6772315.91
 31
322.0
 12
478105.063
 22
6772317.63
 32
334.0
 13
478105.541
 23
6772314.451
 33
322.0
  0
3DFACE
  5
10D
330
1F
100
AcDbEntity
  8
0
  6
CONTINUOUS-0-1-1-0-0
370
     0
100
AcDbFace
 10
478115.247
 20
6772315.91
 30
322.0
 11
478114.806
 21
6772319.095
 31
334.0
 12
478105.063
 22
6772317.63
 32
334.0
 13
478115.247
 23
6772315.91
 33
322.0
  0
3DFACE
  5
10E
330
1F
100
AcDbEntity
  8
0
  6
CONTINUOUS-0-1-1-0-0
370
     0
100
AcDbFace
 10
478106.019
 20
6772311.271
 30
310.0
 11
478115.689
 21
6772312.725
 31
310.0
 12
478105.541
 22
6772314.451
 32
322.0
 13
478106.019
 23
6772311.271
 33
310.0
  0
3DFACE
  5
10F
330
1F
100
AcDbEntity
  8
0
  6
CONTINUOUS-0-1-1-0-0
370
     0
100
AcDbFace
 10
478115.689
 20
6772312.725
 30
310.0
 11
478115.247
 21
6772315.91
 31
322.0
 12
478105.541
 22
6772314.451
 32
322.0
 13
478115.689
 23
6772312.725
 33
310.0
  0
3DFACE
  5
110
330
1F
100
AcDbEntity
  8
0
  6
CONTINUOUS-0-1-1-0-0
370
     0
100
AcDbFace
 10
478115.247
 20
6772315.91
 30
322.0
 11
478126.384
 21
6772320.566
 31
334.0
 12
478114.806
 22
6772319.095
 32
334.0
 13
478115.247
 23
6772315.91
 33
322.0
  0
3DFACE
  5
111
330
1F
100
AcDbEntity
  8
0
  6
CONTINUOUS-0-1-1-0-0
370
     0
100
AcDbFace
 10
478115.689
 20
6772312.725
 30
310.0
 11
478126.806
 21
6772317.379
 31
322.0
 12
478115.247
 22
6772315.91
 32
322.0
 13
478115.689
 23
6772312.725
 33
310.0
  0
3DFACE
  5
112
330
1F
100
AcDbEntity
  8
0
  6
CONTINUOUS-0-1-1-0-0
370
     0
100
AcDbFace
 10
478126.806
 20
6772317.379
 30
322.0
 11
478126.384
 21
6772320.566
 31
334.0
 12
478115.247
 22
6772315.91
 32
322.0
 13
478126.806
 23
6772317.379
 33
322.0
  0
3DFACE
  5
113
330
1F
100
AcDbEntity
  8
0
  6
CONTINUOUS-0-1-1-0-0
370
     0
100
AcDbFace
 10
478127.229
 20
6772314.191
 30
310.0
 11
478126.806
 21
6772317.379
 31
322.0
 12
478115.689
 22
6772312.725
 32
310.0
 13
478127.229
 23
6772314.191
 33
310.0
  0
3DFACE
  5
114
330
1F
100
AcDbEntity
  8
0
  6
CONTINUOUS-0-1-1-0-0
370
     0
100
AcDbFace
 10
478126.806
 20
6772317.379
 30
322.0
 11
478140.907
 21
6772319.326
 31
322.0
 12
478126.384
 22
6772320.566
 32
334.0
 13
478126.806
 23
6772317.379
 33
322.0
  0
3DFACE
  5
115
330
1F
100
AcDbEntity
  8
0
  6
CONTINUOUS-0-1-1-0-0
370
     0
100
AcDbFace
 10
478140.907
 20
6772319.326
 30
322.0
 11
478140.467
 21
6772322.511
 31
334.0
 12
478126.384
 22
6772320.566
 32
334.0
 13
478140.907
 23
6772319.326
 33
322.0
  0
3DFACE
  5
116
330
1F
100
AcDbEntity
  8
0
  6
CONTINUOUS-0-1-1-0-0
370
     0
100
AcDbFace
 10
478127.229
 20
6772314.191
 30
310.0
 11
478141.347
 21
6772316.141
 31
310.0
 12
478126.806
 22
6772317.379
 32
322.0
 13
478127.229
 23
6772314.191
 33
310.0
  0
3DFACE
  5
117
330
1F
100
AcDbEntity
  8
0
  6
CONTINUOUS-0-1-1-0-0
370
     0
100
AcDbFace
 10
478141.347
 20
6772316.141
 30
310.0
 11
478140.907
 21
6772319.326
 31
322.0
 12
478126.806
 22
6772317.379
 32
322.0
 13
478141.347
 23
6772316.141
 33
310.0
  0
3DFACE
  5
118
330
1F
100
AcDbEntity
  8
0
  6
CONTINUOUS-0-1-1-0-0
370
     0
100
AcDbFace
 10
478140.907
 20
6772319.326
 30
322.0
 11
478151.032
 21
6772323.971
 31
334.0
 12
478140.467
 22
6772322.511
 32
334.0
 13
478140.907
 23
6772319.326
 33
322.0
  0
3DFACE
  5
119
330
1F
100
AcDbEntity
  8
0
  6
CONTINUOUS-0-1-1-0-0
370
     0
100
AcDbFace
 10
478141.347
 20
6772316.141
 30
310.0
 11
478151.473
 21
6772320.786
 31
322.0
 12
478140.907
 22
6772319.326
 32
322.0
 13
478141.347
 23
6772316.141
 33
310.0
  0
3DFACE
  5
11A
330
1F
100
AcDbEntity
  8
0
  6
CONTINUOUS-0-1-1-0-0
370
     0
100
AcDbFace
 10
478151.473
 20
6772320.786
 30
322.0
 11
478151.032
 21
6772323.971
 31
334.0
 12
478140.907
 22
6772319.326
 32
322.0
 13
478151.473
 23
6772320.786
 33
322.0
  0
3DFACE
  5
11B
330
1F
100
AcDbEntity
  8
0
  6
CONTINUOUS-0-1-1-0-0
370
     0
100
AcDbFace
 10
478151.913
 20
6772317.601
 30
310.0
 11
478151.473
 21
6772320.786
 31
322.0
 12
478141.347
 22
6772316.141
 32
310.0
 13
478151.913
 23
6772317.601
 33
310.0
  0
3DFACE
  5
11C
330
1F
100
AcDbEntity
  8
0
  6
CONTINUOUS-0-1-1-0-0
370
     0
100
AcDbFace
 10
478151.473
 20
6772320.786
 30
322.0
 11
478161.452
 21
6772325.412
 31
334.0
 12
478151.032
 22
6772323.971
 32
334.0
 13
478151.473
 23
6772320.786
 33
322.0
  0
3DFACE
  5
11D
330
1F
100
AcDbEntity
  8
0
  6
CONTINUOUS-0-1-1-0-0
370
     0
100
AcDbFace
 10
478151.913
 20
6772317.601
 30
310.0
 11
478161.965
 21
6772322.237
 31
322.0
 12
478151.473
 22
6772320.786
 32
322.0
 13
478151.913
 23
6772317.601
 33
310.0
  0
3DFACE
  5
11E
330
1F
100
AcDbEntity
  8
0
  6
CONTINUOUS-0-1-1-0-0
370
     0
100
AcDbFace
 10
478161.965
 20
6772322.237
 30
322.0
 11
478161.452
 21
6772325.412
 31
334.0
 12
478151.473
 22
6772320.786
 32
322.0
 13
478161.965
 23
6772322.237
 33
322.0
  0
3DFACE
  5
11F
330
1F
100
AcDbEntity
  8
0
  6
CONTINUOUS-0-1-1-0-0
370
     0
100
AcDbFace
 10
478162.478
 20
6772319.062
 30
310.0
 11
478161.965
 21
6772322.237
 31
322.0
 12
478151.913
 22
6772317.601
 32
310.0
 13
478162.478
 23
6772319.062
 33
310.0
  0
3DFACE
  5
120
330
1F
100
AcDbEntity
  8
0
  6
CONTINUOUS-0-1-1-0-0
370
     0
100
AcDbFace
 10
478161.965
 20
6772322.237
 30
322.0
 11
478173.061
 21
6772324.291
 31
322.0
 12
478161.452
 22
6772325.412
 32
334.0
 13
478161.965
 23
6772322.237
 33
322.0
  0
3DFACE
  5
121
330
1F
100
AcDbEntity
  8
0
  6
CONTINUOUS-0-1-1-0-0
370
     0
100
AcDbFace
 10
478173.061
 20
6772324.291
 30
322.0
 11
478172.475
 21
6772327.452
 31
334.0
 12
478161.452
 22
6772325.412
 32
334.0
 13
478173.061
 23
6772324.291
 33
322.0
  0
3DFACE
  5
122
330
1F
100
AcDbEntity
  8
0
  6
CONTINUOUS-0-1-1-0-0
370
     0
100
AcDbFace
 10
478162.478
 20
6772319.062
 30
310.0
 11
478173.646
 21
6772321.129
 31
310.0
 12
478161.965
 22
6772322.237
 32
322.0
 13
478162.478
 23
6772319.062
 33
310.0
  0
3DFACE
  5
123
330
1F
100
AcDbEntity
  8
0
  6
CONTINUOUS-0-1-1-0-0
370
     0
100
AcDbFace
 10
478173.646
 20
6772321.129
 30
310.0
 11
478173.061
 21
6772324.291
 31
322.0
 12
478161.965
 22
6772322.237
 32
322.0
 13
478173.646
 23
6772321.129
 33
310.0
  0
3DFACE
  5
124
330
1F
100
AcDbEntity
  8
0
  6
CONTINUOUS-0-1-1-0-0
370
     0
100
AcDbFace
 10
478173.061
 20
6772324.291
 30
322.0
 11
478184.229
 21
6772326.359
 31
322.0
 12
478172.475
 22
6772327.452
 32
334.0
 13
478173.061
 23
6772324.291
 33
322.0
  0
3DFACE
  5
125
330
1F
100
AcDbEntity
  8
0
  6
CONTINUOUS-0-1-1-0-0
370
     0
100
AcDbFace
 10
478184.229
 20
6772326.359
 30
322.0
 11
478183.643
 21
6772329.52
 31
334.0
 12
478172.475
 22
6772327.452
 32
334.0
 13
478184.229
 23
6772326.359
 33
322.0
  0
3DFACE
  5
126
330
1F
100
AcDbEntity
  8
0
  6
CONTINUOUS-0-1-1-0-0
370
     0
100
AcDbFace
 10
478173.646
 20
6772321.129
 30
310.0
 11
478184.814
 21
6772323.197
 31
310.0
 12
478173.061
 22
6772324.291
 32
322.0
 13
478173.646
 23
6772321.129
 33
310.0
  0
3DFACE
  5
127
330
1F
100
AcDbEntity
  8
0
  6
CONTINUOUS-0-1-1-0-0
370
     0
100
AcDbFace
 10
478184.814
 20
6772323.197
 30
310.0
 11
478184.229
 21
6772326.359
 31
322.0
 12
478173.061
 22
6772324.291
 32
322.0
 13
478184.814
 23
6772323.197
 33
310.0
  0
3DFACE
  5
128
330
1F
100
AcDbEntity
  8
0
  6
CONTINUOUS-0-1-1-0-0
370
     0
100
AcDbFace
 10
478184.229
 20
6772326.359
 30
322.0
 11
478194.812
 21
6772331.587
 31
334.0
 12
478183.643
 22
6772329.52
 32
334.0
 13
478184.229
 23
6772326.359
 33
322.0
  0
3DFACE
  5
129
330
1F
100
AcDbEntity
  8
0
  6
CONTINUOUS-0-1-1-0-0
370
     0
100
AcDbFace
 10
478184.814
 20
6772323.197
 30
310.0
 11
478195.397
 21
6772328.426
 31
322.0
 12
478184.229
 22
6772326.359
 32
322.0
 13
478184.814
 23
6772323.197
 33
310.0
  0
3DFACE
  5
12A
330
1F
100
AcDbEntity
  8
0
  6
CONTINUOUS-0-1-1-0-0
370
     0
100
AcDbFace
 10
478195.397
 20
6772328.426
 30
322.0
 11
478194.812
 21
6772331.587
 31
334.0
 12
478184.229
 22
6772326.359
 32
322.0
 13
478195.397
 23
6772328.426
 33
322.0
  0
3DFACE
  5
12B
330
1F
100
AcDbEntity
  8
0
  6
CONTINUOUS-0-1-1-0-0
370
     0
100
AcDbFace
 10
478195.982
 20
6772325.264
 30
310.0
 11
478195.397
 21
6772328.426
 31
322.0
 12
478184.814
 22
6772323.197
 32
310.0
 13
478195.982
 23
6772325.264
 33
310.0
  0
3DFACE
  5
12C
330
1F
100
AcDbEntity
  8
0
  6
CONTINUOUS-0-1-1-0-0
370
     0
100
AcDbFace
 10
478195.397
 20
6772328.426
 30
322.0
 11
478205.913
 21
6772333.642
 31
334.0
 12
478194.812
 22
6772331.587
 32
334.0
 13
478195.397
 23
6772328.426
 33
322.0
  0
3DFACE
  5
12D
330
1F
100
AcDbEntity
  8
0
  6
CONTINUOUS-0-1-1-0-0
370
     0
100
AcDbFace
 10
478195.982
 20
6772325.264
 30
310.0
 11
478206.531
 21
6772330.487
 31
322.0
 12
478195.397
 22
6772328.426
 32
322.0
 13
478195.982
 23
6772325.264
 33
310.0
  0
3DFACE
  5
12E
330
1F
100
AcDbEntity
  8
0
  6
CONTINUOUS-0-1-1-0-0
370
     0
100
AcDbFace
 10
478206.531
 20
6772330.487
 30
322.0
 11
478205.913
 21
6772333.642
 31
334.0
 12
478195.397
 22
6772328.426
 32
322.0
 13
478206.531
 23
6772330.487
 33
322.0
  0
3DFACE
  5
12F
330
1F
100
AcDbEntity
  8
0
  6
CONTINUOUS-0-1-1-0-0
370
     0
100
AcDbFace
 10
478207.149
 20
6772327.331
 30
310.0
 11
478206.531
 21
6772330.487
 31
322.0
 12
478195.982
 22
6772325.264
 32
310.0
 13
478207.149
 23
6772327.331
 33
310.0
  0
3DFACE
  5
130
330
1F
100
AcDbEntity
  8
0
  6
CONTINUOUS-0-1-1-0-0
370
     0
100
AcDbFace
 10
478206.531
 20
6772330.487
 30
322.0
 11
478221.062
 21
6772333.49
 31
322.0
 12
478205.913
 22
6772333.642
 32
334.0
 13
478206.531
 23
6772330.487
 33
322.0
  0
3DFACE
  5
131
330
1F
100
AcDbEntity
  8
0
  6
CONTINUOUS-0-1-1-0-0
370
     0
100
AcDbFace
 10
478221.062
 20
6772333.49
 30
322.0
 11
478220.411
 21
6772336.639
 31
334.0
 12
478205.913
 22
6772333.642
 32
334.0
 13
478221.062
 23
6772333.49
 33
322.0
  0
3DFACE
  5
132
330
1F
100
AcDbEntity
  8
0
  6
CONTINUOUS-0-1-1-0-0
370
     0
100
AcDbFace
 10
478207.149
 20
6772327.331
 30
310.0
 11
478221.713
 21
6772330.341
 31
310.0
 12
478206.531
 22
6772330.487
 32
322.0
 13
478207.149
 23
6772327.331
 33
310.0
  0
3DFACE
  5
133
330
1F
100
AcDbEntity
  8
0
  6
CONTINUOUS-0-1-1-0-0
370
     0
100
AcDbFace
 10
478221.713
 20
6772330.341
 30
310.0
 11
478221.062
 21
6772333.49
 31
322.0
 12
478206.531
 22
6772330.487
 32
322.0
 13
478221.713
 23
6772330.341
 33
310.0
  0
3DFACE
  5
134
330
1F
100
AcDbEntity
  8
0
  6
CONTINUOUS-0-1-1-0-0
370
     0
100
AcDbFace
 10
478221.062
 20
6772333.49
 30
322.0
 11
478234.974
 21
6772339.649
 31
334.0
 12
478220.411
 22
6772336.639
 32
334.0
 13
478221.062
 23
6772333.49
 33
322.0
  0
3DFACE
  5
135
330
1F
100
AcDbEntity
  8
0
  6
CONTINUOUS-0-1-1-0-0
370
     0
100
AcDbFace
 10
478221.713
 20
6772330.341
 30
310.0
 11
478235.625
 21
6772336.5
 31
322.0
 12
478221.062
 22
6772333.49
 32
322.0
 13
478221.713
 23
6772330.341
 33
310.0
  0
3DFACE
  5
136
330
1F
100
AcDbEntity
  8
0
  6
CONTINUOUS-0-1-1-0-0
370
     0
100
AcDbFace
 10
478235.625
 20
6772336.5
 30
322.0
 11
478234.974
 21
6772339.649
 31
334.0
 12
478221.062
 22
6772333.49
 32
322.0
 13
478235.625
 23
6772336.5
 33
322.0
  0
3DFACE
  5
137
330
1F
100
AcDbEntity
  8
0
  6
CONTINUOUS-0-1-1-0-0
370
     0
100
AcDbFace
 10
478236.276
 20
6772333.351
 30
310.0
 11
478235.625
 21
6772336.5
 31
322.0
 12
478221.713
 22
6772330.341
 32
310.0
 13
478236.276
 23
6772333.351
 33
310.0
  0
3DFACE
  5
138
330
1F
100
AcDbEntity
  8
0
  6
CONTINUOUS-0-1-1-0-0
370
     0
100
AcDbFace
 10
478235.625
 20
6772336.5
 30
322.0
 11
478250.188
 21
6772339.511
 31
322.0
 12
478234.974
 22
6772339.649
 32
334.0
 13
478235.625
 23
6772336.5
 33
322.0
  0
3DFACE
  5
139
330
1F
100
AcDbEntity
  8
0
  6
CONTINUOUS-0-1-1-0-0
370
     0
100
AcDbFace
 10
478250.188
 20
6772339.511
 30
322.0
 11
478249.537
 21
6772342.66
 31
334.0
 12
478234.974
 22
6772339.649
 32
334.0
 13
478250.188
 23
6772339.511
 33
322.0
  0
3DFACE
  5
13A
330
1F
100
AcDbEntity
  8
0
  6
CONTINUOUS-0-1-1-0-0
370
     0
100
AcDbFace
 10
478236.276
 20
6772333.351
 30
310.0
 11
478250.839
 21
6772336.362
 31
310.0
 12
478235.625
 22
6772336.5
 32
322.0
 13
478236.276
 23
6772333.351
 33
310.0
  0
3DFACE
  5
13B
330
1F
100
AcDbEntity
  8
0
  6
CONTINUOUS-0-1-1-0-0
370
     0
100
AcDbFace
 10
478250.839
 20
6772336.362
 30
310.0
 11
478250.188
 21
6772339.511
 31
322.0
 12
478235.625
 22
6772336.5
 32
322.0
 13
478250.839
 23
6772336.362
 33
310.0
  0
3DFACE
  5
13C
330
1F
100
AcDbEntity
  8
0
  6
CONTINUOUS-0-1-1-0-0
370
     0
100
AcDbFace
 10
478250.188
 20
6772339.511
 30
322.0
 11
478263.619
 21
6772345.57
 31
334.0
 12
478249.537
 22
6772342.66
 32
334.0
 13
478250.188
 23
6772339.511
 33
322.0
  0
3DFACE
  5
13D
330
1F
100
AcDbEntity
  8
0
  6
CONTINUOUS-0-1-1-0-0
370
     0
100
AcDbFace
 10
478250.839
 20
6772336.362
 30
310.0
 11
478264.51
 21
6772342.471
 31
322.0
 12
478250.188
 22
6772339.511
 32
322.0
 13
478250.839
 23
6772336.362
 33
310.0
  0
3DFACE
  5
13E
330
1F
100
AcDbEntity
  8
0
  6
CONTINUOUS-0-1-1-0-0
370
     0
100
AcDbFace
 10
478264.51
 20
6772342.471
 30
322.0
 11
478263.619
 21
6772345.57
 31
334.0
 12
478250.188
 22
6772339.511
 32
322.0
 13
478264.51
 23
6772342.471
 33
322.0
  0
3DFACE
  5
13F
330
1F
100
AcDbEntity
  8
0
  6
CONTINUOUS-0-1-1-0-0
370
     0
100
AcDbFace
 10
478265.402
 20
6772339.372
 30
310.0
 11
478264.51
 21
6772342.471
 31
322.0
 12
478250.839
 22
6772336.362
 32
310.0
 13
478265.402
 23
6772339.372
 33
310.0
  0
3DFACE
  5
140
330
1F
100
AcDbEntity
  8
0
  6
CONTINUOUS-0-1-1-0-0
370
     0
100
AcDbFace
 10
478264.51
 20
6772342.471
 30
322.0
 11
478275.451
 21
6772346.545
 31
322.0
 12
478263.619
 22
6772345.57
 32
334.0
 13
478264.51
 23
6772342.471
 33
322.0
  0
3DFACE
  5
141
330
1F
100
AcDbEntity
  8
0
  6
CONTINUOUS-0-1-1-0-0
370
     0
100
AcDbFace
 10
478275.451
 20
6772346.545
 30
322.0
 11
478274.329
 21
6772349.558
 31
334.0
 12
478263.619
 22
6772345.57
 32
334.0
 13
478275.451
 23
6772346.545
 33
322.0
  0
3DFACE
  5
142
330
1F
100
AcDbEntity
  8
0
  6
CONTINUOUS-0-1-1-0-0
370
     0
100
AcDbFace
 10
478265.402
 20
6772339.372
 30
310.0
 11
478276.573
 21
6772343.532
 31
310.0
 12
478264.51
 22
6772342.471
 32
322.0
 13
478265.402
 23
6772339.372
 33
310.0
  0
3DFACE
  5
143
330
1F
100
AcDbEntity
  8
0
  6
CONTINUOUS-0-1-1-0-0
370
     0
100
AcDbFace
 10
478276.573
 20
6772343.532
 30
310.0
 11
478275.451
 21
6772346.545
 31
322.0
 12
478264.51
 22
6772342.471
 32
322.0
 13
478276.573
 23
6772343.532
 33
310.0
  0
3DFACE
  5
144
330
1F
100
AcDbEntity
  8
0
  6
CONTINUOUS-0-1-1-0-0
370
     0
100
AcDbFace
 10
478275.451
 20
6772346.545
 30
322.0
 11
478286.641
 21
6772350.712
 31
322.0
 12
478274.329
 22
6772349.558
 32
334.0
 13
478275.451
 23
6772346.545
 33
322.0
  0
3DFACE
  5
145
330
1F
100
AcDbEntity
  8
0
  6
CONTINUOUS-0-1-1-0-0
370
     0
100
AcDbFace
 10
478286.641
 20
6772350.712
 30
322.0
 11
478285.539
 21
6772353.733
 31
334.0
 12
478274.329
 22
6772349.558
 32
334.0
 13
478286.641
 23
6772350.712
 33
322.0
  0
3DFACE
  5
146
330
1F
100
AcDbEntity
  8
0
  6
CONTINUOUS-0-1-1-0-0
370
     0
100
AcDbFace
 10
478276.573
 20
6772343.532
 30
310.0
 11
478287.744
 21
6772347.692
 31
310.0
 12
478275.451
 22
6772346.545
 32
322.0
 13
478276.573
 23
6772343.532
 33
310.0
  0
3DFACE
  5
147
330
1F
100
AcDbEntity
  8
0
  6
CONTINUOUS-0-1-1-0-0
370
     0
100
AcDbFace
 10
478287.744
 20
6772347.692
 30
310.0
 11
478286.641
 21
6772350.712
 31
322.0
 12
478275.451
 22
6772346.545
 32
322.0
 13
478287.744
 23
6772347.692
 33
310.0
  0
3DFACE
  5
148
330
1F
100
AcDbEntity
  8
0
  6
CONTINUOUS-0-1-1-0-0
370
     0
100
AcDbFace
 10
478286.641
 20
6772350.712
 30
322.0
 11
478295.402
 21
6772357.261
 31
334.0
 12
478285.539
 22
6772353.733
 32
334.0
 13
478286.641
 23
6772350.712
 33
322.0
  0
3DFACE
  5
149
330
1F
100
AcDbEntity
  8
0
  6
CONTINUOUS-0-1-1-0-0
370
     0
100
AcDbFace
 10
478287.744
 20
6772347.692
 30
310.0
 11
478296.476
 21
6772354.231
 31
322.0
 12
478286.641
 22
6772350.712
 32
322.0
 13
478287.744
 23
6772347.692
 33
310.0
  0
3DFACE
  5
14A
330
1F
100
AcDbEntity
  8
0
  6
CONTINUOUS-0-1-1-0-0
370
     0
100
AcDbFace
 10
478296.476
 20
6772354.231
 30
322.0
 11
478295.402
 21
6772357.261
 31
334.0
 12
478286.641
 22
6772350.712
 32
322.0
 13
478296.476
 23
6772354.231
 33
322.0
  0
3DFACE
  5
14B
330
1F
100
AcDbEntity
  8
0
  6
CONTINUOUS-0-1-1-0-0
370
     0
100
AcDbFace
 10
478297.55
 20
6772351.2
 30
310.0
 11
478296.476
 21
6772354.231
 31
322.0
 12
478287.744
 22
6772347.692
 32
310.0
 13
478297.55
 23
6772351.2
 33
310.0
  0
3DFACE
  5
14C
330
1F
100
AcDbEntity
  8
0
  6
CONTINUOUS-0-1-1-0-0
370
     0
100
AcDbFace
 10
478296.476
 20
6772354.231
 30
322.0
 11
478306.249
 21
6772361.07
 31
334.0
 12
478295.402
 22
6772357.261
 32
334.0
 13
478296.476
 23
6772354.231
 33
322.0
  0
3DFACE
  5
14D
330
1F
100
AcDbEntity
  8
0
  6
CONTINUOUS-0-1-1-0-0
370
     0
100
AcDbFace
 10
478297.55
 20
6772351.2
 30
310.0
 11
478307.399
 21
6772358.065
 31
322.0
 12
478296.476
 22
6772354.231
 32
322.0
 13
478297.55
 23
6772351.2
 33
310.0
  0
3DFACE
  5
14E
330
1F
100
AcDbEntity
  8
0
  6
CONTINUOUS-0-1-1-0-0
370
     0
100
AcDbFace
 10
478307.399
 20
6772358.065
 30
322.0
 11
478306.249
 21
6772361.07
 31
334.0
 12
478296.476
 22
6772354.231
 32
322.0
 13
478307.399
 23
6772358.065
 33
322.0
  0
3DFACE
  5
14F
330
1F
100
AcDbEntity
  8
0
  6
CONTINUOUS-0-1-1-0-0
370
     0
100
AcDbFace
 10
478308.548
 20
6772355.061
 30
310.0
 11
478307.399
 21
6772358.065
 31
322.0
 12
478297.55
 22
6772351.2
 32
310.0
 13
478308.548
 23
6772355.061
 33
310.0
  0
3DFACE
  5
150
330
1F
100
AcDbEntity
  8
0
  6
CONTINUOUS-0-1-1-0-0
370
     0
100
AcDbFace
 10
478307.399
 20
6772358.065
 30
322.0
 11
478309.407
 21
6772362.379
 31
334.0
 12
478306.249
 22
6772361.07
 32
334.0
 13
478307.399
 23
6772358.065
 33
322.0
  0
3DFACE
  5
151
330
1F
100
AcDbEntity
  8
0
  6
CONTINUOUS-0-1-1-0-0
370
     0
100
AcDbFace
 10
478308.548
 20
6772355.061
 30
310.0
 11
478310.939
 21
6772359.534
 31
322.0
 12
478307.399
 22
6772358.065
 32
322.0
 13
478308.548
 23
6772355.061
 33
310.0
  0
3DFACE
  5
152
330
1F
100
AcDbEntity
  8
0
  6
CONTINUOUS-0-1-1-0-0
370
     0
100
AcDbFace
 10
478310.939
 20
6772359.534
 30
322.0
 11
478309.407
 21
6772362.379
 31
334.0
 12
478307.399
 22
6772358.065
 32
322.0
 13
478310.939
 23
6772359.534
 33
322.0
  0
3DFACE
  5
153
330
1F
100
AcDbEntity
  8
0
  6
CONTINUOUS-0-1-1-0-0
370
     0
100
AcDbFace
 10
478312.471
 20
6772356.688
 30
310.0
 11
478310.939
 21
6772359.534
 31
322.0
 12
478308.548
 22
6772355.061
 32
310.0
 13
478312.471
 23
6772356.688
 33
310.0
  0
3DFACE
  5
154
330
1F
100
AcDbEntity
  8
0
  6
CONTINUOUS-0-1-1-0-0
370
     0
100
AcDbFace
 10
478310.939
 20
6772359.534
 30
322.0
 11
478318.72
 21
6772364.796
 31
322.0
 12
478309.407
 22
6772362.379
 32
334.0
 13
478310.939
 23
6772359.534
 33
322.0
  0
3DFACE
  5
155
330
1F
100
AcDbEntity
  8
0
  6
CONTINUOUS-0-1-1-0-0
370
     0
100
AcDbFace
 10
478318.72
 20
6772364.796
 30
322.0
 11
478316.918
 21
6772367.46
 31
334.0
 12
478309.407
 22
6772362.379
 32
334.0
 13
478318.72
 23
6772364.796
 33
322.0
  0
3DFACE
  5
156
330
1F
100
AcDbEntity
  8
0
  6
CONTINUOUS-0-1-1-0-0
370
     0
100
AcDbFace
 10
478312.471
 20
6772356.688
 30
310.0
 11
478320.521
 21
6772362.133
 31
310.0
 12
478310.939
 22
6772359.534
 32
322.0
 13
478312.471
 23
6772356.688
 33
310.0
  0
3DFACE
  5
157
330
1F
100
AcDbEntity
  8
0
  6
CONTINUOUS-0-1-1-0-0
370
     0
100
AcDbFace
 10
478320.521
 20
6772362.133
 30
310.0
 11
478318.72
 21
6772364.796
 31
322.0
 12
478310.939
 22
6772359.534
 32
322.0
 13
478320.521
 23
6772362.133
 33
310.0
  0
3DFACE
  5
158
330
1F
100
AcDbEntity
  8
0
  6
CONTINUOUS-0-1-1-0-0
370
     0
100
AcDbFace
 10
478318.72
 20
6772364.796
 30
322.0
 11
478324.949
 21
6772372.891
 31
334.0
 12
478316.918
 22
6772367.46
 32
334.0
 13
478318.72
 23
6772364.796
 33
322.0
  0
3DFACE
  5
159
330
1F
100
AcDbEntity
  8
0
  6
CONTINUOUS-0-1-1-0-0
370
     0
100
AcDbFace
 10
478320.521
 20
6772362.133
 30
310.0
 11
478326.76
 21
6772370.234
 31
322.0
 12
478318.72
 22
6772364.796
 32
322.0
 13
478320.521
 23
6772362.133
 33
310.0
  0
3DFACE
  5
15A
330
1F
100
AcDbEntity
  8
0
  6
CONTINUOUS-0-1-1-0-0
370
     0
100
AcDbFace
 10
478326.76
 20
6772370.234
 30
322.0
 11
478324.949
 21
6772372.891
 31
334.0
 12
478318.72
 22
6772364.796
 32
322.0
 13
478326.76
 23
6772370.234
 33
322.0
  0
3DFACE
  5
15B
330
1F
100
AcDbEntity
  8
0
  6
CONTINUOUS-0-1-1-0-0
370
     0
100
AcDbFace
 10
478328.572
 20
6772367.578
 30
310.0
 11
478326.76
 21
6772370.234
 31
322.0
 12
478320.521
 22
6772362.133
 32
310.0
 13
478328.572
 23
6772367.578
 33
310.0
  0
3DFACE
  5
15C
330
1F
100
AcDbEntity
  8
0
  6
CONTINUOUS-0-1-1-0-0
370
     0
100
AcDbFace
 10
478326.76
 20
6772370.234
 30
322.0
 11
478333.588
 21
6772374.93
 31
322.0
 12
478324.949
 22
6772372.891
 32
334.0
 13
478326.76
 23
6772370.234
 33
322.0
  0
3DFACE
  5
15D
330
1F
100
AcDbEntity
  8
0
  6
CONTINUOUS-0-1-1-0-0
370
     0
100
AcDbFace
 10
478333.588
 20
6772374.93
 30
322.0
 11
478331.766
 21
6772377.579
 31
334.0
 12
478324.949
 22
6772372.891
 32
334.0
 13
478333.588
 23
6772374.93
 33
322.0
  0
3DFACE
  5
15E
330
1F
100
AcDbEntity
  8
0
  6
CONTINUOUS-0-1-1-0-0
370
     0
100
AcDbFace
 10
478328.572
 20
6772367.578
 30
310.0
 11
478335.41
 21
6772372.281
 31
310.0
 12
478326.76
 22
6772370.234
 32
322.0
 13
478328.572
 23
6772367.578
 33
310.0
  0
3DFACE
  5
15F
330
1F
100
AcDbEntity
  8
0
  6
CONTINUOUS-0-1-1-0-0
370
     0
100
AcDbFace
 10
478335.41
 20
6772372.281
 30
310.0
 11
478333.588
 21
6772374.93
 31
322.0
 12
478326.76
 22
6772370.234
 32
322.0
 13
478335.41
 23
6772372.281
 33
310.0
  0
3DFACE
  5
160
330
1F
100
AcDbEntity
  8
0
  6
CONTINUOUS-0-1-1-0-0
370
     0
100
AcDbFace
 10
478333.588
 20
6772374.93
 30
322.0
 11
478340.523
 21
6772379.701
 31
322.0
 12
478331.766
 22
6772377.579
 32
334.0
 13
478333.588
 23
6772374.93
 33
322.0
  0
3DFACE
  5
161
330
1F
100
AcDbEntity
  8
0
  6
CONTINUOUS-0-1-1-0-0
370
     0
100
AcDbFace
 10
478340.523
 20
6772379.701
 30
322.0
 11
478338.797
 21
6772382.417
 31
334.0
 12
478331.766
 22
6772377.579
 32
334.0
 13
478340.523
 23
6772379.701
 33
322.0
  0
3DFACE
  5
162
330
1F
100
AcDbEntity
  8
0
  6
CONTINUOUS-0-1-1-0-0
370
     0
100
AcDbFace
 10
478335.41
 20
6772372.281
 30
310.0
 11
478342.248
 21
6772376.985
 31
310.0
 12
478333.588
 22
6772374.93
 32
322.0
 13
478335.41
 23
6772372.281
 33
310.0
  0
3DFACE
  5
163
330
1F
100
AcDbEntity
  8
0
  6
CONTINUOUS-0-1-1-0-0
370
     0
100
AcDbFace
 10
478342.248
 20
6772376.985
 30
310.0
 11
478340.523
 21
6772379.701
 31
322.0
 12
478333.588
 22
6772374.93
 32
322.0
 13
478342.248
 23
6772376.985
 33
310.0
  0
ENDSEC
  0
SECTION
  2
OBJECTS
  0
DICTIONARY
  5
C
330
0
100
AcDbDictionary
281
     1
  3
ACAD_GROUP
350
D
  3
ACAD_LAYOUT
350
1A
  3
ACAD_MATERIAL
350
3B
  3
ACAD_MLEADERSTYLE
350
165
  3
ACAD_MLINESTYLE
350
17
  3
ACAD_PLOTSETTINGS
350
19
  3
ACAD_PLOTSTYLENAME
350
E
  3
ACAD_TABLESTYLE
350
164
  3
ACAD_VISUALSTYLE
350
2A
  0
DICTIONARY
  5
D
102
{ACAD_REACTORS
330
C
102
}
330
C
100
AcDbDictionary
281
     1
  0
DICTIONARY
  5
1A
102
{ACAD_REACTORS
330
C
102
}
330
C
100
AcDbDictionary
281
     1
  3
Layout1
350
1E
  3
Layout2
350
26
  3
Model
350
22
  0
DICTIONARY
  5
3B
102
{ACAD_REACTORS
330
C
102
}
330
C
100
AcDbDictionary
281
     1
  3
ByBlock
350
3D
  3
ByLayer
350
3C
  3
Global
350
3E
  0
DICTIONARY
  5
165
102
{ACAD_REACTORS
330
C
102
}
330
C
100
AcDbDictionary
281
     1
  0
DICTIONARY
  5
17
102
{ACAD_REACTORS
330
C
102
}
330
C
100
AcDbDictionary
281
     1
  3
Standard
350
18
  0
DICTIONARY
  5
19
102
{ACAD_REACTORS
330
C
102
}
330
C
100
AcDbDictionary
281
     1
  0
ACDBDICTIONARYWDFLT
  5
E
102
{ACAD_REACTORS
330
C
102
}
330
C
100
AcDbDictionary
281
     1
  3
Normal
350
F
100
AcDbDictionaryWithDefault
340
F
  0
DICTIONARY
  5
164
102
{ACAD_REACTORS
330
C
102
}
330
C
100
AcDbDictionary
281
     1
  0
DICTIONARY
  5
2A
102
{ACAD_REACTORS
330
C
102
}
330
C
100
AcDbDictionary
281
     1
  3
2dWireframe
350
2F
  3
3D Hidden
350
31
  3
3dWireframe
350
30
  3
Basic
350
32
  3
Brighten
350
36
  3
ColorChange
350
3A
  3
Conceptual
350
34
  3
Dim
350
35
  3
Facepattern
350
39
  3
Flat
350
2B
  3
FlatWithEdges
350
2C
  3
Gouraud
350
2D
  3
GouraudWithEdges
350
2E
  3
Linepattern
350
38
  3
Realistic
350
33
  3
Thicken
350
37
  0
LAYOUT
  5
1E
102
{ACAD_REACTORS
330
1A
102
}
330
1A
100
AcDbPlotSettings
  1

  2
none_device
  4

  6

 40
0.0
 41
0.0
 42
0.0
 43
0.0
 44
0.0
 45
0.0
 46
0.0
 47
0.0
 48
0.0
 49
0.0
140
0.0
141
0.0
142
1.0
143
1.0
 70
   688
 72
     0
 73
     0
 74
     5
  7

 75
    16
 76
     0
 77
     2
 78
   300
147
1.0
148
0.0
149
0.0
100
AcDbLayout
  1
Layout1
 70
     1
 71
     1
 10
0.0
 20
0.0
 11
12.0
 21
9.0
 12
0.0
 22
0.0
 32
0.0
 14
1.000000000000000E+20
 24
1.000000000000000E+20
 34
1.000000000000000E+20
 15
-1.000000000000000E+20
 25
-1.000000000000000E+20
 35
-1.000000000000000E+20
146
0.0
 13
0.0
 23
0.0
 33
0.0
 16
1.0
 26
0.0
 36
0.0
 17
0.0
 27
1.0
 37
0.0
 76
     0
330
1B
  0
LAYOUT
  5
26
102
{ACAD_REACTORS
330
1A
102
}
330
1A
100
AcDbPlotSettings
  1

  2
none_device
  4

  6

 40
0.0
 41
0.0
 42
0.0
 43
0.0
 44
0.0
 45
0.0
 46
0.0
 47
0.0
 48
0.0
 49
0.0
140
0.0
141
0.0
142
1.0
143
1.0
 70
   688
 72
     0
 73
     0
 74
     5
  7

 75
    16
 76
     0
 77
     2
 78
   300
147
1.0
148
0.0
149
0.0
100
AcDbLayout
  1
Layout2
 70
     1
 71
     2
 10
0.0
 20
0.0
 11
0.0
 21
0.0
 12
0.0
 22
0.0
 32
0.0
 14
0.0
 24
0.0
 34
0.0
 15
0.0
 25
0.0
 35
0.0
146
0.0
 13
0.0
 23
0.0
 33
0.0
 16
1.0
 26
0.0
 36
0.0
 17
0.0
 27
1.0
 37
0.0
 76
     0
330
23
  0
LAYOUT
  5
22
102
{ACAD_REACTORS
330
1A
102
}
330
1A
100
AcDbPlotSettings
  1

  2
none_device
  4

  6

 40
0.0
 41
0.0
 42
0.0
 43
0.0
 44
0.0
 45
0.0
 46
0.0
 47
0.0
 48
0.0
 49
0.0
140
0.0
141
0.0
142
1.0
143
1.0
 70
  1712
 72
     0
 73
     0
 74
     0
  7

 75
     0
 76
     0
 77
     2
 78
   300
147
1.0
148
0.0
149
0.0
100
AcDbLayout
  1
Model
 70
     1
 71
     0
 10
0.0
 20
0.0
 11
12.0
 21
9.0
 12
0.0
 22
0.0
 32
0.0
 14
1.000000000000000E+20
 24
1.000000000000000E+20
 34
1.000000000000000E+20
 15
-1.000000000000000E+20
 25
-1.000000000000000E+20
 35
-1.000000000000000E+20
146
0.0
 13
0.0
 23
0.0
 33
0.0
 16
1.0
 26
0.0
 36
0.0
 17
0.0
 27
1.0
 37
0.0
 76
     0
330
1F
331
29
  0
MATERIAL
  5
3D
102
{ACAD_REACTORS
330
3B
102
}
330
3B
100
AcDbMaterial
  1
ByBlock
 72
     1
 94
      127
  0
MATERIAL
  5
3C
102
{ACAD_REACTORS
330
3B
102
}
330
3B
100
AcDbMaterial
  1
ByLayer
 72
     1
 94
      127
  0
MATERIAL
  5
3E
102
{ACAD_REACTORS
330
3B
102
}
330
3B
100
AcDbMaterial
  1
Global
 72
     1
 94
      127
  0
MLINESTYLE
  5
18
102
{ACAD_REACTORS
330
17
102
}
330
17
100
AcDbMlineStyle
  2
Standard
 70
     0
  3

 62
   256
 51
90.0
 52
90.0
 71
     2
 49
0.5
 62
   256
  6
BYLAYER
 49
-0.5
 62
   256
  6
BYLAYER
  0
ACDBPLACEHOLDER
  5
F
102
{ACAD_REACTORS
330
E
102
}
330
E
  0
VISUALSTYLE
  5
2F
102
{ACAD_REACTORS
330
2A
102
}
330
2A
100
AcDbVisualStyle
  2
2dWireframe
 70
     4
177
     2
291
     0
 71
     0
176
     1
 72
     2
176
     1
 73
     0
176
     1
 90
        0
176
     1
 40
-0.6
176
     1
 41
-30.0
176
     1
 62
     5
 63
     7
421
 16777215
176
     1
 74
     1
176
     1
 91
        4
176
     1
 64
     7
176
     1
 65
   257
176
     1
 75
     1
176
     1
175
     1
176
     1
 42
1.0
176
     1
 92
        0
176
     1
 66
   257
176
     1
 43
1.0
176
     1
 76
     1
176
     1
 77
     6
176
     1
 78
     2
176
     1
 67
     7
176
     1
 79
     5
176
     1
170
     0
176
     1
171
     0
176
     1
290
     0
176
     1
 93
        1
176
     1
 44
0.0
176
     1
173
     0
176
     1
  0
VISUALSTYLE
  5
31
102
{ACAD_REACTORS
330
2A
102
}
330
2A
100
AcDbVisualStyle
  2
3D Hidden
 70
     6
177
     2
291
     0
 71
     1
176
     1
 72
     2
176
     1
 73
     2
176
     1
 90
        0
176
     1
 40
-0.6
176
     1
 41
-30.0
176
     1
 62
     5
 63
     7
421
 16777215
176
     1
 74
     2
176
     1
 91
        2
176
     1
 64
     7
176
     1
 65
   257
176
     1
 75
     2
176
     1
175
     1
176
     1
 42
40.0
176
     1
 92
        0
176
     1
 66
   257
176
     1
 43
1.0
176
     1
 76
     1
176
     1
 77
     6
176
     1
 78
     2
176
     1
 67
     7
176
     1
 79
     3
176
     1
170
     0
176
     1
171
     0
176
     1
290
     0
176
     1
 93
        1
176
     1
 44
0.0
176
     1
173
     0
176
     1
  0
VISUALSTYLE
  5
30
102
{ACAD_REACTORS
330
2A
102
}
330
2A
100
AcDbVisualStyle
  2
3dWireframe
 70
     5
177
     2
291
     0
 71
     0
176
     1
 72
     2
176
     1
 73
     0
176
     1
 90
        0
176
     1
 40
-0.6
176
     1
 41
-30.0
176
     1
 62
     5
 63
     7
421
 16777215
176
     1
 74
     1
176
     1
 91
        4
176
     1
 64
     7
176
     1
 65
   257
176
     1
 75
     1
176
     1
175
     1
176
     1
 42
1.0
176
     1
 92
        0
176
     1
 66
   257
176
     1
 43
1.0
176
     1
 76
     1
176
     1
 77
     6
176
     1
 78
     2
176
     1
 67
     7
176
     1
 79
     5
176
     1
170
     0
176
     1
171
     0
176
     1
290
     0
176
     1
 93
        1
176
     1
 44
0.0
176
     1
173
     0
176
     1
  0
VISUALSTYLE
  5
32
102
{ACAD_REACTORS
330
2A
102
}
330
2A
100
AcDbVisualStyle
  2
Basic
 70
     7
177
     2
291
     1
 71
     1
176
     1
 72
     0
176
     1
 73
     1
176
     1
 90
        0
176
     1
 40
-0.6
176
     1
 41
-30.0
176
     1
 62
     5
 63
     7
421
 16777215
176
     1
 74
     0
176
     1
 91
        4
176
     1
 64
     7
176
     1
 65
   257
176
     1
 75
     1
176
     1
175
     1
176
     1
 42
1.0
176
     1
 92
        8
176
     1
 66
     7
176
     1
 43
1.0
176
     1
 76
     1
176
     1
 77
     6
176
     1
 78
     2
176
     1
 67
     7
176
     1
 79
     5
176
     1
170
     0
176
     1
171
     0
176
     1
290
     0
176
     1
 93
        1
176
     1
 44
0.0
176
     1
173
     0
176
     1
  0
VISUALSTYLE
  5
36
102
{ACAD_REACTORS
330
2A
102
}
330
2A
100
AcDbVisualStyle
  2
Brighten
 70
    12
177
     2
291
     1
 71
     2
176
     1
 72
     2
176
     1
 73
     0
176
     1
 90
        0
176
     1
 40
-0.6
176
     1
 41
-30.0
176
     1
 62
     5
 63
     7
421
 16777215
176
     1
 74
     1
176
     1
 91
        4
176
     1
 64
     7
176
     1
 65
   257
176
     1
 75
     1
176
     1
175
     1
176
     1
 42
1.0
176
     1
 92
        8
176
     1
 66
     7
176
     1
 43
1.0
176
     1
 76
     1
176
     1
 77
     6
176
     1
 78
     2
176
     1
 67
     7
176
     1
 79
     5
176
     1
170
     0
176
     1
171
     0
176
     1
290
     0
176
     1
 93
        1
176
     1
 44
50.0
176
     1
173
     0
176
     1
  0
VISUALSTYLE
  5
3A
102
{ACAD_REACTORS
330
2A
102
}
330
2A
100
AcDbVisualStyle
  2
ColorChange
 70
    16
177
     2
291
     1
 71
     2
176
     1
 72
     2
176
     1
 73
     3
176
     1
 90
        0
176
     1
 40
-0.6
176
     1
 41
-30.0
176
     1
 62
     5
 63
     8
421
  8421504
176
     1
 74
     1
176
     1
 91
        4
176
     1
 64
     7
176
     1
 65
   257
176
     1
 75
     1
176
     1
175
     1
176
     1
 42
1.0
176
     1
 92
        8
176
     1
 66
     8
424
  8421504
176
     1
 43
1.0
176
     1
 76
     1
176
     1
 77
     6
176
     1
 78
     2
176
     1
 67
     7
176
     1
 79
     5
176
     1
170
     0
176
     1
171
     0
176
     1
290
     0
176
     1
 93
        1
176
     1
 44
0.0
176
     1
173
     0
176
     1
  0
VISUALSTYLE
  5
34
102
{ACAD_REACTORS
330
2A
102
}
330
2A
100
AcDbVisualStyle
  2
Conceptual
 70
     9
177
     2
291
     0
 71
     3
176
     1
 72
     2
176
     1
 73
     0
176
     1
 90
        0
176
     1
 40
-0.6
176
     1
 41
-30.0
176
     1
 62
     5
 63
     7
421
 16777215
176
     1
 74
     2
176
     1
 91
        2
176
     1
 64
     7
176
     1
 65
   257
176
     1
 75
     1
176
     1
175
     1
176
     1
 42
40.0
176
     1
 92
        8
176
     1
 66
     7
176
     1
 43
1.0
176
     1
 76
     1
176
     1
 77
     6
176
     1
 78
     2
176
     1
 67
     7
176
     1
 79
     3
176
     1
170
     0
176
     1
171
     0
176
     1
290
     0
176
     1
 93
        1
176
     1
 44
0.0
176
     1
173
     0
176
     1
  0
VISUALSTYLE
  5
35
102
{ACAD_REACTORS
330
2A
102
}
330
2A
100
AcDbVisualStyle
  2
Dim
 70
    11
177
     2
291
     1
 71
     2
176
     1
 72
     2
176
     1
 73
     0
176
     1
 90
        0
176
     1
 40
-0.6
176
     1
 41
-30.0
176
     1
 62
     5
 63
     7
421
 16777215
176
     1
 74
     1
176
     1
 91
        4
176
     1
 64
     7
176
     1
 65
   257
176
     1
 75
     1
176
     1
175
     1
176
     1
 42
1.0
176
     1
 92
        8
176
     1
 66
     7
176
     1
 43
1.0
176
     1
 76
     1
176
     1
 77
     6
176
     1
 78
     2
176
     1
 67
     7
176
     1
 79
     5
176
     1
170
     0
176
     1
171
     0
176
     1
290
     0
176
     1
 93
        1
176
     1
 44
-50.0
176
     1
173
     0
176
     1
  0
VISUALSTYLE
  5
39
102
{ACAD_REACTORS
330
2A
102
}
330
2A
100
AcDbVisualStyle
  2
Facepattern
 70
    15
177
     2
291
     1
 71
     2
176
     1
 72
     2
176
     1
 73
     0
176
     1
 90
        0
176
     1
 40
-0.6
176
     1
 41
-30.0
176
     1
 62
     5
 63
     7
421
 16777215
176
     1
 74
     1
176
     1
 91
        4
176
     1
 64
     7
176
     1
 65
   257
176
     1
 75
     1
176
     1
175
     1
176
     1
 42
1.0
176
     1
 92
        8
176
     1
 66
     7
176
     1
 43
1.0
176
     1
 76
     1
176
     1
 77
     6
176
     1
 78
     2
176
     1
 67
     7
176
     1
 79
     5
176
     1
170
     0
176
     1
171
     0
176
     1
290
     0
176
     1
 93
        1
176
     1
 44
0.0
176
     1
173
     0
176
     1
  0
VISUALSTYLE
  5
2B
102
{ACAD_REACTORS
330
2A
102
}
330
2A
100
AcDbVisualStyle
  2
Flat
 70
     0
177
     2
291
     1
 71
     2
176
     1
 72
     1
176
     1
 73
     1
176
     1
 90
        2
176
     1
 40
-0.6
176
     1
 41
30.0
176
     1
 62
     5
 63
     7
421
 16777215
176
     1
 74
     0
176
     1
 91
        4
176
     1
 64
     7
176
     1
 65
   257
176
     1
 75
     1
176
     1
175
     1
176
     1
 42
1.0
176
     1
 92
        8
176
     1
 66
     7
176
     1
 43
1.0
176
     1
 76
     1
176
     1
 77
     6
176
     1
 78
     2
176
     1
 67
     7
176
     1
 79
     5
176
     1
170
     0
176
     1
171
     0
176
     1
290
     0
176
     1
 93
       13
176
     1
 44
0.0
176
     1
173
     0
176
     1
  0
VISUALSTYLE
  5
2C
102
{ACAD_REACTORS
330
2A
102
}
330
2A
100
AcDbVisualStyle
  2
FlatWithEdges
 70
     1
177
     2
291
     1
 71
     2
176
     1
 72
     1
176
     1
 73
     1
176
     1
 90
        2
176
     1
 40
-0.6
176
     1
 41
30.0
176
     1
 62
     5
 63
     7
421
 16777215
176
     1
 74
     1
176
     1
 91
        4
176
     1
 64
     7
176
     1
 65
   257
176
     1
 75
     1
176
     1
175
     1
176
     1
 42
1.0
176
     1
 92
        0
176
     1
 66
   257
176
     1
 43
1.0
176
     1
 76
     1
176
     1
 77
     6
176
     1
 78
     2
176
     1
 67
     7
176
     1
 79
     5
176
     1
170
     0
176
     1
171
     0
176
     1
290
     0
176
     1
 93
       13
176
     1
 44
0.0
176
     1
173
     0
176
     1
  0
VISUALSTYLE
  5
2D
102
{ACAD_REACTORS
330
2A
102
}
330
2A
100
AcDbVisualStyle
  2
Gouraud
 70
     2
177
     2
291
     1
 71
     2
176
     1
 72
     2
176
     1
 73
     1
176
     1
 90
        2
176
     1
 40
-0.6
176
     1
 41
30.0
176
     1
 62
     5
 63
     7
421
 16777215
176
     1
 74
     0
176
     1
 91
        4
176
     1
 64
     7
176
     1
 65
   257
176
     1
 75
     1
176
     1
175
     1
176
     1
 42
1.0
176
     1
 92
        0
176
     1
 66
     7
176
     1
 43
1.0
176
     1
 76
     1
176
     1
 77
     6
176
     1
 78
     2
176
     1
 67
     7
176
     1
 79
     5
176
     1
170
     0
176
     1
171
     0
176
     1
290
     0
176
     1
 93
       13
176
     1
 44
0.0
176
     1
173
     0
176
     1
  0
VISUALSTYLE
  5
2E
102
{ACAD_REACTORS
330
2A
102
}
330
2A
100
AcDbVisualStyle
  2
GouraudWithEdges
 70
     3
177
     2
291
     1
 71
     2
176
     1
 72
     2
176
     1
 73
     1
176
     1
 90
        2
176
     1
 40
-0.6
176
     1
 41
30.0
176
     1
 62
     5
 63
     7
421
 16777215
176
     1
 74
     1
176
     1
 91
        4
176
     1
 64
     7
176
     1
 65
   257
176
     1
 75
     1
176
     1
175
     1
176
     1
 42
1.0
176
     1
 92
        0
176
     1
 66
   257
176
     1
 43
1.0
176
     1
 76
     1
176
     1
 77
     6
176
     1
 78
     2
176
     1
 67
     7
176
     1
 79
     5
176
     1
170
     0
176
     1
171
     0
176
     1
290
     0
176
     1
 93
       13
176
     1
 44
0.0
176
     1
173
     0
176
     1
  0
VISUALSTYLE
  5
38
102
{ACAD_REACTORS
330
2A
102
}
330
2A
100
AcDbVisualStyle
  2
Linepattern
 70
    14
177
     2
291
     1
 71
     2
176
     1
 72
     2
176
     1
 73
     0
176
     1
 90
        0
176
     1
 40
-0.6
176
     1
 41
-30.0
176
     1
 62
     5
 63
     7
421
 16777215
176
     1
 74
     1
176
     1
 91
        4
176
     1
 64
     7
176
     1
 65
   257
176
     1
 75
     7
176
     1
175
     7
176
     1
 42
1.0
176
     1
 92
        8
176
     1
 66
     7
176
     1
 43
1.0
176
     1
 76
     1
176
     1
 77
     6
176
     1
 78
     2
176
     1
 67
     7
176
     1
 79
     5
176
     1
170
     0
176
     1
171
     0
176
     1
290
     0
176
     1
 93
        1
176
     1
 44
0.0
176
     1
173
     0
176
     1
  0
VISUALSTYLE
  5
33
102
{ACAD_REACTORS
330
2A
102
}
330
2A
100
AcDbVisualStyle
  2
Realistic
 70
     8
177
     2
291
     0
 71
     2
176
     1
 72
     2
176
     1
 73
     0
176
     1
 90
        0
176
     1
 40
-0.6
176
     1
 41
-30.0
176
     1
 62
     5
 63
     7
421
 16777215
176
     1
 74
     1
176
     1
 91
        0
176
     1
 64
     7
176
     1
 65
   257
176
     1
 75
     1
176
     1
175
     1
176
     1
 42
1.0
176
     1
 92
        8
176
     1
 66
     8
424
  7895160
176
     1
 43
1.0
176
     1
 76
     1
176
     1
 77
     6
176
     1
 78
     2
176
     1
 67
     7
176
     1
 79
     5
176
     1
170
     0
176
     1
171
     0
176
     1
290
     0
176
     1
 93
       13
176
     1
 44
0.0
176
     1
173
     0
176
     1
  0
VISUALSTYLE
  5
37
102
{ACAD_REACTORS
330
2A
102
}
330
2A
100
AcDbVisualStyle
  2
Thicken
 70
    13
177
     2
291
     1
 71
     2
176
     1
 72
     2
176
     1
 73
     0
176
     1
 90
        0
176
     1
 40
-0.6
176
     1
 41
-30.0
176
     1
 62
     5
 63
     7
421
 16777215
176
     1
 74
     1
176
     1
 91
        4
176
     1
 64
     7
176
     1
 65
   257
176
     1
 75
     1
176
     1
175
     1
176
     1
 42
1.0
176
     1
 92
       12
176
     1
 66
     7
176
     1
 43
1.0
176
     1
 76
     1
176
     1
 77
     6
176
     1
 78
     2
176
     1
 67
     7
176
     1
 79
     5
176
     1
170
     0
176
     1
171
     0
176
     1
290
     0
176
     1
 93
        1
176
     1
 44
0.0
176
     1
173
     0
176
     1
  0
ENDSEC
  0
EOF
